<svg width="40" height="40" viewBox="0 0 40 40" fill="none" xmlns="http://www.w3.org/2000/svg">
<path d="M39.92 19.7V19C39.4 15.16 35.92 11.41 32.81 10C30.8845 9.02157 28.8035 8.38543 26.66 8.12C25.0825 7.9339 23.5439 7.502 22.1 6.84L21.74 6.6C21.62 6.52 21.5 6.48 21.38 6.4C20.675 5.87334 20.031 5.2696 19.46 4.6C19.1421 4.20757 18.8735 3.7777 18.66 3.32L18.5 3V19.86H20.3V7.86C20.605 8.14855 20.9403 8.40335 21.3 8.62C22.7631 9.26758 24.3127 9.69876 25.9 9.9C27.8006 10.1792 29.6628 10.6757 31.45 11.38C35.45 13.18 37.84 17.38 38.12 19.73V22.73H21.74V31.12C22.2624 31.122 22.7841 31.0819 23.3 31H23.46V24.38H40V22.66C40 21.78 40 20.66 39.92 19.66" fill="#CD1F45"/>
<path d="M18.46 23.2595C16.8631 23.3208 15.2725 23.4946 13.7 23.7795C12.78 23.9395 11.86 24.1795 10.98 24.4195C10.58 24.5395 10.14 24.6995 9.74 24.8595C9.58 24.4195 9.46 24.0195 9.34 23.6195V23.4595C9.18774 22.827 9.0742 22.1859 9 21.5395H18.47L18.46 23.2595ZM18.46 31.9695H18.34C18.02 31.8895 17.66 31.8495 17.34 31.7295C16.5613 31.5253 15.8095 31.2299 15.1 30.8495C14.6238 30.6102 14.1717 30.3255 13.75 29.9995C12.6931 29.27 11.7838 28.3471 11.07 27.2795C10.9094 27.0622 10.7624 26.8351 10.63 26.5995C10.71 26.5995 10.79 26.5995 10.87 26.5195C10.9302 26.5098 10.986 26.4819 11.03 26.4395C11.83 26.1995 12.75 25.9195 13.71 25.7195C15.2683 25.4226 16.8455 25.2355 18.43 25.1595V31.9995L18.46 31.9695ZM11.07 30.5295C10.4692 30.3102 9.88161 30.0564 9.31001 29.7695L9.07 29.6495C8.59 29.4095 8.07 29.1695 7.63 28.8895C7.63 28.8895 7.51 28.8895 7.47 28.7695C7.43 28.6495 7.55 28.6495 7.63 28.5695L7.75 28.4095C8.03483 28.1309 8.34258 27.8766 8.67 27.6495C8.67 27.6495 8.75 27.6495 8.79 27.5695C8.80893 27.5613 8.82936 27.557 8.85001 27.557C8.87065 27.557 8.89108 27.5613 8.91 27.5695C8.98559 27.6704 9.0525 27.7774 9.11 27.8895C9.16751 28.0017 9.23442 28.1087 9.31001 28.2095C9.83039 28.9687 10.4195 29.6784 11.07 30.3295C11.1399 30.4311 11.2203 30.525 11.31 30.6095C11.2302 30.6164 11.1499 30.6164 11.07 30.6095V30.5295ZM6.23 27.0995C6.10647 27.2802 5.97293 27.4538 5.83 27.6195C5.55 27.3795 5.27 27.1395 5.03 26.8995C3.43441 25.5225 2.37272 23.6291 2.03 21.5495H7C7.07316 22.5643 7.24735 23.5693 7.52 24.5495C7.64043 24.961 7.80121 25.3596 8 25.7395L7.8 25.8595L7.6 25.9795C7.10052 26.2972 6.64062 26.6732 6.23 27.0995ZM2.43001 18.2695C2.6962 17.4787 3.08787 16.7359 3.59 16.0695C4.03593 15.4695 4.53097 14.9076 5.07 14.3895C5.18647 14.2931 5.29361 14.186 5.39 14.0695C5.49309 13.9865 5.58696 13.8926 5.67 13.7895C6.20884 14.4337 6.85921 14.9757 7.59 15.3895H7.67L7.95 15.5495C7.83 15.8695 7.67 16.2695 7.55 16.6695V16.8295C7.47001 17.1495 7.35 17.4695 7.31 17.7495C7.16591 18.3924 7.06237 19.0437 7 19.6995H2.00001C2.07254 19.2089 2.19312 18.7266 2.36 18.2595L2.43001 18.2695ZM7.28 12.5495C7.36863 12.5104 7.44983 12.4563 7.52 12.3895C8.04 12.0695 8.52 11.8295 9.08 11.5495H9.2C9.64239 11.3256 10.0964 11.1253 10.56 10.9495L10.96 10.7895H11.08L10.88 10.9895C10.2154 11.6423 9.62508 12.3667 9.12 13.1495C9.04 13.2695 8.96 13.4295 8.88 13.5495L8.64001 13.9095C8.25402 13.6504 7.90137 13.3448 7.59 12.9995C7.45795 12.8776 7.33744 12.7437 7.23 12.5995C7.27373 12.5789 7.31417 12.552 7.35 12.5195L7.28 12.5495ZM39.2 25.7795H24.7V27.4995H34.7C34.3148 27.8664 33.9001 28.2008 33.46 28.4995C29.5333 30.9156 25 32.1643 20.39 32.0995V21.5395H37V19.6995H9C9 19.1795 9.12 18.6995 9.2 18.2195C9.2 18.0595 9.28 17.8595 9.32 17.6995C9.42369 17.2511 9.55733 16.8101 9.72001 16.3795L9.96 16.4595C10.2859 16.5883 10.6199 16.6952 10.96 16.7795C11.8482 17.0556 12.7581 17.2563 13.68 17.3795H13.92C14.6 17.4995 15.4 17.6195 16.28 17.6995C16.96 17.7795 17.68 17.7795 18.44 17.8195V15.8195C17.7716 15.8174 17.1039 15.7773 16.44 15.6995C15.68 15.6195 14.92 15.5395 14.2 15.4195C14.0239 15.4159 13.8491 15.389 13.68 15.3395C12.77 15.1846 11.8738 14.9572 11 14.6595C10.88 14.6595 10.76 14.6595 10.68 14.5795C10.6 14.4995 10.6 14.5795 10.56 14.5795L11 13.9995C11.0308 13.9278 11.0712 13.8605 11.12 13.7995C11.8665 12.7591 12.7707 11.8414 13.8 11.0795C15.1393 10.1277 16.6785 9.49489 18.3 9.22955H18.46V7.22955H18.3C18.2482 7.21125 18.1918 7.21125 18.14 7.22955C16.6634 7.34811 15.1945 7.54842 13.74 7.82955C12.8142 8.02625 11.9049 8.29369 11.02 8.62954C10.4194 8.80236 9.83134 9.01621 9.26 9.26955C8.68433 9.51705 8.1234 9.7975 7.58 10.1095C6.68569 10.615 5.82399 11.1761 5 11.7895C3.85376 12.6783 2.84314 13.7293 2.00001 14.9095C1.40067 15.7415 0.928815 16.6583 0.600005 17.6295C0.27223 18.5965 0.0968015 19.6086 0.080005 20.6295C4.96954e-06 23.8995 1.76 26.9995 5 29.4895C5.19332 29.6133 5.38023 29.7468 5.56 29.8895C5.76 30.0095 5.92 30.1695 6.12 30.2895C6.48 30.4895 6.84 30.7295 7.2 30.9295C7.32787 31.0183 7.4615 31.0985 7.6 31.1695C8.08 31.4095 8.60001 31.6495 9.04 31.8495L9.28 31.9695C9.85311 32.2298 10.4408 32.4569 11.04 32.6495C11.92 32.9295 12.84 33.2095 13.76 33.4095C15.8828 33.8916 18.0532 34.1331 20.23 34.1295C25.289 34.2283 30.2655 32.8373 34.54 30.1295C35.274 29.6512 35.9694 29.1163 36.62 28.5295C37.5361 27.6855 38.4041 26.7907 39.22 25.8495L39.2 25.7795Z" fill="#073D59"/>
</svg>
