<svg width="30" height="29" viewBox="0 0 30 29" fill="none" xmlns="http://www.w3.org/2000/svg">
<path d="M5.66667 6.60002V12.2M5.66667 15.9333V21.5333M5.66667 26.2V29M24.3333 26.2V29M18.7333 18.7333C16.6715 18.7333 15 17.0619 15 15C15 12.9382 16.6715 11.2667 18.7333 11.2667C20.7952 11.2667 22.4667 12.9382 22.4667 15C22.4667 17.0619 20.7952 18.7333 18.7333 18.7333ZM3.8 1.93335H26.2C27.2309 1.93335 28.0667 2.76908 28.0667 3.80002V24.3333C28.0667 25.3643 27.2309 26.2 26.2 26.2H3.8C2.76907 26.2 1.93333 25.3643 1.93333 24.3333V3.80002C1.93333 2.76908 2.76907 1.93335 3.8 1.93335Z" stroke="#D1F288" stroke-width="2"/>
</svg>
