<svg width="40" height="40" viewBox="0 0 40 40" fill="none" xmlns="http://www.w3.org/2000/svg">
<path d="M39.9071 19.9625V20.043C39.9021 24.5555 39.5701 32.1396 36.1869 35.8951C34.1694 38.1343 31.1585 39.9907 26.5661 40L26.4726 37.8345C30.5694 37.1371 32.9864 34.5132 33.4565 30.741C33.944 26.8312 33.8888 25.1774 33.8888 20.0003C33.8888 14.8288 33.944 13.1731 33.4565 9.26026C32.9864 5.48988 31.0346 2.86418 26.9365 2.16672L26.5661 0C31.1585 0.0080524 34.1688 1.86878 36.1869 4.10858C39.5695 7.86224 39.9021 15.4457 39.9071 19.9625ZM6.45121 30.741C5.96311 26.8312 6.017 25.1774 6.017 20.0003C6.017 14.8288 5.99904 13.1762 6.45121 9.26026C6.95728 4.88037 9.66474 2.86418 13.7603 2.16672L14 0C9.40644 0.00433591 5.7395 1.8694 3.72145 4.10858C0.338201 7.86286 0.00185825 15.4457 0 19.9625V20.043C0.00185825 24.5555 0.336962 32.1396 3.72145 35.8951C5.73889 38.1343 8.74863 39.9957 13.3416 40L13.4351 37.8345C9.33707 37.1371 6.92197 34.5138 6.45121 30.741ZM28.5674 24.8287C28.5674 28.8016 27.5578 32.108 24.0581 34.0127C22.9865 34.5962 21.2986 35.0075 19.9817 35.0075C18.5626 35.0075 17.0166 34.7758 15.8676 34.0858C15.0227 33.5785 14.0521 32.7894 13.4271 31.9618C11.9008 29.9394 11.1544 27.7529 11.1544 23.2169C11.1544 14.2503 11.3291 10.3715 13.5349 8.6904C17.7097 5.50908 21.6764 3.48855 22.1423 2.09362C22.4532 1.16326 22.1423 0.471375 22.1423 0.471375L23.7583 0.0421203C25.025 4.10982 25.8309 7.95577 22.5913 9.70252C19.6206 11.3043 19.1344 11.3718 16.6431 12.6732C14.5668 13.7578 13.2914 14.7879 13.0833 16.5737C12.9972 17.3158 12.8999 19.2192 12.8999 19.2192L13.6804 19.1709C13.9561 18.2889 14.415 17.3443 15.3819 16.5279C16.6022 15.4978 18.256 14.7031 20.0561 14.6448C20.2276 14.6393 20.3974 14.6362 20.5652 14.6362C22.6917 14.6362 24.5357 15.1001 25.9622 16.3823C28.2162 18.4084 28.5674 21.744 28.5674 24.8287ZM22.115 18.7262C21.5736 17.4316 20.8266 17.2036 19.8845 17.2012C18.9442 17.1987 18.1935 17.5381 17.6496 18.8296C17.0593 20.232 16.9367 22.2116 16.9317 24.7834C16.9261 27.3565 17.0407 29.4501 17.6267 30.85C18.1699 32.1483 18.917 32.6011 19.8572 32.6042C20.7963 32.6073 21.5488 32.1539 22.0952 30.8605C22.6861 29.4613 22.8063 27.3676 22.8112 24.7958C22.8162 22.2222 22.7022 20.1298 22.115 18.7262Z" fill="#181716"/>
</svg>
