<svg width="40" height="40" viewBox="0 0 40 40" fill="none" xmlns="http://www.w3.org/2000/svg">
<path d="M40 36.8004C35.5 35.4004 28.1 34.5004 19.8 34.5004C11.7 34.5004 4.5 35.4004 0 36.7004V40.0004H40V36.8004ZM20 17.9004C28.1 17.9004 35.7 22.2004 40 26.6004V23.3004C35.4 16.7004 28.1 12.4004 20 12.4004C11.9 12.4004 4.6 16.7004 0 23.3004V26.6004C4.3 22.1004 11.6 18.2004 20 17.9004C20.1 17.9004 20.1 17.9004 20 17.9004Z" fill="#E92314"/>
<path d="M20 28.8998C28.2 28.8998 35 30.6998 40 33.1998V29.7998C35 25.8998 28.2 23.4998 20 23.2998C11.8 23.5998 5 26.0998 0 29.8998V33.1998C5.1 30.7998 11.8 28.8998 20 28.8998Z" fill="#E92314"/>
<path d="M40 20.4C35.5 12 28.1 6.6 19.8 6.6C11.7 6.6 4.6 11.8 0 19.7V0H40V20.4Z" fill="black"/>
</svg>
