<svg version="1.1" id="Layer_1" xmlns="http://www.w3.org/2000/svg" xmlns:xlink="http://www.w3.org/1999/xlink" x="0px" y="0px"
	 width="300" viewBox="0 0 300 300" enable-background="new 0 0 300 300" xml:space="preserve">
<path fill="#E22228" opacity="1.000000" stroke="none" 
	d="
M63.736153,201.212799 
	C52.353996,181.876846 49.276535,161.026855 51.166016,139.516663 
	C52.831902,120.551888 60.196484,103.476189 72.050735,88.500793 
	C85.067032,72.057373 101.571953,60.253258 121.783524,54.809929 
	C155.873749,45.628822 187.381744,50.846386 215.287521,73.703316 
	C232.300247,87.638023 243.554703,105.284668 248.498306,126.423042 
	C253.375397,147.277115 252.436646,168.128983 244.306549,188.395782 
	C238.894913,201.885956 231.236053,213.844727 220.673553,223.679688 
	C205.627777,237.689148 188.178848,247.238358 167.456375,250.049438 
	C144.681625,253.138885 122.905838,250.483704 102.553177,239.186310 
	C86.253906,230.138885 73.338493,217.638382 63.736153,201.212799 
M91.464645,80.955421 
	C64.807655,104.811508 54.415802,134.488678 61.073994,169.533295 
	C69.515686,213.965179 110.214439,244.983887 156.049500,242.756104 
	C200.797974,240.581131 237.926376,205.181198 242.302109,160.518875 
	C246.044388,122.322227 227.380127,87.521286 193.454254,69.438271 
	C160.901978,52.087406 121.166801,56.412392 91.464645,80.955421 
z"/>
<path fill="#F4EEF1" opacity="1.000000" stroke="none" 
	d="
M91.728035,80.718719 
	C121.166801,56.412392 160.901978,52.087406 193.454254,69.438271 
	C227.380127,87.521286 246.044388,122.322227 242.302109,160.518875 
	C237.926376,205.181198 200.797974,240.581131 156.049500,242.756104 
	C110.214439,244.983887 69.515686,213.965179 61.073994,169.533295 
	C54.415802,134.488678 64.807655,104.811508 91.728035,80.718719 
M138.326340,111.165138 
	C138.326340,152.589111 138.326340,194.013092 138.326340,235.755020 
	C147.135712,235.755020 154.998169,235.755020 163.146667,235.755020 
	C163.146667,233.587677 163.142853,231.935898 163.147217,230.284164 
	C163.253845,189.975113 163.375656,149.666107 163.457336,109.357010 
	C163.475006,100.639305 166.837662,93.409721 173.500046,88.000793 
	C176.936462,85.210915 181.067764,83.253372 184.963867,81.059654 
	C189.263199,78.638908 189.544357,75.449463 185.493744,72.751167 
	C184.402313,72.024117 183.157364,71.334709 181.893433,71.089920 
	C171.659149,69.107742 161.468063,66.284813 151.137222,65.583916 
	C139.648468,64.804474 128.249496,67.223434 117.708702,72.277069 
	C116.021706,73.085876 114.230934,75.201202 113.969543,76.935768 
	C113.789276,78.132011 116.056953,79.829613 117.434334,81.078506 
	C118.263222,81.830063 119.492027,82.132988 120.525528,82.667641 
	C131.721649,88.459671 138.791687,96.918343 138.326340,111.165138 
M225.880341,109.687279 
	C219.030258,97.069603 209.392639,87.119476 197.359314,78.995094 
	C197.359314,127.167030 197.359314,174.669189 197.359314,222.959183 
	C220.578079,206.874374 233.236191,185.623550 236.238495,158.132339 
	C227.149017,157.831924 223.836838,164.644394 219.710800,170.621262 
	C218.478622,169.316818 217.313004,168.626724 216.988190,167.655457 
	C213.453720,157.086258 213.148758,146.402573 217.032135,135.910065 
	C218.452347,132.072784 220.610672,133.392731 222.153717,136.294388 
	C225.061829,141.763046 229.279938,145.197281 236.195602,145.297348 
	C235.588699,132.597137 232.017380,121.162849 225.880341,109.687279 
M90.391655,166.930634 
	C89.541252,168.045197 88.690842,169.159744 87.127502,171.208679 
	C85.723671,168.242477 84.017792,166.252548 83.946953,164.206055 
	C83.656052,155.802353 83.674889,147.373306 84.039093,138.973495 
	C84.115311,137.215485 86.139725,135.541946 87.266388,133.829498 
	C88.567070,135.163315 90.141022,136.323639 91.118263,137.862808 
	C94.314697,142.897247 98.694923,145.452011 104.701126,145.383087 
	C104.701126,123.332832 104.701126,101.593208 104.701126,78.848343 
	C79.393684,96.496078 66.113342,119.922417 65.666199,149.873993 
	C65.202148,180.958282 79.002762,204.942612 104.779572,223.148071 
	C104.779572,200.916473 104.779572,179.541138 104.779572,158.161865 
	C97.954346,158.281784 94.753029,160.182861 90.391655,166.930634 
M171.516785,134.458801 
	C171.516785,167.509323 171.516785,200.559860 171.516785,234.244476 
	C175.854568,232.767410 179.677094,231.260315 183.617325,230.184158 
	C187.272949,229.185715 188.389862,227.196320 188.373840,223.391541 
	C188.192230,180.294678 188.202942,137.197037 188.141479,94.099617 
	C188.139526,92.725784 187.916138,91.352264 187.783844,89.839897 
	C177.456223,93.911331 172.244446,100.822235 171.851028,111.018219 
	C171.562515,118.495216 171.615784,125.985405 171.516785,134.458801 
M130.147247,124.500671 
	C130.103241,119.335625 130.161484,114.167229 129.992065,109.006302 
	C129.714127,100.539673 122.493248,92.041061 113.724739,90.141068 
	C113.724739,95.378311 113.720001,100.512787 113.725479,105.647247 
	C113.767479,144.972153 113.789818,184.297150 113.925980,223.621735 
	C113.932068,225.379105 114.484863,228.158752 115.626579,228.707672 
	C120.156418,230.885559 125.021736,232.365677 130.147247,234.245392 
	C130.147247,197.416260 130.147247,161.458374 130.147247,124.500671 
z"/>
<path fill="#E22127" opacity="1.000000" stroke="none" 
	d="
M138.324356,110.703163 
	C138.791687,96.918343 131.721649,88.459671 120.525528,82.667641 
	C119.492027,82.132988 118.263222,81.830063 117.434334,81.078506 
	C116.056953,79.829613 113.789276,78.132011 113.969543,76.935768 
	C114.230934,75.201202 116.021706,73.085876 117.708702,72.277069 
	C128.249496,67.223434 139.648468,64.804474 151.137222,65.583916 
	C161.468063,66.284813 171.659149,69.107742 181.893433,71.089920 
	C183.157364,71.334709 184.402313,72.024117 185.493744,72.751167 
	C189.544357,75.449463 189.263199,78.638908 184.963867,81.059654 
	C181.067764,83.253372 176.936462,85.210915 173.500046,88.000793 
	C166.837662,93.409721 163.475006,100.639305 163.457336,109.357010 
	C163.375656,149.666107 163.253845,189.975113 163.147217,230.284164 
	C163.142853,231.935898 163.146667,233.587677 163.146667,235.755020 
	C154.998169,235.755020 147.135712,235.755020 138.326340,235.755020 
	C138.326340,194.013092 138.326340,152.589111 138.324356,110.703163 
z"/>
<path fill="#E22127" opacity="1.000000" stroke="none" 
	d="
M226.049561,110.016739 
	C232.017380,121.162849 235.588699,132.597137 236.195602,145.297348 
	C229.279938,145.197281 225.061829,141.763046 222.153717,136.294388 
	C220.610672,133.392731 218.452347,132.072784 217.032135,135.910065 
	C213.148758,146.402573 213.453720,157.086258 216.988190,167.655457 
	C217.313004,168.626724 218.478622,169.316818 219.710800,170.621262 
	C223.836838,164.644394 227.149017,157.831924 236.238495,158.132339 
	C233.236191,185.623550 220.578079,206.874374 197.359314,222.959183 
	C197.359314,174.669189 197.359314,127.167030 197.359314,78.995094 
	C209.392639,87.119476 219.030258,97.069603 226.049561,110.016739 
z"/>
<path fill="#E22228" opacity="1.000000" stroke="none" 
	d="
M90.586044,166.623322 
	C94.753029,160.182861 97.954346,158.281784 104.779572,158.161865 
	C104.779572,179.541138 104.779572,200.916473 104.779572,223.148071 
	C79.002762,204.942612 65.202148,180.958282 65.666199,149.873993 
	C66.113342,119.922417 79.393684,96.496078 104.701126,78.848343 
	C104.701126,101.593208 104.701126,123.332832 104.701126,145.383087 
	C98.694923,145.452011 94.314697,142.897247 91.118263,137.862808 
	C90.141022,136.323639 88.567070,135.163315 87.266388,133.829498 
	C86.139725,135.541946 84.115311,137.215485 84.039093,138.973495 
	C83.674889,147.373306 83.656052,155.802353 83.946953,164.206055 
	C84.017792,166.252548 85.723671,168.242477 87.127502,171.208679 
	C88.690842,169.159744 89.541252,168.045197 90.586044,166.623322 
z"/>
<path fill="#E2242A" opacity="1.000000" stroke="none" 
	d="
M171.516754,133.964264 
	C171.615784,125.985405 171.562515,118.495216 171.851028,111.018219 
	C172.244446,100.822235 177.456223,93.911331 187.783844,89.839897 
	C187.916138,91.352264 188.139526,92.725784 188.141479,94.099617 
	C188.202942,137.197037 188.192230,180.294678 188.373840,223.391541 
	C188.389862,227.196320 187.272949,229.185715 183.617325,230.184158 
	C179.677094,231.260315 175.854568,232.767410 171.516785,234.244476 
	C171.516785,200.559860 171.516785,167.509323 171.516754,133.964264 
z"/>
<path fill="#E22127" opacity="1.000000" stroke="none" 
	d="
M130.147247,125.000572 
	C130.147247,161.458374 130.147247,197.416260 130.147247,234.245392 
	C125.021736,232.365677 120.156418,230.885559 115.626579,228.707672 
	C114.484863,228.158752 113.932068,225.379105 113.925980,223.621735 
	C113.789818,184.297150 113.767479,144.972153 113.725479,105.647247 
	C113.720001,100.512787 113.724739,95.378311 113.724739,90.141068 
	C122.493248,92.041061 129.714127,100.539673 129.992065,109.006302 
	C130.161484,114.167229 130.103241,119.335625 130.147247,125.000572 
z"/>
</svg>