<svg width="24" height="24" viewBox="0 0 24 24" fill="none" xmlns="http://www.w3.org/2000/svg">
<g clip-path="url(#clip0_3011_1613)">
<path d="M12 24C18.6274 24 24 18.6274 24 12C24 5.37258 18.6274 0 12 0C5.37258 0 0 5.37258 0 12C0 18.6274 5.37258 24 12 24Z" fill="#E84142"/>
<path fill-rule="evenodd" clip-rule="evenodd" d="M8.63851 17.0625H6.36751C5.89051 17.0625 5.65501 17.0625 5.51101 16.9703C5.43514 16.9207 5.37198 16.8541 5.32664 16.7756C5.2813 16.6972 5.25505 16.6092 5.25001 16.5187C5.24101 16.3492 5.35876 16.1415 5.59501 15.7275L11.199 5.83275C11.4375 5.41275 11.559 5.20275 11.7105 5.12475C11.7916 5.08352 11.8813 5.06202 11.9723 5.06202C12.0632 5.06202 12.1529 5.08352 12.234 5.12475C12.3863 5.20275 12.507 5.41275 12.7455 5.83275L13.8975 7.84725L13.9035 7.85775C14.1608 8.30775 14.2913 8.53725 14.3483 8.77725C14.412 9.03994 14.412 9.31406 14.3483 9.57675C14.2913 9.819 14.1615 10.0492 13.9005 10.5067L10.956 15.7192L10.9485 15.732C10.689 16.1865 10.5585 16.4167 10.3755 16.5907C10.1783 16.779 9.93924 16.9178 9.67801 16.9957C9.43876 17.0625 9.17251 17.0625 8.63851 17.0625ZM14.3708 17.0625H17.6228C18.1028 17.0625 18.3443 17.0625 18.4883 16.968C18.5646 16.9181 18.6281 16.8509 18.6735 16.7717C18.7188 16.6926 18.7448 16.6039 18.7493 16.5128C18.7575 16.3485 18.6428 16.1497 18.417 15.759L18.393 15.7185L16.764 12.927L16.7453 12.8955C16.5165 12.5077 16.4003 12.312 16.2525 12.2362C16.1721 12.195 16.083 12.1736 15.9926 12.1736C15.9023 12.1736 15.8132 12.195 15.7328 12.2362C15.5828 12.3142 15.4628 12.519 15.2243 12.93L13.6005 15.7215L13.5953 15.7313C13.3575 16.1422 13.2383 16.347 13.2473 16.5157C13.2524 16.6066 13.2787 16.695 13.324 16.7739C13.3693 16.8528 13.4324 16.92 13.5083 16.9703C13.6493 17.0625 13.8908 17.0625 14.3708 17.0625Z" fill="white"/>
</g>
<defs>
<clipPath id="clip0_3011_1613">
<rect width="24" height="24" fill="white"/>
</clipPath>
</defs>
</svg>
