<svg width="32" height="32" viewBox="0 0 32 32" fill="none" xmlns="http://www.w3.org/2000/svg">
<g clip-path="url(#clip0_3231_2744)">
<path d="M16 32C24.8366 32 32 24.8366 32 16C32 7.16344 24.8366 0 16 0C7.16344 0 0 7.16344 0 16C0 24.8366 7.16344 32 16 32Z" fill="#439D46"/>
<path d="M16.1955 6.71315C15.8649 6.8484 15.5164 6.99077 15.4275 7.02992L15.264 7.1011L15.2426 7.48549C15.2284 7.69548 15.2178 7.99801 15.2178 8.15817V8.45358L15.0506 8.4785C14.24 8.59239 13.216 8.92339 12.3911 9.3327C11.3955 9.82386 10.6595 10.3542 9.84887 11.1657C8.90665 12.1053 8.19909 13.1232 7.50576 14.5291C6.71998 16.12 6.1902 17.7181 5.79909 19.6899C5.53954 20.9961 5.33331 22.6404 5.33331 23.4199V23.8256L5.55376 23.847C5.6782 23.8612 6.16531 23.8825 6.64176 23.8932L7.5022 23.9181V23.8327C7.50576 23.4412 7.58398 21.9962 7.62665 21.5299C7.91465 18.494 8.74665 15.8958 10.0835 13.8671C10.8835 12.6498 12.0284 11.5145 13.1271 10.8525C13.7173 10.4965 14.5813 10.1264 15.0151 10.0445L15.1466 10.0196V10.315C15.1466 10.4787 15.0649 13.3118 14.9689 16.6112C14.8693 19.9105 14.7946 22.6831 14.7982 22.7721L14.8089 22.9394L15.936 22.2916L17.0666 21.6474L17.0489 21.1313C17.0133 20.1027 16.9138 10.0623 16.9386 10.0374C16.9778 9.99826 17.5431 10.1228 18.0089 10.2794C19.0791 10.6353 19.9289 11.1799 20.7644 12.0412C21.8026 13.1125 22.6346 14.6003 23.232 16.4688C23.7902 18.2057 24.1778 20.3341 24.3733 22.7507C24.4053 23.1422 24.4409 23.5658 24.4551 23.6939L24.48 23.9253L25.0489 23.9502C25.3618 23.9608 25.8524 23.9786 26.144 23.9858L26.6666 24V23.5836C26.6666 22.4482 26.4569 20.5939 26.1831 19.2628C25.9022 17.9245 25.4755 16.572 24.96 15.3833C23.2142 11.3757 20.2489 8.73476 17.0951 8.37172L16.8889 8.35037V7.7026C16.8889 7.02636 16.8569 6.46757 16.8213 6.46757C16.8106 6.46757 16.5298 6.5779 16.1955 6.71315Z" fill="white"/>
</g>
<defs>
<clipPath id="clip0_3231_2744">
<rect width="32" height="32" fill="white"/>
</clipPath>
</defs>
</svg>
