<svg width="32" height="32" viewBox="0 0 32 32" fill="none" xmlns="http://www.w3.org/2000/svg">
<path d="M16 32C24.8366 32 32 24.8366 32 16C32 7.16344 24.8366 0 16 0C7.16344 0 0 7.16344 0 16C0 24.8366 7.16344 32 16 32Z" fill="#8DC351"/>
<path d="M21.1074 10.5359C20.3386 8.55829 18.4107 8.37978 16.1656 8.82104L15.3661 6L13.67 6.4924L14.4487 9.24023C14.0029 9.3686 13.5491 9.51101 13.0983 9.65141L12.3156 6.88552L10.6205 7.37692L11.418 10.198C11.0534 10.3123 10.6948 10.4246 10.3431 10.5269L10.3401 10.5169L8 11.1958L8.52014 13.031C8.52014 13.031 9.76648 12.6419 9.75162 12.672C10.4392 12.4724 10.777 12.8114 10.9405 13.1414L11.852 16.3545C11.8985 16.3415 11.961 16.3254 12.0343 16.3144L11.855 16.3665L13.13 20.8694C13.1617 21.097 13.134 21.4831 12.6545 21.6235C12.6812 21.6366 11.42 21.9805 11.42 21.9805L11.6647 24.1297L13.8721 23.4878C14.2833 23.3705 14.6895 23.2602 15.0867 23.1469L15.8962 26L17.5903 25.5086L16.7908 22.6856C17.2452 22.5635 17.6984 22.4365 18.1501 22.3045L18.9447 25.1155L20.6418 24.6231L19.8353 21.775C22.6401 20.7811 24.4304 19.4744 23.9102 16.6905C23.4921 14.4501 22.2022 13.7701 20.4714 13.8464C21.3115 13.0541 21.6732 11.9831 21.1074 10.5369V10.5359ZM20.4635 17.3253C21.0678 19.4584 17.3922 20.2626 16.2429 20.5976L15.1719 16.8168C16.3212 16.4829 19.8324 15.1019 20.4625 17.3263L20.4635 17.3253ZM18.163 12.2207C18.7118 14.1613 15.6396 14.8081 14.6815 15.0859L13.7106 11.6571C14.6677 11.3793 17.5893 10.198 18.163 12.2217V12.2207Z" fill="white"/>
</svg>
