<svg version="1.1" id="Layer_1" xmlns="http://www.w3.org/2000/svg" xmlns:xlink="http://www.w3.org/1999/xlink" x="0px" y="0px"
	 width="100%" viewBox="0 0 640 640" enable-background="new 0 0 640 640" xml:space="preserve">
<path fill="#000000" opacity="1.000000" stroke="none" 
	d="
M443.000000,641.000000 
	C295.333374,641.000000 148.166718,641.000000 1.000059,641.000000 
	C1.000040,427.666718 1.000040,214.333466 1.000020,1.000145 
	C214.333237,1.000097 427.666473,1.000097 640.999756,1.000048 
	C640.999878,214.333191 640.999878,427.666382 640.999939,640.999756 
	C575.166687,641.000000 509.333344,641.000000 443.000000,641.000000 
M382.858398,467.122803 
	C385.756439,466.442627 388.680389,465.856445 391.548035,465.066040 
	C404.057007,461.618195 416.224182,457.385345 426.705963,449.381134 
	C434.153076,443.694244 437.962524,436.499878 436.221313,426.178619 
	C437.474670,418.807037 435.188751,412.445404 429.463043,407.975037 
	C424.153107,403.829315 418.373352,400.069122 412.316376,397.140289 
	C398.666962,390.540283 383.865234,387.715302 368.192017,385.061798 
	C353.795807,384.048035 339.399567,383.034302 324.082062,381.832062 
	C313.055939,382.316620 302.029846,382.801178 290.169220,383.202545 
	C276.001770,385.817047 261.702789,387.879242 247.706436,391.212311 
	C235.424759,394.136993 223.681870,398.939758 213.847595,407.310791 
	C207.813873,412.446747 204.211182,418.673859 205.723618,427.713837 
	C204.155746,438.667511 208.941925,446.797943 218.093994,451.815338 
	C226.778549,456.576538 235.876633,461.040497 245.321030,463.876251 
	C278.914124,473.962952 313.411377,475.520691 348.135040,472.419495 
	C359.503998,471.404144 370.743195,468.936218 382.858398,467.122803 
M277.720978,523.456421 
	C316.656403,523.125183 355.595947,523.023987 394.524872,522.329041 
	C406.963928,522.106995 419.371674,520.272217 431.800751,519.260925 
	C435.340118,518.972900 436.531189,517.305664 436.527954,513.762878 
	C436.524567,510.051178 434.439362,509.317413 431.566895,508.960327 
	C429.257233,508.673187 426.964294,508.113007 424.650177,508.021240 
	C391.069916,506.689331 357.494659,505.138733 323.902069,504.251709 
	C308.284607,503.839294 292.632416,504.742828 276.079193,504.925964 
	C269.301758,505.279175 262.520508,505.571716 255.747650,505.997955 
	C240.647232,506.948364 225.553604,508.008331 210.451385,508.927979 
	C206.232635,509.184875 205.329697,511.465027 205.554428,515.237183 
	C205.853882,520.263733 210.013641,519.452759 212.619781,519.621826 
	C234.046646,521.011414 255.496368,522.048889 277.720978,523.456421 
M382.700317,330.915009 
	C386.864716,327.901123 391.248718,325.141724 395.126221,321.795410 
	C398.422760,318.950409 401.135437,315.428864 404.716644,311.907501 
	C413.078888,303.406128 420.402191,294.178192 425.407562,282.464142 
	C431.917755,268.352325 436.082001,253.680206 436.255737,237.091125 
	C434.864960,225.438385 435.034790,213.332306 431.804993,202.213776 
	C419.786835,160.841873 392.405090,134.082718 351.028900,122.057343 
	C338.570312,118.436432 325.837219,117.406502 312.646973,118.679054 
	C302.315582,119.675804 292.350128,121.134163 281.971100,124.889458 
	C267.748047,129.982849 254.859894,137.288971 243.303574,148.100372 
	C236.170547,156.999313 229.037537,165.898239 221.350677,175.216705 
	C217.565201,184.477570 213.779709,193.738449 209.561981,203.629395 
	C205.754410,217.200989 204.801987,231.000168 206.187790,245.817108 
	C206.447800,247.629852 206.717636,249.441254 206.966370,251.255539 
	C215.686249,314.857605 280.344635,360.071381 344.026642,346.464233 
	C357.615021,343.604797 370.479279,338.958984 382.700317,330.915009 
z"/>
<path fill="#DF3E2B" opacity="1.000000" stroke="none" 
	d="
M243.928970,147.839447 
	C254.859894,137.288971 267.748047,129.982849 282.636108,125.065971 
	C286.980957,128.084778 290.621613,130.979614 294.346710,133.761353 
	C339.385925,167.394867 384.428650,201.023773 429.516815,234.591629 
	C431.457397,236.036392 433.847046,236.877930 436.027527,238.000458 
	C436.082001,253.680206 431.917755,268.352325 424.834747,282.639099 
	C422.683990,281.917999 420.989105,281.178894 419.544983,280.103210 
	C362.872101,237.889938 306.215118,195.655411 249.596634,153.369247 
	C247.500168,151.803482 245.809006,149.695007 243.928970,147.839447 
z"/>
<path fill="#DD372D" opacity="1.000000" stroke="none" 
	d="
M243.616272,147.969910 
	C245.809006,149.695007 247.500168,151.803482 249.596634,153.369247 
	C306.215118,195.655411 362.872101,237.889938 419.544983,280.103210 
	C420.989105,281.178894 422.683990,281.917999 424.597778,282.905945 
	C420.402191,294.178192 413.078888,303.406128 404.214813,311.769287 
	C402.353302,310.420380 401.076324,309.098633 399.621613,308.015625 
	C377.460419,291.517365 355.265259,275.064697 333.099457,258.572601 
	C300.651062,234.429871 268.200714,210.289703 235.802155,186.080215 
	C231.026047,182.511322 226.530090,178.567520 221.904510,174.797180 
	C229.037537,165.898239 236.170547,156.999313 243.616272,147.969910 
z"/>
<path fill="#E04629" opacity="1.000000" stroke="none" 
	d="
M436.141632,237.545792 
	C433.847046,236.877930 431.457397,236.036392 429.516815,234.591629 
	C384.428650,201.023773 339.385925,167.394867 294.346710,133.761353 
	C290.621613,130.979614 286.980957,128.084778 283.003662,125.050751 
	C292.350128,121.134163 302.315582,119.675804 312.646973,118.679054 
	C325.837219,117.406502 338.570312,118.436432 351.028900,122.057343 
	C392.405090,134.082718 419.786835,160.841873 431.804993,202.213776 
	C435.034790,213.332306 434.864960,225.438385 436.141632,237.545792 
z"/>
<path fill="#DA2D2F" opacity="1.000000" stroke="none" 
	d="
M206.265137,244.991882 
	C204.801987,231.000168 205.754410,217.200989 210.105225,203.420868 
	C212.046448,204.104813 213.506012,204.914474 214.833511,205.901718 
	C258.542023,238.406998 302.263458,270.894989 345.918976,303.471375 
	C358.057617,312.529449 369.995239,321.856934 382.025085,331.060791 
	C370.479279,338.958984 357.615021,343.604797 343.427856,346.176575 
	C341.284607,344.400543 339.879761,342.725464 338.175293,341.451050 
	C296.876556,310.572784 255.561615,279.716064 214.179413,248.949890 
	C211.848694,247.217087 208.917068,246.292587 206.265137,244.991882 
z"/>
<path fill="#DC322E" opacity="1.000000" stroke="none" 
	d="
M382.362701,330.987915 
	C369.995239,321.856934 358.057617,312.529449 345.918976,303.471375 
	C302.263458,270.894989 258.542023,238.406998 214.833511,205.901718 
	C213.506012,204.914474 212.046448,204.104813 210.321350,203.105835 
	C213.779709,193.738449 217.565201,184.477570 221.627594,175.006958 
	C226.530090,178.567520 231.026047,182.511322 235.802155,186.080215 
	C268.200714,210.289703 300.651062,234.429871 333.099457,258.572601 
	C355.265259,275.064697 377.460419,291.517365 399.621613,308.015625 
	C401.076324,309.098633 402.353302,310.420380 403.909698,311.918823 
	C401.135437,315.428864 398.422760,318.950409 395.126221,321.795410 
	C391.248718,325.141724 386.864716,327.901123 382.362701,330.987915 
z"/>
<path fill="#D72231" opacity="1.000000" stroke="none" 
	d="
M205.936737,426.985016 
	C204.211182,418.673859 207.813873,412.446747 213.847595,407.310791 
	C223.681870,398.939758 235.424759,394.136993 247.706436,391.212311 
	C261.702789,387.879242 276.001770,385.817047 290.595520,383.628693 
	C291.784363,386.574890 292.210632,389.261292 293.362000,391.589020 
	C303.700287,412.489838 314.177948,433.321655 324.578827,454.191620 
	C325.830750,456.703674 326.869690,459.321838 327.538696,461.920624 
	C316.431610,461.639862 305.768402,461.684692 295.159821,460.945496 
	C272.477386,459.365021 250.186310,455.673370 229.170105,446.450714 
	C219.572510,442.238922 210.883316,436.811035 205.936737,426.985016 
z"/>
<path fill="#D82730" opacity="1.000000" stroke="none" 
	d="
M206.226471,245.404495 
	C208.917068,246.292587 211.848694,247.217087 214.179413,248.949890 
	C255.561615,279.716064 296.876556,310.572784 338.175293,341.451050 
	C339.879761,342.725464 341.284607,344.400543 343.019531,346.207092 
	C280.344635,360.071381 215.686249,314.857605 206.966370,251.255539 
	C206.717636,249.441254 206.447800,247.629852 206.226471,245.404495 
z"/>
<path fill="#DD392D" opacity="1.000000" stroke="none" 
	d="
M325.003357,382.020538 
	C339.399567,383.034302 353.795807,384.048035 368.608459,385.566620 
	C369.708038,388.428894 370.058319,390.950439 371.126923,393.117798 
	C379.548218,410.197510 388.062500,427.231995 396.678406,444.214325 
	C397.765533,446.357086 399.608795,448.116211 400.792969,450.250122 
	C394.316711,452.331787 388.149231,454.216400 381.571625,456.111481 
	C374.776031,457.073853 368.390533,458.025757 361.958679,458.608093 
	C361.070190,456.082336 360.387726,453.846741 359.361053,451.782349 
	C349.664398,432.284668 339.888885,412.826233 330.188507,393.330383 
	C328.341949,389.619232 326.725800,385.793427 325.003357,382.020538 
z"/>
<path fill="#A42734" opacity="1.000000" stroke="none" 
	d="
M276.995972,505.049866 
	C292.632416,504.742828 308.284607,503.839294 323.902069,504.251709 
	C357.494659,505.138733 391.069916,506.689331 424.650177,508.021240 
	C426.964294,508.113007 429.257233,508.673187 431.566895,508.960327 
	C434.439362,509.317413 436.524567,510.051178 436.527954,513.762878 
	C436.531189,517.305664 435.340118,518.972900 431.800751,519.260925 
	C419.371674,520.272217 406.963928,522.106995 394.524872,522.329041 
	C355.595947,523.023987 316.656403,523.125183 277.340759,522.844238 
	C276.972382,516.504639 276.984161,510.777252 276.995972,505.049866 
z"/>
<path fill="#DA2D2F" opacity="1.000000" stroke="none" 
	d="
M324.542725,381.926300 
	C326.725800,385.793427 328.341949,389.619232 330.188507,393.330383 
	C339.888885,412.826233 349.664398,432.284668 359.361053,451.782349 
	C360.387726,453.846741 361.070190,456.082336 361.559509,458.719482 
	C350.140228,460.097260 339.073792,460.994049 328.007324,461.890839 
	C326.869690,459.321838 325.830750,456.703674 324.578827,454.191620 
	C314.177948,433.321655 303.700287,412.489838 293.362000,391.589020 
	C292.210632,389.261292 291.784363,386.574890 291.012756,383.670288 
	C302.029846,382.801178 313.055939,382.316620 324.542725,381.926300 
z"/>
<path fill="#E04629" opacity="1.000000" stroke="none" 
	d="
M401.101715,450.053101 
	C399.608795,448.116211 397.765533,446.357086 396.678406,444.214325 
	C388.062500,427.231995 379.548218,410.197510 371.126923,393.117798 
	C370.058319,390.950439 369.708038,388.428894 369.015076,385.688080 
	C383.865234,387.715302 398.666962,390.540283 412.316376,397.140289 
	C418.373352,400.069122 424.153107,403.829315 429.463043,407.975037 
	C435.188751,412.445404 437.474670,418.807037 435.907593,426.801086 
	C432.945435,430.587219 430.625427,434.117493 427.583801,436.842255 
	C420.012238,443.624908 410.728790,447.245850 401.101715,450.053101 
z"/>
<path fill="#A42734" opacity="1.000000" stroke="none" 
	d="
M327.538696,461.920624 
	C339.073792,460.994049 350.140228,460.097260 361.605865,459.089050 
	C368.390533,458.025757 374.776031,457.073853 381.574280,456.562073 
	C382.005249,460.378998 382.023499,463.755768 382.041748,467.132568 
	C370.743195,468.936218 359.503998,471.404144 348.135040,472.419495 
	C313.411377,475.520691 278.914124,473.962952 245.321030,463.876251 
	C235.876633,461.040497 226.778549,456.576538 218.093994,451.815338 
	C208.941925,446.797943 204.155746,438.667511 205.830170,427.349426 
	C210.883316,436.811035 219.572510,442.238922 229.170105,446.450714 
	C250.186310,455.673370 272.477386,459.365021 295.159821,460.945496 
	C305.768402,461.684692 316.431610,461.639862 327.538696,461.920624 
z"/>
<path fill="#AE2734" opacity="1.000000" stroke="none" 
	d="
M276.537598,504.987915 
	C276.984161,510.777252 276.972382,516.504639 276.949860,522.712585 
	C255.496368,522.048889 234.046646,521.011414 212.619781,519.621826 
	C210.013641,519.452759 205.853882,520.263733 205.554428,515.237183 
	C205.329697,511.465027 206.232635,509.184875 210.451385,508.927979 
	C225.553604,508.008331 240.647232,506.948364 255.747650,505.997955 
	C262.520508,505.571716 269.301758,505.279175 276.537598,504.987915 
z"/>
<path fill="#AE2734" opacity="1.000000" stroke="none" 
	d="
M382.450073,467.127686 
	C382.023499,463.755768 382.005249,460.378998 381.984375,456.551605 
	C388.149231,454.216400 394.316711,452.331787 400.792969,450.250122 
	C410.728790,447.245850 420.012238,443.624908 427.583801,436.842255 
	C430.625427,434.117493 432.945435,430.587219 435.828735,427.173218 
	C437.962524,436.499878 434.153076,443.694244 426.705963,449.381134 
	C416.224182,457.385345 404.057007,461.618195 391.548035,465.066040 
	C388.680389,465.856445 385.756439,466.442627 382.450073,467.127686 
z"/>
</svg>