<svg
  width="17"
  height="16"
  viewBox="0 0 17 16"
  fill="none"
  xmlns="http://www.w3.org/2000/svg"
>
<g clipPath="url(#clip0_5_3041)">
<path
      d="M8.94592 16C13.3642 16 16.9459 12.4183 16.9459 8C16.9459 3.58172 13.3642 0 8.94592 0C4.52764 0 0.945923 3.58172 0.945923 8C0.945923 12.4183 4.52764 16 8.94592 16Z"
      fill="black"
    />
<path
      d="M14.8174 6.76951C14.7383 6.38541 14.6214 6.01008 14.4684 5.64901C14.3176 5.29337 14.1331 4.95298 13.9174 4.63251C13.7035 4.3159 13.4595 4.0207 13.1889 3.75101C12.919 3.48033 12.6236 3.23636 12.3069 3.02251C11.9859 2.8079 11.6458 2.62345 11.2909 2.47151C10.5568 2.16019 9.76768 1.99976 8.97036 1.99976C8.17305 1.99976 7.38389 2.16019 6.64986 2.47151C5.94009 2.77089 5.29542 3.20565 4.75186 3.75151C4.48123 4.02104 4.23727 4.31608 4.02336 4.63251C3.80873 4.95362 3.62427 5.2939 3.47236 5.64901C3.16105 6.38303 3.00061 7.1722 3.00061 7.96951C3.00061 8.76683 3.16105 9.55599 3.47236 10.29C3.61936 10.645 3.80936 10.9815 4.02336 11.306C4.23726 11.6228 4.48122 11.9181 4.75186 12.188C5.02171 12.4587 5.31708 12.7027 5.63386 12.9165C5.95186 13.1305 6.29486 13.3145 6.64986 13.4675C7.38389 13.7788 8.17305 13.9393 8.97036 13.9393C9.76768 13.9393 10.5568 13.7788 11.2909 13.4675C11.6459 13.3205 11.9824 13.1305 12.3069 12.9165C12.6236 12.7027 12.919 12.4587 13.1889 12.188C13.4595 11.9182 13.7035 11.6228 13.9174 11.306C14.1314 10.988 14.3154 10.645 14.4684 10.29C14.9394 9.17915 15.0611 7.95123 14.8174 6.76951ZM8.97586 13.192C6.09236 13.192 3.75986 10.853 3.75986 7.97551C3.75986 5.09801 6.09886 2.75901 8.97586 2.75901C11.8534 2.75901 14.1924 5.09801 14.1924 7.97551C14.1924 10.853 11.8539 13.192 8.97586 13.192Z"
      fill="white"
    />
<path
      d="M9.06839 12.739H9.20939C9.23389 12.739 9.25789 12.739 9.28239 12.7325H9.28889C9.31339 12.7325 9.33139 12.7325 9.35589 12.7265H9.37439C9.39289 12.7265 9.41139 12.7265 9.42939 12.7205H9.44789C9.46639 12.7205 9.48489 12.7145 9.50939 12.7145H9.52139C9.54589 12.7145 9.57039 12.708 9.59489 12.708C9.61939 12.708 9.63789 12.702 9.66239 12.696H9.67439C9.69289 12.696 9.71139 12.69 9.72939 12.69H9.74189C9.76639 12.6835 9.78489 12.6835 9.80939 12.6775C9.85789 12.6715 9.90689 12.659 9.94989 12.647H9.96239C9.98039 12.641 10.0049 12.641 10.0234 12.6345H10.0294C10.0784 12.6225 10.1214 12.61 10.1704 12.598C9.7118 12.6126 9.2532 12.5694 8.80539 12.4695C8.13139 12.3225 7.48889 12.0595 6.94389 11.606C6.51423 11.2485 6.16941 10.7999 5.93438 10.2927C5.69935 9.78554 5.57997 9.23248 5.58489 8.67352C5.58929 7.83963 5.88601 7.03369 6.42339 6.39602C7.12139 5.56952 8.11339 5.13452 9.12939 5.11002H9.27039V4.29602H9.11139C8.8023 4.30168 8.49457 4.33854 8.19289 4.40602C7.8893 4.47467 7.59382 4.57523 7.31139 4.70602C7.02339 4.84102 6.75389 5.00602 6.50289 5.19602C6.24351 5.39318 6.00734 5.61913 5.79889 5.86952C5.60262 6.10126 5.43227 6.35376 5.29089 6.62252C5.15101 6.88162 5.03809 7.15438 4.95389 7.43652C4.87129 7.7143 4.81603 7.99949 4.78889 8.28802L4.77039 8.55702V8.71602C4.77639 9.02852 4.81339 9.33452 4.88039 9.63452C4.94789 9.94102 5.05189 10.2345 5.18039 10.5165C5.33389 10.853 5.60939 11.349 6.01939 11.7225C6.85654 12.3825 7.89189 12.7406 8.95789 12.739H9.06839Z"
      fill="white"
    />
<path
      d="M10.4028 11.955C10.1008 11.9442 9.80004 11.9115 9.50282 11.857C8.24182 11.6305 7.15781 10.859 6.76031 9.696C6.27631 8.2815 7.01731 6.751 8.42531 6.286C8.69364 6.19608 8.97482 6.15048 9.25782 6.151C9.61932 6.151 9.98032 6.2245 10.3113 6.359L10.6538 5.6305C10.5508 5.5892 10.4468 5.55053 10.3418 5.5145C9.99103 5.4044 9.62547 5.34859 9.25782 5.349C8.88947 5.34969 8.52363 5.40962 8.17431 5.5265C7.7285 5.67355 7.3179 5.91119 6.96832 6.2245C6.79972 6.37469 6.64601 6.54079 6.50932 6.7205C6.37419 6.89816 6.25727 7.08895 6.16032 7.29C5.96289 7.69421 5.84637 8.1331 5.81732 8.582C5.78682 9.047 5.84781 9.512 6.00081 9.953C6.15671 10.4067 6.40724 10.822 6.73582 11.1715C7.03582 11.496 7.38482 11.741 7.80682 11.9675C8.24782 12.2 8.79282 12.3225 9.36182 12.4025C9.72932 12.451 10.2193 12.4635 10.5068 12.4635C10.7578 12.3715 10.8618 12.3285 10.9968 12.2735C11.1133 12.2185 11.2293 12.1635 11.3458 12.096C11.4623 12.0285 11.4808 12.016 11.6763 11.888C11.6937 11.8772 11.7101 11.8648 11.7253 11.851C11.0518 11.9675 10.8803 11.961 10.4028 11.955Z"
      fill="white"
    />
<path
      d="M11.9094 11.043C11.7194 11.055 11.4499 11.073 11.1439 11.073C10.5989 11.073 9.93136 11.0245 9.36236 10.8345C8.48036 10.541 7.64786 9.78799 7.64786 8.85699C7.64766 8.63665 7.69091 8.41842 7.77515 8.21481C7.85938 8.0112 7.98293 7.82619 8.13874 7.67038C8.29455 7.51457 8.47956 7.39102 8.68317 7.30678C8.88678 7.22255 9.10501 7.1793 9.32536 7.17949C9.95586 7.17949 10.5009 7.52849 10.7889 8.03649L11.5174 7.67549C11.4031 7.46044 11.2564 7.2643 11.0824 7.09399C10.8517 6.86297 10.5778 6.6797 10.2763 6.55465C9.97476 6.4296 9.65154 6.36523 9.32511 6.36523C8.99868 6.36523 8.67545 6.4296 8.37392 6.55465C8.07239 6.6797 7.79848 6.86297 7.56786 7.09399C7.33691 7.32461 7.1537 7.59849 7.0287 7.89997C6.9037 8.20145 6.83935 8.52462 6.83936 8.85099C6.84099 9.19304 6.91423 9.53096 7.05436 9.84299C7.18236 10.1245 7.36036 10.388 7.58686 10.633C7.98486 11.061 8.52936 11.404 9.11136 11.6C9.66836 11.7835 10.4889 11.851 11.2849 11.796C11.5049 11.7775 11.6704 11.759 11.9519 11.698C12.2235 11.4836 12.4701 11.2392 12.6869 10.9695C12.4969 10.988 12.1479 11.0245 11.9094 11.043Z"
      fill="white"
    />
</g>
<defs>
<clipPath id="clip0_5_3041">
<rect width="16" height="16" fill="white" transform="translate(0.945923)" />
</clipPath>
</defs>
</svg>
