<svg width="20" height="20" viewBox="0 0 49 44" fill="none" xmlns="http://www.w3.org/2000/svg">
<path fill-rule="evenodd" clip-rule="evenodd" d="M25.5 24.3139C23.1169 26.3704 20.0255 27.6119 16.6475 27.6119C9.11021 27.6119 3 21.4308 3 13.806C3 6.18114 9.11021 0 16.6475 0C20.0255 0 23.1169 1.2415 25.5 3.29806C27.8831 1.2415 30.9745 0 34.3525 0C41.8898 0 48 6.18114 48 13.806C48 21.4308 41.8898 27.6119 34.3525 27.6119C30.9745 27.6119 27.8831 26.3704 25.5 24.3139Z" fill="#ED0006"/>
<path fill-rule="evenodd" clip-rule="evenodd" d="M25.5 24.3139C28.4344 21.7816 30.2951 18.0136 30.2951 13.806C30.2951 9.59833 28.4344 5.83033 25.5 3.29806C27.8831 1.2415 30.9745 0 34.3525 0C41.8898 0 48 6.18114 48 13.806C48 21.4308 41.8898 27.6119 34.3525 27.6119C30.9745 27.6119 27.8831 26.3704 25.5 24.3139Z" fill="#F9A000"/>
<path fill-rule="evenodd" clip-rule="evenodd" d="M25.5 3.29813C28.4344 5.8304 30.2951 9.59838 30.2951 13.806C30.2951 18.0136 28.4344 21.7816 25.5 24.3138C22.5657 21.7816 20.705 18.0136 20.705 13.806C20.705 9.59838 22.5657 5.8304 25.5 3.29813Z" fill="#FF5E00"/>
<path fill-rule="evenodd" clip-rule="evenodd" d="M12.2505 43.5165H8.00987L4.82991 31.3847C4.67897 30.8267 4.3585 30.3333 3.88708 30.1008C2.71062 29.5165 1.41424 29.0514 0 28.8169V28.3498H6.83134C7.77417 28.3498 8.48129 29.0514 8.59914 29.8663L10.2491 38.6173L14.4877 28.3498H18.6104L12.2505 43.5165ZM20.9675 43.5165H16.9626L20.2604 28.3498H24.2653L20.9675 43.5165ZM29.4467 32.5514C29.5646 31.7346 30.2717 31.2675 31.0967 31.2675C32.3931 31.1502 33.8052 31.3848 34.9838 31.9671L35.6909 28.7016C34.5123 28.2345 33.216 28 32.0395 28C28.1524 28 25.3239 30.1008 25.3239 33.0165C25.3239 35.2346 27.3274 36.3992 28.7417 37.1008C30.2717 37.8004 30.861 38.2675 30.7431 38.9671C30.7431 40.0165 29.5646 40.4836 28.3881 40.4836C26.9739 40.4836 25.5596 40.1338 24.2653 39.5494L23.5582 42.8169C24.9724 43.3992 26.5025 43.6338 27.9167 43.6338C32.2752 43.749 34.9838 41.6502 34.9838 38.5C34.9838 34.5329 29.4467 34.3004 29.4467 32.5514ZM49 43.5165L45.82 28.3498H42.4044C41.6972 28.3498 40.9901 28.8169 40.7544 29.5165L34.8659 43.5165H38.9887L39.8116 41.3004H44.8772L45.3486 43.5165H49ZM42.9936 32.4342L44.1701 38.1502H40.8723L42.9936 32.4342Z" fill="#172B85"/>
</svg>
