<svg width="22" height="22" viewBox="0 0 22 22" fill="none" xmlns="http://www.w3.org/2000/svg">
<mask id="mask0_3127_5048" style="mask-type:alpha" maskUnits="userSpaceOnUse" x="0" y="0" width="22" height="22">
<rect width="22" height="22" fill="#D9D9D9"/>
</mask>
<g mask="url(#mask0_3127_5048)">
<path d="M10.1757 17.4166H11.7798V16.2708C12.5437 16.1333 13.2007 15.8354 13.7507 15.3771C14.3007 14.9187 14.5757 14.2389 14.5757 13.3375C14.5757 12.6958 14.3923 12.1076 14.0257 11.5729C13.659 11.0382 12.9257 10.5722 11.8257 10.175C10.909 9.86942 10.275 9.60206 9.92357 9.3729C9.57218 9.14373 9.39648 8.83054 9.39648 8.43331C9.39648 8.03609 9.5378 7.7229 9.82044 7.49373C10.1031 7.26456 10.5118 7.14998 11.0465 7.14998C11.5354 7.14998 11.9173 7.26838 12.1923 7.50519C12.4673 7.74199 12.6659 8.03609 12.7882 8.38748L14.2548 7.79165C14.0868 7.25692 13.7774 6.79095 13.3267 6.39373C12.876 5.99651 12.3757 5.77498 11.8257 5.72915V4.58331H10.2215V5.72915C9.4576 5.8972 8.86176 6.23331 8.43398 6.73748C8.00621 7.24165 7.79232 7.80692 7.79232 8.43331C7.79232 9.15137 8.00239 9.73192 8.42253 10.175C8.84267 10.618 9.50343 11 10.4048 11.3208C11.3673 11.6722 12.0357 11.9854 12.41 12.2604C12.7843 12.5354 12.9715 12.8944 12.9715 13.3375C12.9715 13.8416 12.792 14.2121 12.4329 14.4489C12.0739 14.6857 11.6423 14.8041 11.1382 14.8041C10.634 14.8041 10.1871 14.6475 9.79753 14.3344C9.40794 14.0212 9.12148 13.5514 8.93815 12.925L7.42565 13.5208C7.63954 14.2541 7.97183 14.8462 8.42253 15.2969C8.87322 15.7475 9.4576 16.0569 10.1757 16.225V17.4166ZM11.0007 20.1666C9.7326 20.1666 8.54093 19.926 7.42565 19.4448C6.31037 18.9635 5.34023 18.3104 4.51523 17.4854C3.69023 16.6604 3.03711 15.6903 2.55586 14.575C2.07461 13.4597 1.83398 12.268 1.83398 11C1.83398 9.73192 2.07461 8.54026 2.55586 7.42498C3.03711 6.3097 3.69023 5.33956 4.51523 4.51456C5.34023 3.68956 6.31037 3.03644 7.42565 2.55519C8.54093 2.07394 9.7326 1.83331 11.0007 1.83331C12.2687 1.83331 13.4604 2.07394 14.5757 2.55519C15.6909 3.03644 16.6611 3.68956 17.4861 4.51456C18.3111 5.33956 18.9642 6.3097 19.4454 7.42498C19.9267 8.54026 20.1673 9.73192 20.1673 11C20.1673 12.268 19.9267 13.4597 19.4454 14.575C18.9642 15.6903 18.3111 16.6604 17.4861 17.4854C16.6611 18.3104 15.6909 18.9635 14.5757 19.4448C13.4604 19.926 12.2687 20.1666 11.0007 20.1666ZM11.0007 18.3333C13.0479 18.3333 14.7819 17.6229 16.2027 16.2021C17.6236 14.7812 18.334 13.0472 18.334 11C18.334 8.95276 17.6236 7.21873 16.2027 5.7979C14.7819 4.37706 13.0479 3.66665 11.0007 3.66665C8.95343 3.66665 7.2194 4.37706 5.79857 5.7979C4.37773 7.21873 3.66732 8.95276 3.66732 11C3.66732 13.0472 4.37773 14.7812 5.79857 16.2021C7.2194 17.6229 8.95343 18.3333 11.0007 18.3333Z" fill="#1C1B1F"/>
</g>
</svg>
