<svg width="22" height="22" viewBox="0 0 22 22" fill="none" xmlns="http://www.w3.org/2000/svg">
<mask id="mask0_3127_5054" style="mask-type:alpha" maskUnits="userSpaceOnUse" x="0" y="0" width="22" height="22">
<rect width="22" height="22" fill="#D9D9D9"/>
</mask>
<g mask="url(#mask0_3127_5054)">
<path d="M6.41732 19.25V16.5H4.58398V14.6667H6.41732V12.8333H4.58398V11H6.41732V2.75H12.3757C13.7812 2.75 14.9729 3.23889 15.9507 4.21667C16.9284 5.19444 17.4173 6.38611 17.4173 7.79167C17.4173 9.19722 16.9284 10.3889 15.9507 11.3667C14.9729 12.3444 13.7812 12.8333 12.3757 12.8333H8.25065V14.6667H11.9173V16.5H8.25065V19.25H6.41732ZM8.25065 11H12.3757C13.2618 11 14.018 10.6868 14.6444 10.0604C15.2708 9.43403 15.584 8.67778 15.584 7.79167C15.584 6.90556 15.2708 6.14931 14.6444 5.52292C14.018 4.89653 13.2618 4.58333 12.3757 4.58333H8.25065V11Z" fill="#4172f6"/>
</g>
</svg>
