<svg
  width="25"
  height="25"
  viewBox="0 0 25 25"
  fill="none"
  xmlns="http://www.w3.org/2000/svg"
>
<g clipPath="url(#clip0_791_4839)">
<path
      d="M17.2847 18.0556H22.743C22.2847 12.0069 19.6805 8.25 16.3403 6.02778L17.8611 2.70834C17.9071 2.60301 17.9262 2.48791 17.9167 2.37337C17.9073 2.25884 17.8695 2.14844 17.8069 2.05208C17.7443 1.95572 17.6587 1.87641 17.5579 1.82127C17.457 1.76612 17.3441 1.73686 17.2292 1.73611H7.70833C7.5934 1.73686 7.48046 1.76612 7.37963 1.82127C7.2788 1.87641 7.19323 1.95572 7.13059 2.05208C7.06796 2.14844 7.03022 2.25884 7.02076 2.37337C7.0113 2.48791 7.03041 2.60301 7.07638 2.70834L7.90972 4.51389H14.9375L14.3125 5.90278H13.0278C13.4201 6.95781 13.7085 8.04864 13.8889 9.15973C14.0057 9.84894 14.0799 10.5447 14.1111 11.2431L13.0139 12.0139C13.0169 11.1157 12.9425 10.2188 12.7917 9.33334C12.5998 8.15485 12.2688 7.00328 11.8055 5.90278H11.1111C10.4702 6.71255 9.89436 7.57171 9.38888 8.47223C8.98132 9.24469 8.63534 10.0481 8.35416 10.875L7.40277 10.2431C7.68048 9.44386 8.02185 8.66822 8.4236 7.92361C8.82955 7.22538 9.27471 6.55069 9.75694 5.90278H8.54166L8.59722 6.02084C4.91666 8.47223 2.11805 12.7778 2.11805 19.9653C2.10866 20.1164 2.12931 20.2678 2.1788 20.4109C2.22828 20.5539 2.30562 20.6858 2.40635 20.7988C2.50708 20.9118 2.6292 21.0037 2.76566 21.0692C2.90212 21.1348 3.05021 21.1726 3.20138 21.1806H8.75694C8.51839 20.9323 8.35368 20.6225 8.28126 20.2859C8.20885 19.9493 8.23159 19.5992 8.34693 19.2747C8.46228 18.9503 8.66567 18.6645 8.93434 18.4491C9.203 18.2338 9.52631 18.0975 9.86805 18.0556C9.70174 17.7735 9.61308 17.4524 9.6111 17.125C9.6111 16.6277 9.80865 16.1508 10.1603 15.7992C10.5119 15.4475 10.9888 15.25 11.4861 15.25H15.6528C16.1501 15.25 16.627 15.4475 16.9786 15.7992C17.3302 16.1508 17.5278 16.6277 17.5278 17.125C17.5313 17.4513 17.4474 17.7727 17.2847 18.0556V18.0556Z"
      fill="#1A3A7A"
    />
<path
      d="M15 19.7917C15 19.6075 14.9268 19.4309 14.7966 19.3006C14.6664 19.1704 14.4897 19.0972 14.3056 19.0972H10.1389C9.95472 19.0972 9.77809 19.1704 9.64786 19.3006C9.51762 19.4309 9.44446 19.6075 9.44446 19.7917C9.44446 19.9759 9.51762 20.1525 9.64786 20.2827C9.77809 20.413 9.95472 20.4861 10.1389 20.4861H14.3056C14.4897 20.4861 14.6664 20.413 14.7966 20.2827C14.9268 20.1525 15 19.9759 15 19.7917Z"
      fill="#1A3A7A"
    />
<path
      d="M15.6527 16.3195H11.4861C11.3019 16.3195 11.1253 16.3926 10.995 16.5229C10.8648 16.6531 10.7916 16.8297 10.7916 17.0139C10.7916 17.1981 10.8648 17.3747 10.995 17.5049C11.1253 17.6352 11.3019 17.7083 11.4861 17.7083H15.6527C15.8369 17.7083 16.0135 17.6352 16.1438 17.5049C16.274 17.3747 16.3472 17.1981 16.3472 17.0139C16.3472 16.8297 16.274 16.6531 16.1438 16.5229C16.0135 16.3926 15.8369 16.3195 15.6527 16.3195Z"
      fill="#1A3A7A"
    />
<path
      d="M15.2777 21.875H11.1111C10.9269 21.875 10.7503 21.9482 10.62 22.0784C10.4898 22.2086 10.4166 22.3853 10.4166 22.5694C10.4166 22.7536 10.4898 22.9303 10.62 23.0605C10.7503 23.1907 10.9269 23.2639 11.1111 23.2639H15.2777C15.4619 23.2639 15.6386 23.1907 15.7688 23.0605C15.899 22.9303 15.9722 22.7536 15.9722 22.5694C15.9722 22.3853 15.899 22.2086 15.7688 22.0784C15.6386 21.9482 15.4619 21.875 15.2777 21.875Z"
      fill="#1A3A7A"
    />
<path
      d="M22.7084 21.875H17.8473C17.6631 21.875 17.4865 21.9482 17.3562 22.0784C17.226 22.2086 17.1528 22.3853 17.1528 22.5694C17.1528 22.7536 17.226 22.9303 17.3562 23.0605C17.4865 23.1907 17.6631 23.2639 17.8473 23.2639H22.7084C22.8926 23.2639 23.0692 23.1907 23.1994 23.0605C23.3297 22.9303 23.4028 22.7536 23.4028 22.5694C23.4028 22.3853 23.3297 22.2086 23.1994 22.0784C23.0692 21.9482 22.8926 21.875 22.7084 21.875Z"
      fill="#1A3A7A"
    />
<path
      d="M23.4027 19.0972H18.5416C18.3574 19.0972 18.1808 19.1704 18.0506 19.3006C17.9203 19.4309 17.8472 19.6075 17.8472 19.7917C17.8472 19.9759 17.9203 20.1525 18.0506 20.2827C18.1808 20.413 18.3574 20.4861 18.5416 20.4861H23.4027C23.5869 20.4861 23.7635 20.413 23.8938 20.2827C24.024 20.1525 24.0972 19.9759 24.0972 19.7917C24.0972 19.6075 24.024 19.4309 23.8938 19.3006C23.7635 19.1704 23.5869 19.0972 23.4027 19.0972Z"
      fill="#1A3A7A"
    />
</g>
<defs>
<clipPath id="clip0_791_4839">
<rect width="25" height="25" fill="white" />
</clipPath>
</defs>
</svg>
