<svg width="24" height="24" viewBox="0 0 24 24" fill="none" xmlns="http://www.w3.org/2000/svg">
<path d="M12 24C18.6275 24 24 18.6275 24 12C24 5.37258 18.6275 0 12 0C5.37258 0 0 5.37258 0 12C0 18.6275 5.37258 24 12 24Z" fill="#103F68"/>
<path d="M11.985 3.76367L19.125 7.87592V16.126L11.9932 20.2502L11.9355 20.236L4.875 16.126V7.87592L11.9355 3.76367H11.985ZM11.9617 4.61717L5.625 8.30717V15.6947L11.961 19.384L12.735 18.9362L18.375 15.6925V8.30867L12.735 5.04617L11.9617 4.61717ZM6.60675 12.5747L8.4825 11.1722L10.1407 12.2312V14.1362L11.3955 15.3452L11.3947 15.9122L10.1857 17.0447H9.165L6.6075 12.5747H6.60675ZM12.534 15.9137L12.5317 15.3437L13.782 14.1362V12.2312L15.4222 11.1587L17.2942 12.5754L14.7495 17.032H13.7415L12.534 15.9137ZM10.7565 12.2312L10.146 10.6329H13.7745L13.176 12.2312L13.353 14.0177L11.9527 14.0207L10.569 14.0229L10.7565 12.2312ZM11.9527 10.1949L8.50425 10.1934L9.1455 7.32842H14.7435L15.4185 10.1972L11.9527 10.1949Z" fill="white"/>
</svg>
