<svg version="1.1" id="Layer_1" xmlns="http://www.w3.org/2000/svg" xmlns:xlink="http://www.w3.org/1999/xlink" x="0px" y="0px"
	 width="100%" viewBox="0 0 200 200" enable-background="new 0 0 200 200" xml:space="preserve">
<path fill="#F5F8FA" opacity="1.000000" stroke="none" 
	d="
M131.000000,201.000000 
	C87.333336,201.000000 44.166672,201.000000 1.000006,201.000000 
	C1.000004,134.333344 1.000004,67.666679 1.000002,1.000015 
	C67.666656,1.000010 134.333313,1.000010 200.999969,1.000005 
	C200.999985,67.666649 200.999985,134.333298 201.000000,200.999969 
	C177.833328,201.000000 154.666672,201.000000 131.000000,201.000000 
M117.795311,116.286491 
	C108.551506,129.115997 105.050262,143.371429 106.944168,159.057129 
	C107.320869,162.177032 106.998512,165.381348 106.998512,168.546738 
	C106.998512,171.598755 106.998512,174.650772 106.998512,178.352310 
	C124.085617,170.578156 140.510178,163.745743 154.905472,152.994812 
	C165.421936,145.140747 171.706909,135.308044 171.027084,121.620148 
	C170.630890,113.643333 170.946777,105.631058 170.945358,97.634743 
	C170.943573,87.520622 170.944931,77.406502 170.944931,65.921501 
	C168.014526,67.573975 166.600250,68.312546 165.244080,69.145706 
	C155.599106,75.071098 145.875702,80.876991 136.390030,87.047974 
	C133.889740,88.674561 131.660034,91.166290 130.129868,93.748848 
	C125.891769,100.901772 122.088120,108.312096 117.795311,116.286491 
M92.437569,177.231949 
	C96.049995,178.840530 94.944954,175.839432 94.954544,174.445358 
	C95.035881,162.620590 95.103783,150.793320 94.908867,138.971207 
	C94.872833,136.785278 93.947731,134.453796 92.900154,132.470993 
	C86.527519,120.409225 79.886276,108.488541 73.582764,96.391502 
	C71.126816,91.678291 68.086784,87.965446 63.278988,85.386711 
	C57.279217,82.168640 51.654800,78.253922 45.842976,74.681229 
	C41.500919,72.012047 37.118690,69.408211 32.331177,66.519974 
	C32.068230,67.987198 31.820976,68.753357 31.809097,69.523163 
	C31.539450,86.998322 31.498295,104.479919 30.978731,121.947350 
	C30.604740,134.520752 35.780910,144.120743 45.399326,151.657410 
	C48.405823,154.013214 51.439384,156.459763 54.799492,158.216507 
	C67.025101,164.608444 79.394241,170.725861 92.437569,177.231949 
M88.505608,81.803276 
	C93.498848,81.803307 98.560951,81.267616 103.473015,81.899101 
	C121.613426,84.231186 137.432343,79.665779 151.181427,67.463211 
	C155.048462,64.031151 159.712189,61.496754 164.613007,58.137619 
	C147.752335,48.562794 131.964203,39.025848 115.624313,30.552963 
	C107.138245,26.152601 97.310280,26.413803 88.698097,30.435852 
	C77.274940,35.770668 66.455864,42.402798 55.400070,48.518768 
	C49.847858,51.590195 44.346199,54.752998 38.154579,58.251400 
	C46.475124,63.866753 54.233974,68.467369 61.250927,74.007637 
	C69.126221,80.225609 77.562981,83.214386 88.505608,81.803276 
M116.190285,89.998795 
	C114.436913,89.308296 112.703903,88.090996 110.926491,88.022255 
	C104.626335,87.778633 98.298828,88.168427 92.005341,87.850235 
	C87.047791,87.599594 84.507034,91.120621 82.917938,94.328293 
	C81.847916,96.488190 82.919922,100.553276 84.375130,102.952362 
	C87.891777,108.750000 92.156876,114.098579 96.193359,119.574280 
	C99.002373,123.384834 103.643822,123.391014 106.453003,119.590645 
	C110.298080,114.388893 114.059715,109.125351 117.845505,103.879906 
	C121.898758,98.263885 121.666000,95.511604 116.190285,89.998795 
z"/>
<path fill="#7E80BC" opacity="1.000000" stroke="none" 
	d="
M117.954033,115.953583 
	C122.088120,108.312096 125.891769,100.901772 130.129868,93.748848 
	C131.660034,91.166290 133.889740,88.674561 136.390030,87.047974 
	C145.875702,80.876991 155.599106,75.071098 165.244080,69.145706 
	C166.600250,68.312546 168.014526,67.573975 170.944931,65.921501 
	C170.944931,77.406502 170.943573,87.520622 170.945358,97.634743 
	C170.946777,105.631058 170.630890,113.643333 171.027084,121.620148 
	C171.706909,135.308044 165.421936,145.140747 154.905472,152.994812 
	C140.510178,163.745743 124.085617,170.578156 106.998512,178.352310 
	C106.998512,174.650772 106.998512,171.598755 106.998512,168.546738 
	C106.998512,165.381348 107.320869,162.177032 106.944168,159.057129 
	C105.050262,143.371429 108.551506,129.115997 117.954033,115.953583 
z"/>
<path fill="#7E80BC" opacity="1.000000" stroke="none" 
	d="
M92.073418,177.089355 
	C79.394241,170.725861 67.025101,164.608444 54.799492,158.216507 
	C51.439384,156.459763 48.405823,154.013214 45.399326,151.657410 
	C35.780910,144.120743 30.604740,134.520752 30.978731,121.947350 
	C31.498295,104.479919 31.539450,86.998322 31.809097,69.523163 
	C31.820976,68.753357 32.068230,67.987198 32.331177,66.519974 
	C37.118690,69.408211 41.500919,72.012047 45.842976,74.681229 
	C51.654800,78.253922 57.279217,82.168640 63.278988,85.386711 
	C68.086784,87.965446 71.126816,91.678291 73.582764,96.391502 
	C79.886276,108.488541 86.527519,120.409225 92.900154,132.470993 
	C93.947731,134.453796 94.872833,136.785278 94.908867,138.971207 
	C95.103783,150.793320 95.035881,162.620590 94.954544,174.445358 
	C94.944954,175.839432 96.049995,178.840530 92.073418,177.089355 
z"/>
<path fill="#7F81BD" opacity="1.000000" stroke="none" 
	d="
M88.007324,81.803116 
	C77.562981,83.214386 69.126221,80.225609 61.250927,74.007637 
	C54.233974,68.467369 46.475124,63.866753 38.154579,58.251400 
	C44.346199,54.752998 49.847858,51.590195 55.400070,48.518768 
	C66.455864,42.402798 77.274940,35.770668 88.698097,30.435852 
	C97.310280,26.413803 107.138245,26.152601 115.624313,30.552963 
	C131.964203,39.025848 147.752335,48.562794 164.613007,58.137619 
	C159.712189,61.496754 155.048462,64.031151 151.181427,67.463211 
	C137.432343,79.665779 121.613426,84.231186 103.473015,81.899101 
	C98.560951,81.267616 93.498848,81.803307 88.007324,81.803116 
z"/>
<path fill="#F7B11D" opacity="1.000000" stroke="none" 
	d="
M116.467934,90.267944 
	C121.666000,95.511604 121.898758,98.263885 117.845505,103.879906 
	C114.059715,109.125351 110.298080,114.388893 106.453003,119.590645 
	C103.643822,123.391014 99.002373,123.384834 96.193359,119.574280 
	C92.156876,114.098579 87.891777,108.750000 84.375130,102.952362 
	C82.919922,100.553276 81.847916,96.488190 82.917938,94.328293 
	C84.507034,91.120621 87.047791,87.599594 92.005341,87.850235 
	C98.298828,88.168427 104.626335,87.778633 110.926491,88.022255 
	C112.703903,88.090996 114.436913,89.308296 116.467934,90.267944 
z"/>
</svg>