<svg width="40" height="40" viewBox="0 0 40 40" fill="none" xmlns="http://www.w3.org/2000/svg">
<path fill-rule="evenodd" clip-rule="evenodd" d="M0 19.9828C0 31.011 8.98806 40 19.9828 40C31.011 40 40 31.011 40 19.9828C40 8.95373 31.011 0 19.9828 0C8.98806 0 0 8.95373 0 19.9828ZM6.22243 14.5202C11.3399 11.1664 17.0094 9.19587 26.5856 10.8556C27.1043 10.5448 27.3807 10.2684 27.519 9.64583C25.1337 8.78117 22.5406 8.47037 19.1868 8.53902C16.18 8.6086 10.7517 9.74881 7.84785 11.4429L8.74684 10.337C10.7517 9.16154 16.0408 7.57138 19.9828 7.5018C22.7828 7.43314 24.2347 7.6057 27.5533 8.50469C27.2768 7.91743 26.5856 7.64003 25.5837 7.191C22.3681 5.73907 16.3525 5.63516 11.4429 7.77827C12.0654 7.36356 12.6879 6.98318 13.483 6.63806C15.1075 5.91163 17.7349 5.18613 21.0544 5.22046C23.7161 5.28911 26.8621 6.1881 28.7983 8.12432C29.1101 8.5047 29.2826 8.88507 29.3856 9.19587C30.9071 9.99095 31.7718 10.7174 32.2904 11.5468C32.4973 11.9968 32.5669 12.4801 32.463 12.9987C33.1198 13.3791 33.4306 13.6908 33.7423 14.1399C33.9492 14.4859 34.1227 14.8663 34.157 15.2467C34.2257 15.73 34.2953 16.2486 33.7766 16.8712C34.2953 17.1476 34.71 17.8388 34.7795 18.1849C35.0217 19.326 34.2953 20.4319 33.2924 21.3309C32.1865 22.2994 29.6973 23.474 27.6925 23.9926C23.6818 24.9955 20.1554 25.4102 17.3202 25.9288C18.5996 26.2405 20.2936 26.6552 23.1279 26.6552C29.0748 26.6552 34.3648 23.82 34.3648 23.82C34.3648 23.82 34.2609 24.2004 34.1227 24.5112C30.3542 26.7935 24.3034 27.7954 21.7112 27.6572C19.1182 27.5533 16.9055 27.1386 14.7624 26.4817C14.0703 26.6552 13.4487 26.8621 12.7918 27.1386C16.0761 28.6258 18.5652 28.9709 21.3652 29.1787C24.2347 29.3856 28.9709 28.6944 32.9816 27.2425C32.7737 27.4503 32.7051 27.7268 32.4973 27.9003C30.4581 28.9709 26.1366 30.0424 23.9583 30.1473C21.7808 30.2159 19.1525 30.1473 16.8702 29.6973C14.8663 29.3169 13.2752 28.6944 11.5811 27.9689C11.2703 28.1767 11.1321 28.4875 11.0625 28.7983C17.631 32.2551 23.82 32.3247 30.8385 30.1473L30.1816 30.7689C22.4711 33.8805 16.4212 32.6708 11.7546 30.4228C11.6164 30.3542 11.4086 30.2855 11.2703 30.1816C11.7194 30.9414 15.281 33.5354 19.2564 33.8805C22.022 34.1227 25.3759 33.6384 27.3807 32.8433L26.2053 33.4306C25.2376 33.9158 22.6789 34.9864 19.1182 34.7443C14.3467 34.4335 11.6507 32.3247 10.4752 31.2179C9.9223 30.7002 9.6449 30.112 9.47234 29.3856C8.40079 28.8336 7.70961 28.2454 7.15575 27.3464C6.84495 26.8621 6.91453 26.2748 6.98318 25.7906C7.01751 25.6523 7.05277 25.4798 7.12142 25.3415C6.60281 24.9955 6.04987 24.5808 5.84205 24.1661C5.35869 23.3357 5.66949 22.6102 5.98121 22.022C5.70382 21.7112 5.42735 21.4004 5.32344 21.0544C5.1852 20.674 5.1852 20.2936 5.22046 19.8789C5.28911 19.1878 5.66949 18.5309 6.1881 17.9427C7.22533 16.7672 8.84982 15.8339 11.6507 14.9006C14.382 14.0016 15.4879 13.8634 17.5623 13.3791C19.9828 12.8262 22.8867 12.6183 25.2719 11.7889C18.5652 10.6135 11.5468 11.685 5.84205 15.6261L6.22243 14.5202ZM29.1787 10.3713C29.1101 10.6831 28.7288 11.0625 28.4866 11.3399C29.2474 11.5125 29.9738 11.7889 30.665 12.0654C30.5963 11.4086 29.8356 10.786 29.1787 10.3713ZM8.43512 23.82C7.98608 23.5779 7.70961 23.4053 7.32924 23.1632C7.12142 23.5779 7.5018 24.0622 7.88218 24.27C8.05474 24.1317 8.26255 23.9926 8.43512 23.82ZM31.1493 15.0045C31.6335 15.2467 32.0482 15.4192 32.4973 15.73C32.7737 15.1428 32.6012 14.7624 31.9787 14.2438C31.7365 14.5202 31.4257 14.7624 31.1493 15.0045ZM29.6973 15.9035C28.7288 16.3525 27.3121 16.8368 25.2719 17.3202C23.6122 17.7358 19.6015 18.3231 15.2457 19.2564C13.8634 19.5681 10.1644 20.4671 8.33121 21.9877C8.84982 22.4024 9.16154 22.5063 9.71449 22.8171C10.4752 22.3338 11.5115 21.8838 13.0331 21.4691C15.6957 20.7779 17.6662 20.4671 20.0867 20.0858C22.4711 19.7064 26.9308 18.773 29.3856 17.8741C30.2159 17.5976 30.9414 17.2172 31.5296 16.8016C31.3561 16.5947 29.766 15.8339 29.6973 15.9035ZM10.9595 26.2748C11.3047 26.0327 11.7546 25.8258 12.2732 25.618C11.5811 25.3415 10.8556 25.0298 10.1292 24.6837C9.81839 24.8916 9.5076 25.0994 9.29978 25.3415C9.85272 25.6523 10.3713 25.9631 10.9595 26.2748ZM8.67726 26.4817C8.64293 26.9317 8.9194 27.3464 9.5076 27.8298C9.57625 27.5885 9.68016 27.416 9.88705 27.1738C9.47234 26.966 9.05764 26.7239 8.67726 26.4817ZM12.0311 18.2544C16.9055 16.8368 22.022 16.3869 27.2082 15.0045C25.168 14.4507 24.0622 14.2438 21.9191 14.4859C18.8074 14.831 15.384 15.5231 12.4801 16.3869C11.3399 16.7329 5.28911 18.4613 7.01751 20.8466C7.01751 20.8818 8.05474 19.4299 12.0311 18.2544ZM30.3198 13.2752C29.5238 12.9301 28.5219 12.5497 27.4846 12.2732C27.0004 12.6536 26.4474 12.9987 25.6523 13.2752C27.0003 13.5173 27.9689 13.8977 29.0748 14.2094C29.2826 14.3124 30.1816 13.4487 30.3198 13.2752ZM32.7051 17.977C32.5669 18.0809 32.3943 18.2192 32.2208 18.3574C31.1149 19.1878 29.3856 19.8789 26.966 20.5358C21.9525 21.8838 18.2888 22.0916 14.1399 23.0945C13.3448 23.2671 12.5144 23.5435 11.7194 23.8896C12.5144 24.27 13.3448 24.6151 14.1742 24.9611C15.8683 24.4769 16.6633 24.27 19.1182 23.8543C20.0515 23.6818 22.921 23.1975 24.9602 22.7485C28.6944 21.9534 34.157 20.225 32.7051 17.977ZM0.691175 19.9828C0.691175 9.33411 9.36843 0.691175 19.9828 0.691175C30.6306 0.691175 39.3079 9.33411 39.3079 19.9828C39.3079 30.6306 30.6306 39.3079 19.9828 39.3079C9.36843 39.3079 0.691175 30.6306 0.691175 19.9828Z" fill="#0057B6"/>
</svg>
