<svg width="40" height="40" viewBox="0 0 40 40" fill="none" xmlns="http://www.w3.org/2000/svg">
<path fill-rule="evenodd" clip-rule="evenodd" d="M8 0H32C36.4 0 40 3.6 40 8V32C40 36.4 36.4 40 32 40H0V8C0 3.6 3.6 0 8 0Z" fill="#1D478C"/>
<path d="M9.06923 29.5525C10.8192 29.5525 12.1748 28.2585 12.1748 26.4099C12.1748 24.6845 10.9548 23.5014 9.54991 23.5014C8.51468 23.5014 7.84922 24.019 7.4918 24.6352L7.46717 24.6229C7.5411 23.2549 7.83687 22.6141 9.22947 22.3676L11.7312 21.9116L11.2629 20.2109L8.88441 20.6299C6.34571 21.0736 5.7788 22.7374 5.76649 25.4732C5.75414 27.6792 6.61685 29.5525 9.06923 29.5525ZM8.983 27.8518C8.2682 27.8518 7.71365 27.2602 7.71365 26.4222C7.71365 25.843 8.13267 25.1528 8.94602 25.1528C9.66081 25.1528 10.2277 25.6828 10.2277 26.4715C10.2277 27.3095 9.64846 27.8518 8.983 27.8518ZM15.7694 29.5525C16.4965 29.5525 17.0387 29.306 17.4332 28.8007L17.4578 28.813V29.4415H19.2941V23.4151H17.3593V24.0437L17.3346 24.056C16.9156 23.563 16.3118 23.3042 15.6709 23.3042C14.118 23.3042 12.9226 24.5859 12.9226 26.4345C12.9226 28.2954 14.118 29.5525 15.7694 29.5525ZM16.176 27.8518C15.4121 27.8518 14.8821 27.2849 14.8821 26.4345C14.8821 25.5718 15.4367 25.005 16.176 25.005C16.891 25.005 17.4455 25.6088 17.4455 26.4345C17.4455 27.2972 16.8663 27.8518 16.176 27.8518ZM20.6455 29.4415H22.5681V27.2849H24.4783V29.4415H26.4131V23.4151H24.4783V25.7321H22.5681V23.4151H20.6455V29.4415ZM27.7895 29.4415H29.6875V27.7531L30.2666 27.063L31.7824 29.4415H33.9639L31.7208 25.9785L33.8404 23.4151H31.5977L29.7121 25.806H29.6875V23.4151H27.7895V29.4415Z" fill="white"/>
<path d="M13.2992 15.4548H12.3447V11.066H7.6578C7.6578 12.1785 7.64557 13.0709 7.46198 13.9389C7.35186 14.4523 7.1928 14.9535 6.94804 15.4548H6.06692L6.05469 18.5965H7.63333L7.69451 17.044H11.6104L11.7206 18.5965H13.2992V15.4548ZM8.78362 15.4548C8.93045 15.1369 9.05286 14.8068 9.13851 14.4645C9.28533 13.8778 9.3588 13.2665 9.40774 12.6064H10.4724V15.4548H8.78362ZM17.0287 17.154C17.7507 17.154 18.2891 16.9095 18.6807 16.4083L18.7052 16.4205V17.044H20.5286V11.066H18.6073V11.6895L18.5828 11.7017C18.1668 11.2128 17.5671 10.9561 16.9308 10.9561C15.3889 10.9561 14.2019 12.2274 14.2019 14.0611C14.2019 15.9071 15.3889 17.154 17.0287 17.154ZM17.4325 15.467C16.6738 15.467 16.1476 14.9046 16.1476 14.0611C16.1476 13.2054 16.6983 12.6431 17.4325 12.6431C18.1423 12.6431 18.693 13.242 18.693 14.0611C18.693 14.9168 18.1178 15.467 17.4325 15.467ZM23.4373 17.044H25.3585V12.6186H26.9739V11.066H21.8098V12.6186H23.4373V17.044ZM30.4929 17.154C31.2149 17.154 31.7533 16.9095 32.1449 16.4083L32.1693 16.4205V17.044H33.9927V11.066H32.0715V11.6895L32.047 11.7017C31.6309 11.2128 31.0313 10.9561 30.395 10.9561C28.853 10.9561 27.666 12.2274 27.666 14.0611C27.666 15.9071 28.853 17.154 30.4929 17.154ZM30.8967 15.467C30.138 15.467 29.6118 14.9046 29.6118 14.0611C29.6118 13.2054 30.1625 12.6431 30.8967 12.6431C31.6065 12.6431 32.1571 13.242 32.1571 14.0611C32.1571 14.9168 31.582 15.467 30.8967 15.467Z" fill="white"/>
</svg>
