<svg width="40" height="40" viewBox="0 0 40 40" fill="none" xmlns="http://www.w3.org/2000/svg">
<path d="M40 0H0V40H40V0Z" fill="#6A2538"/>
<path d="M19.9323 38.0231C28.0644 38.0155 34.8185 31.747 35.4329 23.6388H4.42312C5.03753 31.7504 11.7976 38.0197 19.9323 38.0231ZM29.4423 27.891C27.4994 31.3133 23.8675 33.4283 19.9323 33.43C15.9936 33.4317 12.3584 31.3158 10.4138 27.891H29.4423ZM19.0887 2.08789H14.8279V6.93663C8.57651 9.11303 4.38733 15.0082 4.38904 21.6277V21.8237H19.0887V2.08789ZM14.8279 17.5374H9.77464C10.7444 15.1309 12.5348 13.1446 14.8279 11.9302V17.5374ZM35.4329 21.6277C35.4346 15.0082 31.2454 9.11303 24.9941 6.93663V2.08789H20.7333V21.8322H35.4329V21.6277ZM24.9941 17.5544V11.9302C27.2949 13.1454 29.0887 15.1386 30.0558 17.5544H24.9941Z" fill="white"/>
</svg>
