<?xml version="1.0" encoding="utf-8"?>
<!-- Generator: Adobe Illustrator 24.3.0, SVG Export Plug-In . SVG Version: 6.00 Build 0)  -->
<svg version="1.1" id="Layer_1" xmlns="http://www.w3.org/2000/svg" xmlns:xlink="http://www.w3.org/1999/xlink" x="0px" y="0px"
	 viewBox="0 0 512 512" style="enable-background:new 0 0 512 512;" xml:space="preserve">
<style type="text/css">
	.st0{fill:#006BB0;}
	.st1{fill:#E43243;}
</style>
<g id="XMLID_1_">
	<path id="XMLID_5_" class="st0" d="M0,228.53h15.15c10.52,0,18.38,3.09,23.85,9.12c5.47,6.03,8.14,14.87,8.14,26.51
		c0,8.84-1.4,15.85-4.07,21.32c-2.67,5.47-6.45,9.26-11.22,11.78c-4.77,2.38-10.1,3.65-15.99,3.65H0V228.53z M16.13,243.96v41.52
		c4.91-0.42,8.42-2.24,10.38-5.33c1.96-3.09,3.09-8.14,3.09-15.29c0-4.21-0.42-7.72-1.12-10.66c-0.7-2.95-1.82-5.19-3.23-6.73
		c-1.4-1.54-2.81-2.52-4.07-2.95C19.92,244.24,18.24,243.96,16.13,243.96z"/>
	<path id="XMLID_8_" class="st0" d="M74.2,285.62h13.05c-2.52,11.22-8.7,16.83-18.66,16.83c-6.17,0-11.08-2.38-14.73-7.15
		s-5.47-11.36-5.47-19.92c0-7.86,1.82-14.17,5.47-18.94c3.65-4.77,8.42-7.15,14.45-7.15c3.65,0,7.15,1.12,10.52,3.51
		c3.37,2.24,5.75,5.33,7.29,9.12c1.54,3.79,2.38,9.82,2.52,17.96H62.84c0.28,7.43,2.24,11.08,6.03,11.08c1.26,0,2.52-0.42,3.51-1.4
		C73.36,288.42,74.06,287.16,74.2,285.62z M62.98,271.17H74.2c-0.14-3.51-0.56-6.03-1.4-7.72c-0.84-1.68-2.24-2.52-4.07-2.52
		c-2.1,0-3.51,0.84-4.49,2.38C63.4,265,62.98,267.52,62.98,271.17z"/>
	<path id="XMLID_9_" class="st0" d="M110.96,250.97v6.73h0.28c3.65-5.61,8-8.42,13.33-8.42c3.37,0,6.17,1.12,8.14,3.51
		c1.96,2.24,2.95,5.47,2.95,9.4v38.58h-15.57v-30.72c0-1.68-0.42-3.09-1.12-4.21c-0.84-1.12-1.82-1.68-3.09-1.68
		c-3.37,0-4.91,2.1-4.91,6.31v30.16H95.53v-49.8h15.43V250.97z"/>
	<path id="XMLID_12_" class="st0" d="M142.66,236.1c0-2.24,0.84-4.21,2.38-5.89c1.54-1.68,3.51-2.38,5.75-2.38
		c2.24,0,4.21,0.84,5.75,2.38c1.54,1.68,2.38,3.65,2.38,5.89c0,2.24-0.84,4.21-2.38,5.89c-1.54,1.68-3.51,2.52-5.75,2.52
		c-2.24,0-4.07-0.84-5.75-2.52C143.5,240.31,142.66,238.35,142.66,236.1z M143.08,250.97h15.57v49.8h-15.57V250.97z"/>
	<polygon id="XMLID_13_" class="st0" points="164.54,250.97 200.45,250.97 184.88,287.86 199.33,287.86 199.33,300.77 
		162.58,300.77 178.01,264.02 164.54,264.02 	"/>
	<path id="XMLID_17_" class="st0" d="M206.34,228.53h16.41c9.54,0,16.41,1.96,20.62,5.75c4.21,3.79,6.31,8.7,6.31,14.59
		c0,6.31-3.09,11.5-9.12,15.29c6.87,2.81,10.38,8.14,10.38,15.85c0,6.31-2.1,11.22-6.45,15.15c-4.35,3.79-9.96,5.75-16.97,5.75
		h-21.18L206.34,228.53L206.34,228.53z M222.47,242.41v15.57c7.15-0.14,10.8-2.67,10.8-7.57c0-2.95-0.84-4.91-2.52-6.17
		C229.07,243.11,226.26,242.41,222.47,242.41z M222.47,271.03v15.71c4.07,0,7.15-0.7,9.26-1.96s3.09-3.23,3.09-6.03
		c0-5.19-3.65-7.72-10.94-7.72L222.47,271.03L222.47,271.03z"/>
	<path id="XMLID_20_" class="st0" d="M281.11,300.77v-6.59h-0.28c-1.82,2.81-3.65,4.91-5.47,6.17s-3.79,1.96-6.17,1.96
		c-4.63,0-8.42-2.38-11.22-7.29c-2.81-4.77-4.21-11.36-4.21-19.64c0-8,1.4-14.31,4.21-19.08c2.81-4.77,6.45-7.15,11.08-7.15
		c2.38,0,4.49,0.56,6.17,1.82c1.68,1.26,3.51,3.23,5.33,6.03h0.28v-6.17h15.57v49.8L281.11,300.77L281.11,300.77z M281.11,275.66
		c0-8.28-1.96-12.34-6.03-12.34s-6.03,4.07-6.03,12.34c0,8.56,2.1,12.91,6.17,12.91C279.15,288.56,281.11,284.22,281.11,275.66z"/>
	<path id="XMLID_21_" class="st0" d="M319.54,250.97v6.73h0.28c3.65-5.61,8-8.42,13.33-8.42c3.37,0,6.17,1.12,8.14,3.51
		c1.96,2.24,2.95,5.47,2.95,9.4v38.58h-15.57v-30.72c0-1.68-0.42-3.09-1.12-4.21c-0.84-1.12-1.82-1.68-3.09-1.68
		c-3.37,0-4.91,2.1-4.91,6.31v30.16h-15.43v-49.8h15.43V250.97z"/>
	<polygon id="XMLID_22_" class="st0" points="349.7,224.6 365.27,224.6 365.27,268.79 365.55,268.79 376.07,250.97 394.59,250.97 
		378.88,273.27 395.01,300.77 377.06,300.77 365.55,276.5 365.27,276.5 365.27,300.77 349.7,300.77 	"/>
	<path id="XMLID_25_" class="st1" d="M499.52,256.3c0,22.72-18.24,41.24-40.68,41.24c-22.44,0-40.68-18.52-40.68-41.24
		s18.24-41.24,40.68-41.24C481.42,214.92,499.52,233.44,499.52,256.3z M458.42,227.54c-15.43,0-28.05,12.76-28.05,28.48
		s12.62,28.48,28.05,28.48c15.43,0,28.05-12.76,28.05-28.48C486.47,240.31,473.85,227.54,458.42,227.54z"/>
	<ellipse id="XMLID_26_" class="st1" cx="458.28" cy="256.02" rx="11.78" ry="12.06"/>
	<rect id="XMLID_27_" x="456.17" y="225.44" class="st1" width="3.93" height="62.14"/>
	<rect id="XMLID_28_" x="427.56" y="254.2" class="st1" width="61.16" height="3.93"/>
	<polygon id="XMLID_29_" class="st1" points="481.14,276.92 478.47,279.73 435.13,235.82 437.94,233.02 	"/>
	<polygon id="XMLID_30_" class="st1" points="478.19,232.73 480.86,235.54 437.65,279.45 434.99,276.64 	"/>
	<path id="XMLID_31_" class="st1" d="M461.92,217.16c0,2.1-1.68,3.79-3.79,3.79c-2.1,0-3.79-1.68-3.79-3.79V205.1
		c0-2.1,1.68-3.79,3.79-3.79c2.1,0,3.79,1.68,3.79,3.79V217.16z"/>
	<path id="XMLID_32_" class="st1" d="M461.92,306.8c0,2.1-1.68,3.79-3.79,3.79c-2.1,0-3.79-1.68-3.79-3.79v-12.06
		c0-2.1,1.68-3.79,3.79-3.79c2.1,0,3.79,1.68,3.79,3.79V306.8z"/>
	<path id="XMLID_33_" class="st1" d="M419.98,251.81c2.1,0,3.79,1.68,3.79,3.79c0,2.1-1.68,3.79-3.79,3.79H408.2
		c-2.1,0-3.79-1.68-3.79-3.79c0-2.1,1.68-3.79,3.79-3.79H419.98z"/>
	<path id="XMLID_34_" class="st1" d="M508.21,251.81c2.1,0,3.79,1.68,3.79,3.79c0,2.1-1.68,3.79-3.79,3.79h-11.78
		c-2.1,0-3.79-1.68-3.79-3.79c0-2.1,1.68-3.79,3.79-3.79H508.21z"/>
	<path id="XMLID_35_" class="st1" d="M433.87,225.86c1.4,1.54,1.4,3.93,0,5.33c-1.4,1.54-3.79,1.54-5.33,0l-8.42-8.56
		c-1.4-1.54-1.4-3.93,0-5.33c1.4-1.54,3.79-1.54,5.33,0L433.87,225.86z"/>
	<path id="XMLID_36_" class="st1" d="M496.29,289.27c1.4,1.54,1.4,3.93,0,5.33c-1.4,1.54-3.79,1.54-5.33,0l-8.42-8.56
		c-1.4-1.54-1.4-3.93,0-5.33c1.4-1.54,3.79-1.54,5.33,0L496.29,289.27z"/>
	<path id="XMLID_37_" class="st1" d="M428.26,280.57c1.4-1.54,3.79-1.54,5.33,0c1.4,1.54,1.4,3.93,0,5.33l-8.42,8.56
		c-1.4,1.54-3.79,1.54-5.33,0c-1.4-1.54-1.4-3.93,0-5.33L428.26,280.57z"/>
	<path id="XMLID_38_" class="st1" d="M490.68,217.16c1.4-1.54,3.79-1.54,5.33,0c1.4,1.54,1.4,3.93,0,5.33l-8.42,8.56
		c-1.4,1.54-3.79,1.54-5.33,0c-1.4-1.54-1.4-3.93,0-5.33L490.68,217.16z"/>
</g>
</svg>
