<svg width="40" height="40" viewBox="0 0 40 40" fill="none" xmlns="http://www.w3.org/2000/svg">
<path d="M23.1638 1.0098C22.4404 0.904396 21.9421 1.67098 22.3493 2.2603C24.721 5.68598 26.0817 9.66265 26.0817 13.9076C26.0817 25.0902 16.6574 34.4282 4.10936 36.6321C3.6542 36.7136 3.41943 36.1386 3.80752 35.8943C14.6499 29.2202 20.2412 19.0198 16.437 12.0295C14.3864 8.26842 9.9977 6.13635 4.53098 5.71473C3.88897 5.66682 3.39548 6.26092 3.59191 6.85503C4.71784 10.2568 5.29757 13.8789 5.34069 17.6399C5.43651 26.3838 2.49474 32.5596 0.309963 35.9326C-0.533282 37.231 0.444116 38.9127 2.03478 38.9127H16.0681C24.8743 38.9127 29.6223 36.498 33.4744 33.331C37.0822 30.3653 40 25.119 40 19.8535C40 10.2951 32.6935 2.37528 23.1638 1.0098Z" fill="#3ADCC9"/>
</svg>
