<svg width="20" height="20" viewBox="0 0 32 32" fill="none" xmlns="http://www.w3.org/2000/svg">
<path d="M16 31.983C24.8272 31.983 31.983 24.8272 31.983 16C31.983 7.17281 24.8272 0.0169678 16 0.0169678C7.17281 0.0169678 0.0169678 7.17281 0.0169678 16C0.0169678 24.8272 7.17281 31.983 16 31.983Z" fill="#008DE4"/>
<path d="M19.4207 7.04813H11.3885L10.7234 10.7673L17.9717 10.7775C21.5416 10.7775 22.597 12.0738 22.5664 14.2218C22.5495 15.3247 22.0744 17.1877 21.8674 17.7917C21.3176 19.4002 20.1876 21.2394 15.9526 21.2326L8.90788 21.2292L8.23938 24.9518H16.2513C19.078 24.9518 20.2793 24.6227 21.5518 24.0356C24.3751 22.7325 26.0549 19.9465 26.7268 16.3122C27.7278 10.8997 26.479 7.04813 19.4207 7.04813Z" fill="white"/>
<path d="M7.92374 14.1336C5.81982 14.1336 5.5178 15.5046 5.32098 16.3326C5.05969 17.4184 4.97485 17.8562 4.97485 17.8562H13.1971C15.301 17.8562 15.6031 16.4853 15.7999 15.6573C16.0612 14.5714 16.146 14.1336 16.146 14.1336H7.92374Z" fill="white"/>
</svg>
