<svg width="40" height="40" viewBox="0 0 40 40" fill="none" xmlns="http://www.w3.org/2000/svg">
<path d="M34.836 31.0964C35.145 31.3171 35.4981 31.4495 35.9394 31.4495C36.6015 31.4936 37.087 31.273 37.3518 30.8757C37.6166 30.4785 37.749 29.993 37.749 29.4633C37.749 28.6689 37.5283 28.0951 37.1311 27.8744C36.6897 27.6096 36.2042 27.4772 35.6746 27.4772C35.3656 27.4772 35.1008 27.5213 34.8801 27.5213V31.0964H34.836ZM34.836 27.08C35.4539 26.9476 35.9836 26.9034 36.3808 26.9034C37.0428 26.9034 37.7932 27.08 38.6759 27.3889C39.5586 27.6979 40 28.4041 40 29.4633C40 30.2137 39.691 30.7875 39.0731 31.273C38.4552 31.7143 37.6166 31.935 36.5573 31.935C36.116 31.8909 35.807 31.8909 35.5863 31.8909H31.7906V31.4495H32.3643C32.6733 31.4495 32.8057 31.3612 32.8057 31.1847C32.8057 31.1405 32.8499 31.0964 32.8499 31.0081V24.9614C32.8499 24.8731 32.8499 24.829 32.8057 24.7849C32.7616 24.6083 32.6292 24.52 32.3643 24.52H31.7906V24.0787H39.2938L39.3379 26.0207H38.8083V25.5793C38.8083 25.4028 38.5876 25.2262 38.1904 25.0497C37.7932 24.8731 37.2635 24.7407 36.7339 24.6524C36.1601 24.5642 35.7187 24.52 35.4539 24.52C35.2774 24.5642 35.145 24.5642 35.0567 24.6083C34.9684 24.6524 34.9243 24.7407 34.9243 24.8731V27.08H34.836ZM25.479 31.0964C25.8321 31.3612 26.2735 31.4936 26.759 31.4936C27.2886 31.4495 27.6859 31.3171 27.9507 30.964C28.2596 30.655 28.392 30.1695 28.392 29.5958C28.392 28.4041 27.7741 27.8303 26.5824 27.8303H25.4349V31.0964H25.479ZM25.479 27.3007H27.0679C27.421 27.2565 27.6859 27.1241 27.9065 26.9034C28.1272 26.6827 28.2155 26.3738 28.2155 25.9765C28.2155 25.7117 28.1714 25.4469 28.0389 25.2262C27.9065 25.0055 27.73 24.829 27.5093 24.7407C27.2886 24.6083 26.9797 24.5642 26.6266 24.5642C26.1852 24.5642 25.788 24.6966 25.479 24.9173V27.3007ZM28.1714 27.5655C28.8334 27.6096 29.4513 27.7862 29.9368 28.1834C30.4665 28.5365 30.6871 29.0661 30.6871 29.7282C30.6871 30.3902 30.3782 30.9199 29.8044 31.3171C29.2306 31.7143 28.392 31.935 27.3328 31.935C27.1121 31.935 26.9355 31.8909 26.8031 31.8909H22.4336V31.4495H23.0074C23.3163 31.4495 23.4487 31.3612 23.4487 31.1847C23.4929 31.1405 23.4929 31.0964 23.4929 31.0081V24.9614C23.4929 24.8731 23.4929 24.829 23.4487 24.7849C23.4046 24.6083 23.2722 24.52 23.0074 24.52H22.4336V24.0787H25.3466C25.7438 24.0787 26.2735 24.0787 26.9355 24.0345C28.3038 24.0345 29.2306 24.2111 29.7161 24.6083C30.2016 25.0055 30.4665 25.4469 30.4665 25.9324C30.4665 26.2414 30.3782 26.5503 30.1575 26.8151C29.9368 27.08 29.672 27.2565 29.3189 27.3889C28.8775 27.4772 28.5245 27.5655 28.1714 27.5655ZM14.6655 31.3612H17.7992C18.0199 31.3612 18.1965 31.3171 18.2406 31.1405C18.2406 31.0964 18.2847 31.0523 18.2847 30.964V25.1379C18.2847 24.8731 18.2406 24.6966 18.1965 24.6524C18.1523 24.6083 18.064 24.5642 17.8875 24.5642H16.9165C16.6958 24.5642 16.5193 24.6083 16.431 24.6966C16.3427 24.7849 16.2544 24.9614 16.2103 25.2704C16.1662 25.3586 16.122 25.5352 16.0779 25.8C15.9013 26.4179 15.7248 27.08 15.5482 27.742C15.3276 28.4041 15.151 28.9778 14.9303 29.5516C14.7979 29.8606 14.6655 30.1695 14.5331 30.5226C14.4007 30.8316 14.3124 31.0081 14.3124 31.0523C14.2241 31.273 14.4007 31.3612 14.6655 31.3612ZM14.2683 24.52V24.0787H21.3743V24.52H20.7564C20.4474 24.52 20.315 24.6083 20.315 24.7849V30.8316C20.315 31.1847 20.4474 31.3612 20.7564 31.3612H21.5508V33.7005H20.9771V33.1708C20.9771 32.906 20.7564 32.6853 20.2709 32.5088C19.7854 32.2881 19.2557 32.1557 18.5937 32.0233C17.9758 31.8909 17.402 31.8467 16.9606 31.8467C16.5193 31.8467 15.9896 31.8909 15.3717 32.0674C14.7538 32.1998 14.2241 32.3764 13.7828 32.5529C13.3414 32.7736 13.1207 32.9502 13.0766 33.1708L13.0325 33.7005H12.3704L12.5469 31.3612C13.0325 31.4054 13.518 31.0081 14.0035 30.2137C14.4448 29.4192 14.8421 28.4923 15.151 27.4331C15.46 26.3738 15.5924 25.6235 15.6365 25.1379C15.6365 24.9173 15.5924 24.7849 15.5041 24.6966C15.4158 24.6083 15.1952 24.5642 14.8862 24.5642H14.2683V24.52ZM39.3821 22.1367H28.6127C30.3341 13.5741 17.7992 4.48195 12.0173 20.5919C14.0035 1.52479 40.0883 8.41012 39.3821 22.1367ZM0.188661 31.9791H11.0022C7.29468 12.6473 16.9606 6.64465 25.8762 7.92462C12.9 4.83505 -1.84163 8.67494 0.188661 31.9791Z" fill="#00563F"/>
</svg>
