<svg width="40" height="40" viewBox="0 0 40 40" fill="none" xmlns="http://www.w3.org/2000/svg">
<path fill-rule="evenodd" clip-rule="evenodd" d="M2.70636 9C1.78609 9 0.866089 9.16228 0 9.54127V23.0192C3.73473 24.5346 7.95681 22.6941 9.47227 18.9596C10.9877 15.2246 9.14746 11.0028 5.41273 9.54127C5.02052 9.39433 4.6172 9.26958 4.20755 9.17708C3.71306 9.06502 3.20984 9 2.70636 9ZM19.9729 9.05392C15.9675 9.05392 12.7199 12.3016 12.7199 16.3072C12.7199 20.3123 15.9675 23.5599 19.9729 23.5599C23.9783 23.5599 27.2259 20.3123 27.2259 16.3072C27.2259 12.3016 23.9783 9.05392 19.9729 9.05392ZM0 26.2668H40V31.7335H0V26.2668ZM38.4592 9.10043C38.0559 9.03172 37.6478 9 37.2397 9C36.3195 9 35.3994 9.21672 34.4792 9.54127C30.7444 11.0567 28.9581 15.2786 30.4738 19.0135C31.9893 22.7485 36.2114 24.5346 39.9461 23.0192V9.54127C39.464 9.33037 38.9653 9.18659 38.4592 9.10043Z" fill="#FDA329"/>
</svg>
