<?xml version="1.0" standalone="no"?>
<!DOCTYPE svg PUBLIC "-//W3C//DTD SVG 20010904//EN"
 "http://www.w3.org/TR/2001/REC-SVG-20010904/DTD/svg10.dtd">
<svg version="1.0" xmlns="http://www.w3.org/2000/svg"
 width="206.000000pt" height="206.000000pt" viewBox="0 0 206.000000 206.000000"
 preserveAspectRatio="xMidYMid meet">

<g transform="translate(0.000000,206.000000) scale(0.100000,-0.100000)"
fill="#000000" stroke="none">
<path d="M130 1200 l0 -860 910 0 910 0 0 860 0 860 -910 0 -910 0 0 -860z
m1698 0 l2 -740 -787 2 -788 3 -3 730 c-1 402 0 735 2 740 2 7 272 9 787 8
l784 -3 3 -740z"/>
<path d="M340 1245 l0 -615 297 0 296 0 66 -27 c78 -32 231 -43 324 -23 133
27 285 138 341 247 56 112 71 241 41 358 -51 196 -226 339 -441 361 l-64 7 0
153 0 154 -430 0 -430 0 0 -615z m808 410 l-3 -155 60 0 c258 0 465 -201 465
-451 0 -279 -302 -497 -585 -424 -33 9 -78 25 -101 35 -37 18 -63 20 -317 20
l-277 0 0 565 0 565 380 0 381 0 -3 -155z"/>
<path d="M445 1245 l0 -515 213 0 214 0 -39 44 c-84 96 -124 227 -103 345 16
91 52 162 122 237 l60 64 -28 11 c-16 7 -62 14 -101 17 l-73 4 0 49 0 49 190
0 190 0 0 105 0 105 -322 0 -323 0 0 -515z"/>
<path d="M880 1486 c25 -7 55 -18 66 -24 17 -9 34 -7 80 9 33 12 61 23 63 25
2 2 -54 4 -125 3 -121 -1 -126 -2 -84 -13z"/>
<path d="M1095 1443 c-68 -18 -68 -17 -7 -80 174 -178 174 -429 0 -607 -32
-33 -58 -61 -58 -61 0 -1 17 -7 38 -13 240 -71 488 66 541 299 16 68 13 123
-10 192 -55 169 -217 279 -408 276 -42 -1 -85 -4 -96 -6z"/>
<path d="M907 1341 c-47 -44 -117 -150 -117 -179 0 -5 19 10 43 33 91 92 230
81 303 -24 21 -29 24 -31 19 -11 -11 37 -44 100 -73 138 -24 31 -98 92 -113
92 -4 0 -32 -22 -62 -49z"/>
<path d="M1150 972 c0 -21 -55 -75 -95 -93 -84 -39 -192 -12 -240 59 -34 50
-31 24 4 -46 30 -59 110 -147 144 -158 39 -12 152 109 182 195 8 25 13 47 10
49 -3 3 -5 0 -5 -6z"/>
<path d="M150 188 l0 -103 67 3 c79 4 93 13 93 58 0 41 -29 64 -82 64 -31 0
-38 4 -38 20 0 18 7 20 56 20 47 0 55 3 52 18 -3 14 -16 18 -76 20 l-72 3 0
-103z m115 -43 c0 -16 -8 -21 -37 -23 -35 -3 -38 -1 -38 23 0 24 3 26 38 23
29 -2 37 -7 37 -23z"/>
<path d="M393 278 c-9 -12 -73 -173 -73 -184 0 -14 40 0 45 16 5 16 15 20 50
20 35 0 45 -4 50 -20 6 -18 45 -29 45 -12 0 9 -63 163 -73 180 -5 6 -14 12
-21 12 -8 0 -18 -6 -23 -12z m35 -73 c17 -37 15 -45 -13 -45 -26 0 -29 9 -19
48 8 29 18 28 32 -3z"/>
<path d="M534 277 c-3 -8 -4 -53 -2 -102 3 -75 6 -89 21 -91 14 -2 17 6 17 42
l0 44 45 0 45 0 0 -40 c0 -34 3 -40 20 -40 20 0 21 5 18 97 -3 84 -6 98 -20
101 -15 3 -18 -4 -18 -37 l0 -41 -45 0 -45 0 0 40 c0 29 -4 40 -15 40 -9 0
-18 -6 -21 -13z"/>
<path d="M740 190 c0 -82 3 -100 15 -100 11 0 15 11 15 40 0 53 21 53 45 0 14
-30 24 -40 42 -40 23 0 23 0 7 33 -9 17 -23 39 -30 48 -12 13 -12 20 2 48 9
18 22 35 30 38 16 6 19 33 3 33 -23 0 -47 -21 -57 -50 -16 -45 -42 -39 -42 10
0 29 -4 40 -15 40 -12 0 -15 -18 -15 -100z"/>
<path d="M1016 269 c-14 -11 -26 -25 -26 -30 0 -15 39 -10 66 8 24 15 26 15
46 -4 24 -25 17 -43 -18 -43 -15 0 -24 -6 -24 -15 0 -10 10 -15 30 -15 31 0
39 -17 18 -38 -18 -18 -56 -14 -69 7 -12 18 -49 18 -49 -1 0 -19 50 -58 75
-58 73 0 118 66 96 141 -20 67 -91 91 -145 48z"/>
<path d="M1210 212 c0 -71 -2 -81 -22 -95 -18 -12 -20 -18 -11 -28 9 -9 18
-10 36 -2 26 12 37 47 37 119 0 42 1 44 30 44 l30 0 0 -80 c0 -74 2 -80 20
-80 20 0 21 5 18 98 l-3 97 -67 3 -68 3 0 -79z"/>
<path d="M1397 284 c-4 -4 -7 -49 -7 -101 0 -90 1 -93 23 -93 16 0 31 16 57
58 l35 57 3 -57 c3 -50 6 -58 22 -58 19 0 20 8 20 100 0 91 -2 100 -19 100
-12 0 -32 -22 -57 -62 l-39 -63 -5 59 c-5 55 -16 76 -33 60z"/>
<path d="M1587 284 c-17 -17 -5 -34 23 -34 l30 0 0 -80 c0 -73 2 -80 20 -80
18 0 20 7 20 80 l0 80 31 0 c24 0 30 4 27 18 -3 14 -16 18 -74 20 -38 1 -73 0
-77 -4z"/>
<path d="M1803 273 c-3 -10 -21 -55 -39 -100 l-32 -83 23 0 c14 0 25 7 28 20
7 29 82 29 97 0 13 -25 40 -26 40 -2 -1 9 -16 53 -35 97 -25 60 -39 81 -54 83
-13 2 -23 -3 -28 -15z m50 -105 c-2 -5 -13 -8 -24 -8 -21 0 -25 21 -8 52 11
21 12 21 24 -8 7 -16 10 -32 8 -36z"/>
</g>
</svg>
