<svg width="40" height="40" viewBox="0 0 40 40" fill="none" xmlns="http://www.w3.org/2000/svg">
<path d="M21.5829 0.504202L35.7504 8.67102C36.9082 9.34329 37.5556 10.4762 37.5556 11.8207V28.1668C37.5556 29.5114 36.8833 30.6443 35.7504 31.3165L21.5954 39.4958C20.4376 40.1681 19.118 40.1681 17.9602 39.4958L3.80517 31.2792C2.64737 30.6069 2 29.474 2 28.1419V11.7958C2 10.4513 2.64737 9.31839 3.80517 8.64612L17.9726 0.504202C19.1055 -0.168067 20.4251 -0.168067 21.5829 0.504202Z" fill="#EE7C00"/>
<path d="M21.0479 6.3307L30.9701 12.0699C31.7793 12.5305 32.2399 13.3397 32.2399 14.261V25.7145C32.2399 26.6357 31.7793 27.4449 30.9701 27.9056L21.0479 33.6198C20.2387 34.0805 19.3174 34.0805 18.5082 33.6198L15.9436 32.1384C15.2713 31.7898 15.483 31.0304 15.9436 30.8187C19.2054 28.9264 22.492 27.0465 25.7413 25.1542C26.6003 24.6687 26.8991 24.1085 26.924 22.9756V20.3861C26.8742 19.6516 26.1646 19.1163 25.3056 19.6267C20.3632 22.515 15.4083 25.3783 10.4659 28.2292C9.8185 28.6276 9.63176 28.5031 9.17113 28.2292C7.39086 27.1835 7.34106 26.6855 7.34106 24.8056C7.34106 24.3948 7.47801 24.2703 7.73944 24.0711C12.7566 21.158 17.7986 18.2697 22.8157 15.3565C23.8365 14.8212 23.5129 13.7381 22.8157 13.4891L20.637 12.2442C19.915 11.8084 19.2303 11.6217 18.2841 12.2193C15.0473 14.0867 11.8104 15.9666 8.54866 17.834C7.87639 18.2324 7.32861 17.8091 7.32861 17.1866V14.261C7.32861 13.3397 7.78924 12.5305 8.59845 12.0699L18.5206 6.3556C19.3174 5.87007 20.2387 5.87007 21.0479 6.3307Z" fill="white"/>
</svg>
