<svg
  width="20"
  height="20"
  viewBox="0 0 19 16"
  fill="none"
  xmlns="http://www.w3.org/2000/svg"
>
<g clipPath="url(#clip0_5_3084)">
<path
      fill-rule="evenodd"
      clip-rule="evenodd"
      d="M4.04596 0.535447L0.889564 7.16547C0.877553 7.19013 0.873746 7.21799 0.878702 7.24497C0.883657 7.27194 0.897113 7.29663 0.917104 7.31541L9.44178 15.4841C9.466 15.5073 9.49825 15.5203 9.5318 15.5203C9.56535 15.5203 9.5976 15.5073 9.62181 15.4841L18.1465 7.31592C18.1665 7.29714 18.1799 7.27245 18.1849 7.24548C18.1899 7.2185 18.186 7.19064 18.174 7.16598L15.0176 0.535957C15.0074 0.513691 14.9911 0.494828 14.9704 0.481624C14.9498 0.46842 14.9258 0.461432 14.9014 0.461497H4.16327C4.13866 0.461191 4.1145 0.46801 4.09368 0.481131C4.07287 0.494253 4.0563 0.513117 4.04596 0.535447Z"
      fill="#50AF95"
    />
<path
      fill-rule="evenodd"
      clip-rule="evenodd"
      d="M10.627 7.84652C10.5658 7.85111 10.2496 7.86997 9.54424 7.86997C8.98324 7.86997 8.58492 7.85315 8.44518 7.84652C6.27717 7.75114 4.65894 7.37374 4.65894 6.92188C4.65894 6.47002 6.27717 6.09313 8.44518 5.99623V7.47064C8.58696 7.48084 8.99292 7.50481 9.55393 7.50481C10.2271 7.50481 10.5642 7.47676 10.6249 7.47115V5.99725C12.7884 6.09364 14.403 6.47104 14.403 6.92188C14.403 7.37272 12.7889 7.75012 10.6249 7.846L10.627 7.84652ZM10.627 5.84476V4.52538H13.6462V2.51343H5.42598V4.52538H8.44467V5.84425C5.99106 5.95696 4.14587 6.44299 4.14587 7.02541C4.14587 7.60783 5.99106 8.09336 8.44467 8.20658V12.4345H10.6265V8.20505C13.0745 8.09234 14.9166 7.60681 14.9166 7.0249C14.9166 6.44299 13.076 5.95747 10.6265 5.84425L10.627 5.84476Z"
      fill="white"
    />
</g>
<defs>
<clipPath id="clip0_5_3084">
<rect
        width="17.8824"
        height="16"
        fill="white"
        transform="translate(0.715698 0.000244141)"
      />
</clipPath>
</defs>
</svg>
