<svg width="40" height="40" viewBox="0 0 40 40" fill="none" xmlns="http://www.w3.org/2000/svg">
<path d="M25.1999 0.3C24.2999 0.2 23.1999 0 22.2999 0C18.7999 0 15.4999 0.9 12.2999 2.4C8.9999 4 6.0999 6.4 3.7999 9.2L8.2999 13.9C8.9999 12.8 9.7999 12 10.6999 11.1L8.4999 9C10.3999 7.3 12.4999 5.8 14.7999 4.9C16.8999 4 19.2999 3.4 21.7999 3.4C22.5999 3.4 23.4999 3.4 24.2999 3.5C32.1999 4.6 37.0999 12.1 35.7999 20C35.0999 24.5 32.5999 28.7 29.0999 31.8C25.5999 34.7 21.1999 36.6 16.4999 36.6C11.9999 36.6 7.4999 34.7 4.9999 31.1L8.0999 28.7C7.3999 27.9 6.8999 27 6.5999 25.9L0.399902 30.7C1.6999 33.5 3.8999 35.9 6.6999 37.7C9.2999 39.2 12.4999 40 15.9999 40C21.4999 40 26.7999 37.7 31.0999 34.1C35.1999 30.5 38.2999 25.5 39.2999 19.9C40.0999 15 38.8999 9.7 35.5999 5.7C32.9999 2.9 29.4999 0.9 25.1999 0.3Z" fill="#8C261E"/>
<path d="M12.4 18.5996H30.9C30.9 15.7996 30 13.1996 28.1 11.3996C26.4 9.69961 23.8 8.59961 20.9 8.59961C17.7 8.59961 14.6 9.89961 12.1 12.0996C9.70005 14.1996 7.80005 16.9996 7.40005 20.3996C7.30005 20.7996 7.30005 21.4996 7.30005 21.9996C7.30005 24.4996 8.10005 26.6996 9.60005 28.3996C11.1 30.0996 13.1 31.2996 15.6 31.6996C16.1 31.7996 16.8 31.7996 17.3 31.7996C20.2 31.7996 23.1 30.6996 25.5 28.9996C27.9 27.0996 29.6 24.6996 30.6 21.7996H11.9C12 22.9996 12.4 24.0996 13.1 24.9996H25.1L25 25.1996C24.9 25.2996 24.9001 25.4996 24.7001 25.4996C23.8001 26.3996 22.7 27.1996 21.5 27.7996C20.3 28.2996 19.1 28.5996 17.9 28.5996C15.8 28.5996 13.8 27.7996 12.4 26.2996C11.3 25.0996 10.8 23.4996 10.8 21.7996C10.8 21.3996 10.8 20.9996 10.9 20.4996C11.3 18.1996 12.5 16.0996 14.2 14.5996C15.9 13.0996 18.2 12.1996 20.5 12.1996C21.8 12.1996 23.0001 12.4996 24.2001 13.0996C25.3001 13.5996 26.1 14.5996 26.6 15.5996H14.8C13.7 16.2996 12.9 17.3996 12.4 18.5996Z" fill="#8C261E"/>
</svg>
