<svg version="1.1" id="Layer_1" xmlns="http://www.w3.org/2000/svg" xmlns:xlink="http://www.w3.org/1999/xlink" x="0px" y="0px"
	 width="100%" viewBox="0 0 225 225" enable-background="new 0 0 225 225" xml:space="preserve">
<path fill="#02B4C4" opacity="1.000000" stroke="none" 
	d="
M132.000000,1.000000 
	C137.354935,1.000000 142.709854,1.000000 148.703018,1.345784 
	C158.156937,3.152334 166.267563,6.326276 173.619217,11.463281 
	C196.443008,27.411518 202.127335,57.157917 186.401627,78.565399 
	C176.145935,92.526520 159.264908,97.925621 143.997589,92.127609 
	C132.458572,87.745476 126.768303,76.888458 130.232544,65.863953 
	C133.474091,55.548138 144.249039,50.079071 155.965759,52.967556 
	C159.629898,53.870861 163.137360,53.350643 164.555405,50.005493 
	C165.522003,47.725338 165.292084,44.036633 164.044754,41.872486 
	C158.057434,31.484354 144.498215,27.057882 131.622406,30.736940 
	C108.487907,37.347256 98.376358,61.831398 109.189697,85.055565 
	C122.477768,113.594803 160.541718,123.578972 187.524857,104.609863 
	C195.511871,98.995010 203.130722,96.640251 212.341370,97.480583 
	C213.662766,97.601151 215.015793,97.610641 216.334763,97.478134 
	C220.480698,97.061584 223.717911,98.483833 226.000000,102.000000 
	C226.000000,103.388893 226.000000,104.777779 225.686279,106.712448 
	C206.052750,132.932480 180.286621,144.538528 148.118378,142.122559 
	C148.295837,143.240326 148.369980,143.894348 148.505692,144.535309 
	C155.750793,178.754745 139.574997,210.187912 108.571281,221.890549 
	C104.159096,223.555969 99.529160,224.644485 95.000000,226.000000 
	C89.311958,226.000000 83.623917,226.000000 77.317642,225.653564 
	C73.979523,224.552032 71.224693,223.903580 68.545120,223.025452 
	C39.915459,213.643204 25.100649,185.571106 34.851803,159.244507 
	C42.261532,139.239380 61.634617,128.632568 80.906448,134.029465 
	C93.347763,137.513535 100.050240,148.120148 97.149132,159.733383 
	C94.337509,170.988373 83.909302,176.869843 71.536674,174.054657 
	C67.774467,173.198639 64.562607,173.690094 62.259293,176.992874 
	C59.903587,180.370789 61.570400,183.332901 63.512825,186.163818 
	C69.856789,195.409592 83.035530,199.621933 95.209427,196.326782 
	C117.741661,190.227890 128.411179,166.093674 118.564049,143.499084 
	C105.553528,113.645981 67.105057,102.777512 39.791473,122.192703 
	C31.697393,127.946190 23.981382,130.490204 14.564088,129.521500 
	C13.244911,129.385803 11.891809,129.406219 10.568275,129.518219 
	C6.076499,129.898315 2.843876,128.172882 1.000000,124.000000 
	C1.000000,122.933327 1.000000,121.866661 1.305082,120.254402 
	C20.848896,93.994461 46.587914,82.410049 78.868561,84.589027 
	C78.661087,83.344231 78.537590,82.407455 78.346451,81.484711 
	C70.989151,45.966431 89.433861,13.903983 123.182449,3.575276 
	C126.110130,2.679264 129.060287,1.856687 132.000000,1.000000 
z"/>
</svg>