<svg width="40" height="40" viewBox="0 0 40 40" fill="none" xmlns="http://www.w3.org/2000/svg">
<path d="M22.2002 6.49961L26.3002 9.79961C26.9002 8.99961 27.4002 8.29961 28.0002 7.39961L23.9002 4.09961C23.4002 4.99961 22.8002 5.79961 22.2002 6.49961ZM35.9002 13.4996C35.4002 14.3996 34.8002 15.1996 34.3002 15.8996L38.4002 19.1996C39.0002 18.3996 39.5002 17.6996 40.0002 16.7996L35.9002 13.4996Z" fill="#B4241C"/>
<path d="M19.8999 9.2L23.9999 12.5C24.6999 11.8 25.2999 11.2 25.9999 10.3L21.7999 7C21.2999 7.9 20.5999 8.6 19.8999 9.2ZM33.7999 16.4C33.0999 17.2 32.4999 17.9 31.7999 18.6L35.8999 21.9C36.5999 21.2 37.1999 20.6 37.8999 19.7L33.7999 16.4Z" fill="#C23F31"/>
<path d="M18.5 10.4002C18 10.8002 17.5 11.1002 17 11.5002L21.2 14.8002L21.3 14.7002C22.1 14.2002 22.8 13.6002 23.6 13.0002L19.5 9.7002C19.1 9.9002 18.8 10.2002 18.5 10.4002ZM31.4 19.0002C31.1 19.3002 30.7 19.5002 30.4 19.8002C29.9 20.2002 29.4 20.5002 28.9 20.9002L33 24.2002L33.1 24.1002C33.9 23.6002 34.6 23.0002 35.4 22.4002L31.4 19.0002Z" fill="#DA8C97"/>
<path d="M13.7002 13.3004L17.9002 16.6004L20.6002 15.1004L16.5002 11.9004C15.6002 12.3004 14.7002 12.8004 13.7002 13.3004ZM28.4002 21.2004C27.6002 21.7004 26.7002 22.2004 25.6002 22.6004L29.8002 25.9004L32.5002 24.4004L28.4002 21.2004Z" fill="#EDCDCD"/>
<path d="M10 14.8996L14 18.0996C14.1 18.0996 14.2 17.9996 14.3 17.9996C15.3 17.6996 16.2 17.2996 17.2 16.7996L13 13.5996C12.1 13.9996 11.2 14.4996 10 14.8996ZM25 22.9996C24 23.4996 23.1 23.8996 22 24.2996L26 27.4996C26.1 27.4996 26.2 27.3996 26.3 27.3996C27.3 27.0996 28.2 26.6996 29.2 26.1996L25 22.9996Z" fill="#DA8D8D"/>
<path d="M7.9999 15.7998C7.3999 15.9998 6.7999 16.2998 6.3999 16.5998L10.4999 19.8998C11.3999 19.2998 12.2999 18.7998 13.3999 18.4998L9.3999 15.2998C8.8999 15.3998 8.4999 15.5998 7.9999 15.7998ZM21.2999 24.5998C20.7999 24.7998 20.3999 24.9998 19.9999 25.1998C19.3999 25.3998 18.7999 25.6998 18.3999 25.9998L22.4999 29.2998C23.3999 28.6998 24.2999 28.1998 25.3999 27.8998C25.3999 27.7998 21.2999 24.5998 21.2999 24.5998Z" fill="#C52E1A"/>
<path d="M3.6001 18.9004L7.7001 22.2004C8.4001 21.4004 9.1001 20.8004 9.9001 20.2004L5.8001 16.9004C5.0001 17.5004 4.2001 18.2004 3.6001 18.9004ZM17.8001 26.3004C17.0001 26.9004 16.3001 27.6004 15.6001 28.3004L19.7001 31.6004C20.4001 30.8004 21.1001 30.2004 21.9001 29.6004L17.8001 26.3004Z" fill="#A6201C"/>
<path d="M1.5 21.7998L5.7 24.9998C6.2 24.0998 6.8 23.2998 7.3 22.5998L3.2 19.2998C2.6 20.1998 2 20.9998 1.5 21.7998ZM15.2 28.6998C14.6 29.4998 14 30.1998 13.6 31.0998L17.7 34.2998C18.2 33.3998 18.8 32.5998 19.3 31.8998L15.2 28.6998Z" fill="#A01F1C"/>
<path d="M0 25.1004L4.1 28.4004C4.2 27.9004 4.4 27.2004 4.7 26.6004C4.9 26.2004 5.1 25.9004 5.3 25.5004L1.3 22.4004C0.8 23.3004 0.4 24.1004 0 25.1004H0ZM13.2 31.7004C12.7 32.6004 12.3 33.4004 11.9 34.5004L16 37.8004C16.1 37.3004 16.3 36.6004 16.6 36.0004C16.8 35.6004 17 35.3004 17.2 34.9004L13.2 31.7004Z" fill="#791D19"/>
<path d="M28.2002 11.1998C28.8002 10.3998 29.3002 9.6998 29.8002 8.7998L33.9002 12.0998C33.4002 12.9998 32.8002 13.7998 32.3002 14.4998C32.3002 14.3998 28.2002 11.1998 28.2002 11.1998Z" fill="#DFAF1F"/>
<path d="M25.8999 13.7996C26.5999 13.0996 27.1999 12.4996 27.8999 11.5996L31.9999 14.8996C31.2999 15.6996 30.6999 16.3996 29.9999 17.0996L25.8999 13.7996Z" fill="#F0D24F"/>
<path d="M23 16.1002C23.6 15.7002 24.1 15.4002 24.5 15.0002C24.8 14.8002 25.2 14.5002 25.5 14.2002L29.6 17.5002C28.8 18.2002 28.1 18.7002 27.3 19.2002L27.2 19.3002L23 16.1002Z" fill="#F6DA82"/>
<path d="M19.6001 17.9C20.7001 17.4 21.5001 16.9 22.4001 16.5L26.5001 19.8C25.6001 20.4 24.7001 20.9 23.8001 21.3L19.6001 17.9Z" fill="#FFF8BE"/>
<path d="M16 19.5998C17.1 19.0998 18.1 18.6998 19 18.2998L23.2 21.5998C22.2 22.0998 21.3 22.4998 20.3 22.7998C20.2 22.7998 20.1 22.8998 20 22.8998C20 22.7998 16 19.5998 16 19.5998Z" fill="#F6DE73"/>
<path d="M12.2998 21.1998C12.7998 20.8998 13.3998 20.5998 13.8998 20.3998C14.3998 20.1998 14.8998 19.9998 15.1998 19.7998L19.1998 22.9998C18.0998 23.3998 17.1998 23.8998 16.2998 24.3998C16.3998 24.3998 12.2998 21.1998 12.2998 21.1998Z" fill="#E4A922"/>
<path d="M9.5 23.5996C10.2 22.7996 10.9 22.1996 11.7 21.5996L15.8 24.8996C15 25.4996 14.3 26.0996 13.6 26.8996C13.7 26.7996 9.5 23.5996 9.5 23.5996Z" fill="#C6972C"/>
<path d="M7.5 26.4C8 25.6 8.6 24.7 9.1 24L13.2 27.3C12.6 28 12 28.8 11.6 29.7L7.5 26.4Z" fill="#C48422"/>
<path d="M10.1 33.1L6 29.8C6.4 28.8 6.8 27.9 7.2 27L11.2 30.2C11 30.5 10.8 30.9 10.6 31.3C10.5 31.9 10.2 32.6 10.1 33.1Z" fill="#B86821"/>
<path d="M30.2002 8.4002C30.7002 7.6002 31.3002 6.7002 31.6002 5.7002L35.7002 9.0002C35.3002 9.9002 34.7002 10.8002 34.4002 11.6002C34.4002 11.5002 30.2002 8.4002 30.2002 8.4002Z" fill="#D9A41F"/>
<path d="M31.8999 5.1002C32.3999 4.2002 32.6999 3.2002 32.9999 2.2002L37.0999 5.5002C36.7999 6.5002 36.3999 7.5002 35.8999 8.3002L31.8999 5.1002Z" fill="#D5931F"/>
</svg>
