<?xml version="1.0" encoding="UTF-8" standalone="no"?>
<svg
   version="1.1"
   width="595.27557pt"
   height="841.88977pt"
   id="svg4"
   viewBox="0 0 595.27557 841.88977"
   sodipodi:docname="finstar-financial-group-seeklogo.cdr"
   xmlns:inkscape="http://www.inkscape.org/namespaces/inkscape"
   xmlns:sodipodi="http://sodipodi.sourceforge.net/DTD/sodipodi-0.dtd"
   xmlns="http://www.w3.org/2000/svg"
   xmlns:svg="http://www.w3.org/2000/svg">
  <defs
     id="defs8" />
  <sodipodi:namedview
     id="namedview6"
     pagecolor="#ffffff"
     bordercolor="#000000"
     borderopacity="0.25"
     inkscape:showpageshadow="2"
     inkscape:pageopacity="0.0"
     inkscape:pagecheckerboard="0"
     inkscape:deskcolor="#d1d1d1"
     inkscape:document-units="pt" />
  <path
     d="m -23.9023,477.1349 c 2.49,-0.3299 5,-0.5499 7.5101,-0.5099 19.01,0.07 38.02,-0.04 57.03,0.0598 4.2899,-0.5199 3.7899,4.8002 3.5101,7.63 -0.5202,3.1501 -4.1202,3.0101 -6.5602,2.8701 -10.9999,0.3399 -21.9699,-1.69 -32.9499,-0.2101 -3.0099,0.98 -6.74,-3.3599 -8.9099,0.0502 -1.6401,3.0098 -1.11,6.6498 -1.2101,9.9697 0.4399,7.4401 -0.6199,14.9701 0.7699,22.3501 11.7601,0.5099 23.54,-0.0199 35.3001,0.1601 5.19,-0.7001 5.9899,8.6599 1.0001,9.44 -4.3002,0.5899 -8.64,0.1499 -12.9501,0.1599 -5.2401,-0.1698 -10.5199,0.5102 -15.7099,-0.4 -2.66,-0.5 -5.3002,0.2302 -7.8902,0.7302 -0.2999,2.16 -0.61,4.32 -0.5698,6.52 0.2599,12.1399 0.43,24.2898 -0.1001,36.43 -6.0301,0.11 -12.0801,0.4198 -18.0901,-0.0902 -0.4499,-31.71 -0.1599,-63.4399 -0.18,-95.1599 z m 401.15,-127.6001 c -4.2599,3.3602 -8.89,6.2101 -13.2999,9.36 0.04,-0.6599 0.1199,-1.9899 0.1599,-2.6499 -0.26,-13.9399 -2.7,-28.3901 -10.69,-40.13 -7.93,-12.57 -22.36,-19.4701 -36.73,-21.4101 -9.6599,-0.83 -19.4099,-0.6599 -28.9899,0.9 0.11,-0.4399 0.33,-1.3099 0.44,-1.7498 11.7099,-12.9201 26.9299,-23.4902 44.3599,-26.5802 14.4102,-2.7199 29.45,0.6301 42.15,7.6901 18.8601,10.44 33.1002,27.1301 45.83,44.1499 -1.19,1.3802 -2.5398,2.63 -4.0799,3.6 -13.1201,8.8302 -25.84,18.28 -39.1501,26.82 z m -59.4199,-44.8299 c 15.2601,12.52 27.08,30.7301 28.59,50.76 l 0.4799,0.03 c 0.68,14.55 -3.56,29.0599 -11.48,41.2299 -10.6399,16.67 -25.8699,29.8701 -41.8598,41.2302 -13.3101,-18.7302 -26.3001,-37.6801 -39.24,-56.66 17.5898,0.5199 36.5298,-3.35 49.57,-15.9701 l 0.1599,0.61 -0.07,-0.9499 c 7.5999,-6.8601 11.7799,-16.77 13.82,-26.64 2.2099,-11.1101 1.1999,-22.4801 0.03,-33.6401 z m -58.3001,25.3601 c 8.6,3.6697 17.7301,6.0698 27.1202,6.2498 7.3698,0.47 14.68,-0.75 22.0198,-1.1999 -3.0098,4.2401 -6.8499,7.7998 -10.84,11.09 l 0.4402,0.72 c -0.6602,0.11 -1.3101,0.2299 -1.9601,0.36 -12.0101,10.3099 -27.6401,17.3101 -43.7001,16.5901 -15.1299,0.6899 -29.4298,-6.0203 -41.5,-14.5902 -10.23,-7.6799 -19.52,-16.6799 -27.1698,-26.9399 l -0.29,-0.0199 c -2.4902,-3.5702 -5.4901,-6.7802 -7.7301,-10.5202 0.04,-0.36 0.11,-1.0698 0.1401,-1.4298 16.91,-12.0901 34.12,-23.7702 51.19,-35.6502 1.47,-1.15 3.0398,-2.1799 4.7599,-2.8999 -0.61,14.87 2.4001,30.0399 10.22,42.84 0.1199,0.0599 0.37,0.1698 0.5001,0.2299 4.1499,6.2 9.86,11.2799 16.4698,14.7402 z M -25.2422,475.1949 c 23.8501,0.0899 47.7,0.07 71.5501,0.0198 0.0298,4.4303 0.04,8.8603 -0.0502,13.2903 -16.6498,0.0297 -33.3,0.01 -49.9498,0 -0.11,9.6999 -0.0301,19.4 -0.07,29.09 13.3398,0 26.6898,0.0997 40.03,-0.0301 0.32,4.3399 0.18,8.7001 0.18,13.0499 -5.26,0.8702 -10.6101,0.6301 -15.92,0.47 -4.2902,-0.5698 -8.6201,0.71 -12.92,-0.1299 -3.78,0.33 -7.5702,0.2999 -11.3502,0.25 -0.0499,14.3601 0.0201,28.7201 -0.0198,43.0799 -7.1601,-0.0499 -14.3201,-0.08 -21.4801,-0.01 -0.01,-33.0298 -0.01,-66.05 0,-99.0799 z m 92.2101,0 c 7.1399,0.0799 14.2898,-0.01 21.4399,0.0198 0.0201,33.0203 -0.0099,66.0303 0.0201,99.0502 -7.1501,-0.0201 -14.3002,-0.0502 -21.45,0.0301 -0.1302,-33.0401 -0.11,-66.0702 -0.01,-99.1001 z m 122.3799,0.1701 c 6.19,-0.2602 12.39,-0.1301 18.5899,-0.0802 -0.0998,33.0001 -0.0499,65.9902 -0.0198,98.9801 -6.8001,0 -13.6001,-0.0799 -20.3902,0.0199 -9.62,-16.2599 -19.8,-32.19 -29.0699,-48.6599 l -0.2999,0.0301 c -4.9201,-8.7001 -10.2702,-17.1403 -15.3502,-25.74 -0.6698,-1.1401 -1.4799,-2.1801 -2.41,-3.1003 -0.3098,25.6301 0.2002,51.2703 -0.2698,76.8901 l 0.86,0.3002 c -6.2901,0.5298 -12.6102,0.0399 -18.9,0.2698 0.01,-33.0199 0.01,-66.0398 -0.0102,-99.0601 8.4702,0.0902 16.95,0.0502 25.42,0.0403 l 0.0601,0.9998 0.7299,0.0501 c 10.37,17.8501 21.1201,35.4901 31.6502,53.25 2.7298,5.01 6.19,9.61 8.5898,14.8099 0.3802,0.0201 1.1501,0.0502 1.5401,0.07 l -0.5899,-0.4598 c -0.2202,-22.8603 0.0899,-45.7401 -0.1301,-68.61 z m 265.3501,-0.1001 c 8.1399,-0.07 16.27,0.0199 24.4099,-0.0502 11.2099,31.5803 22.15,63.2603 33.3601,94.8501 0.4899,1.3802 0.7699,2.81 1.0599,4.25 -7.31,-0.1599 -14.62,0.0102 -21.92,-0.1298 -2.1399,-8.3602 -5.4199,-16.38 -7.78,-24.6801 -12.5101,0.0498 -25.02,0.03 -37.5301,0.01 -2.8398,8.21 -5.3198,16.5501 -8.0598,24.7901 -6.8601,-0.11 -13.7202,-0.0499 -20.5801,-0.0499 4.1899,-12.92 9.5499,-25.4401 14.1701,-38.2102 7.64,-20.2498 15.34,-40.4901 22.87,-60.7799 z m 122.75,12.9399 c -6.4902,-0.1698 -12.9801,0.1701 -19.4601,-0.18 0.0799,10.7501 -0.0799,21.49 0.1001,32.2401 8.2998,-0.3299 16.7499,0.72 24.9199,-1.22 4.6599,-1.3099 9.25,-4.2999 11.0001,-9.0099 2.1898,-5.7002 1.62,-13.0502 -3.05,-17.3702 -3.7001,-3.2499 -8.75,-4.2199 -13.51,-4.46 z m -190.1202,1.76 c 0.5902,3.9699 0.3401,8 0.3702,12.0101 -0.0102,24.09 -0.0502,48.1899 0.04,72.2801 -6.5501,-0.0802 -13.0902,0.11 -19.63,-0.0802 -0.4101,-0.1698 -1.2401,-0.51 -1.65,-0.6801 l -0.4402,0.1503 c -0.2999,-23.5602 -0.04,-47.1801 -0.1199,-70.7601 -0.11,-4.5301 0.36,-9.0899 -0.44,-13.5701 -9.3999,0.11 -18.7999,0.0301 -28.1999,0.0502 -0.07,-4.7001 -0.0502,-9.39 -0.0402,-14.07 26.3401,-0.1701 52.6802,-0.0102 79.02,-0.0902 0.0402,4.7401 0.0601,9.4901 -0.04,14.2299 -9.5499,-0.18 -19.0899,0.0502 -28.6398,-0.1199 z m 213.4202,37.69 c -1.4202,1.41 -3.3001,2.89 -2.27,5.15 7.8899,13.65 15.2898,27.6001 22.8798,41.4301 -7.9398,0.07 -15.8899,0.03 -23.83,0.0201 -1.5298,-3.4702 -3.3999,-6.7802 -4.89,-10.26 -4.9998,-10.2101 -10.09,-20.3701 -14.87,-30.67 -6.5699,-0.1701 -13.14,-0.07 -19.7099,-0.07 -0.0601,13.6598 0,27.3299 -0.01,40.9898 -7.3202,0.04 -14.6401,-0.0598 -21.9501,0.0601 -0.0799,-32.65 0.0499,-65.2901 -0.0601,-97.9299 l 0.2401,-1.2702 c 16.4801,0.2202 32.9701,-0.2399 49.4501,0.4101 8.5499,0.9 17.4898,3.3299 23.8499,9.44 6.7601,7.02 8.5,17.6899 5.87,26.8699 -2.0999,7.1801 -7.8801,12.96 -14.6999,15.83 z m -366.99,20.1101 c 6.4298,-0.9901 12.64,-3.1901 19.16,-3.6901 1.6599,5.7402 4.8098,11.3601 10.15,14.4102 6.66,3.96 14.8799,4.39 22.39,3.2998 5.47,-0.7699 10.8198,-3.7998 13.4399,-8.7899 1.4,-3.6301 1.1999,-7.85 -1.22,-11.0101 -3.0399,-4.2199 -8.2001,-5.86 -12.8501,-7.6399 -10.3699,-3.49 -21.2,-5.7901 -31.0699,-10.6401 -2.7701,-1.5299 -5.7501,-3.1598 -7.6,-5.7799 -4.7999,-4.2199 -7.81,-10.54 -7.24,-16.99 -0.47,-9.3101 6.2201,-17.3001 13.9099,-21.7001 10.2002,-5.9598 22.4501,-6.4899 33.9401,-5.4799 6.33,1.0998 13.0799,2.2799 18.2299,6.4199 6.62,3.5402 11.3601,10.3601 13.6202,17.46 -6.16,1.5199 -12.3101,3.0901 -18.3802,4.9501 -2.3998,-5.21 -5.68,-10.44 -10.94,-13.13 -5.76,-2.9801 -12.4699,-2.3899 -18.7098,-1.8499 -5.3101,1.8 -10.98,6.1098 -10.62,12.3199 -0.07,4.21 3.3199,7.34 6.84,9.04 13.9799,6.6399 30.0198,8.13 43.2799,16.4299 6.9699,4.35 12.07,12.1201 11.78,20.5302 0.2401,8.06 -4.2801,15.4199 -10.2699,20.4899 h -0.3802 c -8.0699,7.0101 -19.22,9.11 -29.6098,9.3901 -7.0501,0.1698 -14.15,-0.0802 -21.03,-1.73 -7.81,-2.1801 -15.4,-6.1401 -20.4001,-12.71 -2.98,-4.03 -5.97,-8.4702 -6.4199,-13.6001 z m -118.73,82.74 c 3.75,0.1199 7.5198,0.1199 11.27,-0.0301 -1.9902,-4.18 -3.81,-8.4399 -5.65,-12.6899 -2.2402,4.07 -3.7001,8.5 -5.62,12.72 z m 3.46,-21.8501 c 1.4199,-0.01 2.8298,0 4.25,0.01 3.4999,8.9401 7.8899,17.5201 11.5699,26.3899 1.62,4.1103 4.1099,7.9302 4.97,12.3101 -1.9999,-0.1199 -3.97,-0.3799 -5.91,-0.8598 -1.4601,-3.6601 -3.1799,-7.2102 -4.61,-10.8802 -5.2101,-0.0598 -10.4099,0.0802 -15.6101,-0.14 -1.98,3.5101 -3.1198,7.4001 -4.9099,11.0001 -1.8901,0.28 -3.81,0.2001 -5.7101,0.22 4.8702,-12.8501 10.62,-25.38 15.9602,-38.0501 z m 171.9899,9.0601 c -1.81,4.21 -3.86,8.36 -4.9201,12.8398 3.6,0.0301 7.2,0.0102 10.8,-0.0498 -2.0498,-4.2299 -3.78,-8.6001 -5.8799,-12.79 z m -2.0101,-9.0799 c 1.3901,0.01 2.7902,0.0298 4.2001,0.0598 5.3201,12.6 11.2799,24.9301 16.6099,37.5301 -0.33,0.33 -0.9998,0.9899 -1.33,1.3199 -1.3198,-0.7799 -2.77,-1.0999 -4.3399,-0.9499 -1.65,-3.67 -3.3599,-7.31 -4.96,-11.0002 -5.1401,-0.0297 -10.2901,0.0902 -15.4199,-0.1099 -2.0401,3.5002 -3.24,7.3902 -5.08,10.9902 -1.4202,1.2699 -3.6,0.5 -5.29,0.8798 0.0598,-1.2098 0.0998,-2.4499 0.6398,-3.5498 4.9802,-11.73 10.1301,-23.3901 14.97,-35.17 z m 198.5902,5.8399 c -7.9302,2.16 -12.1802,12.1499 -8.4501,19.4301 3.49,7.9699 14.5899,10.62 21.56,5.6398 6.74,-4.1 8.2999,-14.29 3.24,-20.3 -3.6201,-5.04 -10.62,-6.52 -16.3499,-4.7699 z m -15.7102,11.42 c 0.8002,-8.28 7.3301,-15.4301 15.4301,-17.17 5.7901,-0.8201 12.13,-0.47 17.0501,3.06 9.7798,6.0701 11.2899,21.48 3.14,29.5001 -5.8102,5.7699 -14.87,7.3398 -22.5601,4.9998 -8.43,-2.8299 -13.8799,-11.5799 -13.0601,-20.3899 z m -475.38,-16.7602 c 6.7502,-0.0297 13.5,0.0202 20.2601,0.0403 0.0099,1.51 0.0399,3.0299 0.0601,4.5499 -5.0202,0.2599 -10.1101,-0.4799 -15.05,0.57 0.1298,3.31 0.1298,6.6399 0.0998,9.97 4.9702,0.0701 9.9402,0 14.9102,0.0499 -0.0102,1.6901 -0.0201,3.3801 -0.0201,5.0902 -4.9799,-0.0601 -9.9601,-0.07 -14.9301,0.0199 -0.0099,5.9201 0.18,11.8601 -0.14,17.78 -1.6699,0.01 -3.3398,0.03 -5.01,0.0799 -0.4099,-12.71 -0.0898,-25.4299 -0.18,-38.1501 z m 58.2401,0.0902 c 1.9701,0.18 4.5499,-0.7699 5.9201,1.15 7.93,9.22 16.02,18.2999 23.87,27.5899 0.2299,-9.61 -0.03,-19.22 0.1398,-28.8301 1.7402,0.0202 3.49,0.0502 5.2401,0.0803 -0.0799,12.7499 0.2999,25.52 -0.2101,38.26 -2.0199,-0.4402 -4.57,-0.1902 -5.9799,-1.9902 -7.6901,-8.92 -15.2201,-18 -23.2101,-26.67 -0.1698,9.2301 -0.1298,18.4802 -0.0298,27.72 -1.9102,0.1 -3.8301,0.14 -5.75,0.14 0.03,-12.4798 0.03,-24.9698 0.0099,-37.4499 z m 128.09,0.03 c 1.9,-0.0201 3.81,-0.0201 5.7101,0.01 -0.1202,12.4599 -0.11,24.9199 -0.0102,37.3699 -1.81,0.01 -3.61,0 -5.4,-0.0499 -7.5099,-9.28 -15.6799,-18 -23.3598,-27.14 -0.4002,-0.0502 -1.19,-0.1499 -1.58,-0.2001 0.8399,9.07 0.04,18.25 0.3798,27.36 -1.7699,0.03 -3.5399,0.0601 -5.3098,0.11 0.07,-12.5399 -0.0601,-25.0699 0.07,-37.5999 1.9998,0.1001 4.14,-0.1301 5.9499,0.93 4.75,6.4299 10.4301,12.1301 15.5001,18.3201 2.6799,2.9199 5.0998,6.0899 7.9699,8.8398 0.22,-9.3098 0.07,-18.64 0.08,-27.9499 z m 34.99,0.1199 c 6.5299,-2.1999 13.3401,-0.1298 19.72,1.5701 0.2501,2.2499 0.29,4.5199 0.18,6.8001 -6.6101,-3.9801 -15.9899,-5.7501 -22.5201,-0.7302 -6.4998,4.8401 -7.1799,15.59 -1.0298,20.99 4.4799,4.3602 11.2,4.75 16.95,3.16 2.4098,-1.1698 4.8399,-2.3199 7.42,-3.0798 -0.2602,2.0299 0.25,4.32 -0.8402,6.19 -1.3498,0.79 -2.8499,1.2898 -4.2999,1.87 -1.44,0.2798 -2.87,0.5998 -4.28,0.9899 -6.62,0.68 -14.15,-0.1401 -19.0599,-5.1001 -4.42,-4.0198 -6.5701,-10.2498 -5.94,-16.1399 0.6798,-7.5901 6.41,-14.3901 13.6999,-16.5201 z m 104.76,36.8102 c 1.3399,-12.5002 -0.4099,-25.2301 0.93,-37.7402 1.8,0.2302 3.6,0.5 5.4,0.7702 0.0499,10.7197 0.0301,21.45 -0.01,32.1698 5.58,0.1301 11.16,0.0601 16.7298,0.0102 -0.04,1.5999 0.79,4.1899 -1.4499,4.6698 -2.63,0.29 -5.3,-0.0499 -7.9101,0.3702 -4.57,0.6899 -9.11,-0.68 -13.6899,-0.25 z m 68.5601,-34.24 c 7.5399,-5.1701 17.64,-4.1502 25.5498,-0.3501 -0.0399,2.0101 -0.0799,4.0099 -0.14,6.0299 -5.4198,-3.3698 -12.2998,-5.4099 -18.54,-3.21 -6.4698,2.3602 -10.6498,9.73 -8.9898,16.4999 0.7798,5.1903 5,9.3501 9.9799,10.7102 4.1199,1.5599 8.4399,0.1 12.57,-0.5899 0.11,-2.6101 0.1301,-5.2101 0.1199,-7.81 -2.4398,0.01 -4.8798,0 -7.3199,-0.0102 0,-1.7 0.0201,-3.3801 0.04,-5.0599 4.39,0 8.7899,-0.1601 13.1901,0.1199 -0.2202,5.19 0.1299,10.41 -0.2001,15.6002 -1.9001,1.8598 -4.71,1.9899 -7.1399,2.6499 -7.6402,1.8399 -16.77,0.7001 -22.36,-5.2801 -8.0101,-8.0399 -6.2801,-23.1699 3.24,-29.2998 z m 49.2798,1.6798 c -0.11,3.9201 -0.1398,7.8401 -0.0598,11.77 3.7998,0.2999 7.74,-0.1998 10.2498,-3.38 -0.15,-1.91 0.5802,-4.1598 -0.8399,-5.7299 -2.1201,-2.96 -6.1901,-2.35 -9.3501,-2.6601 z m -5.91,-4.39 c 2.1901,-0.29 4.4102,-0.57 6.6201,-0.1698 3.9101,0.2299 8.35,-0.4201 11.6101,2.2898 3.71,2.45 4.4799,7.4999 3.4299,11.5402 -0.7599,2.6098 -3.1201,4.1598 -4.89,6.0397 4.9099,5.2901 8.1201,11.8202 12.3599,17.6103 -1.9698,0.0598 -3.9699,0.07 -5.8099,0.8498 -4.5201,-4.9499 -6.6101,-11.8499 -12.13,-15.91 -1.4899,-1.19 -3.4801,-1.0599 -5.2399,-1.3499 -0.18,5.4598 -0.0802,10.9401 -0.14,16.4101 -1.8901,0.2398 -3.7701,0.5199 -5.65,0.7999 -0.3702,-12.7 -0.0201,-25.41 -0.1602,-38.1101 z m 120.8702,0.86 c 0.29,7.9801 -0.3802,15.9801 0.36,23.94 1.01,-7.9398 0.0198,-15.9499 0.32,-23.9198 z m -27.76,-0.68 c 0.6398,-0.1698 1.91,-0.5298 2.5398,-0.6999 1.1101,0.25 2.2301,0.5001 3.3602,0.76 -0.0601,7.85 -0.1,15.7 0.01,23.55 -0.1001,2.55 0.7599,5.2299 2.8499,6.84 4.65,3.4001 11.7301,3.2201 15.9401,-0.8201 2.37,-2.3698 2.3998,-5.9998 2.45,-9.1199 -0.08,-6.88 0.0198,-13.75 -0.0601,-20.63 1.6401,-0.2801 3.27,-0.5601 4.93,-0.8201 1.51,8.0399 0.3801,16.3401 0.6599,24.49 0.29,5.8801 -3.64,11.0602 -8.93,13.24 -3.67,1.08 -7.49,1.3 -11.2799,1.0001 -6.12,-1.2101 -11.8701,-5.8799 -12.35,-12.4299 -0.2599,-8.4402 0.0201,-16.9002 -0.1199,-25.3602 z m 54.83,15.99 c 2.8499,-0.19 5.79,0.2202 8.6,-0.44 4.3399,-1.26 4.94,-8.1099 1.0199,-10.19 -2.99,-1.29 -6.3201,-0.97 -9.47,-1.1698 -1.18,3.8398 -0.2001,7.88 -0.1499,11.7998 z m -5.94,21.38 c 0.0499,-12.7199 -0.11,-25.4299 0.0799,-38.1399 4.54,0.01 9.08,-0.01 13.6301,0.0499 2.4599,0.6701 5.1798,1.19 7.0399,3.1201 4.7199,4.1598 4.3999,12.5099 -0.54,16.3599 -4.25,2.8 -9.4799,2.1702 -14.29,2.16 -0.26,5.2599 0.1099,10.5301 -0.1599,15.7802 -1.4301,1.1999 -3.93,0.3398 -5.76,0.6698 z M 36.2577,608.9649 c 0.36,1.62 0.5502,3.2701 0.5502,4.94 -0.04,10.7699 -0.0301,21.5399 0,32.3098 -0.2101,0.2801 -0.62,0.8303 -0.83,1.1101 -1.6702,-0.4598 -3.38,-0.6599 -5.0902,-0.7299 0.04,-12.43 0.07,-24.8602 0,-37.2901 1.8102,-0.2299 3.6201,-0.4898 5.44,-0.72 z m 222.8802,0.47 c -0.1,12.3299 -0.1902,24.6799 0.01,37.0199 -1.9099,0.1202 -3.8301,0.22 -5.7299,0.3402 -0.0201,-12.5702 -0.0502,-25.13 0.0198,-37.7002 1.8902,0.0901 3.7902,0.18 5.7002,0.3401 z M 271.6778,219.005 c 9.29,-9.7801 19.3499,-19.0301 30.78,-26.2502 13.1599,18.83 26.3101,37.6801 39.1901,56.7 -16.9001,-0.8198 -35.06,2.81 -48.02,14.3402 -9.4901,8.3199 -14.69,20.5398 -16.27,32.8799 0.04,4.3999 -0.3501,8.7998 -0.2401,13.21 0.04,3.8401 1.1299,7.6498 0.54,11.4999 0.22,1.5202 0.39,3.05 0.5099,4.5901 -8.4798,-6.3799 -15.15,-15.0001 -20.4998,-24.1002 -8.0201,-13.9198 -10.8601,-30.9699 -6.6901,-46.5797 3.46,-13.7101 11.45,-25.7803 20.7,-36.29 z m 192.9501,273.0198 c -4.4501,14.8501 -9.65,29.4701 -14.0502,44.3401 9.5902,-0.0199 19.1701,0.0799 28.76,0 -4.78,-14.8201 -9.36,-29.7301 -14.7098,-44.3401 z"
     style="fill:#1c4f9b;fill-rule:evenodd"
     id="path2" />
</svg>
