<?xml version="1.0" standalone="no"?>
<!DOCTYPE svg PUBLIC "-//W3C//DTD SVG 20010904//EN"
 "http://www.w3.org/TR/2001/REC-SVG-20010904/DTD/svg10.dtd">
<svg version="1.0" xmlns="http://www.w3.org/2000/svg"
 width="150.000000pt" height="150.000000pt" viewBox="0 0 150.000000 150.000000"
 preserveAspectRatio="xMidYMid meet">

<g transform="translate(0.000000,150.000000) scale(0.100000,-0.100000)"
fill="#000000" stroke="none">
<path d="M330 1112 l0 -130 213 -4 c238 -4 265 -10 340 -81 73 -70 82 -104 85
-344 l3 -213 131 0 130 0 -4 238 c-4 216 -6 243 -27 300 -42 114 -109 199
-211 266 -125 83 -153 89 -422 94 l-238 4 0 -130z"/>
<path d="M330 790 l0 -130 126 0 c189 0 193 -4 194 -187 l0 -133 130 0 130 0
0 202 c0 230 -7 258 -81 321 -58 50 -94 57 -308 57 l-191 0 0 -130z"/>
<path d="M330 470 l0 -130 130 0 131 0 -3 128 -3 127 -127 3 -128 3 0 -131z"/>
</g>
</svg>
