<svg version="1.1" id="Layer_1" xmlns="http://www.w3.org/2000/svg" xmlns:xlink="http://www.w3.org/1999/xlink" x="0px" y="0px"
	 width="100%" viewBox="0 0 200 200" enable-background="new 0 0 200 200" xml:space="preserve">
<path fill="#11294D" opacity="1.000000" stroke="none" 
	d="
M138.000000,201.000000 
	C92.000000,201.000000 46.500004,201.000000 1.000006,201.000000 
	C1.000004,134.333344 1.000004,67.666679 1.000002,1.000015 
	C67.666656,1.000010 134.333313,1.000010 200.999969,1.000005 
	C200.999985,67.666649 200.999985,134.333298 201.000000,200.999969 
	C180.166672,201.000000 159.333328,201.000000 138.000000,201.000000 
M121.496826,147.297394 
	C124.916451,147.297394 128.336075,147.297394 132.162170,147.297394 
	C132.162170,134.395889 132.162170,122.141998 132.162170,110.030182 
	C139.337036,110.030182 146.071960,110.030182 152.834885,110.030182 
	C152.834885,115.119278 152.834885,119.872314 152.834885,125.204224 
	C147.573425,125.204224 142.538010,125.204224 137.672821,125.204224 
	C137.672821,132.860138 137.672821,139.926086 137.672821,146.976013 
	C150.606445,146.976013 163.165161,146.976013 175.664627,146.976013 
	C175.664627,126.758308 175.664627,106.863815 175.664627,86.687042 
	C161.049469,86.687042 146.768341,86.687042 132.256927,86.687042 
	C132.256927,83.175613 132.256927,79.951607 132.256927,76.127838 
	C146.711487,76.127838 160.918274,76.127838 174.948792,76.127838 
	C174.948792,68.270607 174.948792,61.017769 174.948792,53.846283 
	C152.871994,53.846283 131.145462,53.846283 109.339745,53.846283 
	C109.339745,85.092026 109.339745,115.996964 109.339745,147.297394 
	C113.237259,147.297394 116.870590,147.297394 121.496826,147.297394 
M50.942818,76.505531 
	C64.557480,76.505531 78.172142,76.505531 91.920410,76.505531 
	C91.920410,68.629959 91.920410,61.266552 91.920410,53.992302 
	C69.803612,53.992302 48.062817,53.992302 26.275654,53.992302 
	C26.275654,85.198212 26.275654,116.111534 26.275654,146.901306 
	C33.936985,146.901306 41.318104,146.901306 48.926624,146.901306 
	C48.926624,124.865036 48.902622,103.221725 48.973850,81.578720 
	C48.979328,79.912628 49.655659,78.248749 50.942818,76.505531 
z"/>
<path fill="#FEFEFE" opacity="1.000000" stroke="none" 
	d="
M121.000374,147.297394 
	C116.870590,147.297394 113.237259,147.297394 109.339745,147.297394 
	C109.339745,115.996964 109.339745,85.092026 109.339745,53.846283 
	C131.145462,53.846283 152.871994,53.846283 174.948792,53.846283 
	C174.948792,61.017769 174.948792,68.270607 174.948792,76.127838 
	C160.918274,76.127838 146.711487,76.127838 132.256927,76.127838 
	C132.256927,79.951607 132.256927,83.175613 132.256927,86.687042 
	C146.768341,86.687042 161.049469,86.687042 175.664627,86.687042 
	C175.664627,106.863815 175.664627,126.758308 175.664627,146.976013 
	C163.165161,146.976013 150.606445,146.976013 137.672821,146.976013 
	C137.672821,139.926086 137.672821,132.860138 137.672821,125.204224 
	C142.538010,125.204224 147.573425,125.204224 152.834885,125.204224 
	C152.834885,119.872314 152.834885,115.119278 152.834885,110.030182 
	C146.071960,110.030182 139.337036,110.030182 132.162170,110.030182 
	C132.162170,122.141998 132.162170,134.395889 132.162170,147.297394 
	C128.336075,147.297394 124.916451,147.297394 121.000374,147.297394 
z"/>
<path fill="#FEFEFE" opacity="1.000000" stroke="none" 
	d="
M50.481499,76.544685 
	C49.655659,78.248749 48.979328,79.912628 48.973850,81.578720 
	C48.902622,103.221725 48.926624,124.865036 48.926624,146.901306 
	C41.318104,146.901306 33.936985,146.901306 26.275654,146.901306 
	C26.275654,116.111534 26.275654,85.198212 26.275654,53.992302 
	C48.062817,53.992302 69.803612,53.992302 91.920410,53.992302 
	C91.920410,61.266552 91.920410,68.629959 91.920410,76.505531 
	C78.172142,76.505531 64.557480,76.505531 50.481499,76.544685 
z"/>
</svg>