<svg width="40" height="40" viewBox="0 0 40 40" fill="none" xmlns="http://www.w3.org/2000/svg">
<path d="M13.0838 0H11.8179C11.4853 0 11.2202 0.273728 11.2202 0.615692V31.5673C11.2202 32.2042 11.3999 32.7077 11.7528 33.0709C12.1026 33.4301 12.5599 33.6215 13.0752 33.6215C13.6226 33.6215 14.0916 33.4175 14.4297 33.0301C14.7599 32.652 14.9269 32.1626 14.9269 31.5673V25.961C14.9269 22.9469 16.1513 19.7986 18.567 16.6041C20.6352 13.8621 23.2423 11.5601 26.2792 9.6942C26.2792 11.6872 26.2792 34.0897 26.2792 34.9658C25.1584 34.9658 8.00767 34.9658 8.00767 34.9658C6.30647 34.9658 4.91901 33.5948 4.91901 31.9093V6.85339C4.91901 5.16789 6.30647 3.79454 8.00767 3.79454H9.30885C9.63748 3.79454 9.90807 3.51925 9.90807 3.18199V0.615692C9.90729 0.273728 9.6367 0 9.30807 0H8.0712C4.28763 0 1.20996 3.08238 1.20996 6.86829V31.8928C1.20996 35.6795 4.28763 38.7595 8.0712 38.7595H29.3937C29.7216 38.7595 29.9882 38.4866 29.9882 38.1462V7.19379C29.9882 6.65888 29.8275 6.18829 29.5129 5.79221C29.171 5.36318 28.6792 5.14122 28.0957 5.14122C26.5208 5.14122 24.2596 6.36711 21.1811 8.89498C18.6054 11.0032 16.5238 13.2746 14.9269 15.6527C14.9269 12.9625 14.9269 4.67141 14.9269 3.79533C16.0517 3.79533 33.1993 3.79533 33.1993 3.79533C34.9052 3.79533 36.2957 5.16867 36.2957 6.85418V31.9085C36.2957 33.594 34.9052 34.965 33.1993 34.965H31.9036C31.5718 34.965 31.3036 35.2403 31.3036 35.5776V38.1462C31.3036 38.4866 31.5726 38.7595 31.9036 38.7595H33.1342C36.9224 38.7595 40.0009 35.6795 40.0009 31.8928V6.86829C40.0001 3.08238 36.9224 0 33.1334 0H13.0838Z" fill="#0066B7"/>
<path d="M11.8793 1.2373H10.6087C10.2785 1.2373 10.0103 1.5126 10.0103 1.84907V32.8062C10.0103 33.4391 10.1891 33.9474 10.5475 34.3113C10.8966 34.6698 11.353 34.8603 11.8628 34.8603C12.4103 34.8603 12.8809 34.6533 13.2252 34.2658C13.5491 33.8925 13.7185 33.4007 13.7185 32.8062V27.1967C13.7185 24.1842 14.9405 21.0359 17.357 17.8398C19.426 15.101 22.0308 12.7974 25.0739 10.9323C25.0739 12.926 25.0739 35.327 25.0739 36.2054C23.9461 36.2054 6.79614 36.2054 6.79614 36.2054C5.09102 36.2054 3.7067 34.8321 3.7067 33.1458V8.09227C3.7067 6.40676 5.09102 5.03263 6.79614 5.03263H8.09811C8.42909 5.03263 8.69576 4.75812 8.69576 4.42165V1.84907C8.69576 1.5126 8.42909 1.2373 8.09811 1.2373H6.8628C3.07767 1.2373 0 4.31968 0 8.10481V33.1309C0 36.9184 3.07767 40 6.8628 40H28.1775C28.5093 40 28.7791 39.7263 28.7791 39.3859V8.43266C28.7791 7.89697 28.6206 7.42716 28.3014 7.02951C27.9579 6.60206 27.4708 6.37853 26.8865 6.37853C25.3116 6.37853 23.0496 7.60677 19.9688 10.1339C17.3954 12.2429 15.3146 14.5135 13.7178 16.8947C13.7178 14.2068 13.7178 5.90793 13.7178 5.03263C14.8417 5.03263 31.9869 5.03263 31.9869 5.03263C33.6975 5.03263 35.0842 6.40676 35.0842 8.09227V33.1458C35.0842 34.8321 33.6975 36.2054 31.9869 36.2054H30.6889C30.3595 36.2054 30.0897 36.4776 30.0897 36.8164V39.3859C30.0897 39.7255 30.3595 40 30.6889 40H31.9242C35.7109 40 38.7894 36.9184 38.7894 33.1317V8.10481C38.7894 4.31968 35.7109 1.2373 31.9242 1.2373H11.8793Z" fill="#0066B7"/>
<path fill-rule="evenodd" clip-rule="evenodd" d="M6.8627 1.85156H8.09879V4.42413H6.79682C4.76622 4.42413 3.10816 6.07356 3.10816 8.09475V33.1483C3.10816 35.1671 4.767 36.8189 6.79682 36.8189H25.6699V9.83516C22.1452 11.8313 19.2157 14.3779 16.8848 17.4666C14.3765 20.789 13.1177 24.0353 13.1177 27.1992V32.8087C13.1177 33.2495 13.0031 33.6001 12.7788 33.8581C12.5475 34.1193 12.2431 34.2495 11.8635 34.2495C11.509 34.2495 11.2118 34.1263 10.9702 33.8793C10.7294 33.6307 10.6102 33.2738 10.6102 32.8087V1.85156H31.9264C35.3759 1.85156 38.1885 4.66727 38.1885 8.1073V33.1334C38.1885 36.5734 35.3759 39.3884 31.9264 39.3884H30.6911V36.8189H31.9892C34.0206 36.8189 35.6849 35.1679 35.6849 33.1483V8.09397C35.6849 6.07277 34.0206 4.42335 31.9892 4.42335H13.1184V18.9843C14.7679 15.9984 17.1781 13.2062 20.346 10.614C23.2832 8.19828 25.4699 6.992 26.888 6.992C27.2935 6.992 27.6103 7.13396 27.8401 7.41788C28.0652 7.70416 28.1782 8.03985 28.1782 8.43358V39.3868H6.8627C3.41483 39.3868 0.599121 36.5726 0.599121 33.1318V8.10652C0.599121 4.66727 3.41483 1.85156 6.8627 1.85156Z" fill="white"/>
</svg>
