<?xml version="1.0" standalone="no"?>
<!DOCTYPE svg PUBLIC "-//W3C//DTD SVG 20010904//EN"
 "http://www.w3.org/TR/2001/REC-SVG-20010904/DTD/svg10.dtd">
<svg version="1.0" xmlns="http://www.w3.org/2000/svg"
 width="193.000000pt" height="78.000000pt" viewBox="0 0 193.000000 78.000000"
 preserveAspectRatio="xMidYMid meet">

<g transform="translate(0.000000,78.000000) scale(0.100000,-0.100000)"
fill="#000000" stroke="none">
<path d="M364 770 c-165 -17 -264 -45 -264 -75 0 -27 28 -29 165 -10 73 10
137 16 142 14 13 -5 -97 -270 -134 -324 -16 -22 -45 -48 -65 -58 -33 -16 -40
-17 -71 -3 -64 26 -96 107 -58 145 21 21 81 30 81 11 0 -5 -6 -10 -13 -10 -7
0 -18 -5 -25 -12 -16 -16 13 -48 45 -48 29 0 83 50 83 77 -1 88 -194 81 -231
-9 -16 -40 -6 -109 22 -147 29 -39 93 -71 143 -71 79 0 129 54 198 215 22 49
36 79 33 65 -15 -57 -18 -170 -5 -185 19 -23 33 -18 80 27 l42 42 14 -39 c26
-78 83 -88 137 -24 32 37 36 39 42 20 10 -33 60 -28 103 10 l35 31 19 -35 c10
-20 27 -39 38 -42 23 -7 50 10 50 31 0 10 13 14 39 14 l39 0 -14 -37 c-21 -59
-18 -139 6 -163 23 -23 53 -26 69 -6 11 13 23 66 36 158 l6 36 24 -24 c28 -28
63 -31 72 -7 4 11 -3 24 -22 38 -34 28 -26 43 26 51 65 11 90 52 51 87 -26 24
-53 21 -96 -8 -45 -30 -46 -30 -46 -5 0 34 -44 70 -85 70 -39 0 -83 -19 -105
-45 -7 -9 -19 -37 -26 -63 l-13 -47 0 45 c-1 46 -14 70 -37 70 -7 0 -36 -24
-64 -52 l-52 -53 7 38 c3 21 3 47 0 57 -9 27 -41 25 -48 -2 l-6 -22 -23 21
c-33 31 -73 44 -102 33 -13 -5 -47 -32 -77 -62 -33 -33 -54 -48 -57 -39 -2 7
10 53 28 102 17 49 29 96 26 104 -3 8 -17 15 -31 15 -23 0 -24 2 -15 20 8 16
21 20 58 20 75 0 94 8 90 39 -3 26 -4 26 -93 27 -49 1 -126 -2 -171 -6z m726
-259 c0 -15 -68 -63 -82 -59 -9 3 -2 16 19 36 30 31 63 42 63 23z m-426 -34
c13 -20 -17 -87 -39 -87 -18 0 -20 45 -5 85 11 28 27 29 44 2z m590 -8 c-31
-12 -40 -9 -20 6 10 8 24 11 29 8 6 -4 2 -10 -9 -14z m-183 -232 c-13 -13 -15
24 -3 63 6 22 7 21 10 -14 2 -21 -1 -43 -7 -49z"/>
<path d="M1893 675 c-35 -24 -89 -224 -65 -239 17 -10 32 13 67 101 47 123 46
172 -2 138z"/>
<path d="M804 650 c-37 -12 -48 -31 -30 -55 11 -16 19 -16 85 -5 72 12 96 29
73 52 -14 14 -91 19 -128 8z"/>
<path d="M1201 641 c-15 -27 -14 -46 4 -61 23 -19 47 6 43 44 -4 37 -32 47
-47 17z"/>
<path d="M1315 626 c-13 -19 -14 -29 -5 -45 14 -27 26 -26 45 3 13 19 14 29 5
45 -14 27 -26 26 -45 -3z"/>
<path d="M1406 528 c-8 -13 -20 -44 -26 -70 -15 -57 -32 -75 -50 -53 -18 22
-39 18 -52 -10 -10 -22 -8 -30 9 -53 26 -34 47 -38 81 -16 15 10 32 17 37 15
24 -8 65 -1 89 15 26 16 27 16 51 -10 39 -42 119 -28 163 29 45 56 16 71 -62
33 -39 -18 -47 -20 -61 -8 -13 11 -16 24 -11 57 7 52 0 73 -24 73 -23 0 -32
-14 -39 -59 -6 -34 -53 -82 -68 -68 -4 4 -2 31 4 60 16 75 -9 114 -41 65z"/>
<path d="M1783 378 c-23 -27 -19 -68 6 -68 25 0 43 24 39 52 -3 26 -30 35 -45
16z"/>
<path d="M1836 98 c3 -5 10 -6 15 -3 13 9 11 12 -6 12 -8 0 -12 -4 -9 -9z"/>
<path d="M60 50 c0 -38 2 -40 30 -40 37 0 42 31 8 48 l-23 11 23 0 c34 1 26
21 -8 21 -28 0 -30 -2 -30 -40z m50 -20 c0 -5 -7 -10 -15 -10 -8 0 -15 5 -15
10 0 6 7 10 15 10 8 0 15 -4 15 -10z"/>
<path d="M142 50 c0 -25 2 -37 5 -27 6 21 19 22 27 1 4 -10 15 -14 33 -12 23
2 28 8 28 32 0 39 -27 56 -53 33 -23 -21 -29 -21 -35 1 -3 9 -5 -3 -5 -28z
m88 -7 c0 -19 -30 -29 -40 -12 -5 7 -4 21 1 32 8 14 13 16 25 6 8 -6 14 -18
14 -26z"/>
<path d="M260 50 c0 -32 3 -38 13 -30 6 6 21 17 32 24 16 12 17 16 6 30 -7 9
-22 16 -32 16 -15 0 -19 -8 -19 -40z m40 10 c0 -5 -7 -10 -15 -10 -8 0 -15 5
-15 10 0 6 7 10 15 10 8 0 15 -4 15 -10z"/>
<path d="M344 82 c-35 -24 -15 -76 27 -70 16 2 25 10 27 26 6 38 -26 64 -54
44z m39 -48 c-8 -20 -37 -13 -41 10 -5 26 20 40 35 20 6 -9 9 -22 6 -30z"/>
<path d="M460 72 c-25 -20 -19 -47 12 -56 51 -13 80 41 34 62 -20 9 -29 8 -46
-6z m16 -39 c-11 -11 -19 6 -11 24 8 17 8 17 12 0 3 -10 2 -21 -1 -24z m34 12
c0 -8 -4 -15 -10 -15 -5 0 -10 7 -10 15 0 8 5 15 10 15 6 0 10 -7 10 -15z"/>
<path d="M547 84 c-10 -11 -9 -74 2 -74 6 0 12 3 15 8 7 12 -8 74 -17 66z"/>
<path d="M593 78 c-21 -28 -24 -38 -9 -32 9 4 16 -2 19 -18 2 -13 5 -5 6 20 1
45 -1 49 -16 30z"/>
<path d="M632 50 c0 -25 2 -37 5 -27 6 22 40 22 46 0 3 -10 5 2 5 27 0 25 -2
37 -5 28 -2 -10 -13 -18 -23 -18 -10 0 -21 8 -23 18 -3 9 -5 -3 -5 -28z"/>
<path d="M721 59 c-15 -44 -15 -44 19 -44 21 0 29 4 25 13 -3 8 -8 25 -11 38
-8 33 -20 30 -33 -7z m24 -9 c3 -5 1 -10 -4 -10 -6 0 -11 5 -11 10 0 6 2 10 4
10 3 0 8 -4 11 -10z"/>
<path d="M788 84 c-12 -11 -10 -74 2 -74 6 0 10 7 10 15 0 8 7 15 15 15 8 0
15 -7 15 -15 0 -8 5 -15 10 -15 6 0 10 19 10 43 -1 37 -2 40 -14 25 -16 -22
-34 -23 -38 -2 -2 9 -6 12 -10 8z"/>
<path d="M869 66 c-9 -20 -9 -29 1 -41 14 -17 46 -20 55 -5 4 6 -4 9 -17 7
-17 -1 -24 4 -26 22 -3 21 -1 23 23 19 16 -4 24 -1 22 6 -2 6 -13 12 -25 14
-15 2 -25 -4 -33 -22z"/>
<path d="M948 65 c-8 -19 -8 -28 2 -40 30 -36 82 -3 62 40 -7 15 -20 25 -32
25 -12 0 -25 -10 -32 -25z m50 -17 c-2 -13 -10 -23 -18 -23 -8 0 -16 10 -18
23 -3 17 2 22 18 22 16 0 21 -5 18 -22z"/>
<path d="M1030 51 c0 -39 2 -41 29 -41 37 0 42 8 32 46 -5 22 -14 30 -34 32
-25 3 -27 1 -27 -37z m50 13 c0 -2 -7 -4 -15 -4 -8 0 -15 4 -15 10 0 5 7 7 15
4 8 -4 15 -8 15 -10z m0 -34 c0 -5 -7 -10 -15 -10 -8 0 -15 5 -15 10 0 6 7 10
15 10 8 0 15 -4 15 -10z"/>
<path d="M1110 53 c0 -41 1 -43 30 -43 23 0 30 4 30 20 0 11 -8 24 -17 27 -10
4 -23 14 -30 22 -10 13 -12 9 -13 -26z m45 -23 c-3 -5 -10 -10 -16 -10 -5 0
-9 5 -9 10 0 6 7 10 16 10 8 0 12 -4 9 -10z"/>
<path d="M1180 51 c0 -23 5 -41 10 -41 6 0 10 15 10 34 0 19 -4 38 -10 41 -6
4 -10 -10 -10 -34z"/>
<path d="M1220 70 c8 -14 8 -26 0 -40 -6 -12 -7 -20 -1 -20 5 0 11 6 14 13 3
9 7 9 20 -2 19 -15 23 -1 5 17 -9 9 -9 15 0 24 17 17 15 33 -2 19 -10 -8 -16
-9 -21 -1 -12 19 -26 11 -15 -10z"/>
<path d="M1320 50 c0 -22 2 -40 4 -40 10 0 56 48 56 58 0 11 -23 22 -46 22
-10 0 -14 -12 -14 -40z m40 10 c0 -5 -4 -10 -10 -10 -5 0 -10 5 -10 10 0 6 5
10 10 10 6 0 10 -4 10 -10z"/>
<path d="M1390 50 c0 -39 1 -40 33 -39 23 1 26 3 10 6 -26 5 -31 23 -8 23 21
0 19 20 -2 21 -14 0 -13 2 5 9 30 13 28 20 -8 20 -28 0 -30 -2 -30 -40z"/>
<path d="M1460 50 l0 -40 50 0 50 0 0 40 c0 22 -4 40 -10 40 -5 0 -10 -16 -10
-35 0 -19 -4 -35 -10 -35 -5 0 -10 16 -10 35 0 19 -4 35 -10 35 -5 0 -10 -16
-10 -35 0 -19 -4 -35 -10 -35 -5 0 -10 16 -10 35 0 19 -4 35 -10 35 -5 0 -10
-18 -10 -40z"/>
<path d="M1580 50 c0 -39 1 -40 33 -39 30 2 30 2 5 6 -34 5 -37 20 -5 26 22 4
22 4 -3 15 -24 10 -24 11 -2 11 30 1 28 21 -3 21 -22 0 -25 -4 -25 -40z"/>
<path d="M1652 50 c0 -25 2 -37 5 -27 6 22 40 22 46 0 3 -10 5 2 5 27 0 25 -2
37 -5 28 -2 -10 -13 -18 -23 -18 -10 0 -21 8 -23 18 -3 9 -5 -3 -5 -28z"/>
<path d="M1731 51 l-1 -44 24 22 24 23 5 -24 c2 -13 5 -4 6 21 l1 44 -22 -29
-23 -28 -6 29 c-6 26 -7 24 -8 -14z"/>
<path d="M1810 50 c0 -22 4 -40 9 -40 13 0 18 19 13 52 -6 42 -22 34 -22 -12z"/>
<path d="M1857 72 c-19 -20 -23 -37 -7 -27 6 3 10 -3 10 -14 0 -12 5 -21 10
-21 6 0 10 18 10 40 0 46 -1 47 -23 22z"/>
</g>
</svg>
