<svg xmlns="http://www.w3.org/2000/svg" width="20" height="20" fill="none" viewBox="0 0 40 40"><path fill="#0D356C" d="M1.002 20.014c0 10.463 8.528 18.989 19.013 18.989 10.464 0 18.983-8.526 18.983-18.989 0-10.482-8.519-19.007-18.983-19.007C9.52.997 1.002 9.522 1.002 20.014Zm-1.002 0C0 8.977 8.971 0 20.015 0 31.029 0 40 8.967 40 20.014 40 31.033 31.029 40 20.015 40 8.97 40 0 31.033 0 20.014Z"/><path fill="#0D356C" d="M14.04 7.377c-.694.301-1.35.678-1.956 1.11 4.76-2.117 10.57-1.985 13.693-.592.983.451 1.638.734 1.936 1.28-3.237-.866-4.625-1.026-7.333-.96-3.854.065-8.98 1.59-10.937 2.757l-.867 1.082c2.823-1.666 8.085-2.757 11.005-2.851 3.257-.047 5.79.254 8.113 1.091-.135.593-.433.885-.934 1.186-9.3-1.619-14.792.291-19.755 3.528l-.366 1.073c5.54-3.801 12.325-4.855 18.868-3.717-2.342.819-5.146 1.007-7.497 1.543-2.005.461-3.074.593-5.743 1.487-2.708.885-4.308 1.797-5.31 2.964-.482.546-.848 1.186-.935 1.872-.038.405-.019.782.116 1.14.106.319.366.639.636.959-.318.546-.597 1.251-.135 2.08.202.385.732.771 1.234 1.138l-.145.405c-.067.48-.135 1.053.183 1.524.54.866 1.205 1.44 2.255 1.985.164.706.405 1.28.954 1.779 1.166 1.072 3.758 3.124 8.383 3.444 3.47.225 5.946-.819 6.88-1.28l1.138-.593c-1.937.772-5.194 1.233-7.863.998-3.874-.32-7.334-2.852-7.767-3.585.135.094.318.16.472.225 4.539 2.193 10.388 3.378 17.895.32l.616-.593c-6.822 2.118-12.787 2.052-19.195-1.298.067-.32.212-.602.5-.819 1.64.725 3.22 1.327 5.127 1.703 2.236.414 4.79.508 6.88.414 2.12-.094 6.312-1.138 8.297-2.192.184-.16.27-.433.453-.612-3.873 1.412-8.48 2.07-11.255 1.863-2.717-.206-5.126-.526-8.316-1.985a22.213 22.213 0 0 1 1.889-.64c2.1.64 4.24 1.026 6.764 1.139 2.506.113 8.365-.819 12.056-3.049.115-.32.23-.668.23-.668s-5.126 2.738-10.936 2.738c-2.718 0-4.375-.386-5.609-.687 2.737-.498 6.177-.912 10.05-1.891 1.957-.499 4.376-1.647 5.474-2.597.935-.847 1.667-1.938 1.417-3.058-.048-.301-.453-1.007-.964-1.252.482-.611.434-1.138.366-1.59-.048-.348-.212-.734-.404-1.072a3.909 3.909 0 0 0-1.234-1.101c.097-.48.03-.97-.183-1.412-.482-.819-1.34-1.524-2.823-2.277-.068-.301-.25-.687-.569-1.073-1.87-1.844-4.924-2.738-7.497-2.785h-.424c-3.006.028-5.425.706-6.928 1.402Zm14.589 4.564c.231-.254.569-.64.655-.96.646.414 1.369 1.026 1.455 1.665-.674-.254-1.407-.527-2.11-.705Zm.569 2.775c-1.09-.3-2.053-.658-3.325-.884.78-.301 1.3-.612 1.754-.979 1.021.273 1.975.612 2.756.96-.135.198-.916.922-1.157.922-.01-.009-.019-.009-.028-.018Zm1.985.8c.298-.226.568-.48.819-.771.616.527.8.884.5 1.458-.414-.3-.847-.46-1.32-.687ZM7.776 21.172c-1.686-2.325 4.163-3.99 5.28-4.329 2.844-.847 6.178-1.477 9.184-1.844 2.072-.254 3.17-.019 5.127.498-5.04 1.346-10.012 1.779-14.744 3.172-3.816 1.1-4.828 2.503-4.847 2.503Zm1.253 1.12c1.783-1.506 5.406-2.353 6.726-2.645 4.211-.913 8.133-1.487 9.752-1.891 1.956-.48 3.324-.932 4.278-1.393.049-.066 1.6.687 1.754.866-.52.433-1.253.8-2.052 1.073-2.39.865-6.746 1.778-9.049 2.126-2.322.386-4.269.678-6.832 1.364-1.484.396-2.486.847-3.218 1.327-.54-.33-.858-.423-1.36-.828Zm3.305 1.825a16.06 16.06 0 0 1 2.361-.772c4.009-.988 7.545-1.167 12.421-2.484 2.342-.621 4.057-1.28 5.127-2.098.154-.142.318-.254.481-.386 1.417 2.192-3.893 3.877-7.525 4.658a302.97 302.97 0 0 1-5.696 1.072c-2.37.386-3.14.593-4.789 1.073-.81-.339-1.628-.677-2.38-1.063Zm-4.269-.687c.366.235.636.414 1.07.64-.164.14-.366.273-.52.433-.357-.207-.723-.66-.55-1.073Zm1.899 2.098c.23-.207.52-.404.838-.611.684.32 1.388.611 2.053.912a6.6 6.6 0 0 0-1.273.621c-.549-.31-1.088-.611-1.618-.922Zm-.598 1.11c.386.254.771.461 1.166.66-.164.225-.28.404-.337.639-.578-.47-.848-.856-.829-1.299Z"/></svg>