<svg width="32" height="22" viewBox="0 0 32 22" fill="none" xmlns="http://www.w3.org/2000/svg">
<g id="Group 9">
<path id="path681" d="M31.9515 5.95999C32.3605 3.6294 30.2149 0.381836 24.3738 0.381836H9.85956C5.88165 0.381836 3.38714 3.1133 2.94407 5.86424L0 21.3409C2.5854 21.3344 19.6201 21.3409 19.5844 21.3409H20.6913C26.792 21.3068 30.3041 19.937 30.9452 15.5096C31.3704 12.5298 28.7542 10.6066 26.6168 10.1976C28.7785 9.80319 31.4061 9.06798 31.9515 5.95999Z" fill="#FBC34E"/>
<path id="path683" d="M18.3218 6.86772C16.8416 8.74225 11.4614 15.2488 10.3741 16.4838C7.94447 19.2478 2.93435 18.8355 2.90027 18.7657C2.90027 18.7625 4.70664 10.2208 5.29253 7.81229C6.89765 1.2636 12.4352 2.81354 12.4352 2.81354C12.4352 2.81354 10.9599 3.02615 9.918 4.35536C8.86145 5.70243 7.66369 12.2657 6.98691 15.3331C10.1598 11.6247 14.5094 6.84013 15.2511 5.94425C18.4126 2.11728 23.3643 2.64475 23.3643 2.64475C23.3643 2.64475 21.4362 2.91416 18.3218 6.86772Z" fill="white"/>
</g>
</svg>
