<svg width="40" height="40" viewBox="0 0 40 40" fill="none" xmlns="http://www.w3.org/2000/svg">
<path d="M19.0354 22.7781L5.65916 36.1543H0L16.2058 19.9486L19.0354 22.7781ZM40 19.0054C40 21.5348 39.0139 23.8928 37.2133 25.6935L26.7524 36.1543L20.1929 29.5949L13.6763 36.1543H8.01715L20.2358 23.9357L26.7953 30.4952L34.3837 22.8639C36.5273 20.7203 36.5273 17.2476 34.3837 15.1468C32.2401 13.0032 28.8103 13.0032 26.6667 15.1468L20.2358 21.5777L8.31726 9.61629V4L20.2358 15.9185L23.8371 12.3173C27.5241 8.63022 33.5263 8.63022 37.2133 12.3173C39.0139 14.075 40 16.4759 40 19.0054Z" fill="#609A42"/>
</svg>
