<svg version="1.1" id="Layer_1" xmlns="http://www.w3.org/2000/svg" xmlns:xlink="http://www.w3.org/1999/xlink" x="0px" y="0px"
	 width="100%" viewBox="0 0 225 225" enable-background="new 0 0 225 225" xml:space="preserve">
<path fill="#013A4B" opacity="1.000000" stroke="none" 
	d="
M131.000000,226.000000 
	C87.333336,226.000000 44.166672,226.000000 1.000006,226.000000 
	C1.000004,151.000000 1.000004,76.000015 1.000002,1.000016 
	C75.999992,1.000011 150.999985,1.000011 225.999969,1.000005 
	C225.999985,75.999985 225.999985,150.999969 226.000000,225.999969 
	C194.500000,226.000000 163.000000,226.000000 131.000000,226.000000 
M94.636612,45.844555 
	C94.636612,45.844555 94.525909,45.809631 95.052307,45.556782 
	C95.149193,44.705677 95.246071,43.854572 95.408875,42.276134 
	C95.558731,41.813557 95.708588,41.350979 96.223724,40.599224 
	C93.496880,37.534534 92.251762,37.592625 88.733459,41.137936 
	C88.733459,41.137936 88.333488,41.136341 87.596581,41.095573 
	C86.762657,41.522221 85.928741,41.948868 85.148430,42.239998 
	C85.148430,42.239998 85.280464,42.301697 84.535294,42.190693 
	C83.478424,42.972229 82.421562,43.753765 81.285164,44.377804 
	C81.285164,44.377804 81.416420,44.495716 80.671585,44.392532 
	C77.370178,46.167702 74.068779,47.942867 71.111198,49.533157 
	C71.653610,50.528587 72.292244,51.700607 72.957191,52.936867 
	C72.957191,52.936867 72.888039,52.942963 72.259926,53.020977 
	C70.441513,54.288746 68.623100,55.556515 66.817795,56.815144 
	C67.681129,58.038807 68.428886,59.098640 69.140335,60.084396 
	C69.140335,60.084396 69.216522,60.052753 68.752800,60.476265 
	C68.583908,61.064636 68.415016,61.653011 68.207291,62.117077 
	C68.207291,62.117077 68.333649,62.085526 67.761497,62.552811 
	C67.265442,64.449036 66.769379,66.345268 66.285011,68.121834 
	C66.285011,68.121834 66.403542,68.142014 65.866219,68.442520 
	C65.554329,68.953041 65.242439,69.463562 64.214951,69.936172 
	C62.915344,69.141281 61.549294,68.434517 60.338650,67.521645 
	C59.479885,66.874092 58.830978,65.948235 58.088402,65.146599 
	C57.394783,66.093910 56.701168,67.041222 55.369213,68.208183 
	C52.935295,70.873863 49.636303,73.155243 48.246155,76.284592 
	C45.281281,82.958778 43.306328,90.072716 40.503700,97.599548 
	C37.011528,104.857986 39.002621,112.451126 39.494049,119.856911 
	C39.701286,122.979897 41.810097,125.976692 43.128284,129.700943 
	C43.055931,130.144302 42.983578,130.587677 42.282467,130.994781 
	C41.186436,131.661346 40.090405,132.327927 38.440678,133.005585 
	C38.256363,133.017365 38.072044,133.029160 37.517380,132.711655 
	C37.330074,132.437622 37.175125,132.146362 37.040524,131.422989 
	C37.040524,131.422989 36.994118,131.010513 36.987511,130.987457 
	C36.987511,130.987457 37.010681,130.981094 37.410759,130.420410 
	C36.921154,129.073074 36.431549,127.725739 35.941948,126.378403 
	C33.466450,128.323517 30.990948,130.268646 27.776356,132.794510 
	C28.117716,132.863342 27.087997,132.655685 25.009314,132.236496 
	C26.771671,135.065994 28.031752,137.089081 29.273020,139.931427 
	C27.788500,145.547607 28.324247,150.867035 31.712301,156.584091 
	C33.452995,159.757706 35.193687,162.931305 37.072807,166.703156 
	C37.712818,167.471405 38.352829,168.239655 39.127644,169.554794 
	C39.414307,169.769821 39.700970,169.984833 39.879040,170.153641 
	C39.879040,170.153641 39.832947,170.262283 40.077942,170.884888 
	C41.737045,172.642059 43.396149,174.399231 45.154263,176.740829 
	C45.942997,177.338638 46.731735,177.936462 47.851215,179.105453 
	C48.604595,179.754959 49.340263,180.426437 50.114101,181.050598 
	C57.406246,186.932358 65.843178,190.100296 75.733551,191.828842 
	C77.489792,192.265732 79.246033,192.702621 81.342163,193.776993 
	C84.314522,195.423599 87.183830,196.503250 88.991508,192.142944 
	C88.991508,192.142944 88.948158,191.896484 89.603905,192.079498 
	C90.055588,192.045837 90.507271,192.012192 91.652489,192.426132 
	C103.935677,194.688614 105.084778,193.780914 104.993164,181.879288 
	C104.985497,180.883362 105.283463,179.709122 104.860168,178.934113 
	C104.244034,177.806015 103.101379,176.965500 101.850548,175.353638 
	C100.215462,172.239151 98.580383,169.124680 96.926216,165.334091 
	C95.719521,161.403107 94.512825,157.472122 93.244133,152.972107 
	C92.861191,152.587555 92.478256,152.202988 92.073357,151.365021 
	C92.073357,151.365021 91.891106,150.949265 91.996658,150.066330 
	C91.605774,144.935593 91.214897,139.804855 90.908012,133.653488 
	C90.644928,128.728729 90.553772,123.786865 90.066017,118.884460 
	C89.653084,114.734238 90.787476,112.735390 95.378471,112.942825 
	C101.304527,113.210594 107.254578,112.947647 114.092285,112.857430 
	C121.141960,113.246643 128.188049,113.817596 135.242645,113.956940 
	C139.478790,114.040604 143.728256,113.450806 147.985184,114.080376 
	C147.991562,129.628098 147.963379,145.175995 148.045303,160.723312 
	C148.056320,162.814758 148.622177,164.903275 149.165756,167.517288 
	C149.451752,168.004318 149.737762,168.491333 150.141190,169.039062 
	C150.141190,169.039062 150.204315,168.922928 150.268341,169.481232 
	C150.630905,169.875885 150.993484,170.270538 151.383698,170.483398 
	C151.383698,170.483398 151.199860,170.480515 151.275208,171.110382 
	C151.852844,171.708344 152.430466,172.306320 153.154327,173.670303 
	C158.724091,174.368378 164.280899,175.483047 169.866959,175.656448 
	C176.478256,175.861694 179.169479,173.466156 181.968643,166.581451 
	C182.316238,162.051086 182.663834,157.520706 183.505844,152.997849 
	C183.505844,152.997849 184.000610,153.000610 184.440674,152.300629 
	C184.622314,151.331757 184.961487,150.363083 184.962646,149.393997 
	C184.994629,122.686417 185.007553,95.978752 184.952957,69.271248 
	C184.950058,67.846855 184.329788,66.423721 183.511154,65.009567 
	C183.511154,65.009567 183.025558,65.024887 183.017838,64.161926 
	C182.309128,61.761425 181.600418,59.360924 180.976318,56.222210 
	C180.107712,53.783527 179.239120,51.344841 178.224747,48.390408 
	C178.008835,48.116570 177.792923,47.842728 177.604004,47.527809 
	C177.604004,47.527809 177.589020,47.480995 177.401260,46.841721 
	C175.618683,44.855602 173.836121,42.869484 171.648788,40.321388 
	C170.127274,39.527878 168.605743,38.734367 166.533615,37.405415 
	C161.184128,34.988274 156.188614,36.168037 151.239182,38.722115 
	C151.239182,38.722115 150.913254,38.949318 151.000580,38.982128 
	C151.000580,38.982128 150.921585,38.930958 150.234665,38.895378 
	C148.326324,40.579094 146.417984,42.262810 144.065155,44.338684 
	C149.956924,46.412491 149.213318,51.110931 150.017471,55.777683 
	C150.065155,56.850208 150.112823,57.922737 150.013428,59.859894 
	C150.061554,61.902348 150.109695,63.944805 150.011459,66.777039 
	C150.049545,67.844536 150.087616,68.912033 149.922409,70.850189 
	C150.001892,73.224686 150.081360,75.599190 149.793411,78.711296 
	C149.583176,81.139221 149.372940,83.567139 149.023804,86.740631 
	C149.076294,87.493614 149.128799,88.246590 148.874573,89.586029 
	C147.891922,90.001289 146.909271,90.416550 145.584229,90.162437 
	C143.700714,89.777573 141.819305,89.071289 139.933350,89.058907 
	C125.434128,88.963745 110.934006,89.012161 96.434204,88.989616 
	C94.645004,88.986839 92.856049,88.828636 90.709892,88.725250 
	C90.709892,84.228127 90.401138,80.116066 90.773026,76.066505 
	C91.592247,67.145844 92.754913,58.256725 93.594246,49.227970 
	C93.594246,49.227970 93.711937,49.038845 94.219498,48.521461 
	C94.366943,47.591389 94.514389,46.661316 94.636612,45.844555 
M63.663033,66.435089 
	C63.786411,66.118919 63.909790,65.802750 64.033173,65.486580 
	C63.889053,65.436760 63.744930,65.386940 63.600811,65.337120 
	C63.506943,65.660660 63.413078,65.984192 63.663033,66.435089 
z"/>
<path fill="#C5A943" opacity="1.000000" stroke="none" 
	d="
M181.356400,167.001984 
	C179.169479,173.466156 176.478256,175.861694 169.866959,175.656448 
	C164.280899,175.483047 158.724091,174.368378 153.040848,172.954376 
	C152.351532,171.652466 151.775696,171.066498 151.199860,170.480515 
	C151.199860,170.480515 151.383698,170.483398 151.383759,170.279449 
	C150.990631,169.691315 150.597473,169.307129 150.204315,168.922928 
	C150.204315,168.922928 150.141190,169.039062 150.138519,168.679871 
	C150.177780,167.877914 150.219727,167.435150 150.560028,166.842499 
	C151.383881,164.729416 152.412933,162.748611 152.345032,160.806152 
	C152.091721,153.558685 151.276077,146.329987 151.055115,139.082535 
	C150.813171,131.146973 151.071854,123.197075 150.927002,115.256813 
	C150.899231,113.733383 151.958206,110.541870 147.722183,111.944237 
	C146.546021,111.922798 145.762131,111.885712 145.146271,111.538239 
	C147.301712,110.632530 149.289108,110.037216 151.363541,109.415833 
	C150.556412,108.749969 149.629593,107.985367 148.627502,107.158676 
	C150.037476,106.138939 151.585922,105.577599 152.200653,104.488998 
	C159.175171,92.138130 165.884430,79.635567 173.002457,67.369606 
	C174.133911,65.419876 176.932037,64.437325 179.130463,63.388962 
	C179.536819,65.904861 179.963486,68.038284 179.975998,70.174149 
	C180.043427,81.670120 180.129089,93.168259 179.979889,104.662689 
	C179.751022,122.294571 179.262466,139.923340 179.095886,157.555435 
	C179.075714,159.692093 180.366318,161.841125 181.152405,164.351547 
	C181.289047,165.479782 181.322723,166.240875 181.356400,167.001984 
z"/>
<path fill="#C1A844" opacity="1.000000" stroke="none" 
	d="
M95.858444,40.888405 
	C95.708588,41.350979 95.558731,41.813557 95.214737,42.971100 
	C94.855705,44.380585 94.690811,45.095108 94.525909,45.809631 
	C94.525909,45.809631 94.636612,45.844555 94.413727,46.054474 
	C94.031212,47.189213 93.871574,48.114029 93.711937,49.038845 
	C93.711937,49.038845 93.594246,49.227970 93.438438,49.605270 
	C92.454071,53.932674 91.532051,57.866119 90.824165,61.837730 
	C90.162834,65.548149 89.728790,69.299080 88.908676,73.274300 
	C88.080711,76.005898 87.538780,78.495384 86.660782,81.141472 
	C85.874382,83.514503 85.424057,85.730927 84.776505,87.656906 
	C84.099091,85.649101 83.618881,83.931740 82.848473,81.176529 
	C82.036034,84.617851 81.519295,86.806656 80.641411,89.021141 
	C78.899971,90.105186 77.070946,90.885834 76.215042,92.268753 
	C71.910500,99.223724 67.860054,106.335953 63.537846,113.293152 
	C63.355301,113.193336 63.053490,112.906891 63.111740,112.473022 
	C63.003101,109.691765 62.836208,107.344391 62.679440,104.534462 
	C62.713058,100.057770 62.736557,96.043633 62.850060,91.655228 
	C62.931461,90.513947 62.922852,89.746918 63.014328,88.581001 
	C63.848728,82.835022 64.583046,77.487930 65.275948,72.123444 
	C65.234535,72.106033 65.205429,72.191040 65.434387,71.914780 
	C65.910072,70.473015 66.156807,69.307510 66.403549,68.142014 
	C66.403542,68.142014 66.285011,68.121834 66.509377,67.905151 
	C67.267044,65.820824 67.800346,63.953175 68.333649,62.085526 
	C68.333649,62.085526 68.207291,62.117077 68.468582,61.979485 
	C68.892097,61.245514 69.054306,60.649132 69.216522,60.052753 
	C69.216522,60.052753 69.140335,60.084396 69.397507,59.883011 
	C70.732468,57.435402 71.810249,55.189182 72.888039,52.942963 
	C72.888039,52.942963 72.957191,52.936867 73.219048,52.721931 
	C76.126076,49.836571 78.771248,47.166145 81.416420,44.495716 
	C81.416420,44.495716 81.285164,44.377804 81.647964,44.396790 
	C83.100670,43.711082 84.190567,43.006390 85.280464,42.301697 
	C85.280464,42.301697 85.148430,42.239998 85.476974,42.282669 
	C86.648178,41.929008 87.490837,41.532677 88.333488,41.136345 
	C88.333488,41.136341 88.733459,41.137936 89.276840,41.038269 
	C91.832962,40.921867 93.845703,40.905136 95.858444,40.888405 
z"/>
<path fill="#0A3B46" opacity="1.000000" stroke="none" 
	d="
M63.053490,112.906891 
	C63.053490,112.906891 63.355301,113.193336 63.464756,113.562790 
	C63.670837,114.283157 63.767464,114.634056 63.806808,115.377533 
	C64.078094,117.521324 64.406654,119.272545 64.740486,121.433060 
	C65.404831,124.867043 66.063911,127.891731 66.584152,131.215332 
	C66.861717,132.424301 67.278137,133.334351 67.692566,134.591187 
	C68.081642,135.997818 68.472694,137.057678 68.849396,138.449524 
	C69.186218,139.562607 69.537399,140.343674 69.906586,141.478928 
	C70.249893,142.431137 70.575211,143.029175 70.818375,143.706757 
	C70.736229,143.786316 70.889061,143.956467 70.884750,144.342621 
	C75.190369,152.210831 79.500298,159.692902 83.877121,167.409058 
	C83.944008,167.643127 84.339073,167.927658 84.450424,168.227539 
	C86.003990,169.830826 87.446198,171.134216 89.041313,172.721710 
	C91.850174,174.693253 94.493484,176.401016 97.165688,178.062332 
	C99.758141,179.674072 101.550201,179.220490 102.183228,176.002350 
	C103.101379,176.965500 104.244034,177.806015 104.860168,178.934113 
	C105.283463,179.709122 104.985497,180.883362 104.993164,181.879288 
	C105.084778,193.780914 103.935677,194.688614 91.481033,191.873810 
	C93.092918,190.627335 95.164070,190.265259 96.525986,189.084869 
	C97.117874,188.571884 96.753052,185.632339 95.949493,185.090897 
	C93.899628,183.709686 91.358498,183.057526 88.756638,181.848633 
	C85.353317,179.661484 82.207298,177.739365 79.008179,175.473206 
	C74.802460,169.286377 70.649826,163.443588 66.403030,157.284058 
	C65.803177,155.979843 65.297493,154.992355 64.810959,153.746063 
	C64.585785,153.265228 64.341446,153.043182 64.083817,152.862137 
	C64.070526,152.903122 64.154816,152.885208 64.135788,152.648331 
	C64.116753,152.411453 63.862827,152.009674 63.836182,151.671158 
	C63.151554,149.894287 62.493572,148.455917 61.824455,146.660034 
	C60.832504,143.875793 59.851685,141.449112 58.924271,138.654007 
	C58.300182,136.189636 57.622692,134.093689 56.926910,131.736618 
	C56.621338,131.291626 56.334053,131.107727 56.046791,130.957321 
	C56.046810,130.990814 56.101856,130.952637 56.109653,130.554672 
	C56.025860,129.117371 55.934273,128.078033 55.858967,126.628815 
	C55.287041,122.961830 54.270615,119.715164 54.190922,116.445656 
	C53.951920,106.640457 54.078793,96.826332 54.371445,87.043503 
	C55.010887,87.878708 55.624844,88.688362 55.618439,89.493080 
	C55.600704,91.720482 55.324226,93.945816 55.150028,96.171967 
	C55.632694,96.299286 56.115364,96.426605 56.598034,96.553925 
	C58.393044,94.369797 60.188053,92.185677 62.036404,90.271034 
	C62.313179,91.036842 62.536617,91.533165 62.760052,92.029488 
	C62.736557,96.043633 62.713058,100.057770 62.529755,104.879623 
	C62.597797,108.093849 62.825645,110.500374 63.053490,112.906891 
M100.738640,186.729355 
	C100.699806,187.125336 100.660980,187.521332 100.622154,187.917313 
	C100.773621,187.911209 101.055183,187.918045 101.057266,187.897079 
	C101.096161,187.505814 101.101845,187.111267 100.738640,186.729355 
z"/>
<path fill="#BDA747" opacity="1.000000" stroke="none" 
	d="
M54.062881,87.015694 
	C54.078793,96.826332 53.951920,106.640457 54.190922,116.445656 
	C54.270615,119.715164 55.287041,122.961830 55.662682,126.853058 
	C55.667362,128.642334 55.884609,129.797485 56.101856,130.952637 
	C56.101856,130.952637 56.046810,130.990814 56.029552,131.225159 
	C56.008480,131.637726 56.004662,131.815948 55.989853,132.391647 
	C55.967026,133.849319 55.955181,134.909546 55.608978,135.944611 
	C51.537468,133.728012 49.662174,135.153015 48.938553,139.087387 
	C48.736412,140.186417 48.172966,141.219009 47.566025,142.062393 
	C47.157497,141.272049 46.958199,140.701370 46.928627,139.950943 
	C46.796200,139.191116 46.494049,138.611069 46.125832,137.665070 
	C45.010250,135.209763 43.960735,133.120392 42.911224,131.031036 
	C42.983578,130.587677 43.055931,130.144302 43.159893,128.932495 
	C42.436256,117.778183 41.681011,107.392326 40.925762,97.006462 
	C43.306328,90.072716 45.281281,82.958778 48.246155,76.284592 
	C49.636303,73.155243 52.935295,70.873863 55.879761,68.405716 
	C55.654110,73.059059 54.917912,77.514877 54.074238,82.384171 
	C53.998798,84.203674 54.030838,85.609680 54.062881,87.015694 
z"/>
<path fill="#F8E37F" opacity="1.000000" stroke="none" 
	d="
M83.810226,167.174973 
	C79.500298,159.692902 75.190369,152.210831 71.195633,144.434570 
	C72.903046,144.139954 75.177887,144.672791 75.550415,144.056229 
	C79.126984,138.136841 82.784576,132.202072 85.583496,125.900627 
	C87.336594,121.953743 87.659546,117.371643 88.694969,113.530716 
	C89.451843,120.882622 90.137932,127.778366 90.824020,134.674118 
	C91.214897,139.804855 91.605774,144.935593 91.641823,150.665222 
	C90.866600,152.507919 90.446213,153.751709 89.731445,154.886658 
	C85.631531,155.838333 82.648514,162.595459 84.014336,166.974670 
	C83.946487,167.041626 83.810226,167.174973 83.810226,167.174973 
z"/>
<path fill="#CBB04A" opacity="1.000000" stroke="none" 
	d="
M178.959610,63.007614 
	C176.932037,64.437325 174.133911,65.419876 173.002457,67.369606 
	C165.884430,79.635567 159.175171,92.138130 152.200653,104.488998 
	C151.585922,105.577599 150.037476,106.138939 148.627502,107.158676 
	C149.629593,107.985367 150.556412,108.749969 151.363541,109.415833 
	C149.289108,110.037216 147.301712,110.632530 144.705444,111.591927 
	C141.721741,111.929176 139.346878,111.902351 137.129868,111.571045 
	C138.942337,110.631561 140.596954,109.996559 141.015778,109.835823 
	C141.015778,108.541168 141.015778,107.775597 141.387970,106.999664 
	C147.269135,105.349319 148.448273,100.875015 149.069092,95.698509 
	C149.782837,94.286179 150.399750,93.147156 151.332962,91.902153 
	C152.265594,91.261559 153.040344,90.831696 153.473816,90.176163 
	C157.890427,83.497093 162.573212,76.964973 166.536667,70.023552 
	C170.420746,63.221123 173.556808,55.991596 177.358459,48.936810 
	C177.920670,48.918118 178.145584,48.912136 178.370514,48.906158 
	C179.239120,51.344841 180.107712,53.783527 180.666992,56.719109 
	C180.274918,57.782772 180.192154,58.349537 180.048920,59.292412 
	C180.011017,60.427364 180.033585,61.186211 179.853119,62.100052 
	C179.419937,62.505898 179.189774,62.756756 178.959610,63.007614 
z"/>
<path fill="#BDA747" opacity="1.000000" stroke="none" 
	d="
M31.601398,155.783829 
	C28.324247,150.867035 27.788500,145.547607 29.482782,139.233536 
	C30.752346,135.928497 31.587578,133.197220 32.939407,130.751495 
	C34.129528,128.598343 35.839626,127.658577 37.010681,130.981094 
	C37.010681,130.981094 36.987511,130.987457 36.787487,131.070541 
	C36.742485,131.381714 36.897507,131.609818 37.052532,131.837906 
	C37.175125,132.146362 37.330074,132.437622 37.686455,133.188843 
	C38.062099,134.249405 38.268673,134.832779 38.527687,135.775665 
	C39.337025,138.134277 40.093922,140.133347 40.859848,142.479034 
	C41.510368,144.271759 42.151863,145.717880 42.835342,147.511017 
	C43.526268,149.584076 44.175213,151.310135 44.637238,153.315521 
	C42.307766,156.060730 40.165218,158.526596 37.705482,160.890823 
	C35.459328,159.120728 33.530361,157.452286 31.601398,155.783829 
z"/>
<path fill="#F1DE7E" opacity="1.000000" stroke="none" 
	d="
M75.010880,191.529068 
	C65.843178,190.100296 57.406246,186.932358 50.114101,181.050598 
	C49.340263,180.426437 48.604595,179.754959 47.809792,178.679993 
	C47.768368,178.254532 48.015076,177.973755 48.362789,177.910736 
	C49.985882,177.024338 52.085339,176.417938 52.370773,175.333908 
	C53.032665,172.820129 52.817944,170.075531 53.012794,167.295181 
	C53.066994,167.165848 52.995823,166.894577 53.274582,167.088043 
	C56.697701,170.538666 59.842068,173.795853 63.212906,177.301270 
	C65.573387,179.204895 67.555420,181.141449 69.899391,182.408386 
	C71.268295,183.148315 73.215675,182.818008 75.184967,182.970795 
	C75.655251,182.970886 75.843361,182.969360 76.273804,183.147614 
	C75.963898,184.599335 75.411659,185.871307 74.747902,187.400131 
	C74.812172,188.409225 74.911530,189.969147 75.010880,191.529068 
z"/>
<path fill="#123D43" opacity="1.000000" stroke="none" 
	d="
M62.986435,177.053040 
	C59.842068,173.795853 56.697701,170.538666 53.215141,166.749786 
	C50.969284,163.331589 49.061619,160.445068 47.098110,157.246017 
	C46.302895,155.634384 45.563526,154.335281 44.824158,153.036194 
	C44.175213,151.310135 43.526268,149.584076 42.928169,147.445740 
	C42.979012,147.033478 43.165092,146.903534 43.398582,147.102066 
	C44.705853,148.072983 45.779636,148.845383 47.816074,150.310242 
	C46.651031,146.326309 45.342255,143.699524 45.221565,141.019241 
	C45.024185,136.635803 42.647453,134.461853 39.006424,133.007355 
	C39.002136,133.002426 38.994381,132.994507 38.994377,132.994507 
	C40.090405,132.327927 41.186436,131.661346 42.596848,131.012909 
	C43.960735,133.120392 45.010250,135.209763 46.071232,137.955627 
	C46.308102,139.118332 46.533501,139.624512 46.758904,140.130707 
	C46.958199,140.701370 47.157497,141.272049 47.592415,142.369598 
	C48.363647,144.188202 48.899258,145.479935 49.490654,147.167999 
	C50.406345,149.382904 51.266254,151.201477 52.088959,153.251465 
	C52.127495,153.824921 52.334862,154.040146 52.759670,154.423645 
	C53.207493,155.188171 53.569504,155.657578 53.946560,156.075745 
	C53.961605,156.024475 53.858242,155.997467 53.855667,156.317871 
	C54.211269,157.138855 54.569443,157.639420 54.919922,158.103394 
	C54.912228,158.066803 54.840847,158.089096 54.910599,158.435623 
	C57.301682,162.484436 59.623013,166.186707 62.042175,170.199432 
	C63.096558,171.638290 64.053101,172.766724 64.984116,174.239014 
	C64.301193,175.406265 63.643814,176.229645 62.986435,177.053040 
z"/>
<path fill="#D1B64F" opacity="1.000000" stroke="none" 
	d="
M177.021194,48.949524 
	C173.556808,55.991596 170.420746,63.221123 166.536667,70.023552 
	C162.573212,76.964973 157.890427,83.497093 153.473816,90.176163 
	C153.040344,90.831696 152.265594,91.261559 151.304260,91.581139 
	C150.366592,90.577263 149.773941,89.788422 149.181290,88.999573 
	C149.128799,88.246590 149.076294,87.493614 149.444946,86.338913 
	C151.191040,85.020676 153.033218,84.402245 153.760056,83.141037 
	C160.282700,71.822662 166.609238,60.391281 173.324707,48.771736 
	C174.967010,48.193916 176.278015,47.837456 177.589020,47.480995 
	C177.589020,47.480995 177.604004,47.527809 177.435867,47.888519 
	C177.185547,48.482666 177.103363,48.716099 177.021194,48.949524 
z"/>
<path fill="#DCC45F" opacity="1.000000" stroke="none" 
	d="
M177.495148,47.161358 
	C176.278015,47.837456 174.967010,48.193916 172.952332,48.784588 
	C171.187393,49.649170 169.684006,50.018238 169.133179,50.950268 
	C163.535782,60.421413 158.093674,69.984329 152.597885,79.539230 
	C151.783890,79.016327 150.972366,78.495010 150.160843,77.973694 
	C150.081360,75.599190 150.001892,73.224686 150.273575,70.505295 
	C151.453140,70.336395 152.803986,70.914787 153.027374,70.624763 
	C154.828552,68.286270 156.584991,65.878815 158.033661,63.311081 
	C160.440567,59.044880 162.390198,54.510040 164.945511,50.341579 
	C166.997452,46.994263 169.661255,44.022038 172.053543,40.883369 
	C173.836121,42.869484 175.618683,44.855602 177.495148,47.161358 
z"/>
<path fill="#D7BD56" opacity="1.000000" stroke="none" 
	d="
M149.977127,78.342499 
	C150.972366,78.495010 151.783890,79.016327 152.597885,79.539230 
	C158.093674,69.984329 163.535782,60.421413 169.133179,50.950268 
	C169.684006,50.018238 171.187393,49.649170 172.621033,49.005951 
	C166.609238,60.391281 160.282700,71.822662 153.760056,83.141037 
	C153.033218,84.402245 151.191040,85.020676 149.514404,85.966125 
	C149.372940,83.567139 149.583176,81.139221 149.977127,78.342499 
z"/>
<path fill="#E6D16B" opacity="1.000000" stroke="none" 
	d="
M75.372215,191.678955 
	C74.911530,189.969147 74.812172,188.409225 74.747902,187.400131 
	C75.411659,185.871307 75.963898,184.599335 76.243713,182.776794 
	C75.703354,180.528931 75.435417,178.831650 75.180161,177.214661 
	C76.738907,176.653427 77.900085,176.235336 79.061272,175.817245 
	C82.207298,177.739365 85.353317,179.661484 88.611237,182.071136 
	C87.042931,185.247513 85.362740,187.936371 83.712685,190.576996 
	C85.480537,191.022537 87.214348,191.459518 88.948158,191.896484 
	C88.948158,191.896484 88.991508,192.142944 88.647537,192.276749 
	C85.869797,192.653549 83.436028,192.896530 81.002266,193.139511 
	C79.246033,192.702621 77.489792,192.265732 75.372215,191.678955 
z"/>
<path fill="#F3DB76" opacity="1.000000" stroke="none" 
	d="
M150.160492,58.995258 
	C150.112823,57.922737 150.065155,56.850208 150.263641,55.080803 
	C150.160538,49.219967 152.402496,44.125065 150.921585,38.930958 
	C150.921585,38.930958 151.000580,38.982128 151.034729,38.944115 
	C151.068893,38.906101 151.345871,38.900074 151.345871,38.900074 
	C156.188614,36.168037 161.184128,34.988274 166.584274,37.868462 
	C166.093887,38.560799 165.552856,38.790092 164.762421,38.861675 
	C163.563324,39.398502 162.268661,39.892708 161.727524,40.824524 
	C159.993515,43.810360 158.762161,47.100456 156.915207,50.005032 
	C154.910019,53.158447 152.432205,56.011330 150.160492,58.995258 
z"/>
<path fill="#E4CC66" opacity="1.000000" stroke="none" 
	d="
M165.011810,39.019386 
	C165.552856,38.790092 166.093887,38.560799 166.859589,38.136185 
	C168.605743,38.734367 170.127274,39.527878 171.851166,40.602379 
	C169.661255,44.022038 166.997452,46.994263 164.945511,50.341579 
	C162.390198,54.510040 160.440567,59.044880 158.033661,63.311081 
	C156.584991,65.878815 154.828552,68.286270 153.027374,70.624763 
	C152.803986,70.914787 151.453140,70.336395 150.375214,70.069969 
	C150.087616,68.912033 150.049545,67.844536 150.410187,66.291382 
	C155.677185,57.838566 160.582230,49.893204 165.344971,41.863449 
	C165.732056,41.210880 165.145798,39.981003 165.011810,39.019386 
z"/>
<path fill="#D9BF58" opacity="1.000000" stroke="none" 
	d="
M149.027924,89.292801 
	C149.773941,89.788422 150.366592,90.577263 150.987946,91.687119 
	C150.399750,93.147156 149.782837,94.286179 148.698181,95.716324 
	C143.076080,97.872086 142.336349,102.631485 141.015778,107.010017 
	C141.015778,107.775597 141.015778,108.541168 141.015778,109.835823 
	C140.596954,109.996559 138.942337,110.631561 136.689117,111.615845 
	C133.725143,111.937225 131.359726,111.909325 129.134827,111.581436 
	C137.380936,108.412689 136.987289,99.567383 142.184555,94.253082 
	C140.008621,93.242332 138.567078,92.572731 137.444839,91.914703 
	C138.526199,91.624069 139.288284,91.321854 140.472931,91.018562 
	C142.572540,90.955597 144.249573,90.893700 145.926620,90.831802 
	C146.909271,90.416550 147.891922,90.001289 149.027924,89.292801 
z"/>
<path fill="#012E45" opacity="1.000000" stroke="none" 
	d="
M180.109406,58.916306 
	C180.192154,58.349537 180.274918,57.782772 180.624695,57.088211 
	C181.600418,59.360924 182.309128,61.761425 183.013153,65.059250 
	C183.009460,94.967834 183.010437,123.979088 183.011414,152.990341 
	C182.663834,157.520706 182.316238,162.051086 181.662521,166.791718 
	C181.322723,166.240875 181.289047,165.479782 181.243805,164.052185 
	C181.270309,162.969315 181.308395,162.552917 181.485626,162.007843 
	C181.658661,161.757782 181.749359,161.616409 181.715042,161.519104 
	C181.635513,161.293457 181.495575,161.089127 181.365952,160.444748 
	C181.367233,157.709045 181.382690,155.404739 181.571548,152.722260 
	C181.828232,151.521164 181.983841,150.698303 181.984283,149.875351 
	C181.998688,123.173134 182.006607,96.470917 181.974136,69.768738 
	C181.972549,68.473366 181.596497,67.178452 181.371521,65.490097 
	C181.305969,64.047539 181.263718,62.998219 181.413422,61.733711 
	C181.106720,60.651119 180.608063,59.783714 180.109406,58.916306 
z"/>
<path fill="#113532" opacity="1.000000" stroke="none" 
	d="
M145.755432,90.497124 
	C144.249573,90.893700 142.572540,90.955597 140.203491,90.687180 
	C135.955307,90.369827 132.399124,90.382805 128.386139,90.376785 
	C121.001259,90.367172 114.073166,90.376549 106.683136,90.255539 
	C100.517982,90.101921 94.814766,90.078705 89.037003,89.795532 
	C88.905907,89.364372 88.849373,89.193169 88.853592,88.557304 
	C89.007797,83.072487 89.101257,78.052330 89.194710,73.032181 
	C89.728790,69.299080 90.162834,65.548149 90.824165,61.837730 
	C91.532051,57.866119 92.454071,53.932674 93.530029,49.668652 
	C92.754913,58.256725 91.592247,67.145844 90.773026,76.066505 
	C90.401138,80.116066 90.709892,84.228127 90.709892,88.725250 
	C92.856049,88.828636 94.645004,88.986839 96.434204,88.989616 
	C110.934006,89.012161 125.434128,88.963745 139.933350,89.058907 
	C141.819305,89.071289 143.700714,89.777573 145.755432,90.497124 
z"/>
<path fill="#EBD772" opacity="1.000000" stroke="none" 
	d="
M90.025833,154.995514 
	C90.446213,153.751709 90.866600,152.507919 91.589050,151.106689 
	C91.891106,150.949265 92.073357,151.365021 92.073029,151.848724 
	C92.483856,152.735336 92.894997,153.138229 93.306137,153.541138 
	C94.512825,157.472122 95.719521,161.403107 96.699036,165.919296 
	C93.944038,168.482208 91.416229,170.459915 88.888412,172.437607 
	C87.446198,171.134216 86.003990,169.830826 84.570633,168.079773 
	C84.744324,167.437851 84.888695,167.229416 85.332367,166.865204 
	C86.547318,162.604355 92.328094,160.307129 90.025833,154.995514 
M93.800148,162.762466 
	C93.680801,162.700531 93.531616,162.562439 93.449203,162.594757 
	C93.330070,162.641434 93.182655,162.810654 93.181221,162.929214 
	C93.175041,163.439667 93.217758,163.950714 93.242668,164.461548 
	C93.397507,164.458618 93.552345,164.455704 93.707184,164.452789 
	C93.772003,164.015106 93.836823,163.577438 93.800148,162.762466 
z"/>
<path fill="#ECD36D" opacity="1.000000" stroke="none" 
	d="
M164.762421,38.861671 
	C165.145798,39.981003 165.732056,41.210880 165.344971,41.863449 
	C160.582230,49.893204 155.677185,57.838566 150.483368,65.896492 
	C150.109695,63.944805 150.061554,61.902348 150.086945,59.427574 
	C152.432205,56.011330 154.910019,53.158447 156.915207,50.005032 
	C158.762161,47.100456 159.993515,43.810360 161.727524,40.824524 
	C162.268661,39.892708 163.563324,39.398502 164.762421,38.861671 
z"/>
<path fill="#D9C666" opacity="1.000000" stroke="none" 
	d="
M89.041321,172.721710 
	C91.416229,170.459915 93.944038,168.482208 96.708572,166.257355 
	C98.580383,169.124680 100.215462,172.239151 102.016891,175.677994 
	C101.550201,179.220490 99.758141,179.674072 97.165688,178.062332 
	C94.493484,176.401016 91.850174,174.693253 89.041321,172.721710 
z"/>
<path fill="#D6C160" opacity="1.000000" stroke="none" 
	d="
M47.153954,157.558563 
	C49.061619,160.445068 50.969284,163.331589 52.936386,166.556335 
	C52.995823,166.894577 53.066994,167.165848 52.657768,167.198334 
	C46.680027,167.600388 47.547459,172.624176 45.749458,175.944962 
	C45.513275,175.998688 45.055248,176.156418 45.055252,176.156418 
	C43.396149,174.399231 41.737045,172.642059 40.265640,170.383087 
	C42.686874,165.773697 44.920414,161.666138 47.153954,157.558563 
z"/>
<path fill="#04373A" opacity="1.000000" stroke="none" 
	d="
M183.996918,65.000000 
	C184.329788,66.423721 184.950058,67.846855 184.952957,69.271248 
	C185.007553,95.978752 184.994629,122.686417 184.962646,149.393997 
	C184.961487,150.363083 184.622314,151.331757 184.220490,152.181885 
	C183.999161,123.042091 183.998047,94.021049 183.996918,65.000000 
z"/>
<path fill="#04395B" opacity="1.000000" stroke="none" 
	d="
M183.754028,65.004784 
	C183.998047,94.021049 183.999161,123.042091 184.000458,152.531876 
	C184.000610,153.000610 183.505844,152.997849 183.258636,152.994095 
	C183.010437,123.979088 183.009460,94.967834 183.017029,65.490738 
	C183.025558,65.024887 183.511154,65.009567 183.754028,65.004784 
z"/>
<path fill="#D6C05C" opacity="1.000000" stroke="none" 
	d="
M89.276031,191.987991 
	C87.214348,191.459518 85.480537,191.022537 83.712685,190.576996 
	C85.362740,187.936371 87.042931,185.247513 88.868530,182.336151 
	C91.358498,183.057526 93.899628,183.709686 95.949493,185.090897 
	C96.753052,185.632339 97.117874,188.571884 96.525986,189.084869 
	C95.164070,190.265259 93.092918,190.627335 91.134270,191.650024 
	C90.507271,192.012192 90.055588,192.045837 89.276031,191.987991 
z"/>
<path fill="#CCB554" opacity="1.000000" stroke="none" 
	d="
M47.098106,157.246017 
	C44.920414,161.666138 42.686874,165.773697 40.143143,170.071777 
	C39.832947,170.262283 39.879040,170.153641 39.780003,169.966644 
	C39.451591,169.522415 39.222214,169.265167 38.992836,169.007904 
	C38.352829,168.239655 37.712818,167.471405 37.220261,166.170105 
	C38.925838,164.277786 40.946281,162.983719 38.022675,160.992462 
	C40.165218,158.526596 42.307766,156.060730 44.637238,153.315521 
	C45.563526,154.335281 46.302895,155.634384 47.098106,157.246017 
z"/>
<path fill="#0A3B46" opacity="1.000000" stroke="none" 
	d="
M54.181717,81.970688 
	C54.917912,77.514877 55.654110,73.059059 56.198929,68.295891 
	C56.701168,67.041222 57.394783,66.093910 58.088402,65.146599 
	C58.830978,65.948235 59.479885,66.874092 60.338650,67.521645 
	C61.549294,68.434517 62.915344,69.141281 64.608948,70.325577 
	C65.070435,71.206993 65.137932,71.699020 65.205429,72.191040 
	C65.205429,72.191040 65.234535,72.106033 64.979553,72.200989 
	C64.164970,72.534462 63.605373,72.772980 62.683609,73.045784 
	C57.942631,74.518723 56.238880,78.406487 54.181717,81.970688 
z"/>
<path fill="#123D43" opacity="1.000000" stroke="none" 
	d="
M40.714729,97.303009 
	C41.681011,107.392326 42.436256,117.778183 43.123016,128.597443 
	C41.810097,125.976692 39.701286,122.979897 39.494049,119.856911 
	C39.002621,112.451126 37.011528,104.857986 40.714729,97.303009 
z"/>
<path fill="#EEE081" opacity="1.000000" stroke="none" 
	d="
M150.578125,38.913170 
	C152.402496,44.125065 150.160538,49.219967 150.332977,54.683090 
	C149.213318,51.110931 149.956924,46.412491 144.065155,44.338684 
	C146.417984,42.262810 148.326324,40.579094 150.578125,38.913170 
z"/>
<path fill="#043131" opacity="1.000000" stroke="none" 
	d="
M148.931107,166.993149 
	C148.622177,164.903275 148.056320,162.814758 148.045303,160.723312 
	C147.963379,145.175995 147.991562,129.628098 148.042953,113.467216 
	C148.100723,112.854057 148.085052,112.519661 148.452423,112.806351 
	C148.988800,114.892334 149.294907,116.690880 149.304535,118.491020 
	C149.365875,129.962311 149.361908,141.433975 149.249603,153.360046 
	C149.056885,158.207428 148.993988,162.600281 148.931107,166.993149 
z"/>
<path fill="#113532" opacity="1.000000" stroke="none" 
	d="
M90.866013,134.163803 
	C90.137932,127.778366 89.451843,120.882622 88.929176,113.155396 
	C91.713913,112.148468 94.335236,111.973022 97.418304,111.900429 
	C102.902702,112.056320 107.925346,112.109352 113.002136,112.352547 
	C113.056282,112.542702 113.194290,112.913254 113.194290,112.913254 
	C107.254578,112.947647 101.304527,113.210594 95.378471,112.942825 
	C90.787476,112.735390 89.653084,114.734238 90.066017,118.884460 
	C90.553772,123.786865 90.644928,128.728729 90.866013,134.163803 
z"/>
<path fill="#123D43" opacity="1.000000" stroke="none" 
	d="
M37.210720,130.700745 
	C35.839626,127.658577 34.129528,128.598343 32.939407,130.751495 
	C31.587578,133.197220 30.752346,135.928497 29.492188,138.823914 
	C28.031752,137.089081 26.771671,135.065994 25.009314,132.236496 
	C27.087997,132.655685 28.117716,132.863342 27.776356,132.794510 
	C30.990948,130.268646 33.466450,128.323517 35.941948,126.378403 
	C36.431549,127.725739 36.921154,129.073074 37.210720,130.700745 
z"/>
<path fill="#656A53" opacity="1.000000" stroke="none" 
	d="
M113.643288,112.885345 
	C113.194290,112.913254 113.056282,112.542702 113.367966,112.246277 
	C114.440254,111.893990 115.200859,111.838135 116.410210,111.845268 
	C119.566162,111.881630 122.273369,111.854996 125.378166,111.894684 
	C126.848610,111.934464 127.921471,111.907944 128.994324,111.881416 
	C131.359726,111.909325 133.725143,111.937225 136.531281,111.920326 
	C139.346878,111.902351 141.721741,111.929176 144.537415,111.902313 
	C145.762131,111.885712 146.546021,111.922798 147.742462,112.093216 
	C148.154999,112.226540 148.085052,112.519661 148.085052,112.519661 
	C148.085052,112.519661 148.100723,112.854057 148.036224,113.008865 
	C143.728256,113.450806 139.478790,114.040604 135.242645,113.956940 
	C128.188049,113.817596 121.141960,113.246643 113.643288,112.885345 
z"/>
<path fill="#C4AE4D" opacity="1.000000" stroke="none" 
	d="
M37.705482,160.890823 
	C40.946281,162.983719 38.925838,164.277786 37.151047,165.870987 
	C35.193687,162.931305 33.452995,159.757706 31.656849,156.183960 
	C33.530361,157.452286 35.459328,159.120728 37.705482,160.890823 
z"/>
<path fill="#0F3C3F" opacity="1.000000" stroke="none" 
	d="
M81.044006,44.444122 
	C78.771248,47.166145 76.126076,49.836571 73.205887,52.689816 
	C72.292244,51.700607 71.653610,50.528587 71.111198,49.533157 
	C74.068779,47.942867 77.370178,46.167702 81.044006,44.444122 
z"/>
<path fill="#0F3C3F" opacity="1.000000" stroke="none" 
	d="
M72.573982,52.981972 
	C71.810249,55.189182 70.732468,57.435402 69.415665,59.920052 
	C68.428886,59.098640 67.681129,58.038807 66.817795,56.815144 
	C68.623100,55.556515 70.441513,54.288746 72.573982,52.981972 
z"/>
<path fill="#0A3B46" opacity="1.000000" stroke="none" 
	d="
M81.172211,193.458252 
	C83.436028,192.896530 85.869797,192.653549 88.704224,192.388275 
	C87.183830,196.503250 84.314522,195.423599 81.172211,193.458252 
z"/>
<path fill="#113532" opacity="1.000000" stroke="none" 
	d="
M96.041084,40.743813 
	C93.845703,40.905136 91.832962,40.921867 89.448486,40.935631 
	C92.251762,37.592625 93.496880,37.534534 96.041084,40.743813 
z"/>
<path fill="#767D52" opacity="1.000000" stroke="none" 
	d="
M149.048431,167.255219 
	C148.993988,162.600281 149.056885,158.207428 149.421478,153.736298 
	C149.902695,158.102814 150.082184,162.547607 150.261673,166.992401 
	C150.219727,167.435150 150.177780,167.877914 150.079803,168.649506 
	C149.737762,168.491333 149.451752,168.004318 149.048431,167.255219 
z"/>
<path fill="#0F3C3F" opacity="1.000000" stroke="none" 
	d="
M68.047577,62.319168 
	C67.800346,63.953175 67.267044,65.820824 66.503532,67.964981 
	C66.769379,66.345268 67.265442,64.449036 68.047577,62.319168 
z"/>
<path fill="#0F3C3F" opacity="1.000000" stroke="none" 
	d="
M84.907883,42.246193 
	C84.190567,43.006390 83.100670,43.711082 81.687729,44.475540 
	C82.421562,43.753765 83.478424,42.972229 84.907883,42.246193 
z"/>
<path fill="#0F3C3F" opacity="1.000000" stroke="none" 
	d="
M63.491123,66.371414 
	C63.413078,65.984192 63.506943,65.660660 63.600811,65.337120 
	C63.744930,65.386940 63.889053,65.436760 64.033173,65.486580 
	C63.909790,65.802750 63.786411,66.118919 63.491123,66.371414 
z"/>
<path fill="#0F3C3F" opacity="1.000000" stroke="none" 
	d="
M65.434387,71.914780 
	C65.137932,71.699020 65.070435,71.206993 64.966743,70.344528 
	C65.242439,69.463562 65.554329,68.953041 66.134888,68.292267 
	C66.156807,69.307510 65.910072,70.473015 65.434387,71.914780 
z"/>
<path fill="#F1DE7E" opacity="1.000000" stroke="none" 
	d="
M45.104755,176.448624 
	C45.055248,176.156418 45.513275,175.998688 45.990593,176.116669 
	C46.983635,176.814362 47.499355,177.394058 48.015076,177.973755 
	C48.015076,177.973755 47.768368,178.254532 47.644417,178.394409 
	C46.731735,177.936462 45.942997,177.338638 45.104755,176.448624 
z"/>
<path fill="#C6B157" opacity="1.000000" stroke="none" 
	d="
M151.237534,170.795441 
	C151.775696,171.066498 152.351532,171.652466 152.967743,172.571365 
	C152.430466,172.306320 151.852844,171.708344 151.237534,170.795441 
z"/>
<path fill="#0F3C3F" opacity="1.000000" stroke="none" 
	d="
M87.965034,41.115959 
	C87.490837,41.532677 86.648178,41.929008 85.450172,42.350426 
	C85.928741,41.948868 86.762657,41.522221 87.965034,41.115959 
z"/>
<path fill="#113532" opacity="1.000000" stroke="none" 
	d="
M94.789108,45.683205 
	C94.690811,45.095108 94.855705,44.380585 95.181778,43.334763 
	C95.246071,43.854572 95.149193,44.705677 94.789108,45.683205 
z"/>
<path fill="#113532" opacity="1.000000" stroke="none" 
	d="
M93.965714,48.780151 
	C93.871574,48.114029 94.031212,47.189213 94.426338,45.997822 
	C94.514389,46.661316 94.366943,47.591389 93.965714,48.780151 
z"/>
<path fill="#F8E37F" opacity="1.000000" stroke="none" 
	d="
M93.275131,153.256622 
	C92.894997,153.138229 92.483856,152.735336 92.084015,152.075439 
	C92.478256,152.202988 92.861191,152.587555 93.275131,153.256622 
z"/>
<path fill="#123D43" opacity="1.000000" stroke="none" 
	d="
M38.475243,135.416138 
	C38.268673,134.832779 38.062099,134.249405 37.871628,133.353516 
	C38.072044,133.029160 38.256363,133.017365 38.717529,133.000046 
	C38.994381,132.994507 39.002136,133.002426 39.013855,133.331970 
	C39.041641,134.094269 39.057716,134.527008 38.923904,135.073517 
	C38.774021,135.187286 38.475243,135.416138 38.475243,135.416138 
z"/>
<path fill="#C6B157" opacity="1.000000" stroke="none" 
	d="
M150.236328,169.202087 
	C150.597473,169.307129 150.990631,169.691315 151.369934,170.370331 
	C150.993484,170.270538 150.630905,169.875885 150.236328,169.202087 
z"/>
<path fill="#0F3C3F" opacity="1.000000" stroke="none" 
	d="
M68.984665,60.264511 
	C69.054306,60.649132 68.892097,61.245514 68.488007,62.041641 
	C68.415016,61.653011 68.583908,61.064636 68.984665,60.264511 
z"/>
<path fill="#D6C160" opacity="1.000000" stroke="none" 
	d="
M39.060242,169.281342 
	C39.222214,169.265167 39.451591,169.522415 39.834297,169.989761 
	C39.700970,169.984833 39.414307,169.769821 39.060242,169.281342 
z"/>
<path fill="#EEE081" opacity="1.000000" stroke="none" 
	d="
M151.292526,38.811096 
	C151.345871,38.900074 151.068893,38.906101 150.991074,38.927711 
	C150.913254,38.949318 151.239182,38.722115 151.292526,38.811096 
z"/>
<path fill="#DCC45F" opacity="1.000000" stroke="none" 
	d="
M177.358459,48.936813 
	C177.103363,48.716099 177.185547,48.482666 177.422363,47.909058 
	C177.792923,47.842728 178.008835,48.116570 178.297638,48.648285 
	C178.145584,48.912136 177.920670,48.918118 177.358459,48.936813 
z"/>
<path fill="#123D43" opacity="1.000000" stroke="none" 
	d="
M37.046528,131.630447 
	C36.897507,131.609818 36.742485,131.381714 36.790791,131.082062 
	C36.994118,131.010513 37.040524,131.422989 37.046528,131.630447 
z"/>
<path fill="#C6B157" opacity="1.000000" stroke="none" 
	d="
M150.560028,166.842499 
	C150.082184,162.547607 149.902695,158.102814 149.551315,153.281769 
	C149.361908,141.433975 149.365875,129.962311 149.304535,118.491020 
	C149.294907,116.690880 148.988800,114.892334 148.452423,112.806351 
	C148.085052,112.519661 148.154999,112.226540 148.134720,112.077560 
	C151.958206,110.541870 150.899231,113.733383 150.927002,115.256813 
	C151.071854,123.197075 150.813171,131.146973 151.055115,139.082535 
	C151.276077,146.329987 152.091721,153.558685 152.345032,160.806152 
	C152.412933,162.748611 151.383881,164.729416 150.560028,166.842499 
z"/>
<path fill="#C3B356" opacity="1.000000" stroke="none" 
	d="
M181.398163,153.100433 
	C181.382690,155.404739 181.367233,157.709045 181.278564,160.757874 
	C181.252396,161.713760 181.299454,161.925156 181.346497,162.136536 
	C181.308395,162.552917 181.270309,162.969315 181.140823,163.685059 
	C180.366318,161.841125 179.075714,159.692093 179.095886,157.555435 
	C179.262466,139.923340 179.751022,122.294571 179.979889,104.662689 
	C180.129089,93.168259 180.043427,81.670120 179.975998,70.174149 
	C179.963486,68.038284 179.536819,65.904861 179.130463,63.388962 
	C179.189774,62.756756 179.419937,62.505898 180.144531,62.127785 
	C180.833115,61.983318 181.027298,61.966106 181.221466,61.948895 
	C181.263718,62.998219 181.305969,64.047539 181.242691,65.952042 
	C181.093155,91.759064 181.031769,116.710892 181.023621,141.662735 
	C181.022369,145.475266 181.267151,149.287872 181.398163,153.100433 
z"/>
<path fill="#CEB653" opacity="1.000000" stroke="none" 
	d="
M84.973724,87.947350 
	C85.424057,85.730927 85.874382,83.514503 86.870773,81.477234 
	C87.605568,84.105675 87.794312,86.554977 87.750351,89.246780 
	C85.322006,93.529228 83.346184,97.710442 80.867126,101.568275 
	C78.519783,105.221123 75.644539,108.534744 72.999847,111.597992 
	C72.997032,110.132767 72.995842,109.067108 72.996689,107.668213 
	C73.000992,106.890656 73.003258,106.446335 73.327332,105.889603 
	C77.424004,99.833908 81.198860,93.890633 84.973724,87.947350 
z"/>
<path fill="#CAAE49" opacity="1.000000" stroke="none" 
	d="
M73.005531,106.002014 
	C73.003258,106.446335 73.000992,106.890656 72.666519,107.748695 
	C71.224396,109.775215 70.114487,111.388023 69.002441,113.250618 
	C69.000313,113.500404 68.995941,113.999977 68.629822,114.072876 
	C66.797165,114.425514 65.330627,114.705238 63.864094,114.984962 
	C63.767464,114.634056 63.670837,114.283157 63.647301,113.662613 
	C67.860054,106.335953 71.910500,99.223724 76.215042,92.268753 
	C77.070946,90.885834 78.899971,90.105186 80.563263,89.362099 
	C78.232681,95.118919 75.619102,100.560471 73.005531,106.002014 
z"/>
<path fill="#C9B14E" opacity="1.000000" stroke="none" 
	d="
M73.327332,105.889603 
	C75.619102,100.560471 78.232681,95.118919 80.924408,89.336418 
	C81.519295,86.806656 82.036034,84.617851 82.848473,81.176529 
	C83.618881,83.931740 84.099091,85.649101 84.776505,87.656906 
	C81.198860,93.890633 77.424004,99.833908 73.327332,105.889603 
z"/>
<path fill="#0F3C3F" opacity="1.000000" stroke="none" 
	d="
M63.045776,73.011490 
	C63.605373,72.772980 64.164970,72.534462 65.020966,72.218399 
	C64.583046,77.487930 63.848728,82.835022 62.800640,88.609314 
	C62.486866,89.036522 62.058239,89.082390 62.038662,88.615845 
	C62.361317,83.103355 62.703545,78.057426 63.045776,73.011490 
z"/>
<path fill="#C3B356" opacity="1.000000" stroke="none" 
	d="
M87.983047,89.004272 
	C87.794312,86.554977 87.605568,84.105675 87.206841,81.320618 
	C87.538780,78.495384 88.080711,76.005898 88.908676,73.274300 
	C89.101257,78.052330 89.007797,83.072487 88.651115,88.554306 
	C88.387886,89.015968 87.983055,89.004272 87.983047,89.004272 
z"/>
<path fill="#2F4A35" opacity="1.000000" stroke="none" 
	d="
M63.111744,112.473022 
	C62.825645,110.500374 62.597797,108.093849 62.519634,105.342171 
	C62.836208,107.344391 63.003101,109.691765 63.111744,112.473022 
z"/>
<path fill="#2F4A35" opacity="1.000000" stroke="none" 
	d="
M62.058239,89.082390 
	C62.058239,89.082390 62.486866,89.036522 62.700554,89.008209 
	C62.922852,89.746918 62.931461,90.513947 62.850060,91.655228 
	C62.536617,91.533165 62.313179,91.036842 62.055744,90.041260 
	C62.021744,89.541992 62.058239,89.082390 62.058239,89.082390 
z"/>
<path fill="#F1D974" opacity="1.000000" stroke="none" 
	d="
M96.956551,111.797577 
	C94.335236,111.973022 91.713913,112.148468 88.858391,112.699234 
	C87.659546,117.371643 87.336594,121.953743 85.583496,125.900627 
	C82.784576,132.202072 79.126984,138.136841 75.550415,144.056229 
	C75.177887,144.672791 72.903046,144.139954 71.199944,144.048431 
	C70.889061,143.956467 70.736229,143.786316 70.822212,143.342392 
	C70.655167,142.010941 70.402138,141.123413 70.110260,139.923737 
	C70.050163,139.402939 70.028923,139.194321 70.265213,138.990295 
	C70.694443,138.991516 70.866150,138.988113 71.354660,138.882690 
	C78.272469,134.642227 78.852997,126.670959 83.310379,120.861725 
	C84.445541,117.548981 84.303566,113.410942 86.302795,111.335846 
	C91.167099,106.286972 92.320168,99.490425 95.936531,93.945847 
	C96.375443,93.272911 96.056068,92.105392 96.510101,91.122559 
	C98.630302,91.099548 100.328537,91.121056 102.288513,91.315567 
	C103.363281,91.658768 104.176315,91.828964 104.981110,92.359787 
	C101.514954,98.677818 98.057045,104.635216 94.556107,110.666748 
	C94.907684,110.832375 95.932121,111.314972 96.956551,111.797577 
z"/>
<path fill="#D6BE5A" opacity="1.000000" stroke="none" 
	d="
M87.750359,89.246780 
	C87.983055,89.004272 88.387886,89.015968 88.590363,89.018967 
	C88.849373,89.193169 88.905907,89.364372 89.240326,90.046417 
	C90.367081,90.757118 91.215965,90.956978 92.002716,91.494164 
	C83.960449,104.888481 75.980324,117.945457 67.785782,131.002838 
	C67.282776,131.030975 66.999985,131.002029 66.722992,130.916428 
	C66.063911,127.891731 65.404831,124.867043 64.832642,121.448578 
	C64.919533,121.054810 65.101410,121.015823 65.289001,121.175156 
	C69.497719,120.977524 72.361893,117.423409 72.998825,112.000847 
	C73.000000,112.000000 73.001465,111.997559 73.001465,111.997559 
	C75.644539,108.534744 78.519783,105.221123 80.867126,101.568275 
	C83.346184,97.710442 85.322006,93.529228 87.750359,89.246780 
z"/>
<path fill="#EEE081" opacity="1.000000" stroke="none" 
	d="
M79.008179,175.473206 
	C77.900085,176.235336 76.738907,176.653427 75.180161,177.214661 
	C75.435417,178.831650 75.703354,180.528931 76.001381,182.597031 
	C75.843361,182.969360 75.655251,182.970886 75.187805,182.628220 
	C71.608864,179.487747 68.309250,176.691452 65.009644,173.895157 
	C64.053101,172.766724 63.096558,171.638290 62.140255,169.849457 
	C63.193157,166.030365 61.980686,161.979095 65.848076,159.885803 
	C66.139481,159.728073 65.939713,158.662918 66.100746,157.915192 
	C66.233223,157.810791 66.497200,157.600800 66.497192,157.600800 
	C70.649826,163.443588 74.802460,169.286377 79.008179,175.473206 
z"/>
<path fill="#013A4B" opacity="1.000000" stroke="none" 
	d="
M62.038662,88.615845 
	C62.058239,89.082390 62.021744,89.541992 62.002403,89.771774 
	C60.188053,92.185677 58.393044,94.369797 56.598034,96.553925 
	C56.115364,96.426605 55.632694,96.299286 55.150028,96.171967 
	C55.324226,93.945816 55.600704,91.720482 55.618439,89.493080 
	C55.624844,88.688362 55.010887,87.878708 54.371449,87.043503 
	C54.030838,85.609680 53.998798,84.203674 54.074238,82.384171 
	C56.238880,78.406487 57.942631,74.518723 62.683605,73.045784 
	C62.703545,78.057426 62.361317,83.103355 62.038662,88.615845 
M59.982647,85.327652 
	C59.768417,84.250404 59.554188,83.173157 59.339962,82.095909 
	C58.931309,82.166336 58.522659,82.236763 58.114006,82.307198 
	C58.221165,84.159126 58.328327,86.011063 58.435486,87.862999 
	C58.781918,87.854889 59.128349,87.846786 59.474777,87.838684 
	C59.636898,87.232925 59.799019,86.627159 59.982647,85.327652 
z"/>
<path fill="#D6C160" opacity="1.000000" stroke="none" 
	d="
M52.673862,154.128555 
	C52.334862,154.040146 52.127495,153.824921 52.388592,153.117737 
	C53.132889,150.829819 53.540356,148.907043 53.949890,146.651749 
	C53.956673,145.875702 53.961388,145.432144 54.336205,144.963654 
	C56.094490,142.966614 57.482677,140.994507 58.870865,139.022415 
	C59.851685,141.449112 60.832504,143.875793 61.563545,146.869171 
	C59.534973,150.944809 57.756172,154.453751 55.693230,157.993469 
	C55.219677,158.045868 55.030262,158.067474 54.840847,158.089096 
	C54.840847,158.089096 54.912228,158.066803 54.853554,157.804459 
	C54.482662,157.027237 54.170452,156.512344 53.858242,155.997467 
	C53.858242,155.997467 53.961605,156.024475 53.866615,155.780396 
	C53.405704,155.067078 53.039783,154.597809 52.673862,154.128555 
z"/>
<path fill="#E1CD6A" opacity="1.000000" stroke="none" 
	d="
M55.977367,157.962692 
	C57.756172,154.453751 59.534973,150.944809 61.574684,147.226715 
	C62.493572,148.455917 63.151554,149.894287 63.671909,151.817841 
	C63.324768,152.511703 63.149529,152.745987 63.005592,153.379150 
	C62.991261,154.498779 62.979893,155.245178 62.625519,156.031799 
	C61.503242,156.782776 60.434387,157.349365 59.996170,158.229843 
	C58.333790,161.569962 57.207539,159.558807 55.977367,157.962692 
z"/>
<path fill="#CDB758" opacity="1.000000" stroke="none" 
	d="
M58.924271,138.654007 
	C57.482677,140.994507 56.094490,142.966614 54.141922,144.677460 
	C54.366142,141.600739 55.154739,138.785248 55.943336,135.969757 
	C55.955181,134.909546 55.967026,133.849319 56.225922,132.393219 
	C56.472973,131.997345 56.945198,131.997726 56.945198,131.997726 
	C57.622692,134.093689 58.300182,136.189636 58.924271,138.654007 
z"/>
<path fill="#C9B14E" opacity="1.000000" stroke="none" 
	d="
M63.806808,115.377533 
	C65.330627,114.705238 66.797165,114.425514 68.555405,114.405884 
	C67.598534,116.782593 66.349968,118.899208 65.101410,121.015823 
	C65.101410,121.015823 64.919533,121.054810 64.827377,121.039291 
	C64.406654,119.272545 64.078094,117.521324 63.806808,115.377533 
z"/>
<path fill="#EEE081" opacity="1.000000" stroke="none" 
	d="
M62.968525,155.991577 
	C62.979893,155.245178 62.991261,154.498779 63.292496,153.352631 
	C63.773182,152.930328 63.963997,152.907776 64.154816,152.885208 
	C64.154816,152.885208 64.070526,152.903122 64.157013,153.082458 
	C64.383202,153.541245 64.565971,153.788940 64.791809,154.004868 
	C65.297493,154.992355 65.803177,155.979843 66.403030,157.284058 
	C66.497200,157.600800 66.233223,157.810791 65.845840,157.754791 
	C64.628479,157.129715 63.798500,156.560638 62.968525,155.991577 
z"/>
<path fill="#C4AE4D" opacity="1.000000" stroke="none" 
	d="
M56.109653,130.554672 
	C55.884609,129.797485 55.667362,128.642334 55.646400,127.262932 
	C55.934273,128.078033 56.025860,129.117371 56.109653,130.554672 
z"/>
<path fill="#EBD470" opacity="1.000000" stroke="none" 
	d="
M66.584152,131.215332 
	C66.999985,131.002029 67.282776,131.030975 67.787743,131.375381 
	C68.016609,132.493179 68.029106,133.238846 67.954849,134.049500 
	C67.868095,134.114487 67.694550,134.244400 67.694550,134.244400 
	C67.278137,133.334351 66.861717,132.424301 66.584152,131.215332 
z"/>
<path fill="#013A4B" opacity="1.000000" stroke="none" 
	d="
M100.926575,186.723373 
	C101.101845,187.111267 101.096161,187.505814 101.057266,187.897079 
	C101.055183,187.918045 100.773621,187.911209 100.622154,187.917313 
	C100.660980,187.521332 100.699806,187.125336 100.926575,186.723373 
z"/>
<path fill="#EBD470" opacity="1.000000" stroke="none" 
	d="
M68.863754,138.117523 
	C68.472694,137.057678 68.081642,135.997818 67.692566,134.591187 
	C67.694550,134.244400 67.868095,134.114487 68.153412,134.334534 
	C68.643471,135.693588 68.848206,136.832611 69.005173,138.007492 
	C68.957405,138.043350 68.863754,138.117523 68.863754,138.117523 
z"/>
<path fill="#EBD470" opacity="1.000000" stroke="none" 
	d="
M70.007690,138.985687 
	C70.028923,139.194321 70.050163,139.402939 70.050980,140.146118 
	C70.030563,140.680649 69.888580,141.124756 69.888580,141.124756 
	C69.537399,140.343674 69.186218,139.562607 68.849396,138.449524 
	C68.863754,138.117523 68.957405,138.043350 69.188416,138.152710 
	C69.649635,138.475510 69.845726,138.716721 70.007690,138.985687 
z"/>
<path fill="#F8E37F" opacity="1.000000" stroke="none" 
	d="
M69.906586,141.478928 
	C69.888580,141.124756 70.030563,140.680649 70.089836,140.458267 
	C70.402138,141.123413 70.655167,142.010941 70.904358,143.262848 
	C70.575211,143.029175 70.249893,142.431137 69.906586,141.478928 
z"/>
<path fill="#F8E37F" opacity="1.000000" stroke="none" 
	d="
M85.012604,167.006836 
	C84.888695,167.229416 84.744324,167.437851 84.459290,167.779877 
	C84.339073,167.927658 83.944008,167.643127 83.877121,167.409058 
	C83.810226,167.174973 83.946487,167.041626 84.246841,167.000183 
	C84.547203,166.958755 85.012604,167.006836 85.012604,167.006836 
z"/>
<path fill="#E7D577" opacity="1.000000" stroke="none" 
	d="
M64.810959,153.746063 
	C64.565971,153.788940 64.383202,153.541245 64.170303,153.041473 
	C64.341446,153.043182 64.585785,153.265228 64.810959,153.746063 
z"/>
<path fill="#E7D577" opacity="1.000000" stroke="none" 
	d="
M64.135788,152.648331 
	C63.963997,152.907776 63.773182,152.930328 63.295464,152.979401 
	C63.149529,152.745987 63.324768,152.511703 63.698555,152.156357 
	C63.862827,152.009674 64.116753,152.411453 64.135788,152.648331 
z"/>
<path fill="#C4AE4D" opacity="1.000000" stroke="none" 
	d="
M56.926910,131.736618 
	C56.945198,131.997726 56.472973,131.997345 56.236908,131.995758 
	C56.004662,131.815948 56.008480,131.637726 56.029533,131.191666 
	C56.334053,131.107727 56.621338,131.291626 56.926910,131.736618 
z"/>
<path fill="#C4AE4D" opacity="1.000000" stroke="none" 
	d="
M55.608978,135.944611 
	C55.154739,138.785248 54.366142,141.600739 53.771824,144.702423 
	C53.961388,145.432144 53.956673,145.875702 53.632759,146.701584 
	C52.020660,146.979843 50.727764,146.875748 49.434864,146.771667 
	C48.899258,145.479935 48.363647,144.188202 47.801651,142.589264 
	C48.172966,141.219009 48.736412,140.186417 48.938553,139.087387 
	C49.662174,135.153015 51.537468,133.728012 55.608978,135.944611 
z"/>
<path fill="#C4AE4D" opacity="1.000000" stroke="none" 
	d="
M46.928627,139.950943 
	C46.533501,139.624512 46.308102,139.118332 46.137299,138.321564 
	C46.494049,138.611069 46.796200,139.191116 46.928627,139.950943 
z"/>
<path fill="#F7DE78" opacity="1.000000" stroke="none" 
	d="
M85.332367,166.865204 
	C85.012604,167.006836 84.547203,166.958755 84.314697,166.933228 
	C82.648514,162.595459 85.631531,155.838333 89.731445,154.886658 
	C92.328094,160.307129 86.547318,162.604355 85.332367,166.865204 
z"/>
<path fill="#D1B64F" opacity="1.000000" stroke="none" 
	d="
M141.387970,106.999664 
	C142.336349,102.631485 143.076080,97.872086 148.601349,95.989639 
	C148.448273,100.875015 147.269135,105.349319 141.387970,106.999664 
z"/>
<path fill="#51633F" opacity="1.000000" stroke="none" 
	d="
M181.413422,61.733711 
	C181.027298,61.966106 180.833115,61.983318 180.347534,61.972794 
	C180.033585,61.186211 180.011017,60.427364 180.048920,59.292412 
	C180.608063,59.783714 181.106720,60.651119 181.413422,61.733711 
z"/>
<path fill="#123D43" opacity="1.000000" stroke="none" 
	d="
M42.886185,147.098755 
	C42.151863,145.717880 41.510368,144.271759 40.947357,142.398315 
	C41.025845,141.971008 41.200527,141.809204 41.512863,141.902222 
	C42.271828,143.631348 42.718460,145.267441 43.165092,146.903534 
	C43.165092,146.903534 42.979012,147.033478 42.886185,147.098755 
z"/>
<path fill="#123D43" opacity="1.000000" stroke="none" 
	d="
M40.938332,142.051727 
	C40.093922,140.133347 39.337025,138.134277 38.527687,135.775665 
	C38.475243,135.416138 38.774021,135.187286 39.119545,135.369766 
	C40.043556,137.637894 40.622044,139.723557 41.200531,141.809204 
	C41.200527,141.809204 41.025845,141.971008 40.938332,142.051727 
z"/>
<path fill="#E6CF67" opacity="1.000000" stroke="none" 
	d="
M48.362789,177.910736 
	C47.499355,177.394058 46.983635,176.814362 46.226776,176.062958 
	C47.547459,172.624176 46.680027,167.600388 52.603569,167.327667 
	C52.817944,170.075531 53.032665,172.820129 52.370773,175.333908 
	C52.085339,176.417938 49.985882,177.024338 48.362789,177.910736 
z"/>
<path fill="#20403A" opacity="1.000000" stroke="none" 
	d="
M64.984116,174.239014 
	C68.309250,176.691452 71.608864,179.487747 74.905640,182.626617 
	C73.215675,182.818008 71.268295,183.148315 69.899391,182.408386 
	C67.555420,181.141449 65.573387,179.204895 63.212902,177.301270 
	C63.643814,176.229645 64.301193,175.406265 64.984116,174.239014 
z"/>
<path fill="#E7D577" opacity="1.000000" stroke="none" 
	d="
M62.625511,156.031799 
	C63.798500,156.560638 64.628479,157.129715 65.713364,157.859192 
	C65.939713,158.662918 66.139481,159.728073 65.848076,159.885803 
	C61.980686,161.979095 63.193157,166.030365 62.042419,169.539017 
	C59.623013,166.186707 57.301682,162.484436 54.910599,158.435623 
	C55.030262,158.067474 55.219677,158.045868 55.693230,157.993469 
	C57.207539,159.558807 58.333790,161.569962 59.996170,158.229843 
	C60.434387,157.349365 61.503242,156.782776 62.625511,156.031799 
z"/>
<path fill="#013A4B" opacity="1.000000" stroke="none" 
	d="
M41.512863,141.902222 
	C40.622044,139.723557 40.043556,137.637894 39.269432,135.255997 
	C39.057716,134.527008 39.041641,134.094269 39.018143,133.336914 
	C42.647453,134.461853 45.024185,136.635803 45.221565,141.019241 
	C45.342255,143.699524 46.651031,146.326309 47.816074,150.310242 
	C45.779636,148.845383 44.705853,148.072983 43.398582,147.102066 
	C42.718460,145.267441 42.271828,143.631348 41.512863,141.902222 
z"/>
<path fill="#CDB758" opacity="1.000000" stroke="none" 
	d="
M49.490654,147.167999 
	C50.727764,146.875748 52.020660,146.979843 53.630692,147.034088 
	C53.540356,148.907043 53.132889,150.829819 52.425789,152.886322 
	C51.266254,151.201477 50.406345,149.382904 49.490654,147.167999 
z"/>
<path fill="#E1CD6A" opacity="1.000000" stroke="none" 
	d="
M53.855667,156.317871 
	C54.170452,156.512344 54.482662,157.027237 54.861244,157.841049 
	C54.569443,157.639420 54.211269,157.138855 53.855667,156.317871 
z"/>
<path fill="#E1CD6A" opacity="1.000000" stroke="none" 
	d="
M52.759670,154.423645 
	C53.039783,154.597809 53.405704,155.067078 53.851570,155.831665 
	C53.569504,155.657578 53.207493,155.188171 52.759670,154.423645 
z"/>
<path fill="#E3CA62" opacity="1.000000" stroke="none" 
	d="
M129.134827,111.581436 
	C127.921471,111.907944 126.848610,111.934464 125.508133,111.582382 
	C128.491943,104.800598 131.743393,98.397415 135.325745,91.986237 
	C136.097244,91.962593 136.537842,91.946968 137.010895,91.901680 
	C137.043335,91.872025 137.125549,91.903122 137.125549,91.903122 
	C138.567078,92.572731 140.008621,93.242332 142.184555,94.253082 
	C136.987289,99.567383 137.380936,108.412689 129.134827,111.581436 
z"/>
<path fill="#90A170" opacity="1.000000" stroke="none" 
	d="
M128.842926,90.395782 
	C132.399124,90.382805 135.955307,90.369827 139.780930,90.688248 
	C139.288284,91.321854 138.526199,91.624069 137.444839,91.914703 
	C137.125549,91.903122 137.043335,91.872025 136.732742,91.644577 
	C133.895737,91.076675 131.369339,90.736229 128.842926,90.395782 
z"/>
<path fill="#51633F" opacity="1.000000" stroke="none" 
	d="
M181.571564,152.722260 
	C181.267151,149.287872 181.022369,145.475266 181.023621,141.662735 
	C181.031769,116.710892 181.093155,91.759064 181.265991,66.345276 
	C181.596497,67.178452 181.972549,68.473366 181.974136,69.768738 
	C182.006607,96.470917 181.998688,123.173134 181.984283,149.875351 
	C181.983841,150.698303 181.828232,151.521164 181.571564,152.722260 
z"/>
<path fill="#51633F" opacity="1.000000" stroke="none" 
	d="
M181.485626,162.007843 
	C181.299454,161.925156 181.252396,161.713760 181.292740,161.189270 
	C181.495575,161.089127 181.635513,161.293457 181.715042,161.519104 
	C181.749359,161.616409 181.658661,161.757782 181.485626,162.007843 
z"/>
<path fill="#F4E988" opacity="1.000000" stroke="none" 
	d="
M128.386139,90.376785 
	C131.369339,90.736229 133.895737,91.076675 136.700302,91.674225 
	C136.537842,91.946968 136.097244,91.962593 134.897430,91.977249 
	C132.421906,91.983948 130.705582,91.991615 128.521271,91.998619 
	C120.365326,91.998352 112.677338,91.998756 104.989349,91.999161 
	C104.176315,91.828964 103.363281,91.658768 102.661636,91.269562 
	C104.230377,90.829010 105.687729,90.607475 107.145073,90.385933 
	C114.073166,90.376549 121.001259,90.367172 128.386139,90.376785 
z"/>
<path fill="#90A170" opacity="1.000000" stroke="none" 
	d="
M106.683136,90.255539 
	C105.687729,90.607475 104.230377,90.829010 102.399902,91.096558 
	C100.328537,91.121056 98.630302,91.099548 96.107941,91.078827 
	C94.210815,91.105362 93.137833,91.131096 92.064842,91.156830 
	C91.215965,90.956978 90.367081,90.757118 89.314880,90.306374 
	C94.814766,90.078705 100.517982,90.101921 106.683136,90.255539 
z"/>
<path fill="#D9C666" opacity="1.000000" stroke="none" 
	d="
M93.850891,162.951111 
	C93.836823,163.577438 93.772003,164.015106 93.707184,164.452789 
	C93.552345,164.455704 93.397507,164.458618 93.242668,164.461548 
	C93.217758,163.950714 93.175041,163.439667 93.181221,162.929214 
	C93.182655,162.810654 93.330070,162.641434 93.449203,162.594757 
	C93.531616,162.562439 93.680801,162.700531 93.850891,162.951111 
z"/>
<path fill="#FCE37D" opacity="1.000000" stroke="none" 
	d="
M104.981110,92.359787 
	C112.677338,91.998756 120.365326,91.998352 128.588989,92.276016 
	C128.840515,93.358299 128.646576,94.802063 128.256729,94.857048 
	C126.482628,95.107285 124.653412,94.966751 122.844025,94.966751 
	C122.873863,95.157913 122.903694,95.349083 122.933533,95.540245 
	C124.284859,96.023781 125.636177,96.507317 126.582275,96.993027 
	C120.829964,97.315308 118.358871,100.018616 116.755585,107.133789 
	C115.819366,107.587624 115.143867,107.924469 113.444130,108.772034 
	C116.189156,108.942001 117.770073,109.039894 119.384697,109.139862 
	C118.146271,110.095810 117.053871,110.939049 115.961464,111.782280 
	C115.200859,111.838135 114.440254,111.893990 113.313820,112.056122 
	C107.925346,112.109352 102.902702,112.056320 97.418304,111.900421 
	C95.932121,111.314972 94.907684,110.832375 94.556107,110.666748 
	C98.057045,104.635216 101.514954,98.677818 104.981110,92.359787 
z"/>
<path fill="#EFD76D" opacity="1.000000" stroke="none" 
	d="
M116.410210,111.845268 
	C117.053871,110.939049 118.146271,110.095810 119.384697,109.139862 
	C117.770073,109.039894 116.189156,108.942001 113.444130,108.772034 
	C115.143867,107.924469 115.819366,107.587624 117.180069,107.132401 
	C119.916626,106.226402 122.643433,105.992790 123.854614,104.516075 
	C125.504555,102.504410 125.998108,99.544296 126.987503,96.990860 
	C125.636177,96.507317 124.284859,96.023781 122.933533,95.540245 
	C122.903694,95.349083 122.873863,95.157913 122.844025,94.966751 
	C124.653412,94.966751 126.482628,95.107285 128.256729,94.857048 
	C128.646576,94.802063 128.840515,93.358299 129.056961,92.276680 
	C130.705582,91.991615 132.421906,91.983948 134.566544,91.985260 
	C131.743393,98.397415 128.491943,104.800598 125.110535,111.516068 
	C122.273369,111.854996 119.566162,111.881630 116.410210,111.845268 
z"/>
<path fill="#C9B14E" opacity="1.000000" stroke="none" 
	d="
M69.004578,113.000832 
	C70.114487,111.388023 71.224396,109.775215 72.664482,108.081932 
	C72.995842,109.067108 72.997032,110.132767 72.999847,111.597992 
	C73.001465,111.997559 73.000000,112.000000 72.661209,112.063736 
	C71.216469,112.418594 70.110519,112.709709 69.004578,113.000832 
z"/>
<path fill="#CEB653" opacity="1.000000" stroke="none" 
	d="
M69.002441,113.250618 
	C70.110519,112.709709 71.216469,112.418594 72.660034,112.064590 
	C72.361893,117.423409 69.497719,120.977524 65.289001,121.175156 
	C66.349968,118.899208 67.598534,116.782593 68.921524,114.332977 
	C68.995941,113.999977 69.000313,113.500404 69.002441,113.250618 
z"/>
<path fill="#E3CB64" opacity="1.000000" stroke="none" 
	d="
M92.002716,91.494171 
	C93.137833,91.131096 94.210815,91.105362 95.685966,91.123352 
	C96.056068,92.105392 96.375443,93.272911 95.936531,93.945847 
	C92.320168,99.490425 91.167099,106.286972 86.302795,111.335846 
	C84.303566,113.410942 84.445541,117.548981 83.309662,120.539604 
	C82.921822,119.446411 82.837875,118.562256 82.760674,117.749222 
	C77.564323,124.242432 71.684273,130.214264 71.037865,138.984695 
	C70.866150,138.988113 70.694443,138.991516 70.265213,138.990295 
	C69.845726,138.716721 69.649635,138.475510 69.236183,138.116852 
	C68.848206,136.832611 68.643471,135.693588 68.240166,134.269531 
	C68.029106,133.238846 68.016609,132.493179 68.002151,131.374969 
	C75.980324,117.945457 83.960449,104.888481 92.002716,91.494171 
z"/>
<path fill="#EBD470" opacity="1.000000" stroke="none" 
	d="
M71.354660,138.882690 
	C71.684273,130.214264 77.564323,124.242432 82.760674,117.749222 
	C82.837875,118.562256 82.921822,119.446411 83.006500,120.652695 
	C78.852997,126.670959 78.272469,134.642227 71.354660,138.882690 
z"/>
<path fill="#0A3B46" opacity="1.000000" stroke="none" 
	d="
M59.971893,85.674530 
	C59.799019,86.627159 59.636898,87.232925 59.474777,87.838684 
	C59.128349,87.846786 58.781918,87.854889 58.435486,87.862999 
	C58.328327,86.011063 58.221165,84.159126 58.114006,82.307198 
	C58.522659,82.236763 58.931309,82.166336 59.339962,82.095909 
	C59.554188,83.173157 59.768417,84.250404 59.971893,85.674530 
z"/>
<path fill="#F7DE78" opacity="1.000000" stroke="none" 
	d="
M126.582275,96.993027 
	C125.998108,99.544296 125.504555,102.504410 123.854614,104.516075 
	C122.643433,105.992790 119.916626,106.226402 117.440788,107.015396 
	C118.358871,100.018616 120.829964,97.315308 126.582275,96.993027 
z"/>
</svg>