<svg width="40" height="40" viewBox="0 0 40 40" fill="none" xmlns="http://www.w3.org/2000/svg">
<path d="M28.1071 27.6004C26.7054 27.1463 25.6209 26.1022 24.9265 24.8069C24.108 26.2332 22.6295 27.3472 21.0111 27.6673C20.6338 27.7422 20.2576 27.7767 19.8882 27.7767C19.4469 27.7767 19.0165 27.7245 18.6008 27.6279C17.7507 28.9321 16.6101 30.0343 15.2725 30.8459C16.6525 31.5719 18.2226 31.9856 19.8872 31.9856C21.5075 31.9856 23.0589 31.6034 24.4921 30.8509C25.9529 30.0836 27.191 28.9557 28.1071 27.6004ZM32.8676 12.7298L32.4805 12.6421C32.4805 12.6421 34.1983 10.6288 34.4042 10.3795C34.1757 10.1392 31.4255 7.27777 31.1586 7C30.9271 7.23345 26.4621 11.7832 24.5758 13.701C24.1966 14.1472 23.4322 14.9884 21.9006 16.6245C20.6673 18.1955 20.1463 20.2168 20.1463 22.2508C20.1463 24.0199 20.6191 25.6826 21.4317 27.1216C22.8314 26.6922 24.0173 25.6835 24.6586 24.3449L24.7127 24.2257C24.4872 23.6081 24.3552 22.9423 24.3552 22.2508C24.3552 19.0988 26.9201 16.5388 30.0731 16.5388C33.2251 16.5388 35.7871 19.0988 35.7871 22.2508C35.7871 25.4028 33.2251 27.9668 30.0731 27.9668C29.5373 27.9668 29.0212 27.888 28.5316 27.7501C27.6835 29.0335 26.5586 30.118 25.2407 30.9129C26.6699 31.7137 28.3218 32.1747 30.0741 32.1747C35.5458 32.1747 40 27.7225 40 22.2508C40 17.8764 37.0667 13.9561 32.8676 12.7298ZM18.1467 27.5285C16.9096 27.1266 15.8684 26.3248 15.1533 25.259C15.0558 25.1132 14.9632 24.9635 14.8814 24.8167C14.1525 26.0903 12.9607 27.032 11.5669 27.4615C11.426 27.5048 11.2793 27.5413 11.1384 27.5747C11.1069 27.5797 11.0764 27.5856 11.0468 27.5895C10.6715 27.6683 10.2943 27.7038 9.92785 27.7038C6.77584 27.7038 4.21089 25.1438 4.21089 21.9937C4.21089 18.8447 6.77584 16.2797 9.92785 16.2797C10.3337 16.2797 10.7405 16.33 11.1443 16.4176C11.6477 15.6769 12.2623 15.0238 12.9213 14.423C12.9705 14.3777 13.0227 14.3314 13.0759 14.289C13.0927 14.2762 13.1084 14.2614 13.1271 14.2457C13.5635 13.8724 14.0294 13.5256 14.5268 13.2203C13.1114 12.4786 11.5364 12.0728 9.92785 12.0728C4.45616 12.0728 0 16.524 0 21.9947C0 27.4654 4.45616 31.9157 9.92785 31.9157C11.5029 31.9157 13.0227 31.5798 14.4116 30.8351C14.452 30.8134 14.4943 30.8006 14.5327 30.779C14.6401 30.7277 14.7386 30.6647 14.843 30.6056C16.1728 29.855 17.2917 28.7863 18.1467 27.5285ZM13.727 14.292C11.4103 16.0778 9.96331 18.9205 9.96331 22.0627C9.96331 23.8977 10.4637 25.6116 11.3334 27.0891C12.7676 26.6912 13.9861 25.6914 14.6559 24.3558C14.3476 23.6505 14.1722 22.8812 14.1722 22.0627C14.1722 18.9146 16.7382 16.3506 19.8882 16.3506C20.2753 16.3506 21.1264 16.4688 21.4248 16.5132C22.4453 15.4257 23.9543 13.7916 24.4153 13.2479C23.0205 12.5298 21.4652 12.1407 19.8882 12.1407C18.2797 12.1407 16.7588 12.5298 15.4123 13.2134L15.4478 13.2301L15.109 13.4084C14.6214 13.6675 14.1604 13.9581 13.727 14.292Z" fill="#173A79"/>
</svg>
