<svg width="40" height="40" viewBox="0 0 40 40" fill="none" xmlns="http://www.w3.org/2000/svg">
<path d="M5.89999 5.8L9.99999 9.9C12.7 7.3 16.3 5.7 20.1 5.7C23.9 5.7 27.5 7.2 30.2 9.9L34.3 5.8C30.5 2.1 25.3 0 20.1 0C14.8 0 9.69999 2.1 5.89999 5.8Z" fill="#B91C6B"/>
<path d="M15.3 27.1C16.7 28 18.4 28.5 20 28.5C22.3 28.5 24.4 27.6 26.1 26C27.7 24.4 28.6 22.2 28.6 20C28.6 18.3 28.1 16.6 27.2 15.2C26.3 13.8 24.9 12.7 23.4 12.1C21.9 11.5 20.1 11.3 18.5 11.6C16.9 11.9 15.3 12.7 14.1 13.9C12.9 15.1 12 16.6 11.7 18.3C11.4 19.9 11.5 21.7 12.2 23.2C12.8 24.8 13.8 26.1 15.3 27.1Z" fill="#106E53"/>
<path d="M33.2 25.5C32.5 27.2 31.5 28.9 30.1 30.2C28.8 31.5 27.2 32.5 25.5 33.2C23.8 33.9 21.9 34.3 20.1 34.3C18.3 34.3 16.4 33.9 14.7 33.2C13 32.5 11.4 31.5 10.1 30.2C8.8 28.9 7.7 27.2 7 25.5C6.3 23.8 5.8 21.9 5.8 20H0C0 25.3 2.2 30.4 5.8 34.1C9.6 37.9 14.7 40 20 40C25.3 40 30.4 37.9 34.2 34.1C38 30.3 40 25.3 40 20H34.3C34.4 21.8 33.9 23.8 33.2 25.5Z" fill="#106E53"/>
</svg>
