<?xml version="1.0" encoding="UTF-8"?>
<svg version="1.1" xmlns="http://www.w3.org/2000/svg" width="150" height="141">
<path d="M0 0 C49.5 0 99 0 150 0 C150 46.53 150 93.06 150 141 C100.5 141 51 141 0 141 C0 94.47 0 47.94 0 0 Z " fill="#DDF4F5" transform="translate(0,0)"/>
<path d="M0 0 C49.5 0 99 0 150 0 C150 37.95 150 75.9 150 115 C149.34 114.67 148.68 114.34 148 114 C148 113.34 148 112.68 148 112 C147.43023437 111.97292969 146.86046875 111.94585937 146.2734375 111.91796875 C142.74169811 110.49192278 141.46295883 107.47575598 139.625 104.3125 C138.75699867 102.86611158 137.88709202 101.42086544 137.015625 99.9765625 C136.54189453 99.18668945 136.06816406 98.39681641 135.58007812 97.58300781 C133.84197741 94.74167506 132.04552506 91.94374933 130.234375 89.1484375 C129.5954834 88.16061279 128.9565918 87.17278809 128.29833984 86.1550293 C127.02665348 84.19293894 125.75099915 82.23341406 124.47119141 80.27661133 C123.59986572 78.92345825 123.59986572 78.92345825 122.7109375 77.54296875 C122.18806152 76.73883545 121.66518555 75.93470215 121.12646484 75.10620117 C120 73 120 73 120 70 C119.34 70 118.68 70 118 70 C117.56171875 69.20980469 117.1234375 68.41960937 116.671875 67.60546875 C111.67880316 58.72551376 106.33809467 50.10809662 100.8671875 41.515625 C98.58297969 37.92806634 96.33972332 34.31850562 94.125 30.6875 C88.2205711 21.03941193 82.0887794 11.53232813 76 2 C72.55203053 6.12467376 69.64308938 10.48192079 66.75 15 C66.26184814 15.75837158 65.77369629 16.51674316 65.27075195 17.2980957 C61.87602335 22.58851663 58.56666678 27.92680393 55.29296875 33.29296875 C52.25660583 38.23389558 49.12023134 43.11181504 46 48 C41.62047516 54.86299736 37.28470412 61.74481389 33.0390625 68.69140625 C28.95534222 75.31767269 24.77241345 81.88202139 20.60839844 88.45800781 C18.94771688 91.08263082 17.28985354 93.70901471 15.6328125 96.3359375 C15.0872168 97.2007373 14.54162109 98.06553711 13.97949219 98.95654297 C12.93045055 100.61949424 11.88161385 102.2825748 10.83300781 103.94580078 C10.12289551 105.07091064 10.12289551 105.07091064 9.3984375 106.21875 C8.98255371 106.87810547 8.56666992 107.53746094 8.13818359 108.21679688 C7.1122109 109.82419811 6.05777105 111.41334342 5 113 C4.01 113 3.02 113 2 113 C2 113.66 2 114.32 2 115 C1.34 115 0.68 115 0 115 C0 77.05 0 39.1 0 0 Z " fill="#FEFEFE" transform="translate(0,0)"/>
<path d="M0 0 C4.16918997 3.60683412 6.47644852 8.00393162 9.125 12.75 C12.67301019 18.99688315 16.28524823 25.17769389 20.125 31.25 C24.02171976 37.42259909 27.82248754 43.64306459 31.55859375 49.9140625 C33.41061563 53.02234006 35.28236081 56.11816404 37.16015625 59.2109375 C37.7030127 60.10780273 38.24586914 61.00466797 38.80517578 61.92871094 C39.87235214 63.69148325 40.94222896 65.45262428 42.01513672 67.21191406 C42.50385254 68.02112305 42.99256836 68.83033203 43.49609375 69.6640625 C43.93107178 70.38029785 44.3660498 71.0965332 44.81420898 71.83447266 C46.08837678 74.16139634 47.0617876 76.52072962 48 79 C47.33057373 78.91435791 46.66114746 78.82871582 45.97143555 78.74047852 C42.87704604 78.34578462 39.78227886 77.95412887 36.6875 77.5625 C35.1087207 77.36043945 35.1087207 77.36043945 33.49804688 77.15429688 C8.10710794 73.95113227 -16.11336038 74.47301631 -41.328125 78.6328125 C-44 79 -44 79 -48 79 C-46.30918928 73.99718946 -43.47256202 69.83860534 -40.625 65.4375 C-36.30618281 58.68738743 -32.09470261 51.88832903 -28 45 C-22.63974115 35.99991855 -17.0791031 27.13909773 -11.45800781 18.30029297 C-9.03782419 14.48197916 -6.64332771 10.64768484 -4.25 6.8125 C-3.60393799 5.77754395 -3.60393799 5.77754395 -2.94482422 4.72167969 C-1.96282019 3.14803348 -0.98134377 1.57405804 0 0 Z " fill="#0583AE" transform="translate(75,31)"/>
<path d="M0 0 C4.5284861 4.07890716 7.34377483 8.55658407 10.375 13.8125 C11.43150227 15.60930433 12.49019561 17.40482165 13.55078125 19.19921875 C14.10846191 20.1432959 14.66614258 21.08737305 15.24072266 22.06005859 C18.27351684 27.12818343 21.41979021 32.12456223 24.5625 37.125 C34.0215354 52.21559637 34.0215354 52.21559637 38.4375 59.375 C38.90422119 60.12410645 39.37094238 60.87321289 39.85180664 61.64501953 C43 66.7690842 43 66.7690842 43 69 C43.66 69 44.32 69 45 69 C45.32871094 69.63164063 45.65742187 70.26328125 45.99609375 70.9140625 C49.88292247 78.22424986 54.24741675 85.14945404 58.75732422 92.08056641 C60.96835845 95.4957238 63.14463514 98.93232406 65.3125 102.375 C65.72081055 103.01655029 66.12912109 103.65810059 66.54980469 104.3190918 C69.33541438 108.75329261 71.71657425 113.28684205 74 118 C72.45737855 117.71342606 70.91594394 117.42046123 69.375 117.125 C68.51648438 116.96257812 67.65796875 116.80015625 66.7734375 116.6328125 C65.85820312 116.42398438 64.94296875 116.21515625 64 116 C62.9790625 115.77699219 61.958125 115.55398437 60.90625 115.32421875 C56.97710148 113.53392124 56.09585486 111.48964274 54.125 107.6875 C53.44354936 106.41161346 52.75990133 105.13689847 52.07421875 103.86328125 C51.56060791 102.89382568 51.56060791 102.89382568 51.03662109 101.90478516 C49.45043477 98.99017713 47.69608136 96.18804987 45.9375 93.375 C43.37050652 89.24374486 40.86930949 85.08724144 38.4375 80.875 C36.32897566 77.23343223 34.16340311 73.65600037 31.875 70.125 C27.82813686 63.83388536 24.06963435 57.37798881 20.2800293 50.9296875 C13.97139217 40.21468771 7.4922458 29.60444223 1 19 C-3.53436873 25.32050922 -7.75253117 31.72933441 -11.6875 38.4375 C-15.65476997 45.12609462 -19.69642051 51.75382281 -23.875 58.3125 C-28.43045352 65.46363418 -32.86257885 72.68212359 -37.25 79.9375 C-41.47768083 86.92782375 -45.77605512 93.8139048 -50.3984375 100.55078125 C-52.41543252 103.63530778 -54.09906821 106.84246961 -55.69921875 110.16015625 C-58.68247159 114.37971207 -63.5767228 115.67829628 -68.3125 117.1875 C-69.38113281 117.53167969 -70.44976562 117.87585938 -71.55078125 118.23046875 C-72.35902344 118.48441406 -73.16726562 118.73835938 -74 119 C-72.74659546 115.67469301 -71.33271224 112.70507464 -69.453125 109.69140625 C-68.69068481 108.46357422 -68.69068481 108.46357422 -67.9128418 107.2109375 C-67.364104 106.33695312 -66.81536621 105.46296875 -66.25 104.5625 C-65.67870361 103.64597656 -65.10740723 102.72945313 -64.51879883 101.78515625 C-59.68828807 94.05318741 -54.79225574 86.362911 -49.88623047 78.67871094 C-46.21944437 72.93233183 -42.61280928 67.15652766 -39.05859375 61.33984375 C-32.74072015 51.08978316 -26.24703402 40.94653871 -19.76953125 30.796875 C-18.38243878 28.60447278 -17.0060289 26.4066126 -15.63671875 24.203125 C-10.5612045 16.03702675 -5.39671841 7.95940593 0 0 Z " fill="#0D84AC" transform="translate(75,1)"/>
<path d="M0 0 C1.06556122 0.00282486 1.06556122 0.00282486 2.15264893 0.00570679 C28.12827888 0.08658101 53.94772023 2.51635446 78.3125 12.125 C78.3125 17.735 78.3125 23.345 78.3125 29.125 C74.56769043 28.37603809 72.46006666 27.8522943 69.22265625 26.2578125 C63.88669998 23.81643883 58.43710199 22.38960863 52.75 21 C51.77998047 20.74863281 50.80996094 20.49726563 49.81054688 20.23828125 C34.37466693 16.4019077 19.134638 15.71723585 3.3125 15.75 C1.89484344 15.75031723 1.89484344 15.75031723 0.44854736 15.75064087 C-14.27094051 15.78346562 -28.34812225 16.51204196 -42.6875 20.125 C-43.50299316 20.32818848 -44.31848633 20.53137695 -45.15869141 20.74072266 C-53.33048858 22.84006608 -61.05109584 25.50775593 -68.6875 29.125 C-69.3475 29.125 -70.0075 29.125 -70.6875 29.125 C-70.6875 23.185 -70.6875 17.245 -70.6875 11.125 C-56.13215723 6.80221716 -41.80328312 2.82683183 -26.6875 1.125 C-25.88562256 1.0307373 -25.08374512 0.93647461 -24.25756836 0.83935547 C-16.17910317 -0.01148316 -8.11300588 -0.03248415 0 0 Z " fill="#0584AE" transform="translate(71.6875,110.875)"/>
<path d="M0 0 C0.91898071 -0.00199402 1.83796143 -0.00398804 2.78479004 -0.00604248 C18.75385362 -0.00212343 33.91335658 1.22713227 49.4375 5.25 C50.43458984 5.49363281 51.43167969 5.73726562 52.45898438 5.98828125 C58.63900538 7.55458992 64.25255741 9.63546611 70 12.375 C71.66194738 13.05334587 73.32598903 13.72699575 75 14.375 C75 14.705 75 15.035 75 15.375 C28.47 15.375 -18.06 15.375 -66 15.375 C-66.33 14.715 -66.66 14.055 -67 13.375 C-65.35 13.375 -63.7 13.375 -62 13.375 C-61.67 12.385 -61.34 11.395 -61 10.375 C-42.77839621 -0.15366167 -20.37262989 0.01173088 0 0 Z " fill="#FBFDFC" transform="translate(75,125.625)"/>
<path d="M0 0 C0.70705078 0.0015509 1.41410156 0.00310181 2.14257812 0.00469971 C30.56200578 0.07797056 30.56200578 0.07797056 40.3125 3.125 C39.6525 3.455 38.9925 3.785 38.3125 4.125 C38.3125 4.785 38.3125 5.445 38.3125 6.125 C36.54300388 6.62971197 34.77184777 7.12860685 33 7.625 C31.52080078 8.04265625 31.52080078 8.04265625 30.01171875 8.46875 C27.3125 9.125 27.3125 9.125 24.3125 9.125 C24.3125 8.465 24.3125 7.805 24.3125 7.125 C16.22701181 7.07827257 8.14158181 7.04292861 0.05599117 7.02137566 C-3.70010779 7.01102157 -7.45611311 6.99701941 -11.2121582 6.97412109 C-14.84967888 6.9520889 -18.48711057 6.94036878 -22.12469292 6.93524551 C-23.49947952 6.93160337 -24.87426231 6.92449498 -26.24901009 6.91353989 C-42.99209845 6.3699184 -42.99209845 6.3699184 -58.6875 11.125 C-58.3575 12.115 -58.0275 13.105 -57.6875 14.125 C-56.0375 14.455 -54.3875 14.785 -52.6875 15.125 C-52.6875 15.785 -52.6875 16.445 -52.6875 17.125 C-51.511875 17.0940625 -51.511875 17.0940625 -50.3125 17.0625 C-47.6875 17.125 -47.6875 17.125 -45.6875 18.125 C-43.68789988 18.164992 -41.68702758 18.16846799 -39.6875 18.125 C-39.6875 17.465 -39.6875 16.805 -39.6875 16.125 C-37.0475 15.795 -34.4075 15.465 -31.6875 15.125 C-31.6875 14.795 -31.6875 14.465 -31.6875 14.125 C-24.0449929 14.07813432 -16.40250116 14.04286099 -8.75988197 14.02137566 C-5.20900938 14.01105061 -1.65823688 13.99710506 1.89257812 13.97412109 C43.6915513 13.7110342 43.6915513 13.7110342 50.3125 18.125 C52.13010538 18.6607448 53.96697243 19.13268634 55.8125 19.5625 C60.95568915 20.77486779 65.99245063 22.19229733 71.03515625 23.76953125 C73.58660111 24.43076561 73.58660111 24.43076561 76.3125 22.125 C76.6425 23.445 76.9725 24.765 77.3125 26.125 C77.3125 21.505 77.3125 16.885 77.3125 12.125 C77.6425 12.125 77.9725 12.125 78.3125 12.125 C78.3125 17.735 78.3125 23.345 78.3125 29.125 C74.56769043 28.37603809 72.46006666 27.8522943 69.22265625 26.2578125 C63.88669998 23.81643883 58.43710199 22.38960863 52.75 21 C51.77998047 20.74863281 50.80996094 20.49726563 49.81054688 20.23828125 C34.37466693 16.4019077 19.134638 15.71723585 3.3125 15.75 C1.89484344 15.75031723 1.89484344 15.75031723 0.44854736 15.75064087 C-14.27094051 15.78346562 -28.34812225 16.51204196 -42.6875 20.125 C-43.50299316 20.32818848 -44.31848633 20.53137695 -45.15869141 20.74072266 C-53.33048858 22.84006608 -61.05109584 25.50775593 -68.6875 29.125 C-69.3475 29.125 -70.0075 29.125 -70.6875 29.125 C-70.6875 23.185 -70.6875 17.245 -70.6875 11.125 C-56.13215723 6.80221716 -41.80328312 2.82683183 -26.6875 1.125 C-25.88562256 1.0307373 -25.08374512 0.93647461 -24.25756836 0.83935547 C-16.17896724 -0.01149748 -8.11309021 -0.03146259 0 0 Z " fill="#1084AB" transform="translate(71.6875,110.875)"/>
<path d="M0 0 C4.56719863 4.1046975 7.38699911 8.6410032 10.4375 13.9375 C15.05847567 21.80819819 19.83217332 29.56114175 24.75 37.25 C25.37060303 38.2205835 25.99120605 39.19116699 26.63061523 40.19116211 C28.08496883 42.46213905 29.54125001 44.73184546 31 47 C30.01 47.33 29.02 47.66 28 48 C26 45 26 45 26 42 C25.01 41.67 24.02 41.34 23 41 C22.67 40.01 22.34 39.02 22 38 C21.319375 37.38125 20.63875 36.7625 19.9375 36.125 C18 34 18 34 17.75 31.25 C17.8325 30.5075 17.915 29.765 18 29 C17.01 29.33 16.02 29.66 15 30 C15 29.01 15 28.02 15 27 C13.68 27.33 12.36 27.66 11 28 C11.0825 26.7625 11.165 25.525 11.25 24.25 C11.2737948 20.89493302 11.19641677 20.24552096 9 17.5 C8.34 17.005 7.68 16.51 7 16 C6.71161086 21.57552338 6.821656 25.17362578 10 30 C10.99 30.33 11.98 30.66 13 31 C13.94921875 33.50390625 13.94921875 33.50390625 14.6875 36.5625 C14.93886719 37.57441406 15.19023438 38.58632813 15.44921875 39.62890625 C15.63097656 40.41136719 15.81273438 41.19382813 16 42 C13.48068622 39.68981213 11.82082281 37.26741055 10.08203125 34.33203125 C9.55029297 33.43935547 9.01855469 32.54667969 8.47070312 31.62695312 C7.92349609 30.69818359 7.37628906 29.76941406 6.8125 28.8125 C6.25369141 27.87212891 5.69488281 26.93175781 5.11914062 25.96289062 C3.74208727 23.64426232 2.36921759 21.32326125 1 19 C-0.98 21.97 -0.98 21.97 -3 25 C-4.27162597 21.1851221 -3.64661571 19.6068725 -2 16 C0.18096612 15.04582732 1.64182234 15 4 15 C4.33321661 10.07202436 4.33321661 10.07202436 2.625 5.5625 C1.13544499 3.76896376 1.13544499 3.76896376 -1 4 C-1.2578125 4.53109375 -1.515625 5.0621875 -1.78125 5.609375 C-3.27444603 8.53833644 -4.87183818 11.39381782 -6.5 14.25 C-7.1084375 15.32765625 -7.716875 16.4053125 -8.34375 17.515625 C-8.8903125 18.33546875 -9.436875 19.1553125 -10 20 C-10.66 20 -11.32 20 -12 20 C-10.37885498 15.20178341 -7.70723241 11.3327141 -4.875 7.1875 C-4.40707031 6.49462891 -3.93914062 5.80175781 -3.45703125 5.08789062 C-2.30887563 3.38908895 -1.15500633 1.69415136 0 0 Z " fill="#20819D" transform="translate(75,1)"/>
<path d="M0 0 C0.33 0 0.66 0 1 0 C1 5.61 1 11.22 1 17 C-2.74480957 16.25103809 -4.85243334 15.7272943 -8.08984375 14.1328125 C-13.42580002 11.69143883 -18.87539801 10.26460863 -24.5625 8.875 C-25.53251953 8.62363281 -26.50253906 8.37226563 -27.50195312 8.11328125 C-42.94029842 4.27629498 -58.17617103 3.59844238 -74 3.625 C-74.94111633 3.62388214 -75.88223267 3.62276428 -76.85186768 3.62161255 C-91.60649865 3.63023182 -105.58338874 4.65137215 -120 8 C-121.66577316 8.33777013 -123.33189702 8.67393049 -125 9 C-124.34 8.01 -123.68 7.02 -123 6 C-119.875 5.8125 -119.875 5.8125 -117 6 C-117 5.34 -117 4.68 -117 4 C-114.36 3.67 -111.72 3.34 -109 3 C-109 2.67 -109 2.34 -109 2 C-101.3574929 1.95313432 -93.71500116 1.91786099 -86.07238197 1.89637566 C-82.52150938 1.88605061 -78.97073688 1.87210506 -75.41992188 1.84912109 C-33.6209487 1.5860342 -33.6209487 1.5860342 -27 6 C-25.18239462 6.5357448 -23.34552757 7.00768634 -21.5 7.4375 C-16.35681085 8.64986779 -11.32004937 10.06729733 -6.27734375 11.64453125 C-3.72589889 12.30576561 -3.72589889 12.30576561 -1 10 C-0.505 11.98 -0.505 11.98 0 14 C0 9.38 0 4.76 0 0 Z " fill="#2785A6" transform="translate(149,123)"/>
<path d="M0 0 C2.99876322 2.80319171 5.16322727 5.59434917 7.25 9.125 C8.03117187 10.42824219 8.03117187 10.42824219 8.828125 11.7578125 C10 14 10 14 10 16 C9.33057373 15.91435791 8.66114746 15.82871582 7.97143555 15.74047852 C4.87704604 15.34578462 1.78227886 14.95412887 -1.3125 14.5625 C-2.36501953 14.42779297 -3.41753906 14.29308594 -4.50195312 14.15429688 C-29.89289206 10.95113227 -54.11336038 11.47301631 -79.328125 15.6328125 C-82 16 -82 16 -86 16 C-85.34 14.35 -84.68 12.7 -84 11 C-83.67 11.66 -83.34 12.32 -83 13 C-79.0300872 12.59667234 -75.06081052 12.18762439 -71.09204102 11.77319336 C-69.7409679 11.63293399 -68.38972952 11.49425733 -67.03833008 11.35717773 C-65.09934768 11.16022206 -63.16098873 10.9571585 -61.22265625 10.75390625 C-60.05484619 10.63345947 -58.88703613 10.5130127 -57.68383789 10.38891602 C-55.08633119 10.28579436 -55.08633119 10.28579436 -54 9 C-51.26105915 8.91141354 -48.5474673 8.88476521 -45.80859375 8.90234375 C-44.98875504 8.9037587 -44.16891632 8.90517365 -43.32423401 8.90663147 C-40.69528618 8.91224711 -38.06642227 8.92480221 -35.4375 8.9375 C-33.65950643 8.94251299 -31.88151154 8.94707624 -30.10351562 8.95117188 C-25.73564455 8.96222161 -21.36783652 8.97949669 -17 9 C-17 9.66 -17 10.32 -17 11 C-16.14728516 10.98259766 -16.14728516 10.98259766 -15.27734375 10.96484375 C-10.39329516 10.90776806 -5.81496035 11.18043228 -1 12 C-0.67 11.01 -0.34 10.02 0 9 C0.433125 9.474375 0.86625 9.94875 1.3125 10.4375 C3.02309613 12.23686957 3.02309613 12.23686957 6 13 C5.505 12.236875 5.01 11.47375 4.5 10.6875 C3 8 3 8 3 5 C2.34 5 1.68 5 1 5 C0.505 2.525 0.505 2.525 0 0 Z " fill="#1E7D99" transform="translate(113,94)"/>
<path d="M0 0 C0.99 0.33 1.98 0.66 3 1 C3 1.66 3 2.32 3 3 C3.99 3 4.98 3 6 3 C6.2475 3.9075 6.495 4.815 6.75 5.75 C8.07208945 9.18743257 9.36250153 10.52234992 12 13 C14.30850875 16.0249425 15.02569448 17.34479083 14.875 21.1875 C14 24 14 24 11 26 C10 23 10 23 10 21 C9.34 21.33 8.68 21.66 8 22 C8 21.34 8 20.68 8 20 C7.34 20 6.68 20 6 20 C6 19.34 6 18.68 6 18 C5.39671875 17.92007813 4.7934375 17.84015625 4.171875 17.7578125 C0.57178568 16.50166622 -0.33155307 13.6747839 -2.02734375 10.43359375 C-3.38478437 7.03726642 -3.38404767 4.61004805 -3 1 C-2.01 1.33 -1.02 1.66 0 2 C0 1.34 0 0.68 0 0 Z " fill="#0A83A9" transform="translate(122,83)"/>
<path d="M0 0 C0.88579742 -0.00095673 1.77159485 -0.00191345 2.68423462 -0.00289917 C4.55853344 -0.003578 6.43283464 -0.00174444 8.30712891 0.00244141 C11.12017377 0.00772999 13.93305425 0.0025196 16.74609375 -0.00390625 C27.46889006 -0.00745708 38.09684062 0.2962619 48.7890625 1.1328125 C48.7890625 1.7928125 48.7890625 2.4528125 48.7890625 3.1328125 C44.29667961 4.25994563 39.90025671 4.2646909 35.30078125 4.2265625 C34.47188889 4.22297729 33.64299652 4.21939209 32.78898621 4.21569824 C23.05705646 4.15429196 13.32964308 3.89845605 3.6015625 3.6328125 C1.76107366 3.5844085 -0.07942113 3.53623049 -1.91992188 3.48828125 C-6.35033302 3.37238095 -10.78065369 3.25347796 -15.2109375 3.1328125 C-15.2109375 2.4728125 -15.2109375 1.8128125 -15.2109375 1.1328125 C-10.09392036 0.09498042 -5.19435087 -0.01255413 0 0 Z " fill="#F5FCF8" transform="translate(63.2109375,106.8671875)"/>
<path d="M0 0 C2.87617106 2.96605141 3.94314518 4.52079505 4.4375 8.6875 C4.293125 9.780625 4.14875 10.87375 4 12 C3.01 12.66 2.02 13.32 1 14 C-0.32 13.67 -1.64 13.34 -3 13 C-3.66 15.97 -4.32 18.94 -5 22 C-6.32 22.33 -7.64 22.66 -9 23 C-9.33 23.66 -9.66 24.32 -10 25 C-10.33 24.01 -10.66 23.02 -11 22 C-12.32 22.33 -13.64 22.66 -15 23 C-14.34 21.02 -13.68 19.04 -13 17 C-12.34 17 -11.68 17 -11 17 C-10.7421875 16.29359375 -10.484375 15.5871875 -10.21875 14.859375 C-8.9010213 11.76778074 -7.30653164 9.08227419 -5.5 6.25 C-4.58734375 4.80367187 -4.58734375 4.80367187 -3.65625 3.328125 C-2 1 -2 1 0 0 Z " fill="#0585AB" transform="translate(76,4)"/>
<path d="M0 0 C3 1 3 1 5 4 C5.125 7.1875 5.125 7.1875 5 10 C5.99 10.33 6.98 10.66 8 11 C8.33 11.66 8.66 12.32 9 13 C9.66 13 10.32 13 11 13 C11 13.99 11 14.98 11 16 C11.66 16.33 12.32 16.66 13 17 C13 17.99 13 18.98 13 20 C13.99 20.66 14.98 21.32 16 22 C16.33 22.99 16.66 23.98 17 25 C17.66 25.33 18.32 25.66 19 26 C20.05352843 28.30965848 21.05719096 30.6429774 22 33 C21.34 33.66 20.68 34.32 20 35 C17 33 17 33 16.3125 29.875 C16.209375 28.92625 16.10625 27.9775 16 27 C14.35 27.33 12.7 27.66 11 28 C11 27.34 11 26.68 11 26 C10.34 26 9.68 26 9 26 C6 19.5 6 19.5 6 15 C5.401875 14.95875 4.80375 14.9175 4.1875 14.875 C2 14 2 14 0.1875 11.4375 C-1.3295718 7.04597637 -0.85799828 4.52399095 0 0 Z " fill="#0487B0" transform="translate(82,17)"/>
<path d="M0 0 C4.41863186 3.77534655 6.95853841 8.65190698 9.8125 13.625 C10.32748047 14.49640625 10.84246094 15.3678125 11.37304688 16.265625 C12.09524414 17.51472656 12.09524414 17.51472656 12.83203125 18.7890625 C13.27264893 19.54912598 13.7132666 20.30918945 14.16723633 21.09228516 C14.44204834 21.72183105 14.71686035 22.35137695 15 23 C14.67 23.66 14.34 24.32 14 25 C13.01 24.67 12.02 24.34 11 24 C10.67 23.34 10.34 22.68 10 22 C9.01 21.67 8.02 21.34 7 21 C7.061875 19.9275 7.12375 18.855 7.1875 17.75 C6.99456691 13.89133813 6.60334924 12.71182212 4 10 C2.68 12.31 1.36 14.62 0 17 C-0.99 17 -1.98 17 -3 17 C-3 14 -3 14 -1.5 12.3125 C-1.005 11.879375 -0.51 11.44625 0 11 C-2.42919865 10.86559222 -2.42919865 10.86559222 -5 12 C-6.04268336 13.95393605 -6.68696176 15.87321027 -7.32421875 17.9921875 C-8 20 -8 20 -10 23 C-10.33 23.66 -10.66 24.32 -11 25 C-11.66 25 -12.32 25 -13 25 C-12.67777402 18.65942435 -9.32189723 14.26154803 -5.9375 9.125 C-5.08575195 7.80628906 -5.08575195 7.80628906 -4.21679688 6.4609375 C-2.82007259 4.30129658 -1.41436845 2.14810985 0 0 Z " fill="#0983A5" transform="translate(75,31)"/>
<path d="M0 0 C0.66 0.33 1.32 0.66 2 1 C1.34 3.31 0.68 5.62 0 8 C-0.99 8 -1.98 8 -3 8 C-3 8.99 -3 9.98 -3 11 C-2.01 11 -1.02 11 0 11 C-0.33 12.65 -0.66 14.3 -1 16 C-1.33 15.34 -1.66 14.68 -2 14 C-2.66 14 -3.32 14 -4 14 C-3.46375 14.886875 -2.9275 15.77375 -2.375 16.6875 C-1 20 -1 20 -1.5625 22.5 C-3.24751056 25.43045314 -5.06602076 28.22796309 -7 31 C-7.33 29.68 -7.66 28.36 -8 27 C-7.34 26.67 -6.68 26.34 -6 26 C-5.34227572 22.97065509 -5.34227572 22.97065509 -5 20 C-10.28949604 21.90879125 -10.28949604 21.90879125 -14.09375 25.7890625 C-14.74862921 27.5187978 -15.37584702 29.25894169 -16 31 C-16.99 31.33 -17.98 31.66 -19 32 C-17.51622875 26.52212357 -14.86322334 22.34878077 -11.75 17.6875 C-11.25781982 16.93927979 -10.76563965 16.19105957 -10.25854492 15.42016602 C-8.84568464 13.27560852 -7.42417887 11.13705168 -6 9 C-5.32066406 7.97390625 -4.64132813 6.9478125 -3.94140625 5.890625 C-2.63443923 3.92233893 -1.32214226 1.95810943 0 0 Z " fill="#177FA3" transform="translate(56,31)"/>
<path d="M0 0 C8.75 -0.125 8.75 -0.125 11 1 C11.6875 2.9375 11.6875 2.9375 12 5 C11.67 5.66 11.34 6.32 11 7 C13.64 7 16.28 7 19 7 C16.37238206 10.35021287 13.56442432 10.82243671 9.5 11.6875 C7.78296875 12.06455078 7.78296875 12.06455078 6.03125 12.44921875 C3 13 3 13 0 13 C0 8.71 0 4.42 0 0 Z " fill="#0780A7" transform="translate(1,123)"/>
<path d="M0 0 C0 0.66 0 1.32 0 2 C-4.29 2.99 -8.58 3.98 -13 5 C-13 6.32 -13 7.64 -13 9 C-11.35 9.33 -9.7 9.66 -8 10 C-8 10.66 -8 11.32 -8 12 C-6.35 12 -4.7 12 -3 12 C-2.67 12.99 -2.34 13.98 -2 15 C-2.58265625 15.23074219 -3.1653125 15.46148437 -3.765625 15.69921875 C-9.72284588 18.06899372 -15.63671093 20.52498457 -21.53125 23.046875 C-24 24 -24 24 -26 24 C-26 22.68 -26 21.36 -26 20 C-24.30230469 19.58427734 -24.30230469 19.58427734 -22.5703125 19.16015625 C-21.08851098 18.79439512 -19.60674182 18.42850289 -18.125 18.0625 C-17.37863281 17.88009766 -16.63226563 17.69769531 -15.86328125 17.50976562 C-11.82960875 16.54790308 -11.82960875 16.54790308 -8 15 C-10.31 14.67 -12.62 14.34 -15 14 C-15 12.02 -15 10.04 -15 8 C-18.3 8 -21.6 8 -25 8 C-25.33 7.34 -25.66 6.68 -26 6 C-22.41896026 4.9916593 -18.83482575 3.99478914 -15.25 3 C-14.23421875 2.71382813 -13.2184375 2.42765625 -12.171875 2.1328125 C-11.1921875 1.86210938 -10.2125 1.59140625 -9.203125 1.3125 C-8.30239258 1.06113281 -7.40166016 0.80976562 -6.47363281 0.55078125 C-4 0 -4 0 0 0 Z " fill="#0B7EA7" transform="translate(27,116)"/>
<path d="M0 0 C1.12752716 3.38258148 0.87098905 4.32595291 -0.1875 7.625 C-0.42855469 8.42164062 -0.66960938 9.21828125 -0.91796875 10.0390625 C-2 12 -2 12 -4.11328125 12.7734375 C-4.73589844 12.84820312 -5.35851563 12.92296875 -6 13 C-6.1546875 13.928125 -6.1546875 13.928125 -6.3125 14.875 C-7 17 -7 17 -10 19 C-11.07136051 21.30144109 -12.07989717 23.6340213 -13 26 C-10.00847418 25.22520264 -10.00847418 25.22520264 -7 24 C-6.67 23.01 -6.34 22.02 -6 21 C-5.3400321 19.33066942 -4.67441131 17.6635479 -4 16 C-3.01 16 -2.02 16 -1 16 C-0.34 15.34 0.32 14.68 1 14 C1.99 15.485 1.99 15.485 3 17 C0.21401923 22.58582214 -2.97075459 25.3455854 -8.78686523 27.35083008 C-11.84340197 28.30106171 -14.90539625 29.18107178 -18 30 C-16.66888956 26.42848545 -15.07811922 23.29313116 -13.06640625 20.05859375 C-12.49986328 19.14529297 -11.93332031 18.23199219 -11.34960938 17.29101562 C-10.75986328 16.34935547 -10.17011719 15.40769531 -9.5625 14.4375 C-8.68368164 13.01920898 -8.68368164 13.01920898 -7.78710938 11.57226562 C-5.3148395 7.6014803 -2.8554698 3.70907358 0 0 Z " fill="#298398" transform="translate(19,90)"/>
<path d="M0 0 C0.66 0 1.32 0 2 0 C2 0.66 2 1.32 2 2 C3.65 1.34 5.3 0.68 7 0 C7.28875 0.94875 7.5775 1.8975 7.875 2.875 C8.76825109 6.05211578 8.76825109 6.05211578 11 8 C12.32 7.34 13.64 6.68 15 6 C15.66 7.65 16.32 9.3 17 11 C14.69 10.67 12.38 10.34 10 10 C10.33 11.98 10.66 13.96 11 16 C12.65 16 14.3 16 16 16 C16.144375 16.61875 16.28875 17.2375 16.4375 17.875 C16.93152225 20.03258322 16.93152225 20.03258322 18 22 C17.34 22 16.68 22 16 22 C16.66 23.98 17.32 25.96 18 28 C14.58816079 26.86272026 14.38132458 26.44297745 12.6953125 23.46484375 C12.27636719 22.73716797 11.85742188 22.00949219 11.42578125 21.25976562 C10.99652344 20.49341797 10.56726563 19.72707031 10.125 18.9375 C9.27455781 17.44597524 8.42299778 15.9550873 7.5703125 14.46484375 C7.15168945 13.72733887 6.73306641 12.98983398 6.30175781 12.22998047 C4.59448174 9.30532563 2.76735698 6.46468161 0.91357422 3.63110352 C0 2 0 2 0 0 Z " fill="#127FA1" transform="translate(91,43)"/>
<path d="M0 0 C0.66 0 1.32 0 2 0 C1.34 1.98 0.68 3.96 0 6 C4.95 4.35 9.9 2.7 15 1 C15 1.66 15 2.32 15 3 C14.01 3.33 13.02 3.66 12 4 C12.66 4.66 13.32 5.32 14 6 C12.25183142 6.50636607 10.50137737 7.00484619 8.75 7.5 C7.77546875 7.7784375 6.8009375 8.056875 5.796875 8.34375 C3 9 3 9 -1 9 C-1 14.94 -1 20.88 -1 27 C3.33837535 25.11827584 3.33837535 25.11827584 7.67431641 23.23095703 C18.86068409 18.40795542 18.86068409 18.40795542 23 20 C22.21753906 20.26554687 21.43507813 20.53109375 20.62890625 20.8046875 C19.61699219 21.15789062 18.60507812 21.51109375 17.5625 21.875 C16.55316406 22.22304687 15.54382813 22.57109375 14.50390625 22.9296875 C11.86028249 23.74055093 11.86028249 23.74055093 11 26 C7 28 7 28 -2 28 C-2 19.42 -2 10.84 -2 2 C-1.34 2 -0.68 2 0 2 C0 1.34 0 0.68 0 0 Z " fill="#B3E3F2" transform="translate(2,113)"/>
<path d="M0 0 C0.99 0 1.98 0 3 0 C3 0.66 3 1.32 3 2 C4.32 1.34 5.64 0.68 7 0 C5.45196735 5.76315769 2.51721614 10.37456974 -0.625 15.375 C-1.140625 16.20644531 -1.65625 17.03789063 -2.1875 17.89453125 C-3.45286795 19.93317962 -4.72378866 21.96812882 -6 24 C-7.04702186 20.2735915 -7.07442057 16.86986958 -7 13 C-6.01 12.67 -5.02 12.34 -4 12 C-2.28432339 8.49705129 -2.28432339 8.49705129 -1 5 C-1.99 5.99 -2.98 6.98 -4 8 C-3.40353695 4.65980694 -2.31705841 2.49529367 0 0 Z " fill="#1381A1" transform="translate(39,65)"/>
<path d="M0 0 C9.45918616 0.81544708 19.24328144 2.19774062 28 6 C28 6.33 28 6.66 28 7 C26.20909747 7.19466332 24.41723495 7.38051213 22.625 7.5625 C21.12839844 7.71912109 21.12839844 7.71912109 19.6015625 7.87890625 C17 8 17 8 15 7 C14.67 6.01 14.34 5.02 14 4 C8.06 3.01 8.06 3.01 2 2 C1.67 3.32 1.34 4.64 1 6 C-0.65 6 -2.3 6 -4 6 C-4 6.99 -4 7.98 -4 9 C-7.85645121 9.22036864 -10.49223216 8.60355101 -14 7 C-10.5980513 4.90649311 -7.94727588 4.82057837 -4 5 C-4 4.34 -4 3.68 -4 3 C-2.68 2.34 -1.36 1.68 0 1 C0 0.67 0 0.34 0 0 Z " fill="#0D80A5" transform="translate(116,115)"/>
<path d="M0 0 C2.125 0.9375 2.125 0.9375 4 2 C2.25205871 4.87625633 0.50127392 7.75077181 -1.25 10.625 C-1.74113281 11.43324219 -2.23226563 12.24148437 -2.73828125 13.07421875 C-5.40482642 17.44735283 -8.12089604 21.76360418 -11 26 C-12.10844919 22.67465243 -11.84454356 20.37817425 -11 17 C-9.35 16.67 -7.7 16.34 -6 16 C-5.96261719 15.16855469 -5.92523437 14.33710937 -5.88671875 13.48046875 C-5.82097656 12.39378906 -5.75523438 11.30710937 -5.6875 10.1875 C-5.62949219 9.10855469 -5.57148438 8.02960938 -5.51171875 6.91796875 C-4.96285911 3.78821187 -4.50115509 2.85888316 -2 1 C-1.34 0.67 -0.68 0.34 0 0 Z " fill="#EDF6F5" transform="translate(21,79)"/>
<path d="M0 0 C1 3 1 3 0.15234375 5.12109375 C-0.65704435 6.66439646 -1.46954377 8.20607146 -2.28515625 9.74609375 C-3.23441552 11.98499521 -3.23441552 11.98499521 -2.30859375 14.16015625 C-0.96479734 16.28096525 -0.96479734 16.28096525 2 18 C-0.64 22.29 -3.28 26.58 -6 31 C-8 27 -8 27 -8 25 C-8.66 24.67 -9.32 24.34 -10 24 C-7.3333581 22.66667905 -5.83319697 23.32897967 -3 24 C-3.66 21.03 -4.32 18.06 -5 15 C-5.66 15 -6.32 15 -7 15 C-6.68383092 8.83470299 -3.50784939 4.82731567 0 0 Z " fill="#11839E" transform="translate(30,72)"/>
<path d="M0 0 C5.28 0 10.56 0 16 0 C15.67 0.99 15.34 1.98 15 3 C13.68 2.67 12.36 2.34 11 2 C8.03 6.95 8.03 6.95 5 12 C2.4512479 9.4512479 1.23228596 8.22290174 0 5 C0 3.35 0 1.7 0 0 Z " fill="#F0F8F4" transform="translate(64,0)"/>
<path d="M0 0 C0.33 0 0.66 0 1 0 C1 5.61 1 11.22 1 17 C-2.76088456 16.24782309 -4.87030109 15.71602196 -8.12109375 14.109375 C-13.28665046 11.74026626 -18.53072481 10.47415067 -24.0625 9.25 C-25.02349609 9.02957031 -25.98449219 8.80914062 -26.97460938 8.58203125 C-29.31467871 8.04649299 -31.65629011 7.51932841 -34 7 C-33.34 6.01 -32.68 5.02 -32 4 C-31.29101562 4.30035156 -30.58203125 4.60070312 -29.8515625 4.91015625 C-27.0390696 5.98506792 -24.30189145 6.73930622 -21.375 7.4375 C-16.27903915 8.65952275 -11.27843043 10.08031471 -6.27734375 11.64453125 C-3.72589889 12.30576561 -3.72589889 12.30576561 -1 10 C-0.505 11.98 -0.505 11.98 0 14 C0 9.38 0 4.76 0 0 Z " fill="#2F92AB" transform="translate(149,123)"/>
<path d="M0 0 C13.90219356 0.0408888 26.65657584 3.3382462 40 7 C40 7.33 40 7.66 40 8 C32.25 8.125 32.25 8.125 30 7 C29.67 7.66 29.34 8.32 29 9 C28.01 9 27.02 9 26 9 C25.67 8.34 25.34 7.68 25 7 C22.94623994 6.38634292 22.94623994 6.38634292 20.5625 6 C16.21917808 5.21917808 16.21917808 5.21917808 14 3 C11.93125966 2.3574765 11.93125966 2.3574765 10 2 C10 2.66 10 3.32 10 4 C9.34 4 8.68 4 8 4 C8 3.34 8 2.68 8 2 C5.36 2 2.72 2 0 2 C0 1.34 0 0.68 0 0 Z " fill="#DFF6F6" transform="translate(96,127)"/>
<path d="M0 0 C0.66 0 1.32 0 2 0 C4.67927341 4.01891012 4.15601248 6.24161923 4 11 C-1.60212847 9.82536016 -7.02494296 8.41863047 -12.4921875 6.73046875 C-16.29099553 5.62396236 -20.12839992 4.81178711 -24 4 C-21.63662921 3.35133014 -19.85095812 3.00354862 -17.375 3.0625 C-14.80875196 3.26759225 -14.80875196 3.26759225 -13 1 C-13 1.66 -13 2.32 -13 3 C-8.01716284 4.14051606 -3.05531868 5.22225866 2 6 C1.34 4.02 0.68 2.04 0 0 Z " fill="#CCEEF1" transform="translate(146,112)"/>
<path d="M0 0 C1.625 1.625 1.625 1.625 3 4 C2.3125 7.1875 2.3125 7.1875 1 10 C0.01 10.495 0.01 10.495 -1 11 C-3.00603828 14.47713301 -4.4377929 18.3075105 -6 22 C-6.33 21.34 -6.66 20.68 -7 20 C-7.66 19.67 -8.32 19.34 -9 19 C-9 18.01 -9 17.02 -9 16 C-8.01 15.67 -7.02 15.34 -6 15 C-5.67 14.34 -5.34 13.68 -5 13 C-6.65 13.33 -8.3 13.66 -10 14 C-9.34 12.68 -8.68 11.36 -8 10 C-7.01 10 -6.02 10 -5 10 C-4.690625 9.05125 -4.38125 8.1025 -4.0625 7.125 C-3 4 -3 4 -2 2 C-1.34 2 -0.68 2 0 2 C0 1.34 0 0.68 0 0 Z " fill="#0A87B2" transform="translate(61,29)"/>
<path d="M0 0 C1.65 0.33 3.3 0.66 5 1 C5 5.62 5 10.24 5 15 C3 14 3 14 2 13 C1.01 13.495 1.01 13.495 0 14 C-2.3494053 13.39239518 -4.68529088 12.72870472 -7 12 C-6.01 11.67 -5.02 11.34 -4 11 C-4 10.01 -4 9.02 -4 8 C-2.68 8.33 -1.36 8.66 0 9 C-0.185625 8.2575 -0.37125 7.515 -0.5625 6.75 C-0.99203108 4.05009037 -0.85122974 2.55368923 0 0 Z " fill="#0882AD" transform="translate(144,122)"/>
<path d="M0 0 C2 3.75 2 3.75 2 6 C2.33 6.66 2.66 7.32 3 8 C1.78515625 10.3828125 1.78515625 10.3828125 0.0625 13.125 C-0.50339844 14.03507812 -1.06929687 14.94515625 -1.65234375 15.8828125 C-2.09707031 16.58148438 -2.54179687 17.28015625 -3 18 C-3.66 17.67 -4.32 17.34 -5 17 C-4.67 16.01 -4.34 15.02 -4 14 C-4.33 13.34 -4.66 12.68 -5 12 C-5.33 13.32 -5.66 14.64 -6 16 C-7.32 16.33 -8.64 16.66 -10 17 C-8.51364884 12.78345644 -6.38750841 9.37521395 -3.875 5.6875 C-3.15054687 4.61886719 -2.42609375 3.55023438 -1.6796875 2.44921875 C-0.84824219 1.23685547 -0.84824219 1.23685547 0 0 Z " fill="#EAF5F8" transform="translate(32,89)"/>
<path d="M0 0 C-0.33 0.99 -0.66 1.98 -1 3 C-7.96779403 4.32719886 -14.92988911 4.08825381 -22 4 C-22.33 3.01 -22.66 2.02 -23 1 C-15.0553953 -0.89231726 -8.08972465 -1.04474629 0 0 Z " fill="#1B85A8" transform="translate(49,114)"/>
<path d="M0 0 C0.66 0.33 1.32 0.66 2 1 C2 2.32 2 3.64 2 5 C2.94875 5.226875 3.8975 5.45375 4.875 5.6875 C8 7 8 7 9.375 9.625 C9.58125 10.40875 9.7875 11.1925 10 12 C9.34 12.66 8.68 13.32 8 14 C8.66 14.721875 9.32 15.44375 10 16.1875 C12.1535853 19.21597933 12.41176754 20.39703406 12 24 C8.66462595 20.02055372 5.88637998 15.8574049 3.1875 11.4375 C2.55811523 10.4484668 2.55811523 10.4484668 1.91601562 9.43945312 C-1.09033053 4.51142277 -1.09033053 4.51142277 -0.6081543 1.78149414 C-0.40746338 1.19360107 -0.20677246 0.60570801 0 0 Z " fill="#E5F8F5" transform="translate(85,10)"/>
<path d="M0 0 C1.85625 0.061875 1.85625 0.061875 3.75 0.125 C3.75 1.115 3.75 2.105 3.75 3.125 C2.76 3.62 2.76 3.62 1.75 4.125 C1.46080072 6.11726169 1.17735449 8.11222182 0.99609375 10.1171875 C0.75 12.125 0.75 12.125 -0.25 15.125 C-2.89 10.835 -5.53 6.545 -8.25 2.125 C-4.63863788 0.31931894 -3.705469 -0.12351563 0 0 Z " fill="#F3F7F2" transform="translate(134.25,79.875)"/>
<path d="M0 0 C2.99876322 2.80319171 5.16322727 5.59434917 7.25 9.125 C7.77078125 9.99382813 8.2915625 10.86265625 8.828125 11.7578125 C10 14 10 14 10 16 C8 16 8 16 6.375 14.5 C5.92125 14.005 5.4675 13.51 5 13 C5.350625 13.7425 5.70125 14.485 6.0625 15.25 C7.0720098 18.21122875 6.87980884 19.12062561 6 22 C4.87344187 20.08424874 3.74881313 18.16736281 2.625 16.25 C1.99851562 15.18265625 1.37203125 14.1153125 0.7265625 13.015625 C-0.59772663 10.70261322 -1.84636846 8.40048583 -3 6 C-1.68 6.33 -0.36 6.66 1 7 C1 7.99 1 8.98 1 10 C1.66 10 2.32 10 3 10 C3 8.35 3 6.7 3 5 C2.34 5 1.68 5 1 5 C0.67 3.35 0.34 1.7 0 0 Z " fill="#D0F1F5" transform="translate(89,42)"/>
<path d="M0 0 C0.97066406 0.08765625 1.94132812 0.1753125 2.94140625 0.265625 C5.4375 0.75 5.4375 0.75 7.4375 2.75 C6.7775 2.75 6.1175 2.75 5.4375 2.75 C5.4375 3.41 5.4375 4.07 5.4375 4.75 C3.66800388 5.25471197 1.89684777 5.75360685 0.125 6.25 C-1.35419922 6.66765625 -1.35419922 6.66765625 -2.86328125 7.09375 C-5.5625 7.75 -5.5625 7.75 -8.5625 7.75 C-8.5625 6.43 -8.5625 5.11 -8.5625 3.75 C-5.9225 3.42 -3.2825 3.09 -0.5625 2.75 C-3.2025 2.42 -5.8425 2.09 -8.5625 1.75 C-5.06680461 -0.58046359 -4.05576743 -0.41043718 0 0 Z " fill="#1383A6" transform="translate(104.5625,112.25)"/>
<path d="M0 0 C0.66 0 1.32 0 2 0 C1.34 1.98 0.68 3.96 0 6 C4.95 4.35 9.9 2.7 15 1 C15 1.66 15 2.32 15 3 C14.01 3.33 13.02 3.66 12 4 C12.66 4.66 13.32 5.32 14 6 C8.72 7.32 3.44 8.64 -2 10 C-2 7.36 -2 4.72 -2 2 C-1.34 2 -0.68 2 0 2 C0 1.34 0 0.68 0 0 Z " fill="#CBEDF2" transform="translate(2,113)"/>
<path d="M0 0 C1.32 0.33 2.64 0.66 4 1 C4.33 2.98 4.66 4.96 5 7 C4.01 7.33 3.02 7.66 2 8 C2 8.66 2 9.32 2 10 C0.6875 11.625 0.6875 11.625 -1 13 C-1.99 13 -2.98 13 -4 13 C-3.52343588 11.20763933 -3.04366502 9.41613103 -2.5625 7.625 C-2.29566406 6.62726562 -2.02882813 5.62953125 -1.75390625 4.6015625 C-1 2 -1 2 0 0 Z " fill="#F2F8F7" transform="translate(73,22)"/>
<path d="M0 0 C0.99 0.99 1.98 1.98 3 3 C-0.01576391 8.16112441 -2.49538375 11.28789584 -8.375 13 C-9.91012435 13.36227123 -11.45035208 13.70599565 -13 14 C-13.33 13.34 -13.66 12.68 -14 12 C-12.2984375 11.5978125 -12.2984375 11.5978125 -10.5625 11.1875 C-9.386875 10.795625 -8.21125 10.40375 -7 10 C-6.67 9.01 -6.34 8.02 -6 7 C-5.3400321 5.33066942 -4.67441131 3.6635479 -4 2 C-3.01 2 -2.02 2 -1 2 C-0.67 1.34 -0.34 0.68 0 0 Z " fill="#1E83A4" transform="translate(19,104)"/>
<path d="M0 0 C2.97 0 5.94 0 9 0 C9 2.31 9 4.62 9 7 C8.34 7 7.68 7 7 7 C7.99 8.485 7.99 8.485 9 10 C8.625 12.1875 8.625 12.1875 8 14 C6.66397562 11.85580015 5.33107996 9.70976582 4 7.5625 C3.6184375 6.95083984 3.236875 6.33917969 2.84375 5.70898438 C0 1.11328125 0 1.11328125 0 0 Z " fill="#E6F5F7" transform="translate(135,96)"/>
<path d="M0 0 C0.99 0 1.98 0 3 0 C2.67 1.32 2.34 2.64 2 4 C1.34 4 0.68 4 0 4 C0 4.66 0 5.32 0 6 C-0.66 6 -1.32 6 -2 6 C-2.1546875 7.0828125 -2.1546875 7.0828125 -2.3125 8.1875 C-3.4379606 12.79165701 -5.71716325 15.71716325 -9 19 C-10.17574711 21.09989652 -10.17574711 21.09989652 -11 23 C-11.66 23 -12.32 23 -13 23 C-11.37745627 18.43218669 -9.01524967 14.48940202 -6.5 10.375 C-6.09652344 9.70726563 -5.69304688 9.03953125 -5.27734375 8.3515625 C-3.56783864 5.53059697 -1.82989835 2.74484753 0 0 Z " fill="#257C97" transform="translate(44,81)"/>
<path d="M0 0 C0.66 0.33 1.32 0.66 2 1 C-2.95 8.92 -7.9 16.84 -13 25 C-13.33 24.34 -13.66 23.68 -14 23 C-12.92548192 19.85910101 -11.48161364 16.96322729 -10 14 C-9.67 13.01 -9.34 12.02 -9 11 C-9 11.66 -9 12.32 -9 13 C-8.34 13 -7.68 13 -7 13 C-6.731875 12.319375 -6.46375 11.63875 -6.1875 10.9375 C-5.795625 9.968125 -5.40375 8.99875 -5 8 C-4.75894531 7.38769531 -4.51789063 6.77539062 -4.26953125 6.14453125 C-2.22574386 1.11287193 -2.22574386 1.11287193 0 0 Z " fill="#1E8099" transform="translate(69,26)"/>
<path d="M0 0 C0.66 0 1.32 0 2 0 C2.33 1.65 2.66 3.3 3 5 C4.65 5.33 6.3 5.66 8 6 C7.67 7.32 7.34 8.64 7 10 C5.35333797 9.8864371 3.70763918 9.75882619 2.0625 9.625 C1.14597656 9.55539063 0.22945313 9.48578125 -0.71484375 9.4140625 C-1.84599609 9.20910156 -1.84599609 9.20910156 -3 9 C-3.33 8.34 -3.66 7.68 -4 7 C-3.34 7 -2.68 7 -2 7 C-1.22227595 4.66682784 -0.57584432 2.38564077 0 0 Z " fill="#F4FCF7" transform="translate(124,106)"/>
<path d="M0 0 C2.63884562 2.40111178 4.36413529 5.00555028 6.1875 8.0625 C6.71730469 8.94035156 7.24710937 9.81820312 7.79296875 10.72265625 C9 13 9 13 9 15 C9.66 15 10.32 15 11 15 C11 15.66 11 16.32 11 17 C9.02 17 7.04 17 5 17 C4.01879536 13.94736336 4.01879536 12.05263664 5 9 C4.360625 8.690625 3.72125 8.38125 3.0625 8.0625 C1 7 1 7 0 6 C-0.04080783 4.00041636 -0.04254356 1.99954746 0 0 Z " fill="#1B85A2" transform="translate(109,55)"/>
<path d="M0 0 C0.99 0.66 1.98 1.32 3 2 C1.4206088 4.56500365 -0.1633368 7.12699998 -1.75 9.6875 C-2.1934375 10.40873047 -2.636875 11.12996094 -3.09375 11.87304688 C-5.52388344 15.78627646 -8.02071673 19.47080229 -11 23 C-11.39243487 19.56619488 -11.24054489 18.32072652 -9.125 15.5 C-8.42375 14.675 -7.7225 13.85 -7 13 C-5.75983331 10.3205355 -5.75983331 10.3205355 -5 8 C-4.34 8 -3.68 8 -3 8 C-2.67 6.02 -2.34 4.04 -2 2 C-1.34 2 -0.68 2 0 2 C0 1.34 0 0.68 0 0 Z " fill="#D3F5F9" transform="translate(45,43)"/>
<path d="M0 0 C-4.22949995 2.41685712 -7.12335991 3.34833144 -12 3 C-12 3.66 -12 4.32 -12 5 C-11.01 5.33 -10.02 5.66 -9 6 C-9.66 6.66 -10.32 7.32 -11 8 C-13.475 7.01 -13.475 7.01 -16 6 C-16 5.01 -16 4.02 -16 3 C-16.66 2.67 -17.32 2.34 -18 2 C-15.75256955 1.46818825 -13.50192898 0.94992874 -11.25 0.4375 C-9.99703125 0.14746094 -8.7440625 -0.14257812 -7.453125 -0.44140625 C-4.40526252 -0.93444283 -2.82358172 -1.07666879 0 0 Z " fill="#DAF4F7" transform="translate(44,129)"/>
<path d="M0 0 C0.33 0 0.66 0 1 0 C3.52197309 7.66816143 3.52197309 7.66816143 2.2421875 10.93359375 C1.125 12.5625 1.125 12.5625 -1 15 C-2 12 -2 12 -2 8 C-2.268125 8.639375 -2.53625 9.27875 -2.8125 9.9375 C-4 12 -4 12 -7 13 C-5.37621488 8.27626146 -2.89006982 4.05818166 0 0 Z " fill="#D3F0F4" transform="translate(46,66)"/>
<path d="M0 0 C0 0.66 0 1.32 0 2 C-0.61520508 2.14622803 -1.23041016 2.29245605 -1.86425781 2.44311523 C-4.65956186 3.10767215 -7.45478173 3.77258242 -10.25 4.4375 C-11.21808594 4.66759766 -12.18617187 4.89769531 -13.18359375 5.13476562 C-14.11816406 5.35712891 -15.05273438 5.57949219 -16.015625 5.80859375 C-16.87446289 6.01282959 -17.73330078 6.21706543 -18.61816406 6.42749023 C-20.7486578 6.93958616 -22.87527984 7.46451891 -25 8 C-25.33 7.34 -25.66 6.68 -26 6 C-22.41896026 4.9916593 -18.83482575 3.99478914 -15.25 3 C-14.23421875 2.71382813 -13.2184375 2.42765625 -12.171875 2.1328125 C-11.1921875 1.86210938 -10.2125 1.59140625 -9.203125 1.3125 C-8.30239258 1.06113281 -7.40166016 0.80976562 -6.47363281 0.55078125 C-4 0 -4 0 0 0 Z " fill="#23829A" transform="translate(27,116)"/>
<path d="M0 0 C0.66 0.33 1.32 0.66 2 1 C-1.3 6.28 -4.6 11.56 -8 17 C-8.95904856 13.16380575 -8.91892116 11.67568464 -8 8 C-6.35 7.67 -4.7 7.34 -3 7 C-3 5.35 -3 3.7 -3 2 C-2.01 2 -1.02 2 0 2 C0 1.34 0 0.68 0 0 Z " fill="#D9F3F7" transform="translate(18,88)"/>
<path d="M0 0 C1 3 1 3 1 7 C1.66 7.33 2.32 7.66 3 8 C1.68 10.31 0.36 12.62 -1 15 C-1.66666667 13 -2.33333333 11 -3 9 C-3.66 8.67 -4.32 8.34 -5 8 C-3.35 5.36 -1.7 2.72 0 0 Z " fill="#D4F2F1" transform="translate(59,45)"/>
<path d="M0 0 C0.33 0.66 0.66 1.32 1 2 C0.03998908 3.7213989 -0.92741339 5.43954785 -1.94921875 7.125 C-3.35461095 9.63276303 -4.1306827 12.26785993 -5 15 C-5.99 16.485 -5.99 16.485 -7 18 C-7.33 18.66 -7.66 19.32 -8 20 C-8.66 20 -9.32 20 -10 20 C-9.53323489 14.48368502 -7.46923418 11.07278154 -4.4375 6.625 C-4.01275391 5.98433594 -3.58800781 5.34367187 -3.15039062 4.68359375 C-2.10941258 3.1162785 -1.05595366 1.55726499 0 0 Z " fill="#2080A1" transform="translate(72,36)"/>
<path d="M0 0 C4.72065967 1.54269924 9.41664092 3.07794619 14 5 C14 5.33 14 5.66 14 6 C10.04 6 6.08 6 2 6 C1.34 4.02 0.68 2.04 0 0 Z " fill="#DEF4F8" transform="translate(136,135)"/>
<path d="M0 0 C0 0.99 0 1.98 0 3 C0.66 3.33 1.32 3.66 2 4 C-6.58 3.34 -15.16 2.68 -24 2 C-24 1.67 -24 1.34 -24 1 C-20.93758173 0.83170223 -17.87508013 0.66530338 -14.8125 0.5 C-13.94818359 0.45230469 -13.08386719 0.40460938 -12.19335938 0.35546875 C-8.12442913 0.13721196 -4.07665227 -0.06752219 0 0 Z " fill="#C8ECF1" transform="translate(112,110)"/>
<path d="M0 0 C0.66 0 1.32 0 2 0 C0.87548273 2.9719385 -0.22293791 5.33440687 -2 8 C-2.99 8 -3.98 8 -5 8 C-5 8.66 -5 9.32 -5 10 C-5.66 10 -6.32 10 -7 10 C-6.25 3.25 -6.25 3.25 -4 1 C-3.67 1.66 -3.34 2.32 -3 3 C-2.01 2.67 -1.02 2.34 0 2 C0 1.34 0 0.68 0 0 Z " fill="#F5FAF3" transform="translate(7,105)"/>
<path d="M0 0 C0.33 0 0.66 0 1 0 C1 2.31 1 4.62 1 7 C1.99 6.34 2.98 5.68 4 5 C3.3125 7.4375 3.3125 7.4375 2 10 C-0.625 10.8125 -0.625 10.8125 -3 11 C-3.75 8.875 -3.75 8.875 -4 6 C-2.125 2.6875 -2.125 2.6875 0 0 Z " fill="#1588AC" transform="translate(35,64)"/>
<path d="M0 0 C1.32 0.33 2.64 0.66 4 1 C4 2.32 4 3.64 4 5 C5.32 5.33 6.64 5.66 8 6 C7.67 6.33 7.34 6.66 7 7 C7.66 7 8.32 7 9 7 C9 8.32 9 9.64 9 11 C9.93283296 13.20067421 9.93283296 13.20067421 11 15 C10.01 15.495 10.01 15.495 9 16 C7.49445366 13.71180854 5.99542957 11.41978831 4.5 9.125 C4.07074219 8.47402344 3.64148438 7.82304688 3.19921875 7.15234375 C0 2.2265625 0 2.2265625 0 0 Z " fill="#DEF2F5" transform="translate(102,42)"/>
<path d="M0 0 C-2.4566947 1.00419637 -4.91518353 2.00350501 -7.375 3 C-8.42300781 3.42925781 -8.42300781 3.42925781 -9.4921875 3.8671875 C-14.7734375 6 -14.7734375 6 -17 6 C-17 4.68 -17 3.36 -17 2 C-14.91952703 1.4678559 -12.83547707 0.94968214 -10.75 0.4375 C-9.58984375 0.14746094 -8.4296875 -0.14257812 -7.234375 -0.44140625 C-4.27909017 -0.95179964 -2.75565899 -1.02996165 0 0 Z " fill="#1E8296" transform="translate(18,134)"/>
<path d="M0 0 C1.65 0.33 3.3 0.66 5 1 C5 5.62 5 10.24 5 15 C4.34 14.67 3.68 14.34 3 14 C3 11.36 3 8.72 3 6 C1.68 6 0.36 6 -1 6 C-0.67 4.02 -0.34 2.04 0 0 Z " fill="#0F7DA0" transform="translate(144,122)"/>
<path d="M0 0 C1.625 1.625 1.625 1.625 3 4 C2.1875 7.25 2.1875 7.25 1 10 C-0.32 9.67 -1.64 9.34 -3 9 C-2.67 6.69 -2.34 4.38 -2 2 C-1.34 2 -0.68 2 0 2 C0 1.34 0 0.68 0 0 Z " fill="#0385A6" transform="translate(61,29)"/>
<path d="M0 0 C0.33 0.66 0.66 1.32 1 2 C1.66 2 2.32 2 3 2 C3 2.66 3 3.32 3 4 C3.66 4.33 4.32 4.66 5 5 C3.68 6.65 2.36 8.3 1 10 C1 8.68 1 7.36 1 6 C0.67 5.34 0.34 4.68 0 4 C-0.33 5.32 -0.66 6.64 -1 8 C-2.32 8.33 -3.64 8.66 -5 9 C-3.7508258 5.54074837 -2.32472205 2.85306797 0 0 Z " fill="#CFEDF0" transform="translate(27,97)"/>
<path d="M0 0 C1.09658936 3.28976808 0.79953138 4.71303767 0 8 C-0.99 8.33 -1.98 8.66 -3 9 C-3.495 10.155 -3.99 11.31 -4.5 12.5 C-4.995 13.655 -5.49 14.81 -6 16 C-6.99 16.33 -7.98 16.66 -9 17 C-7.68925635 12.53817564 -5.92933989 9.00381243 -3.375 5.125 C-2.74335937 4.15820312 -2.11171875 3.19140625 -1.4609375 2.1953125 C-0.73777344 1.10863281 -0.73777344 1.10863281 0 0 Z " fill="#2B849E" transform="translate(46,46)"/>
<path d="M0 0 C2.60508636 0.11391632 5.20845546 0.24065548 7.8125 0.375 C8.55048828 0.4059375 9.28847656 0.436875 10.04882812 0.46875 C13.81893115 0.67346148 15.79650741 0.86433827 19 3 C16.21176345 4.0326802 15.1322726 4.04509293 12.25 3.0625 C11.5075 2.711875 10.765 2.36125 10 2 C10 2.66 10 3.32 10 4 C9.34 4 8.68 4 8 4 C8 3.34 8 2.68 8 2 C5.36 2 2.72 2 0 2 C0 1.34 0 0.68 0 0 Z " fill="#D0EFF2" transform="translate(96,127)"/>
<path d="M0 0 C-3.8038467 2.30232826 -7.93802837 2.87840421 -12.25 3.625 C-12.99507812 3.7590625 -13.74015625 3.893125 -14.5078125 4.03125 C-16.337563 4.35966676 -18.16865754 4.6805798 -20 5 C-19.34 4.01 -18.68 3.02 -18 2 C-14.875 1.8125 -14.875 1.8125 -12 2 C-12 1.34 -12 0.68 -12 0 C-10.37585622 -0.19477739 -8.75063577 -0.38059458 -7.125 -0.5625 C-6.22007813 -0.66691406 -5.31515625 -0.77132812 -4.3828125 -0.87890625 C-2 -1 -2 -1 0 0 Z " fill="#258296" transform="translate(44,127)"/>
<path d="M0 0 C5.75 -0.125 5.75 -0.125 8 1 C8.6875 2.9375 8.6875 2.9375 9 5 C8.67 5.66 8.34 6.32 8 7 C7.01 6.67 6.02 6.34 5 6 C5.33 5.34 5.66 4.68 6 4 C4.68 4.33 3.36 4.66 2 5 C2 4.01 2 3.02 2 2 C1.34 2 0.68 2 0 2 C0 1.34 0 0.68 0 0 Z " fill="#0982B6" transform="translate(4,123)"/>
<path d="M0 0 C1.32 0.66 2.64 1.32 4 2 C1.69 5.96 -0.62 9.92 -3 14 C-4.1577506 10.52674819 -4.06866652 7.63932552 -4 4 C-2.68 4.99 -1.36 5.98 0 7 C0.33 5.35 0.66 3.7 1 2 C0.34 1.67 -0.32 1.34 -1 1 C-0.67 0.67 -0.34 0.34 0 0 Z " fill="#DBF6F6" transform="translate(29,66)"/>
<path d="M0 0 C0.33 0.99 0.66 1.98 1 3 C1.99 3 2.98 3 4 3 C4.33 2.34 4.66 1.68 5 1 C5.66 3.64 6.32 6.28 7 9 C5.68 9.33 4.36 9.66 3 10 C2.30289269 8.71349294 1.61757124 7.42059335 0.9375 6.125 C0.36322266 5.04605469 0.36322266 5.04605469 -0.22265625 3.9453125 C-0.47917969 3.30335937 -0.73570313 2.66140625 -1 2 C-0.67 1.34 -0.34 0.68 0 0 Z " fill="#E6F6F5" transform="translate(98,32)"/>
<path d="M0 0 C0.69480469 0.29648438 1.38960938 0.59296875 2.10546875 0.8984375 C5.14659284 2.05578837 8.15087063 2.86065004 11.3125 3.625 C12.38113281 3.88539063 13.44976562 4.14578125 14.55078125 4.4140625 C15.76314453 4.70410156 15.76314453 4.70410156 17 5 C16.34 5.66 15.68 6.32 15 7 C12.04974224 6.48767979 9.2627118 5.87974286 6.375 5.125 C5.57320313 4.92519531 4.77140625 4.72539062 3.9453125 4.51953125 C1.96091016 4.02343066 -0.01991016 3.51304255 -2 3 C-1.34 2.01 -0.68 1.02 0 0 Z " fill="#30869E" transform="translate(117,127)"/>
<path d="M0 0 C0.33 0.66 0.66 1.32 1 2 C5.95 2 10.9 2 16 2 C16 2.33 16 2.66 16 3 C7.09 3.99 7.09 3.99 -2 5 C-1.34 3.35 -0.68 1.7 0 0 Z " fill="#4186A5" transform="translate(29,105)"/>
<path d="M0 0 C0.66 0 1.32 0 2 0 C2 0.66 2 1.32 2 2 C3.32 2 4.64 2 6 2 C6.66 2.33 7.32 2.66 8 3 C7.814375 3.5775 7.62875 4.155 7.4375 4.75 C6.95976454 7.20692525 7.24270636 8.64397534 8 11 C4.50892621 9.83630874 4.14777237 9.11026462 2.3125 6.0625 C1.87550781 5.35222656 1.43851562 4.64195313 0.98828125 3.91015625 C0 2 0 2 0 0 Z " fill="#177F9D" transform="translate(126,101)"/>
<path d="M0 0 C0.66 0 1.32 0 2 0 C2.33 1.98 2.66 3.96 3 6 C3.66 6 4.32 6 5 6 C5 7.65 5 9.3 5 11 C4.34 11 3.68 11 3 11 C3 10.01 3 9.02 3 8 C1.68 7.34 0.36 6.68 -1 6 C-0.67 4.02 -0.34 2.04 0 0 Z " fill="#F9F6FA" transform="translate(87,41)"/>
<path d="M0 0 C1.15957207 3.47871621 0.77456651 4.34219645 -0.4375 7.6875 C-0.72496094 8.49574219 -1.01242188 9.30398437 -1.30859375 10.13671875 C-1.53675781 10.75160156 -1.76492187 11.36648437 -2 12 C-2.99 11.67 -3.98 11.34 -5 11 C-4.46884894 6.48521602 -2.63379708 3.65333143 0 0 Z " fill="#17819A" transform="translate(19,90)"/>
<path d="M0 0 C1.65 0 3.3 0 5 0 C6.42258812 3.82320557 7.24042276 6.91281305 7 11 C4.23455278 7.54319097 2.15078722 3.85658398 0 0 Z " fill="#D4F1F6" transform="translate(112,59)"/>
<path d="M0 0 C8 9.42857143 8 9.42857143 8 14 C7.34 14 6.68 14 6 14 C3 9.61538462 3 9.61538462 3 7 C2.34 7 1.68 7 1 7 C0.67 4.69 0.34 2.38 0 0 Z " fill="#2A839E" transform="translate(104,78)"/>
<path d="M0 0 C2.4375 0.6875 2.4375 0.6875 5 2 C5.8125 4.625 5.8125 4.625 6 7 C5.01 7.66 4.02 8.32 3 9 C0.70620251 5.55930376 0 4.27709699 0 0 Z " fill="#F7F9F6" transform="translate(108,78)"/>
<path d="M0 0 C0.33 0.99 0.66 1.98 1 3 C1.66 3.33 2.32 3.66 3 4 C3 7 3 7 2 10 C0.35 8.35 -1.3 6.7 -3 5 C-2.67 4.01 -2.34 3.02 -2 2 C-1.34 2 -0.68 2 0 2 C0 1.34 0 0.68 0 0 Z " fill="#1083AE" transform="translate(92,30)"/>
<path d="M0 0 C3.71888239 0.50712033 6.73454239 1.11608215 10 3 C10 3.66 10 4.32 10 5 C4.5388601 4.64766839 4.5388601 4.64766839 2 4 C0.5 1.9375 0.5 1.9375 0 0 Z " fill="#F5FEEF" transform="translate(128,136)"/>
<path d="M0 0 C2.72426311 2.35277269 3.8141763 4.62496331 5 8 C3.39431334 7.71682074 1.79047953 7.42312209 0.1875 7.125 C-0.70582031 6.96257812 -1.59914062 6.80015625 -2.51953125 6.6328125 C-5 6 -5 6 -8 4 C-5.03 4 -2.06 4 1 4 C0.67 2.68 0.34 1.36 0 0 Z " fill="#4B8AA1" transform="translate(144,111)"/>
<path d="M0 0 C-0.33 0.66 -0.66 1.32 -1 2 C-1.67349161 3.66392045 -2.3409159 5.33032028 -3 7 C-5.52588702 4.63707344 -6.88820837 3.33537489 -8 0 C-4.94736336 -0.98120464 -3.05263664 -0.98120464 0 0 Z " fill="#E3F8FA" transform="translate(134,81)"/>
<path d="M0 0 C0.33 0 0.66 0 1 0 C1 1.65 1 3.3 1 5 C0.38125 5.226875 -0.2375 5.45375 -0.875 5.6875 C-3.62260139 7.38454792 -3.93210179 9.02514071 -5 12 C-5.99 12.495 -5.99 12.495 -7 13 C-5.37621488 8.27626146 -2.89006982 4.05818166 0 0 Z " fill="#25809B" transform="translate(56,62)"/>
<path d="M0 0 C0.66 0.33 1.32 0.66 2 1 C1.67 2.32 1.34 3.64 1 5 C0.34 5 -0.32 5 -1 5 C-1.33 6.65 -1.66 8.3 -2 10 C-2.66 9.67 -3.32 9.34 -4 9 C-4 6.69 -4 4.38 -4 2 C-2.125 0.9375 -2.125 0.9375 0 0 Z " fill="#F6F6F8" transform="translate(44,40)"/>
<path d="M0 0 C3.4375 0.8125 3.4375 0.8125 7 2 C7.33 2.99 7.66 3.98 8 5 C7.34 5 6.68 5 6 5 C6 5.66 6 6.32 6 7 C3.00675737 5.9024777 2.15389099 5.32317108 0.75 2.375 C0.5025 1.59125 0.255 0.8075 0 0 Z " fill="#E8F6F7" transform="translate(81,36)"/>
<path d="M0 0 C2.79872437 2.52788007 4.45773019 4.20411134 5 8 C4.01 8 3.02 8 2 8 C2 7.34 2 6.68 2 6 C0.68 5.67 -0.64 5.34 -2 5 C-1.34 3.35 -0.68 1.7 0 0 Z " fill="#21849B" transform="translate(75,31)"/>
<path d="M0 0 C0.78375 0.639375 1.5675 1.27875 2.375 1.9375 C4.79539281 3.98142313 4.79539281 3.98142313 7 5 C7 5.66 7 6.32 7 7 C4.03 6.67 1.06 6.34 -2 6 C-1.34 4.02 -0.68 2.04 0 0 Z " fill="#0684AD" transform="translate(137,109)"/>
<path d="M0 0 C0.66 0.33 1.32 0.66 2 1 C2 3.64 2 6.28 2 9 C0.35 8.67 -1.3 8.34 -3 8 C-1.125 2.25 -1.125 2.25 0 0 Z " fill="#048CB6" transform="translate(38,97)"/>
<path d="M0 0 C0.99 0.33 1.98 0.66 3 1 C1.92598892 3.91517292 1.22189824 5.77810176 -1 8 C-3 6 -3 6 -3.125 3.375 C-3.08375 2.59125 -3.0425 1.8075 -3 1 C-2.01 1.33 -1.02 1.66 0 2 C0 1.34 0 0.68 0 0 Z " fill="#0883B3" transform="translate(122,83)"/>
<path d="M0 0 C0.33 0.66 0.66 1.32 1 2 C1.66 2.33 2.32 2.66 3 3 C1.35 5.64 -0.3 8.28 -2 11 C-3.28485596 5.86057616 -2.22194431 4.62164416 0 0 Z " fill="#DFF3F7" transform="translate(59,19)"/>
<path d="M0 0 C-0.33 0.99 -0.66 1.98 -1 3 C-0.01 3.33 0.98 3.66 2 4 C1.34 4.66 0.68 5.32 0 6 C-2.475 5.01 -2.475 5.01 -5 4 C-5 3.01 -5 2.02 -5 1 C-5.66 0.67 -6.32 0.34 -7 0 C-3.86650268 -1.04449911 -3.01031744 -0.93423645 0 0 Z " fill="#E6F3F1" transform="translate(33,131)"/>
<path d="M0 0 C4.3177458 0.50797009 8.03302114 1.19682779 12 3 C12 3.33 12 3.66 12 4 C3.42857143 4.28571429 3.42857143 4.28571429 0 2 C0 1.34 0 0.68 0 0 Z " fill="#1C8698" transform="translate(132,118)"/>
<path d="M0 0 C0.33 0 0.66 0 1 0 C0.67 2.31 0.34 4.62 0 7 C-4.455 8.485 -4.455 8.485 -9 10 C-9.33 9.34 -9.66 8.68 -10 8 C-8.865625 7.731875 -7.73125 7.46375 -6.5625 7.1875 C-5.386875 6.795625 -4.21125 6.40375 -3 6 C-2.67 5.01 -2.34 4.02 -2 3 C-1.34 2.01 -0.68 1.02 0 0 Z " fill="#0F7DA3" transform="translate(15,108)"/>
<path d="M0 0 C2.50037734 2.17424117 3.43628586 3.73045798 4 7 C1.03 6.505 1.03 6.505 -2 6 C-2 4.68 -2 3.36 -2 2 C-1.34 2 -0.68 2 0 2 C0 1.34 0 0.68 0 0 Z " fill="#1983A3" transform="translate(91,57)"/>
<path d="M0 0 C0.33 0.66 0.66 1.32 1 2 C1.99 2.33 2.98 2.66 4 3 C4 4.32 4 5.64 4 7 C2.125 6.75 2.125 6.75 0 6 C-1.25 3.9375 -1.25 3.9375 -2 2 C-1.34 1.34 -0.68 0.68 0 0 Z " fill="#0F80B1" transform="translate(73,7)"/>
<path d="M0 0 C2.96865509 2.54456151 4.3619751 5.48994665 6 9 C3.13275314 8.42655063 2.1385485 8.1385485 0 6 C-0.125 2.875 -0.125 2.875 0 0 Z " fill="#2D829E" transform="translate(109,55)"/>
<path d="M0 0 C0.66 0 1.32 0 2 0 C2.66 2.64 3.32 5.28 4 8 C3.01 8.495 3.01 8.495 2 9 C2 8.01 2 7.02 2 6 C0.68 6.33 -0.64 6.66 -2 7 C-1.125 1.125 -1.125 1.125 0 0 Z " fill="#1984AF" transform="translate(88,22)"/>
<path d="M0 0 C2.91488977 2.6234008 4.88503898 5.71816394 7 9 C6.67 9.66 6.34 10.32 6 11 C5.01 10.67 4.02 10.34 3 10 C2.28293018 8.01751285 1.61709587 6.01584651 1 4 C0.34 3.34 -0.32 2.68 -1 2 C-0.67 1.34 -0.34 0.68 0 0 Z " fill="#D3EFF4" transform="translate(75,19)"/>
<path d="M0 0 C3.96 0.33 7.92 0.66 12 1 C11.67 1.99 11.34 2.98 11 4 C9.125 4.875 9.125 4.875 7 5 C5.5 3.6875 5.5 3.6875 4 2 C2.68 1.34 1.36 0.68 0 0 Z " fill="#248DB3" transform="translate(37,113)"/>
<path d="M0 0 C0.66 1.32 1.32 2.64 2 4 C1.34 4 0.68 4 0 4 C0.33 4.99 0.66 5.98 1 7 C0.34 7 -0.32 7 -1 7 C-1.33 7.66 -1.66 8.32 -2 9 C-2.99 8.01 -3.98 7.02 -5 6 C-4.01 5.34 -3.02 4.68 -2 4 C-0.80767387 1.94996045 -0.80767387 1.94996045 0 0 Z " fill="#F3FBF5" transform="translate(27,100)"/>
<path d="M0 0 C3.25809569 3.25809569 4.86594915 5.95266218 7 10 C7 10.66 7 11.32 7 12 C6.34 12 5.68 12 5 12 C5 11.34 5 10.68 5 10 C4.34 10 3.68 10 3 10 C2.01 6.7 1.02 3.4 0 0 Z " fill="#CEF1F7" transform="translate(117,88)"/>
<path d="M0 0 C2.95749791 3.46741134 5.07848152 6.86873527 7 11 C6.34 11 5.68 11 5 11 C0.10774607 5.99126383 0.10774607 5.99126383 -0.3125 2.125 C-0.209375 1.42375 -0.10625 0.7225 0 0 Z " fill="#398AAB" transform="translate(128,85)"/>
<path d="M0 0 C2.9555377 2.75170751 5.11563315 5.41970299 7 9 C7 9.66 7 10.32 7 11 C5.68 11 4.36 11 3 11 C0.85714286 3.57142857 0.85714286 3.57142857 0 0 Z " fill="#1A7E97" transform="translate(134,96)"/>
<path d="M0 0 C0.66 0.99 1.32 1.98 2 3 C1.125 6.1875 1.125 6.1875 0 9 C-1.5625 7.8125 -1.5625 7.8125 -3 6 C-2.8125 3.375 -2.8125 3.375 -2 1 C-1.34 0.67 -0.68 0.34 0 0 Z " fill="#EFFDFC" transform="translate(35,87)"/>
<path d="M0 0 C2.94721162 2.74395564 5.19168608 5.38337216 7 9 C6.67 9.66 6.34 10.32 6 11 C5.67 10.01 5.34 9.02 5 8 C4.34 8 3.68 8 3 8 C0.25624329 5.04518508 0 4.22528092 0 0 Z " fill="#247D92" transform="translate(96,66)"/>
<path d="M0 0 C2.64 0 5.28 0 8 0 C8.33 0.99 8.66 1.98 9 3 C5.25 4.125 5.25 4.125 3 3 C3 2.34 3 1.68 3 1 C2.01 0.67 1.02 0.34 0 0 Z " fill="#0780B8" transform="translate(136,122)"/>
<path d="M0 0 C0.66 0 1.32 0 2 0 C0.54955729 4.10958767 -1.51110752 7.43258745 -4 11 C-5 8 -5 8 -4.0625 5.8125 C-3.711875 5.214375 -3.36125 4.61625 -3 4 C-2.34 4 -1.68 4 -1 4 C-0.67 2.68 -0.34 1.36 0 0 Z " fill="#C8F1F6" transform="translate(53,32)"/>
<path d="M0 0 C1 3 1 3 0.22265625 5.04296875 C-0.16019531 5.75066406 -0.54304688 6.45835938 -0.9375 7.1875 C-1.31777344 7.90292969 -1.69804687 8.61835937 -2.08984375 9.35546875 C-2.54037109 10.16951172 -2.54037109 10.16951172 -3 11 C-3.99 10.34 -4.98 9.68 -6 9 C-4.02 6.03 -2.04 3.06 0 0 Z " fill="#2883A3" transform="translate(30,72)"/>
<path d="M0 0 C0.99 0.33 1.98 0.66 3 1 C3.75 2.9375 3.75 2.9375 4 5 C3.67 5.66 3.34 6.32 3 7 C2.01 6.67 1.02 6.34 0 6 C0 4.02 0 2.04 0 0 Z " fill="#EBF8F6" transform="translate(47,66)"/>
<path d="M0 0 C1.0625 1.8125 1.0625 1.8125 2 4 C1.67 4.99 1.34 5.98 1 7 C0.01 7 -0.98 7 -2 7 C-2 5.02 -2 3.04 -2 1 C-1.34 0.67 -0.68 0.34 0 0 Z " fill="#F8F7F4" transform="translate(56,53)"/>
<path d="M0 0 C2.31 0 4.62 0 7 0 C6.67 1.65 6.34 3.3 6 5 C5.67 4.34 5.34 3.68 5 3 C3.35 3.33 1.7 3.66 0 4 C0 2.68 0 1.36 0 0 Z " fill="#077D9F" transform="translate(49,42)"/>
<path d="M0 0 C2.61724095 2.36797991 4.32861729 4.89600354 6 8 C6 8.66 6 9.32 6 10 C3 9 3 9 1.3125 6.6875 C0 4 0 4 0 0 Z " fill="#228199" transform="translate(80,39)"/>
<path d="M0 0 C2.97 0.495 2.97 0.495 6 1 C5.67 2.98 5.34 4.96 5 7 C2.47411298 4.63707344 1.11179163 3.33537489 0 0 Z " fill="#D4F0F4" transform="translate(135,96)"/>
<path d="M0 0 C0.99 0 1.98 0 3 0 C3 0.99 3 1.98 3 3 C2.34 3 1.68 3 1 3 C1 4.65 1 6.3 1 8 C0.01 7.01 -0.98 6.02 -2 5 C-1.34 3.35 -0.68 1.7 0 0 Z " fill="#0388B6" transform="translate(69,13)"/>
<path d="M0 0 C2 2 2 2 2.125 4.625 C2.08375 5.40875 2.0425 6.1925 2 7 C1.01 7 0.02 7 -1 7 C-1.625 5.1875 -1.625 5.1875 -2 3 C-1.34 2.01 -0.68 1.02 0 0 Z " fill="#0983B8" transform="translate(25,89)"/>
<path d="M0 0 C0.33 0 0.66 0 1 0 C0.67 2.31 0.34 4.62 0 7 C-0.99 7.33 -1.98 7.66 -3 8 C-2.45276317 4.62537285 -1.9451 2.91765 0 0 Z " fill="#FCF8EE" transform="translate(44,73)"/>
<path d="M0 0 C3.27286682 2.7819368 4.96427697 6.27954067 7 10 C6.01 10 5.02 10 4 10 C3.32845067 8.71086513 2.66291141 7.41859796 2 6.125 C1.62875 5.40570313 1.2575 4.68640625 0.875 3.9453125 C0 2 0 2 0 0 Z " fill="#32829F" transform="translate(99,39)"/>
<path d="M0 0 C2.31 0 4.62 0 7 0 C6.67 0.99 6.34 1.98 6 3 C5.1028125 2.6596875 5.1028125 2.6596875 4.1875 2.3125 C3.1046875 2.1578125 3.1046875 2.1578125 2 2 C0.22809091 3.35444301 0.22809091 3.35444301 -1 5 C-0.67 3.35 -0.34 1.7 0 0 Z " fill="#D5F0F3" transform="translate(73,0)"/>
<path d="M0 0 C2.97 0 5.94 0 9 0 C9 1.32 9 2.64 9 4 C7.68 4 6.36 4 5 4 C5 3.34 5 2.68 5 2 C3.35 1.67 1.7 1.34 0 1 C0 0.67 0 0.34 0 0 Z " fill="#0A7D9F" transform="translate(43,113)"/>
<path d="M0 0 C0.33 0.66 0.66 1.32 1 2 C2.65 2 4.3 2 6 2 C2.81237635 4.12508244 0.73487777 4.5020163 -3 5 C-2.01 3.35 -1.02 1.7 0 0 Z " fill="#C8F0EC" transform="translate(20,113)"/>
<path d="M0 0 C0.66 0 1.32 0 2 0 C0.8141763 3.37503669 -0.27573689 5.64722731 -3 8 C-3 6.35 -3 4.7 -3 3 C-2.01 2.67 -1.02 2.34 0 2 C0 1.34 0 0.68 0 0 Z " fill="#D6F2F6" transform="translate(7,105)"/>
<path d="M0 0 C0.33 0.66 0.66 1.32 1 2 C-0.32 1.67 -1.64 1.34 -3 1 C-3.33 1.99 -3.66 2.98 -4 4 C-4.99 4 -5.98 4 -7 4 C-7 3.01 -7 2.02 -7 1 C-4.53721199 -0.231394 -2.7204945 -0.07159196 0 0 Z " fill="#1081A1" transform="translate(113,92)"/>
<path d="M0 0 C1.32 0.33 2.64 0.66 4 1 C3.34 1 2.68 1 2 1 C1.67 2.65 1.34 4.3 1 6 C0.01 5.67 -0.98 5.34 -2 5 C-1.34 3.35 -0.68 1.7 0 0 Z " fill="#0D81A3" transform="translate(103,85)"/>
<path d="M0 0 C2.46800047 1.15173355 4.04783565 2.04783565 6 4 C6.125 6.625 6.125 6.625 6 9 C3.59927045 6.11912454 1.52708963 3.43595166 0 0 Z " fill="#D6F1F8" transform="translate(120,72)"/>
<path d="M0 0 C1.65 0 3.3 0 5 0 C4.67 1.65 4.34 3.3 4 5 C3.01 4.67 2.02 4.34 1 4 C0.3125 1.9375 0.3125 1.9375 0 0 Z " fill="#FAF9EA" transform="translate(25,68)"/>
<path d="M0 0 C1.43088528 2.86177057 0.59991697 4.93375773 0 8 C-0.66 8 -1.32 8 -2 8 C-2.93423645 4.98968256 -3.04449911 4.13349732 -2 1 C-1.34 0.67 -0.68 0.34 0 0 Z " fill="#F9FAF8" transform="translate(62,44)"/>
<path d="M0 0 C4.02550319 1.3418344 4.88285636 3.4227573 7 7 C7 7.66 7 8.32 7 9 C6.34 9 5.68 9 5 9 C3.35 6.03 1.7 3.06 0 0 Z " fill="#CEEFF6" transform="translate(80,38)"/>
<path d="M0 0 C0.66 0.33 1.32 0.66 2 1 C1.19185349 2.33597652 0.37836819 3.668725 -0.4375 5 C-0.88996094 5.7425 -1.34242187 6.485 -1.80859375 7.25 C-2.20175781 7.8275 -2.59492187 8.405 -3 9 C-3.33 9 -3.66 9 -4 9 C-4.25 6.75 -4.25 6.75 -4 4 C-2 1.6875 -2 1.6875 0 0 Z " fill="#D0F5EF" transform="translate(66,12)"/>
<path d="M0 0 C2.31 0 4.62 0 7 0 C6.67 0.66 6.34 1.32 6 2 C4.68 2 3.36 2 2 2 C2 2.66 2 3.32 2 4 C1.34 4 0.68 4 0 4 C0 2.68 0 1.36 0 0 Z " fill="#0F7EB1" transform="translate(2,132)"/>
<path d="M0 0 C0.66 0.33 1.32 0.66 2 1 C2 2.32 2 3.64 2 5 C0.35 5.66 -1.3 6.32 -3 7 C-1.125 2.25 -1.125 2.25 0 0 Z " fill="#3E899C" transform="translate(4,113)"/>
<path d="M0 0 C2.9375 0.375 2.9375 0.375 6 1 C6.33 1.66 6.66 2.32 7 3 C4.69 3 2.38 3 0 3 C0 2.01 0 1.02 0 0 Z " fill="#FBFAF8" transform="translate(112,110)"/>
<path d="M0 0 C0.66 1.32 1.32 2.64 2 4 C1.34 4 0.68 4 0 4 C0 4.66 0 5.32 0 6 C-1.32 6.33 -2.64 6.66 -4 7 C-2.68 4.69 -1.36 2.38 0 0 Z " fill="#D4ECF3" transform="translate(32,89)"/>
<path d="M0 0 C0.33 2.31 0.66 4.62 1 7 C0.01 6.67 -0.98 6.34 -2 6 C-2 5.34 -2 4.68 -2 4 C-2.66 4 -3.32 4 -4 4 C-4 3.34 -4 2.68 -4 2 C-1 0 -1 0 0 0 Z " fill="#0780A3" transform="translate(109,55)"/>
<path d="M0 0 C0.66 0.33 1.32 0.66 2 1 C2 2.32 2 3.64 2 5 C0.68 5.33 -0.64 5.66 -2 6 C-2.33 5.01 -2.66 4.02 -3 3 C-2.34 3 -1.68 3 -1 3 C-0.67 2.01 -0.34 1.02 0 0 Z " fill="#1487AD" transform="translate(105,59)"/>
<path d="M0 0 C1.65 0.33 3.3 0.66 5 1 C5.33 2.32 5.66 3.64 6 5 C3.69 4.34 1.38 3.68 -1 3 C-0.67 2.01 -0.34 1.02 0 0 Z " fill="#EFFAF9" transform="translate(113,56)"/>
<path d="M0 0 C2 1.1875 2 1.1875 4 3 C4.25 5.6875 4.25 5.6875 4 8 C0 3.375 0 3.375 0 0 Z " fill="#CEF3F6" transform="translate(93,26)"/>
</svg>
