<svg width="40" height="40" viewBox="0 0 40 40" fill="none" xmlns="http://www.w3.org/2000/svg">
<path d="M0 0H40V40H0V0Z" fill="url(#paint0_linear_63_1080)"/>
<path d="M6.04669 13.3659L9.69319 3.57039C9.69319 3.57039 9.83619 3.21289 10.1222 3.21289H12.2672C12.9107 3.21289 13.6257 3.71339 13.6257 4.35689V8.21788L16.9862 3.49889C16.9862 3.49889 17.1292 3.21289 17.6297 3.21289H20.4182C20.7757 3.21289 20.9902 3.42739 20.8472 3.78489C20.2752 5.42939 18.5592 10.2914 18.2732 11.0779C17.9157 12.0074 18.7022 13.0799 20.8472 12.0789C21.7052 11.7929 20.9902 12.6509 20.8472 12.7224C20.1322 13.3659 18.9882 14.0809 17.4152 14.0809C16.7002 14.0809 13.9832 13.8664 16.8432 6.93088C16.0567 8.14638 12.6247 13.6519 11.6952 13.6519C10.8372 13.6519 11.3377 10.3629 11.2662 7.21688C10.9087 8.57538 9.69319 12.1504 9.04969 13.2944C8.90669 13.5089 8.83519 13.6519 8.62069 13.6519H6.1182C5.9037 13.5804 6.04669 13.3659 6.04669 13.3659Z" fill="white"/>
<path d="M24.2791 15.6555C24.2791 15.6555 26.6386 8.43399 27.4251 6.93249C28.1401 5.50249 29.0695 3.9295 30.142 3.9295C31.2145 3.9295 31.143 4.3585 31.5005 4.287C32.0725 4.2155 31.9295 3 29.7131 3C27.4966 3 25.8521 4.144 24.7796 6.57499C23.7071 9.00599 20.2751 18.9445 19.7746 20.303C19.2741 21.6615 17.7726 23.5205 16.3426 23.5205C14.9126 23.5205 14.4836 22.019 14.6266 20.8035C14.8411 18.873 16.7716 16.7995 18.4876 16.2275C20.2036 15.727 20.0606 14.5115 18.2731 14.9405C16.4856 15.298 11.8381 17.014 11.8381 20.875C11.8381 24.736 16.7001 25.9515 18.4161 23.8065C17.5581 26.5235 17.3436 27.5244 16.4141 29.7409C15.5561 31.8859 14.3406 35.8899 13.2681 35.8899C12.1956 35.8899 11.6951 35.8184 11.2661 35.6039C10.8371 35.3179 10.1936 36.1044 10.9801 36.3904C11.7666 36.6764 14.1261 37.6059 15.5561 36.3904C16.9146 35.1749 19.0596 30.5989 20.0606 27.3814C21.0616 24.164 22.3486 20.8035 23.2066 18.873C24.0646 16.9425 24.9941 15.9415 26.1381 15.9415C27.2821 15.9415 28.2831 17.3715 27.8541 19.3735C27.4966 21.304 25.2801 23.02 23.7071 23.0915C22.1341 23.2345 22.5631 24.593 24.0646 24.307C25.5661 24.021 27.8541 23.2345 28.9981 22.2335C30.0706 21.2325 30.7855 19.9455 30.714 17.8005C30.6425 15.7985 28.7836 14.5115 26.9961 14.5115C25.2086 14.5115 24.2791 15.6555 24.2791 15.6555Z" fill="white"/>
<path d="M26.6387 30.098L30.5711 26.1655C30.6426 26.094 30.7856 26.0225 30.9286 26.0225H33.7886C33.8601 26.0225 33.8601 26.094 33.7886 26.094L28.5692 31.0275L32.4302 36.533C32.4302 36.533 32.4301 36.6045 32.3586 36.6045H29.4987C29.3557 36.6045 29.2127 36.533 29.1412 36.39L26.6387 32.529C26.6387 32.529 25.8522 32.8865 25.1372 34.1735C24.6367 35.103 24.2792 36.0325 24.2077 36.39C24.2077 36.4615 24.0647 36.533 23.9932 36.533H21.2762C21.2047 36.533 21.1332 36.4615 21.2047 36.39C21.5622 35.4605 23.7072 29.7405 24.0647 28.811C24.4937 27.7385 23.5642 26.3085 22.2772 26.809C21.3477 27.1665 21.2047 26.666 21.8482 26.3085C22.4917 25.951 23.2782 25.665 24.9227 25.665C25.7092 25.665 27.4252 26.237 27.0677 27.8815C26.7817 29.5975 26.6387 30.098 26.6387 30.098Z" fill="white"/>
<defs>
<linearGradient id="paint0_linear_63_1080" x1="0" y1="20" x2="40" y2="20" gradientUnits="userSpaceOnUse">
<stop stop-color="#C94B28"/>
<stop offset="1" stop-color="#7A1831"/>
</linearGradient>
</defs>
</svg>
