<svg width="40" height="40" viewBox="0 0 40 40" fill="none" xmlns="http://www.w3.org/2000/svg">
<path d="M35.76 11.2799C35.6325 11.1935 35.4867 11.1377 35.3341 11.1169C35.1814 11.0961 35.026 11.1108 34.88 11.1599C33.3238 11.0262 31.7617 10.9728 30.2 10.9999H27.64L21 10.9199H16C14.76 10.9199 13.52 10.9199 12.32 10.9999C11.12 11.0799 7.95999 10.9999 6.11999 10.9999H4.55999C4.43266 11.0337 4.31859 11.1053 4.23287 11.2053C4.14715 11.3053 4.09384 11.429 4.07999 11.5599C4.06446 11.6104 4.06089 11.6638 4.06956 11.7159C4.07824 11.7679 4.09892 11.8173 4.12997 11.86C4.16102 11.9027 4.20159 11.9375 4.24845 11.9618C4.29532 11.9861 4.3472 11.9992 4.39999 11.9999H10.68C12.1824 11.8606 13.6923 11.8205 15.2 11.8799H18.2C18.4115 11.9197 18.6285 11.9197 18.84 11.8799H19.12C19.3697 11.941 19.6303 11.941 19.88 11.8799C20.1329 11.8589 20.3871 11.8589 20.64 11.8799C20.8353 11.8185 21.0447 11.8185 21.24 11.8799C21.3323 11.8994 21.4277 11.8994 21.52 11.8799C23.7494 11.8321 25.9798 11.9123 28.2 12.1199L29.44 12.2399C30.5578 12.14 31.6822 12.14 32.8 12.2399C33.64 12.3199 34.44 12.3599 35.2 12.3599L35.6 12.0399C35.6953 11.9444 35.7488 11.8149 35.7488 11.6799C35.7488 11.545 35.6953 11.4155 35.6 11.3199" fill="#E8B909"/>
<path d="M24.68 25.5197V22.7997C24.68 22.3997 24.68 21.9597 24.6 21.5197C24.52 21.0797 24.6 20.5197 24.52 19.9997C24.4832 19.2867 24.3896 18.5777 24.24 17.8797L24.16 17.3997C24.0665 17.2861 24.0106 17.1463 24 16.9997C23.9642 16.86 23.9104 16.7255 23.84 16.5997C23.6493 16.268 23.4211 15.9593 23.16 15.6797C23.1037 15.6145 23.0359 15.5602 22.96 15.5197C22.96 15.5197 22.88 15.5197 22.84 15.4397C22.5892 15.2429 22.3045 15.0938 22 14.9997C21.9683 14.9565 21.9256 14.9226 21.8764 14.9015C21.8271 14.8804 21.7731 14.8728 21.72 14.8797V14.7997H21.6L21 14.6797V14.7597H20.84C20.7734 14.7558 20.7066 14.7558 20.64 14.7597H20.56C20.5339 14.7519 20.5061 14.7519 20.48 14.7597L20.24 14.6797V14.7997C20.148 14.7772 20.052 14.7772 19.96 14.7997H19.2V14.9197C19.1348 14.9053 19.0668 14.9089 19.0034 14.93C18.9401 14.9511 18.8836 14.989 18.84 15.0397C18.7939 15.0423 18.7489 15.0543 18.7077 15.075C18.6664 15.0956 18.6298 15.1244 18.6 15.1597H18.52C18.52 15.2397 18.28 15.3197 18.2 15.3597L18 15.4397C17.9795 15.4418 17.9604 15.451 17.9459 15.4655C17.9313 15.4801 17.9222 15.4992 17.92 15.5197H17.72V15.6797H17.6L17.52 15.7597C17.3844 15.9294 17.2374 16.0898 17.08 16.2397C16.8955 16.4297 16.7218 16.63 16.56 16.8397V16.9997C16.56 16.9997 16.44 17.0797 16.4 17.1997C16.36 17.3197 16.32 17.3997 16.28 17.4397V17.5197C16.2 17.5997 16.2 17.7197 16.16 17.7597C16.1683 17.7786 16.1725 17.799 16.1725 17.8197C16.1725 17.8403 16.1683 17.8607 16.16 17.8797L16.08 17.9997C16.0643 18.0654 16.0643 18.1339 16.08 18.1997V18.2797C16.1212 18.4505 16.1212 18.6288 16.08 18.7997C16.0587 18.9857 16.0587 19.1736 16.08 19.3597C16.0426 19.463 16.0426 19.5763 16.08 19.6797V19.9997L16 20.0797L16.08 20.1997V20.5597C16.0405 20.6901 16.0405 20.8292 16.08 20.9597V21.1997L16 21.3597L16.12 21.4397V21.9597L16.2 22.0397C16.1943 22.0893 16.1984 22.1396 16.2121 22.1876C16.2258 22.2357 16.2489 22.2805 16.28 22.3197H16.12L16.2 22.5197C16.1644 22.6096 16.1644 22.7097 16.2 22.7997C16.1797 22.9054 16.1797 23.0139 16.2 23.1197V23.1997C16.1614 23.2665 16.1411 23.3424 16.1411 23.4197C16.1411 23.4969 16.1614 23.5728 16.2 23.6397C16.12 23.7197 16.2 23.8397 16.2 23.9197L16.04 23.9997L16.24 24.1997C16.2255 24.252 16.2255 24.3073 16.24 24.3597L16.32 24.4397L16.4 24.5997C16.3806 24.692 16.3806 24.7873 16.4 24.8797C16.3922 24.9058 16.3922 24.9336 16.4 24.9597L16.32 25.0397L16.4 25.1597C16.4412 25.2761 16.4412 25.4032 16.4 25.5197C16.3398 25.674 16.3398 25.8453 16.4 25.9997L16.28 26.0797L16.4 26.1597C16.3707 26.2005 16.3549 26.2494 16.3549 26.2997C16.3549 26.3499 16.3707 26.3989 16.4 26.4397V26.6797C16.3617 26.8509 16.3617 27.0284 16.4 27.1997V27.6397C16.4216 27.7855 16.4216 27.9338 16.4 28.0797C16.3716 28.2567 16.3819 28.4377 16.4303 28.6104C16.4786 28.783 16.5638 28.9431 16.68 29.0797H16.84C16.9159 29.0453 16.9796 28.9886 17.0224 28.9171C17.0653 28.8456 17.0854 28.7628 17.08 28.6797V28.5197C17.02 28.189 17.02 27.8503 17.08 27.5197C17.0609 27.4408 17.0609 27.3585 17.08 27.2797C17.0604 27.1605 17.0604 27.0389 17.08 26.9197C17.1002 26.7871 17.1002 26.6522 17.08 26.5197V23.7597C17.0103 23.4312 16.9834 23.095 17 22.7597V21.9197C17.059 21.6293 17.059 21.33 17 21.0397V20.7997C17.0276 20.7658 17.0427 20.7234 17.0427 20.6797C17.0427 20.6359 17.0276 20.5935 17 20.5597C17.0196 20.4539 17.0196 20.3454 17 20.2397C16.9771 20.1749 16.9771 20.1044 17 20.0397V19.7597C17.0402 19.6568 17.0402 19.5425 17 19.4397C17.0953 19.1831 17.1493 18.9131 17.16 18.6397V18.5597C17.1783 18.5079 17.1783 18.4514 17.16 18.3997C17.168 18.2642 17.2248 18.1363 17.32 18.0397C17.4335 17.9035 17.5032 17.7361 17.52 17.5597C17.5552 17.5299 17.584 17.4933 17.6047 17.452C17.6253 17.4107 17.6373 17.3657 17.64 17.3197C17.7196 17.2362 17.7869 17.142 17.84 17.0397C17.8721 16.9741 17.9169 16.9156 17.9718 16.8675C18.0268 16.8194 18.0907 16.7828 18.16 16.7597H18.24V16.6797C18.2984 16.5807 18.381 16.4981 18.48 16.4397C18.5919 16.3842 18.6881 16.3017 18.76 16.1997H18.96C19.0705 16.1545 19.1775 16.101 19.28 16.0397C19.4 15.9197 19.44 15.9197 19.56 15.9597H19.64C19.6745 15.9545 19.7073 15.9409 19.7352 15.9199C19.7631 15.899 19.7854 15.8714 19.8 15.8397C19.8189 15.8479 19.8394 15.8522 19.86 15.8522C19.8806 15.8522 19.9011 15.8479 19.92 15.8397H20.44C20.8137 15.7647 21.2007 15.7923 21.56 15.9197L21.68 15.9997L21.76 15.8797C21.8117 15.9461 21.8787 15.999 21.9554 16.0339C22.032 16.0687 22.1159 16.0844 22.2 16.0797C22.2191 16.1039 22.2434 16.1237 22.2711 16.1375C22.2987 16.1514 22.3291 16.1589 22.36 16.1597C22.4467 16.2402 22.5617 16.2833 22.68 16.2797C22.9065 16.4844 23.0725 16.7472 23.16 17.0397V16.9997H23C23.0199 17.2188 23.1033 17.4273 23.24 17.5997V18.0397L23.32 18.1197C23.322 18.2059 23.3499 18.2895 23.4 18.3597C23.3787 18.3963 23.3648 18.4369 23.3593 18.479C23.3538 18.5211 23.3567 18.5638 23.3679 18.6048C23.379 18.6457 23.3982 18.684 23.4244 18.7175C23.4505 18.751 23.483 18.7789 23.52 18.7997C23.44 18.7997 23.44 18.9197 23.44 18.9997V19.3997L23.52 19.5197V19.7997C23.4206 20.057 23.4206 20.3423 23.52 20.5997C23.44 20.6797 23.52 20.7997 23.52 20.8797V21.1197C23.5459 21.1105 23.5741 21.1105 23.6 21.1197V21.4397C23.6229 21.5044 23.6229 21.5749 23.6 21.6397C23.5824 21.7146 23.5804 21.7923 23.5942 21.868C23.6079 21.9437 23.6372 22.0157 23.68 22.0797V22.1597C23.6717 22.1786 23.6675 22.199 23.6675 22.2197C23.6675 22.2403 23.6717 22.2607 23.68 22.2797V22.3597C23.6822 22.3801 23.6913 22.3992 23.7059 22.4138C23.7204 22.4284 23.7395 22.4375 23.76 22.4397V22.5997H23.68V22.6797C23.6571 22.7444 23.6571 22.8149 23.68 22.8797H23.6C23.6 22.9009 23.6084 22.9212 23.6234 22.9362C23.6384 22.9512 23.6588 22.9597 23.68 22.9597C23.6687 23.0405 23.6774 23.1228 23.7053 23.1995C23.7332 23.2762 23.7794 23.3449 23.84 23.3997C23.84 23.3997 23.84 23.4797 23.92 23.4797H23.84V23.6797H23.72V24.0397C23.6712 24.1006 23.6308 24.1679 23.6 24.2397V24.9997H23.72V25.1997L23.92 25.3197C23.9017 25.3714 23.9017 25.4279 23.92 25.4797H23.76V26.6397L23.64 26.7197L23.8 26.8797V27.0397H23.68L23.88 27.2797C23.886 27.3194 23.886 27.3599 23.88 27.3997C23.8235 27.4664 23.7948 27.5523 23.8 27.6397V27.7997C23.8 27.7997 23.72 27.7997 23.72 27.8797C23.7115 27.8872 23.7047 27.8964 23.7 27.9067C23.6953 27.9171 23.6929 27.9283 23.6929 27.9397C23.6929 27.951 23.6953 27.9622 23.7 27.9726C23.7047 27.9829 23.7115 27.9921 23.72 27.9997H23.52L23.68 28.1597H23.52L23.72 28.2797V28.6797C23.7207 28.7106 23.7283 28.7409 23.7421 28.7686C23.7559 28.7963 23.7757 28.8205 23.8 28.8397C23.8789 28.8587 23.9611 28.8587 24.04 28.8397V28.9997H24.24C24.3592 28.9801 24.4808 28.9801 24.6 28.9997H24.76V28.8397C24.7991 28.2803 24.7991 27.719 24.76 27.1597C24.7195 26.6538 24.7195 26.1455 24.76 25.6397C24.7652 25.5523 24.7365 25.4664 24.68 25.3997" fill="#007638"/>
<path d="M13.6001 25.5196V22.7996C13.6001 22.3996 13.6001 21.9596 13.5201 21.5196C13.4401 21.0796 13.5201 20.5196 13.4401 19.9996C13.4033 19.2866 13.3097 18.5777 13.1601 17.8796L13.0801 17.3996C12.9601 17.2796 12.9601 17.1596 12.8801 16.9996C12.8443 16.8599 12.7905 16.7255 12.7201 16.5996C12.5223 16.2379 12.2804 15.902 12.0001 15.5996C11.9438 15.5344 11.876 15.4802 11.8001 15.4396C11.8001 15.4396 11.7201 15.4396 11.6801 15.3596C11.4701 15.2207 11.241 15.1129 11.0001 15.0396C10.9684 14.9964 10.9257 14.9625 10.8765 14.9414C10.8272 14.9203 10.7732 14.9128 10.7201 14.9196V14.8396H10.6001L10.0401 14.7596H9.84006V14.8396H9.68006C9.61345 14.8358 9.54667 14.8358 9.48006 14.8396H9.36006C9.33396 14.8318 9.30616 14.8318 9.28006 14.8396L9.00006 14.6396V14.7596C8.90808 14.7371 8.81204 14.7371 8.72006 14.7596H8.00006V14.8796C7.93481 14.8652 7.86689 14.8688 7.80351 14.8899C7.74012 14.9111 7.68364 14.949 7.64006 14.9996C7.59401 15.0023 7.54898 15.0143 7.50772 15.0349C7.46646 15.0556 7.42983 15.0844 7.40006 15.1196H7.32006C7.23634 15.2174 7.12466 15.2872 7.00006 15.3196L6.80006 15.3996C6.77959 15.4018 6.76048 15.4109 6.74592 15.4255C6.73136 15.44 6.72223 15.4591 6.72006 15.4796H6.52006V15.6396H6.40006L6.32006 15.7196C6.18445 15.8894 6.03745 16.0498 5.88006 16.1996C5.69552 16.3896 5.5219 16.5899 5.36006 16.7996V16.9596C5.36006 16.9596 5.24006 17.0396 5.24006 17.1596C5.24006 17.2796 5.16006 17.3596 5.12006 17.3996V17.4796C5.04006 17.5596 5.04006 17.6796 5.00006 17.7196C5.00832 17.7385 5.01258 17.759 5.01258 17.7796C5.01258 17.8003 5.00832 17.8207 5.00006 17.8396V17.9196C4.98434 17.9854 4.98434 18.0539 5.00006 18.1196V18.1996C5.04123 18.3705 5.04123 18.5487 5.00006 18.7196C4.97875 18.9057 4.97875 19.0936 5.00006 19.2796C4.96263 19.383 4.96263 19.4962 5.00006 19.5996V19.9996H4.56006L4.64006 20.1196V20.4796C4.60057 20.61 4.60057 20.7492 4.64006 20.8796V21.1196L4.56006 21.2796L4.68006 21.3596V21.8796L4.76006 21.9596C4.75433 22.0093 4.75845 22.0595 4.77218 22.1076C4.7859 22.1556 4.80897 22.2005 4.84006 22.2396H4.68006L4.76006 22.4396C4.73906 22.5318 4.73906 22.6275 4.76006 22.7196C4.7398 22.8253 4.7398 22.9339 4.76006 23.0396V23.1196C4.72144 23.1865 4.70111 23.2624 4.70111 23.3396C4.70111 23.4169 4.72144 23.4927 4.76006 23.5596C4.68006 23.6396 4.76006 23.7596 4.76006 23.8396L4.56006 23.9196L4.76006 24.1196C4.74558 24.172 4.74558 24.2273 4.76006 24.2796L4.84006 24.3596L4.92006 24.5196C4.90064 24.6119 4.90064 24.7073 4.92006 24.7996C4.91228 24.8257 4.91228 24.8535 4.92006 24.8796L4.84006 24.9596L4.92006 25.0796C4.96124 25.1961 4.96124 25.3231 4.92006 25.4396C4.85982 25.5939 4.85982 25.7653 4.92006 25.9196L4.80006 25.9996L4.92006 26.0796C4.89076 26.1204 4.875 26.1694 4.875 26.2196C4.875 26.2698 4.89076 26.3188 4.92006 26.3596V26.5996C4.88173 26.7708 4.88173 26.9484 4.92006 27.1196V27.5596C4.94169 27.7055 4.94169 27.8537 4.92006 27.9996C4.89167 28.1766 4.902 28.3577 4.95034 28.5303C4.99868 28.703 5.08387 28.8631 5.20006 28.9996H5.36006C5.43598 28.9652 5.49961 28.9085 5.54249 28.8371C5.58537 28.7656 5.60545 28.6828 5.60006 28.5996V28.4396C5.54006 28.109 5.54006 27.7702 5.60006 27.4396V27.3996C5.58047 27.2804 5.58047 27.1588 5.60006 27.0396C5.62023 26.907 5.62023 26.7722 5.60006 26.6396C5.64177 25.9736 5.64177 25.3056 5.60006 24.6396V23.8796C5.56004 23.5743 5.56004 23.265 5.60006 22.9596V22.1196C5.65905 21.8292 5.65905 21.53 5.60006 21.2396V20.7996C5.62767 20.7657 5.64275 20.7233 5.64275 20.6796C5.64275 20.6359 5.62767 20.5935 5.60006 20.5596C5.61962 20.4538 5.61962 20.3454 5.60006 20.2396C5.57718 20.1749 5.57718 20.1043 5.60006 20.0396V19.7596C5.64022 19.6567 5.64022 19.5425 5.60006 19.4396C5.69532 19.1831 5.74933 18.9131 5.76006 18.6396V18.5596C5.77836 18.5079 5.77836 18.4514 5.76006 18.3996C5.76006 18.2796 5.84006 18.1996 5.92006 18.0396C6.03356 17.9034 6.10327 17.7361 6.12006 17.5596C6.1553 17.5298 6.18411 17.4932 6.20474 17.452C6.22537 17.4107 6.23739 17.3657 6.24006 17.3196C6.33222 17.2474 6.40165 17.1502 6.44006 17.0396C6.52006 16.9196 6.56006 16.7996 6.76006 16.7596H6.84006V16.6796C6.83115 16.6049 6.84113 16.5291 6.86908 16.4592C6.89704 16.3893 6.94207 16.3276 7.00006 16.2796C7.10212 16.2077 7.18461 16.1115 7.24006 15.9996H7.44006C7.55061 15.9544 7.65758 15.9009 7.76006 15.8396C7.88006 15.7196 7.92006 15.7196 8.04006 15.7596H8.12006C8.15461 15.7545 8.18733 15.7408 8.21526 15.7199C8.2432 15.6989 8.26547 15.6713 8.28006 15.6396C8.29899 15.6479 8.31941 15.6521 8.34006 15.6521C8.36071 15.6521 8.38114 15.6479 8.40006 15.6396H8.96006C9.33367 15.5631 9.72112 15.5908 10.0801 15.7196L10.2001 15.7996L10.2801 15.6796C10.3318 15.7461 10.3988 15.799 10.4755 15.8338C10.5521 15.8687 10.636 15.8844 10.7201 15.8796C10.7392 15.9039 10.7635 15.9237 10.7912 15.9375C10.8188 15.9513 10.8492 15.9589 10.8801 15.9596C10.9668 16.0401 11.0818 16.0833 11.2001 16.0796C11.4266 16.2843 11.5926 16.5472 11.6801 16.8396V16.9996H11.8001C11.82 17.2187 11.9034 17.4272 12.0401 17.5996V17.9996L12.1201 18.0796C12.1221 18.1658 12.15 18.2494 12.2001 18.3196C12.1788 18.3563 12.1649 18.3969 12.1594 18.4389C12.1539 18.481 12.1568 18.5238 12.168 18.5647C12.1791 18.6057 12.1983 18.644 12.2245 18.6775C12.2506 18.7109 12.2831 18.7388 12.3201 18.7596C12.2401 18.7596 12.2401 18.8796 12.2401 18.9596V19.2396L12.1601 19.3596V19.4796L12.2401 19.5996V19.8796C12.1407 20.137 12.1407 20.4222 12.2401 20.6796C12.1601 20.7596 12.2401 20.8796 12.2401 20.9596V21.1996C12.266 21.1905 12.2942 21.1905 12.3201 21.1996V21.5196C12.343 21.5843 12.343 21.6549 12.3201 21.7196C12.3025 21.7945 12.3005 21.8722 12.3143 21.9479C12.328 22.0236 12.3573 22.0957 12.4001 22.1596V22.2396C12.3918 22.2585 12.3876 22.279 12.3876 22.2996C12.3876 22.3203 12.3918 22.3407 12.4001 22.3596V22.4396C12.4023 22.4601 12.4114 22.4792 12.426 22.4938C12.4405 22.5083 12.4596 22.5174 12.4801 22.5196V22.6796H12.4001V22.7596C12.3772 22.8243 12.3772 22.8949 12.4001 22.9596V23.0796C12.4001 23.1008 12.4085 23.1212 12.4235 23.1362C12.4385 23.1512 12.4589 23.1596 12.4801 23.1596C12.4688 23.2404 12.4775 23.3228 12.5054 23.3995C12.5333 23.4762 12.5795 23.5449 12.6401 23.5996L12.7201 23.6796H12.6401V23.8796H12.5201V24.2396C12.4713 24.3006 12.4309 24.3679 12.4001 24.4396V24.5596H12.5201V24.7596L12.7201 24.8796C12.7018 24.9314 12.7018 24.9879 12.7201 25.0396H12.5601V25.9996C12.5518 26.0185 12.5476 26.039 12.5476 26.0596C12.5476 26.0803 12.5518 26.1007 12.5601 26.1196V26.8396L12.4401 26.9196L12.6001 27.0796V27.2396H12.4801L12.6801 27.4796C12.6861 27.5194 12.6861 27.5598 12.6801 27.5996C12.6236 27.6663 12.5949 27.7523 12.6001 27.8396V27.9996C12.6001 27.9996 12.5201 27.9996 12.5201 28.0796C12.5116 28.0871 12.5048 28.0964 12.5001 28.1067C12.4954 28.117 12.493 28.1283 12.493 28.1396C12.493 28.151 12.4954 28.1622 12.5001 28.1725C12.5048 28.1829 12.5116 28.1921 12.5201 28.1996H12.3201L12.4801 28.3596H12.3201L12.4401 28.4796V28.8796C12.4408 28.9105 12.4484 28.9409 12.4622 28.9686C12.476 28.9962 12.4958 29.0205 12.5201 29.0396C12.599 29.0587 12.6812 29.0587 12.7601 29.0396V29.1996H12.9601C13.0793 29.18 13.2009 29.18 13.3201 29.1996H13.4801V29.0396C13.5192 28.4803 13.5192 27.9189 13.4801 27.3596C13.4396 26.8538 13.4396 26.3455 13.4801 25.8396C13.5043 25.7208 13.5043 25.5984 13.4801 25.4796" fill="#0061AF"/>
<path d="M35.5998 25.7198V22.9998C35.5998 22.5998 35.5998 22.1598 35.5198 21.7198C35.4398 21.2798 35.5198 20.7198 35.4398 20.1998C35.403 19.4868 35.3094 18.7779 35.1598 18.0798L35.0798 17.5998C34.9745 17.4895 34.9048 17.3501 34.8798 17.1998C34.844 17.0601 34.7902 16.9256 34.7198 16.7998C34.522 16.438 34.2801 16.1021 33.9998 15.7998C33.9525 15.726 33.8822 15.6697 33.7998 15.6398C33.7998 15.6398 33.7198 15.6398 33.6798 15.5598C33.4698 15.4209 33.2407 15.3131 32.9998 15.2398C32.9633 15.1655 32.9061 15.1034 32.8352 15.0608C32.7642 15.0182 32.6825 14.997 32.5998 14.9998H32.4798L31.8798 14.9198H31.7998V14.9998H31.6398C31.5732 14.9959 31.5064 14.9959 31.4398 14.9998H31.3598C31.3337 14.992 31.3059 14.992 31.2798 14.9998L30.9998 14.8398V14.9998C30.9501 14.9915 30.8992 14.9944 30.8508 15.0083C30.8024 15.0221 30.7576 15.0465 30.7198 15.0798H29.9998V15.1998C29.9346 15.1854 29.8666 15.189 29.8032 15.2101C29.7399 15.2312 29.6834 15.2691 29.6398 15.3198C29.5523 15.3426 29.4706 15.3835 29.3998 15.4398H29.3198C29.2361 15.5376 29.1244 15.6074 28.9998 15.6398L28.7998 15.7198C28.7737 15.712 28.7459 15.712 28.7198 15.7198H28.5198V15.9998H28.3998L28.3198 16.0798C28.1998 16.2398 28.0398 16.3998 27.9198 16.5598C27.7353 16.7498 27.5616 16.9501 27.3998 17.1598V17.3198C27.3998 17.3198 27.2798 17.3998 27.2398 17.5198C27.1833 17.5865 27.1546 17.6725 27.1598 17.7598V17.8398C26.9998 17.8798 26.9998 17.9998 26.9998 17.9998C27.0081 18.0187 27.0123 18.0391 27.0123 18.0598C27.0123 18.0804 27.0081 18.1008 26.9998 18.1198L26.9198 18.2398C26.9041 18.3055 26.9041 18.374 26.9198 18.4398V18.5198C26.961 18.6907 26.961 18.8689 26.9198 19.0398C26.8985 19.2258 26.8985 19.4137 26.9198 19.5998C26.8824 19.7031 26.8824 19.8164 26.9198 19.9198V19.9998L26.8398 20.0798L26.9198 20.1998V20.5598C26.8803 20.6902 26.8803 20.8294 26.9198 20.9598V21.1998L26.8398 21.3598L26.9598 21.4398V21.8398L26.8798 21.9998L26.9598 22.0798C26.9531 22.1796 26.9814 22.2786 27.0398 22.3598H26.8798L26.9598 22.5598C26.9242 22.6497 26.9242 22.7498 26.9598 22.8398C26.9395 22.9455 26.9395 23.0541 26.9598 23.1598V23.2398C26.9212 23.3067 26.9009 23.3825 26.9009 23.4598C26.9009 23.537 26.9212 23.6129 26.9598 23.6798C26.8798 23.7598 26.9598 23.8798 26.9598 23.9598H26.8398L27.0398 24.1598C27.0253 24.2121 27.0253 24.2674 27.0398 24.3198L27.1198 24.3998L27.1998 24.5598C27.1773 24.6517 27.1773 24.7478 27.1998 24.8398C27.192 24.8659 27.192 24.8937 27.1998 24.9198L27.1198 24.9998L27.1998 25.1198C27.241 25.2362 27.241 25.3633 27.1998 25.4798C27.1396 25.6341 27.1396 25.8054 27.1998 25.9598H27.0398L27.1598 26.0398C27.129 26.0799 27.1123 26.1291 27.1123 26.1798C27.1123 26.2304 27.129 26.2796 27.1598 26.3198V26.5598C27.1208 26.7174 27.1208 26.8821 27.1598 27.0398V27.4798C27.1814 27.6256 27.1814 27.7739 27.1598 27.9198C27.1314 28.0968 27.1417 28.2779 27.1901 28.4505C27.2384 28.6231 27.3236 28.7832 27.4398 28.9198H27.5198C27.5957 28.8854 27.6594 28.8287 27.7022 28.7572C27.7451 28.6858 27.7652 28.6029 27.7598 28.5198V28.3598C27.6998 28.0291 27.6998 27.6904 27.7598 27.3598C27.7407 27.2809 27.7407 27.1986 27.7598 27.1198V27.0398C27.7402 26.9206 27.7402 26.799 27.7598 26.6798C27.78 26.5472 27.78 26.4123 27.7598 26.2798C27.8015 25.6138 27.8015 24.9458 27.7598 24.2798V23.5198C27.7198 23.2144 27.7198 22.9051 27.7598 22.5998V21.7598C27.8188 21.4694 27.8188 21.1701 27.7598 20.8798V20.9998C27.7874 20.9659 27.8025 20.9235 27.8025 20.8798C27.8025 20.836 27.7874 20.7937 27.7598 20.7598C27.7794 20.654 27.7794 20.5455 27.7598 20.4398V19.9598C27.8 19.8569 27.8 19.7427 27.7598 19.6398C27.8512 19.396 27.9051 19.1397 27.9198 18.8798V18.7998C27.9198 18.7198 27.9198 18.6798 27.8398 18.6398C27.7598 18.5998 27.9198 18.4398 27.9998 18.3198C28.1133 18.1836 28.183 18.0163 28.1998 17.8398C28.235 17.81 28.2638 17.7734 28.2845 17.7321C28.3051 17.6908 28.3171 17.6458 28.3198 17.5998C28.412 17.5276 28.4814 17.4304 28.5198 17.3198C28.5519 17.2542 28.5967 17.1957 28.6516 17.1476C28.7066 17.0995 28.7705 17.0629 28.8398 17.0398H28.9198V16.9598C28.9198 16.8798 29.0398 16.8398 29.1598 16.7598C29.2717 16.7043 29.3679 16.6218 29.4398 16.5198C29.4771 16.5229 29.5146 16.5174 29.5493 16.5035C29.584 16.4896 29.615 16.4678 29.6398 16.4398C29.7503 16.3946 29.8573 16.3411 29.9598 16.2798C30.0798 16.1598 30.1198 16.1598 30.2398 16.1998H30.3198C30.3543 16.1946 30.3871 16.181 30.415 16.16C30.4429 16.1391 30.4652 16.1115 30.4798 16.0798C30.4987 16.088 30.5192 16.0923 30.5398 16.0923C30.5604 16.0923 30.5809 16.088 30.5998 16.0798H31.0798C31.3741 15.9726 31.6914 15.945 31.9998 15.9998L32.1198 16.0798L32.1998 15.9998C32.2515 16.0662 32.3185 16.1192 32.3952 16.154C32.4718 16.1888 32.5557 16.2045 32.6398 16.1998C32.6854 16.2492 32.7396 16.2899 32.7998 16.3198C32.8259 16.3275 32.8537 16.3275 32.8798 16.3198C32.9665 16.4003 33.0815 16.4434 33.1998 16.4398C33.4263 16.6445 33.5923 16.9073 33.6798 17.1998V17.3598H33.7998C33.8197 17.5789 33.9031 17.7874 34.0398 17.9598V18.3598L34.1198 18.4398C34.1277 18.5375 34.1549 18.6327 34.1998 18.7198C34.1785 18.7565 34.1646 18.797 34.1591 18.8391C34.1536 18.8812 34.1565 18.9239 34.1677 18.9649C34.1788 19.0058 34.198 19.0442 34.2242 19.0776C34.2503 19.1111 34.2828 19.139 34.3198 19.1598C34.2398 19.1598 34.2398 19.2798 34.2398 19.3598V19.6398L34.3198 19.7598V19.9998C34.2204 20.2572 34.2204 20.5424 34.3198 20.7998C34.2398 20.8798 34.3198 20.9998 34.3198 21.0798V21.3198C34.3457 21.3106 34.3739 21.3106 34.3998 21.3198V21.4798H34.4798V21.9998C34.5027 22.0645 34.5027 22.1351 34.4798 22.1998C34.4622 22.2747 34.4602 22.3524 34.474 22.4281C34.4877 22.5038 34.517 22.5759 34.5598 22.6398V22.7198C34.5515 22.7387 34.5473 22.7591 34.5473 22.7798C34.5473 22.8004 34.5515 22.8208 34.5598 22.8398V22.9198C34.562 22.9402 34.5711 22.9593 34.5857 22.9739C34.6002 22.9885 34.6193 22.9976 34.6398 22.9998V23.1598H34.5598V23.2398C34.5369 23.3045 34.5369 23.3751 34.5598 23.4398L34.4798 23.5598C34.4798 23.581 34.4882 23.6013 34.5032 23.6163C34.5182 23.6313 34.5386 23.6398 34.5598 23.6398C34.5525 23.7204 34.563 23.8016 34.5906 23.8776C34.6183 23.9537 34.6624 24.0227 34.7198 24.0798C34.7198 24.0798 34.7198 24.1598 34.7998 24.1598V24.3598H34.6798V24.6798C34.631 24.7407 34.5906 24.808 34.5598 24.8798V24.9998H34.6798V25.1998L34.8798 25.3198C34.8615 25.3715 34.8615 25.428 34.8798 25.4798H34.7198V26.9998L34.5998 27.0798L34.7598 27.2398V27.3998H34.6398L34.8398 27.6398C34.8458 27.6795 34.8458 27.72 34.8398 27.7598C34.7833 27.8265 34.7546 27.9125 34.7598 27.9998V28.0798L34.6798 28.1598V28.2798H34.4798L34.6398 28.4398H34.4798L34.5998 28.5598V28.9998C34.6005 29.0307 34.6081 29.0611 34.6219 29.0887C34.6357 29.1164 34.6555 29.1406 34.6798 29.1598C34.7587 29.1789 34.8409 29.1789 34.9198 29.1598V29.3198H35.1198C35.239 29.3002 35.3606 29.3002 35.4798 29.3198H35.6398V29.1998C35.6793 28.6405 35.6793 28.0791 35.6398 27.5198C35.5993 27.0139 35.5993 26.5056 35.6398 25.9998V25.7198" fill="#F37021"/>
<path d="M0 40H40V0H0V40ZM37.88 37.88H2.12V2.12H37.88V37.88Z" fill="#F37021"/>
</svg>
