<?xml version="1.0" encoding="UTF-8"?>
<svg version="1.1" xmlns="http://www.w3.org/2000/svg" width="225" height="225">
<path d="M0 0 C74.25 0 148.5 0 225 0 C225 74.25 225 148.5 225 225 C150.75 225 76.5 225 0 225 C0 150.75 0 76.5 0 0 Z " fill="#4362B2" transform="translate(0,0)"/>
<path d="M0 0 C0 6.27 0 12.54 0 19 C2.97 19 5.94 19 9 19 C9 20.65 9 22.3 9 24 C5.04 24 1.08 24 -3 24 C-3 26.64 -3 29.28 -3 32 C-1.02 32 0.96 32 3 32 C2.67 33.32 2.34 34.64 2 36 C0.35 36 -1.3 36 -3 36 C-3 38.97 -3 41.94 -3 45 C-2.01 45 -1.02 45 0 45 C2 47 2 47 2 50 C1.01 50.495 1.01 50.495 0 51 C0 52.98 0 54.96 0 57 C-27.39 57 -54.78 57 -83 57 C-83 55.68 -83 54.36 -83 53 C-74.42 52.67 -65.84 52.34 -57 52 C-57 51.01 -57 50.02 -57 49 C-59.31 49 -61.62 49 -64 49 C-64.33 43.39 -64.66 37.78 -65 32 C-65.71285156 33.2271875 -66.42570312 34.454375 -67.16015625 35.71875 C-68.12627108 37.31330846 -69.09379292 38.90701503 -70.0625 40.5 C-70.76149414 41.71623047 -70.76149414 41.71623047 -71.47460938 42.95703125 C-71.94833984 43.72402344 -72.42207031 44.49101563 -72.91015625 45.28125 C-73.33433838 45.99345703 -73.75852051 46.70566406 -74.19555664 47.43945312 C-76 49 -76 49 -83 49 C-83 39.1 -83 29.2 -83 19 C-80.69 19 -78.38 19 -76 19 C-75.67 24.94 -75.34 30.88 -75 37 C-74.217777 33.87110801 -73.88566682 31.8599909 -73.9375 28.75 C-73.958125 27.5125 -73.97875 26.275 -74 25 C-73.01 24.67 -72.02 24.34 -71 24 C-71.66 22.35 -72.32 20.7 -73 19 C-72.34 19 -71.68 19 -71 19 C-70.67 18.34 -70.34 17.68 -70 17 C-68.47160339 15.47160339 -67.10087018 15.87284802 -64.97094727 15.87060547 C-64.11658585 15.86745331 -63.26222443 15.86430115 -62.38197327 15.86105347 C-61.45283615 15.8630777 -60.52369904 15.86510193 -59.56640625 15.8671875 C-58.61813461 15.86623077 -57.66986298 15.86527405 -56.69285583 15.86428833 C-54.68285048 15.86360637 -52.67284294 15.86546177 -50.6628418 15.86962891 C-47.5792141 15.87497104 -44.49573247 15.8696875 -41.41210938 15.86328125 C-39.46354134 15.86394214 -37.5149734 15.86522354 -35.56640625 15.8671875 C-34.63929337 15.86516327 -33.71218048 15.86313904 -32.75697327 15.86105347 C-31.89945969 15.86420563 -31.04194611 15.86735779 -30.15844727 15.87060547 C-29.40201431 15.87140106 -28.64558136 15.87219666 -27.8662262 15.87301636 C-26 16 -26 16 -24 17 C-24 17.66 -24 18.32 -24 19 C-21.36 19 -18.72 19 -16 19 C-16 25.6 -16 32.2 -16 39 C-14.35 39.66 -12.7 40.32 -11 41 C-10.9419524 37.72924117 -10.90638835 34.45861476 -10.875 31.1875 C-10.84986328 29.7943457 -10.84986328 29.7943457 -10.82421875 28.37304688 C-10.81777344 27.48037109 -10.81132813 26.58769531 -10.8046875 25.66796875 C-10.79421387 24.84578857 -10.78374023 24.0236084 -10.77294922 23.17651367 C-10.86003865 20.70578408 -10.86003865 20.70578408 -13 18 C-13.62398248 11.51058216 -12.06409984 6.7758584 -8.1875 1.5625 C-6 0 -6 0 0 0 Z " fill="#96A6CB" transform="translate(104,72)"/>
<path d="M0 0 C3.0453291 0.92068089 5.62367264 1.73866156 8.25 3.5625 C12.32208938 5.69109218 16.46418209 5.74458501 21 6 C21 6.33 21 6.66 21 7 C19.35 7.33 17.7 7.66 16 8 C16.92232422 8.79664062 16.92232422 8.79664062 17.86328125 9.609375 C18.67152344 10.31578125 19.47976562 11.0221875 20.3125 11.75 C21.11300781 12.44609375 21.91351563 13.1421875 22.73828125 13.859375 C25 16 25 16 26.25862122 18.09967041 C27.8932416 20.26458336 27.8932416 20.26458336 30.75248718 20.51898193 C31.86501358 20.52786438 32.97753998 20.53674683 34.1237793 20.54589844 C36.01540047 20.57547638 36.01540047 20.57547638 37.94523621 20.60565186 C39.32156328 20.60731501 40.69789093 20.60854588 42.07421875 20.609375 C43.48242601 20.62435466 44.89061568 20.64108137 46.29878235 20.65948486 C50.00266317 20.70319575 53.70630701 20.72316536 57.41040039 20.73822021 C61.19106074 20.75777815 64.97146465 20.79974948 68.75195312 20.83984375 C76.16789987 20.91518607 83.58373913 20.96545272 91 21 C91.33 20.34 91.66 19.68 92 19 C92 20.32 92 21.64 92 23 C71.21 23 50.42 23 29 23 C29 23.99 29 24.98 29 26 C29.66 26 30.32 26 31 26 C31 31.94 31 37.88 31 44 C30.34 44 29.68 44 29 44 C28.79375 44.680625 28.5875 45.36125 28.375 46.0625 C26.57152999 49.91536774 24.18720542 53.16353968 21 56 C18.8046875 56.703125 18.8046875 56.703125 17 57 C17 57.66 17 58.32 17 59 C13.04 59.99 9.08 60.98 5 62 C5.33 62.825 5.66 63.65 6 64.5 C7.16782809 68.5873983 7.1458885 71.76923344 7 76 C6.34 76 5.68 76 5 76 C4.9175 76.7425 4.835 77.485 4.75 78.25 C3.8405398 81.58468741 2.76266666 82.94773334 0 85 C-2.25 84.75 -2.25 84.75 -4 84 C-2.125 79.25 -2.125 79.25 -1 77 C-2.093125 76.9175 -3.18625 76.835 -4.3125 76.75 C-8 76 -8 76 -9.71875 74.3125 C-11.31756097 71.42684118 -11.30453966 69.52711048 -11.1875 66.25 C-11.14689453 64.77273437 -11.14689453 64.77273437 -11.10546875 63.265625 C-11.07066406 62.51796875 -11.03585938 61.7703125 -11 61 C-16.65893436 58.04751251 -21.62309134 57.17751764 -28 58 C-30.23642725 58.94237492 -30.23642725 58.94237492 -32 60 C-33 59 -33 59 -33.11352539 56.49975586 C-33.10828857 55.41573486 -33.10305176 54.33171387 -33.09765625 53.21484375 C-33.09443359 52.04501953 -33.09121094 50.87519531 -33.08789062 49.66992188 C-33.07532227 47.82237305 -33.07532227 47.82237305 -33.0625 45.9375 C-33.05798828 44.70193359 -33.05347656 43.46636719 -33.04882812 42.19335938 C-33.03699608 39.12885883 -33.02051173 36.06445279 -33 33 C-30 34 -30 34 -28.67578125 36.4765625 C-28.22589844 37.51554687 -27.77601562 38.55453125 -27.3125 39.625 C-23.87533352 46.76242472 -19.61519826 51.56492902 -12.375 54.9375 C-4.41358528 57.49145878 5.23321081 56.95877683 13 54 C13 53.34 13 52.68 13 52 C14.33333333 50.66666667 15.66666667 49.33333333 17 48 C19.55313972 43.73580875 19.53878502 39.84906517 19 35 C17.28757714 30.13311399 15.4673328 28.41477449 11 26 C11 25.34 11 24.68 11 24 C9.02 24 7.04 24 5 24 C5 30.27 5 36.54 5 43 C6.65 43.33 8.3 43.66 10 44 C10 45.32 10 46.64 10 48 C1.75 48 -6.5 48 -15 48 C-15.33 46.35 -15.66 44.7 -16 43 C-14.68 42.34 -13.36 41.68 -12 41 C-11.67 35.06 -11.34 29.12 -11 23 C-37.73 23 -64.46 23 -92 23 C-92 22.67 -92 22.34 -92 22 C-65.27 22 -38.54 22 -11 22 C-11 19.69 -11 17.38 -11 15 C-13.64 15 -16.28 15 -19 15 C-19 14.67 -19 14.34 -19 14 C-18.03578125 13.90203125 -17.0715625 13.8040625 -16.078125 13.703125 C-14.81484375 13.55359375 -13.5515625 13.4040625 -12.25 13.25 C-10.99703125 13.11078125 -9.7440625 12.9715625 -8.453125 12.828125 C-4.64775116 11.91552403 -3.28268861 11.13310202 -1 8 C-0.31883062 5.89061935 -0.31883062 5.89061935 -0.25 3.75 C-0.1675 2.5125 -0.085 1.275 0 0 Z " fill="#213977" transform="translate(115,108)"/>
<path d="M0 0 C2.66666667 1.33333333 5.33333333 2.66666667 8 4 C8 4.66 8 5.32 8 6 C8.66 6 9.32 6 10 6 C11.75839846 9.26559714 13.20395876 12.46982402 14.3125 16 C16.15919624 21.63664799 18.41518327 27.08647037 20.6875 32.5625 C21.10322266 33.57119141 21.51894531 34.57988281 21.94726562 35.61914062 C22.96215979 38.0805506 23.97978253 40.54079283 25 43 C18.20209801 29.26857703 17.2269985 18.15265545 19 3 C19.33 3.99 19.66 4.98 20 6 C20.99 6 21.98 6 23 6 C23 8.31 23 10.62 23 13 C26.46254353 14.73127177 30.44556605 13.89765716 34.25 13.7421875 C35.1575 13.82726562 36.065 13.91234375 37 14 C39.29013653 17.4352048 39.17842973 18.985331 39 23 C41.64 23 44.28 23 47 23 C47 20.03 47 17.06 47 14 C50.63 14 54.26 14 58 14 C57.67 15.65 57.34 17.3 57 19 C56.67 19 56.34 19 56 19 C55.67 28.24 55.34 37.48 55 47 C52.36 47 49.72 47 47 47 C47.33 47.99 47.66 48.98 48 50 C66.315 50.495 66.315 50.495 85 51 C85 52.32 85 53.64 85 55 C76.92428619 55.20919818 68.84971699 55.36877069 60.7719574 55.46630955 C57.02033315 55.51314249 53.27057162 55.57657506 49.52001953 55.67895508 C45.89532404 55.77727212 42.27241096 55.83066203 38.64648438 55.85389519 C37.26843204 55.87043396 35.89046964 55.90273497 34.51318359 55.95157051 C23.73971212 56.31812833 23.73971212 56.31812833 19.40991211 53.03756714 C17.39256442 50.78401283 15.68287381 48.50869596 14 46 C10.21284856 41.75100082 7.22776707 39.97274229 2 38 C1.34 37.67 0.68 37.34 0 37 C0 24.79 0 12.58 0 0 Z " fill="#87A4E7" transform="translate(121,74)"/>
<path d="M0 0 C0.85113373 -0.00960754 1.70226746 -0.01921509 2.57919312 -0.02911377 C3.96819321 -0.03548859 3.96819321 -0.03548859 5.38525391 -0.04199219 C6.33115387 -0.04769226 7.27705383 -0.05339233 8.25161743 -0.05926514 C10.25741451 -0.06873083 12.26322725 -0.07525532 14.26904297 -0.07910156 C17.34190966 -0.08880433 20.41410697 -0.11981176 23.48681641 -0.15136719 C25.43212492 -0.15789715 27.37743823 -0.16314765 29.32275391 -0.16699219 C30.24470551 -0.17933899 31.1666571 -0.19168579 32.11654663 -0.20440674 C32.97398468 -0.20140564 33.83142273 -0.19840454 34.71484375 -0.1953125 C35.46905609 -0.19895813 36.22326843 -0.20260376 37.00033569 -0.20635986 C39.5467474 0.26471828 40.43106211 1.12393331 41.98681641 3.16113281 C42.32739258 5.79663086 42.32739258 5.79663086 42.27978516 8.92285156 C42.2652832 10.60024414 42.2652832 10.60024414 42.25048828 12.31152344 C42.22535156 13.47876953 42.20021484 14.64601563 42.17431641 15.84863281 C42.15401367 17.6169043 42.15401367 17.6169043 42.13330078 19.42089844 C42.09790967 22.33476692 42.0485345 25.24772226 41.98681641 28.16113281 C39.67681641 28.16113281 37.36681641 28.16113281 34.98681641 28.16113281 C34.98681641 19.91113281 34.98681641 11.66113281 34.98681641 3.16113281 C32.67681641 3.16113281 30.36681641 3.16113281 27.98681641 3.16113281 C27.98681641 11.41113281 27.98681641 19.66113281 27.98681641 28.16113281 C25.67681641 28.16113281 23.36681641 28.16113281 20.98681641 28.16113281 C20.98681641 19.91113281 20.98681641 11.66113281 20.98681641 3.16113281 C19.00681641 3.16113281 17.02681641 3.16113281 14.98681641 3.16113281 C14.98681641 13.39113281 14.98681641 23.62113281 14.98681641 34.16113281 C26.20681641 34.16113281 37.42681641 34.16113281 48.98681641 34.16113281 C48.49181641 35.15113281 48.49181641 35.15113281 47.98681641 36.16113281 C34.97805516 36.80404741 22.01321668 37.33128898 8.98681641 37.16113281 C8.65681641 35.84113281 8.32681641 34.52113281 7.98681641 33.16113281 C5.67681641 33.16113281 3.36681641 33.16113281 0.98681641 33.16113281 C0.65681641 27.55113281 0.32681641 21.94113281 -0.01318359 16.16113281 C-0.72603516 17.38832031 -1.43888672 18.61550781 -2.17333984 19.87988281 C-3.13945467 21.47444127 -4.10697651 23.06814784 -5.07568359 24.66113281 C-5.54167969 25.47195312 -6.00767578 26.28277344 -6.48779297 27.11816406 C-6.96152344 27.88515625 -7.43525391 28.65214844 -7.92333984 29.44238281 C-8.34752197 30.15458984 -8.7717041 30.86679688 -9.20874023 31.60058594 C-11.01318359 33.16113281 -11.01318359 33.16113281 -18.01318359 33.16113281 C-18.01318359 23.26113281 -18.01318359 13.36113281 -18.01318359 3.16113281 C-15.70318359 3.16113281 -13.39318359 3.16113281 -11.01318359 3.16113281 C-10.68318359 9.10113281 -10.35318359 15.04113281 -10.01318359 21.16113281 C-9.2309606 18.03224082 -8.89885041 16.02112371 -8.95068359 12.91113281 C-8.97130859 11.67363281 -8.99193359 10.43613281 -9.01318359 9.16113281 C-8.02318359 8.83113281 -7.03318359 8.50113281 -6.01318359 8.16113281 C-6.67318359 6.51113281 -7.33318359 4.86113281 -8.01318359 3.16113281 C-7.35318359 3.16113281 -6.69318359 3.16113281 -6.01318359 3.16113281 C-5.68318359 2.50113281 -5.35318359 1.84113281 -5.01318359 1.16113281 C-3.48940224 -0.36264855 -2.12505737 0.01927915 0 0 Z " fill="#748ABC" transform="translate(39.01318359375,87.8388671875)"/>
<path d="M0 0 C8.25 0 16.5 0 25 0 C24.67 1.32 24.34 2.64 24 4 C23.01 4.33 22.02 4.66 21 5 C21 20.18 21 35.36 21 51 C19.35 50.67 17.7 50.34 16 50 C16 49.34 16 48.68 16 48 C15.01 48 14.02 48 13 48 C13 47.01 13 46.02 13 45 C13.99 45 14.98 45 16 45 C16 44.01 16 43.02 16 42 C15.278125 42.515625 14.55625 43.03125 13.8125 43.5625 C10.5804634 45.21442982 9.38391693 45.06351675 6 44 C5.67 43.01 5.34 42.02 5 41 C4.34 41 3.68 41 3 41 C3 42.32 3 43.64 3 45 C4.32 45.66 5.64 46.32 7 47 C5.35 47 3.7 47 2 47 C2 44.69 2 42.38 2 40 C5.96 40 9.92 40 14 40 C14 38.35 14 36.7 14 35 C11.03 35 8.06 35 5 35 C5 28.73 5 22.46 5 16 C-2.16124693 17.8115781 -2.16124693 17.8115781 -6 23 C-7.41816663 26.54541656 -7.20579808 30.22703517 -7 34 C-6.34 34.99 -5.68 35.98 -5 37 C-4.77294922 39.26831055 -4.77294922 39.26831055 -4.8046875 41.88671875 C-4.81435547 43.2934082 -4.81435547 43.2934082 -4.82421875 44.72851562 C-4.84097656 45.70498047 -4.85773438 46.68144531 -4.875 47.6875 C-4.88402344 48.67556641 -4.89304687 49.66363281 -4.90234375 50.68164062 C-4.9259157 53.12133765 -4.95881978 55.56054697 -5 58 C-6.98 57.01 -8.96 56.02 -11 55 C-11.33 48.4 -11.66 41.8 -12 35 C-13.98 34.67 -15.96 34.34 -18 34 C-17.34476321 26.39925329 -15.91445076 21.53791642 -10.125 16.25 C-5.52104035 12.43721441 -2.07284734 10.65298015 4 11 C4.33397787 8.12586875 4.33397787 8.12586875 4 5 C2.07977297 3.22590192 2.07977297 3.22590192 0 2 C0 1.34 0 0.68 0 0 Z " fill="#1C3677" transform="translate(99,56)"/>
<path d="M0 0 C10.56 0 21.12 0 32 0 C32.04125 2.76375 32.0825 5.5275 32.125 8.375 C32.14320801 9.24431152 32.16141602 10.11362305 32.18017578 11.00927734 C32.19473738 13.00703478 32.09956726 15.00467217 32 17 C31.34 17.66 30.68 18.32 30 19 C29.01 19 28.02 19 27 19 C27.33 20.32 27.66 21.64 28 23 C36.25 23.33 44.5 23.66 53 24 C53 22.68 53 21.36 53 20 C51.35 19.67 49.7 19.34 48 19 C48 12.73 48 6.46 48 0 C49.98 0 51.96 0 54 0 C54 0.66 54 1.32 54 2 C54.7425 2.185625 55.485 2.37125 56.25 2.5625 C60.00910806 4.5274883 61.61023102 7.11160381 63 11 C64.2052067 17.22690127 62.74942948 21.37585577 59.2890625 26.56640625 C58.65097656 27.27603516 58.65097656 27.27603516 58 28 C57.34 28 56.68 28 56 28 C56 28.66 56 29.32 56 30 C48.80353665 34.11226477 40.3588684 34.3397171 32.375 32.34375 C22.64847387 28.42612142 17.41990049 21.87675716 13.03125 12.57421875 C12 10 12 10 12 8 C10.68 7.67 9.36 7.34 8 7 C8 5.68 8 4.36 8 3 C5.36 2.67 2.72 2.34 0 2 C0 1.34 0 0.68 0 0 Z " fill="#7694D7" transform="translate(72,132)"/>
<path d="M0 0 C0.99 0.33 1.98 0.66 3 1 C3 4 3 7 3 10 C3.99 10.33 4.98 10.66 6 11 C6.33 11.66 6.66 12.32 7 13 C7.99 12.67 8.98 12.34 10 12 C10.33 11.01 10.66 10.02 11 9 C12.32 9.99 13.64 10.98 15 12 C15.33 11.01 15.66 10.02 16 9 C16.99 9.33 17.98 9.66 19 10 C19 10.99 19 11.98 19 13 C18.34 13 17.68 13 17 13 C17 13.66 17 14.32 17 15 C17.66 15.33 18.32 15.66 19 16 C18.505 16.495 18.505 16.495 18 17 C18.165 17.78375 18.33 18.5675 18.5 19.375 C19 22 19 22 18 25 C17.34 25 16.68 25 16 25 C14.32152257 37.72257685 15.14668689 46.73332188 20.53125 58.4375 C22 62 22 62 21 65 C19.50387449 61.35734354 18.01069947 57.71349195 16.52001953 54.06860352 C15.76873883 52.23327764 15.01525675 50.39885337 14.26171875 48.56445312 C6 28.35078125 6 28.35078125 6 25 C5.34 25 4.68 25 4 25 C3.67 24.34 3.34 23.68 3 23 C0.69 21.68 -1.62 20.36 -4 19 C-3.67 30.55 -3.34 42.1 -3 54 C-6 55 -6 55 -8.1875 54.0625 C-9.0846875 53.5365625 -9.0846875 53.5365625 -10 53 C-9.896875 54.216875 -9.79375 55.43375 -9.6875 56.6875 C-9.6875 60.27437148 -9.9672226 60.95411164 -12.1875 64.0625 C-15 66 -15 66 -17.8125 65.8125 C-18.534375 65.544375 -19.25625 65.27625 -20 65 C-20.33 64.01 -20.66 63.02 -21 62 C-21.99 62 -22.98 62 -24 62 C-24 59.03 -24 56.06 -24 53 C-21.525 52.505 -21.525 52.505 -19 52 C-18.67 51.01 -18.34 50.02 -18 49 C-19.98 49 -21.96 49 -24 49 C-23.01 48.34 -22.02 47.68 -21 47 C-21.66 46.67 -22.32 46.34 -23 46 C-23 44.68 -23 43.36 -23 42 C-22.34 42 -21.68 42 -21 42 C-20.34 42.99 -19.68 43.98 -19 45 C-17.02 44.505 -17.02 44.505 -15 44 C-15 43.67 -15 43.34 -15 43 C-13.35 43 -11.7 43 -10 43 C-10 43.99 -10 44.98 -10 46 C-10.99 46 -11.98 46 -13 46 C-13 46.99 -13 47.98 -13 49 C-12.01 49 -11.02 49 -10 49 C-10 49.66 -10 50.32 -10 51 C-8.35 51.33 -6.7 51.66 -5 52 C-5 36.82 -5 21.64 -5 6 C-3.35 5.67 -1.7 5.34 0 5 C0 3.35 0 1.7 0 0 Z " fill="#708AC0" transform="translate(125,55)"/>
<path d="M0 0 C1.98 0 3.96 0 6 0 C6 8.25 6 16.5 6 25 C8.31 25 10.62 25 13 25 C13 16.75 13 8.5 13 0 C15.31 0 17.62 0 20 0 C20 8.25 20 16.5 20 25 C22.31 25 24.62 25 27 25 C27 16.75 27 8.5 27 0 C28.98 0 30.96 0 33 0 C33 9.9 33 19.8 33 30 C22.11 30 11.22 30 0 30 C0 20.1 0 10.2 0 0 Z " fill="#F9FBFB" transform="translate(54,91)"/>
<path d="M0 0 C2.66666667 1.33333333 5.33333333 2.66666667 8 4 C8 4.66 8 5.32 8 6 C8.66 6 9.32 6 10 6 C11.73566464 9.22337718 13.18134877 12.39142223 14.28125 15.875 C16.35085381 22.192026 18.7839105 28.3666566 21.1875 34.5625 C21.88262695 36.36170898 21.88262695 36.36170898 22.59179688 38.19726562 C23.72602525 41.1322277 24.86213485 44.0664464 26 47 C23.36 47 20.72 47 18 47 C16.74335022 44.09399739 16 42.20395416 16 39 C14.64455078 39.03480469 14.64455078 39.03480469 13.26171875 39.0703125 C12.08222656 39.08835938 10.90273437 39.10640625 9.6875 39.125 C8.51574219 39.14820313 7.34398437 39.17140625 6.13671875 39.1953125 C3 39 3 39 0 37 C-0.26667539 34.16272675 -0.34791234 31.54616955 -0.29296875 28.7109375 C-0.28872391 27.89251373 -0.28447906 27.07408997 -0.28010559 26.23086548 C-0.26328679 23.61191164 -0.22562974 20.99372198 -0.1875 18.375 C-0.17245726 16.6015736 -0.15876814 14.82813516 -0.14648438 13.0546875 C-0.11337292 8.7028297 -0.06156952 4.35154449 0 0 Z " fill="#9FB7EB" transform="translate(121,74)"/>
<path d="M0 0 C2.31 0 4.62 0 7 0 C7.33 5.94 7.66 11.88 8 18 C8.71285156 16.700625 9.42570312 15.40125 10.16015625 14.0625 C11.12623123 12.37421363 12.09375512 10.68675579 13.0625 9 C13.76149414 7.71222656 13.76149414 7.71222656 14.47460938 6.3984375 C14.94833984 5.58632812 15.42207031 4.77421875 15.91015625 3.9375 C16.33433838 3.18339844 16.75852051 2.42929688 17.19555664 1.65234375 C19 0 19 0 26 0 C26 9.9 26 19.8 26 30 C23.69 30 21.38 30 19 30 C18.67 24.39 18.34 18.78 18 13 C16.93072266 14.84078125 16.93072266 14.84078125 15.83984375 16.71875 C14.87372892 18.31330846 13.90620708 19.90701503 12.9375 21.5 C12.47150391 22.31082031 12.00550781 23.12164062 11.52539062 23.95703125 C11.05166016 24.72402344 10.57792969 25.49101563 10.08984375 26.28125 C9.66566162 26.99345703 9.24147949 27.70566406 8.80444336 28.43945312 C7 30 7 30 0 30 C0 20.1 0 10.2 0 0 Z " fill="#F8FAFB" transform="translate(21,91)"/>
<path d="M0 0 C0 6.27 0 12.54 0 19 C2.97 19 5.94 19 9 19 C9 20.65 9 22.3 9 24 C5.04 24 1.08 24 -3 24 C-3 26.64 -3 29.28 -3 32 C-1.02 32 0.96 32 3 32 C2.67 33.32 2.34 34.64 2 36 C0.35 36 -1.3 36 -3 36 C-3 38.97 -3 41.94 -3 45 C-2.01 45 -1.02 45 0 45 C2 47 2 47 3 49 C-1.29 49 -5.58 49 -10 49 C-10.04898438 47.01355469 -10.09796875 45.02710938 -10.1484375 42.98046875 C-10.20406806 41.05426071 -10.25976598 39.12805395 -10.31738281 37.2019043 C-10.37444092 35.2070464 -10.42164442 33.2119146 -10.46875 31.21679688 C-10.50742188 29.96318359 -10.54609375 28.70957031 -10.5859375 27.41796875 C-10.6173584 26.26063232 -10.6487793 25.1032959 -10.68115234 23.91088867 C-10.79471033 20.80872972 -10.79471033 20.80872972 -13 18 C-13.62398248 11.51058216 -12.06409984 6.7758584 -8.1875 1.5625 C-6 0 -6 0 0 0 Z " fill="#F7FAF9" transform="translate(104,72)"/>
<path d="M0 0 C2.31 0 4.62 0 7 0 C7 3.96 7 7.92 7 12 C10.96 12 14.92 12 19 12 C19 8.04 19 4.08 19 0 C21.31 0 23.62 0 26 0 C26 9.9 26 19.8 26 30 C23.69 30 21.38 30 19 30 C19 25.71 19 21.42 19 17 C15.04 17 11.08 17 7 17 C7 21.29 7 25.58 7 30 C4.69 30 2.38 30 0 30 C0 20.1 0 10.2 0 0 Z " fill="#F8F9F9" transform="translate(150,91)"/>
<path d="M0 0 C2.31 0 4.62 0 7 0 C7 3.96 7 7.92 7 12 C10.28850975 8.71149025 12.49674722 5.83832092 15 2 C17 0 17 0 20.125 -0.125 C21.07375 -0.08375 22.0225 -0.0425 23 0 C23 1.65 23 3.3 23 5 C22.13375 5.309375 22.13375 5.309375 21.25 5.625 C18.18589456 7.49750888 16.84460032 9.96958519 15 13 C16.33607533 15.77730475 17.82198211 18.35396636 19.5 20.9375 C21.3601869 23.8731932 22.86462521 26.69709151 24 30 C20.875 30.5625 20.875 30.5625 17 30 C15.14665157 27.91988894 13.82966552 25.78027463 12.45703125 23.359375 C10.8314196 20.52462752 10.8314196 20.52462752 7 17 C7 21.29 7 25.58 7 30 C4.69 30 2.38 30 0 30 C0 20.1 0 10.2 0 0 Z " fill="#F6F7F9" transform="translate(182,91)"/>
<path d="M0 0 C0.67740234 -0.01224609 1.35480469 -0.02449219 2.05273438 -0.03710938 C6.08770413 -0.04894213 7.97011737 0.32880869 11.6875 2.1875 C11.6875 12.7475 11.6875 23.3075 11.6875 34.1875 C22.9075 34.1875 34.1275 34.1875 45.6875 34.1875 C45.1925 35.1775 45.1925 35.1775 44.6875 36.1875 C31.67873875 36.83041459 18.71390027 37.35765617 5.6875 37.1875 C4.20070275 34.21390551 4.57637395 31.52450821 4.58984375 28.2109375 C4.5912587 27.52569 4.59267365 26.8404425 4.59413147 26.13442993 C4.59973325 23.94374239 4.61228594 21.7531567 4.625 19.5625 C4.63001478 18.07812648 4.63457772 16.59375135 4.63867188 15.109375 C4.64970323 11.46871685 4.66696901 7.82811836 4.6875 4.1875 C2.3775 3.8575 0.0675 3.5275 -2.3125 3.1875 C-2.57804687 3.90292969 -2.84359375 4.61835937 -3.1171875 5.35546875 C-4.34164099 8.25654319 -5.79233063 10.81765864 -7.4375 13.5 C-7.97632813 14.38300781 -8.51515625 15.26601562 -9.0703125 16.17578125 C-9.48023438 16.83964844 -9.89015625 17.50351563 -10.3125 18.1875 C-10.9725 17.8575 -11.6325 17.5275 -12.3125 17.1875 C-12.3125 14.5475 -12.3125 11.9075 -12.3125 9.1875 C-11.3225 8.8575 -10.3325 8.5275 -9.3125 8.1875 C-9.9725 6.5375 -10.6325 4.8875 -11.3125 3.1875 C-10.6525 3.1875 -9.9925 3.1875 -9.3125 3.1875 C-8.9825 2.5275 -8.6525 1.8675 -8.3125 1.1875 C-6.34773763 -0.77726237 -2.67718224 0.00250438 0 0 Z " fill="#5E7AB9" transform="translate(42.3125,87.8125)"/>
<path d="M0 0 C10.56 0 21.12 0 32 0 C32.12375 2.7225 32.2475 5.445 32.375 8.25 C32.42962402 9.10110352 32.48424805 9.95220703 32.54052734 10.82910156 C32.58869 13.0155826 32.53336458 14.8743694 32 17 C28.81793046 19.85152215 27.00135812 20.90371557 22.75 21.3125 C20 21 20 21 18 20 C17.40644386 17.35139573 17.25790731 14.70802678 17 12 C16.34 12 15.68 12 15 12 C14 11 13 10 12 9 C9.90010348 7.82425289 9.90010348 7.82425289 8 7 C8 5.68 8 4.36 8 3 C5.36 2.67 2.72 2.34 0 2 C0 1.34 0 0.68 0 0 Z " fill="#87A4E5" transform="translate(72,132)"/>
<path d="M0 0 C2.64 0 5.28 0 8 0 C8.495 3.465 8.495 3.465 9 7 C8.67 7 8.34 7 8 7 C7.94552178 9.52113092 7.90610148 12.0410585 7.875 14.5625 C7.84986328 15.61920898 7.84986328 15.61920898 7.82421875 16.69726562 C7.77977956 21.51891822 8.47231996 25.42297438 10 30 C7.87527424 30.05386629 5.75016348 30.09273071 3.625 30.125 C2.44164063 30.14820313 1.25828125 30.17140625 0.0390625 30.1953125 C-3 30 -3 30 -5 28 C-3.68 27.34 -2.36 26.68 -1 26 C-0.67 20.06 -0.34 14.12 0 8 C-26.73 8 -53.46 8 -81 8 C-81 7.67 -81 7.34 -81 7 C-54.27 7 -27.54 7 0 7 C0 4.69 0 2.38 0 0 Z " fill="#1E3570" transform="translate(104,123)"/>
<path d="M0 0 C-0.33 0.66 -0.66 1.32 -1 2 C-1.99 2 -2.98 2 -4 2 C-4.04898438 2.59167969 -4.09796875 3.18335937 -4.1484375 3.79296875 C-4.56456867 8.19104472 -5.04965595 11.96928897 -7 16 C-3.535 15.505 -3.535 15.505 0 15 C-0.20625 14.13375 -0.4125 13.2675 -0.625 12.375 C-1.04047622 8.63571398 -0.39666276 6.45057859 1 3 C4.08288807 5.78927968 5.71515594 8.0880929 7.140625 11.984375 C7.48867187 12.91894531 7.83671875 13.85351562 8.1953125 14.81640625 C8.54335937 15.78449219 8.89140625 16.75257812 9.25 17.75 C9.61351562 18.73355469 9.97703125 19.71710938 10.3515625 20.73046875 C11.24428215 23.15020886 12.12666141 25.57321197 13 28 C10.36 28 7.72 28 5 28 C3.74335022 25.09399739 3 23.20395416 3 20 C1.64455078 20.03480469 1.64455078 20.03480469 0.26171875 20.0703125 C-0.91777344 20.08835937 -2.09726563 20.10640625 -3.3125 20.125 C-4.48425781 20.14820312 -5.65601563 20.17140625 -6.86328125 20.1953125 C-10 20 -10 20 -13 18 C-11.82068697 11.24575263 -9.94920188 5.67064885 -6 0 C-3.50907189 -1.24546405 -2.58919267 -0.7767578 0 0 Z " fill="#F7F8F8" transform="translate(134,93)"/>
<path d="M0 0 C1.98 0 3.96 0 6 0 C6 0.66 6 1.32 6 2 C6.7425 2.185625 7.485 2.37125 8.25 2.5625 C11.99833014 4.52185439 13.6365935 7.10769436 15 11 C15.45808151 14.06914614 15.65492221 16.95549673 15 20 C13.47265625 21.765625 13.47265625 21.765625 12 23 C11.46375 22.690625 10.9275 22.38125 10.375 22.0625 C7.60115271 20.82156832 4.99403779 20.45561445 2 20 C1.34 19.67 0.68 19.34 0 19 C0 12.73 0 6.46 0 0 Z " fill="#7E99D9" transform="translate(120,132)"/>
<path d="M0 0 C27.39 0 54.78 0 83 0 C83 0.99 83 1.98 83 3 C55.61 3 28.22 3 0 3 C0 2.01 0 1.02 0 0 Z " fill="#F8F9F8" transform="translate(21,126)"/>
<path d="M0 0 C3.52602209 0.63797676 4.85542659 1.47101268 7.0078125 4.36328125 C7.41814572 8.06693822 7.29563582 11.65355847 7.0078125 15.36328125 C2.9734333 17.60560362 -0.43644423 18.2501575 -4.9921875 17.36328125 C-7.63830198 15.24638966 -8.75218772 13.75638342 -9.33203125 10.390625 C-9.47644152 7.30024512 -9.14013941 4.73316102 -7.9921875 1.86328125 C-5.39946118 -0.08126349 -3.19276893 -0.20617512 0 0 Z " fill="#1A3579" transform="translate(112.9921875,33.63671875)"/>
<path d="M0 0 C0 6.27 0 12.54 0 19 C-3.3 19 -6.6 19 -10 19 C-10.33 19.66 -10.66 20.32 -11 21 C-13.50552308 17.24171538 -13.37195709 15.46348506 -13 11 C-10.32669115 3.11373889 -8.60282636 0 0 0 Z " fill="#8BA8E9" transform="translate(104,72)"/>
<path d="M0 0 C0.66 0 1.32 0 2 0 C3.0592918 3.17787541 3.11458939 5.42588943 3.09765625 8.76171875 C3.09443359 9.87998047 3.09121094 10.99824219 3.08789062 12.15039062 C3.07951172 13.31763672 3.07113281 14.48488281 3.0625 15.6875 C3.05798828 16.86634766 3.05347656 18.04519531 3.04882812 19.25976562 C3.03703273 22.17322789 3.0205727 25.08658863 3 28 C0.17449823 25.35529167 -0.90966068 23.114348 -2.1875 19.4375 C-2.53167969 18.46683594 -2.87585938 17.49617188 -3.23046875 16.49609375 C-4 14 -4 14 -4 12 C-4.66 12 -5.32 12 -6 12 C-6.33 11.34 -6.66 10.68 -7 10 C-7.804375 9.525625 -8.60875 9.05125 -9.4375 8.5625 C-12 7 -12 7 -14 4 C-14 3.01 -14 2.02 -14 1 C-13.319375 1.165 -12.63875 1.33 -11.9375 1.5 C-8.54684118 2.07713342 -5.43349708 2.19434889 -2 2 C-1.34 1.34 -0.68 0.68 0 0 Z " fill="#203978" transform="translate(135,68)"/>
<path d="M0 0 C21.12 0 42.24 0 64 0 C64 0.99 64 1.98 64 3 C43.21 3 22.42 3 1 3 C0.67 2.01 0.34 1.02 0 0 Z " fill="#F8FAF8" transform="translate(142,126)"/>
<path d="M0 0 C4.37862177 2.18931088 4.78137364 2.97323247 6.875 7.125 C8.31643935 9.81491225 8.31643935 9.81491225 10 12 C13.2607041 12.83939269 13.2607041 12.83939269 16 12 C15.62746094 11.30132812 15.25492188 10.60265625 14.87109375 9.8828125 C14.39800781 8.97273438 13.92492187 8.06265625 13.4375 7.125 C12.96183594 6.22007813 12.48617187 5.31515625 11.99609375 4.3828125 C11.66738281 3.59648438 11.33867187 2.81015625 11 2 C11.33 1.34 11.66 0.68 12 0 C13.18007431 1.88751682 14.34359173 3.78539195 15.5 5.6875 C16.1496875 6.74324219 16.799375 7.79898438 17.46875 8.88671875 C19.02895353 12.05886726 19.14243745 13.56878365 19 17 C15.20834926 17.0289337 11.41672673 17.04677601 7.625 17.0625 C6.54476562 17.07087891 5.46453125 17.07925781 4.3515625 17.08789062 C2.8046875 17.09272461 2.8046875 17.09272461 1.2265625 17.09765625 C0.27346191 17.10289307 -0.67963867 17.10812988 -1.66162109 17.11352539 C-4 17 -4 17 -6 16 C-6 15.34 -6 14.68 -6 14 C-4.02 14 -2.04 14 0 14 C0 9.38 0 4.76 0 0 Z " fill="#3D528E" transform="translate(189,108)"/>
<path d="M0 0 C0 4.62 0 9.24 0 14 C18.315 14.495 18.315 14.495 37 15 C37 15.33 37 15.66 37 16 C15.55 16.33 -5.9 16.66 -28 17 C-28 16.34 -28 15.68 -28 15 C-21.73 15 -15.46 15 -9 15 C-9 10.38 -9 5.76 -9 1 C-1.125 0 -1.125 0 0 0 Z " fill="#839CD7" transform="translate(169,110)"/>
<path d="M0 0 C2.71484375 -0.29296875 2.71484375 -0.29296875 5.9375 -0.1875 C6.99839844 -0.16042969 8.05929688 -0.13335937 9.15234375 -0.10546875 C10.09207031 -0.07066406 11.03179687 -0.03585938 12 0 C12.99 0 13.98 0 15 0 C14.45773019 3.79588866 12.79872437 5.47211993 10 8 C10 6.68 10 5.36 10 4 C7.03 3.67 4.06 3.34 1 3 C1 12.9 1 22.8 1 33 C3.31 33 5.62 33 8 33 C8 33.33 8 33.66 8 34 C6.02 34 4.04 34 2 34 C2 34.66 2 35.32 2 36 C2.66 36.33 3.32 36.66 4 37 C-1.61 37 -7.22 37 -13 37 C-13 35.68 -13 34.36 -13 33 C-10.36 33 -7.72 33 -5 33 C-5 33.33 -5 33.66 -5 34 C-6.98 34 -8.96 34 -11 34 C-11 34.66 -11 35.32 -11 36 C-6.545 35.505 -6.545 35.505 -2 35 C-2.01047363 34.04633545 -2.02094727 33.0926709 -2.03173828 32.11010742 C-2.06794501 28.57108312 -2.09090284 25.0320752 -2.10986328 21.49291992 C-2.11991935 19.96131639 -2.133566 18.42973205 -2.15087891 16.89819336 C-2.17514498 14.69640364 -2.18648688 12.49486781 -2.1953125 10.29296875 C-2.20563507 9.60849167 -2.21595764 8.92401459 -2.22659302 8.21879578 C-2.22745382 4.56938339 -2.08567666 3.12851498 0 0 Z " fill="#6680C0" transform="translate(181,88)"/>
<path d="M0 0 C3.96 0 7.92 0 12 0 C11.67 0.99 11.34 1.98 11 3 C8.36 3 5.72 3 3 3 C3 7.62 3 12.24 3 17 C-0.22940402 17.33045064 -3.45229378 17.61528794 -6.6875 17.875 C-7.59951172 17.97296875 -8.51152344 18.0709375 -9.45117188 18.171875 C-16.11199774 18.6562987 -16.11199774 18.6562987 -18.67016602 16.765625 C-19.984375 15.1796875 -19.984375 15.1796875 -22 12 C-25.02031356 8.75868789 -26.99003406 7.00498297 -31 5 C-27.37 5 -23.74 5 -20 5 C-18 10 -18 10 -18 13 C-13.545 12.505 -13.545 12.505 -9 12 C-9 12.66 -9 13.32 -9 14 C-6.03 14 -3.06 14 0 14 C0 9.38 0 4.76 0 0 Z " fill="#6B82B4" transform="translate(157,108)"/>
<path d="M0 0 C4.77247406 -0.46788961 7.95087582 -0.68514232 12.0625 2 C14.20784071 5.32181787 14.7461247 7.17620803 14.48828125 11.05859375 C13.62211726 14.50246176 11.84950346 16.03700872 9 18 C6.1875 17.8125 6.1875 17.8125 4 17 C3.67 16.01 3.34 15.02 3 14 C2.01 14 1.02 14 0 14 C0 11.03 0 8.06 0 5 C1.65 4.67 3.3 4.34 5 4 C5.33 3.01 5.66 2.02 6 1 C4.02 1 2.04 1 0 1 C0 0.67 0 0.34 0 0 Z " fill="#F0F5F1" transform="translate(101,103)"/>
<path d="M0 0 C0.66 0 1.32 0 2 0 C1.835 0.515625 1.67 1.03125 1.5 1.5625 C0.84951 4.73363876 0.9379266 7.77218334 1 11 C1.33 11 1.66 11 2 11 C2.66 16.61 3.32 22.22 4 28 C15.22 28.33 26.44 28.66 38 29 C37.67 29.66 37.34 30.32 37 31 C23.99123875 31.64291459 11.02640027 32.17015617 -2 32 C-2.33 31.34 -2.66 30.68 -3 30 C-2.67 29.34 -2.34 28.68 -2 28 C-1.85776706 25.98069554 -1.7737611 23.9571536 -1.71875 21.93359375 C-1.68136719 20.72638672 -1.64398438 19.51917969 -1.60546875 18.27539062 C-1.53504898 15.71289357 -1.46473681 13.15039356 -1.39453125 10.58789062 C-1.35714844 9.38197266 -1.31976563 8.17605469 -1.28125 6.93359375 C-1.25095703 5.82040771 -1.22066406 4.70722168 -1.18945312 3.56030273 C-1 1 -1 1 0 0 Z " fill="#5B74AE" transform="translate(50,93)"/>
<path d="M0 0 C0.99 0.33 1.98 0.66 3 1 C3 3.64 3 6.28 3 9 C2.34 9 1.68 9 1 9 C0.67 9.66 0.34 10.32 0 11 C0 9.68 0 8.36 0 7 C-0.66 7 -1.32 7 -2 7 C-1.67 8.65 -1.34 10.3 -1 12 C-1.66 11.67 -2.32 11.34 -3 11 C-3.20970559 15.14093698 -3.20970559 15.14093698 -2 19 C-2.66 19 -3.32 19 -4 19 C-3.67 30.55 -3.34 42.1 -3 54 C-6 55 -6 55 -8.4375 54.3125 C-11 53 -11 53 -12.8125 51.0625 C-15.89170559 48.15924901 -18.999014 47.333662 -23 46 C-23 44.68 -23 43.36 -23 42 C-22.34 42 -21.68 42 -21 42 C-20.34 42.99 -19.68 43.98 -19 45 C-17.02 44.505 -17.02 44.505 -15 44 C-15 43.67 -15 43.34 -15 43 C-13.35 43 -11.7 43 -10 43 C-10 43.99 -10 44.98 -10 46 C-10.99 46 -11.98 46 -13 46 C-13 46.99 -13 47.98 -13 49 C-12.01 49 -11.02 49 -10 49 C-10 49.66 -10 50.32 -10 51 C-8.35 51.33 -6.7 51.66 -5 52 C-5 36.82 -5 21.64 -5 6 C-3.35 5.67 -1.7 5.34 0 5 C0 3.35 0 1.7 0 0 Z " fill="#6278AD" transform="translate(125,55)"/>
<path d="M0 0 C0.061875 0.61875 0.12375 1.2375 0.1875 1.875 C0.82224359 4.26817585 0.82224359 4.26817585 3.5 5.1875 C4.325 5.455625 5.15 5.72375 6 6 C7 7 7 7 7.09765625 8.84765625 C7.06510417 10.8984375 7.03255208 12.94921875 7 15 C6.67 14.34 6.34 13.68 6 13 C-3.46247105 15.0359825 -9.36456813 19.15864984 -15 27 C-15.66 26.67 -16.32 26.34 -17 26 C-17 23.69 -17 21.38 -17 19 C-16.01 18.67 -15.02 18.34 -14 18 C-14 18.66 -14 19.32 -14 20 C-11.49034386 19.29660434 -11.49034386 19.29660434 -9 18 C-7.64113609 15.08814875 -8.03607472 12.99887865 -9 10 C-8.01 10.33 -7.02 10.66 -6 11 C-4.66893378 11.34227417 -3.33599921 11.67751743 -2 12 C-1.01 9.69 -0.02 7.38 1 5 C0.34 5 -0.32 5 -1 5 C-0.67 3.35 -0.34 1.7 0 0 Z " fill="#7694D9" transform="translate(97,54)"/>
<path d="M0 0 C0.66 0 1.32 0 2 0 C6.09580077 4.6313292 5.33958181 10.00609449 5.1875 15.8125 C5.17396484 16.79154297 5.16042969 17.77058594 5.14648438 18.77929688 C5.11125312 21.18676625 5.06199265 23.59309564 5 26 C3.02 25.01 1.04 24.02 -1 23 C-1.02894547 19.54168414 -1.04678 16.08339928 -1.0625 12.625 C-1.07087891 11.64015625 -1.07925781 10.6553125 -1.08789062 9.640625 C-1.09111328 8.69960937 -1.09433594 7.75859375 -1.09765625 6.7890625 C-1.10289307 5.91975098 -1.10812988 5.05043945 -1.11352539 4.15478516 C-1 2 -1 2 0 0 Z " fill="#162C6E" transform="translate(89,88)"/>
<path d="M0 0 C3.63 0 7.26 0 11 0 C10.67 1.65 10.34 3.3 10 5 C7.03 4.34 4.06 3.68 1 3 C1 6.96 1 10.92 1 15 C-2.96 15 -6.92 15 -11 15 C-11.25 5.375 -11.25 5.375 -9 2 C-8 3 -8 3 -7.9375 6.0625 C-7.958125 7.031875 -7.97875 8.00125 -8 9 C-5.36 9 -2.72 9 0 9 C0 6.03 0 3.06 0 0 Z " fill="#768AC2" transform="translate(168,88)"/>
<path d="M0 0 C0.99 0.33 1.98 0.66 3 1 C3 1.66 3 2.32 3 3 C3.66 3 4.32 3 5 3 C5.33 5.64 5.66 8.28 6 11 C8.97 11 11.94 11 15 11 C15.33 11.99 15.66 12.98 16 14 C24.25 14.33 32.5 14.66 41 15 C41.33 14.01 41.66 13.02 42 12 C42 13.32 42 14.64 42 16 C34.08 16.33 26.16 16.66 18 17 C18 17.66 18 18.32 18 19 C18.66 19.33 19.32 19.66 20 20 C20 20.66 20 21.32 20 22 C13.32712353 21.20163799 9.25272735 16.9359524 5 12 C2.90981218 8.11689552 1.34844042 4.19435941 0 0 Z " fill="#6A83BE" transform="translate(84,141)"/>
<path d="M0 0 C3 1 3 1 4 3 C4.08426094 4.6674606 4.10725143 6.33825187 4.09765625 8.0078125 C4.09443359 8.99394531 4.09121094 9.98007813 4.08789062 10.99609375 C4.07951172 12.02863281 4.07113281 13.06117187 4.0625 14.125 C4.05798828 15.16527344 4.05347656 16.20554687 4.04882812 17.27734375 C4.03701952 19.85161962 4.02055075 22.42578146 4 25 C3.67 25 3.34 25 3 25 C2.67 19.39 2.34 13.78 2 8 C0.906875 9.815 -0.18625 11.63 -1.3125 13.5 C-3.17578125 16.59375 -3.17578125 16.59375 -5 19 C-5.99 19 -6.98 19 -8 19 C-8.80168206 16.69932794 -9.18677067 15.47988352 -8.28735352 13.16894531 C-7.71392212 12.25773926 -7.71392212 12.25773926 -7.12890625 11.328125 C-6.71962891 10.66425781 -6.31035156 10.00039062 -5.88867188 9.31640625 C-5.45103516 8.63449219 -5.01339844 7.95257813 -4.5625 7.25 C-4.12873047 6.55261719 -3.69496094 5.85523437 -3.24804688 5.13671875 C-2.17647973 3.41750114 -1.08967644 1.707797 0 0 Z " fill="#EDF1F4" transform="translate(37,96)"/>
<path d="M0 0 C2 1 2 1 2.8125 3.375 C3 6 3 6 1.5625 7.8125 C1.046875 8.204375 0.53125 8.59625 0 9 C0.33 9.66 0.66 10.32 1 11 C0.34 11 -0.32 11 -1 11 C-0.67 12.32 -0.34 13.64 0 15 C-6.93 15 -13.86 15 -21 15 C-21.33 14.34 -21.66 13.68 -22 13 C-20.68 13 -19.36 13 -18 13 C-18 11.68 -18 10.36 -18 9 C-17.505 9.165 -17.01 9.33 -16.5 9.5 C-12.17834191 10.36433162 -7.94248423 10.40894405 -3.625 9.5 C-0.85473061 6.94282826 -0.7023202 3.62865436 0 0 Z " fill="#6682C8" transform="translate(122,40)"/>
<path d="M0 0 C0.66 0.66 1.32 1.32 2 2 C1.01 2.495 1.01 2.495 0 3 C0 2.01 0 1.02 0 0 Z M0 3 C0 13.56 0 24.12 0 35 C-2.95664519 36.4783226 -5.74229737 36.06032783 -9 36 C-9 35.34 -9 34.68 -9 34 C-7.02 34 -5.04 34 -3 34 C-3 24.1 -3 14.2 -3 4 C-1 3 -1 3 0 3 Z " fill="#41578A" transform="translate(179,88)"/>
<path d="M0 0 C0.33 0 0.66 0 1 0 C1 8.25 1 16.5 1 25 C-0.65 25 -2.3 25 -4 25 C-4 18.07 -4 11.14 -4 4 C-3.34 3.67 -2.68 3.34 -2 3 C-1.34 3.33 -0.68 3.66 0 4 C0 2.68 0 1.36 0 0 Z " fill="#8DA7E2" transform="translate(80,91)"/>
<path d="M0 0 C0 2.33333333 0 4.66666667 0 7 C-0.99 7.495 -0.99 7.495 -2 8 C-1.96519531 8.67546875 -1.93039063 9.3509375 -1.89453125 10.046875 C-1.86746094 10.93890625 -1.84039062 11.8309375 -1.8125 12.75 C-1.77769531 13.63171875 -1.74289063 14.5134375 -1.70703125 15.421875 C-2 18 -2 18 -5 22 C-5 15.4 -5 8.8 -5 2 C-7.31 2 -9.62 2 -12 2 C-12 11.57 -12 21.14 -12 31 C-12.33 31 -12.66 31 -13 31 C-13 21.1 -13 11.2 -13 1 C-4 -1.25 -4 -1.25 0 0 Z " fill="#485E9F" transform="translate(33,89)"/>
<path d="M0 0 C0.94875 0.04125 1.8975 0.0825 2.875 0.125 C2.875 1.775 2.875 3.425 2.875 5.125 C2.26527344 5.37121094 1.65554687 5.61742188 1.02734375 5.87109375 C-1.51943192 7.35478702 -2.20790275 8.60485956 -3.5625 11.1875 C-5.78478627 15.00403512 -5.78478627 15.00403512 -8.9375 16.125 C-9.659375 16.125 -10.38125 16.125 -11.125 16.125 C-11.125 15.465 -11.125 14.805 -11.125 14.125 C-11.785 13.465 -12.445 12.805 -13.125 12.125 C-12.5475 11.58875 -11.97 11.0525 -11.375 10.5 C-8.90929617 7.89731263 -7.08031648 5.12315193 -5.125 2.125 C-3.125 0.125 -3.125 0.125 0 0 Z " fill="#F0F2F4" transform="translate(202.125,90.875)"/>
<path d="M0 0 C2.31 0 4.62 0 7 0 C9.09350689 3.4019487 9.17942163 6.05272412 9 10 C8.34 9.34 7.68 8.68 7 8 C6.06213918 13.05009595 6.06213918 13.05009595 7 18 C4.36 18 1.72 18 -1 18 C-0.68917128 16.24970238 -0.37626821 14.49977306 -0.0625 12.75 C0.11152344 11.77546875 0.28554687 10.8009375 0.46484375 9.796875 C0.64144531 8.87390625 0.81804687 7.9509375 1 7 C1.12503906 6.24203125 1.25007812 5.4840625 1.37890625 4.703125 C1.58386719 4.14109375 1.78882813 3.5790625 2 3 C2.99 2.67 3.98 2.34 5 2 C3.02 2.33 1.04 2.66 -1 3 C-0.67 2.01 -0.34 1.02 0 0 Z " fill="#F2F5F6" transform="translate(128,91)"/>
<path d="M0 0 C0.99 0.33 1.98 0.66 3 1 C3 9.25 3 17.5 3 26 C1.68 26 0.36 26 -1 26 C-1.02892857 22.04168191 -1.04677427 18.08339083 -1.0625 14.125 C-1.07087891 12.99707031 -1.07925781 11.86914062 -1.08789062 10.70703125 C-1.09111328 9.63066406 -1.09433594 8.55429688 -1.09765625 7.4453125 C-1.10289307 6.45031738 -1.10812988 5.45532227 -1.11352539 4.43017578 C-1 2 -1 2 0 0 Z " fill="#7B95D4" transform="translate(64,90)"/>
<path d="M0 0 C3.96 0 7.92 0 12 0 C12 1.65 12 3.3 12 5 C11.67 4.34 11.34 3.68 11 3 C8.69 3 6.38 3 4 3 C4 12.9 4 22.8 4 33 C6.31 33 8.62 33 11 33 C11 33.33 11 33.66 11 34 C8.03 34 5.06 34 2 34 C1.34 32.02 0.68 30.04 0 28 C0.66 27.67 1.32 27.34 2 27 C2.33 20.07 2.66 13.14 3 6 C2.01 6 1.02 6 0 6 C-1.125 2.25 -1.125 2.25 0 0 Z " fill="#819DD9" transform="translate(146,88)"/>
<path d="M0 0 C0 0.33 0 0.66 0 1 C-0.90129639 1.02505615 -1.80259277 1.0501123 -2.73120117 1.07592773 C-6.14013609 1.17221546 -9.54896492 1.27136027 -12.95776367 1.37231445 C-14.42094782 1.41509012 -15.88416381 1.45679271 -17.34741211 1.49731445 C-24.46693242 1.69514675 -31.55757137 1.92235961 -38.65625 2.53125 C-45.54737852 3.1051981 -52.40139699 3.11162211 -59.3125 3.0625 C-61.15618164 3.05573242 -61.15618164 3.05573242 -63.03710938 3.04882812 C-66.02479356 3.03720289 -69.01236855 3.02086559 -72 3 C-72 2.34 -72 1.68 -72 1 C-48.02724337 -0.47201137 -24.0056221 -0.09726644 0 0 Z " fill="#5F78B3" transform="translate(104,131)"/>
<path d="M0 0 C4.95 0 9.9 0 15 0 C15.33 0.66 15.66 1.32 16 2 C11.71 2 7.42 2 3 2 C3.185625 3.8871875 3.185625 3.8871875 3.375 5.8125 C3.44460937 6.52019531 3.51421875 7.22789062 3.5859375 7.95703125 C3.92665391 10.29988142 3.92665391 10.29988142 6 13 C5.7578125 15.48046875 5.7578125 15.48046875 5.125 18.1875 C4.92132813 19.08855469 4.71765625 19.98960937 4.5078125 20.91796875 C4.34023437 21.60503906 4.17265625 22.29210937 4 23 C2.68 23.33 1.36 23.66 0 24 C0 16.08 0 8.16 0 0 Z M-2 24 C-1.01 24.495 -1.01 24.495 0 25 C-0.66 25.66 -1.32 26.32 -2 27 C-2 26.01 -2 25.02 -2 24 Z " fill="#7491D1" transform="translate(145,132)"/>
<path d="M0 0 C0.33 0 0.66 0 1 0 C1.18451025 11.52164009 1.18451025 11.52164009 0 17 C-0.66 17 -1.32 17 -2 17 C-2.66 16.01 -3.32 15.02 -4 14 C-4.33 14.99 -4.66 15.98 -5 17 C-5.66 17 -6.32 17 -7 17 C-7.33 17.99 -7.66 18.98 -8 20 C-8.99 20 -9.98 20 -11 20 C-9.35800988 15.37909884 -6.9659032 11.36156215 -4.4375 7.1875 C-4.02564453 6.49462891 -3.61378906 5.80175781 -3.18945312 5.08789062 C-2.15713173 3.37298683 -1.08229765 1.68380945 0 0 Z " fill="#425790" transform="translate(39,102)"/>
<path d="M0 0 C1.65 0 3.3 0 5 0 C7 3 7 3 7 6 C8.32 6.33 9.64 6.66 11 7 C10.34 8.32 9.68 9.64 9 11 C8.34 10.67 7.68 10.34 7 10 C7 10.99 7 11.98 7 13 C6.38125 12.79375 5.7625 12.5875 5.125 12.375 C4.42375 12.25125 3.7225 12.1275 3 12 C2.34 12.66 1.68 13.32 1 14 C0.67 9.38 0.34 4.76 0 0 Z " fill="#8CAAE9" transform="translate(121,133)"/>
<path d="M0 0 C2.09323062 2.52631282 3.89415238 4.77822403 5.3125 7.75 C6.91982568 10.40259578 6.91982568 10.40259578 10.6875 10.8125 C11.780625 10.874375 12.87375 10.93625 14 11 C14 11.33 14 11.66 14 12 C11.36 12 8.72 12 6 12 C6 12.66 6 13.32 6 14 C4.00045254 14.04254356 1.99958364 14.04080783 0 14 C-1 13 -1 13 -1.1328125 10.3125 C-1.13023437 9.219375 -1.12765625 8.12625 -1.125 7 C-1.12757813 5.906875 -1.13015625 4.81375 -1.1328125 3.6875 C-1 1 -1 1 0 0 Z " fill="#5770AC" transform="translate(192,110)"/>
<path d="M0 0 C0.33 0 0.66 0 1 0 C1 9.9 1 19.8 1 30 C0.67 30 0.34 30 0 30 C-0.33 27.03 -0.66 24.06 -1 21 C-1.33 23.64 -1.66 26.28 -2 29 C-2.33 29 -2.66 29 -3 29 C-3 21.41 -3 13.82 -3 6 C-2.01 5.67 -1.02 5.34 0 5 C0 3.35 0 1.7 0 0 Z " fill="#7C97D5" transform="translate(53,91)"/>
<path d="M0 0 C2.0625 0.4375 2.0625 0.4375 4 1 C2.34608232 7.22725067 0.44240996 12.53962558 -3 18 C-3.66 17.67 -4.32 17.34 -5 17 C-5 14.36 -5 11.72 -5 9 C-4.01 8.67 -3.02 8.34 -2 8 C-2.66 6.35 -3.32 4.7 -4 3 C-3.34 3 -2.68 3 -2 3 C-1.67 2.34 -1.34 1.68 -1 1 C-0.67 0.67 -0.34 0.34 0 0 Z " fill="#516FBA" transform="translate(35,88)"/>
<path d="M0 0 C2.66666667 1.33333333 5.33333333 2.66666667 8 4 C8 4.66 8 5.32 8 6 C8.66 6 9.32 6 10 6 C12.03435531 9.72965139 13 11.66905042 13 16 C12.34 16 11.68 16 11 16 C11 15.34 11 14.68 11 14 C10.360625 14.185625 9.72125 14.37125 9.0625 14.5625 C8.381875 14.706875 7.70125 14.85125 7 15 C6 14 6 14 5.90234375 11.93359375 C5.91974609 10.69802734 5.91974609 10.69802734 5.9375 9.4375 C5.94652344 8.61121094 5.95554687 7.78492187 5.96484375 6.93359375 C5.97644531 6.29550781 5.98804687 5.65742187 6 5 C4.02 5 2.04 5 0 5 C0 3.35 0 1.7 0 0 Z " fill="#839EDE" transform="translate(121,74)"/>
<path d="M0 0 C2.475 0.495 2.475 0.495 5 1 C5 1.66 5 2.32 5 3 C-2.28571429 7.42857143 -2.28571429 7.42857143 -7 8 C-6.67 8.66 -6.34 9.32 -6 10 C-7.65 10.33 -9.3 10.66 -11 11 C-11.33 10.01 -11.66 9.02 -12 8 C-14.00016466 6.79117904 -14.00016466 6.79117904 -16 6 C-16 5.67 -16 5.34 -16 5 C-15.18015625 4.86722656 -14.3603125 4.73445312 -13.515625 4.59765625 C-12.43796875 4.42105469 -11.3603125 4.24445313 -10.25 4.0625 C-9.18265625 3.88847656 -8.1153125 3.71445313 -7.015625 3.53515625 C-4.63652407 3.11295829 -2.33084789 2.62797116 0 2 C0 1.34 0 0.68 0 0 Z " fill="#20397B" transform="translate(128,160)"/>
<path d="M0 0 C34.90205657 -0.20638953 34.90205657 -0.20638953 48 1 C44.83010225 3.11326517 44.04265526 3.25557151 40.4140625 3.265625 C39.49246338 3.26949219 38.57086426 3.27335938 37.62133789 3.27734375 C36.63254639 3.26832031 35.64375488 3.25929687 34.625 3.25 C33.10604126 3.24419922 33.10604126 3.24419922 31.55639648 3.23828125 C21.30508308 3.12373255 11.17699952 2.1762889 1 1 C0.67 1.66 0.34 2.32 0 3 C0 2.01 0 1.02 0 0 Z " fill="#5A72AE" transform="translate(144,131)"/>
<path d="M0 0 C0.33 0 0.66 0 1 0 C1 2.64 1 5.28 1 8 C3.31 8 5.62 8 8 8 C8 8.33 8 8.66 8 9 C6.35 9 4.7 9 3 9 C3 9.66 3 10.32 3 11 C1.37536158 11.05395478 -0.24978541 11.09277195 -1.875 11.125 C-2.77992187 11.14820312 -3.68484375 11.17140625 -4.6171875 11.1953125 C-7 11 -7 11 -9 9 C-8.34 8.01 -7.68 7.02 -7 6 C-6.34 6 -5.68 6 -5 6 C-4.67 4.68 -4.34 3.36 -4 2 C-3.34 2.33 -2.68 2.66 -2 3 C-2 3.99 -2 4.98 -2 6 C-1.34 6 -0.68 6 0 6 C0 4.02 0 2.04 0 0 Z " fill="#5B78BD" transform="translate(39,113)"/>
<path d="M0 0 C1.98 0 3.96 0 6 0 C6 3.63 6 7.26 6 11 C5.67 10.34 5.34 9.68 5 9 C3.68 9 2.36 9 1 9 C1 11.64 1 14.28 1 17 C0.67 17 0.34 17 0 17 C0 11.39 0 5.78 0 0 Z " fill="#8BA7E6" transform="translate(121,79)"/>
<path d="M0 0 C0.33 0 0.66 0 1 0 C1.12375 1.670625 1.12375 1.670625 1.25 3.375 C1.57873787 7.05753944 1.57873787 7.05753944 4.0625 8.4375 C4.701875 8.623125 5.34125 8.80875 6 9 C3.69 9.33 1.38 9.66 -1 10 C-1.33 10.99 -1.66 11.98 -2 13 C-7.94 13 -13.88 13 -20 13 C-20 12.67 -20 12.34 -20 12 C-19.03578125 11.90203125 -18.0715625 11.8040625 -17.078125 11.703125 C-15.81484375 11.55359375 -14.5515625 11.4040625 -13.25 11.25 C-11.99703125 11.11078125 -10.7440625 10.9715625 -9.453125 10.828125 C-5.65469348 9.91718893 -4.34211801 9.0627697 -2 6 C-0.73215876 2.86649283 -0.73215876 2.86649283 0 0 Z " fill="#1A2B5A" transform="translate(116,110)"/>
<path d="M0 0 C0.061875 0.61875 0.12375 1.2375 0.1875 1.875 C0.82224359 4.26817585 0.82224359 4.26817585 3.5 5.1875 C4.325 5.455625 5.15 5.72375 6 6 C7 7 7 7 7.09765625 8.84765625 C7.04882812 11.92382812 7.04882812 11.92382812 7 15 C6.67 14.34 6.34 13.68 6 13 C4.10466658 12.53476937 4.10466658 12.53476937 1.9375 12.375 C0.638125 12.25125 -0.66125 12.1275 -2 12 C-1.01 9.69 -0.02 7.38 1 5 C0.34 5 -0.32 5 -1 5 C-0.67 3.35 -0.34 1.7 0 0 Z " fill="#708DD0" transform="translate(97,54)"/>
<path d="M0 0 C5 0 10 0 15 0 C14.45773019 3.79588866 12.79872437 5.47211993 10 8 C10 6.68 10 5.36 10 4 C7.03 3.67 4.06 3.34 1 3 C1 3.99 1 4.98 1 6 C0.01 6 -0.98 6 -2 6 C-1.49396008 3.83125748 -1.00016187 2.00032373 0 0 Z " fill="#607BBE" transform="translate(181,88)"/>
<path d="M0 0 C0.33 0.99 0.66 1.98 1 3 C-0.07421875 4.7890625 -0.07421875 4.7890625 -1.6875 6.625 C-2.20699219 7.23601562 -2.72648437 7.84703125 -3.26171875 8.4765625 C-5.181038 10.15866252 -6.50835704 10.59829721 -9 11 C-9 11.66 -9 12.32 -9 13 C-14.12919186 15.10428384 -18.5610835 15.21755666 -24 15 C-21.20330895 13.52839263 -18.443226 12.40889368 -15.4375 11.4375 C-14.67308594 11.18871094 -13.90867187 10.93992188 -13.12109375 10.68359375 C-12.42113281 10.45800781 -11.72117188 10.23242188 -11 10 C-10.01 9.67 -9.02 9.34 -8 9 C-8 8.34 -8 7.68 -8 7 C-6.35 6.67 -4.7 6.34 -3 6 C-2.87625 5.38125 -2.7525 4.7625 -2.625 4.125 C-2 2 -2 2 0 0 Z " fill="#203356" transform="translate(141,154)"/>
<path d="M0 0 C0.66 0 1.32 0 2 0 C2.66 0.99 3.32 1.98 4 3 C4.66 3.12375 5.32 3.2475 6 3.375 C6.66 3.58125 7.32 3.7875 8 4 C9.25 6.5625 9.25 6.5625 10 9 C4.97745369 9.2954439 2.10457614 8.98514628 -2 6 C-1.67 4.68 -1.34 3.36 -1 2 C-0.67 2 -0.34 2 0 2 C0 1.34 0 0.68 0 0 Z " fill="#7A98DC" transform="translate(123,62)"/>
<path d="M0 0 C3.96 0 7.92 0 12 0 C12 0.66 12 1.32 12 2 C8.7 2 5.4 2 2 2 C2 6.29 2 10.58 2 15 C-0.31 15 -2.62 15 -5 15 C-5 14.67 -5 14.34 -5 14 C-3.35 14 -1.7 14 0 14 C0 9.38 0 4.76 0 0 Z " fill="#3D4661" transform="translate(157,108)"/>
<path d="M0 0 C5.875 0.875 5.875 0.875 7 2 C7.04063832 3.66617115 7.042721 5.33388095 7 7 C4.35261084 8.4606285 3.10551666 9 0 9 C0 6.03 0 3.06 0 0 Z " fill="#223877" transform="translate(101,108)"/>
<path d="M0 0 C0.75 1.75 0.75 1.75 1 4 C-0.625 6.3125 -0.625 6.3125 -3 8 C-5.75 7.75 -5.75 7.75 -8 7 C-8.33 6.01 -8.66 5.02 -9 4 C-9.66 4 -10.32 4 -11 4 C-11 5.32 -11 6.64 -11 8 C-9.68 8.66 -8.36 9.32 -7 10 C-8.65 10 -10.3 10 -12 10 C-12 7.69 -12 5.38 -12 3 C-8.04 3 -4.08 3 0 3 C0 2.01 0 1.02 0 0 Z " fill="#111C43" transform="translate(113,93)"/>
<path d="M0 0 C0.66 0.99 1.32 1.98 2 3 C0.88321917 4.6721852 -0.24366352 6.33762803 -1.375 8 C-2.00148437 8.928125 -2.62796875 9.85625 -3.2734375 10.8125 C-3.84320313 11.534375 -4.41296875 12.25625 -5 13 C-5.66 13 -6.32 13 -7 13 C-7 9.37 -7 5.74 -7 2 C-6.34 2 -5.68 2 -5 2 C-4.67 2.99 -4.34 3.98 -4 5 C-2.68 3.35 -1.36 1.7 0 0 Z " fill="#485F95" transform="translate(196,90)"/>
<path d="M0 0 C0.598125 0.226875 1.19625 0.45375 1.8125 0.6875 C-0.1675 1.6775 -0.1675 1.6775 -2.1875 2.6875 C-2.5175 13.9075 -2.8475 25.1275 -3.1875 36.6875 C-3.5175 36.6875 -3.8475 36.6875 -4.1875 36.6875 C-4.40460487 31.90092691 -4.60145012 27.11411144 -4.77954102 22.32592773 C-4.84297997 20.69712046 -4.91195596 19.06851906 -4.98657227 17.44018555 C-5.09285765 15.0997672 -5.17922142 12.7593313 -5.26171875 10.41796875 C-5.29907639 9.68974411 -5.33643402 8.96151947 -5.37492371 8.21122742 C-5.52459526 3.18101997 -5.52459526 3.18101997 -3.81958008 0.68481445 C-2.1875 -0.3125 -2.1875 -0.3125 0 0 Z " fill="#203468" transform="translate(122.1875,58.3125)"/>
<path d="M0 0 C3.63 0 7.26 0 11 0 C13 5 13 5 13 8 C13.66 8.33 14.32 8.66 15 9 C10.05949541 8.56407312 7.62165711 6.23637444 4 3 C2.68 2.01 1.36 1.02 0 0 Z " fill="#8598C1" transform="translate(126,113)"/>
<path d="M0 0 C8.03501094 -0.78774617 8.03501094 -0.78774617 12.0625 2.5 C12.701875 3.325 13.34125 4.15 14 5 C13.01 5.495 13.01 5.495 12 6 C11.67 5.67 11.34 5.34 11 5 C9.04783565 6.95216435 8.15173355 8.53199953 7 11 C6.87625 10.38125 6.7525 9.7625 6.625 9.125 C6.12802644 6.80879168 6.12802644 6.80879168 4 5 C4.66 3.68 5.32 2.36 6 1 C4.02 1 2.04 1 0 1 C0 0.67 0 0.34 0 0 Z " fill="#EAEEF5" transform="translate(101,103)"/>
<path d="M0 0 C0.33 1.32 0.66 2.64 1 4 C0.34 4 -0.32 4 -1 4 C-0.67 5.32 -0.34 6.64 0 8 C-0.56589844 8.49371094 -1.13179687 8.98742187 -1.71484375 9.49609375 C-2.44832031 10.13675781 -3.18179688 10.77742187 -3.9375 11.4375 C-5.03384766 12.39462891 -5.03384766 12.39462891 -6.15234375 13.37109375 C-7.12139353 14.22541459 -8.08651175 15.08651175 -9 16 C-10.66617115 16.04063832 -12.33388095 16.042721 -14 16 C-13.34 15.67 -12.68 15.34 -12 15 C-12 14.34 -12 13.68 -12 13 C-11.13375 12.484375 -10.2675 11.96875 -9.375 11.4375 C-4.95316186 8.68964344 -2.63446826 4.37209627 0 0 Z " fill="#6178B3" transform="translate(144,152)"/>
<path d="M0 0 C0.33 0 0.66 0 1 0 C1 9.24 1 18.48 1 28 C3.31 28 5.62 28 8 28 C8 28.33 8 28.66 8 29 C5.03 29 2.06 29 -1 29 C-1.66 27.02 -2.32 25.04 -3 23 C-2.34 22.67 -1.68 22.34 -1 22 C-0.67 14.74 -0.34 7.48 0 0 Z " fill="#869BCE" transform="translate(149,93)"/>
<path d="M0 0 C0.33 0.99 0.66 1.98 1 3 C1.99 3 2.98 3 4 3 C4 6.3 4 9.6 4 13 C3.34 13 2.68 13 2 13 C2 14.65 2 16.3 2 18 C1.67 18 1.34 18 1 18 C0.04380267 14.00204108 -0.1039592 10.29196078 -0.0625 6.1875 C-0.05347656 5.02605469 -0.04445312 3.86460938 -0.03515625 2.66796875 C-0.02355469 1.78753906 -0.01195312 0.90710938 0 0 Z " fill="#829DE3" transform="translate(140,77)"/>
<path d="M0 0 C0.33 0 0.66 0 1 0 C1 5.94 1 11.88 1 18 C0.34 18 -0.32 18 -1 18 C-1.33 18.99 -1.66 19.98 -2 21 C-2.33 21 -2.66 21 -3 21 C-3.04254356 19.00045254 -3.04080783 16.99958364 -3 15 C-2.67 14.67 -2.34 14.34 -2 14 C-1.602507 11.65276034 -1.25631277 9.29671452 -0.9375 6.9375 C-0.67259766 5.00197266 -0.67259766 5.00197266 -0.40234375 3.02734375 C-0.26957031 2.02832031 -0.13679687 1.02929688 0 0 Z " fill="#374C79" transform="translate(145,134)"/>
<path d="M0 0 C2 1 2 1 2.8515625 3.06640625 C3.10679687 3.89011719 3.36203125 4.71382813 3.625 5.5625 C3.88539063 6.38878906 4.14578125 7.21507813 4.4140625 8.06640625 C4.60742188 8.70449219 4.80078125 9.34257813 5 10 C2.36 10 -0.28 10 -3 10 C-2.01 6.7 -1.02 3.4 0 0 Z " fill="#94A5CD" transform="translate(130,99)"/>
<path d="M0 0 C0.66 0 1.32 0 2 0 C2.66 0.99 3.32 1.98 4 3 C5.32 2.67 6.64 2.34 8 2 C8 1.67 8 1.34 8 1 C9.65 1 11.3 1 13 1 C13 1.99 13 2.98 13 4 C12.01 4 11.02 4 10 4 C10 4.99 10 5.98 10 7 C10.99 7.33 11.98 7.66 13 8 C8.39146203 7.27991594 4.32762591 5.68704061 0 4 C0 2.68 0 1.36 0 0 Z " fill="#2E437F" transform="translate(102,97)"/>
<path d="M0 0 C0.33 0 0.66 0 1 0 C1 8.58 1 17.16 1 26 C3.64 26 6.28 26 9 26 C9 26.33 9 26.66 9 27 C6.03 27 3.06 27 0 27 C0 20.73 0 14.46 0 8 C-0.66 8 -1.32 8 -2 8 C-2.20086443 4.28400809 -2.1519437 3.22791555 0 0 Z " fill="#374D8B" transform="translate(104,64)"/>
<path d="M0 0 C0.99 0.33 1.98 0.66 3 1 C3 3.64 3 6.28 3 9 C2.34 9 1.68 9 1 9 C0.67 9.66 0.34 10.32 0 11 C0 9.68 0 8.36 0 7 C-0.66 7 -1.32 7 -2 7 C-1.67 8.65 -1.34 10.3 -1 12 C-2.5625 10.75 -2.5625 10.75 -4 9 C-3.6875 6.8125 -3.6875 6.8125 -3 5 C-2.01 5 -1.02 5 0 5 C0 3.35 0 1.7 0 0 Z " fill="#6D8ACB" transform="translate(125,55)"/>
<path d="M0 0 C0 0.66 0 1.32 0 2 C2.64 1.67 5.28 1.34 8 1 C7.67 2.65 7.34 4.3 7 6 C6.195625 5.690625 5.39125 5.38125 4.5625 5.0625 C0.37750913 3.81434483 -3.66306101 3.3662304 -8 3 C-5.36657694 0.36657694 -3.69534435 0 0 0 Z " fill="#293D70" transform="translate(96,162)"/>
<path d="M0 0 C0.66 0 1.32 0 2 0 C2 0.66 2 1.32 2 2 C2.66 2 3.32 2 4 2 C4.125 4.375 4.125 4.375 4 7 C3.34 7.66 2.68 8.32 2 9 C1.01 8.67 0.02 8.34 -1 8 C-1.33 6.02 -1.66 4.04 -2 2 C-1.34 1.67 -0.68 1.34 0 1 C0 0.67 0 0.34 0 0 Z " fill="#FBFAFA" transform="translate(111,107)"/>
<path d="M0 0 C-2.77280706 3.08089673 -5.06326356 4.68775452 -9 6 C-9 6.66 -9 7.32 -9 8 C-9.99 8.33 -10.98 8.66 -12 9 C-9.78369999 2.35109997 -7.25695033 -0.65972276 0 0 Z " fill="#7087BE" transform="translate(104,72)"/>
<path d="M0 0 C2.31 0.33 4.62 0.66 7 1 C8.31223496 4.93670488 7.24296256 7.12488144 6 11 C2.69781473 8.41568109 2.59795419 6.01483528 2 2 C1.34 1.34 0.68 0.68 0 0 Z " fill="#6684C6" transform="translate(97,167)"/>
<path d="M0 0 C2 1.75 2 1.75 4 4 C4 5.32 4 6.64 4 8 C4.66 8 5.32 8 6 8 C6 8.66 6 9.32 6 10 C4.02 10 2.04 10 0 10 C0 6.7 0 3.4 0 0 Z " fill="#5172C2" transform="translate(192,114)"/>
<path d="M0 0 C0.66 0.33 1.32 0.66 2 1 C2 4.63 2 8.26 2 12 C1.01 12.33 0.02 12.66 -1 13 C-2.51403812 8.15507803 -1.36602172 4.7408989 0 0 Z " fill="#233A70" transform="translate(118,37)"/>
<path d="M0 0 C0.75023437 0.24556641 0.75023437 0.24556641 1.515625 0.49609375 C4.9263468 1.1878911 8.28735757 1.10504665 11.75 1.0625 C12.44738281 1.05798828 13.14476563 1.05347656 13.86328125 1.04882812 C15.57555803 1.0371002 17.28779033 1.01916653 19 1 C19.33 1.66 19.66 2.32 20 3 C12.41 3 4.82 3 -3 3 C-2.01 2.67 -1.02 2.34 0 2 C0 1.34 0 0.68 0 0 Z " fill="#506BB2" transform="translate(28,122)"/>
<path d="M0 0 C3.63 0 7.26 0 11 0 C10.67 1.65 10.34 3.3 10 5 C6.7 4.34 3.4 3.68 0 3 C0 2.01 0 1.02 0 0 Z " fill="#6882C7" transform="translate(168,88)"/>
<path d="M0 0 C0 1.65 0 3.3 0 5 C-2.64 5 -5.28 5 -8 5 C-8.33 4.01 -8.66 3.02 -9 2 C-5.62902617 0.50178941 -3.79557881 0 0 0 Z " fill="#1F3672" transform="translate(102,67)"/>
<path d="M0 0 C3.63 0.66 7.26 1.32 11 2 C11 2.33 11 2.66 11 3 C9.02 3 7.04 3 5 3 C5.33 4.65 5.66 6.3 6 8 C2.83884224 6.63016497 2.0072908 6.0109362 0 3 C0 2.01 0 1.02 0 0 Z " fill="#2B4682" transform="translate(121,69)"/>
<path d="M0 0 C1.98 0 3.96 0 6 0 C6.33 0.66 6.66 1.32 7 2 C5.68 2.33 4.36 2.66 3 3 C2.67 7.95 2.34 12.9 2 18 C1.67 18 1.34 18 1 18 C0.93941406 17.01257813 0.87882812 16.02515625 0.81640625 15.0078125 C0.73261719 13.72648438 0.64882812 12.44515625 0.5625 11.125 C0.48128906 9.84882813 0.40007812 8.57265625 0.31640625 7.2578125 C0.20793973 4.11699848 0.20793973 4.11699848 -1 2 C-0.67 1.34 -0.34 0.68 0 0 Z " fill="#1F3361" transform="translate(117,129)"/>
<path d="M0 0 C0.66 0 1.32 0 2 0 C1.67 6.6 1.34 13.2 1 20 C1.66 20 2.32 20 3 20 C3 20.99 3 21.98 3 23 C2.01 23 1.02 23 0 23 C0 15.41 0 7.82 0 0 Z " fill="#7196DF" transform="translate(63,92)"/>
<path d="M0 0 C0.66 0 1.32 0 2 0 C1.84152588 0.54817383 1.68305176 1.09634766 1.51977539 1.66113281 C0.9372438 4.28238816 0.78793845 6.73872553 0.68359375 9.421875 C0.64169922 10.44667969 0.59980469 11.47148438 0.55664062 12.52734375 C0.51732422 13.59082031 0.47800781 14.65429688 0.4375 15.75 C0.39431641 16.82894531 0.35113281 17.90789062 0.30664062 19.01953125 C0.20071011 21.67956428 0.09863579 24.33968812 0 27 C-0.33 27 -0.66 27 -1 27 C-1.02886537 22.68751391 -1.04675255 18.37505238 -1.0625 14.0625 C-1.07087891 12.83080078 -1.07925781 11.59910156 -1.08789062 10.33007812 C-1.09111328 9.16025391 -1.09433594 7.99042969 -1.09765625 6.78515625 C-1.10289307 5.70113525 -1.10812988 4.61711426 -1.11352539 3.50024414 C-1 1 -1 1 0 0 Z " fill="#6582D6" transform="translate(50,93)"/>
<path d="M0 0 C0.66 0 1.32 0 2 0 C1.64947365 3.15473719 1.13480924 4.8233534 -0.8125 7.375 C-3 9 -3 9 -5.25 8.75 C-6.11625 8.37875 -6.11625 8.37875 -7 8 C-6.67 7.01 -6.34 6.02 -6 5 C-4.35 5 -2.7 5 -1 5 C-0.67 3.35 -0.34 1.7 0 0 Z " fill="#1E3263" transform="translate(118,184)"/>
<path d="M0 0 C0.66 0 1.32 0 2 0 C2 0.99 2 1.98 2 3 C2.66 2.34 3.32 1.68 4 1 C4.33 1.66 4.66 2.32 5 3 C5.66 3 6.32 3 7 3 C7 3.66 7 4.32 7 5 C6.01 5.495 6.01 5.495 5 6 C4.01 7.485 4.01 7.485 3 9 C2.566875 8.401875 2.13375 7.80375 1.6875 7.1875 C0.22538761 5.29216913 -1.27050227 3.6471407 -3 2 C-2.01 2 -1.02 2 0 2 C0 1.34 0 0.68 0 0 Z " fill="#4E6BB5" transform="translate(200,104)"/>
<path d="M0 0 C0.33 0 0.66 0 1 0 C1.33 3.3 1.66 6.6 2 10 C-1 11 -1 11 -3.625 10.25 C-6 9 -6 9 -7 6 C-4.69 6.66 -2.38 7.32 0 8 C0 5.36 0 2.72 0 0 Z " fill="#7B8FBC" transform="translate(120,99)"/>
<path d="M0 0 C1.32 0 2.64 0 4 0 C3.25 7.75 3.25 7.75 1 10 C0 9 0 9 -0.09765625 6.93359375 C-0.08605469 6.10988281 -0.07445313 5.28617187 -0.0625 4.4375 C-0.05347656 3.61121094 -0.04445313 2.78492187 -0.03515625 1.93359375 C-0.02355469 1.29550781 -0.01195313 0.65742187 0 0 Z " fill="#92B2F3" transform="translate(122,88)"/>
<path d="M0 0 C0.33 0 0.66 0 1 0 C1.3125 2.3125 1.3125 2.3125 1 5 C-0.63064764 6.05771739 -2.30280873 7.05273046 -4 8 C-5.03357147 9.64605826 -6.04060332 11.30963442 -7 13 C-7.66 13 -8.32 13 -9 13 C-7.34406255 9.41213553 -5.37162309 6.16216412 -3 3 C-2.01 3 -1.02 3 0 3 C0 2.01 0 1.02 0 0 Z " fill="#1B243C" transform="translate(205,93)"/>
<path d="M0 0 C0.33 0.66 0.66 1.32 1 2 C1.66 2 2.32 2 3 2 C3.33 2.99 3.66 3.98 4 5 C2.0625 7.6875 2.0625 7.6875 0 10 C-1 9 -1 9 -1.1328125 7.1875 C-1.13023438 6.465625 -1.12765625 5.74375 -1.125 5 C-1.12757812 4.278125 -1.13015625 3.55625 -1.1328125 2.8125 C-1 1 -1 1 0 0 Z " fill="#5874C0" transform="translate(31,96)"/>
<path d="M0 0 C0.66 0.33 1.32 0.66 2 1 C1.3125 3.375 1.3125 3.375 0 6 C-2.5625 7.1875 -2.5625 7.1875 -5 8 C-5.33 8.66 -5.66 9.32 -6 10 C-6.66 9.67 -7.32 9.34 -8 9 C-6.85459775 7.68712379 -5.70866567 6.37470979 -4.5625 5.0625 C-3.92441406 4.33160156 -3.28632812 3.60070312 -2.62890625 2.84765625 C-1.77458541 1.87860647 -0.91348825 0.91348825 0 0 Z " fill="#243E83" transform="translate(91,70)"/>
<path d="M0 0 C0.99 0.33 1.98 0.66 3 1 C3 1.66 3 2.32 3 3 C3.66 3 4.32 3 5 3 C5.33 5.64 5.66 8.28 6 11 C6.66 11 7.32 11 8 11 C7.67 11.99 7.34 12.98 7 14 C4.13315891 9.55639631 2.07909954 4.84419638 0 0 Z " fill="#6A86C5" transform="translate(84,141)"/>
<path d="M0 0 C0.33 0.99 0.66 1.98 1 3 C-0.65 4.65 -2.3 6.3 -4 8 C-4 6.68 -4 5.36 -4 4 C-4.66 4 -5.32 4 -6 4 C-5.67 3.01 -5.34 2.02 -5 1 C-3 0 -3 0 0 0 Z " fill="#4F6FBB" transform="translate(195,88)"/>
<path d="M0 0 C3.3 0 6.6 0 10 0 C10 0.33 10 0.66 10 1 C8.35 1.33 6.7 1.66 5 2 C5.99 3.32 6.98 4.64 8 6 C5.36 5.34 2.72 4.68 0 4 C0 2.68 0 1.36 0 0 Z " fill="#13295E" transform="translate(126,114)"/>
<path d="M0 0 C0.66 0.33 1.32 0.66 2 1 C2 3.64 2 6.28 2 9 C0.68 9 -0.64 9 -2 9 C-1.34 6.03 -0.68 3.06 0 0 Z " fill="#91B1F1" transform="translate(91,115)"/>
<path d="M0 0 C2.66666667 1.33333333 5.33333333 2.66666667 8 4 C7.67 4.99 7.34 5.98 7 7 C6.67 6.34 6.34 5.68 6 5 C4.02 5 2.04 5 0 5 C0 3.35 0 1.7 0 0 Z " fill="#7C97D2" transform="translate(121,74)"/>
<path d="M0 0 C-0.33 0.99 -0.66 1.98 -1 3 C-1.99 3 -2.98 3 -4 3 C-4.33 3.99 -4.66 4.98 -5 6 C-5.33 5.01 -5.66 4.02 -6 3 C-6.66 3 -7.32 3 -8 3 C-8 2.34 -8 1.68 -8 1 C-5.29120665 -0.35439668 -2.99066732 -0.06501451 0 0 Z " fill="#647CBC" transform="translate(128,169)"/>
<path d="M0 0 C2.05078125 0.03255208 4.1015625 0.06510417 6.15234375 0.09765625 C6.15234375 0.75765625 6.15234375 1.41765625 6.15234375 2.09765625 C3.84234375 2.09765625 1.53234375 2.09765625 -0.84765625 2.09765625 C-0.97140625 2.71640625 -1.09515625 3.33515625 -1.22265625 3.97265625 C-1.84765625 6.09765625 -1.84765625 6.09765625 -3.84765625 8.09765625 C-2.83612374 0.14990083 -2.83612374 0.14990083 0 0 Z " fill="#5A78C2" transform="translate(40.84765625,87.90234375)"/>
<path d="M0 0 C1.65 0.33 3.3 0.66 5 1 C4.67 2.65 4.34 4.3 4 6 C1.525 5.01 1.525 5.01 -1 4 C-0.67 2.68 -0.34 1.36 0 0 Z " fill="#7996D8" transform="translate(93,152)"/>
<path d="M0 0 C0.99 0.33 1.98 0.66 3 1 C3 1.66 3 2.32 3 3 C2.34 3 1.68 3 1 3 C1 6.96 1 10.92 1 15 C-0.98 15 -2.96 15 -5 15 C-5 14.67 -5 14.34 -5 14 C-3.35 14 -1.7 14 0 14 C0 9.38 0 4.76 0 0 Z " fill="#252E44" transform="translate(189,108)"/>
<path d="M0 0 C2.97 0.495 2.97 0.495 6 1 C6.33 2.65 6.66 4.3 7 6 C5.35 5.01 3.7 4.02 2 3 C1.67 4.65 1.34 6.3 1 8 C0.67 8 0.34 8 0 8 C0 5.36 0 2.72 0 0 Z " fill="#122146" transform="translate(101,108)"/>
<path d="M0 0 C0.99 0.33 1.98 0.66 3 1 C3 1.66 3 2.32 3 3 C3.66 3.33 4.32 3.66 5 4 C3.6078125 4.1546875 3.6078125 4.1546875 2.1875 4.3125 C-1.03254358 5.0070192 -2.02579865 5.47740939 -4 8 C-3.50168276 4.31245243 -2.89932357 2.39509338 0 0 Z " fill="#99AFE4" transform="translate(129,87)"/>
<path d="M0 0 C2.05078125 0.03255208 4.1015625 0.06510417 6.15234375 0.09765625 C5.16234375 0.42765625 4.17234375 0.75765625 3.15234375 1.09765625 C3.15234375 1.75765625 3.15234375 2.41765625 3.15234375 3.09765625 C2.16234375 3.59265625 2.16234375 3.59265625 1.15234375 4.09765625 C1.48234375 4.75765625 1.81234375 5.41765625 2.15234375 6.09765625 C0.83234375 5.76765625 -0.48765625 5.43765625 -1.84765625 5.09765625 C-2.41015625 3.16015625 -2.41015625 3.16015625 -2.84765625 1.09765625 C-1.84765625 0.09765625 -1.84765625 0.09765625 0 0 Z " fill="#1D3982" transform="translate(108.84765625,33.90234375)"/>
<path d="M0 0 C2.97 0 5.94 0 9 0 C9 3 9 3 8 6 C6.68 5.67 5.36 5.34 4 5 C4.66 3.68 5.32 2.36 6 1 C4.02 1 2.04 1 0 1 C0 0.67 0 0.34 0 0 Z " fill="#DAE1EA" transform="translate(101,103)"/>
<path d="M0 0 C0 1.65 0 3.3 0 5 C-1.65 5.66 -3.3 6.32 -5 7 C-5 6.34 -5 5.68 -5 5 C-5.66 4.67 -6.32 4.34 -7 4 C-1.125 0 -1.125 0 0 0 Z " fill="#EAE9EC" transform="translate(205,91)"/>
<path d="M0 0 C1.10844919 3.32534757 0.84454356 5.62182575 0 9 C-0.66 9 -1.32 9 -2 9 C-2.33 9.99 -2.66 10.98 -3 12 C-4.45169732 9.09660535 -3.72348441 7.09125158 -3 4 C-2.34 3.67 -1.68 3.34 -1 3 C-0.67 2.01 -0.34 1.02 0 0 Z " fill="#364B83" transform="translate(91,79)"/>
<path d="M0 0 C0.33 0.66 0.66 1.32 1 2 C-1.3125 4.5 -1.3125 4.5 -4 7 C-4.99 7 -5.98 7 -7 7 C-7 6.34 -7 5.68 -7 5 C-6.01 5 -5.02 5 -4 5 C-4 4.01 -4 3.02 -4 2 C-2.68 1.34 -1.36 0.68 0 0 Z " fill="#E6E7E8" transform="translate(114,114)"/>
<path d="M0 0 C1.32 0.33 2.64 0.66 4 1 C4.33 1.99 4.66 2.98 5 4 C4.01 4.33 3.02 4.66 2 5 C1.34 6.32 0.68 7.64 0 9 C0 6.03 0 3.06 0 0 Z " fill="#809BD0" transform="translate(89,112)"/>
<path d="M0 0 C-0.33 1.32 -0.66 2.64 -1 4 C-1 3.34 -1 2.68 -1 2 C-3.31 2 -5.62 2 -8 2 C-8.33 1.34 -8.66 0.68 -9 0 C-5.93109813 -1.53445094 -3.29905734 -0.54984289 0 0 Z " fill="#738DC7" transform="translate(62,89)"/>
<path d="M0 0 C5.75 0.75 5.75 0.75 8 3 C6.02 3.33 4.04 3.66 2 4 C1.34 2.68 0.68 1.36 0 0 Z " fill="#20376F" transform="translate(104,97)"/>
<path d="M0 0 C0.515625 0.639375 1.03125 1.27875 1.5625 1.9375 C4.65935623 4.55791681 7.02067623 4.69389817 11 5 C11 5.33 11 5.66 11 6 C7.7 6 4.4 6 1 6 C0.67 4.02 0.34 2.04 0 0 Z " fill="#6A79A2" transform="translate(195,116)"/>
<path d="M0 0 C0.66 0 1.32 0 2 0 C2 2.64 2 5.28 2 8 C0.68 7.34 -0.64 6.68 -2 6 C-1.67 4.68 -1.34 3.36 -1 2 C-0.67 2 -0.34 2 0 2 C0 1.34 0 0.68 0 0 Z " fill="#7393D5" transform="translate(123,62)"/>
<path d="M0 0 C0.99 0 1.98 0 3 0 C2.67 1.32 2.34 2.64 2 4 C1.34 4 0.68 4 0 4 C0 4.66 0 5.32 0 6 C-0.99 6 -1.98 6 -3 6 C-3 5.34 -3 4.68 -3 4 C-2.34 4 -1.68 4 -1 4 C-0.67 2.68 -0.34 1.36 0 0 Z " fill="#5875C0" transform="translate(110,186)"/>
<path d="M0 0 C2.375 -0.125 2.375 -0.125 5 0 C7 2 7 2 7 5 C5.35 5 3.7 5 2 5 C2.66 3.68 3.32 2.36 4 1 C2.68 0.67 1.36 0.34 0 0 Z " fill="#253F7D" transform="translate(110,184)"/>
<path d="M0 0 C3.16717283 1.58358642 4.73268318 2.45263699 6.3125 5.6875 C6.539375 6.450625 6.76625 7.21375 7 8 C4.0625 6.8125 4.0625 6.8125 1 5 C0.125 2.3125 0.125 2.3125 0 0 Z " fill="#6F8CC2" transform="translate(127,134)"/>
<path d="M0 0 C1.98 0 3.96 0 6 0 C6.33 0.66 6.66 1.32 7 2 C6.01 2 5.02 2 4 2 C4.66 2.66 5.32 3.32 6 4 C4.68 4.33 3.36 4.66 2 5 C1.34 3.35 0.68 1.7 0 0 Z " fill="#142E73" transform="translate(118,112)"/>
<path d="M0 0 C0.66 0 1.32 0 2 0 C2.33 1.65 2.66 3.3 3 5 C1.68 5 0.36 5 -1 5 C-1 1 -1 1 0 0 Z " fill="#4968BB" transform="translate(204,99)"/>
<path d="M0 0 C2 0 2 0 4 1.875 C4.66 2.57625 5.32 3.2775 6 4 C6.66 4.66 7.32 5.32 8 6 C2.25 5.125 2.25 5.125 0 4 C0 2.68 0 1.36 0 0 Z " fill="#6F88BC" transform="translate(102,97)"/>
<path d="M0 0 C0.7425 0.0825 1.485 0.165 2.25 0.25 C0.72058649 3.30882701 -1.69219546 3.93951234 -4.75 5.25 C-5.41 4.92 -6.07 4.59 -6.75 4.25 C-3.42692308 0.31153846 -3.42692308 0.31153846 0 0 Z " fill="#E8F0FB" transform="translate(201.75,90.75)"/>
<path d="M0 0 C-6 4 -6 4 -8.1875 3.625 C-8.785625 3.41875 -9.38375 3.2125 -10 3 C-6.68152292 -0.06320961 -4.44849969 -0.3033068 0 0 Z " fill="#1D2F5A" transform="translate(93,162)"/>
<path d="M0 0 C0.33 0 0.66 0 1 0 C1.25 2.75 1.25 2.75 1 6 C-1 8.375 -1 8.375 -3 10 C-2.01 6.7 -1.02 3.4 0 0 Z " fill="#384052" transform="translate(130,99)"/>
<path d="M0 0 C0.33 0 0.66 0 1 0 C1.12375 0.804375 1.2475 1.60875 1.375 2.4375 C1.58125 3.283125 1.7875 4.12875 2 5 C2.66 5.33 3.32 5.66 4 6 C3.34 7.32 2.68 8.64 2 10 C-0.4294516 6.3558226 -0.16179575 4.28758728 0 0 Z " fill="#8098CE" transform="translate(91,83)"/>
<path d="M0 0 C-0.33 0.99 -0.66 1.98 -1 3 C-3.31 3 -5.62 3 -8 3 C-8 2.34 -8 1.68 -8 1 C-2.25 0 -2.25 0 0 0 Z " fill="#1A3154" transform="translate(117,48)"/>
</svg>
