<svg width="41" height="40" viewBox="0 0 41 40" fill="none" xmlns="http://www.w3.org/2000/svg">
<path fill-rule="evenodd" clip-rule="evenodd" d="M20.9344 0V8.94911L28.369 0H20.9344ZM33.6008 1.23941L20.9344 16.5217V19.413C22.2286 16.3933 24.0649 14.1812 27.6806 14.1812C31.0862 14.1812 32.8888 17.3908 33.6008 20.2391V1.23941ZM27.4055 15.6952C20.7969 15.9706 20.7969 27.9486 27.4055 28.0863C34.014 27.8109 34.014 15.8329 27.4055 15.6952ZM27.4055 26.0211C23.4128 26.0211 23.4128 17.6227 27.4055 17.6227C31.3981 17.6227 31.3981 26.0211 27.4055 26.0211ZM20.9344 23.4052V30.8398H33.6008V23.4052C33.088 26.482 30.766 29.3253 27.4053 29.3254C23.5019 29.3254 22.2675 26.4341 20.9344 23.4052ZM16.6664 14.3182L4 29.6005V10.6009C4.21534 11.4622 4.42868 12.2843 4.82607 13.0791C5.83984 14.8532 7.71063 16.6587 9.92018 16.6587C12.0679 16.6587 13.8731 15.8857 15.152 14.1805C15.7027 13.3544 16.2534 12.3907 16.6664 11.4269V14.3182ZM10.3332 15.1443C16.9418 14.8689 16.9418 2.89088 10.3332 2.7532C3.72467 3.02856 3.72467 15.0066 10.3332 15.1443ZM10.3332 4.6807C14.3259 4.6807 14.3259 13.0791 10.3332 13.0791C6.34056 13.0791 6.34056 4.6807 10.3332 4.6807ZM16.3911 6.74625C16.1157 5.7825 15.565 4.81875 15.0143 3.99268C13.8714 2.46876 12.1278 1.51446 10.1955 1.51446C7.89829 1.51446 5.84463 2.91932 4.82607 4.95643C4.41304 5.64482 4.13768 6.60857 4 7.43465V0H16.5288V7.43465C16.5288 7.17993 16.3911 7.0373 16.3911 6.74625ZM16.6664 21.8905L9.2318 30.8396H19.6954V28.6372H16.6664V21.8905ZM4.6883 30.84L30.0212 0H32.9124L7.44187 30.84H4.6883ZM34.9777 30.7024V28.6372C37.8689 28.6372 40.3472 31.2531 40.2095 34.1443C40.2095 36.2095 38.9704 38.2747 37.1805 39.2384C34.84 40.2022 32.2241 40.2022 29.7459 39.5138L16.6664 36.3472C9.50715 34.5574 6.20286 35.7965 6.20286 37.4486H4C4 32.9052 10.4709 30.9777 17.6302 32.6299L30.572 35.7965C31.9488 36.2095 33.3255 36.4849 34.7023 36.4849C36.2168 36.3472 37.4559 35.1081 37.4559 33.5936C37.5936 32.0792 36.3545 30.7024 34.9777 30.7024Z" fill="#3AAA35"/>
</svg>
