<svg width="40" height="40" viewBox="0 0 40 40" fill="none" xmlns="http://www.w3.org/2000/svg">
<path d="M18.8921 19.5895L36.111 0H9.40788C6.42893 0 4.00367 2.42526 4.00367 5.40421V34.24C3.99525 34.4737 4.00367 34.6337 4.00577 34.6884L4.0142 34.8126C4.01841 34.9432 4.02472 35.0737 4.03946 35.2021L4.0542 35.4337L4.07525 35.4316C4.47735 38.0147 6.71314 40 9.40999 40H39.2837L18.8921 19.5895ZM6.84156 34.84L6.82893 34.5663V34.3305C6.84367 33.9768 6.93209 33.1895 7.38683 32.5853C7.44577 32.5116 7.88156 32.0189 8.3763 31.4653L17.0163 21.7158L32.4626 37.1747H9.40788C8.06893 37.1726 6.96577 36.1474 6.84156 34.84ZM9.40788 2.82526H29.8626L15.9363 18.6737L6.83104 28.9474V5.40421C6.83104 3.98316 7.98683 2.82526 9.40788 2.82526Z" fill="#196D1F"/>
</svg>
