<svg width="40" height="40" viewBox="0 0 40 40" fill="none" xmlns="http://www.w3.org/2000/svg">
<path d="M40 0H0V40H40V0Z" fill="#335497"/>
<path d="M37.7799 2.38965H2.47998V38.1697H37.7799V2.38965Z" fill="white"/>
<path d="M3.16016 3.25977H37.0901V37.2597H3.16016V3.25977Z" fill="#335497"/>
<path d="M4.21015 10.4302H7.04015V4.9502H35.5002V35.8502H6.99015V34.2102H4.16016L4.21015 10.4302Z" fill="white"/>
<path d="M5.56982 11.7002H16.6298C13.0398 15.2402 9.49983 18.7702 5.96983 22.3002C9.49983 25.9302 13.0398 29.5602 16.6298 33.1802H5.56982V11.7002Z" fill="#335497"/>
<path d="M18.94 11.6299H21.21C17.49 15.1599 13.75 18.7299 10.05 22.2899C13.75 25.9499 17.49 29.6099 21.21 33.2899H18.94C15.1933 29.6299 11.47 25.9632 7.77002 22.2899C11.5 18.7299 15.19 15.1599 18.94 11.6299ZM22.3699 16.0801H33.9499V33.2301H22.3699V33.0401C22.6229 33.0559 22.8768 33.0559 23.1299 33.0401C28.4999 33.0701 32.8999 29.8701 32.8999 25.8701C32.8999 21.8701 28.4999 18.6201 23.1299 18.6201H22.3699V16.0801Z" fill="#335497"/>
<path d="M23.0803 20.9805C24.6303 20.9805 25.8603 23.3105 25.8603 26.2105C25.8603 29.1105 24.6303 31.4205 23.0803 31.4205C21.5303 31.4205 20.2803 29.0505 20.2803 26.1805C20.2803 23.3105 21.5003 20.9705 23.0803 20.9805Z" fill="#B4966A"/>
<path d="M22.5002 20.9298C24.0402 20.9298 25.2802 23.2598 25.2802 26.1598C25.2802 29.0598 24.0402 31.3698 22.5002 31.3698C20.9602 31.3698 19.7002 28.9998 19.7002 26.1298C19.7002 23.2598 20.9502 20.8698 22.5002 20.9298Z" fill="url(#paint0_linear_63_1075)"/>
<defs>
<linearGradient id="paint0_linear_63_1075" x1="17.8702" y1="19.5298" x2="27.1402" y2="32.7698" gradientUnits="userSpaceOnUse">
<stop stop-color="#B4966A"/>
<stop offset="0.5" stop-color="#FEF0C7"/>
<stop offset="1" stop-color="#B4966A"/>
</linearGradient>
</defs>
</svg>
