<svg width="40" height="40" viewBox="0 0 40 40" fill="none" xmlns="http://www.w3.org/2000/svg">
<path fill-rule="evenodd" clip-rule="evenodd" d="M10.9874 1H40V5.59605H39.0305C38.9946 4.01616 37.8456 3.51346 36.7684 3.51346H10.9874V1ZM5.9246 5.09336H37.2352V9.68941H36.2657C36.2298 8.10952 35.0808 7.60682 34.0036 7.60682H5.9246V5.09336ZM26.4273 37.4093L16.7325 19.7792L26.7504 11.4847C27.4686 10.8384 27.9713 10.3357 29.2639 10.1921V9.15081H21.5799V10.228C23.5907 10.2998 23.4111 11.377 22.8366 11.8797L10.9874 21.6822V11.8079C10.9874 11.4488 10.9874 10.4794 12.2801 10.4434V9.15081H0.43088V10.3357C1.75943 10.4794 1.75943 11.1975 1.75943 11.8797V37.0144C1.75943 37.5171 1.11311 38.5943 0 38.5583V39.6715H12.4237V38.307C10.9874 38.307 10.9874 37.3734 10.9874 36.7989V24.9138L18.4919 38.5943H17.9533V39.6715H28.4381V38.5943C27.7199 38.5943 26.8582 38.2352 26.4273 37.4093ZM2.76481 10.623H4.3447V37.7325H2.76481V10.623ZM11.921 23.7289L19.9282 38.5224H21.4363L13.1059 22.7594L11.921 23.7289ZM21.1131 17.4811H33.0341C37.5943 17.4811 39.2819 21.9336 39.3537 25.2011C39.4614 29.2944 36.9479 31.4488 33.6086 32.6338C31.2029 34.7882 29.4434 35.5063 27.4686 36.1167L26.8941 35.1831C28.6176 34.4291 31.3106 32.5619 31.4542 28.5404C31.526 26.5296 30.4488 23.0826 27.8995 23.0826H26.0323V23.3698C28.1508 23.7289 29.3716 26.2424 29.4434 28.2172C29.5512 30.5153 28.2585 33.1724 26.4991 34.5009L26.1759 33.8905C27.325 32.3824 28.3303 30.7666 28.3303 28.8995C28.3303 27.0682 27.684 24.3393 23.8779 24.3034L20.395 24.2675L18.9587 21.7899H28.8689C30.2334 21.7899 31.4183 22.5799 32.5314 23.693C32.0646 21.7181 30.377 20.0664 28.5817 20.0664H18.061L21.1131 17.4811ZM28.833 18.5583H31.7415C36.553 18.5583 37.4147 29.5099 33.7163 31.5566C34.3268 30.6948 34.6499 27.4632 33.9677 25.4883C33.8959 22.1849 31.5619 19.0251 28.833 18.8097V18.5583Z" fill="#00008B"/>
</svg>
