<svg width="40" height="40" viewBox="0 0 40 40" fill="none" xmlns="http://www.w3.org/2000/svg">
<path fill-rule="evenodd" clip-rule="evenodd" d="M29.8182 30.8217C29.2571 31.5745 28.3906 33.2406 28.3906 33.2406C28.3906 33.2406 28.2925 33.4011 28.1709 33.6202C28.0633 33.8139 27.9373 34.0536 27.8446 34.2679C27.6475 34.7243 25.4951 39.8831 19.7547 39.998C13.9045 40.1174 11.2473 34.7864 11.1074 34.5051L11.104 34.4983C11.011 34.3124 10.7606 33.561 10.6532 33.2308C10.5461 32.9006 8.41425 28.6977 6.73101 28.8327C6.68601 28.8327 5.91458 29.0934 5.91458 29.0934C5.91458 29.0934 5.08813 28.9232 5.0079 27.2698C4.96755 26.4372 5.08739 26.0454 5.23928 25.861C5.3738 25.6976 5.53376 25.6971 5.62964 25.6971H5.65923C5.74411 25.6946 5.94149 25.7533 6.15061 25.816L6.31106 25.8634C6.4918 25.9158 6.66204 25.9598 6.7562 25.9578C6.9866 25.9524 8.15377 25.4065 8.13371 24.3196C8.12588 23.9004 7.861 23.2273 7.54328 22.4206C7.03748 21.1365 6.39837 19.513 6.45071 18.0332C6.46466 16.7183 6.7156 15.4167 7.19205 14.1913C7.19205 14.1913 5.50881 12.2879 5.73432 10.3591C5.90553 9.08384 6.40644 7.87559 7.18692 6.85273C7.66068 6.20605 8.03857 5.49381 8.30908 4.73902C8.30908 4.73902 7.90013 3.98129 7.59097 3.26123C7.40313 2.82391 7.25198 2.40029 7.25198 2.1694C7.25198 1.55794 7.89328 0.030254 9.25562 0.00041453C10.6182 -0.0299141 11.024 1.61321 11.024 1.894C11.0362 2.40665 10.6918 3.29156 10.4184 3.99499C10.2403 4.45334 10.0921 4.83441 10.0921 4.98458C10.1073 5.73595 11.2192 7.22352 11.9906 8.09523C12.5201 8.70669 12.9843 9.37001 13.3769 10.0749C13.5704 10.4222 13.7465 10.7793 13.9042 11.1457C15.9433 10.1204 18.1801 9.54807 20.4611 9.46735C23.5769 9.34213 24.7638 10.6296 24.7638 10.6296C25.3105 9.59992 25.93 8.61081 26.6173 7.66916C27.0023 7.1702 27.4244 6.70158 27.8799 6.26719C28.0851 6.07103 28.2971 5.88221 28.5158 5.70073C28.642 5.62931 28.7523 5.53246 28.8384 5.41603C28.9245 5.29961 28.9856 5.16607 29.0167 5.0247C28.9881 4.6901 28.8763 4.36774 28.6912 4.08793C28.6912 4.08793 26.4571 0.84179 30.0486 0.340878C33.4347 0.731726 31.6264 3.79736 31.6264 3.79736C31.4454 4.04537 31.3227 4.32861 31.2644 4.62651C31.238 4.76201 31.2251 4.89996 31.2258 5.03937C31.3415 5.56034 31.5939 6.0412 31.9571 6.43204C31.9571 6.43204 33.4298 8.08985 33.3997 9.98832C33.3796 11.7166 31.8519 14.0807 31.8519 14.0807C32.1259 15.5893 32.2521 17.1214 32.2276 18.6545C32.1882 19.3452 32.1087 20.033 31.9899 20.7139C31.9466 20.9619 31.8979 21.2089 31.8441 21.4545C31.7556 21.86 31.6528 22.2631 31.5362 22.6618C31.2803 23.2077 31.1566 23.8069 31.1757 24.4096C31.2789 24.8733 31.5619 25.2769 31.962 25.5318C31.962 25.5318 33.7003 23.7937 34.0358 26.6637C34.2313 28.3567 32.1574 28.3171 32.1574 28.3171C31.3033 29.0787 30.5204 29.9172 29.8182 30.8217ZM8.30908 28.297C6.56591 27.7257 7.8632 26.6089 8.17871 26.4132C8.49423 26.2181 10.1824 25.136 8.48934 21.8752C7.98891 20.8729 7.69076 19.782 7.61274 18.6648C7.53447 17.547 7.67731 16.4253 8.03343 15.3633C8.03343 15.3633 10.6984 16.1548 12.0106 15.8892C12.0106 15.8892 14.365 15.4533 12.0106 14.9427C10.6583 14.8825 9.23557 14.8174 8.26383 13.7853C7.37525 12.985 6.83569 11.8682 6.76109 10.6746C6.68601 9.17189 9.02522 5.9463 9.02522 5.9463C9.04993 6.01429 9.07732 6.08082 9.10765 6.14686C9.12502 6.18452 9.14336 6.2217 9.16268 6.25839C9.20133 6.33225 9.2434 6.40465 9.28864 6.4746C9.32704 6.53379 9.36789 6.59151 9.41094 6.64728C9.86684 7.18341 12.5067 10.1537 13.0325 11.8971C13.3231 12.8989 14.0343 12.2478 14.0343 12.2478C15.9786 11.2846 18.0918 10.7094 20.2556 10.5548C21.7053 10.4198 23.152 10.8409 24.303 11.7317C24.303 11.7317 25.1395 13.0041 25.6155 11.3761C26.3769 8.76637 29.8732 5.94092 29.8732 5.94092L30.0887 5.46544L31.7066 8.19502C32.5737 9.76086 32.1865 10.7255 31.5626 12.2796L31.431 12.6083C30.4732 15.0077 28.1022 15.2748 26.9771 15.401C26.7844 15.4225 26.6283 15.4401 26.5222 15.4636C25.4753 15.6339 25.9009 16.0844 26.7626 16.1646C27.8194 16.6655 30.6747 15.739 30.6747 15.739C30.6747 15.739 31.1006 15.829 31.1757 18.088C31.2473 20.1729 30.7153 21.7133 30.3277 22.8359C30.119 23.4396 29.9522 23.9224 29.9434 24.3044C29.9182 25.3967 31.3158 26.4886 31.5914 26.674C31.6144 26.6896 31.6396 26.7048 31.6656 26.7199C31.9493 26.8892 32.3064 27.1025 30.5896 28.3968C29.2676 29.3884 27.9804 31.6885 26.9023 33.6148C26.3463 34.6083 25.8461 35.502 25.4252 36.0661C24.1878 37.7239 22.3346 38.7859 19.324 38.8563C16.4675 38.9228 14.7745 37.3017 13.7741 36.3444L13.6185 36.1962C13.2612 35.8572 12.6864 34.7854 12.0153 33.5341C10.853 31.3671 9.40238 28.662 8.29391 28.297H8.30908ZM21.7933 28.5475C21.8584 29.359 20.6411 29.8599 19.5943 29.8599V29.88C18.0614 29.8448 17.3201 29.2989 17.3052 28.6727C17.29 28.0466 17.6708 27.5105 17.6708 26.739C17.6258 24.5651 15.8976 20.0873 15.4417 19.8368C15.0689 19.6319 12.4553 19.7556 11.2431 19.8128C10.9741 19.8256 10.774 19.8349 10.683 19.8368C10.1821 19.8466 10.107 20.4326 10.107 20.4326C10.107 20.4326 9.95172 23.8387 12.817 24.4399C15.9177 25.071 16.3134 26.3183 16.3234 26.9445C16.3335 27.5706 16.0077 28.7427 16.0077 29.1736C16.0703 29.5063 16.2187 29.8169 16.4386 30.0742C16.5807 30.241 16.7495 30.3814 16.9373 30.491C17.0396 30.5507 17.1477 30.601 17.2599 30.6411C18.0216 30.9767 18.445 31.2071 18.6658 31.4718C18.8241 31.6611 18.8781 31.868 18.8781 32.1439C18.8879 32.5748 17.2201 33.0958 16.7241 33.111C16.2283 33.1256 15.7575 32.4648 15.3967 32.4648C15.1927 32.4589 14.9948 32.5338 14.8451 32.6722C14.6955 32.8106 14.6057 33.0024 14.5952 33.2059C14.6052 33.6867 15.9879 34.6685 16.7091 34.6533C17.4304 34.6387 18.7529 33.4964 19.6344 33.4764C20.0878 33.4661 20.6577 33.8012 21.197 34.1187C21.7065 34.4185 22.1886 34.7027 22.5195 34.6636C23.2009 34.5834 24.0775 34.2077 24.0775 33.1609C24.0775 32.114 23.1708 33.1457 22.5748 33.1609C21.9787 33.176 20.2456 32.6849 20.2304 32.0138C20.2155 31.3426 20.486 31.2374 21.7933 30.7664C22.1776 30.6152 22.5127 30.3613 22.7626 30.0326C23.0121 29.7044 23.1674 29.3135 23.211 28.9031C22.9434 28.2408 22.7602 27.5471 22.6648 26.8393C22.4036 25.5225 25.6346 24.1112 27.4932 23.2997C28.1658 23.0057 28.6586 22.7904 28.741 22.6867C29.0514 22.2959 28.7861 20.463 28.7861 20.463C28.7861 20.463 29.0666 19.9968 27.9143 19.8564C23.4426 19.3061 23.0865 19.966 22.869 20.3685L22.8453 20.4126C22.6249 20.8083 21.2323 26.2885 21.2924 26.8193C21.3526 27.3505 21.7283 27.736 21.7933 28.5475ZM15.1964 23.1074C15.497 22.2308 12.7618 21.1943 12.6316 21.9603C12.4414 23.0326 14.5651 23.5535 15.1964 23.1074ZM24.1225 22.6515C24.8137 23.3129 27.4335 22.5767 26.8225 21.6198C26.4468 21.0338 23.4313 21.9853 24.1225 22.6515Z" fill="#A58258"/>
</svg>
