<svg width="40" height="40" viewBox="0 0 40 40" fill="none" xmlns="http://www.w3.org/2000/svg">
<path d="M31.7944 40H8.20931C3.6831 40 0 36.3172 0 31.7914V8.20853C0 3.68275 3.6831 0 8.20931 0H31.7944C36.3207 0 40 3.68275 40 8.20853V31.7914C40.0038 36.3172 36.3207 40 31.7944 40ZM8.20931 0.580513C4.00111 0.580513 0.580567 4.00073 0.580567 8.20853V31.7914C0.580567 35.9955 4.00111 39.4158 8.20931 39.4158H31.7944C35.9989 39.4158 39.4195 35.9918 39.4195 31.7914V8.20853C39.4195 4.00073 35.9989 0.580513 31.7944 0.580513H8.20931Z" fill="#0039A6"/>
<path d="M17.9389 5.82317C18.5491 5.46821 19.2147 5.29073 19.8766 5.26855C18.4898 5.30923 17.1587 6.04503 16.4154 7.33547L4.44903 28.0527C3.30639 30.0347 3.9868 32.5638 5.96517 33.7063C7.94354 34.8489 10.4766 34.1722 11.6155 32.194L20.0023 17.6701L16.4265 11.4767C15.2839 9.49483 15.9606 6.96572 17.9389 5.82317Z" fill="#00A1DE"/>
<path d="M35.5541 28.0539L23.5914 7.34035C22.8444 6.04992 21.5132 5.31411 20.1264 5.27344C20.7848 5.29192 21.4504 5.4731 22.0605 5.82807C24.0389 6.9706 24.7193 9.49972 23.5729 11.4779L19.9971 17.6712L28.3838 32.1952C29.5265 34.1734 32.0558 34.85 34.0342 33.7075C36.02 32.565 36.6967 30.0358 35.5541 28.0539Z" fill="#0039A6"/>
<path d="M22.066 5.82317C21.4559 5.46821 20.7903 5.29073 20.1321 5.26855H20.1062H19.9028H19.8806C19.2187 5.28704 18.5567 5.46821 17.9429 5.82317C15.9645 6.96572 15.2878 9.49483 16.4304 11.473L20.0063 17.6664L23.5821 11.473C24.7211 9.49483 24.0444 6.96572 22.066 5.82317Z" fill="#002C77"/>
<path d="M24.2614 30.1493C24.2614 32.5047 22.357 34.4052 20.0051 34.4052C17.6532 34.4052 15.7451 32.5009 15.7451 30.1493C15.7451 27.8014 17.6496 25.8936 20.0014 25.8936C22.3533 25.8936 24.2614 27.8014 24.2614 30.1493Z" fill="#EEAF30"/>
</svg>
