<svg width="42" height="42" viewBox="0 0 42 42" fill="none" xmlns="http://www.w3.org/2000/svg">
<g id="m10">
<rect id="background" width="42" height="42" fill="#03EDC3"/>
<path id="Vector" d="M15.4661 21.2554C17.1732 21.2554 18.3214 22.359 18.3214 24.4016V29.0003H16.3125V24.8095C16.3125 23.7202 15.8446 23.1764 14.9536 23.1764C13.8214 23.1764 13.2928 23.9777 13.2928 25.3854V29.0003H11.2982V24.8095C11.2982 23.7202 10.8143 23.1764 9.92321 23.1764C8.80535 23.1764 8.29285 23.9777 8.29285 25.3854V29.0003H6.29999V21.436H8.23392V22.6004C8.68749 21.7991 9.42678 21.2536 10.5893 21.2536C11.6607 21.2536 12.4929 21.7079 12.9304 22.6613C13.4125 21.8009 14.2875 21.2554 15.4661 21.2554ZM25.6107 23.7058C25.6107 20.5435 27.8303 18.4114 30.6554 18.4114C33.4803 18.4114 35.7 20.5453 35.7 23.7058C35.7 26.8665 33.4803 29.0003 30.6554 29.0003C27.8303 29.0003 25.6107 26.8682 25.6107 23.7058ZM33.5857 23.7058C33.5857 21.7544 32.3464 20.5292 30.6554 20.5292C28.9482 20.5292 27.725 21.7544 27.725 23.7058C27.725 25.6573 28.9482 26.8825 30.6554 26.8825C32.3482 26.8825 33.5857 25.6573 33.5857 23.7058ZM16.1357 18.0268C16.0821 18.6099 16.5107 19.125 17.0929 19.1769L18.8143 19.3343C19.3964 19.388 19.9107 18.9587 19.9625 18.3756C20.0161 17.7925 19.5875 17.2774 19.0053 17.2255L17.2839 17.0681C16.7036 17.0162 16.1893 17.4455 16.1357 18.0268ZM18.6536 12.6179C18.1732 12.9506 18.0553 13.6106 18.3875 14.0917L19.7196 16.0146C20.0518 16.4957 20.7107 16.6138 21.1911 16.2811C21.6714 15.9484 21.7893 15.2884 21.4571 14.8072L20.125 12.8844C19.7929 12.4032 19.1339 12.2852 18.6536 12.6179ZM24.7911 11.5876C24.2268 11.4338 23.6464 11.7665 23.4929 12.3317L22.8804 14.5854C22.7268 15.1488 23.0589 15.732 23.6232 15.8858C24.1875 16.0396 24.7679 15.7069 24.9214 15.1417L25.5339 12.888C25.6857 12.3227 25.3536 11.7414 24.7911 11.5876ZM28.9607 15.9162C28.7161 15.385 28.0875 15.1542 27.5571 15.3992L25.9893 16.1237C25.4589 16.3687 25.2286 16.9983 25.4732 17.5296C25.7178 18.0608 26.3464 18.2915 26.8768 18.0465L28.4446 17.3221C28.975 17.0752 29.2053 16.4456 28.9607 15.9162ZM23.0161 18.4114C22.7197 18.4114 22.4339 18.5151 22.2071 18.7065L19.0393 21.3699C18.5929 21.7455 18.5339 22.4144 18.9089 22.8616C19.2839 23.3088 19.9518 23.3678 20.3982 22.9922L22.1589 21.5129V29.0021H24.2732V19.6724C24.2732 18.9748 23.7107 18.4114 23.0161 18.4114Z" fill="#02205F"/>
</g>
</svg>
