<svg width="49" height="31" viewBox="0 0 49 31" fill="none" xmlns="http://www.w3.org/2000/svg">
<path fill-rule="evenodd" clip-rule="evenodd" d="M24.5 26.4751C21.9051 28.7144 18.5389 30.0663 14.8606 30.0663C6.65334 30.0663 0 23.3358 0 15.0332C0 6.73057 6.65334 0 14.8606 0C18.5389 0 21.9051 1.35186 24.5 3.59122C27.0949 1.35186 30.4611 0 34.1394 0C42.3467 0 49 6.73057 49 15.0332C49 23.3358 42.3467 30.0663 34.1394 30.0663C30.4611 30.0663 27.0949 28.7144 24.5 26.4751Z" fill="#ED0006"/>
<path fill-rule="evenodd" clip-rule="evenodd" d="M24.5 26.4751C27.6952 23.7177 29.7213 19.6148 29.7213 15.0332C29.7213 10.4515 27.6952 6.34858 24.5 3.59122C27.0949 1.35186 30.4611 0 34.1394 0C42.3467 0 49 6.73057 49 15.0332C49 23.3358 42.3467 30.0663 34.1394 30.0663C30.4611 30.0663 27.0949 28.7144 24.5 26.4751Z" fill="#F9A000"/>
<path fill-rule="evenodd" clip-rule="evenodd" d="M24.5 3.5918C27.6952 6.34916 29.7213 10.4521 29.7213 15.0337C29.7213 19.6153 27.6952 23.7182 24.5 26.4755C21.3049 23.7182 19.2788 19.6153 19.2788 15.0337C19.2788 10.4521 21.3049 6.34916 24.5 3.5918Z" fill="#FF5E00"/>
</svg>
