<svg width="40" height="40" viewBox="0 0 40 40" fill="none" xmlns="http://www.w3.org/2000/svg">
<path fill-rule="evenodd" clip-rule="evenodd" d="M18.0125 0.621923C14.3481 3.10629 12.1742 7.01917 11.2426 11.1184L14.0375 13.9754C14.7828 9.00667 17.4535 4.90746 20 3.47895C20.2484 3.60317 21.118 4.16215 21.7391 4.84535C21.8633 4.84535 21.9254 4.72113 22.0496 4.72113C23.0434 4.28637 24.0371 3.8516 25.1551 3.54106C23.9129 2.11254 23.1676 1.49145 22.1117 0.684032C20.8695 -0.185497 19.2547 -0.247606 18.0125 0.621923ZM4.84535 7.64026C4.03793 11.9879 5.28012 16.3356 7.51605 19.9379H11.491C8.50979 15.9629 7.51605 11.1184 8.26136 8.26136C8.5719 8.13714 9.50354 7.95081 10.4352 8.01292C10.4352 7.8887 10.4973 7.76448 10.5594 7.70237C10.9321 6.70863 11.3047 5.71488 11.9258 4.65902C10.0625 4.47269 9.06878 4.65902 7.76448 4.78324C6.27386 5.03168 5.09379 6.14964 4.84535 7.64026ZM20 7.51605C23.6023 5.28011 27.8879 4.10004 32.2355 4.90746C33.7261 5.1559 34.8441 6.39808 35.0925 7.8887C35.2789 9.19299 35.4031 10.1867 35.2168 12.05C34.223 11.4289 33.1672 11.0563 32.1734 10.6836C32.0492 10.6836 31.925 10.6215 31.8629 10.5594C31.8629 9.62776 31.7386 8.63401 31.6144 8.32347C28.8195 7.57816 23.975 8.5719 19.9379 11.5531V7.57816L20 7.51605ZM39.3781 17.9504C36.8937 14.286 32.9187 12.1121 28.8195 11.1805L26.0246 13.9754C30.9933 14.7207 35.0925 17.3914 36.5211 19.9379C36.3968 20.1863 35.8379 21.0559 35.1546 21.6769C35.1546 21.8012 35.2789 21.8633 35.2789 21.9875C35.7136 22.9812 36.1484 23.975 36.4589 25.093C37.8875 23.8508 38.5085 23.1055 39.316 22.0496C40.1855 20.8074 40.2476 19.1926 39.3781 17.9504ZM32.484 19.9379C34.7199 23.5402 35.9 27.8258 35.0925 32.1734C34.8441 33.664 33.664 34.782 32.1113 35.0304C30.807 35.2168 29.8133 35.341 27.95 35.1546C28.5711 34.1609 28.9437 33.105 29.3164 32.1113C29.3164 31.9871 29.3785 31.8629 29.4406 31.8007C30.3722 31.8007 31.366 31.6765 31.6144 31.5523C32.3597 28.7574 31.366 23.9129 28.3847 19.8758H32.3597L32.484 19.9379ZM22.0496 39.2539C25.714 36.7695 27.8879 32.8566 28.8195 28.7574L26.0246 25.9004C25.2793 30.8691 22.5465 34.9683 20.0621 36.3968C19.8137 36.2726 18.9441 35.7136 18.323 35.0304C18.1988 35.0304 18.1367 35.1546 18.0125 35.1546C17.0188 35.5894 16.025 36.0242 14.907 36.3347C16.1492 37.7632 16.8945 38.3843 17.9504 39.1917C19.1926 40.0613 20.8074 40.1234 22.0496 39.2539ZM20 32.4218C16.3977 34.6578 12.1121 35.8378 7.76448 35.0304C6.27386 34.782 5.1559 33.6019 4.90746 32.0492C4.72113 30.7449 4.59691 29.7511 4.78324 27.8879C5.77699 28.509 6.83285 28.8816 7.82659 29.2543C7.95081 29.2543 8.07503 29.3164 8.13714 29.3785C8.13714 30.3101 8.26136 31.3039 8.38558 31.5523C11.2426 32.2976 16.025 31.3039 20.0621 28.3226V32.2976L20 32.4218ZM0.684033 21.9875C3.1684 25.6519 7.08128 27.8258 11.1805 28.7574L13.9754 25.9625C9.00667 25.2172 4.90746 22.4844 3.47895 20C3.60317 19.7516 4.16215 18.882 4.84535 18.2609C4.84535 18.1367 4.72113 18.0746 4.72113 17.9504C4.28637 16.9566 3.8516 15.9629 3.54106 14.8449C2.11254 16.0871 1.49145 16.8324 0.684033 17.8883C-0.185497 19.1305 -0.247606 20.7453 0.621923 21.9875H0.684033Z" fill="#0B60AE"/>
</svg>
