<?xml version="1.0" encoding="UTF-8"?>
<svg version="1.1" xmlns="http://www.w3.org/2000/svg" width="100" height="100">
<path d="M0 0 C2.2624882 1.67886478 4.33043223 3.43968823 6.39453125 5.35546875 C7.03003906 5.92394531 7.66554688 6.49242187 8.3203125 7.078125 C17.85742814 16.04342214 22.41423895 26.9417991 22.92041016 39.98461914 C23.10980578 54.18550326 20.30749108 65.67505396 10.39453125 76.35546875 C9.82605469 76.99097656 9.25757812 77.62648438 8.671875 78.28125 C3.53138244 83.74960997 -2.03817928 88.20890974 -9.60546875 89.35546875 C-9.93546875 90.01546875 -10.26546875 90.67546875 -10.60546875 91.35546875 C-24.1553977 94.69952173 -39.12171268 93.328972 -51.60546875 87.35546875 C-52.31832031 87.04480469 -53.03117187 86.73414062 -53.765625 86.4140625 C-58.14620637 84.26709625 -60.9314319 80.98595371 -63.9296875 77.2578125 C-65.53911098 75.28062391 -65.53911098 75.28062391 -67.68359375 73.8984375 C-70.0215297 72.02143608 -70.64218921 70.52804933 -71.66796875 67.73046875 C-71.96832031 66.93382813 -72.26867187 66.1371875 -72.578125 65.31640625 C-73.08666016 63.85074219 -73.08666016 63.85074219 -73.60546875 62.35546875 C-73.85989746 61.70054443 -74.11432617 61.04562012 -74.37646484 60.37084961 C-76.52340145 54.56439106 -77.1505638 49.33971186 -77.10546875 43.16796875 C-77.09974854 42.25176758 -77.09402832 41.33556641 -77.08813477 40.39160156 C-76.77073842 28.21298619 -72.9755237 18.3475023 -64.60546875 9.35546875 C-63.96738281 8.66195313 -63.32929687 7.9684375 -62.671875 7.25390625 C-59.34998058 3.78698109 -59.34998058 3.78698109 -57.60546875 2.35546875 C-56.94546875 2.35546875 -56.28546875 2.35546875 -55.60546875 2.35546875 C-55.60546875 1.69546875 -55.60546875 1.03546875 -55.60546875 0.35546875 C-53.35704784 -0.62746392 -51.10687328 -1.60597591 -48.85546875 -2.58203125 C-48.22125 -2.85982422 -47.58703125 -3.13761719 -46.93359375 -3.42382812 C-32.21236814 -9.78769128 -13.58177846 -8.5726068 0 0 Z M-60.04296875 9.91796875 C-69.58052185 20.30400269 -73.91242359 32.62483896 -73.51171875 46.6328125 C-72.58653605 55.30640036 -69.33867958 63.06063158 -64.60546875 70.35546875 C-61.74616347 71.64964863 -61.74616347 71.64964863 -59.48046875 70.60546875 C-57.28570801 69.4194209 -57.28570801 69.4194209 -56.60546875 66.35546875 C-58.09046875 65.36546875 -58.09046875 65.36546875 -59.60546875 64.35546875 C-59.93546875 63.36546875 -60.26546875 62.37546875 -60.60546875 61.35546875 C-61.59546875 61.35546875 -62.58546875 61.35546875 -63.60546875 61.35546875 C-63.27546875 60.36546875 -62.94546875 59.37546875 -62.60546875 58.35546875 C-63.98039679 55.18858495 -63.98039679 55.18858495 -65.60546875 52.35546875 C-66.26546875 52.35546875 -66.92546875 52.35546875 -67.60546875 52.35546875 C-67.60546875 51.69546875 -67.60546875 51.03546875 -67.60546875 50.35546875 C-66.61546875 49.86046875 -66.61546875 49.86046875 -65.60546875 49.35546875 C-65.93546875 46.71546875 -66.26546875 44.07546875 -66.60546875 41.35546875 C-67.26546875 41.35546875 -67.92546875 41.35546875 -68.60546875 41.35546875 C-68.27546875 38.38546875 -67.94546875 35.41546875 -67.60546875 32.35546875 C-66.12046875 31.86046875 -66.12046875 31.86046875 -64.60546875 31.35546875 C-65.10046875 29.87046875 -65.10046875 29.87046875 -65.60546875 28.35546875 C-64.94546875 28.35546875 -64.28546875 28.35546875 -63.60546875 28.35546875 C-63.31671875 27.38609375 -63.02796875 26.41671875 -62.73046875 25.41796875 C-61.60546875 22.35546875 -61.60546875 22.35546875 -59.60546875 21.35546875 C-59.60546875 20.36546875 -59.60546875 19.37546875 -59.60546875 18.35546875 C-58.94546875 18.35546875 -58.28546875 18.35546875 -57.60546875 18.35546875 C-56.94546875 17.36546875 -56.28546875 16.37546875 -55.60546875 15.35546875 C-52.98046875 14.66796875 -52.98046875 14.66796875 -50.60546875 14.35546875 C-50.60546875 13.36546875 -50.60546875 12.37546875 -50.60546875 11.35546875 C-49.61546875 11.68546875 -48.62546875 12.01546875 -47.60546875 12.35546875 C-47.21359375 11.90171875 -46.82171875 11.44796875 -46.41796875 10.98046875 C-43.84093832 8.67002768 -41.09805368 7.35546875 -37.60546875 7.35546875 C-37.60546875 6.69546875 -37.60546875 6.03546875 -37.60546875 5.35546875 C-36.94160156 5.42765625 -36.27773438 5.49984375 -35.59375 5.57421875 C-34.71074219 5.66703125 -33.82773437 5.75984375 -32.91796875 5.85546875 C-32.04785156 5.94828125 -31.17773438 6.04109375 -30.28125 6.13671875 C-27.60175641 6.41807542 -27.60175641 6.41807542 -24.8984375 6.19921875 C-24.14175781 6.25078125 -23.38507812 6.30234375 -22.60546875 6.35546875 C-21.94546875 7.34546875 -21.28546875 8.33546875 -20.60546875 9.35546875 C-19.61546875 9.02546875 -18.62546875 8.69546875 -17.60546875 8.35546875 C-17.11046875 8.85046875 -17.11046875 8.85046875 -16.60546875 9.35546875 C-15.94546875 9.80921875 -15.28546875 10.26296875 -14.60546875 10.73046875 C-12.60546875 12.35546875 -12.60546875 12.35546875 -11.60546875 15.35546875 C-10.94546875 15.35546875 -10.28546875 15.35546875 -9.60546875 15.35546875 C-9.60546875 16.67546875 -9.60546875 17.99546875 -9.60546875 19.35546875 C-8.09951314 21.08866558 -8.09951314 21.08866558 -6.04296875 22.60546875 C-2.40012019 25.60169569 0.57063438 28.77592283 3.59375 32.3828125 C5.49178525 34.46200513 7.51636441 36.15359383 9.70703125 37.91796875 C13.51728836 41.11652114 14.59911533 43.48354623 15.39453125 48.35546875 C14.73453125 48.35546875 14.07453125 48.35546875 13.39453125 48.35546875 C12.98203125 49.26296875 12.56953125 50.17046875 12.14453125 51.10546875 C9.43263133 56.14185432 6.82801158 58.54430864 1.39453125 60.35546875 C1.39453125 61.34546875 1.39453125 62.33546875 1.39453125 63.35546875 C0.40453125 63.35546875 -0.58546875 63.35546875 -1.60546875 63.35546875 C-1.93546875 62.03546875 -2.26546875 60.71546875 -2.60546875 59.35546875 C-4.25546875 59.68546875 -5.90546875 60.01546875 -7.60546875 60.35546875 C-7.60546875 61.67546875 -7.60546875 62.99546875 -7.60546875 64.35546875 C-5.95546875 64.68546875 -4.30546875 65.01546875 -2.60546875 65.35546875 C-2.11046875 69.31546875 -2.11046875 69.31546875 -1.60546875 73.35546875 C-5.0289343 76.50505706 -8.04809612 76.91725984 -12.60546875 77.35546875 C-13.26546875 75.37546875 -13.92546875 73.39546875 -14.60546875 71.35546875 C-15.92546875 71.35546875 -17.24546875 71.35546875 -18.60546875 71.35546875 C-18.60546875 72.34546875 -18.60546875 73.33546875 -18.60546875 74.35546875 C-21.57546875 73.86046875 -21.57546875 73.86046875 -24.60546875 73.35546875 C-24.93546875 74.01546875 -25.26546875 74.67546875 -25.60546875 75.35546875 C-29.75437273 75.45425218 -33.52307502 75.05034428 -37.60546875 74.35546875 C-38.51296875 74.37609375 -39.42046875 74.39671875 -40.35546875 74.41796875 C-42.60546875 74.35546875 -42.60546875 74.35546875 -44.60546875 72.35546875 C-49.87802769 71.76447127 -49.87802769 71.76447127 -54.54296875 73.66796875 C-55.78118601 75.48617266 -55.78118601 75.48617266 -56.60546875 78.35546875 C-56.00734375 78.62359375 -55.40921875 78.89171875 -54.79296875 79.16796875 C-52.60546875 80.35546875 -52.60546875 80.35546875 -51.34765625 81.765625 C-45.29905309 87.28531443 -34.65451423 89.58404205 -26.60546875 89.35546875 C-25.94546875 89.02546875 -25.28546875 88.69546875 -24.60546875 88.35546875 C-23.67734375 88.43796875 -22.74921875 88.52046875 -21.79296875 88.60546875 C-11.21074123 88.73830006 -1.59720927 82.15294526 5.703125 75.13671875 C14.87569602 65.61772879 18.78280464 55.5512857 19.39453125 42.35546875 C19.06924444 29.90585525 14.08570338 18.7861152 5.51953125 9.79296875 C-13.44871422 -7.7117661 -40.87085311 -7.71456791 -60.04296875 9.91796875 Z M-35.60546875 13.35546875 C-34.4537352 15.82346922 -33.5576331 17.4033044 -31.60546875 19.35546875 C-31.93546875 17.37546875 -32.26546875 15.39546875 -32.60546875 13.35546875 C-33.59546875 13.35546875 -34.58546875 13.35546875 -35.60546875 13.35546875 Z M-44.60546875 16.35546875 C-43.10163578 20.56620108 -40.39881919 22.18783992 -36.60546875 24.35546875 C-35.61546875 24.35546875 -34.62546875 24.35546875 -33.60546875 24.35546875 C-35.25762871 20.77578883 -37.33671227 17.57563923 -39.60546875 14.35546875 C-41.44593263 14.35546875 -43.00176469 15.52775052 -44.60546875 16.35546875 Z M-28.60546875 14.35546875 C-28.27546875 15.34546875 -27.94546875 16.33546875 -27.60546875 17.35546875 C-26.94546875 16.36546875 -26.28546875 15.37546875 -25.60546875 14.35546875 C-26.59546875 14.35546875 -27.58546875 14.35546875 -28.60546875 14.35546875 Z M-49.60546875 19.35546875 C-51.24223132 21.31549685 -51.24223132 21.31549685 -52.60546875 23.35546875 C-47.73801961 28.09482713 -43.16128098 29.76186222 -36.60546875 31.35546875 C-38.02332723 27.92588437 -39.63737217 26.33153571 -42.66796875 24.23046875 C-46.50824653 21.54991319 -46.50824653 21.54991319 -47.60546875 19.35546875 C-48.26546875 19.35546875 -48.92546875 19.35546875 -49.60546875 19.35546875 Z M-55.60546875 25.35546875 C-56.26546875 27.00546875 -56.92546875 28.65546875 -57.60546875 30.35546875 C-55.50596289 31.22102823 -53.40067805 32.07258152 -51.29296875 32.91796875 C-50.12121094 33.39363281 -48.94945312 33.86929688 -47.7421875 34.359375 C-44.62350791 35.6884422 -44.62350791 35.6884422 -41.60546875 34.35546875 C-42.2809375 34.0409375 -42.95640625 33.72640625 -43.65234375 33.40234375 C-52.51232288 29.15160232 -52.51232288 29.15160232 -55.60546875 25.35546875 Z M-59.60546875 34.35546875 C-59.93546875 36.00546875 -60.26546875 37.65546875 -60.60546875 39.35546875 C-53.8406123 40.96751965 -47.55587961 41.6216547 -40.60546875 41.35546875 C-44.04904989 39.54037919 -47.60079255 38.13154015 -51.23046875 36.73046875 C-52.37773438 36.28445312 -53.525 35.8384375 -54.70703125 35.37890625 C-57.40748002 34.2444844 -57.40748002 34.2444844 -59.60546875 34.35546875 Z M-59.60546875 43.35546875 C-59.60546875 45.33546875 -59.60546875 47.31546875 -59.60546875 49.35546875 C-56.81290656 49.24185273 -54.02202757 49.11510985 -51.23046875 48.98046875 C-50.43640625 48.94953125 -49.64234375 48.91859375 -48.82421875 48.88671875 C-44.238795 48.83730454 -44.238795 48.83730454 -40.60546875 46.35546875 C-50.01046875 44.87046875 -50.01046875 44.87046875 -59.60546875 43.35546875 Z M-55.60546875 53.35546875 C-55.60546875 54.34546875 -55.60546875 55.33546875 -55.60546875 56.35546875 C-53.31251639 56.07408817 -51.02111419 55.78005015 -48.73046875 55.48046875 C-47.45429687 55.31804688 -46.178125 55.155625 -44.86328125 54.98828125 C-41.53382648 54.65669402 -41.53382648 54.65669402 -39.60546875 52.35546875 C-41.89707194 52.32854391 -44.18876421 52.30910751 -46.48046875 52.29296875 C-48.39472656 52.27556641 -48.39472656 52.27556641 -50.34765625 52.2578125 C-53.49211527 52.12370306 -53.49211527 52.12370306 -55.60546875 53.35546875 Z M-52.60546875 59.35546875 C-51.94546875 60.67546875 -51.28546875 61.99546875 -50.60546875 63.35546875 C-45.16046875 61.37546875 -45.16046875 61.37546875 -39.60546875 59.35546875 C-39.60546875 59.02546875 -39.60546875 58.69546875 -39.60546875 58.35546875 C-44.04756232 58.247125 -48.21961546 58.65373222 -52.60546875 59.35546875 Z M-46.60546875 64.35546875 C-45.61546875 65.84046875 -45.61546875 65.84046875 -44.60546875 67.35546875 C-42.29546875 66.03546875 -39.98546875 64.71546875 -37.60546875 63.35546875 C-40.80609562 61.75515531 -43.32818681 63.32373184 -46.60546875 64.35546875 Z M-37.60546875 66.35546875 C-36.94546875 67.67546875 -36.28546875 68.99546875 -35.60546875 70.35546875 C-34.61546875 68.70546875 -33.62546875 67.05546875 -32.60546875 65.35546875 C-34.81628726 65.25005949 -34.81628726 65.25005949 -37.60546875 66.35546875 Z " fill="#D5B364" transform="translate(76.60546875,6.64453125)"/>
<path d="M0 0 C2.2624882 1.67886478 4.33043223 3.43968823 6.39453125 5.35546875 C7.03003906 5.92394531 7.66554688 6.49242187 8.3203125 7.078125 C17.85742814 16.04342214 22.41423895 26.9417991 22.92041016 39.98461914 C23.10980578 54.18550326 20.30749108 65.67505396 10.39453125 76.35546875 C9.82605469 76.99097656 9.25757812 77.62648438 8.671875 78.28125 C3.53138244 83.74960997 -2.03817928 88.20890974 -9.60546875 89.35546875 C-9.93546875 90.01546875 -10.26546875 90.67546875 -10.60546875 91.35546875 C-24.1553977 94.69952173 -39.12171268 93.328972 -51.60546875 87.35546875 C-52.31832031 87.04480469 -53.03117187 86.73414062 -53.765625 86.4140625 C-58.14620637 84.26709625 -60.9314319 80.98595371 -63.9296875 77.2578125 C-65.53911098 75.28062391 -65.53911098 75.28062391 -67.68359375 73.8984375 C-70.0215297 72.02143608 -70.64218921 70.52804933 -71.66796875 67.73046875 C-71.96832031 66.93382813 -72.26867187 66.1371875 -72.578125 65.31640625 C-73.08666016 63.85074219 -73.08666016 63.85074219 -73.60546875 62.35546875 C-73.85989746 61.70054443 -74.11432617 61.04562012 -74.37646484 60.37084961 C-76.52340145 54.56439106 -77.1505638 49.33971186 -77.10546875 43.16796875 C-77.09974854 42.25176758 -77.09402832 41.33556641 -77.08813477 40.39160156 C-76.77073842 28.21298619 -72.9755237 18.3475023 -64.60546875 9.35546875 C-63.96738281 8.66195313 -63.32929687 7.9684375 -62.671875 7.25390625 C-59.34998058 3.78698109 -59.34998058 3.78698109 -57.60546875 2.35546875 C-56.94546875 2.35546875 -56.28546875 2.35546875 -55.60546875 2.35546875 C-55.60546875 1.69546875 -55.60546875 1.03546875 -55.60546875 0.35546875 C-53.35704784 -0.62746392 -51.10687328 -1.60597591 -48.85546875 -2.58203125 C-48.22125 -2.85982422 -47.58703125 -3.13761719 -46.93359375 -3.42382812 C-32.21236814 -9.78769128 -13.58177846 -8.5726068 0 0 Z M-60.04296875 9.91796875 C-69.58052185 20.30400269 -73.91242359 32.62483896 -73.51171875 46.6328125 C-72.56281475 55.52878746 -68.91302363 62.67327863 -64.60546875 70.35546875 C-63.94546875 70.35546875 -63.28546875 70.35546875 -62.60546875 70.35546875 C-62.20714844 71.25458984 -62.20714844 71.25458984 -61.80078125 72.171875 C-57.53973341 79.95594605 -47.18061509 85.28420657 -38.984375 87.79296875 C-31.68515925 89.65540803 -31.68515925 89.65540803 -24.60546875 88.35546875 C-23.67734375 88.43796875 -22.74921875 88.52046875 -21.79296875 88.60546875 C-11.21074123 88.73830006 -1.59720927 82.15294526 5.703125 75.13671875 C14.87569602 65.61772879 18.78280464 55.5512857 19.39453125 42.35546875 C19.06924444 29.90585525 14.08570338 18.7861152 5.51953125 9.79296875 C-13.44871422 -7.7117661 -40.87085311 -7.71456791 -60.04296875 9.91796875 Z " fill="#02AAB4" transform="translate(76.60546875,6.64453125)"/>
<path d="M0 0 C1.65 0.33 3.3 0.66 5 1 C5 2.98 5 4.96 5 7 C5.66 6.67 6.32 6.34 7 6 C8.3734635 5.84995027 9.7528526 5.75161994 11.1328125 5.68359375 C11.93847656 5.64169922 12.74414062 5.59980469 13.57421875 5.55664062 C14.41597656 5.51732422 15.25773437 5.47800781 16.125 5.4375 C16.97449219 5.39431641 17.82398437 5.35113281 18.69921875 5.30664062 C20.79928223 5.20045764 22.89961948 5.09971503 25 5 C25 4.34 25 3.68 25 3 C27.64 3 30.28 3 33 3 C33 3.99 33 4.98 33 6 C24.65773999 8.38994476 16.66540227 9.5946828 8 10 C8 11.65 8 13.3 8 15 C9.093125 14.525625 10.18625 14.05125 11.3125 13.5625 C16.43476513 11.61291255 21.56561888 11.28970046 27 11 C27 10.34 27 9.68 27 9 C29.31 8.34 31.62 7.68 34 7 C35.35439668 9.70879335 35.06501451 12.00933268 35 15 C33.25048432 15.95921722 31.50036756 16.91733817 29.75 17.875 C28.77546875 18.40867187 27.8009375 18.94234375 26.796875 19.4921875 C24.54869592 20.70419466 22.2927195 21.87547567 20 23 C23.11227195 23 25.94152152 22.54372951 29 22 C29 21.01 29 20.02 29 19 C32.08809695 17.23537317 33.23312136 17 37 17 C38.98 20.96 40.96 24.92 43 29 C42.01 29.33 41.02 29.66 40 30 C39.67 30.66 39.34 31.32 39 32 C39.99 32.495 39.99 32.495 41 33 C40 34 40 34 37.3125 34.125 C34.1163814 34.00439175 31.14812074 33.53585034 28 33 C27.0925 33.020625 26.185 33.04125 25.25 33.0625 C23 33 23 33 21 31 C18.55987051 30.75712511 18.55987051 30.75712511 15.875 30.875 C14.50988281 30.90207031 14.50988281 30.90207031 13.1171875 30.9296875 C12.06917969 30.96449219 12.06917969 30.96449219 11 31 C10.34 32.32 9.68 33.64 9 35 C7.02 33.35 5.04 31.7 3 30 C4 28 4 28 7 26 C7 25.34 7 24.68 7 24 C6.34 23.34 5.68 22.68 5 22 C5 21.01 5 20.02 5 19 C4.01 19 3.02 19 2 19 C1.48515379 16.94061515 0.97892115 14.89460574 0.5625 12.8125 C0.376875 12.214375 0.19125 11.61625 0 11 C-0.66 10.67 -1.32 10.34 -2 10 C-1.34 6.7 -0.68 3.4 0 0 Z M13 17 C13.66 18.32 14.32 19.64 15 21 C20.445 19.02 20.445 19.02 26 17 C26 16.67 26 16.34 26 16 C21.55790643 15.89165625 17.38585329 16.29826347 13 17 Z M28 24 C28.66 25.32 29.32 26.64 30 28 C30.99 26.35 31.98 24.7 33 23 C30.78918149 22.89459074 30.78918149 22.89459074 28 24 Z " fill="#BF9B4F" transform="translate(11,49)"/>
<path d="M0 0 C5.28 0 10.56 0 16 0 C16.495 1.98 16.495 1.98 17 4 C18.32 3.34 19.64 2.68 21 2 C21 2.66 21 3.32 21 4 C21.639375 4.2475 22.27875 4.495 22.9375 4.75 C25 6 25 6 25.75 8.125 C25.8325 8.74375 25.915 9.3625 26 10 C26.66 10 27.32 10 28 10 C28 11.32 28 12.64 28 14 C27.01 13.67 26.02 13.34 25 13 C24.505 12.01 24.505 12.01 24 11 C22.88625 11.3403125 22.88625 11.3403125 21.75 11.6875 C19 12 19 12 16.6875 10.5625 C16.130625 10.046875 15.57375 9.53125 15 9 C12.81668311 10.76136355 12.81668311 10.76136355 12.8046875 12.9453125 C12.82789063 13.66460937 12.85109375 14.38390625 12.875 15.125 C12.91625 16.40375 12.9575 17.6825 13 19 C13.99 19 14.98 19 16 19 C16 18.34 16 17.68 16 17 C16.66 17 17.32 17 18 17 C17.125 21.875 17.125 21.875 16 23 C13.625 23.25 13.625 23.25 11 23 C10.54625 22.505 10.0925 22.01 9.625 21.5 C7.91592237 19.60131895 7.91592237 19.60131895 4.3125 19.8125 C3.219375 19.874375 2.12625 19.93625 1 20 C1.99 19.67 2.98 19.34 4 19 C2.02 16.03 0.04 13.06 -2 10 C-3.65 10.33 -5.3 10.66 -7 11 C-7.33 11.66 -7.66 12.32 -8 13 C-4.32442148 17.00972202 -0.81033104 19.45335415 4 22 C3.34 22.33 2.68 22.66 2 23 C1.34786708 25.02463255 1.34786708 25.02463255 1 27 C2.32 27.99 3.64 28.98 5 30 C3.02 30 1.04 30 -1 30 C-1 30.66 -1 31.32 -1 32 C-9.48605026 31.50082057 -19.62708031 28.89801462 -26 23 C-26.25 20.3125 -26.25 20.3125 -26 18 C-24.68 17.34 -23.36 16.68 -22 16 C-22 15.01 -22 14.02 -22 13 C-21.34 13 -20.68 13 -20 13 C-19.34 11.68 -18.68 10.36 -18 9 C-16.35 9 -14.7 9 -13 9 C-13 8.01 -13 7.02 -13 6 C-9.41161963 4.13404221 -5.77010767 2.46615298 -2 1 C-1.34 1.33 -0.68 1.66 0 2 C0 1.34 0 0.68 0 0 Z M2 8 C3.15173355 10.46800047 4.04783565 12.04783565 6 14 C5.67 12.02 5.34 10.04 5 8 C4.01 8 3.02 8 2 8 Z M9 9 C9.33 9.99 9.66 10.98 10 12 C10.66 11.01 11.32 10.02 12 9 C11.01 9 10.02 9 9 9 Z M-12 14 C-13.63676257 15.9600281 -13.63676257 15.9600281 -15 18 C-10.13255086 22.73935838 -5.55581223 24.40639347 1 26 C-0.41785848 22.57041562 -2.03190342 20.97606696 -5.0625 18.875 C-8.90277778 16.19444444 -8.90277778 16.19444444 -10 14 C-10.66 14 -11.32 14 -12 14 Z M-18 20 C-18.66 21.65 -19.32 23.3 -20 25 C-17.90049414 25.86555948 -15.7952093 26.71711277 -13.6875 27.5625 C-12.51574219 28.03816406 -11.34398437 28.51382813 -10.13671875 29.00390625 C-7.01803916 30.33297345 -7.01803916 30.33297345 -4 29 C-4.67546875 28.68546875 -5.3509375 28.3709375 -6.046875 28.046875 C-14.90685413 23.79613357 -14.90685413 23.79613357 -18 20 Z " fill="#C2A565" transform="translate(39,12)"/>
<path d="M0 0 C0.66 0.33 1.32 0.66 2 1 C2 1.66 2 2.32 2 3 C2.928125 3 3.85625 3 4.8125 3 C6.875 3 8.9375 3 11 3 C11 3.66 11 4.32 11 5 C11.804375 5.226875 12.60875 5.45375 13.4375 5.6875 C16 7 16 7 16.8125 9.5 C17 12 17 12 17 14 C17.66 14.33 18.32 14.66 19 15 C19 15.66 19 16.32 19 17 C15.04 17 11.08 17 7 17 C7 16.34 7 15.68 7 15 C6.24074219 15.42152344 5.48148438 15.84304687 4.69921875 16.27734375 C3.20841797 17.09912109 3.20841797 17.09912109 1.6875 17.9375 C0.70136719 18.48277344 -0.28476562 19.02804688 -1.30078125 19.58984375 C-4 21 -4 21 -7 22 C-7.90864218 23.83841944 -7.90864218 23.83841944 -8.5 26 C-9.15625 28.1875 -9.15625 28.1875 -10 30 C-17.57601441 32.52533814 -25.92340723 31.04030568 -33.625 29.625 C-34.32391357 29.49899414 -35.02282715 29.37298828 -35.74291992 29.24316406 C-40.7441571 28.2558429 -40.7441571 28.2558429 -43 26 C-35.93391809 25.86205046 -29.02639415 26.25194283 -22 27 C-22 26.01 -22 25.02 -22 24 C-22.78375 23.9175 -23.5675 23.835 -24.375 23.75 C-29.18527514 22.75477066 -33.48463281 20.8963111 -38 19 C-39.66554602 18.33053852 -41.33190174 17.66307649 -43 17 C-43 16.34 -43 15.68 -43 15 C-39.1405974 15.63268895 -35.88619589 16.80047444 -32.3125 18.375 C-26.9635766 20.66171447 -21.60940124 22.47354789 -16 24 C-16 23.34 -16 22.68 -16 22 C-14.68 21.67 -13.36 21.34 -12 21 C-13.32 20.34 -14.64 19.68 -16 19 C-15.34 18.67 -14.68 18.34 -14 18 C-13.34786708 15.97536745 -13.34786708 15.97536745 -13 14 C-13.61488281 13.60167969 -14.22976562 13.20335937 -14.86328125 12.79296875 C-16.07564453 11.99826172 -16.07564453 11.99826172 -17.3125 11.1875 C-18.11300781 10.66542969 -18.91351563 10.14335937 -19.73828125 9.60546875 C-21.7237402 8.19610151 -23.3491852 6.77903343 -25 5 C-24.67 4.34 -24.34 3.68 -24 3 C-22.3278148 4.11678083 -20.66237197 5.24366352 -19 6.375 C-18.071875 7.00148438 -17.14375 7.62796875 -16.1875 8.2734375 C-15.465625 8.84320313 -14.74375 9.41296875 -14 10 C-14 10.66 -14 11.32 -14 12 C-12.906875 11.79375 -11.81375 11.5875 -10.6875 11.375 C-7 11 -7 11 -4 13 C-4 13.66 -4 14.32 -4 15 C-0.99615946 14.3045656 -0.99615946 14.3045656 2 13 C2.96877057 10.96756452 2.96877057 10.96756452 3 9 C2.34 9 1.68 9 1 9 C1 9.66 1 10.32 1 11 C0.01 11 -0.98 11 -2 11 C-2.96891192 5.62694301 -2.96891192 5.62694301 -3 3 C-1.5625 1 -1.5625 1 0 0 Z " fill="#D8BC72" transform="translate(54,20)"/>
<path d="M0 0 C1.66289062 0.74056641 1.66289062 0.74056641 3.359375 1.49609375 C4.82284257 2.14339671 6.28638835 2.79052288 7.75 3.4375 C8.84441406 3.92573242 8.84441406 3.92573242 9.9609375 4.42382812 C10.66992188 4.73642578 11.37890625 5.04902344 12.109375 5.37109375 C12.75874023 5.65911865 13.40810547 5.94714355 14.07714844 6.24389648 C16.03072471 7.01208157 17.95471205 7.53642793 20 8 C20 8.66 20 9.32 20 10 C14.45949887 9.43174347 9.96284034 7.37113483 5 5 C4.67 6.65 4.34 8.3 4 10 C3.01 10.33 2.02 10.66 1 11 C16.49915894 14.70139986 16.49915894 14.70139986 32 13 C33.02281518 10.90280128 33.02281518 10.90280128 33.6875 8.4375 C34.06455078 7.19806641 34.06455078 7.19806641 34.44921875 5.93359375 C34.63097656 5.29550781 34.81273437 4.65742187 35 4 C35.99 4 36.98 4 38 4 C37.835 5.27875 37.67 6.5575 37.5 7.875 C36.70580669 15.18388049 36.08736147 22.08248349 39 29 C39.94875 28.95875 40.8975 28.9175 41.875 28.875 C45 29 45 29 47 31 C48.32 31 49.64 31 51 31 C50.67 33.31 50.34 35.62 50 38 C49.01 38 48.02 38 47 38 C47.804375 38.804375 48.60875 39.60875 49.4375 40.4375 C50.625 41.625 51.8125 42.8125 53 44 C54.51928038 44.07179964 56.04167482 44.08392007 57.5625 44.0625 C58.38878906 44.05347656 59.21507812 44.04445312 60.06640625 44.03515625 C60.70449219 44.02355469 61.34257813 44.01195312 62 44 C62.33 42.68 62.66 41.36 63 40 C63.495 41.98 63.495 41.98 64 44 C60.9315153 46.97550031 59.53763669 47.96474513 55.1875 48.25 C54.135625 48.1675 53.08375 48.085 52 48 C51.34 46.02 50.68 44.04 50 42 C48.68 42 47.36 42 46 42 C46 42.99 46 43.98 46 45 C43.36 45 40.72 45 38 45 C38.33 44.01 38.66 43.02 39 42 C39.66 41.67 40.32 41.34 41 41 C40.6390625 40.37351563 40.278125 39.74703125 39.90625 39.1015625 C39.4421875 38.28429687 38.978125 37.46703125 38.5 36.625 C38.0359375 35.81289062 37.571875 35.00078125 37.09375 34.1640625 C36 32 36 32 36 30 C33.36 30.66 30.72 31.32 28 32 C28 32.99 28 33.98 28 35 C26.02 34.67 24.04 34.34 22 34 C25.41016497 31.13546142 28.90694544 29.65296434 33 28 C33.04254356 26.00045254 33.04080783 23.99958364 33 22 C32.67 21.67 32.34 21.34 32 21 C28.97980236 21.25335353 28.97980236 21.25335353 26 22 C25.67 22.66 25.34 23.32 25 24 C19.72 24 14.44 24 9 24 C9.33 25.32 9.66 26.64 10 28 C9.01 28 8.02 28 7 28 C7 26.35 7 24.7 7 23 C5.35 23 3.7 23 2 23 C2 22.67 2 22.34 2 22 C3.16015625 21.95101562 4.3203125 21.90203125 5.515625 21.8515625 C14.47280657 21.43586479 23.18784205 20.77971033 32 19 C32 18.01 32 17.02 32 16 C31.21238281 16.09539063 30.42476562 16.19078125 29.61328125 16.2890625 C21.39483488 17.12549609 14.09265211 16.60263651 6 15 C5.67 16.65 5.34 18.3 5 20 C4.67 20 4.34 20 4 20 C3.67 18.02 3.34 16.04 3 14 C1.68 13.67 0.36 13.34 -1 13 C-1 14.65 -1 16.3 -1 18 C-1.66 17.67 -2.32 17.34 -3 17 C-3.44921875 14.85546875 -3.44921875 14.85546875 -3.6875 12.1875 C-3.77386719 11.31480469 -3.86023437 10.44210938 -3.94921875 9.54296875 C-4.01961453 6.01776484 -3.82273869 3.92146733 -1.4375 1.25 C-0.963125 0.8375 -0.48875 0.425 0 0 Z " fill="#BD9943" transform="translate(12,36)"/>
<path d="M0 0 C1.65 0.33 3.3 0.66 5 1 C5 2.98 5 4.96 5 7 C5.66 6.67 6.32 6.34 7 6 C8.3734635 5.84995027 9.7528526 5.75161994 11.1328125 5.68359375 C11.93847656 5.64169922 12.74414062 5.59980469 13.57421875 5.55664062 C14.41597656 5.51732422 15.25773437 5.47800781 16.125 5.4375 C16.97449219 5.39431641 17.82398437 5.35113281 18.69921875 5.30664062 C20.79928223 5.20045764 22.89961948 5.09971503 25 5 C25 4.34 25 3.68 25 3 C27.64 3 30.28 3 33 3 C33 3.99 33 4.98 33 6 C24.65773999 8.38994476 16.66540227 9.5946828 8 10 C8 11.65 8 13.3 8 15 C9.093125 14.525625 10.18625 14.05125 11.3125 13.5625 C16.43476513 11.61291255 21.56561888 11.28970046 27 11 C27 10.34 27 9.68 27 9 C29.31 8.34 31.62 7.68 34 7 C33.67 8.65 33.34 10.3 33 12 C30.45906145 12.64881448 27.91731727 13.29412899 25.375 13.9375 C24.66214844 14.11990234 23.94929688 14.30230469 23.21484375 14.49023438 C19.16030687 15.51316799 15.14052941 16.37957367 11 17 C11 17.99 11 18.98 11 20 C8.03 19.67 5.06 19.34 2 19 C1.48644796 16.94579182 0.97776206 14.88881028 0.5625 12.8125 C0.376875 12.214375 0.19125 11.61625 0 11 C-0.66 10.67 -1.32 10.34 -2 10 C-1.34 6.7 -0.68 3.4 0 0 Z " fill="#B89858" transform="translate(11,49)"/>
<path d="M0 0 C0.33 0.66 0.66 1.32 1 2 C2.32 2 3.64 2 5 2 C5.33 1.34 5.66 0.68 6 0 C8.53926173 1.82671379 10.9050512 3.66877878 13 6 C13.4375 9.375 13.4375 9.375 13 12 C12.34 12 11.68 12 11 12 C10.773125 12.886875 10.54625 13.77375 10.3125 14.6875 C8.37668467 19.57312917 5.3092041 22.12719727 1 25 C0.34 25.99 -0.32 26.98 -1 28 C-2.32 27.67 -3.64 27.34 -5 27 C-5 25.68 -5 24.36 -5 23 C-6.65 23.66 -8.3 24.32 -10 25 C-9.67 25.99 -9.34 26.98 -9 28 C-8.34 28.165 -7.68 28.33 -7 28.5 C-6.34 28.665 -5.68 28.83 -5 29 C-3.90341064 32.28976808 -4.20046862 33.71303767 -5 37 C-8.02372119 37.65255521 -10.90084506 38.13940835 -14 38 C-16.375 35.6875 -16.375 35.6875 -18 33 C-18.99 32.34 -19.98 31.68 -21 31 C-20.01 30.67 -19.02 30.34 -18 30 C-17.67 28.35 -17.34 26.7 -17 25 C-17.598125 24.896875 -18.19625 24.79375 -18.8125 24.6875 C-21.28243264 23.91123545 -22.32251235 22.92911079 -24 21 C-22.14375 21.309375 -22.14375 21.309375 -20.25 21.625 C-16.88090165 22.06107124 -14.87158079 22.03403639 -12 20 C-12 20.66 -12 21.32 -12 22 C-4.02239448 22.51374487 -4.02239448 22.51374487 3.5625 20.4375 C6.57097645 17.42902355 7.50701575 14.95640827 9 11 C9.66 10.67 10.32 10.34 11 10 C10.67613187 7.47014472 10.67613187 7.47014472 9 5 C6.05880129 3.92998438 3.09415757 3.42656082 0 3 C0 2.01 0 1.02 0 0 Z " fill="#C29F4E" transform="translate(79,43)"/>
<path d="M0 0 C1.66289062 0.74056641 1.66289062 0.74056641 3.359375 1.49609375 C4.82284257 2.14339671 6.28638835 2.79052288 7.75 3.4375 C8.84441406 3.92573242 8.84441406 3.92573242 9.9609375 4.42382812 C10.66992188 4.73642578 11.37890625 5.04902344 12.109375 5.37109375 C12.75874023 5.65911865 13.40810547 5.94714355 14.07714844 6.24389648 C16.03072471 7.01208157 17.95471205 7.53642793 20 8 C20 8.66 20 9.32 20 10 C14.45949887 9.43174347 9.96284034 7.37113483 5 5 C4.67 6.65 4.34 8.3 4 10 C3.01 10.33 2.02 10.66 1 11 C9.91384653 12.92236998 18.24995452 14.35320121 27.42578125 14.0078125 C30 14 30 14 33 15 C33 16.65 33 18.3 33 20 C31.865625 20.28875 30.73125 20.5775 29.5625 20.875 C28.386875 21.24625 27.21125 21.6175 26 22 C25.67 22.66 25.34 23.32 25 24 C19.72 24 14.44 24 9 24 C9.33 25.32 9.66 26.64 10 28 C9.01 28 8.02 28 7 28 C7 26.35 7 24.7 7 23 C5.35 23 3.7 23 2 23 C2 22.67 2 22.34 2 22 C3.16015625 21.95101562 4.3203125 21.90203125 5.515625 21.8515625 C14.47280657 21.43586479 23.18784205 20.77971033 32 19 C32 18.01 32 17.02 32 16 C31.21238281 16.09539063 30.42476562 16.19078125 29.61328125 16.2890625 C21.39483488 17.12549609 14.09265211 16.60263651 6 15 C5.67 16.65 5.34 18.3 5 20 C4.67 20 4.34 20 4 20 C3.67 18.02 3.34 16.04 3 14 C1.68 13.67 0.36 13.34 -1 13 C-1 14.65 -1 16.3 -1 18 C-1.66 17.67 -2.32 17.34 -3 17 C-3.44921875 14.85546875 -3.44921875 14.85546875 -3.6875 12.1875 C-3.77386719 11.31480469 -3.86023437 10.44210938 -3.94921875 9.54296875 C-4.01961453 6.01776484 -3.82273869 3.92146733 -1.4375 1.25 C-0.963125 0.8375 -0.48875 0.425 0 0 Z " fill="#B18E4D" transform="translate(12,36)"/>
<path d="M0 0 C5.28 0 10.56 0 16 0 C16.33 1.32 16.66 2.64 17 4 C18.32 3.34 19.64 2.68 21 2 C21 2.66 21 3.32 21 4 C21.639375 4.2475 22.27875 4.495 22.9375 4.75 C25 6 25 6 25.75 8.125 C25.8325 8.74375 25.915 9.3625 26 10 C26.66 10 27.32 10 28 10 C28 11.32 28 12.64 28 14 C27.01 13.67 26.02 13.34 25 13 C24.505 12.01 24.505 12.01 24 11 C22.35 11.33 20.7 11.66 19 12 C16 7.375 16 7.375 16 4 C14.35 4.66 12.7 5.32 11 6 C11.66 6.66 12.32 7.32 13 8 C10.33333333 7.33333333 7.66666667 6.66666667 5 6 C5 6.66 5 7.32 5 8 C4.01 8 3.02 8 2 8 C4.8795976 12.57748509 4.8795976 12.57748509 9 16 C8.67 16.66 8.34 17.32 8 18 C4.39588346 16.55366256 2.88597432 14.80863332 0.8125 11.5625 C0.30332031 10.78003906 -0.20585938 9.99757813 -0.73046875 9.19140625 C-2 7 -2 7 -3 4 C-3.33 4.99 -3.66 5.98 -4 7 C-5.9375 6.625 -5.9375 6.625 -8 6 C-8.33 5.34 -8.66 4.68 -9 4 C-6.69631264 2.93347808 -4.35981813 1.93578995 -2 1 C-1.34 1.33 -0.68 1.66 0 2 C0 1.34 0 0.68 0 0 Z " fill="#BB9853" transform="translate(39,12)"/>
<path d="M0 0 C0.33 0 0.66 0 1 0 C1 1.98 1 3.96 1 6 C-0.79143207 6.9795958 -2.58315304 7.9586633 -4.375 8.9375 C-5.37273438 9.48277344 -6.37046875 10.02804688 -7.3984375 10.58984375 C-11.81168899 12.9820116 -15.00716273 13.43629257 -20 14 C-20 16.31 -20 18.62 -20 21 C-20.99 21.33 -21.98 21.66 -23 22 C-24.20882096 24.00016466 -24.20882096 24.00016466 -25 26 C-26.98 24.35 -28.96 22.7 -31 21 C-30 19 -30 19 -27 17 C-27 16.34 -27 15.68 -27 15 C-27.66 14.34 -28.32 13.68 -29 13 C-29 12.01 -29 11.02 -29 10 C-26.03 10.495 -26.03 10.495 -23 11 C-23 10.01 -23 9.02 -23 8 C-23.99 7.67 -24.98 7.34 -26 7 C-24.69804687 6.80664062 -23.39609375 6.61328125 -22.0546875 6.4140625 C-20.32808288 6.15131832 -18.60152269 5.88828205 -16.875 5.625 C-15.59109375 5.43550781 -15.59109375 5.43550781 -14.28125 5.2421875 C-9.69448065 4.53653068 -5.30935431 3.80359557 -1 2 C-0.67 1.34 -0.34 0.68 0 0 Z M-21 8 C-20.34 9.32 -19.68 10.64 -19 12 C-13.555 10.02 -13.555 10.02 -8 8 C-8 7.67 -8 7.34 -8 7 C-12.44209357 6.89165625 -16.61414671 7.29826347 -21 8 Z " fill="#BB9851" transform="translate(45,58)"/>
<path d="M0 0 C0.2475 0.53625 0.495 1.0725 0.75 1.625 C2.29814886 4.56648283 4.13010957 7.25359843 6 10 C6.99 11.485 6.99 11.485 8 13 C8.99 13 9.98 13 11 13 C10.34 12.34 9.68 11.68 9 11 C8.43479997 8.34462628 8.26211802 5.70855287 8 3 C10.97 3.495 10.97 3.495 14 4 C13.67 3.34 13.34 2.68 13 2 C14.98 1.67 16.96 1.34 19 1 C19.99 3.31 20.98 5.62 22 8 C21.34 8 20.68 8 20 8 C19.34 7.34 18.68 6.68 18 6 C15.81668311 7.76136355 15.81668311 7.76136355 15.8046875 9.9453125 C15.82789062 10.66460937 15.85109375 11.38390625 15.875 12.125 C15.91625 13.40375 15.9575 14.6825 16 16 C16.99 16 17.98 16 19 16 C19 15.34 19 14.68 19 14 C19.66 14 20.32 14 21 14 C20.125 18.875 20.125 18.875 19 20 C16.625 20.25 16.625 20.25 14 20 C13.54625 19.505 13.0925 19.01 12.625 18.5 C10.91592237 16.60131895 10.91592237 16.60131895 7.3125 16.8125 C6.219375 16.874375 5.12625 16.93625 4 17 C4.99 16.67 5.98 16.34 7 16 C5.02 13.03 3.04 10.06 1 7 C-0.65 7.33 -2.3 7.66 -4 8 C-4.33 8.66 -4.66 9.32 -5 10 C-6.5625 8.25 -6.5625 8.25 -8 6 C-7.6875 3.75 -7.6875 3.75 -7 2 C-5.02 2.66 -3.04 3.32 -1 4 C-0.67 2.68 -0.34 1.36 0 0 Z M12 6 C12.33 6.99 12.66 7.98 13 9 C13.66 8.01 14.32 7.02 15 6 C14.01 6 13.02 6 12 6 Z " fill="#BB933D" transform="translate(36,15)"/>
<path d="M0 0 C2.86697492 1.28519565 4.97607712 2.57129254 7 5 C7 5.66 7 6.32 7 7 C7.99 7.33 8.98 7.66 10 8 C10 8.99 10 9.98 10 11 C9.34 11 8.68 11 8 11 C7.9175 11.61875 7.835 12.2375 7.75 12.875 C7 15 7 15 5.1875 16.25 C3 17 3 17 -1 17 C-1 17.66 -1 18.32 -1 19 C-1.66 19 -2.32 19 -3 19 C-3 18.34 -3 17.68 -3 17 C-4.1446875 16.566875 -4.1446875 16.566875 -5.3125 16.125 C-8 15 -8 15 -11 13 C-10.67 11.35 -10.34 9.7 -10 8 C-1.57142857 6.71428571 -1.57142857 6.71428571 3 8 C3 7.34 3 6.68 3 6 C1.68 5.34 0.36 4.68 -1 4 C-0.34 3.67 0.32 3.34 1 3 C0.67 2.01 0.34 1.02 0 0 Z " fill="#DABB62" transform="translate(70,29)"/>
<path d="M0 0 C-1.6037331 0.64690922 -3.20800306 1.29248764 -4.8125 1.9375 C-5.70582031 2.29714844 -6.59914063 2.65679687 -7.51953125 3.02734375 C-9.3270909 3.73613486 -11.15807409 4.3860247 -13 5 C-11.68 5.33 -10.36 5.66 -9 6 C-9.66 6 -10.32 6 -11 6 C-11 6.66 -11 7.32 -11 8 C-11.66 8 -12.32 8 -13 8 C-13 8.99 -13 9.98 -13 11 C-12.01 11 -11.02 11 -10 11 C-11 14 -11 14 -12.625 15.25 C-15.93757421 16.29607607 -18.60326374 15.54590404 -22 15 C-24.26566343 15.43941523 -24.26566343 15.43941523 -26 16 C-27 15 -27 15 -27.1875 12.125 C-27 9 -27 9 -25 6 C-22.375 5.3125 -22.375 5.3125 -20 5 C-21.32 3.68 -22.64 2.36 -24 1 C-23.505 1.165 -23.01 1.33 -22.5 1.5 C-15.97285998 2.805428 -11.06350127 1.98104033 -4.98046875 -0.44140625 C-3 -1 -3 -1 0 0 Z " fill="#DEBD66" transform="translate(77,50)"/>
<path d="M0 0 C1.32 0.66 2.64 1.32 4 2 C3.01 2.495 3.01 2.495 2 3 C2.33 4.32 2.66 5.64 3 7 C5.31 7.33 7.62 7.66 10 8 C10 8.66 10 9.32 10 10 C11.32 10 12.64 10 14 10 C14 10.99 14 11.98 14 13 C11.36 13 8.72 13 6 13 C6.33 13.33 6.66 13.66 7 14 C4.49710313 17.87949015 4.49710313 17.87949015 1.9375 18.5 C-0.21635115 18.81523431 -0.21635115 18.81523431 -1.25 21.0625 C-1.4975 21.701875 -1.745 22.34125 -2 23 C-4.12121284 15.60120961 -3.2409863 8.2502498 -1 1 C-0.67 0.67 -0.34 0.34 0 0 Z " fill="#D7B55A" transform="translate(51,40)"/>
<path d="M0 0 C-0.99 0.495 -0.99 0.495 -2 1 C-1.01 1 -0.02 1 1 1 C3.1875 2 3.1875 2 5 3 C3.02 3.99 3.02 3.99 1 5 C5.79308342 5.46522293 5.79308342 5.46522293 9.9375 3.5 C10.4634375 2.7575 10.4634375 2.7575 11 2 C11.268125 3.11375 11.53625 4.2275 11.8125 5.375 C12.65809019 9.21840951 12.65809019 9.21840951 16 11 C13.54137599 11.05383848 11.0839245 11.09359038 8.625 11.125 C7.57699219 11.15013672 7.57699219 11.15013672 6.5078125 11.17578125 C4.67102514 11.19344267 2.83398037 11.10303261 1 11 C0.34 10.34 -0.32 9.68 -1 9 C-3.32275177 8.59952556 -5.65739357 8.2602896 -8 8 C-9.04187157 4.87438528 -9.23843794 3.95319818 -8 1 C-5.08518252 -1.1107299 -3.34823603 -1.19579858 0 0 Z " fill="#B99954" transform="translate(33,71)"/>
<path d="M0 0 C0.33 1.32 0.66 2.64 1 4 C-4.12105049 6.40238505 -8.87175443 7.75563226 -14.4375 8.6875 C-15.53481445 8.88182617 -15.53481445 8.88182617 -16.65429688 9.08007812 C-18.434877 9.39429815 -20.21726583 9.69824068 -22 10 C-22 10.99 -22 11.98 -22 13 C-24.97 12.67 -27.94 12.34 -31 12 C-30.835 11.2575 -30.67 10.515 -30.5 9.75 C-29.88074304 6.80993422 -29.88074304 6.80993422 -30 3 C-28.35 3 -26.7 3 -25 3 C-25 4.65 -25 6.3 -25 8 C-23.906875 7.525625 -22.81375 7.05125 -21.6875 6.5625 C-16.56523487 4.61291255 -11.43438112 4.28970046 -6 4 C-6 3.34 -6 2.68 -6 2 C-4.02 1.34 -2.04 0.68 0 0 Z " fill="#D7BB74" transform="translate(44,56)"/>
<path d="M0 0 C0.33 0.66 0.66 1.32 1 2 C2.32 2 3.64 2 5 2 C5.33 1.34 5.66 0.68 6 0 C8.53926173 1.82671379 10.9050512 3.66877878 13 6 C13.4375 9.375 13.4375 9.375 13 12 C12.34 12 11.68 12 11 12 C10.773125 12.886875 10.54625 13.77375 10.3125 14.6875 C8.37668467 19.57312917 5.3092041 22.12719727 1 25 C0.34 25.99 -0.32 26.98 -1 28 C-2.32 27.67 -3.64 27.34 -5 27 C-5 25.68 -5 24.36 -5 23 C-5.81984375 23.15597656 -6.6396875 23.31195313 -7.484375 23.47265625 C-9.10085937 23.76462891 -9.10085937 23.76462891 -10.75 24.0625 C-11.81734375 24.25972656 -12.8846875 24.45695312 -13.984375 24.66015625 C-16.77468505 24.97460829 -18.40962039 24.98905403 -21 24 C-22.75 22.4375 -22.75 22.4375 -24 21 C-22.14375 21.309375 -22.14375 21.309375 -20.25 21.625 C-16.88090165 22.06107124 -14.87158079 22.03403639 -12 20 C-12 20.66 -12 21.32 -12 22 C-4.02239448 22.51374487 -4.02239448 22.51374487 3.5625 20.4375 C6.57097645 17.42902355 7.50701575 14.95640827 9 11 C9.66 10.67 10.32 10.34 11 10 C10.67613187 7.47014472 10.67613187 7.47014472 9 5 C6.05880129 3.92998438 3.09415757 3.42656082 0 3 C0 2.01 0 1.02 0 0 Z " fill="#CCA955" transform="translate(79,43)"/>
<path d="M0 0 C0.99 0 1.98 0 3 0 C2.835 1.27875 2.67 2.5575 2.5 3.875 C1.32163218 14.78771064 2.18444546 24.64349481 6 35 C2.9083091 32.47043472 2.09068668 29.77545388 1 26 C-1.64 26.66 -4.28 27.32 -7 28 C-7 28.99 -7 29.98 -7 31 C-8.98 30.67 -10.96 30.34 -13 30 C-9.58983503 27.13546142 -6.09305456 25.65296434 -2 24 C-2 19.71 -2 15.42 -2 11 C-2.99 10.67 -3.98 10.34 -5 10 C-4.34 9.67 -3.68 9.34 -3 9 C-2.09274566 6.88672575 -2.09274566 6.88672575 -1.375 4.4375 C-1.11460938 3.61121094 -0.85421875 2.78492188 -0.5859375 1.93359375 C-0.39257812 1.29550781 -0.19921875 0.65742187 0 0 Z " fill="#A57832" transform="translate(47,40)"/>
<path d="M0 0 C-0.66 2.31 -1.32 4.62 -2 7 C-1.21625 7.2475 -0.4325 7.495 0.375 7.75 C3.33247448 9.15832118 3.92869114 9.98085684 5 13 C5 13.33 5 13.66 5 14 C1.04 13.67 -2.92 13.34 -7 13 C-8.2962963 6.51851852 -8.2962963 6.51851852 -7 3 C-2.96551724 0 -2.96551724 0 0 0 Z " fill="#E1C16C" transform="translate(61,35)"/>
<path d="M0 0 C0 0.66 0 1.32 0 2 C-0.66 2 -1.32 2 -2 2 C-2.0825 2.61875 -2.165 3.2375 -2.25 3.875 C-3 6 -3 6 -4.8125 7.25 C-7 8 -7 8 -11 8 C-11 8.66 -11 9.32 -11 10 C-11.66 10 -12.32 10 -13 10 C-13 9.34 -13 8.68 -13 8 C-13.78375 7.7525 -14.5675 7.505 -15.375 7.25 C-18 6 -18 6 -20 2 C-13.565 1.505 -13.565 1.505 -7 1 C-7 1.66 -7 2.32 -7 3 C-6.34 3 -5.68 3 -5 3 C-5 2.34 -5 1.68 -5 1 C-2 0 -2 0 0 0 Z " fill="#B9913C" transform="translate(80,38)"/>
<path d="M0 0 C0.66 0 1.32 0 2 0 C1.8049455 4.19367185 1.26395274 5.72377039 -1.6875 8.8125 C-5.00929269 11.00613668 -7.07696394 11.71978314 -11 12 C-11.625 9.125 -11.625 9.125 -12 6 C-9.50723437 3.50723437 -7.36270521 2.96077292 -4 2 C-3.01 2 -2.02 2 -1 2 C-0.67 1.34 -0.34 0.68 0 0 Z " fill="#CBA959" transform="translate(86,54)"/>
<path d="M0 0 C1.62752231 0.25523874 3.25203196 0.52974494 4.875 0.8125 C6.23238281 1.03873047 6.23238281 1.03873047 7.6171875 1.26953125 C10 2 10 2 12 5 C14.20725073 5.36362818 14.20725073 5.36362818 16.625 5.1875 C17.44226563 5.16042969 18.25953125 5.13335937 19.1015625 5.10546875 C19.72804688 5.07066406 20.35453125 5.03585938 21 5 C21.33 3.68 21.66 2.36 22 1 C22.33 2.32 22.66 3.64 23 5 C19.9315153 7.97550031 18.53763669 8.96474513 14.1875 9.25 C12.6096875 9.12625 12.6096875 9.12625 11 9 C10.34 7.02 9.68 5.04 9 3 C7.68 3 6.36 3 5 3 C5 3.99 5 4.98 5 6 C2.36 6 -0.28 6 -3 6 C-2.67 5.01 -2.34 4.02 -2 3 C-1.34 2.67 -0.68 2.34 0 2 C0 1.34 0 0.68 0 0 Z " fill="#B09150" transform="translate(53,75)"/>
<path d="M0 0 C0.2475 0.53625 0.495 1.0725 0.75 1.625 C2.7395207 5.40508934 5.08752741 8.89873998 7.8125 12.1875 C8.204375 12.785625 8.59625 13.38375 9 14 C8.67 14.99 8.34 15.98 8 17 C6.68 16.67 5.36 16.34 4 16 C4.99 16 5.98 16 7 16 C5.02 13.03 3.04 10.06 1 7 C-0.65 7.33 -2.3 7.66 -4 8 C-4.33 8.66 -4.66 9.32 -5 10 C-6.5625 8.25 -6.5625 8.25 -8 6 C-7.6875 3.75 -7.6875 3.75 -7 2 C-5.02 2.66 -3.04 3.32 -1 4 C-0.67 2.68 -0.34 1.36 0 0 Z " fill="#B39458" transform="translate(36,15)"/>
<path d="M0 0 C0.45890625 0.40992187 0.9178125 0.81984375 1.390625 1.2421875 C2.00421875 1.78101562 2.6178125 2.31984375 3.25 2.875 C3.85328125 3.40867187 4.4565625 3.94234375 5.078125 4.4921875 C7.01478471 6.01159939 8.69793955 7.12521703 11 8 C11.99 7.67 12.98 7.34 14 7 C18.61289402 8.59354521 21.80411995 10.29277914 25 14 C18.52165173 16.06129263 14.54757164 13.74323778 8.671875 10.73828125 C6.06367859 9.04142832 4.65519945 7.60183749 3 5 C2.01 5.495 2.01 5.495 1 6 C0.67 4.02 0.34 2.04 0 0 Z " fill="#B99855" transform="translate(19,28)"/>
<path d="M0 0 C1.8125 1.3125 1.8125 1.3125 2.5625 3.4375 C2.68625 4.365625 2.68625 4.365625 2.8125 5.3125 C1.1625 5.6425 -0.4875 5.9725 -2.1875 6.3125 C-2.5175 7.3025 -2.8475 8.2925 -3.1875 9.3125 C-4.1775 8.9825 -5.1675 8.6525 -6.1875 8.3125 C-6.1875 7.6525 -6.1875 6.9925 -6.1875 6.3125 C-8.6625 5.3225 -8.6625 5.3225 -11.1875 4.3125 C-10.8575 3.6525 -10.5275 2.9925 -10.1875 2.3125 C-8.8675 2.3125 -7.5475 2.3125 -6.1875 2.3125 C-6.1875 1.6525 -6.1875 0.9925 -6.1875 0.3125 C-3.74242066 -0.56074262 -2.51049678 -0.78901327 0 0 Z " fill="#E8CE8F" transform="translate(88.1875,47.6875)"/>
<path d="M0 0 C1.32 0.99 2.64 1.98 4 3 C3.67 3.66 3.34 4.32 3 5 C2.195625 5.103125 1.39125 5.20625 0.5625 5.3125 C-0.283125 5.539375 -1.12875 5.76625 -2 6 C-3.37466625 8.47636012 -3.37466625 8.47636012 -4 11 C-3.01 11.33 -2.02 11.66 -1 12 C-8.75 13.125 -8.75 13.125 -11 12 C-9.42586583 7.90725115 -6.45897623 4.64043987 -3 2 C-2.01 2 -1.02 2 0 2 C0 1.34 0 0.68 0 0 Z " fill="#DFC174" transform="translate(78,53)"/>
<path d="M0 0 C3.8594026 0.63268895 7.11380411 1.80047444 10.6875 3.375 C16.0364234 5.66171447 21.39059876 7.47354789 27 9 C27 8.34 27 7.68 27 7 C29.31 7 31.62 7 34 7 C34 7.99 34 8.98 34 10 C22.97377638 11.01954807 14.92283531 8.23696286 5 4 C3.33484864 3.32955748 1.66887084 2.6611296 0 2 C0 1.34 0 0.68 0 0 Z " fill="#E9D59F" transform="translate(11,35)"/>
<path d="M0 0 C2.31 0 4.62 0 7 0 C7 0.99 7 1.98 7 3 C-1.80646119 5.70968037 -9.80987806 6.36706108 -19 6 C-18.67 5.34 -18.34 4.68 -18 4 C-12.06 3.67 -6.12 3.34 0 3 C0 2.01 0 1.02 0 0 Z " fill="#E9D398" transform="translate(37,52)"/>
<path d="M0 0 C0.33 0.66 0.66 1.32 1 2 C2.32 2 3.64 2 5 2 C5.33 1.34 5.66 0.68 6 0 C8.53926173 1.82671379 10.9050512 3.66877878 13 6 C13.4375 9.375 13.4375 9.375 13 12 C12.34 12 11.68 12 11 12 C10.731875 12.9075 10.46375 13.815 10.1875 14.75 C9.10423706 17.71471963 8.01640543 19.6169754 6 22 C5.01 21.67 4.02 21.34 3 21 C3.804375 20.0925 4.60875 19.185 5.4375 18.25 C7.46183957 15.84467517 8.42161152 14.1232978 9 11 C9.66 10.67 10.32 10.34 11 10 C10.67613187 7.47014472 10.67613187 7.47014472 9 5 C6.05880129 3.92998438 3.09415757 3.42656082 0 3 C0 2.01 0 1.02 0 0 Z " fill="#A5864D" transform="translate(79,43)"/>
<path d="M0 0 C-1 3 -1 3 -3.21484375 4.3515625 C-4.11332031 4.77179688 -5.01179688 5.19203125 -5.9375 5.625 C-7.28134766 6.26308594 -7.28134766 6.26308594 -8.65234375 6.9140625 C-9.42707031 7.27242188 -10.20179687 7.63078125 -11 8 C-11.99 8.495 -11.99 8.495 -13 9 C-14.99628664 9.3548954 -16.99690671 9.68578929 -19 10 C-20.66804677 10.32635698 -22.33524314 10.65725594 -24 11 C-23.67 10.34 -23.34 9.68 -23 9 C-22.01 9 -21.02 9 -20 9 C-20 8.34 -20 7.68 -20 7 C-11.57142857 3.57142857 -11.57142857 3.57142857 -7 4 C-7 3.34 -7 2.68 -7 2 C-4.35261084 0.5393715 -3.10551666 0 0 0 Z " fill="#C2A661" transform="translate(46,62)"/>
<path d="M0 0 C1.67542976 0.28604898 3.34385343 0.61781233 5 1 C5.33 2.32 5.66 3.64 6 5 C5.01 5.33 4.02 5.66 3 6 C1.79117904 8.00016466 1.79117904 8.00016466 1 10 C-0.98 8.35 -2.96 6.7 -5 5 C-4 3 -4 3 -1 1 C-0.67 0.67 -0.34 0.34 0 0 Z " fill="#E2CC8F" transform="translate(19,74)"/>
<path d="M0 0 C0.66 0.33 1.32 0.66 2 1 C2 1.66 2 2.32 2 3 C2.66 3 3.32 3 4 3 C4.33 4.32 4.66 5.64 5 7 C4.34 7 3.68 7 3 7 C3 7.66 3 8.32 3 9 C2.34 9 1.68 9 1 9 C1 9.66 1 10.32 1 11 C0.01 11 -0.98 11 -2 11 C-2.96891192 5.62694301 -2.96891192 5.62694301 -3 3 C-1.5625 1 -1.5625 1 0 0 Z " fill="#D4B159" transform="translate(54,20)"/>
<path d="M0 0 C0.66 0.99 1.32 1.98 2 3 C5.56769552 3.73606499 5.56769552 3.73606499 9 4 C9.33 4.99 9.66 5.98 10 7 C9.01 7.33 8.02 7.66 7 8 C7 8.66 7 9.32 7 10 C6.01 9.67 5.02 9.34 4 9 C4 8.34 4 7.68 4 7 C2.35 7.33 0.7 7.66 -1 8 C-1.04241723 5.66705225 -1.04092937 3.33297433 -1 1 C-0.67 0.67 -0.34 0.34 0 0 Z " fill="#BC9A56" transform="translate(65,68)"/>
<path d="M0 0 C0.66 0.33 1.32 0.66 2 1 C-0.97 3.97 -3.94 6.94 -7 10 C-8.98 9.34 -10.96 8.68 -13 8 C-12.34 7.67 -11.68 7.34 -11 7 C-11 6.34 -11 5.68 -11 5 C-10.34 5 -9.68 5 -9 5 C-9 4.34 -9 3.68 -9 3 C-7.88625 2.87625 -6.7725 2.7525 -5.625 2.625 C-1.96896323 2.3534187 -1.96896323 2.3534187 0 0 Z " fill="#CEA84F" transform="translate(75,53)"/>
<path d="M0 0 C-0.96099609 0.38091797 -0.96099609 0.38091797 -1.94140625 0.76953125 C-2.80636719 1.11371094 -3.67132813 1.45789062 -4.5625 1.8125 C-5.47902344 2.17472656 -6.39554688 2.53695312 -7.33984375 2.91015625 C-9.48373784 3.78849171 -11.54273224 4.74026923 -13.625 5.75 C-17.73798493 7.27332775 -20.64762198 7.22907253 -25 7 C-25 6.67 -25 6.34 -25 6 C-23.35 5.67 -21.7 5.34 -20 5 C-21.32 3.68 -22.64 2.36 -24 1 C-23.505 1.165 -23.01 1.33 -22.5 1.5 C-15.97285998 2.805428 -11.06350127 1.98104033 -4.98046875 -0.44140625 C-3 -1 -3 -1 0 0 Z " fill="#EAD397" transform="translate(77,50)"/>
<path d="M0 0 C0.639375 0.70125 1.27875 1.4025 1.9375 2.125 C4.95377744 5.16727983 8.41094273 7.3743652 12.01171875 9.66796875 C14 11 14 11 16 13 C15.34 13 14.68 13 14 13 C13.67 13.99 13.34 14.98 13 16 C12.29875 15.278125 11.5975 14.55625 10.875 13.8125 C8.91006927 11.83067874 6.86821544 10.05292847 4.6875 8.3125 C3.800625 7.549375 2.91375 6.78625 2 6 C2 5.34 2 4.68 2 4 C1.01 4.33 0.02 4.66 -1 5 C-0.67 3.35 -0.34 1.7 0 0 Z " fill="#A38249" transform="translate(27,22)"/>
<path d="M0 0 C-1.12589193 3.3776758 -2.31943052 4.71363192 -5 7 C-5.99 7 -6.98 7 -8 7 C-7.67 7.99 -7.34 8.98 -7 10 C-8 11 -8 11 -11.0625 11.0625 C-12.031875 11.041875 -13.00125 11.02125 -14 11 C-13.505 10.38125 -13.01 9.7625 -12.5 9.125 C-10.80777227 7.16119096 -10.80777227 7.16119096 -11 5 C-9.68 5 -8.36 5 -7 5 C-7 4.01 -7 3.02 -7 2 C-4.35261084 0.5393715 -3.10551666 0 0 0 Z " fill="#D6BC7D" transform="translate(47,66)"/>
<path d="M0 0 C0.556875 0.144375 1.11375 0.28875 1.6875 0.4375 C4.11384195 1.02769128 6.54906345 1.523429 9 2 C8.67 4.31 8.34 6.62 8 9 C6.35 9.33 4.7 9.66 3 10 C0 3.375 0 3.375 0 0 Z " fill="#B99B41" transform="translate(54,65)"/>
<path d="M0 0 C2.86697492 1.28519565 4.97607712 2.57129254 7 5 C7 5.66 7 6.32 7 7 C7.99 7.33 8.98 7.66 10 8 C7.8614515 10.1385485 6.86724686 10.42655063 4 11 C4 10.34 4 9.68 4 9 C3.34 8.67 2.68 8.34 2 8 C2.33 7.34 2.66 6.68 3 6 C1.68 5.34 0.36 4.68 -1 4 C-0.34 3.67 0.32 3.34 1 3 C0.67 2.01 0.34 1.02 0 0 Z " fill="#CDB060" transform="translate(70,29)"/>
<path d="M0 0 C1.20628008 2.33214148 2.1654738 4.49642139 3 7 C3.99 7.66 4.98 8.32 6 9 C4.54207116 9.05399736 3.08357288 9.09279177 1.625 9.125 C0.81289063 9.14820312 0.00078125 9.17140625 -0.8359375 9.1953125 C-3 9 -3 9 -5 7 C-4.625 4.875 -4.625 4.875 -4 3 C-3.34 3 -2.68 3 -2 3 C-1.34 2.01 -0.68 1.02 0 0 Z " fill="#AA894B" transform="translate(43,73)"/>
<path d="M0 0 C0 0.66 0 1.32 0 2 C1.32 2 2.64 2 4 2 C4 2.99 4 3.98 4 5 C-4.57142857 5.28571429 -4.57142857 5.28571429 -8 3 C-8 2.34 -8 1.68 -8 1 C-5.29120665 -0.35439668 -2.99066732 -0.06501451 0 0 Z " fill="#C1A345" transform="translate(61,48)"/>
<path d="M0 0 C2.15377564 2.62198774 3.40072174 4.64404172 4 8 C1.69 8.33 -0.62 8.66 -3 9 C-3 8.01 -3 7.02 -3 6 C-3.99 5.67 -4.98 5.34 -6 5 C-5.195625 4.54625 -4.39125 4.0925 -3.5625 3.625 C-0.91143428 2.25274335 -0.91143428 2.25274335 0 0 Z " fill="#C1994C" transform="translate(47,66)"/>
<path d="M0 0 C1.4800841 0.11362262 2.95910074 0.24122908 4.4375 0.375 C5.26121094 0.44460937 6.08492187 0.51421875 6.93359375 0.5859375 C7.95646484 0.79089844 7.95646484 0.79089844 9 1 C9.33 1.66 9.66 2.32 10 3 C9.01 3.33 8.02 3.66 7 4 C7.66 4.33 8.32 4.66 9 5 C8.67 5.99 8.34 6.98 8 8 C6.68 7.67 5.36 7.34 4 7 C4 6.34 4 5.68 4 5 C2.68 4.34 1.36 3.68 0 3 C0 2.01 0 1.02 0 0 Z " fill="#AC8A4A" transform="translate(16,68)"/>
<path d="M0 0 C1.83863505 1.11631414 3.67079723 2.24329627 5.5 3.375 C6.5209375 4.00148438 7.541875 4.62796875 8.59375 5.2734375 C9.3878125 5.84320313 10.181875 6.41296875 11 7 C11 7.66 11 8.32 11 9 C14.465 8.505 14.465 8.505 18 8 C18 8.99 18 9.98 18 11 C12.40999197 11.86000123 9.44319278 9.67788096 5.05078125 6.60546875 C3.20201561 5.15814936 1.53379846 3.77725853 0 2 C0 1.34 0 0.68 0 0 Z " fill="#D7C186" transform="translate(29,23)"/>
<path d="M0 0 C2.31 0 4.62 0 7 0 C7.33 0.66 7.66 1.32 8 2 C7.34 2 6.68 2 6 2 C6 2.66 6 3.32 6 4 C-1.94957992 4.22428282 -9.27111181 3.95403042 -17 2 C-17 1.67 -17 1.34 -17 1 C-11.39 1.33 -5.78 1.66 0 2 C0 1.34 0 0.68 0 0 Z " fill="#B79C64" transform="translate(32,45)"/>
<path d="M0 0 C0.33 1.32 0.66 2.64 1 4 C-3.96993194 6.43425238 -7.34605369 7.34615998 -13 7 C-13 6.67 -13 6.34 -13 6 C-12.071875 5.731875 -11.14375 5.46375 -10.1875 5.1875 C-7.11119161 4.04142433 -6.16669064 3.26517658 -4 1 C-1.8125 0.3125 -1.8125 0.3125 0 0 Z " fill="#EDD9A3" transform="translate(44,56)"/>
<path d="M0 0 C0.99 2.31 1.98 4.62 3 7 C2.34 7 1.68 7 1 7 C0.34 6.34 -0.32 5.68 -1 5 C-2.9931567 4.97624074 -2.9931567 4.97624074 -5.125 5.375 C-6.40375 5.58125 -7.6825 5.7875 -9 6 C-9.66 4.68 -10.32 3.36 -11 2 C-8.03 2.495 -8.03 2.495 -5 3 C-5.33 2.34 -5.66 1.68 -6 1 C-3 0 -3 0 0 0 Z " fill="#A47B39" transform="translate(55,16)"/>
<path d="M0 0 C0.66 0 1.32 0 2 0 C1.38461538 5.53846154 1.38461538 5.53846154 -0.5625 7.875 C-1.2740625 8.431875 -1.2740625 8.431875 -2 9 C-2.99 8.67 -3.98 8.34 -5 8 C-4.67 7.01 -4.34 6.02 -4 5 C-5.65 4.67 -7.3 4.34 -9 4 C-5.77208445 1.8480563 -4.71599191 1.79913557 -1 2 C-0.67 1.34 -0.34 0.68 0 0 Z " fill="#C8A252" transform="translate(86,54)"/>
<path d="M0 0 C0.99 0.33 1.98 0.66 3 1 C3 2.32 3 3.64 3 5 C3.66 5.33 4.32 5.66 5 6 C5 6.66 5 7.32 5 8 C1.7 7.34 -1.6 6.68 -5 6 C-5 5.01 -5 4.02 -5 3 C-4.01 3.33 -3.02 3.66 -2 4 C-2 3.34 -2 2.68 -2 2 C-1.34 2 -0.68 2 0 2 C0 1.34 0 0.68 0 0 Z " fill="#DCC47F" transform="translate(68,29)"/>
<path d="M0 0 C0.66 0.66 1.32 1.32 2 2 C1.01 2.66 0.02 3.32 -1 4 C-1.99 5.485 -1.99 5.485 -3 7 C-4.32 6.67 -5.64 6.34 -7 6 C-7 4.68 -7 3.36 -7 2 C-7.99 1.67 -8.98 1.34 -10 1 C-7.98177083 1.03255208 -5.96354167 1.06510417 -3.9453125 1.09765625 C-1.91814596 1.12649242 -1.91814596 1.12649242 0 0 Z " fill="#BEA267" transform="translate(81,64)"/>
<path d="M0 0 C0.66 0 1.32 0 2 0 C2.33 1.65 2.66 3.3 3 5 C2.34 5 1.68 5 1 5 C0.34 6.98 -0.32 8.96 -1 11 C-2.5 9.75 -2.5 9.75 -4 8 C-4 6.68 -4 5.36 -4 4 C-2.68 3.67 -1.36 3.34 0 3 C0 2.01 0 1.02 0 0 Z " fill="#CFB577" transform="translate(26,18)"/>
<path d="M0 0 C1.9375 0.375 1.9375 0.375 4 1 C4.33 1.66 4.66 2.32 5 3 C6.32 2.34 7.64 1.68 9 1 C8.34 3.97 7.68 6.94 7 10 C6.67 10 6.34 10 6 10 C6 8.35 6 6.7 6 5 C4.35 5.33 2.7 5.66 1 6 C0.67 4.02 0.34 2.04 0 0 Z " fill="#B69859" transform="translate(44,20)"/>
<path d="M0 0 C1.32 0.66 2.64 1.32 4 2 C3.01 2.495 3.01 2.495 2 3 C2.33 4.65 2.66 6.3 3 8 C1.35 8 -0.3 8 -2 8 C-1.125 1.125 -1.125 1.125 0 0 Z " fill="#DBBB65" transform="translate(51,40)"/>
<path d="M0 0 C0.66 0 1.32 0 2 0 C2 1.32 2 2.64 2 4 C-0.31 4.33 -2.62 4.66 -5 5 C-5.66 3.68 -6.32 2.36 -7 1 C-4.69 1.33 -2.38 1.66 0 2 C0 1.34 0 0.68 0 0 Z " fill="#E2CC8C" transform="translate(72,76)"/>
<path d="M0 0 C1.32 0.99 2.64 1.98 4 3 C3.67 3.66 3.34 4.32 3 5 C1.33678518 5.35015049 -0.33034549 5.68197057 -2 6 C-2.99 6.66 -3.98 7.32 -5 8 C-4.67 6.35 -4.34 4.7 -4 3 C-2.68 2.67 -1.36 2.34 0 2 C0 1.34 0 0.68 0 0 Z " fill="#E1C585" transform="translate(78,53)"/>
<path d="M0 0 C0.33 0.66 0.66 1.32 1 2 C1.66 2 2.32 2 3 2 C3.33 1.34 3.66 0.68 4 0 C4.99 0.66 5.98 1.32 7 2 C6.01 2 5.02 2 4 2 C4 2.99 4 3.98 4 5 C2.35 5.33 0.7 5.66 -1 6 C-1 5.34 -1 4.68 -1 4 C-2.32 3.67 -3.64 3.34 -5 3 C-4.360625 2.690625 -3.72125 2.38125 -3.0625 2.0625 C-1.06389179 1.1654837 -1.06389179 1.1654837 0 0 Z " fill="#D7B355" transform="translate(66,46)"/>
<path d="M0 0 C3.34249629 0.59687434 5.46436342 1.73603877 8 4 C8 4.66 8 5.32 8 6 C10.31 6.66 12.62 7.32 15 8 C12.53953904 8.89721507 11.42208342 9.17742086 8.96484375 8.14453125 C2.1876826 3.69171439 2.1876826 3.69171439 0 0 Z " fill="#D6C086" transform="translate(22,30)"/>
<path d="M0 0 C0.66 1.32 1.32 2.64 2 4 C-1.0684847 6.97550031 -2.46236331 7.96474513 -6.8125 8.25 C-7.864375 8.1675 -8.91625 8.085 -10 8 C-6.79663178 5.16625119 -4.21912747 4.4794463 0 4 C0 2.68 0 1.36 0 0 Z " fill="#B09251" transform="translate(74,76)"/>
<path d="M0 0 C1.67542976 0.28604898 3.34385343 0.61781233 5 1 C5 1.66 5 2.32 5 3 C6.65 2.67 8.3 2.34 10 2 C10 2.66 10 3.32 10 4 C8.68 4 7.36 4 6 4 C6.66 5.32 7.32 6.64 8 8 C4.83884224 6.63016497 4.0072908 6.0109362 2 3 C1.01 2.34 0.02 1.68 -1 1 C-0.67 0.67 -0.34 0.34 0 0 Z " fill="#D3B259" transform="translate(59,73)"/>
<path d="M0 0 C-1 3 -1 3 -2.92578125 4.203125 C-3.71339844 4.54859375 -4.50101563 4.8940625 -5.3125 5.25 C-6.09238281 5.60578125 -6.87226562 5.9615625 -7.67578125 6.328125 C-10.24607227 7.0711335 -11.51383429 6.88750996 -14 6 C-11.69 5.34 -9.38 4.68 -7 4 C-7 3.34 -7 2.68 -7 2 C-4.35261084 0.5393715 -3.10551666 0 0 0 Z " fill="#E7D195" transform="translate(46,62)"/>
<path d="M0 0 C0.99 0 1.98 0 3 0 C1.94124926 3.40312738 0.99097846 6.01353231 -1 9 C-1.66 9 -2.32 9 -3 9 C-2.5020163 5.26512223 -2.12508244 3.18762365 0 0 Z " fill="#A87D33" transform="translate(61,26)"/>
<path d="M0 0 C1.32 0 2.64 0 4 0 C4.12375 0.61875 4.2475 1.2375 4.375 1.875 C4.87197356 4.19120832 4.87197356 4.19120832 7 6 C4.69 6 2.38 6 0 6 C-1 3 -1 3 0 0 Z " fill="#C9AE70" transform="translate(25,73)"/>
<path d="M0 0 C-0.99 0.495 -0.99 0.495 -2 1 C-2 1.66 -2 2.32 -2 3 C-1.34 3.33 -0.68 3.66 0 4 C-0.99 5.485 -0.99 5.485 -2 7 C-3.32 6.34 -4.64 5.68 -6 5 C-5.34 4.67 -4.68 4.34 -4 4 C-4 3.34 -4 2.68 -4 2 C-5.32 1.67 -6.64 1.34 -8 1 C-4.93251126 -0.86240388 -3.40254489 -1.2151946 0 0 Z " fill="#B28D49" transform="translate(33,71)"/>
<path d="M0 0 C0.33 0.99 0.66 1.98 1 3 C0.34 3.66 -0.32 4.32 -1 5 C-0.67 5.66 -0.34 6.32 0 7 C-2.31 7.66 -4.62 8.32 -7 9 C-7 7.35 -7 5.7 -7 4 C-4.69 3.34 -2.38 2.68 0 2 C0 1.34 0 0.68 0 0 Z " fill="#E1BE70" transform="translate(77,42)"/>
<path d="M0 0 C0.33 0.99 0.66 1.98 1 3 C0.01 3.33 -0.98 3.66 -2 4 C-2 3.34 -2 2.68 -2 2 C-3.9490625 2.185625 -3.9490625 2.185625 -5.9375 2.375 C-6.66839844 2.44460937 -7.39929688 2.51421875 -8.15234375 2.5859375 C-8.76207031 2.72257812 -9.37179688 2.85921875 -10 3 C-10.33 3.66 -10.66 4.32 -11 5 C-11.66 3.68 -12.32 2.36 -13 1 C-11.20843648 0.83222817 -9.4167455 0.66581706 -7.625 0.5 C-6.62726563 0.4071875 -5.62953125 0.314375 -4.6015625 0.21875 C-2 0 -2 0 0 0 Z " fill="#C9A645" transform="translate(73,39)"/>
<path d="M0 0 C2 0.6875 2 0.6875 4 2.6875 C3.625 4.8125 3.625 4.8125 3 6.6875 C3 5.6975 3 4.7075 3 3.6875 C-1.14093698 3.47779441 -1.14093698 3.47779441 -5 4.6875 C-4.625 2.75 -4.625 2.75 -4 0.6875 C-2 -0.3125 -2 -0.3125 0 0 Z " fill="#C4A769" transform="translate(13,38.3125)"/>
<path d="M0 0 C0.99 0 1.98 0 3 0 C3 0.99 3 1.98 3 3 C3.66 3 4.32 3 5 3 C5 4.32 5 5.64 5 7 C4.01 6.67 3.02 6.34 2 6 C1.67 5.34 1.34 4.68 1 4 C-0.65 4.33 -2.3 4.66 -4 5 C-3.525625 4.54625 -3.05125 4.0925 -2.5625 3.625 C-0.90972192 2.06741796 -0.90972192 2.06741796 0 0 Z " fill="#A48045" transform="translate(62,19)"/>
<path d="M0 0 C1.98 0.66 3.96 1.32 6 2 C5.2884375 2.6496875 5.2884375 2.6496875 4.5625 3.3125 C2.76313043 5.02309613 2.76313043 5.02309613 2 8 C0.4375 6.25 0.4375 6.25 -1 4 C-0.6875 1.75 -0.6875 1.75 0 0 Z " fill="#B18C46" transform="translate(29,17)"/>
<path d="M0 0 C2.1875 0.3125 2.1875 0.3125 4 1 C2.68 2.32 1.36 3.64 0 5 C0.66 5.66 1.32 6.32 2 7 C0.0625 6.6875 0.0625 6.6875 -2 6 C-2.33 5.01 -2.66 4.02 -3 3 C-1.75 1.4375 -1.75 1.4375 0 0 Z " fill="#DCBC74" transform="translate(47,74)"/>
<path d="M0 0 C1.32 1.32 2.64 2.64 4 4 C3.34 5.32 2.68 6.64 2 8 C1.01 8 0.02 8 -1 8 C-1.04241723 5.66705225 -1.04092937 3.33297433 -1 1 C-0.67 0.67 -0.34 0.34 0 0 Z " fill="#BB903C" transform="translate(65,68)"/>
<path d="M0 0 C0.66 0 1.32 0 2 0 C2 0.66 2 1.32 2 2 C2.86625 2.37125 2.86625 2.37125 3.75 2.75 C6.3002997 4.16683317 8.01785701 5.87627537 10 8 C9.67 8.66 9.34 9.32 9 10 C4.50486731 8.50162244 2.37078067 4.87680938 0 1 C0 0.67 0 0.34 0 0 Z " fill="#CDB271" transform="translate(38,20)"/>
<path d="M0 0 C1.65 0.33 3.3 0.66 5 1 C4.01 2.485 4.01 2.485 3 4 C3.33 4.66 3.66 5.32 4 6 C2.35 6.33 0.7 6.66 -1 7 C-0.67 4.69 -0.34 2.38 0 0 Z " fill="#D9BC76" transform="translate(11,49)"/>
<path d="M0 0 C0.7425 0.0825 1.485 0.165 2.25 0.25 C1.92 1.57 1.59 2.89 1.25 4.25 C-1.39 4.25 -4.03 4.25 -6.75 4.25 C-3.42692308 0.31153846 -3.42692308 0.31153846 0 0 Z " fill="#E8CF8B" transform="translate(44.75,35.75)"/>
<path d="M0 0 C0.99 0 1.98 0 3 0 C3.33 2.64 3.66 5.28 4 8 C3.01 8 2.02 8 1 8 C0.67 5.36 0.34 2.72 0 0 Z " fill="#E1C887" transform="translate(51,23)"/>
<path d="M0 0 C0.99 0.33 1.98 0.66 3 1 C2.67 1.99 2.34 2.98 2 4 C2.66 4.33 3.32 4.66 4 5 C3.01 5.495 3.01 5.495 2 6 C2.33 6.99 2.66 7.98 3 9 C2.34 9 1.68 9 1 9 C-1.14809171 5.77786243 -1.29386153 4.72224599 -1 1 C-0.67 0.67 -0.34 0.34 0 0 Z " fill="#B18E49" transform="translate(21,21)"/>
<path d="M0 0 C0.33 0 0.66 0 1 0 C1.33 2.31 1.66 4.62 2 7 C3.65 7.33 5.3 7.66 7 8 C6.38125 8.2475 5.7625 8.495 5.125 8.75 C2.64931313 10.20628639 2.04874998 11.37812506 1 14 C0.06380187 10.84493858 -0.1057123 8.03413498 -0.0625 4.75 C-0.05347656 3.85796875 -0.04445312 2.9659375 -0.03515625 2.046875 C-0.02355469 1.37140625 -0.01195312 0.6959375 0 0 Z " fill="#D0AA54" transform="translate(48,49)"/>
<path d="M0 0 C-0.66 0 -1.32 0 -2 0 C-2 0.66 -2 1.32 -2 2 C-5.3125 3.125 -5.3125 3.125 -9 4 C-9.99 3.34 -10.98 2.68 -12 2 C-10.75579353 1.4654744 -9.50429064 0.94791389 -8.25 0.4375 C-7.55390625 0.14746094 -6.8578125 -0.14257812 -6.140625 -0.44140625 C-3.69987216 -1.07831803 -2.3596345 -0.80248831 0 0 Z " fill="#E2C271" transform="translate(68,56)"/>
<path d="M0 0 C1.12894876 0.93274109 2.25300876 1.87140122 3.375 2.8125 C4.00148438 3.33457031 4.62796875 3.85664063 5.2734375 4.39453125 C7 6 7 6 9 9 C7.125 8.6875 7.125 8.6875 5 8 C4.34 7.01 3.68 6.02 3 5 C2.01 5.495 2.01 5.495 1 6 C0.67 4.02 0.34 2.04 0 0 Z " fill="#A7854C" transform="translate(19,28)"/>
<path d="M0 0 C1.33332095 2.6666419 0.67102033 4.16680303 0 7 C-1.65 7.33 -3.3 7.66 -5 8 C-3.375 2.25 -3.375 2.25 0 0 Z " fill="#B78E3B" transform="translate(62,67)"/>
<path d="M0 0 C-2.71182212 2.60334924 -3.89133813 2.99456691 -7.75 3.1875 C-8.8225 3.125625 -9.895 3.06375 -11 3 C-10.67 2.01 -10.34 1.02 -10 0 C-2.25 -1.125 -2.25 -1.125 0 0 Z " fill="#D2BB83" transform="translate(37,61)"/>
<path d="M0 0 C2.00720923 0.28674418 4.0085944 0.61866701 6 1 C6 2.32 6 3.64 6 5 C3.03 4.505 3.03 4.505 0 4 C-0.33 3.01 -0.66 2.02 -1 1 C-0.67 0.67 -0.34 0.34 0 0 Z " fill="#A97F39" transform="translate(10,41)"/>
<path d="M0 0 C4 6 4 6 3.625 8.1875 C3.41875 8.785625 3.2125 9.38375 3 10 C-1.06153846 4.58461538 -1.06153846 4.58461538 -0.75 1.625 C-0.5025 1.08875 -0.255 0.5525 0 0 Z " fill="#CAA446" transform="translate(53,65)"/>
<path d="M0 0 C2.16874252 0.50603992 3.99967627 0.99983813 6 2 C6 2.66 6 3.32 6 4 C4.35 4.33 2.7 4.66 1 5 C0.67 3.35 0.34 1.7 0 0 Z " fill="#DDBF6B" transform="translate(49,52)"/>
<path d="M0 0 C2.97 0.495 2.97 0.495 6 1 C5.67 1.99 5.34 2.98 5 4 C4.01 4.33 3.02 4.66 2 5 C1.34 4.34 0.68 3.68 0 3 C0 2.01 0 1.02 0 0 Z " fill="#B69751" transform="translate(16,68)"/>
<path d="M0 0 C0.99 0 1.98 0 3 0 C2.67 2.31 2.34 4.62 2 7 C0.68 6.67 -0.64 6.34 -2 6 C-2 5.34 -2 4.68 -2 4 C-1.34 3.67 -0.68 3.34 0 3 C0 2.01 0 1.02 0 0 Z " fill="#B99241" transform="translate(47,25)"/>
<path d="M0 0 C1.98 0 3.96 0 6 0 C5.67 0.99 5.34 1.98 5 3 C4.34 3 3.68 3 3 3 C3 3.66 3 4.32 3 5 C2.34 5 1.68 5 1 5 C0.67 3.35 0.34 1.7 0 0 Z " fill="#D1B777" transform="translate(49,12)"/>
<path d="M0 0 C0.0825 0.598125 0.165 1.19625 0.25 1.8125 C1.20455872 4.5966296 2.57132271 5.43311142 5 7 C3.02 7 1.04 7 -1 7 C-1.625 5.1875 -1.625 5.1875 -2 3 C-1.34 2.01 -0.68 1.02 0 0 Z " fill="#A07939" transform="translate(44,75)"/>
<path d="M0 0 C1.32 0.99 2.64 1.98 4 3 C3.67 3.66 3.34 4.32 3 5 C-0.0625 5.625 -0.0625 5.625 -3 6 C-2.67 5.01 -2.34 4.02 -2 3 C-1.34 2.67 -0.68 2.34 0 2 C0 1.34 0 0.68 0 0 Z " fill="#997236" transform="translate(53,75)"/>
<path d="M0 0 C2.31 0 4.62 0 7 0 C7.33 0.66 7.66 1.32 8 2 C7.34 2 6.68 2 6 2 C6 2.66 6 3.32 6 4 C5.34 4 4.68 4 4 4 C4 3.34 4 2.68 4 2 C2.68 2 1.36 2 0 2 C0 1.34 0 0.68 0 0 Z " fill="#BA974E" transform="translate(32,45)"/>
<path d="M0 0 C2.03144641 0.93446535 4.03533587 1.93224776 6 3 C5.01 3.495 5.01 3.495 4 4 C3.67 4.99 3.34 5.98 3 7 C1.35 5.02 -0.3 3.04 -2 1 C-1.34 0.67 -0.68 0.34 0 0 Z " fill="#B59451" transform="translate(37,31)"/>
<path d="M0 0 C0.33 2.31 0.66 4.62 1 7 C0.01 7.33 -0.98 7.66 -2 8 C-2.33 5.69 -2.66 3.38 -3 1 C-1 0 -1 0 0 0 Z " fill="#AA8033" transform="translate(52,27)"/>
<path d="M0 0 C0 3 0 3 -1 6 C-2.9375 5.625 -2.9375 5.625 -5 5 C-5.33 4.34 -5.66 3.68 -6 3 C-4.02 2.01 -2.04 1.02 0 0 Z " fill="#CEB77B" transform="translate(36,13)"/>
<path d="M0 0 C-0.99 1.485 -0.99 1.485 -2 3 C-4.625 3.1875 -4.625 3.1875 -7 3 C-7.33 2.34 -7.66 1.68 -8 1 C-2.25 -1.125 -2.25 -1.125 0 0 Z " fill="#E4CC8E" transform="translate(84,59)"/>
<path d="M0 0 C0.99 0 1.98 0 3 0 C4.6875 2 4.6875 2 6 4 C5.01 4.33 4.02 4.66 3 5 C1.68 3.68 0.36 2.36 -1 1 C-0.67 0.67 -0.34 0.34 0 0 Z " fill="#D0AB59" transform="translate(85,49)"/>
<path d="M0 0 C0.66 0 1.32 0 2 0 C2 0.66 2 1.32 2 2 C3.32 2.66 4.64 3.32 6 4 C5.34 4.66 4.68 5.32 4 6 C3.01 6 2.02 6 1 6 C0.67 4.02 0.34 2.04 0 0 Z " fill="#CAAF72" transform="translate(58,14)"/>
<path d="M0 0 C1.65 0 3.3 0 5 0 C5 0.99 5 1.98 5 3 C3.02 3.33 1.04 3.66 -1 4 C-0.67 2.68 -0.34 1.36 0 0 Z " fill="#DDBC6E" transform="translate(39,45)"/>
<path d="M0 0 C0 0.33 0 0.66 0 1 C-7.625 2.25 -7.625 2.25 -11 0 C-7.18243176 -1.37432457 -3.92744671 -0.67975039 0 0 Z " fill="#D4B351" transform="translate(71,39)"/>
<path d="M0 0 C2.86697492 1.28519565 4.97607712 2.57129254 7 5 C7 5.66 7 6.32 7 7 C3.17053157 5.54744301 1.87949705 3.57104439 0 0 Z " fill="#AC9355" transform="translate(70,29)"/>
<path d="M0 0 C1.32 0.33 2.64 0.66 4 1 C4 1.99 4 2.98 4 4 C4.66 4.66 5.32 5.32 6 6 C4.68 5.67 3.36 5.34 2 5 C2 4.34 2 3.68 2 3 C1.34 3 0.68 3 0 3 C0 2.01 0 1.02 0 0 Z " fill="#C9A256" transform="translate(46,14)"/>
<path d="M0 0 C0.66 0.66 1.32 1.32 2 2 C1.01 2.33 0.02 2.66 -1 3 C-0.67 2.01 -0.34 1.02 0 0 Z " fill="#E4CE91" transform="translate(66,9)"/>
<path d="M0 0 C0.99 0.495 0.99 0.495 2 1 C1.01 1.495 1.01 1.495 0 2 C0 1.34 0 0.68 0 0 Z " fill="#E4CE91" transform="translate(25,84)"/>
<path d="M0 0 C0.66 0 1.32 0 2 0 C1.67 0.66 1.34 1.32 1 2 C0.67 1.34 0.34 0.68 0 0 Z " fill="#E4CE91" transform="translate(58,9)"/>
<path d="M0 0 C2 1 2 1 2 1 Z " fill="#E4CE91" transform="translate(8,87)"/>
<path d="M0 0 C2 1 2 1 2 1 Z " fill="#E4CE91" transform="translate(8,85)"/>
<path d="M0 0 C2 1 2 1 2 1 Z " fill="#E4CE91" transform="translate(6,84)"/>
<path d="M0 0 C2 1 2 1 2 1 Z " fill="#E4CE91" transform="translate(82,78)"/>
<path d="" fill="#E4CE91" transform="translate(0,0)"/>
<path d="" fill="#E4CE91" transform="translate(0,0)"/>
<path d="" fill="#E4CE91" transform="translate(0,0)"/>
<path d="" fill="#E4CE91" transform="translate(0,0)"/>
<path d="" fill="#E4CE91" transform="translate(0,0)"/>
<path d="" fill="#E4CE91" transform="translate(0,0)"/>
<path d="" fill="#E4CE91" transform="translate(0,0)"/>
<path d="" fill="#E4CE91" transform="translate(0,0)"/>
<path d="" fill="#E4CE91" transform="translate(0,0)"/>
<path d="" fill="#E4CE91" transform="translate(0,0)"/>
<path d="" fill="#E4CE91" transform="translate(0,0)"/>
<path d="" fill="#E4CE91" transform="translate(0,0)"/>
<path d="" fill="#E4CE91" transform="translate(0,0)"/>
<path d="" fill="#E4CE91" transform="translate(0,0)"/>
<path d="" fill="#E4CE91" transform="translate(0,0)"/>
<path d="" fill="#E4CE91" transform="translate(0,0)"/>
<path d="" fill="#E4CE91" transform="translate(0,0)"/>
<path d="" fill="#E4CE91" transform="translate(0,0)"/>
<path d="" fill="#E4CE91" transform="translate(0,0)"/>
<path d="" fill="#E4CE91" transform="translate(0,0)"/>
<path d="" fill="#E4CE91" transform="translate(0,0)"/>
<path d="" fill="#E4CE91" transform="translate(0,0)"/>
<path d="" fill="#E4CE91" transform="translate(0,0)"/>
<path d="" fill="#E4CE91" transform="translate(0,0)"/>
<path d="" fill="#E4CE91" transform="translate(0,0)"/>
<path d="" fill="#E4CE91" transform="translate(0,0)"/>
<path d="" fill="#E4CE91" transform="translate(0,0)"/>
<path d="" fill="#E4CE91" transform="translate(0,0)"/>
<path d="" fill="#E4CE91" transform="translate(0,0)"/>
<path d="" fill="#E4CE91" transform="translate(0,0)"/>
<path d="" fill="#E4CE91" transform="translate(0,0)"/>
<path d="" fill="#E4CE91" transform="translate(0,0)"/>
<path d="" fill="#E4CE91" transform="translate(0,0)"/>
<path d="" fill="#E4CE91" transform="translate(0,0)"/>
<path d="" fill="#E4CE91" transform="translate(0,0)"/>
<path d="" fill="#E4CE91" transform="translate(0,0)"/>
<path d="" fill="#E4CE91" transform="translate(0,0)"/>
<path d="" fill="#E4CE91" transform="translate(0,0)"/>
</svg>
