<svg width="40" height="40" viewBox="0 0 40 40" fill="none" xmlns="http://www.w3.org/2000/svg">
<path d="M0.399902 7.50039C0.399902 3.60039 3.5999 0.400391 7.4999 0.400391H32.4999C36.3999 0.400391 39.5999 3.60039 39.5999 7.50039V32.5004C39.5999 36.4004 36.3999 39.6004 32.4999 39.6004H7.4999C3.5999 39.6004 0.399902 36.4004 0.399902 32.5004C0.399902 32.5004 0.399902 7.50039 0.399902 7.50039Z" fill="#072DA0"/>
<path fill-rule="evenodd" clip-rule="evenodd" d="M7.5 40H32.6C36.7 40 40 36.7 40 32.5V7.5C40 3.3 36.7 0 32.5 0H7.5C3.3 0 0 3.3 0 7.5V32.5C0 36.7 3.3 40 7.5 40ZM0.8 7.5C0.8 3.8 3.8 0.8 7.5 0.8H32.5C36.2 0.8 39.2 3.8 39.2 7.5V32.5C39.2 36.2 36.2 39.2 32.5 39.2H7.5C3.8 39.2 0.8 36.2 0.8 32.5V7.5ZM14 10H10V18H14V22H10V30H14V26H18V30H22V26H26V30H30V26H26V22H30V14H26V10H18V14H14V10ZM22 22V26H18V22H22ZM22 18H26V22H22V18ZM22 18V14H18V18H22Z" fill="white"/>
</svg>
