<svg width="40" height="40" viewBox="0 0 40 40" fill="none" xmlns="http://www.w3.org/2000/svg">
<path fill-rule="evenodd" clip-rule="evenodd" d="M10.75 11.1893H8V23.6845H10.25V14.0291L14.5 20.2767L18.75 14.0291V23.6845H21V11.1893H18.1875L14.5 16.7427L10.75 11.1893ZM28.625 11C24.875 11 23.125 12.5777 23.125 17.4369V17.5631C23.125 22.5485 24.9375 24 28.625 24C29.8125 24 31.1875 23.7476 32 23.5583V21.4126C31.8928 21.4487 31.8082 21.4871 31.7235 21.5256C31.3637 21.689 30.9996 21.8544 28.875 21.8544C26.25 21.8544 25.375 20.9078 25.375 17.5C25.375 14.0922 26.25 13.1456 28.875 13.1456C30.3125 13.1456 31.4375 13.3981 32 13.5874V11.4417C31.2471 11 30.9102 11 28.625 11Z" fill="black"/>
<rect y="27.5" width="40" height="12.5" fill="#F80000"/>
</svg>
