<svg version="1.1" id="Layer_1" xmlns="http://www.w3.org/2000/svg" xmlns:xlink="http://www.w3.org/1999/xlink" x="0px" y="0px"
	 width="100%" viewBox="0 0 200 200" enable-background="new 0 0 200 200" xml:space="preserve">
<path fill="#FEFEFD" opacity="1.000000" stroke="none" 
	d="
M119.000000,201.000000 
	C79.357826,201.000000 40.215649,201.000000 1.036737,201.000000 
	C1.036737,134.399536 1.036737,67.799034 1.036737,1.099268 
	C67.558670,1.099268 134.117538,1.099268 200.838196,1.099268 
	C200.838196,67.666351 200.838196,134.333145 200.838196,201.000000 
	C173.799316,201.000000 146.649658,201.000000 119.000000,201.000000 
M103.453453,29.037703 
	C103.349586,29.346905 103.245728,29.656105 102.947388,30.613350 
	C102.860054,31.280634 102.772713,31.947918 102.221046,33.263119 
	C102.089333,37.183823 101.957619,41.104530 101.801765,45.801174 
	C102.530029,50.599483 104.784157,54.432991 109.614662,55.771282 
	C114.787498,57.204418 118.578384,54.322544 121.718597,50.610943 
	C122.763786,49.375561 123.357338,47.758080 124.670998,45.779842 
	C125.529343,42.182312 126.387695,38.584782 127.566376,34.286865 
	C127.327454,32.522060 127.088539,30.757254 126.904549,28.257950 
	C126.307800,26.944803 125.677689,25.645651 125.120110,24.316078 
	C122.784180,18.745859 117.248672,16.279936 112.283905,19.600279 
	C108.916054,21.852633 106.635490,25.730762 103.914169,28.937773 
	C103.914169,28.937773 103.944138,28.872917 103.453453,29.037703 
M141.037399,169.079163 
	C141.308197,168.387787 141.578995,167.696411 142.270859,166.501709 
	C142.466431,165.670334 142.662018,164.838974 143.266632,163.327393 
	C142.822311,159.559433 142.377991,155.791489 141.881439,151.333588 
	C134.015244,137.319992 117.097046,136.185379 108.047272,149.650253 
	C105.778709,154.218643 103.293762,158.758209 106.095367,164.661194 
	C106.448181,165.442368 106.801003,166.223557 107.159561,167.576263 
	C107.571709,168.195755 107.983864,168.815262 108.422501,169.464722 
	C108.422501,169.464722 108.385010,169.488937 108.655312,170.127548 
	C116.159904,181.850800 131.668442,181.541840 140.570511,169.465958 
	C140.570511,169.465958 140.597733,169.436844 141.037399,169.079163 
M98.889572,172.143250 
	C99.366623,170.464951 99.843674,168.786636 100.931335,166.802261 
	C101.262711,164.202240 101.594078,161.602219 102.096535,158.164215 
	C101.943031,155.714142 101.789528,153.264069 101.593498,150.067505 
	C96.894440,140.214630 88.466309,139.661301 81.310074,149.159271 
	C80.170815,151.755615 79.031548,154.351944 77.408035,157.476715 
	C77.174591,160.312790 76.941147,163.148849 76.522438,166.742142 
	C76.685104,167.494888 76.847771,168.247635 76.915756,169.762970 
	C77.945145,174.522141 80.100266,178.637192 85.112015,179.874924 
	C89.906128,181.058884 93.759506,178.917847 96.577438,174.922638 
	C97.126480,174.144226 97.731804,173.405518 98.889572,172.143250 
M64.458000,27.222687 
	C64.225792,27.698299 63.993591,28.173910 63.200470,29.102428 
	C62.427879,31.404791 61.655289,33.707153 60.671665,36.870628 
	C61.080975,39.916149 61.490288,42.961674 61.976608,46.716141 
	C65.772301,54.837463 72.173531,58.568539 81.094543,58.122528 
	C88.321327,57.761223 94.412704,53.163364 97.462799,45.401535 
	C97.704834,42.606335 97.946861,39.811131 98.193886,36.237881 
	C97.476830,34.154037 96.759773,32.070194 95.950027,29.366629 
	C95.039688,28.545250 94.129349,27.723871 93.053543,26.217327 
	C86.763840,16.950308 70.326721,18.361734 64.458000,27.222687 
M39.057442,59.042614 
	C37.299427,60.841019 35.541416,62.639427 33.180832,64.774155 
	C31.034607,66.955803 28.888380,69.137459 26.132210,71.665886 
	C21.136732,76.532921 15.933087,81.209938 11.239192,86.352249 
	C9.096937,88.699165 7.265001,91.792969 6.513340,94.848404 
	C4.980014,101.081230 9.588168,106.564903 15.957727,106.092186 
	C20.259441,105.772949 24.472359,104.257210 28.842150,103.249657 
	C28.814312,103.099091 28.993433,104.067917 29.038517,105.843300 
	C29.582756,108.948402 30.126997,112.053513 30.779970,115.937515 
	C32.836205,121.297997 34.892441,126.658485 37.002407,132.724640 
	C38.795994,135.532990 40.589581,138.341354 42.673260,141.810791 
	C45.027149,144.737000 47.381039,147.663208 49.808399,150.680740 
	C53.766678,146.795471 57.274040,143.352783 61.378925,139.614517 
	C63.173466,137.717712 64.968010,135.820923 67.358765,133.603760 
	C70.216537,130.662659 73.074303,127.721550 76.468956,124.510338 
	C76.367035,123.859932 76.265114,123.209534 75.908562,121.961357 
	C73.895561,118.972656 71.882568,115.983955 69.790642,112.267220 
	C68.886749,109.832947 67.982864,107.398666 67.261497,104.321045 
	C68.468529,104.613319 69.675552,104.905586 71.327644,105.749458 
	C76.099358,108.361168 80.787186,109.187874 85.690285,104.941078 
	C85.964645,104.724815 86.076797,104.443817 86.569489,103.779709 
	C87.012161,102.859497 87.454834,101.939278 88.357010,100.379692 
	C89.888954,95.576820 88.376991,91.413887 85.148987,87.987053 
	C80.029541,82.552292 74.618828,77.391907 69.090233,71.567848 
	C66.865395,69.400368 64.640564,67.232880 62.165077,64.521477 
	C59.891144,62.396008 57.617210,60.270538 54.921963,57.597507 
	C49.037159,54.560795 44.266834,54.941013 39.057442,59.042614 
M134.880585,87.743004 
	C135.334579,89.166031 135.788559,90.589066 136.158905,92.734955 
	C135.911301,96.785660 134.187500,93.744995 133.307922,93.225082 
	C125.709579,88.733727 118.729485,90.608383 115.510185,98.545280 
	C115.562721,100.370964 115.615257,102.196648 115.693451,104.773254 
	C118.672966,108.563278 121.652489,112.353302 124.919022,116.766685 
	C132.115097,124.151985 139.208740,131.640915 146.540588,138.888855 
	C152.118225,144.402649 159.339005,144.751816 164.879074,139.546036 
	C172.501801,132.383240 179.754730,124.826889 187.779999,117.120651 
	C191.353210,113.101753 196.848694,110.431732 197.145157,103.218292 
	C196.752167,101.480148 196.359161,99.742004 196.135468,97.273727 
	C192.348343,89.609230 183.245560,89.299149 176.235077,96.739540 
	C175.854340,96.767914 175.473587,96.796280 175.120697,96.000748 
	C174.779205,93.649605 174.437714,91.298454 174.183609,88.292709 
	C174.098938,87.863335 174.014267,87.433952 173.979782,86.234993 
	C172.727356,82.968132 171.474930,79.701271 170.216690,75.672852 
	C169.181976,72.708176 168.147278,69.743500 166.954178,66.104729 
	C162.910721,59.933064 158.867279,53.761398 155.208008,48.176117 
	C147.585876,55.279705 140.795715,61.607914 133.395416,68.225914 
	C131.188583,70.346825 128.981750,72.467743 126.556122,74.798927 
	C128.153336,76.539307 129.342804,77.835388 130.815918,79.794403 
	C132.158875,82.191864 133.501816,84.589325 134.880585,87.743004 
M57.533661,161.694977 
	C69.673279,158.424316 77.282417,149.937698 82.896912,139.328659 
	C83.616020,137.969864 83.702034,134.983566 82.896561,134.407333 
	C81.625099,133.497742 79.053833,133.327194 77.547287,133.998550 
	C67.604836,138.429199 60.207211,145.711319 55.600605,155.540802 
	C54.907246,157.020264 56.332970,159.492828 57.533661,161.694977 
M141.183090,38.452564 
	C132.738159,43.159321 125.838242,49.464733 121.558815,58.231205 
	C120.732491,59.923939 121.111168,62.204895 120.933983,64.214500 
	C123.110580,64.209969 125.625626,64.921707 127.406685,64.080109 
	C136.342514,59.857655 143.206604,53.222836 147.709045,44.415115 
	C148.632614,42.608425 148.190628,40.103676 148.378067,37.920692 
	C146.209076,37.983208 144.040070,38.045723 141.183090,38.452564 
z"/>
<path fill="#71706F" opacity="1.000000" stroke="none" 
	d="
M70.882584,105.197861 
	C69.675552,104.905586 68.468529,104.613319 66.696350,104.638046 
	C53.811649,104.982269 41.492100,105.009506 29.172554,105.036743 
	C28.993433,104.067917 28.814312,103.099091 28.842150,103.249657 
	C24.472359,104.257210 20.259441,105.772949 15.957727,106.092186 
	C9.588168,106.564903 4.980014,101.081230 6.513340,94.848404 
	C7.265001,91.792969 9.096937,88.699165 11.239192,86.352249 
	C15.933087,81.209938 21.136732,76.532921 26.528437,71.936417 
	C28.424303,73.137032 29.908112,74.842415 31.426111,74.873405 
	C42.638515,75.102348 53.859848,75.100662 65.072189,74.870255 
	C66.510170,74.840698 67.912498,73.076210 69.331345,72.115433 
	C74.618828,77.391907 80.029541,82.552292 85.148987,87.987053 
	C88.376991,91.413887 89.888954,95.576820 87.790115,100.768509 
	C86.824402,102.137573 86.425568,103.117821 86.026741,104.098076 
	C86.076797,104.443817 85.964645,104.724815 85.067642,104.850220 
	C79.924187,104.905525 75.403389,105.051689 70.882584,105.197861 
z"/>
<path fill="#F48003" opacity="1.000000" stroke="none" 
	d="
M187.166092,117.439148 
	C179.754730,124.826889 172.501801,132.383240 164.879074,139.546036 
	C159.339005,144.751816 152.118225,144.402649 146.540588,138.888855 
	C139.208740,131.640915 132.115097,124.151985 125.215485,116.376740 
	C126.960358,115.659698 128.407730,115.053436 129.857346,115.047981 
	C147.494522,114.981529 165.132584,114.945587 182.768494,115.108047 
	C184.241394,115.121620 185.700546,116.626907 187.166092,117.439148 
z"/>
<path fill="#F27401" opacity="1.000000" stroke="none" 
	d="
M187.473053,117.279900 
	C185.700546,116.626907 184.241394,115.121620 182.768494,115.108047 
	C165.132584,114.945587 147.494522,114.981529 129.857346,115.047981 
	C128.407730,115.053436 126.960358,115.659698 125.071976,116.065063 
	C121.652489,112.353302 118.672966,108.563278 116.173279,104.381416 
	C143.430649,103.993599 170.208176,103.997620 196.985718,104.001633 
	C196.848694,110.431732 191.353210,113.101753 187.473053,117.279900 
z"/>
<path fill="#595857" opacity="1.000000" stroke="none" 
	d="
M36.948677,132.018967 
	C34.892441,126.658485 32.836205,121.297997 31.077333,115.329193 
	C32.663368,114.148293 33.946518,113.093391 35.241577,113.078560 
	C46.783047,112.946381 58.326618,112.997879 69.869568,112.995255 
	C71.882568,115.983955 73.895561,118.972656 75.985413,122.629715 
	C76.018867,123.792198 75.975464,124.286324 75.932068,124.780441 
	C73.074303,127.721550 70.216537,130.662659 66.704849,133.690964 
	C64.528473,132.852798 63.000469,131.125275 61.484486,131.135773 
	C53.304237,131.192352 45.126972,131.680008 36.948677,132.018967 
z"/>
<path fill="#F79A30" opacity="1.000000" stroke="none" 
	d="
M197.065430,103.609962 
	C170.208176,103.997620 143.430649,103.993599 116.160461,104.005951 
	C115.615257,102.196648 115.562721,100.370964 116.197441,98.267593 
	C134.599457,97.993370 152.314362,98.028587 170.028763,97.949005 
	C171.718445,97.941422 173.404892,97.216537 175.092850,96.824646 
	C175.473587,96.796280 175.854340,96.767914 176.786438,97.035286 
	C183.547272,97.555313 189.756714,97.779587 195.966156,98.003860 
	C196.359161,99.742004 196.752167,101.480148 197.065430,103.609962 
z"/>
<path fill="#555251" opacity="1.000000" stroke="none" 
	d="
M106.134872,164.007217 
	C103.293762,158.758209 105.778709,154.218643 108.506348,149.807602 
	C110.853127,150.643066 112.728119,151.862625 114.630669,151.907257 
	C123.727577,152.120621 132.831955,152.015472 141.933670,152.023529 
	C142.377991,155.791489 142.822311,159.559433 142.603073,163.666351 
	C130.004639,164.005966 118.069756,164.006592 106.134872,164.007217 
z"/>
<path fill="#F6A75D" opacity="1.000000" stroke="none" 
	d="
M134.005585,67.936142 
	C140.795715,61.607914 147.585876,55.279705 155.208008,48.176117 
	C158.867279,53.761398 162.910721,59.933064 166.869843,66.814926 
	C165.455246,68.682465 164.159744,70.791618 162.789093,70.841644 
	C154.312729,71.150986 145.816086,71.111183 137.335800,70.861214 
	C136.197983,70.827675 135.114334,68.956413 134.005585,67.936142 
z"/>
<path fill="#5F5D5C" opacity="1.000000" stroke="none" 
	d="
M57.156055,161.600494 
	C56.332970,159.492828 54.907246,157.020264 55.600605,155.540802 
	C60.207211,145.711319 67.604836,138.429199 77.547287,133.998550 
	C79.053833,133.327194 81.625099,133.497742 82.896561,134.407333 
	C83.702034,134.983566 83.616020,137.969864 82.896912,139.328659 
	C77.282417,149.937698 69.673279,158.424316 57.156055,161.600494 
z"/>
<path fill="#F5A95E" opacity="1.000000" stroke="none" 
	d="
M141.527084,38.280403 
	C144.040070,38.045723 146.209076,37.983208 148.378067,37.920692 
	C148.190628,40.103676 148.632614,42.608425 147.709045,44.415115 
	C143.206604,53.222836 136.342514,59.857655 127.406685,64.080109 
	C125.625626,64.921707 123.110580,64.209969 120.933983,64.214508 
	C121.111168,62.204895 120.732491,59.923939 121.558815,58.231205 
	C125.838242,49.464733 132.738159,43.159321 141.527084,38.280403 
z"/>
<path fill="#F89E3F" opacity="1.000000" stroke="none" 
	d="
M175.106781,96.412704 
	C173.404892,97.216537 171.718445,97.941422 170.028763,97.949005 
	C152.314362,98.028587 134.599457,97.993370 116.411697,97.982712 
	C118.729485,90.608383 125.709579,88.733727 133.307922,93.225082 
	C134.187500,93.744995 135.911301,96.785660 136.651215,92.370987 
	C147.470062,92.004776 157.797729,91.918556 168.122391,92.056816 
	C170.848694,92.093330 172.946854,91.611603 174.096222,88.947304 
	C174.437714,91.298454 174.779205,93.649605 175.106781,96.412704 
z"/>
<path fill="#F7A558" opacity="1.000000" stroke="none" 
	d="
M133.700500,68.081039 
	C135.114334,68.956413 136.197983,70.827675 137.335800,70.861214 
	C145.816086,71.111183 154.312729,71.150986 162.789093,70.841644 
	C164.159744,70.791618 165.455246,68.682465 166.949036,67.151978 
	C168.147278,69.743500 169.181976,72.708176 170.037994,76.457573 
	C168.076813,77.828163 166.302643,78.891006 164.510513,78.922195 
	C153.186646,79.119232 141.858810,79.087608 130.532272,79.131470 
	C129.342804,77.835388 128.153336,76.539307 126.556122,74.798927 
	C128.981750,72.467743 131.188583,70.346825 133.700500,68.081039 
z"/>
<path fill="#F4A853" opacity="1.000000" stroke="none" 
	d="
M98.188889,37.015930 
	C97.946861,39.811131 97.704834,42.606335 96.854652,45.694530 
	C94.970314,45.706985 93.688599,45.161354 92.418808,45.187824 
	C82.244469,45.399910 72.072380,45.720093 61.899601,46.007195 
	C61.490288,42.961674 61.080975,39.916149 61.216312,36.439003 
	C65.833885,36.338299 69.902809,36.877750 73.980591,36.956009 
	C82.047440,37.110825 90.119171,37.010674 98.188889,37.015930 
z"/>
<path fill="#F7A252" opacity="1.000000" stroke="none" 
	d="
M130.674103,79.462936 
	C141.858810,79.087608 153.186646,79.119232 164.510513,78.922195 
	C166.302643,78.891006 168.076813,77.828163 170.040894,76.838348 
	C171.474930,79.701271 172.727356,82.968132 173.491669,86.618813 
	C160.283966,86.997353 147.564362,86.992065 134.844757,86.986786 
	C133.501816,84.589325 132.158875,82.191864 130.674103,79.462936 
z"/>
<path fill="#F5A85B" opacity="1.000000" stroke="none" 
	d="
M61.938103,46.361668 
	C72.072380,45.720093 82.244469,45.399910 92.418808,45.187824 
	C93.688599,45.161354 94.970314,45.706985 96.651024,45.995674 
	C94.412704,53.163364 88.321327,57.761223 81.094543,58.122528 
	C72.173531,58.568539 65.772301,54.837463 61.938103,46.361668 
z"/>
<path fill="#535353" opacity="1.000000" stroke="none" 
	d="
M69.830109,112.631241 
	C58.326618,112.997879 46.783047,112.946381 35.241577,113.078560 
	C33.946518,113.093391 32.663368,114.148293 31.022966,114.939743 
	C30.126997,112.053513 29.582756,108.948402 29.105536,105.440018 
	C41.492100,105.009506 53.811649,104.982269 66.605087,104.959717 
	C67.982864,107.398666 68.886749,109.832947 69.830109,112.631241 
z"/>
<path fill="#777675" opacity="1.000000" stroke="none" 
	d="
M69.210785,71.841644 
	C67.912498,73.076210 66.510170,74.840698 65.072189,74.870255 
	C53.859848,75.100662 42.638515,75.102348 31.426111,74.873405 
	C29.908112,74.842415 28.424303,73.137032 26.833408,71.763023 
	C28.888380,69.137459 31.034607,66.955803 33.579239,65.028969 
	C34.112270,65.580017 34.231304,66.127113 34.383743,66.136581 
	C42.786163,66.658646 51.188625,67.218193 59.600269,67.498505 
	C60.510715,67.528847 61.475922,65.916023 62.415726,65.065392 
	C64.640564,67.232880 66.865395,69.400368 69.210785,71.841644 
z"/>
<path fill="#5C5A59" opacity="1.000000" stroke="none" 
	d="
M141.907562,151.678558 
	C132.831955,152.015472 123.727577,152.120621 114.630669,151.907257 
	C112.728119,151.862625 110.853127,150.643066 108.781540,149.533188 
	C117.097046,136.185379 134.015244,137.319992 141.907562,151.678558 
z"/>
<path fill="#4A4745" opacity="1.000000" stroke="none" 
	d="
M140.607086,169.491028 
	C131.668442,181.541840 116.159904,181.850800 108.964996,169.652130 
	C119.718819,169.281494 130.162949,169.386261 140.607086,169.491028 
z"/>
<path fill="#F4A751" opacity="1.000000" stroke="none" 
	d="
M127.246048,34.987251 
	C126.387695,38.584782 125.529343,42.182312 124.187187,45.699726 
	C116.410889,45.421486 109.118401,45.223362 101.825912,45.025238 
	C101.957619,41.104530 102.089333,37.183823 102.751297,33.288467 
	C105.211731,33.542698 107.136215,33.863354 109.073135,33.983418 
	C115.128250,34.358738 121.188057,34.658318 127.246048,34.987251 
z"/>
<path fill="#5F5E5D" opacity="1.000000" stroke="none" 
	d="
M36.975540,132.371796 
	C45.126972,131.680008 53.304237,131.192352 61.484486,131.135773 
	C63.000469,131.125275 64.528473,132.852798 66.406738,133.851135 
	C64.968010,135.820923 63.173466,137.717712 60.770554,139.626297 
	C54.235844,140.141953 48.309505,140.645828 42.383167,141.149704 
	C40.589581,138.341354 38.795994,135.532990 36.975540,132.371796 
z"/>
<path fill="#F4A54A" opacity="1.000000" stroke="none" 
	d="
M98.191391,36.626907 
	C90.119171,37.010674 82.047440,37.110825 73.980591,36.956009 
	C69.902809,36.877750 65.833885,36.338299 61.321831,36.008446 
	C61.655289,33.707153 62.427879,31.404791 63.721291,29.220371 
	C65.761032,29.890316 67.289360,30.941011 68.797325,30.912554 
	C77.881714,30.741114 86.961433,30.322342 96.042717,29.986351 
	C96.759773,32.070194 97.476830,34.154037 98.191391,36.626907 
z"/>
<path fill="#F4A95B" opacity="1.000000" stroke="none" 
	d="
M101.813843,45.413208 
	C109.118401,45.223362 116.410889,45.421486 123.930367,45.967442 
	C123.357338,47.758080 122.763786,49.375561 121.718597,50.610943 
	C118.578384,54.322544 114.787498,57.204418 109.614662,55.771282 
	C104.784157,54.432991 102.530029,50.599483 101.813843,45.413208 
z"/>
<path fill="#53504F" opacity="1.000000" stroke="none" 
	d="
M76.707703,165.984924 
	C76.941147,163.148849 77.174591,160.312790 78.040955,157.382294 
	C86.424393,157.859329 94.174927,158.430771 101.925453,159.002197 
	C101.594078,161.602219 101.262711,164.202240 100.190109,166.885056 
	C91.868484,166.640213 84.288094,166.312561 76.707703,165.984924 
z"/>
<path fill="#7D7B7A" opacity="1.000000" stroke="none" 
	d="
M62.290401,64.793434 
	C61.475922,65.916023 60.510715,67.528847 59.600269,67.498505 
	C51.188625,67.218193 42.786163,66.658646 34.383743,66.136581 
	C34.231304,66.127113 34.112270,65.580017 33.880527,64.860809 
	C35.541416,62.639427 37.299427,60.841019 39.730919,59.113022 
	C45.412872,62.262238 52.603691,61.762424 55.343277,58.145065 
	C57.617210,60.270538 59.891144,62.396008 62.290401,64.793434 
z"/>
<path fill="#F79F48" opacity="1.000000" stroke="none" 
	d="
M134.862671,87.364899 
	C147.564362,86.992065 160.283966,86.997353 173.466583,87.003601 
	C174.014267,87.433952 174.098938,87.863335 174.139923,88.620010 
	C172.946854,91.611603 170.848694,92.093330 168.122391,92.056816 
	C157.797729,91.918556 147.470062,92.004776 136.693024,92.009552 
	C135.788559,90.589066 135.334579,89.166031 134.862671,87.364899 
z"/>
<path fill="#F39F3D" opacity="1.000000" stroke="none" 
	d="
M103.868660,28.881807 
	C106.635490,25.730762 108.916054,21.852633 112.283905,19.600279 
	C117.248672,16.279936 122.784180,18.745859 125.120110,24.316078 
	C125.677689,25.645651 126.307800,26.944803 126.419640,28.626888 
	C118.579376,28.957819 111.224014,28.919813 103.868660,28.881807 
z"/>
<path fill="#F39F3D" opacity="1.000000" stroke="none" 
	d="
M64.935692,26.974615 
	C70.326721,18.361734 86.763840,16.950308 92.735809,26.731268 
	C83.257278,27.155010 74.096481,27.064814 64.935692,26.974615 
z"/>
<path fill="#565453" opacity="1.000000" stroke="none" 
	d="
M102.010994,158.583221 
	C94.174927,158.430771 86.424393,157.859329 78.283073,157.118088 
	C79.031548,154.351944 80.170815,151.755615 81.792389,149.334076 
	C83.597763,150.005356 84.912140,150.898804 86.245422,150.927948 
	C91.372337,151.040085 96.505310,150.875427 101.636024,150.813995 
	C101.789528,153.264069 101.943031,155.714142 102.010994,158.583221 
z"/>
<path fill="#484543" opacity="1.000000" stroke="none" 
	d="
M98.311172,172.648499 
	C97.731804,173.405518 97.126480,174.144226 96.577438,174.922638 
	C93.759506,178.917847 89.906128,181.058884 85.112015,179.874924 
	C80.100266,178.637192 77.945145,174.522141 77.312431,169.437958 
	C79.318726,169.428818 80.922783,169.777069 82.538986,170.054596 
	C87.790199,170.956284 93.741539,167.591980 98.311172,172.648499 
z"/>
<path fill="#4D4B49" opacity="1.000000" stroke="none" 
	d="
M140.588806,169.478485 
	C130.162949,169.386261 119.718819,169.281494 108.829849,169.332825 
	C108.385010,169.488937 108.422501,169.464722 108.565903,169.130463 
	C108.190804,168.199036 107.672310,167.601883 107.153824,167.004730 
	C106.801003,166.223557 106.448181,165.442368 106.115120,164.334198 
	C118.069756,164.006592 130.004639,164.005966 142.398560,164.006470 
	C142.662018,164.838974 142.466431,165.670334 141.721436,166.826294 
	C140.980576,167.912857 140.789154,168.674850 140.597717,169.436844 
	C140.597733,169.436844 140.570511,169.465958 140.588806,169.478485 
z"/>
<path fill="#5C5A59" opacity="1.000000" stroke="none" 
	d="
M101.614761,150.440750 
	C96.505310,150.875427 91.372337,151.040085 86.245422,150.927948 
	C84.912140,150.898804 83.597763,150.005356 82.083725,149.141510 
	C88.466309,139.661301 96.894440,140.214630 101.614761,150.440750 
z"/>
<path fill="#F3A345" opacity="1.000000" stroke="none" 
	d="
M103.891418,28.909790 
	C111.224014,28.919813 118.579376,28.957819 126.392174,28.994137 
	C127.088539,30.757254 127.327454,32.522060 127.406204,34.637058 
	C121.188057,34.658318 115.128250,34.358738 109.073135,33.983418 
	C107.136215,33.863354 105.211731,33.542698 102.983467,32.964512 
	C102.772713,31.947918 102.860054,31.280634 103.242874,30.161942 
	C103.771622,29.478823 103.906876,29.199619 103.944138,28.872917 
	C103.944138,28.872917 103.914169,28.937773 103.891418,28.909790 
z"/>
<path fill="#F8A042" opacity="1.000000" stroke="none" 
	d="
M196.050812,97.638794 
	C189.756714,97.779587 183.547272,97.555313 177.068268,96.973038 
	C183.245560,89.299149 192.348343,89.609230 196.050812,97.638794 
z"/>
<path fill="#595857" opacity="1.000000" stroke="none" 
	d="
M42.528214,141.480255 
	C48.309505,140.645828 54.235844,140.141953 60.471790,139.774094 
	C57.274040,143.352783 53.766678,146.795471 49.808399,150.680740 
	C47.381039,147.663208 45.027149,144.737000 42.528214,141.480255 
z"/>
<path fill="#F3A141" opacity="1.000000" stroke="none" 
	d="
M64.696846,27.098652 
	C74.096481,27.064814 83.257278,27.155010 92.818542,27.073853 
	C94.129349,27.723871 95.039688,28.545250 95.996368,29.676491 
	C86.961433,30.322342 77.881714,30.741114 68.797325,30.912554 
	C67.289360,30.941011 65.761032,29.890316 64.001747,28.993917 
	C63.993591,28.173910 64.225792,27.698299 64.696846,27.098652 
z"/>
<path fill="#4B4947" opacity="1.000000" stroke="none" 
	d="
M98.600372,172.395874 
	C93.741539,167.591980 87.790199,170.956284 82.538986,170.054596 
	C80.922783,169.777069 79.318726,169.428818 77.359772,169.056671 
	C76.847771,168.247635 76.685104,167.494888 76.615067,166.363525 
	C84.288094,166.312561 91.868484,166.640213 99.884796,167.038086 
	C99.843674,168.786636 99.366623,170.464951 98.600372,172.395874 
z"/>
<path fill="#828180" opacity="1.000000" stroke="none" 
	d="
M55.132622,57.871284 
	C52.603691,61.762424 45.412872,62.262238 40.031742,58.998730 
	C44.266834,54.941013 49.037159,54.560795 55.132622,57.871284 
z"/>
<path fill="#5F5F5F" opacity="1.000000" stroke="none" 
	d="
M71.105118,105.473663 
	C75.403389,105.051689 79.924187,104.905525 84.844421,104.927429 
	C80.787186,109.187874 76.099358,108.361168 71.105118,105.473663 
z"/>
<path fill="#5F5F5F" opacity="1.000000" stroke="none" 
	d="
M86.298111,103.938889 
	C86.425568,103.117821 86.824402,102.137573 87.560364,101.088196 
	C87.454834,101.939278 87.012161,102.859497 86.298111,103.938889 
z"/>
<path fill="#4A4745" opacity="1.000000" stroke="none" 
	d="
M107.156693,167.290497 
	C107.672310,167.601883 108.190804,168.199036 108.552658,169.115479 
	C107.983864,168.815262 107.571709,168.195755 107.156693,167.290497 
z"/>
<path fill="#4A4745" opacity="1.000000" stroke="none" 
	d="
M140.817566,169.257996 
	C140.789154,168.674850 140.980576,167.912857 141.510895,167.077942 
	C141.578995,167.696411 141.308197,168.387787 140.817566,169.257996 
z"/>
<path fill="#5F5E5D" opacity="1.000000" stroke="none" 
	d="
M76.200516,124.645393 
	C75.975464,124.286324 76.018867,123.792198 76.112732,122.928604 
	C76.265114,123.209534 76.367035,123.859932 76.200516,124.645393 
z"/>
<path fill="#F39F3D" opacity="1.000000" stroke="none" 
	d="
M103.698792,28.955311 
	C103.906876,29.199619 103.771622,29.478823 103.340118,29.837919 
	C103.245728,29.656105 103.349586,29.346905 103.698792,28.955311 
z"/>
</svg>