<svg width="20" height="20" viewBox="0 0 523 122" fill="none" xmlns="http://www.w3.org/2000/svg">
<path d="M115.187 2.32282e-06V0.0532976C115.141 0.0532976 100.752 0 96.9144 16.0405C93.397 30.7487 83.4842 71.3384 83.2101 72.4575H80.4693C80.4693 72.4575 70.3281 30.9618 66.7649 15.9872C62.9277 -0.0532961 48.4925 2.32282e-06 48.4925 2.32282e-06H15.6326V122H48.5078V49.542H51.2486L70.4346 121.999H93.2599L112.446 49.5952H115.187V121.999H148.062V2.32282e-06H115.187ZM235.282 2.32282e-06C235.282 2.32282e-06 225.644 1.01252 221.121 12.7903L197.839 72.4575H195.098V2.32282e-06H162.223V122H193.271C193.271 122 203.366 120.934 207.889 109.21L230.715 49.5425H233.456V122H266.331V2.32282e-06H235.282ZM280.948 55.4045V122H313.823V83.1156H349.44C364.971 83.1156 378.112 71.5515 383 55.4222H280.948V55.4045Z" fill="#4DB45E"/>
<path d="M347.158 0H273.571C277.249 22.6427 292.282 40.8018 311.713 46.7222C316.224 48.1024 320.877 48.801 325.55 48.8H382.264C382.77 46.0995 383 43.3471 383 40.4908C383.001 18.1245 366.956 0 347.158 0V0Z" fill="url(#paint0_linear_129_64)"/>
<defs>
<linearGradient id="paint0_linear_129_64" x1="273.571" y1="24.3999" x2="383" y2="24.3999" gradientUnits="userSpaceOnUse">
<stop offset="0.3" stop-color="#00B4E6"/>
<stop offset="1" stop-color="#088CCB"/>
</linearGradient>
</defs>
</svg>
