<svg width="40" height="40" viewBox="0 0 40 40" fill="none" xmlns="http://www.w3.org/2000/svg">
<path d="M39.1002 26C38.6002 27.6 37.9002 29.1 37.0002 30.5C29.2002 29.8 21.3002 31.1 14.2002 34.3L15.0002 28.7C22.7002 25.8 30.9002 24.9 39.1002 26ZM40.0002 19.9C40.0002 21.4 39.9002 22.7 39.6002 24.1C31.3002 23 22.9002 24 15.2002 27.1L15.9002 22.2C23.6002 19.5 31.9002 18.7 40.0002 19.9ZM39.2002 14.4C39.5002 15.6 39.8002 16.8 39.9002 18C31.9002 16.8 23.7002 17.7 16.1002 20.6L16.7002 16.4C23.9002 13.9 31.6002 13.2 39.2002 14.2V14.4ZM36.4002 8.5C37.2002 9.7 37.9002 10.9 38.5002 12.3C31.2002 11.4 23.8002 12.3 16.9002 14.8L17.5002 10.8C23.6002 8.8 30.0002 8.1 36.4002 8.5ZM31.2002 3.5C32.7002 4.5 34.0002 5.7 35.2002 7C29.2002 6.7 23.3002 7.6 17.6002 9.4L18.1002 5.5C22.4002 4.3 26.8002 3.6 31.2002 3.5C31.2002 3.5 31.2002 3.4 31.2002 3.5ZM20.0002 0C23.3002 0 26.6002 0.8 29.5002 2.4C25.7002 2.7 22.0002 3.5 18.3002 4.6L18.8002 1.1C14.5002 1.4 10.4002 3.2 7.2002 6.1C4.0002 9.1 2.0002 13 1.4002 17.3C0.800195 21.6 1.7002 26 4.0002 29.7C6.3002 33.4 9.7002 36.3 13.8002 37.7L14.1002 35.6C21.0002 32.7 28.6002 31.4 36.1002 32C34.0002 34.7 31.3002 36.9 28.2002 38.2C25.1002 39.6 21.7002 40.1 18.3002 39.8C14.9002 39.5 11.7002 38.3 8.8002 36.4C6.0002 34.5 3.7002 31.9 2.2002 28.8C0.700195 25.8 0.00019531 22.4 0.100195 19C0.300195 15.6 1.3002 12.3 3.1002 9.4C4.9002 6.5 7.4002 4.1 10.4002 2.5C13.2002 0.9 16.6002 0 20.0002 0Z" fill="#003869"/>
</svg>
