<svg width="40" height="40" viewBox="0 0 40 40" fill="none" xmlns="http://www.w3.org/2000/svg">
<path d="M22.5352 7.01617C22.5347 7.04584 22.5459 7.07404 22.5668 7.09544C22.5877 7.11684 22.6159 7.12851 22.6456 7.12851H23.0016C24.1444 7.12851 25.0714 8.05495 25.0714 9.1983V30.7215L18.8586 10.5926C18.2565 8.6366 16.3521 6.99623 14.3042 6.99623H9.8417C9.78091 6.99623 9.73179 7.04535 9.73179 7.10614V7.28219C9.73179 7.34298 9.78091 7.3921 9.8417 7.3921H10.3324C11.4135 7.3921 12.1026 8.2845 12.1026 9.46626V29.3461C12.1026 30.6018 11.0847 31.6197 9.82906 31.6197H9.6107C9.54991 31.6197 9.50079 31.6688 9.50079 31.7296V31.8838C9.50079 31.9446 9.54991 31.9937 9.6107 31.9937H16.9391C16.9999 31.9937 17.049 31.9446 17.049 31.8838V31.7296C17.049 31.6688 16.9999 31.6197 16.9391 31.6197H16.4012C14.5663 31.6197 13.0787 30.132 13.0787 28.2971V12.2699L17.5412 26.4608C18.3669 29.0222 21.5227 31.7491 25.3505 31.7491C28.9177 31.7491 31.9893 28.4095 31.9893 24.784C31.9893 21.3233 29.9268 18.5712 26.7964 17.8261H26.7978C28.7553 17.5173 30.3708 16.088 30.8567 14.1671C31.8478 10.2492 29.671 6.81094 24.4207 6.81094H22.6471C22.5872 6.81094 22.5381 6.85909 22.5371 6.91891L22.5352 7.01617ZM20.0005 2.20158C29.8145 2.20158 37.7989 10.186 37.7989 20C37.7989 29.814 29.8145 37.7984 20.0005 37.7984C10.1865 37.7984 2.20207 29.814 2.20207 20C2.20207 10.186 10.1865 2.20158 20.0005 2.20158ZM20.0005 0C8.95465 0 0 8.95465 0 20C0 31.0453 8.95465 40 20.0005 40C31.0463 40 40.0005 31.0458 40.0005 20C40.0005 8.95416 31.0463 0 20.0005 0Z" fill="#057A55"/>
</svg>
