<svg width="40" height="41" viewBox="0 0 40 41" fill="none" xmlns="http://www.w3.org/2000/svg">
<path d="M18.6001 12.2002H20.7001L16.4001 25.5002H14.4001L18.6001 12.2002ZM22.0001 15.7002H24.0001L19.7001 28.9002H17.8001L22.0001 15.7002ZM9.6001 25.5002H10.4001L12.4001 19.2002L14.0001 24.2002L15.1001 20.9002L13.1001 15.0002C13.2001 14.9002 9.6001 25.5002 9.6001 25.5002ZM13.6001 13.6002L14.0001 12.5002L15.8001 18.7002L15.4001 19.9002L13.6001 13.6002ZM33.8001 17.8002C33.9001 18.1002 33.9001 18.2002 33.9001 18.6002H39.9001C39.9001 18.3002 39.9001 18.3002 39.8001 17.9002C37.8001 17.8002 35.8001 17.8002 33.8001 17.8002Z" fill="#0063AB"/>
<path d="M39.7001 17.1002H33.6001C33.5001 16.9002 33.4001 16.6002 33.2001 16.4002C33.1001 16.2002 32.7001 15.8002 32.7001 15.7002H34.7001C34.7001 15.4002 34.6001 15.3002 34.6001 15.2002C32.5001 9.50017 28.2001 3.80017 19.2001 3.50017C7.7001 3.50017 0.800098 11.9002 0.500098 21.2002H0.100098C0.200098 10.3002 8.0001 1.30017 19.2001 1.00017C28.6001 0.700168 37.5001 6.60017 39.7001 17.1002Z" fill="#0063AB"/>
<path d="M17.1001 25.5002L21.4001 12.2002H22.0001L17.8001 25.6002L17.1001 25.5002ZM20.5001 28.9002L24.7001 15.7002H25.5001L21.3001 28.9002H20.5001ZM25.6001 17.3002C25.7001 16.9002 25.9001 16.2002 26.1001 15.6002H31.0001C34.0001 16.1002 33.7001 21.5002 30.4001 22.1002C32.9001 24.0002 30.7001 28.6002 28.0001 28.6002H22.0001C22.1001 28.3002 22.3001 27.8002 22.4001 27.5002C24.2001 27.4002 25.9001 27.5002 27.7001 27.5002C30.0001 26.2002 30.4001 23.7002 29.1001 22.1002C32.6001 21.0002 31.5001 17.2002 30.3001 17.2002C28.4001 17.3002 27.3001 17.4002 25.6001 17.3002Z" fill="#0063AB"/>
<path d="M22.5 26.9998C22.6 26.7998 22.7 26.3998 22.8 26.1998H26.6C27.5 25.7998 27.7 24.8998 27.5 24.0998H23.4C23.6 23.5998 23.8 22.8998 24 22.2998H28.2C29.5 23.0998 28.9 26.3998 27.3 26.8998L22.5 26.9998ZM24.2 21.6998H28.4C29.6 21.4998 30.4 20.1998 30.5 19.3998C30.5 18.9998 30.3 18.2998 29.9 18.1998H25.3L25.1 18.6998H29.3C29.9 19.2998 29.3 20.8998 28.2 20.9998H24.3L24.2 21.6998ZM6.3 25.5998L10.6 12.1998H13.2L9 25.4998L6.3 25.5998ZM22.6 13.7998L23.1 12.1998H25.1L24.6 13.8998L22.6 13.7998ZM25.2 13.7998L25.7 12.1998H26.5L26 13.8998L25.2 13.7998ZM22.2 14.9998L22.4 14.3998H24.4L24.2 14.9998H22.2ZM24.9 14.9998L25.1 14.3998H25.9L25.7 14.9998H24.9ZM19.3 10.3998L19.8 8.7998H21.8L21.3 10.4998L19.3 10.3998ZM21.9 10.3998L22.4 8.7998H23.1L22.6 10.4998L21.9 10.3998ZM18.9 11.5998L19.1 10.9998H21.1L20.9 11.5998H18.9ZM21.5 11.5998L21.7 10.9998H22.3L22.1 11.5998H21.5ZM6.4 22.9998L6.6 22.1998H0V22.9998H6.4Z" fill="#0063AB"/>
<path d="M0.299805 23.8004H6.1998C5.9998 24.5004 5.7998 25.2004 5.5998 25.6004H5.0998C5.1998 25.8004 5.1998 25.9004 5.1998 26.0004C6.9998 31.8004 10.9998 37.7004 19.9998 38.5004C31.3998 39.1004 38.8998 31.1004 39.5998 21.9004H39.9998C39.2998 32.7004 30.9998 41.2004 19.8998 41.0004C10.3998 40.7004 1.8998 34.4004 0.299805 23.8004Z" fill="#0063AB"/>
</svg>
