<svg width="40" height="40" viewBox="0 0 40 40" fill="none" xmlns="http://www.w3.org/2000/svg">
<path fill-rule="evenodd" clip-rule="evenodd" d="M9.73598 14.3318C6.76613 16.9172 5.34319 19.109 3.53637 22.4685C1.33997 27.7598 1.08518 33.8303 5.47343 37.9632C17.9978 46.8734 35.2954 24.1502 25.0965 16.014C21.3527 13.9473 14.8977 16.2734 11.4092 19.7579C15.6763 16.5282 26.8545 13.9922 22.2609 24.5306C15.6677 39.654 -1.49567 30.4709 12.7064 12.914C12.8361 12.6546 15.4169 9.4294 9.86622 14.3318H9.73598ZM13.3508 0.129668C13.2211 -0.125118 9.97826 1.53441 9.08764 2.32607C7.24897 3.96796 3.2503 8.82997 6.50679 10.8472C7.78584 11.6389 14.8937 10.5475 18.5125 10.2029C30.7644 9.03073 35.1657 11.6207 29.4848 16.3979C37.4918 13.9467 42.3942 3.22919 33.099 1.80682C26.0048 1.42237 15.5466 3.87355 13.2205 3.4891C11.673 3.22976 11.4131 2.84076 12.1872 1.2927C12.4465 0.903697 13.4799 0.259336 13.3502 0L13.3508 0.129668Z" fill="#1971C0"/>
</svg>
