<svg width="40" height="40" viewBox="0 0 40 40" fill="none" xmlns="http://www.w3.org/2000/svg">
<path fill-rule="evenodd" clip-rule="evenodd" d="M2.28843 0H37.153C38.7398 0 40 1.30684 40 2.84704V37.7116C40 38.9717 38.9732 39.9985 37.713 39.9985H2.28843C1.02827 39.9985 0.00146708 38.9717 0.00146708 37.7116V2.28696C-0.0452057 1.0268 1.02827 0 2.28843 0Z" fill="#F2CD13"/>
<path fill-rule="evenodd" clip-rule="evenodd" d="M13.2094 0L22.1706 14.7953V18.8091L10.7358 0H13.2094ZM17.27 0L22.1706 8.12105V11.0148L15.4964 0H17.27ZM20.7238 0L22.1706 2.42698V4.66727L19.3236 0H20.7238ZM24.7843 31.4108H21.9839L17.55 23.7564V31.4108H14.9363V19.8826H18.2034L22.1239 26.3701V19.8826H24.7843V31.4108ZM26.9779 19.8826H32.7653C33.9788 19.8826 34.9123 20.1626 35.4723 20.676C36.0324 21.1894 36.3124 21.8895 36.3124 22.823C36.3124 23.383 36.1724 23.8964 35.8457 24.3165C35.519 24.7366 35.0523 25.0166 34.3989 25.25C35.1923 25.4366 35.799 25.7633 36.2191 26.2767C36.6392 26.7901 36.8725 27.4436 36.8725 28.1903C36.8725 29.2171 36.5458 30.0106 35.8457 30.5706C35.1456 31.1307 34.0255 31.4108 32.4386 31.4108H26.9779V19.8826ZM29.6849 22.1229V24.4098H32.2052C32.6253 24.4098 32.952 24.3165 33.1854 24.0831C33.4187 23.8498 33.5588 23.5697 33.5588 23.243C33.5588 22.9163 33.4187 22.6363 33.1854 22.4496C32.952 22.2629 32.5786 22.1229 32.1119 22.1229C32.1119 22.1695 29.6849 22.1695 29.6849 22.1229ZM29.6849 26.5568V29.1705H32.4853C32.8587 29.1705 33.232 29.0771 33.5121 28.8438C33.8388 28.6104 33.9788 28.2837 33.9788 27.8636C33.9788 27.3969 33.8388 27.0702 33.5121 26.8835C33.232 26.6501 32.7653 26.5568 32.1119 26.5568H29.6849ZM3.1748 27.6769H5.88182C5.88182 28.237 6.06851 28.6571 6.4419 28.9838C6.81528 29.3105 7.42202 29.4972 8.21546 29.4972C8.91555 29.4972 9.42895 29.4038 9.75566 29.2171C10.0824 29.0304 10.2691 28.7037 10.2691 28.2837C10.2691 27.9103 10.129 27.5836 9.80233 27.3035C9.47562 27.0702 8.68219 26.7435 7.37535 26.4634C5.83515 26.0901 4.80835 25.67 4.29495 25.1566C3.78155 24.6899 3.54819 23.9431 3.54819 22.963C3.54819 21.8428 3.96824 21.0027 4.80835 20.396C5.64846 19.8359 6.81528 19.5559 8.26213 19.5559C9.56897 19.5559 10.6424 19.8826 11.4359 20.4893C12.2293 21.1427 12.6027 21.9829 12.6494 23.0097H10.0824C10.0357 22.6363 9.84901 22.3096 9.5223 22.0762C9.19559 21.8428 8.72886 21.7495 8.12211 21.7495C7.56204 21.7495 7.09531 21.8428 6.81528 22.0295C6.48857 22.2162 6.34855 22.4963 6.34855 22.823C6.34855 23.1497 6.48857 23.4297 6.76861 23.6631C7.04864 23.8964 7.65539 24.0831 8.63552 24.2698C10.4091 24.6432 11.5759 25.0633 12.1826 25.6233C12.7894 26.1834 13.0694 26.9302 13.0694 27.8636C13.0694 29.0304 12.6494 29.9639 11.8559 30.664C11.0625 31.3641 9.84901 31.6908 8.21546 31.6908C6.67526 31.6908 5.46177 31.3641 4.57499 30.664C3.64153 30.0106 3.1748 28.9838 3.1748 27.6769Z" fill="#185491"/>
</svg>
