<svg width="40" height="40" viewBox="0 0 40 40" fill="none" xmlns="http://www.w3.org/2000/svg">
<path d="M18.644 10.3427V30.3218H13.9394V22.1303H4.70456V30.3218H0V10.3427H4.70456V18.2201H13.9394V10.3427H18.644ZM31.6073 30.6641C29.5357 30.6641 27.6577 30.2265 25.9734 29.3512C24.3085 28.4569 22.992 27.2296 22.024 25.6693C21.0753 24.09 20.601 22.3109 20.601 20.332C20.601 18.3532 21.0753 16.5836 22.024 15.0233C22.992 13.444 24.3085 12.2167 25.9734 11.3415C27.6577 10.4472 29.5454 10 31.6363 10C33.3981 10 34.9857 10.3044 36.3989 10.9133C37.8316 11.5222 39.032 12.3975 40 13.5392L36.9798 16.2791C35.6052 14.7189 33.9015 13.9387 31.8686 13.9387C30.6103 13.9387 29.4874 14.2146 28.5 14.7664C27.5126 15.2992 26.7382 16.0508 26.1767 17.0212C25.6346 17.9916 25.3636 19.0952 25.3636 20.332C25.3636 21.5689 25.6346 22.6724 26.1767 23.6429C26.7382 24.6133 27.5126 25.3744 28.5 25.9262C29.4874 26.4589 30.6103 26.7253 31.8686 26.7253C33.9015 26.7253 35.6052 25.9357 36.9798 24.3564L40 27.0964C39.032 28.2571 37.8316 29.1419 36.3989 29.7507C34.9663 30.3597 33.3691 30.6641 31.6073 30.6641Z" fill="#FFD503"/>
</svg>
