<svg width="40" height="40" viewBox="0 0 40 40" fill="none" xmlns="http://www.w3.org/2000/svg">
<path d="M24.8375 11.7734V21.1774H15.4187V11.7734H6.01482V40H15.4187V30.5813H24.8375V40H34.2414V11.7734H24.8375ZM15.4187 4.70934C15.4187 3.77729 15.1421 2.8662 14.624 2.09143C14.1059 1.31666 13.3695 0.71306 12.5081 0.357059C11.6467 0.00105739 10.6991 -0.0913346 9.78516 0.0915808C8.87123 0.274496 8.03213 0.724492 7.3741 1.38459C6.71608 2.04469 6.26873 2.8852 6.08869 3.7997C5.90866 4.7142 6.00403 5.66156 6.36275 6.52182C6.72146 7.38209 7.32737 8.11656 8.10377 8.63225C8.88017 9.14793 9.79213 9.42164 10.7242 9.41871C11.3419 9.41871 11.9536 9.29679 12.5241 9.05995C13.0947 8.8231 13.6129 8.47597 14.049 8.03847C14.4851 7.60097 14.8306 7.0817 15.0656 6.51042C15.3007 5.93914 15.4207 5.32709 15.4187 4.70934ZM34.2413 4.7094C34.2413 3.77924 33.9658 2.86991 33.4497 2.09612C32.9335 1.32232 32.1997 0.71871 31.3409 0.361415C30.4821 0.00412092 29.5367 -0.0908536 28.624 0.0884705C27.7113 0.267795 26.8722 0.713386 26.2124 1.36904C25.5526 2.0247 25.1018 2.86106 24.9167 3.77262C24.7317 4.68419 24.8207 5.63014 25.1726 6.49116C25.5245 7.35219 26.1235 8.08972 26.8941 8.61073C27.6646 9.13175 28.5722 9.41291 29.5023 9.41876C30.1233 9.42267 30.7388 9.30374 31.3136 9.06882C31.8884 8.8339 32.4111 8.48763 32.8515 8.04994C33.292 7.61224 33.6415 7.09176 33.88 6.51846C34.1185 5.94515 34.2413 5.33034 34.2413 4.7094Z" fill="#0DB14B"/>
</svg>
