<svg width="40" height="40" viewBox="0 0 40 40" fill="none" xmlns="http://www.w3.org/2000/svg">
<path fill-rule="evenodd" clip-rule="evenodd" d="M28.8375 36.7859L24.8179 28.0165H15.1842L11.1625 36.7859H28.8375ZM32.1039 6.52403C36.0177 9.94227 38.3851 15.0934 38.3851 20.3929C38.3851 25.6925 36.017 30.8436 32.1039 34.2619L27.0409 23.2187H12.9611L7.89817 34.2619C3.98298 30.8423 1.61421 25.6912 1.61421 20.3929C1.61421 15.094 3.98298 9.94363 7.89817 6.52403L12.9611 17.5679H27.0409L32.1039 6.52403ZM31.4856 4L26.0057 15.9537H13.9971L8.51714 4C3.20537 7.66977 0 13.9151 0 20.3929C0 26.8715 3.20537 33.1161 8.51714 36.7859L13.9971 24.8329H26.0057L31.4856 36.7859C36.798 33.1161 40 26.8715 40 20.3929C39.9993 13.9151 36.7973 7.66977 31.4856 4ZM28.8375 4L24.8179 12.77H15.1842L11.1625 4H28.8375Z" fill="#123A92"/>
</svg>
