<svg width="41" height="40" viewBox="0 0 41 40" fill="none" xmlns="http://www.w3.org/2000/svg">
<path d="M13.7 8.10033C13.7 3.30033 16.6 0.100328 20.2 0.000328374C23.8 -0.0996716 26.9 3.10033 27 7.10033C27 9.00033 26.5 10.9003 25.5 12.6003C24.1 15.1003 19.6 19.6003 19.6 19.6003L18 16.2003C18 16.2003 18.7 15.2003 19.7 14.0003C20.9 12.6003 21.9 10.9003 22.7 9.20033C23 8.60033 23.1 7.90033 23.1 7.20033C23 5.50033 21.9 4.20033 20.4 4.20033C19 4.20033 17.8 5.60033 17.7 7.20033C17.6 8.40033 18 9.60033 18.6 10.6003C18.9 11.1003 19.4 12.0003 19.4 12.0003L16.9 15.0003C16.3 14.3003 15.8 13.5003 15.3 12.7003C14.3 11.0003 13.7 9.20033 13.7 8.10033ZM12.7 12.6003C11.6 11.5003 10.3 10.7003 8.79998 10.3003C5.09999 9.30033 1.19999 11.3003 0.199985 14.9003C-0.200015 16.7003 -1.49608e-05 18.6003 0.999985 20.2003C1.99998 21.8003 3.49999 23.0003 5.29999 23.5003C6.99999 24.0003 8.99998 24.0003 10.8 23.5003C11.5 23.3003 12.1 23.1003 12.7 22.9003L10.8 19.3003C10.8 19.3003 9.99998 19.6003 9.39998 19.7003C8.29998 20.0003 7.09999 19.9003 5.99999 19.4003C4.49999 18.8003 3.69999 17.1003 4.19999 15.8003C4.69999 14.4003 6.49999 13.8003 7.89999 14.3003C8.69999 14.7003 9.39998 15.1003 9.99998 15.7003C13.4 18.6003 14.7 23.7003 14.7 23.7003C14.7 23.7003 10.3 25.2003 8.69998 26.2003C5.59998 28.3003 4.29998 32.1003 5.49999 35.3003C5.89999 36.5003 6.69999 37.6003 7.79999 38.3003C8.79999 39.1003 10.1 39.5003 11.4 39.5003C12.9 39.5003 14.3 39.1003 15.5 38.2003C16.7 37.4003 17.7 36.2003 18.2 34.9003C19.1 32.8003 19.3 30.6003 19.3 28.4003C19.3 25.4003 18.7 22.5003 17.6 19.7003C16.5 17.2003 14.8 14.7003 12.7 12.6003ZM14.3 33.9003C13.7 35.0003 12.7 35.7003 11.4 35.6003C10.9 35.6003 10.5 35.4003 10.1 35.1003C9.69999 34.8003 9.49998 34.4003 9.29998 34.0003C8.79998 32.7003 9.29998 31.7003 10.1 30.7003C11.4 28.9003 15.1 28.0003 15.1 28.0003C15.1 28.0003 15.2 29.5003 15.2 30.0003C15.3 31.3003 14.9 32.7003 14.3 33.9003ZM22.1 33.5003C22.5 35.0003 23.2 36.4003 24.2 37.6003C26.9 40.5003 31.2 40.8003 33.9 38.3003C36.6 35.7003 36.7 31.2003 34.1 28.3003C32.8 26.9003 31.2 25.9003 29.4 25.3003C28.8 25.1003 28.1 24.9003 27.5 24.8003L27.3 28.9003C27.3 28.9003 28.1 29.1003 28.7 29.3003C29.8 29.6003 30.8 30.4003 31.5 31.4003C32.5 32.8003 32.3 34.6003 31.2 35.5003C30 36.4003 28.2 36.0003 27.3 34.7003C26.8 34.0003 26.5 33.2003 26.3 32.4003C24.9 28.1003 26.4 23.0003 26.4 23.0003C26.4 23.0003 30.9 24.1003 32.8 24.0003C36.5 23.8003 39.6 21.4003 40.2 18.0003C40.5 16.7003 40.3 15.4003 39.9 14.2003C39.4 13.0003 38.6 11.9003 37.5 11.2003C36.3 10.4003 34.8 10.0003 33.4 10.1003C31.9 10.1003 30.5 10.6003 29.3 11.5003C27.5 12.8003 26.2 14.5003 25 16.4003C23.5 19.0003 22.4 21.8003 22 24.7003C21.2 27.6003 21.3 30.6003 22.1 33.5003ZM31.6 14.6003C32.1 14.3003 32.7 14.1003 33.3 14.1003C33.9 14.1003 34.5 14.3003 34.9 14.7003C35.3 15.0003 35.6 15.3003 35.8 15.8003C36 16.2003 36 16.7003 35.9 17.2003C35.6 18.5003 34.7 19.1003 33.6 19.6003C31.6 20.4003 28 19.2003 28 19.2003L28.9 17.4003C29.5 16.2003 30.5 15.3003 31.6 14.6003Z" fill="#DD1F2A"/>
</svg>
