<svg
  width="20"
  height="20"
  viewBox="0 0 17 16"
  fill="none"
  xmlns="http://www.w3.org/2000/svg"
>
<g clipPath="url(#clip0_5_3066)">
<path
      d="M16.0047 8.00225C16.0028 10.1235 15.1589 12.1573 13.6585 13.6569C12.1581 15.1565 10.1239 15.9992 8.0026 16.0001C3.57963 16.0001 -0.0284543 12.4017 -7.79006e-05 7.95032C0.0288339 3.52682 3.63692 -0.00469163 8.01223 0.000126996C12.349 0.00494562 15.9951 3.5129 16.0047 8.00225ZM13.8792 8.00225C13.8771 6.4463 13.2593 4.9544 12.1609 3.85242C11.0624 2.75044 9.57246 2.12793 8.01652 2.12086C4.79018 2.11175 2.12708 4.7379 2.12708 7.99315C2.12226 11.2591 4.77679 13.8456 7.94156 13.8794C8.71777 13.8849 9.48744 13.7372 10.2064 13.4445C10.9253 13.1519 11.5794 12.7202 12.1311 12.1741C12.6828 11.6281 13.1212 10.9784 13.4212 10.2625C13.7212 9.54659 13.8768 8.77848 13.8792 8.00225Z"
      fill="#1C347A"
    />
<path
      d="M12.681 0.659058C13.5676 0.649956 14.4543 0.649956 15.3409 0.649956V3.31894C14.6484 2.25734 13.7426 1.3515 12.681 0.659058ZM15.3409 12.6805V15.3655H12.681C13.7459 14.6667 14.6522 13.752 15.3409 12.6805ZM3.32429 0.661735C2.25666 1.3474 1.34557 2.25046 0.650487 3.31198V0.666554C0.707239 0.647815 3.13797 0.641925 3.32429 0.661735ZM3.31251 15.35H0.667084C0.648345 15.2879 0.643526 12.7902 0.662265 12.6805C1.34953 13.7457 2.25234 14.655 3.31251 15.35Z"
      fill="#1C347A"
    />
</g>
<defs>
<clipPath id="clip0_5_3066">
<rect
        width="16.0048"
        height="16"
        fill="white"
        transform="translate(0 0.000244141)"
      />
</clipPath>
</defs>
</svg>
