<svg version="1.1" id="Layer_1" xmlns="http://www.w3.org/2000/svg" xmlns:xlink="http://www.w3.org/1999/xlink" x="0px" y="0px"
	 width="100%" viewBox="0 0 600 300" enable-background="new 0 0 600 300" xml:space="preserve">
<path fill="#FFFFFF" opacity="1.000000" stroke="none" 
	d="
M363.000000,301.000000 
	C242.033447,301.000000 121.566895,301.000000 1.050172,301.000000 
	C1.050172,201.061234 1.050172,101.122421 1.050172,1.091809 
	C200.883240,1.091809 400.766541,1.091809 600.824951,1.091809 
	C600.824951,100.999756 600.824951,200.999847 600.824951,301.000000 
	C521.789062,301.000000 442.644531,301.000000 363.000000,301.000000 
M333.298157,211.951599 
	C344.675781,206.407333 351.661926,196.992386 354.948792,185.208832 
	C360.257355,166.177582 365.679993,147.099274 369.402069,127.723419 
	C374.581116,100.763336 359.196014,88.092216 338.320099,86.292274 
	C321.287537,84.823692 304.025757,85.478508 286.885345,85.933746 
	C266.262299,86.481476 252.250137,97.099602 245.998642,116.618286 
	C241.246307,131.456223 237.557602,146.667603 234.091141,161.871399 
	C232.222244,170.068344 230.935226,178.598129 230.931900,186.978363 
	C230.925110,204.145996 241.559586,215.170227 258.757874,215.888153 
	C276.221893,216.617188 293.737366,216.820816 311.207001,216.363953 
	C318.361786,216.176834 325.455414,213.653519 333.298157,211.951599 
M246.462479,221.230362 
	C234.319916,216.958664 227.073700,208.206131 225.360519,195.736008 
	C224.331741,188.247665 224.224808,180.264297 225.654510,172.881180 
	C228.901962,156.110779 232.857193,139.432251 237.530411,123.002419 
	C239.815338,114.969193 243.584000,107.098717 248.018814,99.989014 
	C257.949402,84.068748 273.963989,79.690666 291.528778,79.265633 
	C299.479736,79.073242 307.439240,79.233009 315.507141,79.233009 
	C319.393250,63.251755 323.149200,47.805729 326.975189,32.071537 
	C317.028625,30.824644 309.143768,34.956306 301.689056,40.105469 
	C256.221985,71.510742 210.979523,103.245819 165.258652,134.276367 
	C151.229446,143.797913 153.299133,165.944809 161.956650,174.354477 
	C191.710129,203.256134 221.214951,232.413788 250.819534,261.468781 
	C255.583313,266.144135 261.305542,268.820007 268.250854,269.857239 
	C271.537872,256.285980 274.782623,242.918518 278.005066,229.545700 
	C278.388123,227.955963 278.649170,226.336807 278.865753,225.241898 
	C268.159973,223.999329 257.672699,222.782104 246.462479,221.230362 
M426.278290,172.777100 
	C431.848206,168.084518 438.159698,164.022675 442.813660,158.551025 
	C449.735809,150.412704 448.662628,140.606583 441.342316,132.820969 
	C438.946838,130.273254 436.437866,127.832146 433.977722,125.345314 
	C406.574951,97.644928 379.169250,69.947418 351.770325,42.243214 
	C346.665771,37.081772 340.913910,33.173241 333.172913,32.276421 
	C329.336182,47.884892 325.555695,63.264515 321.628387,79.241531 
	C326.017487,79.241531 329.651978,79.248787 333.286407,79.240387 
	C361.873566,79.174255 384.450775,98.727379 376.122162,130.874496 
	C371.709717,147.905869 367.690521,165.038910 363.460022,182.117691 
	C356.416290,210.553604 339.465149,223.941650 310.279236,224.118805 
	C302.293335,224.167282 294.306915,224.126175 285.865082,224.126175 
	C282.089478,239.413162 278.347809,254.562637 274.515442,270.079407 
	C284.521271,270.387909 292.362579,267.081573 299.559113,262.016541 
	C341.612122,232.418976 383.635040,202.778595 426.278290,172.777100 
z"/>
<path fill="#019AFF" opacity="1.000000" stroke="none" 
	d="
M332.937500,212.072296 
	C325.455414,213.653519 318.361786,216.176834 311.207001,216.363953 
	C293.737366,216.820816 276.221893,216.617188 258.757874,215.888153 
	C241.559586,215.170227 230.925110,204.145996 230.931900,186.978363 
	C230.935226,178.598129 232.222244,170.068344 234.091141,161.871399 
	C237.557602,146.667603 241.246307,131.456223 245.998642,116.618286 
	C252.250137,97.099602 266.262299,86.481476 286.885345,85.933746 
	C304.025757,85.478508 321.287537,84.823692 338.320099,86.292274 
	C359.196014,88.092216 374.581116,100.763336 369.402069,127.723419 
	C365.679993,147.099274 360.257355,166.177582 354.948792,185.208832 
	C351.661926,196.992386 344.675781,206.407333 332.937500,212.072296 
M314.265411,116.552940 
	C308.862457,111.593933 302.247314,113.783752 300.156372,121.584770 
	C297.192627,132.642136 294.595978,143.798904 291.912689,154.930115 
	C289.890350,163.319336 287.892792,171.716614 286.063690,180.149231 
	C285.424316,183.096848 285.859863,185.870148 289.459869,186.881927 
	C294.812958,188.386398 299.647705,185.643051 300.967346,180.301010 
	C304.230927,167.089737 307.680176,153.919937 310.664124,140.645660 
	C312.394867,132.946259 313.370087,125.077026 314.265411,116.552940 
z"/>
<path fill="#029AFF" opacity="1.000000" stroke="none" 
	d="
M246.823959,221.397629 
	C257.672699,222.782104 268.159973,223.999329 278.865753,225.241898 
	C278.649170,226.336807 278.388123,227.955963 278.005066,229.545700 
	C274.782623,242.918518 271.537872,256.285980 268.250854,269.857239 
	C261.305542,268.820007 255.583313,266.144135 250.819534,261.468781 
	C221.214951,232.413788 191.710129,203.256134 161.956650,174.354477 
	C153.299133,165.944809 151.229446,143.797913 165.258652,134.276367 
	C210.979523,103.245819 256.221985,71.510742 301.689056,40.105469 
	C309.143768,34.956306 317.028625,30.824644 326.975189,32.071537 
	C323.149200,47.805729 319.393250,63.251755 315.507141,79.233009 
	C307.439240,79.233009 299.479736,79.073242 291.528778,79.265633 
	C273.963989,79.690666 257.949402,84.068748 248.018814,99.989014 
	C243.584000,107.098717 239.815338,114.969193 237.530411,123.002419 
	C232.857193,139.432251 228.901962,156.110779 225.654510,172.881180 
	C224.224808,180.264297 224.331741,188.247665 225.360519,195.736008 
	C227.073700,208.206131 234.319916,216.958664 246.823959,221.397629 
z"/>
<path fill="#029AFF" opacity="1.000000" stroke="none" 
	d="
M425.973206,172.964874 
	C383.635040,202.778595 341.612122,232.418976 299.559113,262.016541 
	C292.362579,267.081573 284.521271,270.387909 274.515442,270.079407 
	C278.347809,254.562637 282.089478,239.413162 285.865082,224.126175 
	C294.306915,224.126175 302.293335,224.167282 310.279236,224.118805 
	C339.465149,223.941650 356.416290,210.553604 363.460022,182.117691 
	C367.690521,165.038910 371.709717,147.905869 376.122162,130.874496 
	C384.450775,98.727379 361.873566,79.174255 333.286407,79.240387 
	C329.651978,79.248787 326.017487,79.241531 321.628387,79.241531 
	C325.555695,63.264515 329.336182,47.884892 333.172913,32.276421 
	C340.913910,33.173241 346.665771,37.081772 351.770325,42.243214 
	C379.169250,69.947418 406.574951,97.644928 433.977722,125.345314 
	C436.437866,127.832146 438.946838,130.273254 441.342316,132.820969 
	C448.662628,140.606583 449.735809,150.412704 442.813660,158.551025 
	C438.159698,164.022675 431.848206,168.084518 425.973206,172.964874 
z"/>
<path fill="#FAFFFF" opacity="1.000000" stroke="none" 
	d="
M314.475342,116.918579 
	C313.370087,125.077026 312.394867,132.946259 310.664124,140.645660 
	C307.680176,153.919937 304.230927,167.089737 300.967346,180.301010 
	C299.647705,185.643051 294.812958,188.386398 289.459869,186.881927 
	C285.859863,185.870148 285.424316,183.096848 286.063690,180.149231 
	C287.892792,171.716614 289.890350,163.319336 291.912689,154.930115 
	C294.595978,143.798904 297.192627,132.642136 300.156372,121.584770 
	C302.247314,113.783752 308.862457,111.593933 314.475342,116.918579 
z"/>
</svg>