<svg width="20" height="20" viewBox="0 0 57 52" fill="none" xmlns="http://www.w3.org/2000/svg">
<path fill-rule="evenodd" clip-rule="evenodd" d="M5.47619 1H46.4256C48.8876 1 50.9018 3.01419 50.9018 5.47619V46.5914C50.9018 49.0534 48.8876 51.0676 46.4256 51.0676H5.47619C3.01419 51.0676 1 49.0534 1 46.5914V5.47619C1 3.01419 3.01419 1 5.47619 1V1Z" stroke="#008348" stroke-width="1.5164"/>
<path fill-rule="evenodd" clip-rule="evenodd" d="M7.64449 3.6268H44.4794C46.694 3.6268 48.5058 5.4386 48.5058 7.6532V44.6374C48.5058 46.852 46.694 48.6638 44.4794 48.6638H7.64449C5.4299 48.6638 3.61809 46.852 3.61809 44.6374V7.6532C3.61809 5.43861 5.42989 3.6268 7.64449 3.6268V3.6268Z" stroke="#008348" stroke-width="0.327499"/>
<path fill-rule="evenodd" clip-rule="evenodd" d="M7.64449 3.6268H44.4794C46.694 3.6268 48.5058 5.4386 48.5058 7.6532V44.6374C48.5058 46.852 46.694 48.6638 44.4794 48.6638H7.64449C5.4299 48.6638 3.61809 46.852 3.61809 44.6374V7.6532C3.61809 5.43861 5.42989 3.6268 7.64449 3.6268V3.6268Z" fill="#008348"/>
<path fill-rule="evenodd" clip-rule="evenodd" d="M44.2475 23.1803C35.9595 18.889 30.963 21.5102 26.6503 25.5663C19.606 32.8217 17.6179 39.3838 20.6851 45.2514C21.6298 45.3008 23.0205 45.3506 23.9647 45.4005C20.4612 36.7635 23.507 30.1464 29.0346 26.0206C30.709 24.7713 32.5566 23.4278 34.6427 23.1601C49.5165 21.2489 44.4938 38.3652 37.835 44.0583C41.0479 37.9655 41.6427 33.4336 39.753 30.4631C37.3107 26.621 32.9674 26.2969 29.3269 28.692C23.3024 32.6545 21.6104 39.826 26.0538 46.2953C21.3315 46.2454 16.6092 46.1956 11.8865 46.1461C14.9198 37.5916 19.3494 31.1967 24.5625 26.0138C29.4386 20.6662 31.6575 14.888 28.7059 8.48916C28.0337 7.03316 25.4581 6.69016 26.4483 9.08916C30.0996 17.9204 22.7592 31.0764 10.6217 29.9573C6.51526 29.5791 5.08627 25.6678 5.29907 21.5368C5.53537 16.9469 8.77588 12.5255 15.0182 7.74351C5.45246 15.7393 7.97386 30.1713 19.5665 24.9698C25.6081 21.6224 29.1576 15.2794 23.6677 6.4778C28.2654 6.47479 32.8634 6.47139 37.4615 6.4679C35.6028 10.9534 33.744 15.4393 31.8853 19.9252C36.2221 19.7765 40.5593 19.6278 44.8965 19.4791C46.2202 19.6381 46.5094 18.7623 47.9074 18.9587C48.4773 18.5869 49.3059 18.4369 49.5805 17.8434C49.9475 16.8313 49.0579 16.7806 48.2422 17.0256C47.3805 17.7364 45.7749 17.4532 44.8965 18.1408C43.14 18.5091 41.9749 18.3355 41.402 17.6204C40.0638 17.6449 38.7255 17.6698 37.3872 17.6947C38.459 15.325 40.6873 14.0512 43.6325 13.4568C44.3232 13.9037 44.5711 14.4985 44.376 15.2412C45.8682 15.0345 47.0715 13.6876 48.6883 13.4568C49.1834 13.5578 49.6789 14.0529 50.1753 14.9438C50.7697 14.6464 51.3645 14.3481 51.9593 14.0512C52.8175 13.6223 54.8396 12.3209 54.9337 14.1259C54.8155 15.0916 53.6143 16.0586 52.4801 17.0256C53.2812 19.0094 52.8201 20.4083 49.5805 20.52C48.7627 20.6189 47.9448 20.7181 47.127 20.8174C47.2125 22.9263 46.2524 23.714 44.2475 23.1803L44.2475 23.1803Z" stroke="#008348" stroke-width="3.0324" stroke-linecap="round" stroke-linejoin="round"/>
<path fill-rule="evenodd" clip-rule="evenodd" d="M44.2475 23.1803C35.9595 18.889 30.963 21.5102 26.6503 25.5663C19.606 32.8217 17.6179 39.3838 20.6851 45.2514C21.6298 45.3008 23.0205 45.3506 23.9647 45.4005C20.4612 36.7635 23.507 30.1464 29.0346 26.0206C30.709 24.7713 32.5566 23.4278 34.6427 23.1601C49.5165 21.2489 44.4938 38.3652 37.835 44.0583C41.0479 37.9655 41.6427 33.4336 39.753 30.4631C37.3107 26.621 32.9674 26.2969 29.3269 28.692C23.3024 32.6545 21.6104 39.826 26.0538 46.2953C21.3315 46.2454 16.6092 46.1956 11.8865 46.1461C14.9198 37.5916 19.3494 31.1967 24.5625 26.0138C29.4386 20.6662 31.6575 14.888 28.7059 8.48916C28.0337 7.03316 25.4581 6.69016 26.4483 9.08916C30.0996 17.9204 22.7592 31.0764 10.6217 29.9573C6.51526 29.5791 5.08627 25.6678 5.29907 21.5368C5.53537 16.9469 8.77588 12.5255 15.0182 7.74351C5.45246 15.7393 7.97386 30.1713 19.5665 24.9698C25.6081 21.6224 29.1576 15.2794 23.6677 6.4778C28.2654 6.47479 32.8634 6.47139 37.4615 6.4679C35.6028 10.9534 33.744 15.4393 31.8853 19.9252C36.2221 19.7765 40.5593 19.6278 44.8965 19.4791C46.2202 19.6381 46.5094 18.7623 47.9074 18.9587C48.4773 18.5869 49.3059 18.4369 49.5805 17.8434C49.9475 16.8313 49.0579 16.7806 48.2422 17.0256C47.3805 17.7364 45.7749 17.4532 44.8965 18.1408C43.14 18.5091 41.9749 18.3355 41.402 17.6204C40.0638 17.6449 38.7255 17.6698 37.3872 17.6947C38.459 15.325 40.6873 14.0512 43.6325 13.4568C44.3232 13.9037 44.5711 14.4985 44.376 15.2412C45.8682 15.0345 47.0715 13.6876 48.6883 13.4568C49.1834 13.5578 49.6789 14.0529 50.1753 14.9438C50.7697 14.6464 51.3645 14.3481 51.9593 14.0512C52.8175 13.6223 54.8396 12.3209 54.9337 14.1259C54.8155 15.0916 53.6143 16.0586 52.4801 17.0256C53.2812 19.0094 52.8201 20.4083 49.5805 20.52C48.7627 20.6189 47.9448 20.7181 47.127 20.8174C47.2125 22.9263 46.2524 23.714 44.2475 23.1803L44.2475 23.1803Z" fill="#008348"/>
<path fill-rule="evenodd" clip-rule="evenodd" d="M44.2475 23.1803C35.9595 18.889 30.963 21.5102 26.6503 25.5663C19.606 32.8217 17.6179 39.3838 20.6851 45.2514C21.6298 45.3008 23.0205 45.3506 23.9647 45.4005C20.4612 36.7635 23.507 30.1464 29.0346 26.0206C30.709 24.7713 32.5566 23.4278 34.6427 23.1601C49.5165 21.2489 44.4938 38.3652 37.835 44.0583C41.0479 37.9655 41.6427 33.4336 39.753 30.4631C37.3107 26.621 32.9674 26.2969 29.3269 28.692C23.3024 32.6545 21.6104 39.826 26.0538 46.2953C21.3315 46.2454 16.6092 46.1956 11.8865 46.1461C14.9198 37.5916 19.3494 31.1967 24.5625 26.0138C29.4386 20.6662 31.6575 14.888 28.7059 8.48916C28.0337 7.03316 25.4581 6.69016 26.4483 9.08916C30.0996 17.9204 22.7592 31.0764 10.6217 29.9573C6.51526 29.5791 5.08627 25.6678 5.29907 21.5368C5.53537 16.9469 8.77588 12.5255 15.0182 7.74351C5.45246 15.7393 7.97386 30.1713 19.5665 24.9698C25.6081 21.6224 29.1576 15.2794 23.6677 6.4778C28.2654 6.47479 32.8634 6.47139 37.4615 6.4679C35.6028 10.9534 33.744 15.4393 31.8853 19.9252C36.2221 19.7765 40.5593 19.6278 44.8965 19.4791C46.2202 19.6381 46.5094 18.7623 47.9074 18.9587C48.4773 18.5869 49.3059 18.4369 49.5805 17.8434C49.9475 16.8313 49.0579 16.7806 48.2422 17.0256C47.3805 17.7364 45.7749 17.4532 44.8965 18.1408C43.14 18.5091 41.9749 18.3355 41.402 17.6204C40.0638 17.6449 38.7255 17.6698 37.3872 17.6947C38.459 15.325 40.6873 14.0512 43.6325 13.4568C44.3232 13.9037 44.5711 14.4985 44.376 15.2412C45.8682 15.0345 47.0715 13.6876 48.6883 13.4568C49.1834 13.5578 49.6789 14.0529 50.1753 14.9438C50.7697 14.6464 51.3645 14.3481 51.9593 14.0512C52.8175 13.6223 54.8396 12.3209 54.9337 14.1259C54.8155 15.0916 53.6143 16.0586 52.4801 17.0256C53.2812 19.0094 52.8201 20.4083 49.5805 20.52C48.7627 20.6189 47.9448 20.7181 47.127 20.8174C47.2125 22.9263 46.2524 23.714 44.2475 23.1803L44.2475 23.1803Z" stroke="#EBC82A" stroke-width="0.327499"/>
<path fill-rule="evenodd" clip-rule="evenodd" d="M44.2475 23.1803C35.9595 18.889 30.963 21.5102 26.6503 25.5663C19.606 32.8217 17.6179 39.3838 20.6851 45.2514C21.6298 45.3008 23.0205 45.3506 23.9647 45.4005C20.4612 36.7635 23.507 30.1464 29.0346 26.0206C30.709 24.7713 32.5566 23.4278 34.6427 23.1601C49.5165 21.2489 44.4938 38.3652 37.835 44.0583C41.0479 37.9655 41.6427 33.4336 39.753 30.4631C37.3107 26.621 32.9674 26.2969 29.3269 28.692C23.3024 32.6545 21.6104 39.826 26.0538 46.2953C21.3315 46.2454 16.6092 46.1956 11.8865 46.1461C14.9198 37.5916 19.3494 31.1967 24.5625 26.0138C29.4386 20.6662 31.6575 14.888 28.7059 8.48916C28.0337 7.03316 25.4581 6.69016 26.4483 9.08916C30.0996 17.9204 22.7592 31.0764 10.6217 29.9573C6.51526 29.5791 5.08627 25.6678 5.29907 21.5368C5.53537 16.9469 8.77588 12.5255 15.0182 7.74351C5.45246 15.7393 7.97386 30.1713 19.5665 24.9698C25.6081 21.6224 29.1576 15.2794 23.6677 6.4778C28.2654 6.47479 32.8634 6.47139 37.4615 6.4679C35.6028 10.9534 33.744 15.4393 31.8853 19.9252C36.2221 19.7765 40.5593 19.6278 44.8965 19.4791C46.2202 19.6381 46.5094 18.7623 47.9074 18.9587C48.4773 18.5869 49.3059 18.4369 49.5805 17.8434C49.9475 16.8313 49.0579 16.7806 48.2422 17.0256C47.3805 17.7364 45.7749 17.4532 44.8965 18.1408C43.14 18.5091 41.9749 18.3355 41.402 17.6204C40.0638 17.6449 38.7255 17.6698 37.3872 17.6947C38.459 15.325 40.6873 14.0512 43.6325 13.4568C44.3232 13.9037 44.5711 14.4985 44.376 15.2412C45.8682 15.0345 47.0715 13.6876 48.6883 13.4568C49.1834 13.5578 49.6789 14.0529 50.1753 14.9438C50.7697 14.6464 51.3645 14.3481 51.9593 14.0512C52.8175 13.6223 54.8396 12.3209 54.9337 14.1259C54.8155 15.0916 53.6143 16.0586 52.4801 17.0256C53.2812 19.0094 52.8201 20.4083 49.5805 20.52C48.7627 20.6189 47.9448 20.7181 47.127 20.8174C47.2125 22.9263 46.2524 23.714 44.2475 23.1803L44.2475 23.1803Z" fill="#EBC82A"/>
</svg>
