<svg
  width="20"
  height="20"
  viewBox="0 0 18 16"
  fill="none"
  xmlns="http://www.w3.org/2000/svg"
>
<g clipPath="url(#clip0_5_2943)">
<path
      d="M4.61609 14.0457C5.12025 14.6201 5.73344 15.0886 6.42009 15.4241C7.10673 15.7596 7.85317 15.9555 8.61609 16.0003C9.52757 15.9519 10.3875 15.5624 11.0252 14.9093C12.2829 13.8321 13.6034 12.8303 14.9797 11.9093L15.7525 11.5912C16.0706 11.4548 16.6161 11.1366 17.1161 10.5457C17.6615 9.81844 17.7525 9.04571 17.7525 8.77298C17.692 7.91284 17.4102 7.08294 16.9343 6.36389C15.6924 8.57669 13.9127 10.4406 11.7596 11.7833C9.60648 13.126 7.14959 13.9041 4.61609 14.0457Z"
      fill="#0293D6"
    />
<path
      d="M6.34338 1.13664C6.6827 0.778227 7.09143 0.49264 7.54468 0.297277C7.99792 0.101913 8.48619 0.000860685 8.97975 0.0002758C9.29245 -0.0206619 9.6062 0.0207984 9.90273 0.122244C10.1993 0.22369 10.4727 0.383095 10.707 0.591185C12.0108 1.51488 13.5639 2.02199 15.1616 2.04573C15.5707 2.09119 16.3888 2.22755 16.9343 2.90937C17.3434 3.45482 17.3888 4.04573 17.3888 4.31846C17.3522 5.02082 17.1986 5.71215 16.9343 6.36391L6.34338 1.13664Z"
      fill="#EBE638"
    />
<path
      d="M4.61608 14.0458C4.20699 14.0004 3.66153 13.864 3.02517 13.5913C2.3888 13.3186 1.61608 13.0004 1.11608 12.1367C0.797896 11.5913 0.752441 11.0458 0.752441 10.6822C0.763539 9.71782 0.996856 8.769 1.43426 7.90946C1.86944 6.84707 2.15991 5.73102 2.2979 4.59128L2.52517 3.68219C2.66153 3.22764 2.75244 2.7731 3.07062 2.31855L3.57062 1.7731C4.39646 1.25388 5.37376 1.02958 6.34335 1.13673C5.04505 2.99396 4.2107 5.13526 3.91017 7.38127C3.60965 9.62728 3.85171 11.9126 4.61608 14.0458Z"
      fill="#BAD147"
    />
<path
      d="M6.34333 1.1366C6.29788 1.1366 8.79788 1.27296 10.3433 1.81841L11.6161 2.36387C11.1161 2.31841 7.93424 2.18205 5.52515 4.59114C2.47969 7.68205 3.47969 11.9093 3.52514 12.1366C2.81939 11.2487 2.46361 10.1328 2.52514 9.00023C2.58498 7.49707 2.95507 6.02252 3.61215 4.66925C4.26923 3.31598 5.1991 2.11324 6.34333 1.1366Z"
      fill="#78B650"
    />
<path
      d="M12.4343 12.3639C13.2942 10.8007 13.6752 9.01898 13.5297 7.24079C13.3842 5.4626 12.7187 3.76653 11.6161 2.36389C12.9327 2.58402 14.1438 3.22141 15.0706 4.18207C15.6161 4.63662 16.2979 5.31844 16.9343 6.36389C16.0355 8.75121 14.4744 10.8326 12.4343 12.3639Z"
      fill="#2F8260"
    />
<path
      d="M13.8889 4.3638C13.1616 3.13653 12.1161 2.59107 11.6616 2.3638C11.298 2.27289 7.88886 1.72743 5.29795 4.22743C3.20704 6.22743 3.07068 8.81834 3.07068 9.31834C3.0803 11.0314 3.65556 12.6932 4.70704 14.0456C6.05827 14.3058 7.44672 14.3058 8.79795 14.0456C9.47977 13.9093 11.0707 13.6365 12.4343 12.4547C12.6161 12.2729 14.6161 10.4093 14.7525 7.45471C14.7525 6.95471 14.7525 5.68198 13.8889 4.3638ZM12.2525 10.9547C11.8304 11.4139 11.3175 11.7803 10.7463 12.0307C10.175 12.2811 9.558 12.41 8.93431 12.4093C8.66159 12.4093 6.84341 12.3638 5.57068 10.8638C5.38886 10.6365 4.47977 9.54562 4.52522 7.90925C4.61613 5.72743 6.34341 4.45471 6.70704 4.18198C7.02522 3.95471 7.79795 3.45471 8.93431 3.40925C9.20704 3.3638 10.1616 3.31834 11.1161 3.8638C13.207 5.00016 13.298 7.72743 13.298 7.90925C13.298 8.40925 13.298 9.77289 12.2525 10.9547Z"
      fill="#085229"
    />
</g>
<defs>
<clipPath id="clip0_5_2943">
<rect
        width="17"
        height="16"
        fill="white"
        transform="translate(0.752441 0.000244141)"
      />
</clipPath>
</defs>
</svg>
