<svg
  width="20"
  height="20"
  viewBox="0 0 55 53"
  fill="none"
  xmlns="http://www.w3.org/2000/svg"
>
<g clipPath="url(#clip0_116_19)">
<path
      fill-rule="evenodd"
      clip-rule="evenodd"
      d="M26.6 6.60001C53.8 6.60001 53.8 47.3 26.6 47.3C-0.500025 47.4 -0.500025 6.60001 26.6 6.60001ZM-398.3 12.1C-395.6 12.1 -393.2 12.6 -391.3 13.7C-389.5 14.8 -388.5 16.3 -388.4 18.1C-388.5 19.1 -389 20 -389.6 20.7C-390.3 21.3 -391.3 21.7 -392.3 21.6C-392.7 21.6 -393.1 21.5 -393.5 21.3C-394 21.1 -394.4 20.9 -394.7 20.5C-395.7 19.3 -396.7 18.4 -398.1 17.4C-399.5 16.5 -401.1 16 -402.7 16.1C-404.2 16.1 -405.5 16.6 -406.8 17.6C-408 18.5 -409.1 19.9 -409.8 21.6C-410.9 25.2 -411.6 29 -411.8 32.8C-412 34.8 -412 36.8 -412 38.4V41.4C-412 42.6 -412 43.4 -411.8 43.8C-411.6 44.2 -411.1 44.4 -410.2 44.2H-398.8C-398.4 44.6 -398.3 45 -398.3 45.7L-398.5 47.1L-398.6 47.5C-398.9 47.9 -399.2 48.2 -399.7 48.4H-410.3C-411.2 48.3 -411.7 48.6 -411.9 49C-412.1 49.3 -412.1 50.1 -412.1 51.3V72.6C-412.1 74.9 -412.1 76.7 -411.9 77.9C-411.7 79.1 -411.4 80 -410.9 80.5C-410.4 80.9 -409.4 81.2 -408.2 81.3L-404.7 81.6C-404.3 81.9 -404.1 82.2 -404.3 82.9C-404.4 83.4 -404.6 83.9 -404.8 84.1L-410.6 83.7H-420.9L-425.4 84.1C-425.8 83.8 -425.9 83.4 -426.1 82.9C-426.1 82.2 -425.9 81.8 -425.5 81.6L-423.2 81.3C-422 81.2 -421.2 80.9 -420.6 80.3C-420 79.9 -419.8 79.1 -419.6 77.8C-419.3 76.6 -419.3 74.8 -419.5 72.5V51.2C-419.4 50 -419.4 49.2 -419.6 49C-419.8 48.6 -420.5 48.3 -421.4 48.4H-425C-425.3 48.1 -425.4 47.9 -425.4 47.6C-425.5 47.2 -425.4 46.8 -425.3 46.5L-421 44.4C-420.6 44.3 -420.3 44 -420 43.7C-419.7 43.3 -419.6 42.9 -419.6 42.4C-419.6 36.3 -418.5 30.3 -416.4 24.7C-415.5 22.8 -414.3 20.9 -412.9 18.9C-411.3 16.9 -409.2 15.3 -407 14.1C-404.2 12.9 -401.3 12.1 -398.3 12.1ZM-322.4 47.5C-322.3 47.9 -322.1 48.2 -321.9 48.5H-319.2C-318.2 48.4 -317.6 48.7 -317.3 49.1C-317.1 49.4 -317 50.2 -317 51.4V74.3C-317.1 76.3 -316.9 78.2 -316.3 79.7C-315.6 81.3 -314.7 82.7 -313.2 83.6C-309.1 85.7 -304.2 85.6 -300.1 83.5C-298.3 82.5 -297 81.6 -296.2 80.4C-296.1 80.1 -296.1 79.9 -296.4 79.4C-296.5 79 -296.8 78.8 -297.2 78.8C-297.3 78.8 -297.7 79.1 -298.3 79.4C-298.8 79.7 -299.3 80 -299.8 80.1C-300 80.2 -300.2 80.3 -300.3 80.4C-300.5 80.5 -300.7 80.6 -300.8 80.7C-301.4 80.8 -301.9 80.8 -302.2 80.8C-304.3 80.7 -306 80.2 -307 79.1C-308.2 78 -308.9 76.6 -309.1 75C-309.5 73.4 -309.6 71.6 -309.6 69.6V51C-309.6 50.1 -309.4 49.4 -309.2 49C-309.1 48.6 -308.6 48.5 -307.6 48.6H-296.6C-296.1 48.2 -295.8 47.5 -295.8 46.6C-295.6 45.7 -295.9 44.9 -296.6 44.5H-307.6C-308.4 44.5 -308.9 44.4 -309.1 44.2C-309.2 44.1 -309.4 43.6 -309.4 42.6V38C-309.6 37.6 -310 37.4 -310.5 37.5C-311 37.3 -311.4 37.3 -311.6 37.5C-312.2 38.6 -312.9 39.6 -313.6 40.7C-314.2 41.7 -314.9 42.5 -315.8 43.3C-316.3 43.8 -317.1 44.4 -318.4 44.9C-319.5 45.6 -320.7 46 -322.2 46.4C-322.3 46.7 -322.4 47.1 -322.4 47.5ZM-364.7 54.6C-364.7 55.4 -364.7 56 -364.8 56.4L-365 56.8L-365.1 57.3C-365.2 57.5 -365.6 57.7 -366.6 57.8C-367.6 57.9 -369.1 57.9 -371.1 57.9H-389.6C-390.8 57.7 -391.5 57.9 -391.8 58.2C-392.2 58.6 -392.3 59.4 -392.2 60.6C-392.2 64 -391.5 67 -390.3 69.9C-387.8 75.8 -381.9 79.5 -375.6 79.2C-374 79.4 -372.5 78.9 -371.2 78.3C-369.6 77.6 -368.1 76.4 -366.6 74.4C-365.9 74.2 -365.5 74.4 -365.2 74.5C-364.9 74.8 -364.8 75.2 -364.6 75.6C-365.9 77.7 -367.2 79.5 -369 81C-374.8 85.3 -382.5 86.1 -389 83.1C-391.3 82 -393.4 80.4 -394.9 78.4C-397.7 74.7 -399.1 70.1 -399 65.4C-399 61.2 -398.2 57.5 -396.6 54.1C-393.4 47.3 -386.6 43 -379.1 42.8C-376.1 42.9 -373.5 43.4 -371.4 44.5C-369.4 45.7 -367.7 47.2 -366.5 49C-365.2 50.8 -364.7 52.7 -364.7 54.6ZM-372.3 52.1C-372.3 51.2 -372.6 50.2 -373 49.2C-373.5 48.2 -374.4 47.4 -375.5 47C-376.9 46.2 -378.5 45.9 -380 45.9C-382 45.9 -384 46.4 -385.5 47.4C-387.2 48.4 -388.6 49.5 -389.7 50.9C-390.6 52.1 -391.2 53.3 -391.3 54.5C-391.3 54.7 -391.3 54.7 -391.2 54.8C-391 55 -390.9 55 -390.5 55H-383.5C-379.8 55 -377.2 54.8 -375.6 54.7C-374.1 54.5 -373.3 54.4 -373 54.2C-372.8 54 -372.6 53.8 -372.6 53.5C-372.4 53 -372.3 52.6 -372.3 52.1ZM-332.9 43.2C-339.1 42.1 -345.4 43.1 -351 46.2C-354.3 48.2 -357.1 51.1 -359 54.5C-361.9 60.4 -362.3 67.3 -360 73.5C-358.9 76.1 -357.5 78.2 -355.8 79.8C-354 81.6 -351.9 82.8 -349.6 83.5C-345.2 85.2 -340.4 85.4 -335.9 83.9C-333.9 83.3 -331.8 82 -329.8 80.5C-327.9 79 -326.4 77 -325.3 74.6C-325.4 74.2 -325.6 73.8 -325.9 73.6C-326.2 73.2 -326.6 73 -327.1 73.2C-328.2 74.9 -329.6 76.3 -331.3 77.5C-333 78.6 -335.2 79.1 -338.1 79.1C-344.3 79.3 -350 75.7 -352.5 70C-353.7 67.5 -354.4 64.9 -354.4 62.1C-354.2 58.5 -353.6 55.5 -352.4 53.1C-351.1 50.8 -349.3 49 -347.2 47.8C-345.2 46.6 -342.9 46 -340.6 46C-338.6 46 -336.5 46.5 -334.7 47.6C-333 48.6 -331.7 49.7 -330.5 51.1C-330.2 51.4 -330 51.6 -329.7 51.7H-329C-328.4 51.7 -327.9 51.3 -327.5 50.6C-327.1 49.9 -326.8 49 -326.8 48C-326.8 47.2 -326.9 46.4 -327.2 45.7C-327.5 45.1 -327.8 44.5 -328.4 44.1C-329.8 44 -331.3 43.7 -332.9 43.2ZM-19.6 43.8C-20 43.9 -20.2 44.4 -20.3 44.9C-20.3 45.6 -20.2 46 -19.9 46.2L-16.8 46.7C-15.9 46.9 -15.3 47.1 -14.9 47.4C-14.5 47.7 -14.3 47.9 -14.3 48.4C-14.3 49 -14.6 50.2 -15.3 51.9L-15.4 52.2L-17.9 58.5L-21.3 66.5L-21.5 67L-23.7 71.7C-24.4 73.2 -24.8 73.8 -25 73.8C-25.9 71.9 -26.8 70 -27.5 68L-27.9 66.8L-31 57.6L-31.1 57.3C-31.5 56.4 -31.8 55.5 -32 54.6L-32.6 52.8L-33.2 50.9C-33.5 50 -33.7 49.1 -33.7 48.2C-33.7 47.9 -33.6 47.6 -33.3 47.4H-33.2L-33 47.3C-32.7 47.2 -32.2 47 -31.6 46.9L-29.1 46.4C-28.7 46.1 -28.6 45.8 -28.7 45.1C-28.7 44.6 -29 44.1 -29.3 44C-30 44.1 -30.8 44.1 -31.5 44.1L-33.8 44.3H-42.8C-43.6 44.2 -44.4 44.2 -45.2 44.1L-47.5 44C-47.9 44.1 -48.2 44.6 -48.2 45.1C-48.3 45.8 -48.2 46.2 -47.9 46.4L-45.3 46.9C-43.5 47.3 -42.3 48.1 -41.6 49.4C-40.9 50.6 -40.1 52.4 -39.5 54.7L-31.5 76.2C-30.9 78 -30.4 79.3 -30.2 80.3V80.4C-30.1 81.3 -29.9 82.2 -29.9 83.1C-29.9 83.8 -30.1 84.6 -30.3 85.4C-30.4 86 -30.6 86.6 -30.8 87.2V87.3L-30.9 87.4C-31.3 88.6 -32.1 90.2 -33 92C-34 94 -35.2 96.2 -36.7 98.5C-37.1 99 -37.5 99.4 -38 99.8C-38.6 100.1 -39.3 100.2 -40 100.2H-41.9C-43 100.2 -43.9 100.6 -44.7 101.3C-45.4 102.1 -45.8 103.2 -45.9 104.3C-45.9 105.5 -45.5 106.6 -44.7 107.4C-43.9 108.1 -42.8 108.5 -41.5 108.5C-40.2 108.7 -39.1 108.4 -38.1 107.7C-36.9 107.1 -36 105.7 -35 103.8L-33.4 100.3L-30.8 94.7L-29 90.7L-26.2 84.8C-24.8 81.5 -23.4 78.5 -22 75.7L-21.9 75.4C-20.5 72.7 -19.4 70.4 -18.7 68.6L-13.1 57.2C-11.3 53.7 -9.99999 51.1 -8.79999 49.5C-7.49999 47.9 -6.09998 46.9 -4.59998 46.5L-2.79999 46.2C-2.39999 45.8 -2.29999 45.4 -2.29999 44.9C-2.49999 44.4 -2.69998 43.9 -3.09998 43.8L-5 43.9L-6.90002 44.1H-15L-17.4 43.9L-19.6 43.8ZM-445.3 41.6C-445.1 41.8 -445.1 42 -445 42.2V47.9C-445 48.3 -444.8 48.7 -444.7 48.9C-442.9 47.4 -441 45.9 -439.1 44.7C-437.4 43.5 -435.5 42.9 -433.6 42.8C-432.4 43 -431.3 43.3 -430.5 44C-429.5 44.7 -429.2 45.6 -429.2 47C-429.3 48.4 -429.9 49.7 -430.7 50.5C-431.5 51.1 -432.5 51.4 -433.5 51.5C-434.1 51.5 -434.5 51.5 -434.8 51.3C-434.9 51.3 -435 51.2 -435.1 51.1C-435.3 51 -435.5 50.8 -435.7 50.7C-436.4 50.2 -437.2 49.8 -438 49.5C-438.7 49.2 -439.4 49.1 -440.1 49.1C-440.8 49 -441.5 49.2 -442.1 49.7C-442.7 50 -443.2 50.6 -443.6 51.2C-444 51.9 -444.5 52.8 -444.7 54.3C-444.8 55.6 -445 57.1 -445 58.9V72.5C-445 74.8 -445 76.6 -444.8 77.8C-444.7 79 -444.3 79.9 -443.6 80.4C-443.2 80.8 -442.3 81.1 -441.1 81.2L-437.4 81.5C-437 81.8 -436.9 82.1 -437 82.8C-437 83.3 -437.2 83.8 -437.5 84L-443.4 83.6H-453.6L-457.9 84C-458.2 83.7 -458.3 83.3 -458.4 82.8C-458.6 82.1 -458.4 81.7 -458 81.5L-456 81.2C-454.9 81.1 -454.1 80.7 -453.6 80.2C-453.1 79.8 -452.6 79 -452.5 77.7C-452.3 76.5 -452.3 74.7 -452.5 72.4V55C-452.3 53.7 -452.3 52.9 -452.5 52.2C-452.5 51.5 -452.7 50.8 -453.1 50.3C-453.6 49.7 -454.3 49.3 -455 49L-456 48.2C-456.1 48 -456.3 47.8 -456.3 47.4C-456.3 47 -456.2 46.5 -455.8 46.4L-455.5 46.3C-454.3 45.9 -453.1 45.3 -452 44.7L-449.1 43.3L-449 43.2C-447.7 42.6 -446.6 42.1 -445.9 41.5C-445.6 41.5 -445.4 41.5 -445.3 41.6ZM-461.1 56.4C-461 56 -461 55.3 -461 54.6C-461 52.6 -461.6 50.7 -462.8 48.9C-464.1 47.1 -465.7 45.6 -467.6 44.4C-469.7 43.3 -472.3 42.8 -475.2 42.7C-478.9 42.8 -482.6 43.9 -485.8 45.9C-488.8 47.9 -491.1 50.6 -492.8 53.9C-495.5 59.6 -496 66 -494.3 72C-493 76.8 -489.8 80.8 -485.3 82.9C-482.7 84.1 -479.8 84.6 -476.5 84.8C-472.4 84.7 -468.4 83.3 -465.1 80.9C-463.3 79.4 -462 77.7 -460.8 75.5C-460.9 75.1 -461 74.6 -461.3 74.4C-461.7 74.2 -462.2 74.2 -462.6 74.3C-464.7 77.3 -468.1 79.1 -471.8 79.1C-478.1 79.4 -484 75.7 -486.4 69.8C-487.7 66.9 -488.3 63.7 -488.3 60.5C-488.4 59.3 -488.3 58.5 -487.9 58.1C-487.6 57.8 -486.9 57.7 -485.8 57.8H-467.3C-465.3 57.8 -463.8 57.8 -462.8 57.6C-461.8 57.5 -461.5 57.3 -461.3 57.1L-461.2 56.6C-461.2 56.8 -461.2 56.6 -461.1 56.4ZM-469.3 49.3C-468.8 50.3 -468.6 51.2 -468.8 52.2C-468.8 52.9 -468.8 53.3 -468.9 53.5C-469 53.9 -469.2 54 -469.3 54.2C-469.6 54.5 -470.5 54.6 -472 54.7C-473.5 54.8 -476.1 55 -479.7 55H-486.8C-487.2 55 -487.3 55 -487.4 54.8C-487.6 54.7 -487.6 54.7 -487.6 54.5C-487.4 53.3 -486.9 52.1 -486 50.9C-484.9 49.5 -483.6 48.3 -481.8 47.4C-480.2 46.4 -478.3 45.9 -476.4 45.9C-474.3 45.9 -472.9 46.3 -471.7 47C-470.5 47.6 -469.6 48.4 -469.3 49.3ZM-120.2 41.6C-120.5 41.4 -120.8 41.4 -120.9 41.4C-121.8 42.1 -122.8 42.7 -123.7 43.2L-125.3 44C-127.1 44.9 -129 45.8 -130.8 46.4C-131.1 46.5 -131.2 46.9 -131.2 47.4C-131.2 47.8 -131.1 48 -130.9 48.2L-130 48.7L-129.4 49.1C-128.9 49.6 -128.3 50 -128.1 50.3C-127.7 50.8 -127.6 51.1 -127.6 51.6L-127.5 51.7C-127.4 52.2 -127.4 53.3 -127.4 54.4V72.6C-127.3 74.9 -127.4 76.7 -127.6 77.9C-127.7 79.1 -128 79.9 -128.5 80.4C-129 80.9 -129.8 81.2 -131.1 81.4L-133.2 81.7C-133.5 82 -133.6 82.3 -133.5 83C-133.5 83.5 -133.4 84 -133 84.2L-128.6 83.8H-118.7L-114.7 84.2C-114.3 83.9 -114.1 83.5 -114.1 83C-114.1 82.3 -114.2 81.9 -114.5 81.7L-116.3 81.4C-117.5 81.3 -118.4 80.9 -119 80.4C-119.6 79.7 -119.9 78.8 -120 77.9C-120.1 76.7 -120.1 74.9 -120.1 72.6V57.3C-120.1 55 -120.1 53.1 -118.8 51.2C-118.2 50.2 -116.9 49.3 -115.3 48.6C-113.8 47.9 -112.2 47.7 -110.2 47.7C-106.9 47.8 -104.6 48.8 -103.1 50.5C-101.6 52.5 -100.8 55.1 -101 57.6V72.6C-101 74.9 -101 76.7 -101.2 77.9C-101.2 78.8 -101.6 79.7 -102.1 80.4C-102.9 80.9 -103.8 81.2 -104.8 81.4L-106.7 81.7C-107 82 -107.1 82.3 -107.1 83C-107 83.5 -106.8 84 -106.5 84.2L-102.2 83.8H-92.4L-89.6 84.1L-87.8 84.3C-87.5 84 -87.3 83.6 -87.1 83.1C-87.1 82.4 -87.3 82 -87.6 81.8L-89.7 81.5C-90.7 81.5 -91.6 81.1 -92.4 80.5C-93 79.8 -93.3 78.9 -93.4 78C-93.5 76.8 -93.5 75 -93.5 72.7V55.4C-93.5 53.1 -93.9 51.1 -94.7 49.3C-95.5 47.4 -96.8 45.8 -98.4 44.7C-100.2 43.6 -102.3 43.1 -105.1 42.9C-107.7 43.1 -110.1 43.6 -112.4 44.5C-114.7 45.5 -117 46.7 -119.2 48C-119.5 48 -119.7 47.9 -119.8 47.7C-120 47.5 -120 47.3 -120.1 47.1V45.1C-120.1 44.4 -120.1 43.5 -120 42.4C-119.9 42.1 -120 41.8 -120.2 41.6ZM-135 63.4C-135 67.3 -135.9 71.2 -137.7 74.6C-139.4 77.8 -142.1 80.4 -145.2 82.2C-148.6 84 -152.4 84.9 -156.3 84.9C-159.9 84.9 -163.5 84 -166.7 82.4C-169.7 80.8 -172.1 78.4 -173.9 75.4C-175.9 72.1 -176.9 68.3 -176.7 64.4C-176.7 60.1 -175.8 56.4 -173.9 53.2C-172.1 50 -169.4 47.4 -166.2 45.7C-163.1 43.9 -159.4 43 -155.4 42.9C-151.9 43 -148.4 43.8 -145.2 45.4C-142.1 47.2 -139.7 49.6 -137.9 52.7C-136.1 55.8 -135.1 59.4 -135 63.4ZM-144.8 56.3C-145.7 53.3 -147.1 50.9 -149 49C-150.8 47 -153.3 45.9 -156.4 45.9C-159.8 45.9 -162.6 47.4 -164.7 50.5C-166.8 53.3 -167.9 57.6 -168.1 63.1C-168.1 66.2 -167.6 69.2 -166.6 72.2C-165.7 75.1 -164.3 77.3 -162.3 79.2C-160.5 81 -158.1 81.9 -155.1 81.9C-152.2 81.9 -150 81.1 -148.2 79.3C-145 75.2 -143.4 70.2 -143.6 65C-143.5 62.1 -143.9 59.1 -144.8 56.3ZM-78.2 58.3C-77.8 58 -77.1 57.9 -75.8 58H-57C-55 58 -53.5 58 -52.6 57.8C-50.7 57.5 -50.7 56.4 -50.7 54.6C-50.7 52.6 -51.4 50.7 -52.6 48.9C-53.7 47.2 -55.3 45.7 -57.4 44.4C-59.6 43.3 -62.2 42.8 -65.2 42.7C-72.7 42.8 -79.6 47.2 -82.9 53.9C-86.8 61.7 -86.2 71 -81.2 78.2C-79.7 80.1 -77.8 81.7 -75.3 82.9C-72.7 84.1 -69.8 84.6 -66.6 84.8C-62.5 84.7 -58.5 83.4 -55.1 80.9C-53.3 79.4 -51.8 77.7 -50.5 75.5C-50.7 75.1 -50.8 74.6 -51.2 74.4C-51.5 74.3 -51.9 74.1 -52.6 74.3C-54.1 76.3 -55.6 77.5 -57.1 78.2C-58.4 78.8 -59.9 79.3 -61.8 79.1C-65.5 79.1 -68.5 78.3 -70.9 76.5C-73.4 74.9 -75.3 72.6 -76.6 69.8C-78.1 66.5 -78.8 63 -78.6 59.4C-78.7 59 -78.5 58.6 -78.2 58.3ZM-76.9 55C-77.2 55 -77.3 55 -77.4 54.8L-77.6 54.7V54.5C-77.4 53.3 -76.9 52.1 -76 50.9C-74.9 49.5 -73.5 48.3 -71.9 47.4C-70.3 46.4 -68.3 45.9 -66.3 45.9C-64.4 45.9 -62.9 46.3 -61.8 47C-60.7 47.4 -59.8 48.2 -59.2 49.2C-58.8 50.2 -58.5 51.1 -58.6 52.1C-58.6 52.8 -58.6 53.2 -58.7 53.4C-58.8 53.8 -59 53.9 -59.1 54.1C-59.4 54.4 -60.3 54.5 -61.9 54.6C-63.4 54.7 -66.1 54.9 -69.8 54.9H-76.9V55ZM-254.1 17.5H-250.5C-247.7 17.5 -244.9 17.4 -242.1 17.2C-242.2 19.2 -241.8 21.6 -240.9 24.5C-239.8 27.3 -238.5 30.4 -237 33.7L-225.5 56.7L-224.5 58.8C-222.7 62.8 -220.8 66.7 -218.7 70.6H-218.4C-216.9 68.2 -215.6 65.8 -214.4 63.1L-212.9 60L-210.8 55.4L-201.3 36.3L-197.6 28.5L-196 25C-194.7 22 -193.9 19.4 -193.8 17.2C-191.3 17.4 -188.9 17.5 -186.3 17.5H-182.1L-179.7 17.3L-177.3 17.2C-177 17.5 -176.9 17.8 -176.9 18.3C-176.7 18.9 -176.9 19.4 -177.2 19.6L-179.2 19.7C-181.3 20 -183 20.3 -183.9 20.9C-184.9 21.6 -185.6 22.7 -185.8 23.9C-186.1 25.7 -186.3 27.5 -186.2 29.3V42.2L-185.9 49.4L-185.6 57.7V57.8C-185.4 64.3 -185.2 70.8 -184.8 77.3C-184.5 79.8 -182.4 80.9 -180.2 81.1L-177 81.4C-176.7 81.8 -176.6 82.2 -176.7 82.7C-176.7 83.3 -176.9 83.7 -177.2 84L-183.3 83.6H-195L-199.1 83.9L-201.3 84.1C-201.7 83.8 -201.9 83.3 -201.8 82.8C-201.9 82.1 -201.8 81.7 -201.5 81.5L-198.5 81.2C-196.1 81 -194.1 80.3 -193.7 77.7C-193.6 76.5 -193.4 74.9 -193.6 72.7L-193.9 30.9H-194C-196.3 34.4 -198.5 39.2 -200.5 43.7C-201.6 46 -202.7 48.4 -203.7 50.4L-209.2 61.4L-212.3 67.3L-213.8 70.2C-215.1 72.9 -216.3 75.5 -217.5 78.2C-218.6 80.3 -219.3 82.1 -220 83.7L-220.3 84.3L-220.5 84.4C-220.6 84.4 -220.6 84.5 -220.6 84.6C-220.8 84.7 -221 84.7 -221.3 84.7L-221.7 84.6C-221.7 84.5 -221.8 84.5 -221.8 84.4C-221.9 84.4 -222 84.3 -222 84.3C-222.5 82.4 -223.3 80.2 -224.5 77.8C-225.6 75.3 -226.8 72.8 -228 70.4C-229.1 67.9 -230 65.9 -230.8 64.3L-239.9 45L-243 38.2L-243.2 37.8C-244.1 35.2 -245.2 32.9 -246.3 30.6H-246.6L-246.9 36.2L-247 39.5L-247.6 48.3L-248 59.2V59.3C-248.1 63.5 -248.3 67.6 -248.3 71.7C-248.5 74.2 -248.3 76 -247.9 77.4C-247.7 78.6 -247.3 79.5 -246.7 80.1C-246 80.7 -245.1 81 -243.9 81.1L-240.1 81.4C-239.7 81.8 -239.6 82.2 -239.6 82.7C-239.6 83.3 -239.8 83.7 -240.2 84L-245.6 83.6H-256.3L-258.3 83.8L-261.4 84.1C-261.7 83.8 -261.9 83.3 -261.9 82.8C-262 82.1 -261.9 81.7 -261.5 81.5L-259.4 81.2C-258.1 81 -257 80.7 -256 80.2C-255.2 79.8 -254.5 79.1 -254.1 78.1C-253.7 77 -253.4 75.2 -253.2 72.9L-252.9 69.7L-252.6 66.5L-252.4 63.8C-252.3 62.5 -252.1 61.1 -252.1 59.5L-251.9 56.8C-251.8 55 -251.6 53.1 -251.6 51L-251.5 50.4C-251 43.2 -250.6 35.9 -250.4 28.7C-250.3 26.7 -250.4 25.1 -250.7 23.8C-250.9 22.7 -251.6 21.7 -252.6 21.1C-254 20.6 -255.5 20.1 -257 19.9L-258.6 19.8C-258.9 19.4 -259 18.9 -258.9 18.5C-258.8 17.9 -258.6 17.5 -258.3 17.4C-256.8 17.3 -255.5 17.4 -254.1 17.5ZM-540.9 19.1C-541.1 19.7 -540.8 20.1 -540.4 20.4L-536.9 20.8C-535.4 20.9 -534.3 21.3 -533.7 22C-533 22.5 -532.6 23.5 -532.5 25C-532.3 26.5 -532.2 28.6 -532.2 31.6V51.7C-529.5 51.8 -526.8 51.8 -524.1 51.7V23.9C-524.3 22.8 -524.1 22 -523.8 21.3C-523.7 20.9 -523.2 20.5 -522.5 20.3C-521.7 20.2 -520.4 20.2 -518.5 20.2C-513.3 20.3 -509.4 21.7 -506.6 24.5C-503.9 27.3 -502.5 31.3 -502.5 36.2C-502.4 40.6 -503.4 44.2 -505.8 47.2C-507.8 49.8 -510.8 51.7 -514.9 52.6C-518.8 53.6 -524.4 54 -531.9 53.8C-538.4 53.7 -545.5 53.3 -553.2 52.5C-544.6 54.3 -538.2 55.5 -534.2 55.9C-527.6 56.8 -521 56.6 -514.9 55.6C-512 55.2 -509.1 54.5 -506.3 53.5C-503.7 52.2 -501.2 50.8 -498.8 49.1C-497.3 48 -495.9 46.3 -494.8 44C-491.3 35.8 -494 26.2 -501.2 21C-503.8 19.5 -506.6 18.5 -509.5 17.9C-512.6 17.4 -516.3 17 -520.5 17C-524.6 17 -528.3 17 -531.5 17.2C-534.7 17.4 -537.7 17.5 -540.3 17.7C-540.7 18.1 -540.9 18.6 -540.9 19.1ZM-524.1 59.3V68.8C-524.2 72.2 -524.1 74.7 -523.8 76.5C-523.5 78.3 -522.9 79.3 -521.9 80C-521.1 80.6 -519.7 81.1 -517.5 81.2L-514.8 81.5C-514.5 81.8 -514.4 82.1 -514.4 82.8C-514.5 83.3 -514.7 83.8 -514.9 84C-517.3 83.9 -519.7 83.7 -522.1 83.6H-534L-540 84C-540.4 83.7 -540.6 83.3 -540.6 82.8C-540.7 82.3 -540.6 81.8 -540.2 81.5L-538.2 81.2C-536.2 81.1 -534.9 80.5 -534.2 79.8C-533.3 79.2 -532.7 78.2 -532.6 76.4C-532.3 74.6 -532.2 72 -532.2 68.7V58.8C-529.8 59.3 -527.1 59.4 -524.1 59.3Z"
      fill="#F01010"
    />
<path
      fill-rule="evenodd"
      clip-rule="evenodd"
      d="M25.7 20.6H23C22.9 20.6 22.9 20.7 22.8 20.8C22.8 20.9 22.8 21 22.9 21.1L23.2 21.2L24.3 21.5C24.5 21.7 24.7 21.9 24.7 22.1C24.7 22.4 24.8 22.7 24.7 23.2L24.6 25.6L24.4 28.4C24.4 29.9 24.3 33.5 23.9 34.6C23.8 34.8 23.6 35 23.4 35.2C23.1 35.3 22.9 35.3 22.6 35.3L22.1 35.4C22 35.5 22 35.6 22 35.7C22 35.8 22 35.9 22.2 36L23.4 35.9H25.9L27.1 36C27.2 35.9 27.2 35.9 27.2 35.7C27.2 35.6 27.2 35.5 27.1 35.4H26.3C26 35.4 25.8 35.3 25.6 35.1C25.5 35 25.5 34.9 25.4 34.8C25.3 34.3 25.2 33.7 25.2 33.2V30.3L25.3 27.8L25.5 25.8C25.5 25.1 25.5 24.5 25.6 23.8L26.4 25.4L27.1 27.1L29.3 31.5L29.9 32.9L30.8 34.6L31.1 35.5L31.3 36.1C31.4 36.2 31.6 36.2 31.7 36.1L32.3 34.7C32.9 33.4 33.5 32.1 34.2 30.8L36.2 26.8C36.4 26.5 36.5 26.1 36.7 25.7C37 25 37.3 24.4 37.7 23.8V33.4V34.5C37.7 34.8 37.6 35 37.4 35C37.3 35.1 37 35.3 36.6 35.3L36 35.4C35.9 35.5 35.9 35.6 35.9 35.7C35.9 35.8 36 35.9 36.1 36L37.6 35.9H40.3L41.7 36C41.8 36 41.9 35.9 41.9 35.7C41.9 35.6 41.9 35.5 41.8 35.4H41.1C40.8 35.3 40.6 35.2 40.3 35.1C40.1 34.9 40 34.7 40 34.5L39.9 33.5C39.9 32.4 39.8 31.2 39.8 30C39.8 28.8 39.7 27.6 39.6 26.5V23.5L39.7 22.3C39.8 22 39.9 21.8 40.1 21.6C40.4 21.4 40.8 21.3 41.2 21.3H41.8V21L41.7 20.7L40.6 20.8H38C38 21.3 37.8 21.9 37.5 22.6L36.3 25.2L34.1 29.6C33.6 30.8 33 31.9 32.3 33.1L30.7 29.9L28 24.6C27.7 23.9 27.4 23.2 27.2 22.5C27 22 26.9 21.4 26.9 20.9H25.7V20.6ZM12.9 32.3V34.1C12.8 34.9 12.3 35.2 11.5 35.2L11 35.3C10.8 35.5 10.8 35.8 11 35.9L13.9 35.8L17 35.9L17.2 35.6L17.1 35.3L16.5 35.2C15.9 35.2 15.6 35.1 15.4 34.9C15.2 34.7 15 34.5 15 34.1C14.9 33.5 14.9 32.9 15 32.3V30.1C14.2 30.1 13.6 30.1 13 30L12.9 32.3ZM10.9 20.8C10.9 20.9 10.9 21 11 21.1L11.8 21.2C12.1 21.2 12.4 21.4 12.6 21.5C12.8 21.6 12.9 21.8 12.9 22.2L13 23.7V28.4H14.9V22L15 21.4C15 21.3 15.2 21.2 15.3 21.2L16.3 21.1C17.5 21.1 18.4 21.4 19.1 22.1C19.7 22.7 20.1 23.7 20.1 24.8C20.1 25.9 19.9 26.7 19.4 27.4C18.8 28 18.1 28.5 17.3 28.6C16.3 28.8 15 28.9 13.3 28.9C11.8 28.9 10.1 28.8 8.29999 28.6C10.3 29 11.8 29.3 12.8 29.4C15 29.7 17.2 29.5 19.3 28.9C19.8 28.6 20.5 28.3 21.1 27.8C21.5 27.5 21.8 27.1 22.1 26.6C22.3 26.1 22.4 25.5 22.5 24.8C22.5 24.1 22.3 23.3 22 22.7C21.7 22.1 21.2 21.6 20.7 21.3C20.2 21 19.5 20.7 18.7 20.6C17.9 20.5 17.1 20.4 16.1 20.4L13.5 20.5L11.5 20.6C11 20.6 10.9 20.7 10.9 20.8Z"
      fill="white"
    />
</g>
<defs>
<clipPath id="clip0_116_19">
<rect width="652" height="652" fill="white" transform="translate(-579 -258)" />
</clipPath>
</defs>
</svg>
