<svg width="40" height="40" viewBox="0 0 40 40" fill="none" xmlns="http://www.w3.org/2000/svg">
<path fill-rule="evenodd" clip-rule="evenodd" d="M14.1536 6C21.9701 6 28.3082 12.4359 28.3082 20.3724C28.3082 28.307 21.9701 34.7439 14.1546 34.7439C6.33913 34.7439 0 28.307 0 20.3724C0 12.4359 6.33913 6 14.1536 6ZM23.0118 31.5811H31.5001L33.2427 27.0233H26.7022C25.7976 28.7798 24.5411 30.3313 23.0108 31.5811H23.0118ZM28.1156 22.7423H34.8787L36.6213 18.1865H28.1466C28.3714 19.6979 28.361 21.2351 28.1156 22.7433V22.7423ZM26.797 13.9074H38.2574L40 9.3506H23.2325C24.717 10.6125 25.9297 12.1628 26.797 13.9074ZM9.14565 31.5811H23.0108C24.5414 30.3314 25.7983 28.7799 26.7031 27.0233H10.8882L9.14468 31.5811H9.14565ZM23.2335 9.34963C24.7176 10.6116 25.93 12.1619 26.797 13.9065H15.904L17.6456 9.34963H23.2335ZM28.1466 18.1865C28.3714 19.6979 28.361 21.2351 28.1156 22.7433H12.5243L14.2669 18.1865H28.1466Z" fill="#EC6608"/>
</svg>
