<svg
  width="20"
  height="20"
  viewBox="0 0 18 16"
  fill="none"
  xmlns="http://www.w3.org/2000/svg"
>
<g clipPath="url(#clip0_5_2871)">
<path
      d="M10.7643 15.5032H5.89433L1.96487 12.6237L0.467163 7.97278L1.96165 3.32184L5.89111 0.442383H10.7643L14.6938 3.32184L16.1882 7.97278L14.6938 12.6237L14.639 12.6785L10.7643 15.5032ZM6.00384 15.1682H10.6548L14.42 12.4015L15.8597 7.97278L14.42 3.54408L10.6548 0.777353H6.00384L2.24186 3.54408L0.802134 7.97278L2.24186 12.4015L6.00384 15.1682Z"
      fill="black"
    />
<path
      d="M16.7456 14.7269L14.4749 12.6784L12.2589 11.8474L8.32939 12.3467L4.34514 11.8474L2.12916 12.6784L2.01965 12.3467L4.28717 11.4609H4.34514L8.32939 12.0149L12.3169 11.4609L12.3716 11.5157L14.6971 12.4014L16.9646 14.5047L16.7456 14.7269Z"
      fill="black"
    />
<path
      d="M10.6547 15.6676L8.32926 12.4564L5.89428 15.6676L4.1228 11.7381L4.45455 11.5707L6.00379 15.0041L8.32926 11.8476L10.6 15.0041L12.1492 11.5707L14.2524 7.3642L14.7517 12.5111H14.4199L14.0302 8.58169L12.481 11.7381L10.6547 15.6676Z"
      fill="black"
    />
<path d="M0.689453 7.80536H16.0787V8.13707H0.689453V7.80536Z" fill="black" />
<path
      d="M14.2525 8.58152L12.3167 4.76161L10.6547 8.35928L8.32928 4.20763L5.94905 8.35928L4.28708 4.76161L2.35134 8.58152L1.90686 3.48939L2.24183 3.43463L2.57358 7.4188L4.28708 4.04337L5.94905 7.64104L8.32928 3.54414L10.6 7.64104L12.3167 4.04337L14.0302 7.36405L14.3072 3.43463H14.6422L14.2525 8.58152Z"
      fill="black"
    />
<path
      d="M12.1492 4.48461L10.6 0.99644L8.32928 4.20762L6.00381 0.99644L4.45457 4.48461L4.17757 4.32035L5.8943 0.332947L8.32928 3.59888L10.6547 0.332947L12.481 4.32035L12.1492 4.48461ZM14.4199 12.5109L14.0302 8.58152L12.3167 12.0149L10.6 8.35928L8.32928 12.5109L5.94905 8.35928L4.28708 12.0149L2.57358 8.58152L2.24183 12.5109H1.90686L2.35134 7.36404L4.28708 11.2387L5.94905 7.64103L8.32928 11.7927L10.6547 7.64103L12.3167 11.2935L14.2525 7.36404L14.7517 12.5109H14.4199Z"
      fill="black"
    />
<path
      d="M12.3168 4.59751L8.27459 4.04351L4.28715 4.59751L2.01965 3.59903L2.12916 3.26727L4.34512 4.20778L8.27459 3.71176L12.3168 4.20778L14.4748 3.26727L14.6422 3.59903L12.3168 4.59751Z"
      fill="black"
    />
<path
      d="M5.94902 15.9993C6.31546 15.9993 6.61252 15.7022 6.61252 15.3358C6.61252 14.9694 6.31546 14.6724 5.94902 14.6724C5.58258 14.6724 5.28552 14.9694 5.28552 15.3358C5.28552 15.7022 5.58258 15.9993 5.94902 15.9993Z"
      fill="black"
    />
<path
      d="M10.6002 15.9993C10.9666 15.9993 11.2637 15.7022 11.2637 15.3358C11.2637 14.9694 10.9666 14.6724 10.6002 14.6724C10.2337 14.6724 9.93665 14.9694 9.93665 15.3358C9.93665 15.7022 10.2337 15.9993 10.6002 15.9993Z"
      fill="black"
    />
<path
      d="M5.94902 1.3281C6.31546 1.3281 6.61252 1.03104 6.61252 0.664598C6.61252 0.298157 6.31546 0.00109863 5.94902 0.00109863C5.58258 0.00109863 5.28552 0.298157 5.28552 0.664598C5.28552 1.03104 5.58258 1.3281 5.94902 1.3281Z"
      fill="black"
    />
<path
      d="M10.6002 1.3281C10.9666 1.3281 11.2637 1.03104 11.2637 0.664598C11.2637 0.298157 10.9666 0.00109863 10.6002 0.00109863C10.2337 0.00109863 9.93665 0.298157 9.93665 0.664598C9.93665 1.03104 10.2337 1.3281 10.6002 1.3281Z"
      fill="black"
    />
<path
      d="M14.4746 4.09793C14.841 4.09793 15.1381 3.80087 15.1381 3.43443C15.1381 3.06799 14.841 2.77094 14.4746 2.77094C14.1081 2.77094 13.811 3.06799 13.811 3.43443C13.811 3.80087 14.1081 4.09793 14.4746 4.09793Z"
      fill="black"
    />
<path
      d="M2.07427 4.09793C2.44071 4.09793 2.73777 3.80087 2.73777 3.43443C2.73777 3.06799 2.44071 2.77094 2.07427 2.77094C1.70783 2.77094 1.41077 3.06799 1.41077 3.43443C1.41077 3.80087 1.70783 4.09793 2.07427 4.09793Z"
      fill="black"
    />
<path
      d="M2.07427 13.2322C2.44071 13.2322 2.73777 12.9351 2.73777 12.5687C2.73777 12.2023 2.44071 11.9052 2.07427 11.9052C1.70783 11.9052 1.41077 12.2023 1.41077 12.5687C1.41077 12.9351 1.70783 13.2322 2.07427 13.2322Z"
      fill="black"
    />
<path
      d="M0.689386 8.63634C1.05583 8.63634 1.35289 8.33929 1.35289 7.97286C1.35289 7.60644 1.05583 7.30939 0.689386 7.30939C0.322941 7.30939 0.0258789 7.60644 0.0258789 7.97286C0.0258789 8.33929 0.322941 8.63634 0.689386 8.63634Z"
      fill="black"
    />
<path
      d="M16.0239 8.63634C16.3904 8.63634 16.6874 8.33929 16.6874 7.97286C16.6874 7.60644 16.3904 7.30939 16.0239 7.30939C15.6575 7.30939 15.3605 7.60644 15.3605 7.97286C15.3605 8.33929 15.6575 8.63634 16.0239 8.63634Z"
      fill="black"
    />
<path
      d="M14.1432 8.63634C14.5097 8.63634 14.8068 8.33929 14.8068 7.97286C14.8068 7.60644 14.5097 7.30939 14.1432 7.30939C13.7767 7.30939 13.4796 7.60644 13.4796 7.97286C13.4796 8.33929 13.7767 8.63634 14.1432 8.63634Z"
      fill="black"
    />
<path
      d="M2.46086 8.63634C2.8273 8.63634 3.12436 8.33929 3.12436 7.97286C3.12436 7.60644 2.8273 7.30939 2.46086 7.30939C2.09442 7.30939 1.79736 7.60644 1.79736 7.97286C1.79736 8.33929 2.09442 8.63634 2.46086 8.63634Z"
      fill="black"
    />
<path
      d="M5.94902 8.63634C6.31546 8.63634 6.61252 8.33929 6.61252 7.97286C6.61252 7.60644 6.31546 7.30939 5.94902 7.30939C5.58258 7.30939 5.28552 7.60644 5.28552 7.97286C5.28552 8.33929 5.58258 8.63634 5.94902 8.63634Z"
      fill="black"
    />
<path
      d="M10.6002 8.63634C10.9666 8.63634 11.2637 8.33929 11.2637 7.97286C11.2637 7.60644 10.9666 7.30939 10.6002 7.30939C10.2337 7.30939 9.93665 7.60644 9.93665 7.97286C9.93665 8.33929 10.2337 8.63634 10.6002 8.63634Z"
      fill="black"
    />
<path
      d="M8.9845 3.98277C9.0432 3.62107 8.79757 3.28025 8.43587 3.22154C8.07417 3.16284 7.73336 3.40847 7.67466 3.77018C7.61595 4.13189 7.86158 4.4727 8.22328 4.53141C8.58498 4.59012 8.92579 4.34448 8.9845 3.98277Z"
      fill="black"
    />
<path
      d="M4.28703 5.0934C4.65348 5.0934 4.95053 4.79635 4.95053 4.42991C4.95053 4.06347 4.65348 3.76642 4.28703 3.76642C3.92059 3.76642 3.62354 4.06347 3.62354 4.42991C3.62354 4.79635 3.92059 5.0934 4.28703 5.0934Z"
      fill="black"
    />
<path
      d="M12.3166 5.0934C12.6831 5.0934 12.9802 4.79635 12.9802 4.42991C12.9802 4.06347 12.6831 3.76642 12.3166 3.76642C11.9502 3.76642 11.6531 4.06347 11.6531 4.42991C11.6531 4.79635 11.9502 5.0934 12.3166 5.0934Z"
      fill="black"
    />
<path
      d="M8.32939 12.8425C8.69583 12.8425 8.99289 12.5455 8.99289 12.179C8.99289 11.8126 8.69583 11.5156 8.32939 11.5156C7.96295 11.5156 7.66589 11.8126 7.66589 12.179C7.66589 12.5455 7.96295 12.8425 8.32939 12.8425Z"
      fill="black"
    />
<path
      d="M4.28703 12.2888C4.65348 12.2888 4.95053 11.9917 4.95053 11.6253C4.95053 11.2588 4.65348 10.9617 4.28703 10.9617C3.92059 10.9617 3.62354 11.2588 3.62354 11.6253C3.62354 11.9917 3.92059 12.2888 4.28703 12.2888Z"
      fill="black"
    />
<path
      d="M12.3166 12.2888C12.6831 12.2888 12.9802 11.9917 12.9802 11.6253C12.9802 11.2588 12.6831 10.9617 12.3166 10.9617C11.9502 10.9617 11.6531 11.2588 11.6531 11.6253C11.6531 11.9917 11.9502 12.2888 12.3166 12.2888Z"
      fill="black"
    />
<path
      d="M16.855 15.503C17.3442 15.503 17.7407 15.1065 17.7407 14.6173C17.7407 14.1281 17.3442 13.7316 16.855 13.7316C16.3658 13.7316 15.9692 14.1281 15.9692 14.6173C15.9692 15.1065 16.3658 15.503 16.855 15.503Z"
      fill="black"
    />
</g>
<defs>
<clipPath id="clip0_5_2871">
<rect
        width="17.7148"
        height="16"
        fill="white"
        transform="translate(0.0258789 0.000244141)"
      />
</clipPath>
</defs>
</svg>
