<svg width="20" height="20" viewBox="0 0 40 40" fill="none" xmlns="http://www.w3.org/2000/svg">
<path d="M31.7494 26.9114C31.8657 27.6919 31.6202 28.0149 31.3721 28.0149C31.1033 28.0149 30.7622 27.6996 30.3642 27.0742C29.9687 26.4591 29.8266 25.7536 30.0204 25.3943C30.1496 25.1592 30.421 25.0558 30.7622 25.185C31.4212 25.4357 31.6796 26.4462 31.7494 26.9114ZM28.0976 28.6119C28.8885 29.2813 29.1288 30.0773 28.7101 30.6381C28.4775 30.9456 28.1002 31.1162 27.6479 31.1162C27.2034 31.1162 26.7512 30.9508 26.4384 30.6769C25.72 30.0489 25.5081 29.028 25.9784 28.4491C26.1619 28.2217 26.4591 28.0976 26.8184 28.0976C27.2525 28.0976 27.7074 28.2811 28.0976 28.6119ZM26.7744 35.0704C30.1832 35.0704 33.8815 36.2385 37.9752 39.867C38.3861 40.2314 38.9314 39.7791 38.5748 39.3269C34.5509 34.2459 30.8293 33.2794 27.1181 32.4627C22.5799 31.4625 20.2436 28.9091 18.6155 26.1025C18.2924 25.5442 18.1477 25.6424 18.1167 26.3609C18.0805 27.237 18.1425 28.4 18.3389 29.5397C18.1554 29.5475 17.9719 29.5449 17.7859 29.5449C11.2913 29.5449 6.02683 24.2805 6.02683 17.7859C6.02683 11.2913 11.2913 6.02683 17.7859 6.02683C24.2805 6.02683 29.5449 11.2913 29.5449 17.7859C29.5449 18.2485 29.5216 18.7059 29.4699 19.153C28.6119 18.9979 26.9217 18.9799 25.7355 19.0832C25.2884 19.122 25.353 19.3288 25.689 19.3908C29.5759 20.0937 32.2456 22.5024 32.8581 26.8726C32.871 26.9734 33.0028 27.0044 33.0545 26.9166C34.6543 24.2469 35.5717 21.1249 35.5717 17.7859C35.5769 7.96513 27.6118 0 17.7884 0C7.96513 0 0 7.96513 0 17.7884C0 27.6118 7.96513 35.5769 17.7884 35.5769C20.3935 35.5769 22.9805 35.0704 26.7744 35.0704Z" fill="#FF8C00"/>
</svg>
