<svg width="40" height="40" viewBox="0 0 40 40" fill="none" xmlns="http://www.w3.org/2000/svg">
<path d="M20 40C31.0457 40 40 31.0457 40 20C40 8.9543 31.0457 0 20 0C8.9543 0 0 8.9543 0 20C0 31.0457 8.9543 40 20 40Z" fill="#4B9B45"/>
<path d="M17.2999 31.0004C17.2999 32.0004 16.4999 32.7004 15.5999 32.7004C14.5999 32.7004 13.8999 31.9004 13.8999 31.0004L13.9999 17.0004C13.9999 14.0004 15.0999 11.6004 16.8999 9.90039C18.6999 8.20039 21.1999 7.40039 24.2999 7.40039C25.2999 7.40039 25.9999 8.10039 25.9999 9.10039C25.9999 10.1004 25.2999 10.8004 24.2999 10.8004C22.0999 10.8004 20.2999 11.4004 19.2999 12.5004C18.2999 13.6004 17.4999 15.1004 17.4999 17.2004C17.4999 17.1004 17.2999 31.0004 17.2999 31.0004Z" fill="white"/>
</svg>
