<svg
  width="20"
  height="20"
  viewBox="0 0 17 16"
  fill="none"
  xmlns="http://www.w3.org/2000/svg"
>
<g clipPath="url(#clip0_5_2883)">
<path
      d="M8.98291 16C13.4012 16 16.9829 12.4183 16.9829 8C16.9829 3.58172 13.4012 0 8.98291 0C4.56463 0 0.98291 3.58172 0.98291 8C0.98291 12.4183 4.56463 16 8.98291 16Z"
      fill="#0E0E21"
    />
<path
      d="M13.4495 9.86669L12.4995 8.25003C12.4661 8.18336 12.3828 8.16669 12.3328 8.21669L11.7161 8.61669C11.6661 8.65003 11.6495 8.73336 11.6828 8.78336L12.2328 9.70003C12.2495 9.73336 12.2328 9.76669 12.2161 9.78336L9.01615 11.85C8.99948 11.8667 8.96615 11.8667 8.94948 11.85L5.78281 9.78336C5.74948 9.76669 5.74948 9.73336 5.76615 9.70003L6.31615 8.78336C6.34948 8.73336 6.33281 8.65003 6.28281 8.61669L5.66615 8.21669C5.59948 8.18336 5.53281 8.20003 5.49948 8.25003L4.54948 9.86669C4.48281 9.98336 4.51615 10.1334 4.63281 10.2L8.88281 12.9667C8.96615 13.0167 9.06615 13.0167 9.14948 12.9667L13.3995 10.2C13.4828 10.1167 13.5161 9.96669 13.4495 9.86669Z"
      fill="white"
    />
<path
      d="M6.13307 7.35L6.74974 7.75C6.81641 7.78333 6.88307 7.76666 6.91641 7.71666L8.91641 4.31667C8.93307 4.28333 8.99974 4.28333 9.01641 4.31667L11.0164 7.71666C11.0497 7.78333 11.1331 7.8 11.1831 7.75L11.7997 7.35C11.8497 7.31667 11.8664 7.23333 11.8331 7.18333L9.48307 3.11667C9.43307 3.03333 9.36641 3 9.26641 3H8.69974C8.61641 3 8.53307 3.05 8.48307 3.11667L6.09974 7.18333C6.06641 7.23333 6.08307 7.31667 6.13307 7.35Z"
      fill="#2AE7A8"
    />
</g>
<defs>
<clipPath id="clip0_5_2883">
<rect width="16" height="16" fill="white" transform="translate(0.98291)" />
</clipPath>
</defs>
</svg>
