<svg width="40" height="40" viewBox="0 0 40 40" fill="none" xmlns="http://www.w3.org/2000/svg">
<path fill-rule="evenodd" clip-rule="evenodd" d="M0 10.9403C0 8.21091 2.20952 6 4.93715 6V6.01522C7.66477 6.01522 9.87433 8.22621 9.87433 10.9555V28.5516C9.87433 31.2809 7.66477 33.4919 4.93715 33.4919C2.20952 33.4919 0 31.2809 0 28.5516V10.9403ZM11.1391 11.7027C11.1391 8.56163 13.6991 6 16.8534 6C20.0077 6 22.5677 8.54641 22.5677 11.7027C22.5677 14.859 20.0077 17.4207 16.8534 17.4207C13.6991 17.4207 11.1391 14.8437 11.1391 11.7027Z" fill="#2C2A29"/>
<path fill-rule="evenodd" clip-rule="evenodd" d="M34.3624 6.01562C35.6728 6.01562 36.9224 6.53409 37.8519 7.46415C38.7814 8.39428 39.2995 9.62939 39.2995 10.9559C39.2995 12.2825 38.7814 13.5175 37.8519 14.4477L20.2824 32.0284C18.3623 33.9497 15.2233 33.9649 13.3033 32.0284C11.3833 30.1072 11.3833 26.9661 13.3033 25.0449L30.8728 7.46415C31.8024 6.53409 33.0519 6.01562 34.3624 6.01562ZM40.0002 27.7896C40.0002 30.9475 37.4418 33.5075 34.2859 33.5075C31.13 33.5075 28.5716 30.9475 28.5716 27.7896C28.5716 24.6316 31.13 22.0716 34.2859 22.0716C37.4418 22.0716 40.0002 24.6316 40.0002 27.7896Z" fill="#00C09F"/>
</svg>
