<svg width="40" height="40" viewBox="0 0 40 40" fill="none" xmlns="http://www.w3.org/2000/svg">
<path d="M40 0H0V40H40V0Z" fill="#E41A19"/>
<path d="M27.4 5.79961C27.2 6.09961 27 6.29961 26.7 6.49961C26.4 6.29961 26.2 6.09961 26 5.79961C26.2 5.49961 26.4 5.29961 26.7 5.09961C27 5.29961 27.2 5.49961 27.4 5.79961ZM27.2 7.49961V8.69961H26.4V7.49961C26 7.39961 25.5 7.29961 25.5 7.59961C25.5 7.99961 25.7 8.49961 25.9 8.79961C25.8 8.79961 25.7 8.89961 25.6 8.89961C25.5 8.99961 25.3 8.99961 25.2 8.99961C24.8 8.49961 24.6 7.89961 24.5 7.29961C24.5 6.39961 26 6.69961 26.5 6.79961L26.9 6.89961L27.3 6.79961C27.8 6.69961 29.2 6.39961 29.2 7.29961C29.1 7.99961 28.9 8.49961 28.5 8.99961C28.4 8.99961 28.3 8.99961 28.2 8.89961C28 8.89961 27.9 8.79961 27.7 8.79961C27.9 8.39961 28.1 7.99961 28.1 7.59961C28.1 7.39961 27.6 7.39961 27.2 7.49961ZM28.4 9.29961C27.9 9.19961 27.4 9.09961 26.9 9.09961C26.4 9.09961 25.9 9.19961 25.4 9.29961L25.6 10.0996C26 9.99961 26.4 9.99961 26.9 9.99961C27.3 9.99961 27.8 10.0996 28.2 10.1996L28.4 9.29961ZM22.1 33.4996H19.4V32.8996L19 33.3996V32.6996C19 32.5996 19 32.3996 19.1 32.2996L19.4 31.9996H20.1C20.5 31.8996 20.9 31.7996 21.2 31.4996C21.5 31.1996 21.7 30.8996 21.8 30.4996C21.2 29.4996 20.8 28.3996 20.7 27.1996C20.7 25.5996 21.7 24.2996 24.1 24.2996C25 24.2996 25.8 24.5996 26.6 24.8996C26.6 24.8996 23.5 28.0996 23.5 29.0996C23.7 29.5996 23.9 30.0996 24 30.6996C23.5 31.7996 22.8 32.6996 22.1 33.4996ZM34.9 18.0996L34.7 17.7996C35 17.5996 35.3 17.4996 35.6 17.4996C35.9 17.4996 36.2 17.4996 36.5 17.6996C35.7 16.0996 33.8 16.5996 33.7 17.9996C33.4 18.1996 33.1 18.4996 33 18.7996C32.8 19.0996 32.7 19.4996 32.8 19.8996C32.8 20.8996 33.5 22.4996 34 23.7996C34.4 24.6996 34.7 25.3996 34.7 25.6996V26.0996C34.7 26.1996 34.6 26.2996 34.5 26.3996C34.4 26.4996 34.3 26.5996 34.2 26.5996C34.1 26.5996 34 26.6996 33.8 26.6996C33.4 26.6996 33 26.3996 32.3 25.4996C31.5 24.3996 30.5 23.3996 29.4 22.6996L27.4 21.2996L30.2 19.1996L30.4 20.1996C30.9 19.4996 31.2 18.7996 31.3 17.9996C31.4 17.1996 31.4 16.3996 31.2 15.5996C31.2 15.4996 31.2 15.3996 31.1 15.2996C31.1 15.1996 31.1 15.1996 31 15.0996L31.7 15.3996V14.9996C31.2 12.4996 29.4 10.4996 26.8 10.4996C26.1 10.4996 25.4 10.5996 24.7 10.7996L24.8 11.3996C24.5 11.4996 22.9 12.1996 22.9 12.1996C22.9 12.7996 23.1 13.3996 23.5 13.7996C24 13.8996 24.5 13.8996 24.9 13.6996C25 13.7996 25 13.8996 25 13.9996C25 14.0996 25 14.1996 24.9 14.2996C24.8 14.3996 24.8 14.4996 24.7 14.5996C24.6 14.6996 24.5 14.6996 24.4 14.6996H23.7C23.7 14.7996 23.7 14.9996 23.8 15.0996L24.1 15.3996H25.6C25.8 15.3996 26 15.3996 26.1 15.2996C26.3 15.1996 26.4 15.0996 26.5 14.8996C26.6 14.6996 26.7 14.5996 26.7 14.3996C26.7 14.1996 26.7 13.9996 26.6 13.8996C26.6 13.6996 26.5 13.4996 26.4 13.3996C26.6 13.4996 26.7 13.6996 26.9 13.7996C27 13.9996 27.1 14.1996 27.1 14.3996C27.2 14.5996 27.2 14.7996 27.2 14.8996C27.2 15.0996 27.1 15.2996 27 15.3996C26.9 15.5996 26.8 15.6996 26.6 15.7996C26.7 15.9996 26.5 15.9996 26.3 15.9996C25.8 16.0996 25.6 16.0996 25.4 16.0996C25.1 16.0996 24.9 16.1996 24.3 16.2996C23.7 16.3996 23.2 16.6996 22.8 17.0996C22.4 17.4996 22.1 17.9996 21.9 18.5996L20.4 19.1996L19.7 19.4996C19 19.6996 18.3 19.9996 17.7 20.2996C17.3 20.5996 17 21.0996 16.9 21.5996C16.8 21.7996 16.8 21.8996 16.8 22.0996C16.8 22.2996 16.8 22.4996 16.9 22.5996C17.3 22.8996 17.8 22.9996 18.2 22.9996L17.7 22.4996L18.4 22.3996C18.7 22.1996 18.8 21.8996 18.9 21.5996L19.9 21.6996C20.6 21.7996 21.3 21.6996 22 21.3996C22.3 21.9996 22.8 22.5996 23.4 22.9996L24 23.2996C25.5 24.0996 28.7 25.2996 28.7 25.2996C28.7 25.3996 28.7 25.3996 28.6 25.4996C27.7 26.3996 27.1 27.5996 27.1 28.8996C27.1 30.5996 29.8 30.5996 29.8 30.5996H30.5C30.4 31.2996 29.9 32.1996 29.3 32.1996H28.5C28.4 32.2996 28.3 32.2996 28.2 32.4996C28.1 32.5996 28.1 32.6996 28.1 32.8996V33.5996L28.6 33.0996V33.5996H31.3L31.5 33.1996C32.1 32.1996 32.5 31.1996 32.8 29.9996C32.8 29.4996 30.7 28.9996 30.5 28.9996C30.8 27.9996 31.1 26.8996 31.3 25.7996C32.2 27.0996 33.1 27.5996 33.7 27.5996C34.1 27.5996 34.5 27.3996 34.8 27.1996C35.1 26.8996 35.3 26.4996 35.3 26.0996C35.3 25.4996 35.1 24.9996 34.7 23.9996C34.5 23.4996 34.3 22.9996 34 22.2996L33.9 22.0996C33.4 20.6996 32.9 19.5996 33.9 18.8996V18.9996L34.5 19.2996C34.7 19.2996 34.9 19.2996 35.2 19.1996C35.4 19.0996 35.6 18.9996 35.7 18.7996C35.8 18.5996 35.9 18.3996 35.9 18.1996C35.7 17.7996 35.3 17.8996 34.9 18.0996ZM25.3 11.4996C25.7 11.3996 26.2 11.4996 26.6 11.6996C25.7 12.2996 25.2 12.1996 25.3 11.4996ZM20.9 13.7996L21.3 14.2996L22.9 16.3996C22.2 16.7996 21.3 16.8996 20.5 16.6996C19.3 16.3996 19 14.5996 19 14.5996L18.9 13.5996C18.6 13.5996 18.3 13.5996 18 13.3996L17.8 12.7996L17.5 13.3996C17.4 12.9996 17.4 12.5996 17.5 12.1996C17.6 12.0996 17.8 11.9996 17.9 11.9996C18.1 11.8996 18.2 11.8996 18.4 11.9996C18.9 11.9996 19.3 12.0996 19.7 12.2996L20.9 13.7996Z" fill="white"/>
</svg>
