<svg width="22" height="22" viewBox="0 0 22 22" fill="none" xmlns="http://www.w3.org/2000/svg">
<g clip-path="url(#clip0_601_93)">
<mask id="mask0_601_93" style="mask-type:luminance" maskUnits="userSpaceOnUse" x="1" y="0" width="20" height="22">
<path d="M20.7612 0H1.24658V22H20.7612V0Z" fill="white"/>
</mask>
<g mask="url(#mask0_601_93)">
<path fill-rule="evenodd" clip-rule="evenodd" d="M11.0172 22C5.61275 22 1.24658 17.6054 1.24658 12.2251C1.24658 9.13559 2.6576 6.28571 5.13354 4.4213L5.24003 4.34141V0H10.8309V2.45037C10.8841 2.45037 10.9373 2.45037 10.9906 2.45037C16.3685 2.45037 20.7612 6.84504 20.7612 12.2251C20.7612 17.6054 16.3951 22 11.0172 22Z" fill="#19502E"/>
<path fill-rule="evenodd" clip-rule="evenodd" d="M8.19507 12.3755L10.2184 10.3779V9.01953L8.19507 11.0171V12.3755Z" fill="#FFCB05"/>
<path fill-rule="evenodd" clip-rule="evenodd" d="M8.19507 7.32779L10.2184 5.33021V4.05176L8.19507 6.0227V7.32779Z" fill="#FFCB05"/>
<path fill-rule="evenodd" clip-rule="evenodd" d="M8.19507 8.99575L10.2184 6.99817V5.71973L8.19507 7.69066V8.99575Z" fill="#FFCB05"/>
<path fill-rule="evenodd" clip-rule="evenodd" d="M7.61551 4.0508L7.34928 3.78446V0.641602H7.0298V3.49148L6.76357 3.22513V0.641602H6.44409V2.93216L6.17786 2.66582V0.641602H5.88501V3.65129L7.90836 5.64887V0.641602H7.61551V4.0508Z" fill="#FFCB05"/>
<path fill-rule="evenodd" clip-rule="evenodd" d="M8.19507 10.6823L10.2184 8.68469V7.40625L8.19507 9.3772V10.6823Z" fill="#FFCB05"/>
<path fill-rule="evenodd" clip-rule="evenodd" d="M5.88501 10.3779L7.90836 12.3755V11.0171L5.88501 9.01953V10.3779Z" fill="#FFCB05"/>
<path fill-rule="evenodd" clip-rule="evenodd" d="M9.89894 2.66582L9.63268 2.93216V0.641602H9.33986V3.22513L9.07363 3.49148V0.641602H8.75415V3.78446L8.48792 4.0508V0.641602H8.19507V5.64887L10.2184 3.65129V0.641602H9.89894V2.66582Z" fill="#FFCB05"/>
<path fill-rule="evenodd" clip-rule="evenodd" d="M5.88501 5.33021L7.90836 7.32779V6.0227L5.88501 4.05176V5.33021Z" fill="#FFCB05"/>
<path fill-rule="evenodd" clip-rule="evenodd" d="M5.88501 6.99817L7.90836 8.99575V7.69066L5.88501 5.71973V6.99817Z" fill="#FFCB05"/>
<path fill-rule="evenodd" clip-rule="evenodd" d="M5.88501 8.68469L7.90836 10.6823V9.3772L5.88501 7.40625V8.68469Z" fill="#FFCB05"/>
<path fill-rule="evenodd" clip-rule="evenodd" d="M17.9953 9.72822H13.2563H13.0434C13.1498 9.5684 13.2031 9.38197 13.2031 9.16889C13.2031 8.58294 12.7239 8.10352 12.1382 8.10352C11.5524 8.10352 11.0732 8.58294 11.0732 9.16889C11.0732 9.40857 11.1532 9.6217 11.2862 9.78144C11.2064 9.83475 11.1265 9.94127 11.1265 10.0745C11.1265 10.181 11.1798 10.2875 11.2862 10.3674C11.1532 10.5539 11.0732 10.7669 11.0732 10.9801C11.0732 11.566 11.5524 12.0454 12.1382 12.0454C12.7239 12.0454 13.2031 11.566 13.2031 10.9801C13.2031 10.7669 13.1498 10.5805 13.0434 10.4207H13.9486H16.744V10.6338H16.3712V10.9534H16.744V11.273H16.3712V11.8856H16.744V11.6193H17.2764V11.8856H17.6491V11.273H17.2764V10.9534H17.6491V10.6338H17.2764V10.4207H17.9953C18.1283 10.4207 18.2614 10.3141 18.2614 10.1544V9.99458C18.2348 9.86135 18.1283 9.72822 17.9953 9.72822ZM12.6972 10.9801C12.6972 11.273 12.4576 11.5394 12.1382 11.5394C11.8453 11.5394 11.5791 11.2996 11.5791 10.9801C11.5791 10.8734 11.6057 10.7669 11.659 10.687L11.8187 10.4207C11.7122 10.3408 11.659 10.2076 11.659 10.0745C11.659 9.94127 11.7122 9.80814 11.8187 9.72822L11.659 9.46187C11.6057 9.38197 11.5791 9.27543 11.5791 9.16889C11.5791 8.87591 11.8187 8.60957 12.1382 8.60957C12.431 8.60957 12.6972 8.84928 12.6972 9.16889C12.6972 9.38197 12.431 9.91466 12.431 9.91466V10.2076C12.431 10.2076 12.6972 10.7403 12.6972 10.9801Z" fill="#FFCB05"/>
<path fill-rule="evenodd" clip-rule="evenodd" d="M4.01514 9.0752V10.4069C4.01514 11.6854 4.57422 12.4844 4.8937 12.804C5.08006 12.9904 6.97029 14.8549 6.99692 14.8815C7.58262 15.4674 7.68911 15.6539 7.82223 15.9735V14.5086C7.82223 13.2035 7.15665 12.6975 6.81055 12.3512C6.01186 11.5789 5.47941 11.0728 5.05343 10.6466C4.22812 9.79433 4.01514 9.0752 4.01514 9.0752Z" fill="white"/>
<path fill-rule="evenodd" clip-rule="evenodd" d="M6.81055 15.6392C6.01186 14.8667 5.47941 14.3607 5.05343 13.9345C4.22812 13.1089 4.01514 12.5762 4.01514 12.5762V13.7215C4.01514 14.9999 4.60084 15.7989 4.8937 16.1185C5.08006 16.305 6.97029 18.1427 6.99692 18.1694C7.58262 18.7554 7.68911 19.0217 7.82223 19.3413V17.7965C7.82223 16.4914 7.15665 15.9587 6.81055 15.6392Z" fill="white"/>
<path fill-rule="evenodd" clip-rule="evenodd" d="M11.0201 3.09863C10.8604 3.09863 10.7273 3.09863 10.5941 3.09863V3.73786C10.7273 3.73786 10.887 3.73786 11.0201 3.73786C15.7324 3.73786 19.5395 7.54658 19.5395 12.2609C19.5395 16.9485 15.7324 20.7839 11.0201 20.7839C6.30784 20.7839 2.50076 16.9752 2.50076 12.2609C2.50076 9.65068 3.67217 7.30687 5.53577 5.76207V4.96304C3.29945 6.58774 1.88843 9.25118 1.88843 12.2343C1.88843 17.2681 5.98837 21.3698 11.0201 21.3698C16.0518 21.3698 20.1518 17.2681 20.1518 12.2343C20.1518 7.20034 16.0518 3.09863 11.0201 3.09863Z" fill="white"/>
<path fill-rule="evenodd" clip-rule="evenodd" d="M17.4534 16.9918C17.5865 16.8054 17.7196 16.5923 17.8528 16.4058V15.1807H17.4534V16.9918Z" fill="white"/>
<path fill-rule="evenodd" clip-rule="evenodd" d="M18.6248 14.7222C18.678 14.5357 18.7312 14.3759 18.7846 14.1895H17.4534V14.5091H17.6663C18.0125 14.5091 18.4118 14.4824 18.6248 14.7222Z" fill="white"/>
<path d="M9.78773 14.1348H9.44165V17.7837H9.78773V14.1348Z" fill="white"/>
<path fill-rule="evenodd" clip-rule="evenodd" d="M8.61441 13.4547H9.81245C10.1319 13.4547 10.3449 13.5079 10.4514 13.6411C10.5845 13.7476 10.6377 13.9607 10.6377 14.2803V17.6895C10.6377 18.0091 10.5845 18.2222 10.4514 18.3287C10.265 18.5151 9.91897 18.5151 9.62611 18.5151C9.5728 18.5151 9.49298 18.5151 9.43976 18.5151V20.1398C9.54619 20.1665 9.67932 20.1932 9.78584 20.1932V18.8614C10.3449 18.8614 10.691 18.675 10.8508 18.3021V20.2464C10.8774 20.2464 10.9306 20.2464 10.9572 20.2464C11.0371 20.2464 11.1169 20.2464 11.1702 20.2464V14.3335C11.1702 14.014 11.2235 13.8009 11.3566 13.6677C11.4631 13.5346 11.7027 13.4813 11.9955 13.4813C12.315 13.4813 12.741 13.428 12.9805 13.6677C13.0871 13.8009 13.167 14.014 13.167 14.3335V16.0648H12.3416V14.2004H11.9955V20.1665C12.102 20.1398 12.2352 20.1398 12.3416 20.1132V16.4377H13.2202V19.9534C13.3799 19.9002 13.5663 19.8469 13.726 19.7936V16.5709C13.726 16.198 13.8059 15.9316 14.1786 15.7985L13.7526 13.5612H14.578L14.7111 16.0116H14.8175L14.9507 13.5612H15.8293L15.3501 15.7985C15.7493 15.9316 15.8027 16.1714 15.8027 16.5709V18.6484C16.0422 18.4619 16.2819 18.2755 16.4948 18.0623V13.5346H18.9175C18.9441 13.428 18.9441 13.3214 18.9707 13.2149H13.3267L13.4065 13.6144C13.2202 13.2948 12.9007 13.135 12.3949 13.135H12.0487C11.4631 13.135 11.0903 13.3747 10.9572 13.8541C10.8241 13.3481 10.4514 13.1084 9.81245 13.1084H8.26831V19.7936C8.3748 19.8469 8.50792 19.8735 8.61441 19.9268V13.4547ZM16.1221 16.0116L15.7227 15.6387L16.1221 13.6411V16.0116Z" fill="white"/>
<path fill-rule="evenodd" clip-rule="evenodd" d="M14.5935 19.4194C14.7266 19.366 14.8332 19.2861 14.9662 19.2328V16.4629H14.5935V19.4194Z" fill="white"/>
</g>
</g>
<defs>
<clipPath id="clip0_601_93">
<rect width="22" height="22" fill="white"/>
</clipPath>
</defs>
</svg>
