<svg width="40" height="40" viewBox="0 0 40 40" fill="none" xmlns="http://www.w3.org/2000/svg">
<path d="M39.5 2.59961H33.6C33.2 2.59961 32.8 2.89961 32.8 3.29961L31 20.8996C30.9 21.1996 29.7 30.2996 20.6 30.2996H11.4C11 30.2996 10.6 30.5996 10.6 30.9996L10 36.9996C10 37.1996 10 37.2996 10.2 37.3996C10.3 37.4996 10.4 37.5996 10.6 37.5996H19.8C36.2 37.5996 38.1 21.3996 38.2 20.7996L40 3.19961C40 2.99961 40 2.89961 39.9 2.79961C39.8 2.59961 39.7 2.59961 39.5 2.59961Z" fill="#DB082B"/>
<path d="M18.9 18.7002H24.5C26 18.7002 27.3 17.5002 27.5 16.0002L27.7 13.8002C27.7 13.6002 27.7 13.5002 27.5 13.4002C27.4 13.3002 27.3 13.2002 27.1 13.2002H19.4C16.7 13.2002 12.5 15.0002 12 20.0002C11.4 25.0002 15.3 26.8002 18 26.8002H22.7C24.2 26.8002 25.5 25.6002 25.7 24.1002L25.9 22.0002C25.9 21.8002 25.9 21.7002 25.7 21.6002C25.6 21.5002 25.5 21.4002 25.3 21.4002H18.5C17.6 21.4002 17.2 20.5002 17.3 20.1002C17.5 19.7002 17.6 18.7002 18.9 18.7002Z" fill="#DB082B"/>
<path d="M19.3 9.79961H28.5C28.9 9.79961 29.3 9.49961 29.3 9.09961L29.9 3.09961C29.9 2.89961 29.9 2.79961 29.7 2.69961C29.6 2.69961 29.5 2.59961 29.4 2.59961H20.2C3.8 2.59961 1.9 18.6996 1.8 19.2996L0 36.8996C0 37.0996 0 37.1996 0.2 37.2996C0.3 37.3996 0.4 37.4996 0.6 37.4996H6.5C6.9 37.4996 7.3 37.1996 7.3 36.7996L9.2 19.1996C9.1 18.7996 10.2 9.79961 19.3 9.79961Z" fill="#DB082B"/>
</svg>
