<svg width="32" height="32" viewBox="0 0 32 32" fill="none" xmlns="http://www.w3.org/2000/svg">
<g clip-path="url(#clip0_3231_3983)">
<mask id="mask0_3231_3983" style="mask-type:luminance" maskUnits="userSpaceOnUse" x="0" y="0" width="32" height="32">
<path d="M32 0H0V32H32V0Z" fill="white"/>
</mask>
<g mask="url(#mask0_3231_3983)">
<path d="M32 16C32 7.16344 24.8365 0 16 0C7.16344 0 0 7.16344 0 16C0 24.8365 7.16344 32 16 32C24.8365 32 32 24.8365 32 16Z" fill="url(#paint0_linear_3231_3983)"/>
<path d="M9.51924 21.8861C9.12394 21.8861 8.88435 21.6225 8.88435 21.2392C8.88435 20.8679 9.12394 20.6044 9.51924 20.6044H11.364V18.2564H9.51924C9.12394 18.2564 8.87238 17.9809 8.87238 17.5976C8.87238 17.2263 9.12394 16.9507 9.51924 16.9507H11.364V9.14037C11.364 8.13412 11.939 7.53516 12.9093 7.53516H17.5812C20.9114 7.53516 23.1036 9.79922 23.1036 12.9138C23.1036 16.0044 20.8396 18.2564 17.4614 18.2564H14.3828V20.6044H18.5754C18.9708 20.6044 19.2224 20.8679 19.2224 21.2392C19.2224 21.6225 18.9708 21.8861 18.5754 21.8861H14.3828V23.1919C14.3828 24.1383 13.7958 24.7372 12.8734 24.7372C11.951 24.7372 11.364 24.1383 11.364 23.1919V21.8861H9.51924ZM14.3828 15.8725H16.6948C18.8989 15.8725 20.0249 14.7465 20.0249 12.9258C20.0249 11.1289 18.9109 10.0029 16.7068 10.0029H14.3828V15.8725Z" fill="#FCFCFD"/>
</g>
</g>
<defs>
<linearGradient id="paint0_linear_3231_3983" x1="0" y1="32" x2="32" y2="0" gradientUnits="userSpaceOnUse">
<stop stop-color="#0F54BD"/>
<stop offset="0.455" stop-color="#0055FF"/>
</linearGradient>
<clipPath id="clip0_3231_3983">
<rect width="32" height="32" fill="white"/>
</clipPath>
</defs>
</svg>
