<?xml version="1.0" encoding="UTF-8"?>
<svg version="1.1" xmlns="http://www.w3.org/2000/svg" width="200" height="200">
<path d="M0 0 C66 0 132 0 200 0 C200 66 200 132 200 200 C134 200 68 200 0 200 C0 134 0 68 0 0 Z " fill="#F3F7F9" transform="translate(0,0)"/>
<path d="M0 0 C0.98097656 0.44214844 1.96195312 0.88429688 2.97265625 1.33984375 C19.13395026 9.3623566 32.78273691 25.17914348 39.0546875 41.9921875 C46.86405576 66.84017742 45.2115204 92.15894374 33.6640625 115.7265625 C30.00068585 122.26396946 25.23121129 127.66974684 20 133 C19.38511719 133.639375 18.77023438 134.27875 18.13671875 134.9375 C3.46429466 149.01297322 -18.02537153 152.17487054 -37.5 152.1875 C-38.49386719 152.19974609 -39.48773438 152.21199219 -40.51171875 152.22460938 C-41.97544922 152.22750977 -41.97544922 152.22750977 -43.46875 152.23046875 C-44.77489258 152.23663208 -44.77489258 152.23663208 -46.10742188 152.24291992 C-49 152 -49 152 -57 150 C-57 143.4 -57 136.8 -57 130 C-54.36 130.33 -51.72 130.66 -49 131 C-34.43480358 131.89218463 -20.39737579 132.41038994 -7 126 C-6.00226563 125.55398437 -5.00453125 125.10796875 -3.9765625 124.6484375 C9.67153841 117.95525925 16.72370316 106.86465547 21.73193359 92.96923828 C26.93009488 77.11891649 26.53169392 61.42176238 19.6796875 46.03515625 C11.63190672 30.35737566 0.3148854 21.31482035 -16 15 C-19.96694192 13.80058344 -23.94090393 12.82972699 -28 12 C-29.16015625 11.71576172 -29.16015625 11.71576172 -30.34375 11.42578125 C-44.21115156 9.20291835 -58.58067178 14.38210604 -70 22 C-84.82506404 33.38948038 -92.04917086 46.88677387 -94.57237244 65.20387268 C-95.2183125 70.93799962 -95.35516236 76.63243744 -95.4140625 82.3984375 C-95.43342865 83.59941071 -95.4527948 84.80038391 -95.4727478 86.03775024 C-95.53180501 89.81676469 -95.57862958 93.59581084 -95.625 97.375 C-95.66324794 99.96094968 -95.70230345 102.54688754 -95.7421875 105.1328125 C-95.83744431 111.42176896 -95.92270019 117.71079852 -96 124 C-108.71652689 111.4918771 -115.82709178 92.31427658 -116.42407227 74.53149414 C-116.56506114 51.88868167 -107.42069685 30.07125127 -91.82421875 13.71875 C-66.95757969 -10.04903595 -30.57802229 -13.89910104 0 0 Z " fill="#174166" transform="translate(136,28)"/>
<path d="M0 0 C1.41177674 1.21082113 2.80863888 2.43932397 4.1875 3.6875 C5.10982422 4.43773438 5.10982422 4.43773438 6.05078125 5.203125 C13.4934478 11.73814929 18.75880931 22.67358197 19.4609375 32.5234375 C19.88298653 45.80695265 18.06770611 57.26967976 9.0625 67.73046875 C0.50767084 76.65957169 -9.89582888 83.75208249 -22.67602539 84.1171875 C-23.38106201 84.11976563 -24.08609863 84.12234375 -24.8125 84.125 C-25.54782959 84.12886719 -26.28315918 84.13273437 -27.04077148 84.13671875 C-34.62201642 83.98001738 -40.91882682 81.74649919 -47.8125 78.6875 C-47.68681641 80.07195312 -47.68681641 80.07195312 -47.55859375 81.484375 C-46.68752089 92.64292858 -47.06930578 103.52815287 -47.8125 114.6875 C-48.1425 114.6875 -48.4725 114.6875 -48.8125 114.6875 C-48.73281982 114.11942627 -48.65313965 113.55135254 -48.57104492 112.96606445 C-47.83341298 106.55922267 -47.14410347 99.70868074 -49.8125 93.6875 C-53.03719477 91.39780242 -56.69091203 90.26545001 -60.375 88.875 C-65.06537945 86.90254033 -68.015921 85.0000562 -70.8125 80.6875 C-75.56380402 62.39569007 -74.49340202 32.1101523 -65.4140625 15.19921875 C-59.08614864 5.27519774 -49.50933872 -3.92903124 -37.8359375 -6.875 C-24.50023906 -8.80471347 -11.15323456 -8.30878547 0 0 Z " fill="#4B98CE" transform="translate(126.8125,63.3125)"/>
<path d="M0 0 C6.91532357 2.9637101 11.67913757 6.61595098 15.44921875 13.24609375 C17.91501262 19.65715782 18.72859943 26.25918653 16.609375 32.86328125 C13.37531572 40.02830147 7.97218856 46.39668572 0.44921875 49.24609375 C-7.54625585 50.03827211 -16.02154634 50.56510434 -22.55078125 45.24609375 C-29.04009419 39.29645998 -32.513426 33.1892311 -33.05078125 24.37109375 C-32.82203233 17.30166285 -29.59966592 11.72632256 -25.17578125 6.37109375 C-17.5358808 0.18641243 -9.79629241 -2.89538198 0 0 Z " fill="#FCFDFE" transform="translate(108.55078125,76.75390625)"/>
</svg>
