<svg width="40" height="40" viewBox="0 0 40 40" fill="none" xmlns="http://www.w3.org/2000/svg">
<path d="M30.9 15.4998V10.8998C30.9 8.3998 28.9 6.2998 26.3 6.2998C23.8 6.2998 21.8 8.3998 21.8 10.8998V15.4998H18.1C18.1 10.4998 14 6.4998 9.1 6.4998C4 6.3998 0 10.4998 0 15.4998C0 20.4998 4.1 24.4998 9 24.4998V29.0998C9 31.5998 11 33.6998 13.6 33.6998C16.2 33.6998 18.2 31.6998 18.2 29.0998V24.4998H21.9C21.9 29.4998 26 33.4998 30.9 33.4998C35.9 33.4998 39.9 29.3998 39.9 24.4998C39.9 19.5998 35.8 15.4998 30.9 15.4998ZM7.2 15.4998C7.2 14.4998 8 13.6998 9 13.6998C10 13.6998 10.9 14.3998 10.9 15.4998C10.9 16.5998 10.1 17.2998 9.1 17.2998C8 17.2998 7.2 16.4998 7.2 15.4998ZM30.9 26.2998C29.9 26.2998 29.1 25.4998 29.1 24.4998C29.1 23.4998 29.9 22.6998 30.9 22.6998C31.9 22.6998 32.7 23.4998 32.7 24.4998C32.7 25.4998 31.9 26.2998 30.9 26.2998ZM36.3 13.6998C38.3 13.6998 40 12.0998 40 9.9998C40 7.8998 38.4 6.2998 36.3 6.2998C34.3 6.2998 32.6 7.8998 32.6 9.9998C32.6 12.0998 34.3 13.6998 36.3 13.6998Z" fill="#0999D5"/>
</svg>
