<svg xmlns="http://www.w3.org/2000/svg" width="20" height="20" fill="none" viewBox="0 0 40 40"><g clip-path="url(#a)"><path fill="#21A038" d="M35.351 7.77a20.113 20.113 0 0 1 2.365 3.977L19.74 25.177l-7.512-4.773v-5.742l7.512 4.773L35.352 7.771Z"/><path fill="url(#b)" d="M4.56 20c0-.259.005-.515.018-.769l-4.553-.226a20.18 20.18 0 0 0 1.475 8.65 19.965 19.965 0 0 0 4.28 6.484l3.23-3.272a15.34 15.34 0 0 1-3.296-4.984A15.505 15.505 0 0 1 4.56 20Z"/><path fill="url(#c)" d="M19.735 4.62c.255 0 .507.01.758.022l.228-4.615a19.455 19.455 0 0 0-8.54 1.494 19.666 19.666 0 0 0-6.4 4.339L9.01 9.133a15.112 15.112 0 0 1 4.918-3.341 14.948 14.948 0 0 1 5.807-1.172Z"/><path fill="url(#d)" d="M19.736 35.38c-.255 0-.507 0-.76-.02l-.227 4.614a19.442 19.442 0 0 0 8.538-1.493 19.656 19.656 0 0 0 6.396-4.34l-3.223-3.272a15.12 15.12 0 0 1-4.918 3.34 14.952 14.952 0 0 1-5.806 1.17Z"/><path fill="url(#e)" d="m28.29 7.303 3.837-2.866A19.484 19.484 0 0 0 19.73 0v4.62a14.96 14.96 0 0 1 8.561 2.683Z"/><path fill="#21A038" d="M39.47 20a20.377 20.377 0 0 0-.31-3.584l-4.248 3.173V20a15.515 15.515 0 0 1-1.305 6.238 15.332 15.332 0 0 1-3.694 5.161l3.063 3.432a19.938 19.938 0 0 0 4.802-6.716A20.173 20.173 0 0 0 39.47 20Z"/><path fill="url(#f)" d="M19.736 35.38c-2.121 0-4.218-.45-6.156-1.323a15.156 15.156 0 0 1-5.094-3.744l-3.384 3.104a19.694 19.694 0 0 0 6.626 4.867A19.46 19.46 0 0 0 19.736 40V35.38Z"/><path fill="url(#g)" d="M9.559 8.6 6.496 5.168a19.938 19.938 0 0 0-4.803 6.716A20.174 20.174 0 0 0 0 19.999h4.56c-.002-2.149.443-4.274 1.304-6.238A15.335 15.335 0 0 1 9.56 8.6Z"/></g><defs><linearGradient id="b" x1="6.703" x2="1.602" y1="33.563" y2="19.012" gradientUnits="userSpaceOnUse"><stop offset=".14" stop-color="#F1E813"/><stop offset=".3" stop-color="#E6E418"/><stop offset=".58" stop-color="#C9DA26"/><stop offset=".89" stop-color="#A2CC39"/></linearGradient><linearGradient id="c" x1="7.082" x2="19.955" y1="6.676" y2="1.836" gradientUnits="userSpaceOnUse"><stop offset=".06" stop-color="#0FA7DF"/><stop offset=".54" stop-color="#0098F8"/><stop offset=".92" stop-color="#0290EA"/></linearGradient><linearGradient id="d" x1="18.448" x2="32.975" y1="37.211" y2="33.973" gradientUnits="userSpaceOnUse"><stop offset=".12" stop-color="#A2CC39"/><stop offset=".28" stop-color="#86C239"/><stop offset=".87" stop-color="#219F38"/></linearGradient><linearGradient id="e" x1="18.781" x2="31.213" y1="1.547" y2="5.333" gradientUnits="userSpaceOnUse"><stop offset=".06" stop-color="#0290EA"/><stop offset=".79" stop-color="#0C89CA"/></linearGradient><linearGradient id="f" x1="6.245" x2="19.79" y1="32.855" y2="37.85" gradientUnits="userSpaceOnUse"><stop offset=".13" stop-color="#F1E813"/><stop offset=".3" stop-color="#EAE616"/><stop offset=".53" stop-color="#D8DF1F"/><stop offset=".8" stop-color="#BAD52D"/><stop offset=".98" stop-color="#A2CC39"/></linearGradient><linearGradient id="g" x1="1.698" x2="7.245" y1="20.558" y2="6.32" gradientUnits="userSpaceOnUse"><stop offset=".07" stop-color="#A2CC39"/><stop offset=".26" stop-color="#81C45E"/><stop offset=".92" stop-color="#0FA7DF"/></linearGradient><clipPath id="a"><path fill="#fff" d="M0 0h40v40H0z"/></clipPath></defs></svg>