<svg width="32" height="32" viewBox="0 0 32 32" fill="none" xmlns="http://www.w3.org/2000/svg">
<g id="&#208;&#160;&#208;&#181;&#209;&#129;&#209;&#131;&#209;&#128;&#209;&#129; 1 2" clip-path="url(#clip0_5168_94)">
<g id="Vector">
<path d="M31.6831 0.00897147C13.7687 0.77939 0.633777 14.9202 0.159897 31.602C0.146003 31.5121 0.128272 31.4223 0.11056 31.3325C0.0726803 31.1406 0.0348855 30.949 0.0348855 30.7589C0.0390392 29.8302 0.0419818 28.9014 0.0449245 27.9726C0.0563993 24.3508 0.0678764 20.7282 0.151175 17.1094C0.174433 16.1442 0.444807 15.0859 0.912872 14.2486C4.19224 8.40218 8.86127 3.92793 14.7165 0.709617C15.4781 0.290974 16.4375 0.0525801 17.3097 0.0409511C20.9031 -0.00701835 24.4964 -0.00102217 28.0898 0.00497402C29.2875 0.00697275 30.4853 0.00897147 31.6831 0.00897147Z" fill="url(#paint0_linear_5168_94)"/>
<path fill-rule="evenodd" clip-rule="evenodd" d="M32 31.9276C32.0918 31.9264 32.0865 31.9242 32 31.9211V8.26554C17.9348 7.75968 7.29427 20.9295 8.29727 31.9421C8.87123 31.9421 10.0154 31.9431 11.5067 31.9444L11.5129 31.9444H11.5151C17.6481 31.9498 29.6346 31.9603 32 31.9276ZM20.4787 31.6423C20.4462 31.6478 20.4531 31.6534 20.495 31.6592C20.4896 31.6537 20.4841 31.648 20.4787 31.6423ZM20.495 31.6592C20.5002 31.6645 20.5054 31.6696 20.5106 31.6746L20.5149 31.6617L20.5049 31.6605L20.495 31.6592Z" fill="url(#paint1_linear_5168_94)"/>
<path d="M0 0.13697V13.362C3.4538 7.69289 7.77978 3.44832 13.1698 0.13697H0Z" fill="url(#paint2_linear_5168_94)"/>
</g>
</g>
<defs>
<linearGradient id="paint0_linear_5168_94" x1="-8.07997e-07" y1="0.000409464" x2="31.9796" y2="31.9801" gradientUnits="userSpaceOnUse">
<stop stop-color="#457D57"/>
<stop offset="1" stop-color="#437C56"/>
</linearGradient>
<linearGradient id="paint1_linear_5168_94" x1="-8.07997e-07" y1="0.000409464" x2="31.9796" y2="31.9801" gradientUnits="userSpaceOnUse">
<stop stop-color="#457D57"/>
<stop offset="1" stop-color="#437C56"/>
</linearGradient>
<linearGradient id="paint2_linear_5168_94" x1="-8.07997e-07" y1="0.000409464" x2="31.9796" y2="31.9801" gradientUnits="userSpaceOnUse">
<stop stop-color="#457D57"/>
<stop offset="1" stop-color="#437C56"/>
</linearGradient>
<clipPath id="clip0_5168_94">
<rect width="32" height="31.9535" fill="white"/>
</clipPath>
</defs>
</svg>
