<svg
  width="13"
  height="15"
  viewBox="0 0 13 15"
  fill="none"
  xmlns="http://www.w3.org/2000/svg"
>
<g clipPath="url(#clip0_9_4)">
<path
      d="M0 3.265L1.94759 6.51187V8.49237L0.00227835 11.7329L0 3.265Z"
      fill="#5B57A2"
    />
<path
      d="M7.47797 5.33037L9.30293 4.28712L13.0378 4.28387L7.47797 7.46062V5.33037Z"
      fill="#D90751"
    />
<path
      d="M7.46767 3.24588L7.47799 7.54463L5.52585 6.42588V0L7.46781 3.24588H7.46767Z"
      fill="#FAB718"
    />
<path
      d="M13.0378 4.28387L9.30282 4.28713L7.46767 3.24587L5.52585 0L13.0377 4.28387H13.0378Z"
      fill="#ED6F26"
    />
<path
      d="M7.47799 11.7509V9.66525L5.52585 8.56775L5.52692 15L7.47799 11.7509Z"
      fill="#63B22F"
    />
<path
      d="M9.29835 10.7171L1.94745 6.51187L0 3.265L13.0299 10.7129L9.29822 10.7171H9.29835Z"
      fill="#1487C9"
    />
<path
      d="M5.52704 15L7.47784 11.7509L9.29824 10.7171L13.0298 10.7129L5.52704 15Z"
      fill="#017F36"
    />
<path
      d="M0.00213623 11.7329L5.54161 8.56788L3.67926 7.50213L1.94745 8.49238L0.00213623 11.7329Z"
      fill="#984995"
    />
</g>
<defs>
<clipPath id="clip0_9_4">
<rect width="13" height="15" fill="white" />
</clipPath>
</defs>
</svg>
