<svg width="40" height="40" viewBox="0 0 40 40" fill="none" xmlns="http://www.w3.org/2000/svg">
<path d="M0 29.2499L5.59253 33.0199C8.86844 32.4174 22.8093 29.5244 22.8093 24.6167C22.8093 20.929 18.7264 18.4875 15.1197 16.3232C12.2404 14.5954 9.74678 13.1022 9.74678 11.2522C9.74678 9.265 11.4746 7.63459 14.7505 6.52295C15.5177 6.26219 16.2863 6.07006 16.9711 5.90674C13.9834 6.31846 8.38947 7.56597 8.38947 11.3209C8.38947 16.584 19.8957 18.5726 19.9039 24.0142C19.9108 28.2906 0 29.2499 0 29.2499ZM11.5556 10.9915C11.5556 8.51018 14.2839 7.07054 16.4496 6.23474C13.6115 6.90722 10.0748 8.38667 10.0748 11.2522C10.0748 12.9115 12.4847 14.3552 15.283 16.0364C18.9666 18.2501 23.1373 20.752 23.1373 24.618C23.1373 27.0856 20.0672 29.3185 14.0081 31.2659C10.8145 32.2925 7.57976 32.9801 5.98915 33.2806L10.4989 36.3232C10.4989 36.3232 25.7462 31.8684 25.7421 25.6171C25.7352 15.3639 11.5556 14.487 11.5556 10.9915ZM25.7023 8.55135C25.7023 10.0184 24.5097 11.2248 23.0289 11.2248H22.2342V12.5135H23.0289C25.2082 12.5135 26.991 10.7321 26.991 8.55135C26.991 6.37061 25.2233 4.60296 23.0426 4.60296H19.0805V14.1164H20.3691V5.89164H23.0426C24.5097 5.89164 25.7023 7.08426 25.7023 8.55135ZM23.0426 3H17.4775V14.1164H18.7662V4.28868H23.0426C25.3866 4.28868 27.3052 6.19357 27.3052 8.55135C27.3052 10.9091 25.3866 12.8277 23.0289 12.8277H22.2342V14.1164H23.0289C26.0989 14.1164 28.5939 11.6214 28.5939 8.55135C28.5939 5.49502 26.1126 3 23.0426 3ZM32.8991 22.6431L32.8978 15.7619C32.8978 14.336 31.7875 13.1297 30.4165 13.0885C29.7179 13.0679 29.0482 13.3246 28.539 13.8145C28.0203 14.3127 27.7307 14.9934 27.7307 15.7057V22.6555H29.0468V15.6659C29.0468 14.9261 29.6768 14.3305 30.4316 14.4046C31.089 14.4691 31.5693 15.0346 31.5693 15.6933V22.6431H32.8991ZM38.3833 22.6431L38.3819 15.7619C38.3819 14.3635 37.2716 13.1695 35.9006 13.116C35.1883 13.0885 34.5158 13.3493 34.0094 13.842C33.5016 14.336 33.2148 14.9934 33.2148 15.7057V22.6555H34.5309V15.6659C34.5309 14.9261 35.1609 14.3305 35.9157 14.4046C36.5731 14.4691 37.0534 15.0346 37.0534 15.6933V22.6431H38.3833ZM35.8731 11.5404C34.8315 11.524 33.831 11.8835 33.0487 12.5546C32.2678 11.8835 31.2811 11.524 30.2243 11.5404C27.9077 11.5761 26.0852 13.5277 26.0852 15.8306V22.6569H27.415V15.7757C27.415 14.1851 28.6763 12.8648 30.2257 12.8154C31.3497 12.7797 32.4051 13.4179 32.9129 14.4335L33.0638 14.7491L33.2148 14.4335C33.6951 13.4741 34.6544 12.8552 35.7098 12.8154C36.4907 12.7866 37.2414 13.0803 37.8068 13.6375C38.3668 14.1905 38.6838 14.9261 38.6838 15.7208V22.6706H39.9999V15.8443C40.0123 13.5277 38.1897 11.5761 35.8731 11.5404Z" fill="#174882"/>
</svg>
