<svg width="32" height="32" viewBox="0 0 32 32" fill="none" xmlns="http://www.w3.org/2000/svg">
<path d="M24 2.9376C23.1602 3.73208 22.6839 4.07579 22 4.99396H21C19.7529 4.60861 19.3024 4.04665 18 3.96578C17.6078 3.93724 15.4777 3.93724 15 3.96578C13.5568 4.05617 13.2571 4.58007 12 4.99396C11.9497 5.01299 11.0453 4.97969 11 4.99396C10.291 4.08055 9.86993 3.72256 9 2.9376C13.1737 0.915739 17.6302 0.315721 22 1.90943C22.4677 2.07593 23.5525 2.72828 24 2.9376Z" fill="#F00500"/>
<path d="M31.2431 20.7493C30.5971 22.4914 29.459 24.2525 28.2027 25.6598C27.5207 26.4168 26.9859 26.9931 26.1758 27.624C24.2785 29.0701 22.4587 31.0088 20.0949 31.5523C17.4798 32.1492 14.6022 32.1492 11.9871 31.5523C9.6181 31.0088 7.80344 29.0701 5.90621 27.624C5.09604 26.9931 4.56123 26.4168 3.87926 25.6598C0.264272 21.6175 -1.002 15.9315 0.838825 10.9284C1.1875 10.0015 1.32928 8.83132 1.8523 7.98209C2.0933 7.59388 2.72221 7.17955 2.86578 7C3.35803 9.00417 3.65364 11.2748 3.87926 11.9105C3.86387 11.9444 3.89977 11.8765 3.87926 11.9105C2.68452 14.201 2.00613 16.4364 1.8523 18.7851C1.8523 18.8142 1.8523 18.756 1.8523 18.7851C1.81128 19.4888 1.72924 20.3077 1.8523 20.7493C2.23688 22.1323 4.05001 23.183 5.90621 24.6777C8.9469 27.1235 12.9183 29.3843 16.041 29.5882C19.297 29.7968 22.9761 27.3079 26.1758 24.6777C26.6783 24.2555 27.7617 24.1712 28.2027 23.6956C28.5206 23.3462 29.2521 22.7135 29.2162 22.7135C29.2059 22.7135 29.1957 22.7232 29.2162 22.7135C29.2316 22.7038 29.2264 22.7232 29.2162 22.7135C29.2111 22.7086 29.2008 22.7183 29.2162 22.7135C29.2316 22.7086 29.2213 22.7232 29.2162 22.7135C29.2111 22.7038 29.1957 22.7183 29.2162 22.7135C29.2316 22.7086 29.2213 22.7232 29.2162 22.7135C29.2111 22.7038 29.2059 22.7135 29.2162 22.7135C29.2264 22.7135 29.2162 22.7232 29.2162 22.7135C29.2162 22.7038 29.2059 22.7135 29.2162 22.7135C29.2264 22.7135 29.2162 22.7232 29.2162 22.7135C29.2316 22.6747 29.1905 22.7475 29.2162 22.7135C29.2931 22.6019 29.1752 21.8188 29.2162 21.7314C29.5085 21.1054 30.1425 20.3253 30.2297 19.7672C30.2707 19.5003 30.2502 18.9016 30.2297 18.7851C30.2245 18.7657 30.2348 18.8385 30.2297 18.7851C30.2194 18.6881 30.2399 18.9307 30.2297 18.7851C30.2194 18.5667 30.245 17.9535 30.2297 17.803C30.0092 15.5999 29.3308 13.8176 28.2027 11.9105C28.1566 11.8377 28.2283 11.9687 28.2027 11.9105C28.1925 11.8959 28.2078 11.9202 28.2027 11.9105C28.3617 11.4592 28.6983 9.15946 29.2162 7C29.3495 7.16985 30.0707 7.73946 30.2297 7.98209C30.9527 9.09822 30.8432 10.6585 31.2431 11.9105C32.1712 14.924 32.3302 17.7794 31.2431 20.7493Z" fill="#F00500"/>
<path d="M23.9131 14.9853C23.9002 15.05 24.1149 15.8154 23.9131 15.9569C23.3206 16.3653 22.0815 16.7466 21.0038 16.9285C20.3898 17.0337 19.2489 17.0134 19.0643 16.9285C18.9441 16.8719 19.0214 17.0741 19.0643 16.9285C19.1545 16.6253 19.5789 16.2683 20.0341 15.9569C20.2659 15.7992 21.5356 15.2117 21.9736 14.9853C22.6949 14.6133 22.5483 14.0663 22.9433 14.0137C23.0679 13.9975 23.8659 13.9935 23.9131 14.0137C23.9904 14.042 23.8788 14.7265 23.9131 14.9853C23.9346 14.8761 23.9303 15.1228 23.9131 14.9853Z" fill="black"/>
<path d="M12.9072 16.9811C12.8766 17.0312 13.0806 16.9603 12.9072 16.9811C12.7337 17.002 12.2359 17.0103 11.9349 16.9811C10.8533 16.8643 8.88228 16.3341 8.0456 16.0005C7.57624 15.8128 7.32327 16.2048 7.07328 16.0005V15.0198C7.04777 14.7446 7.03247 14.1935 7.07328 14.0392C7.09879 13.9099 6.99676 14.1518 7.07328 14.0392C7.1141 13.9975 6.88962 14.0392 7.07328 14.0392C7.29776 14.0392 7.73949 13.9599 8.0456 14.0392C8.67311 14.1976 9.82486 14.461 10.9625 15.0198C11.9013 15.4786 12.6368 15.6918 12.9072 16.0005C13.0908 16.1923 12.9531 16.8977 12.9072 16.9811Z" fill="black"/>
<path d="M19.9686 23.9399C19.9686 23.9544 20.0393 23.6647 19.9686 23.9399C19.8979 24.2152 19.9686 24.9093 19.9686 24.919C19.9167 24.9238 20.0204 24.9238 19.9686 24.919H18.9771C18.864 25.1942 18.9913 25.8594 18.9771 25.898V23.9399C18.897 23.9593 18.2355 23.9158 17.9857 23.9399C16.9537 24.0462 16.0387 24.0896 15.0114 23.9399C14.8464 23.9158 14.0247 23.9351 14.0199 23.9399C14.0152 23.9448 14.0105 24.5375 14.0199 24.919V25.898C13.9775 25.9656 14.0199 25.8932 14.0199 25.898C14.0058 25.9125 14.1283 26.1201 14.0199 25.898C13.9021 25.6662 14.0812 25.1749 14.0199 24.919H13.0285C13.0097 24.8224 13.0379 24.022 13.0285 23.9399C12.9578 23.8772 13.0426 23.9496 13.0285 23.9399C13.0049 23.9206 13.0285 23.9689 13.0285 23.9399H14.0199C14.133 23.9448 14.6909 23.9303 15.0114 23.9399H16.0028V22.9609V21.9819C15.1687 21.6053 15.1952 21.5243 15.0114 21.0029C14.9737 20.8967 15.0208 20.5067 15.0114 20.0238C15.0067 19.5459 14.9784 20.1301 15.0114 20.0238C15.0774 19.7824 14.7758 19.1076 15.0114 19.0448C15.0915 19.0207 14.8907 19.0448 16.0028 19.0448H17.9857C18.1601 19.1317 17.8867 18.9096 17.9857 19.0448C18.0988 19.1993 17.9857 19.7293 17.9857 20.0238C17.9857 20.4439 18.0281 20.858 17.9857 21.0029C17.9244 21.2008 18.1035 21.8129 17.9857 21.9819C17.7501 22.2909 17.3854 21.8419 16.9943 21.9819V22.9609V23.9399H17.9857C18.3344 23.9399 18.9489 23.9351 18.9771 23.9399C19.0243 23.9496 18.93 24.022 18.9771 23.9399C19.3824 23.9206 19.9686 23.9255 19.9686 23.9399Z" fill="black"/>
<path d="M17.8983 25.8626C17.8006 25.9145 17.9137 25.8721 17.8983 25.8626C17.8829 25.8579 17.0184 25.0519 16.9413 25V25.8626C16.6276 26.1741 17.0338 25.8579 16.9413 25.8626C16.7973 25.8768 16.1591 26.1033 15.9843 25.8626C15.8917 25.7399 15.9843 25 15.9843 25C15.9843 25 16.0614 25.0047 15.9843 25V25.8626H15.0273C14.9347 25.8343 15.1147 25.0378 15.0273 25H15.9843H17.8983C17.9034 25.151 18.1245 25.7446 17.8983 25.8626Z" fill="black"/>
<path d="M29.9811 18.9968C29.9761 18.9768 29.9861 19.052 29.9811 18.9968C28.7813 18.8665 25.184 19.3606 22.0046 21.9921C22.0046 21.9921 20.8213 17 16.0222 17C11.2232 17 10.0399 21.9921 10.0399 21.9921C7.35038 19.0899 3.36311 18.8064 2.06337 18.9968C2.06337 19.0269 2.06337 18.9668 2.06337 18.9968C2.02337 19.7236 1.94339 20.5376 2.06337 20.9937C2.43829 22.4222 3.24491 23.4436 5.05455 24.9874C8.01896 27.5136 12.9778 29.769 16.0222 29.9795C19.1966 30.195 23.8705 28.7025 26.9899 25.9858C27.4798 25.5497 27.557 24.4802 27.9869 23.9889C28.2969 23.6281 29.019 22.9905 28.984 22.9905C28.974 22.9905 28.964 23.0006 28.984 22.9905C28.999 22.9805 28.994 23.0006 28.984 22.9905C28.979 22.9855 28.969 22.9955 28.984 22.9905C28.999 22.9855 28.989 23.0006 28.984 22.9905C28.979 22.9805 28.964 22.9955 28.984 22.9905C28.999 22.9855 28.989 23.0006 28.984 22.9905C28.979 22.9805 28.974 22.9905 28.984 22.9905C28.994 22.9905 28.984 23.0006 28.984 22.9905C28.984 22.9805 28.974 22.9905 28.984 22.9905C28.994 22.9905 28.984 23.0006 28.984 22.9905C28.999 22.9504 28.959 23.0256 28.984 22.9905C29.059 22.8752 28.944 22.0823 28.984 21.9921C29.269 21.3455 29.8961 20.5717 29.9811 19.9953C30.0111 19.7196 30.0011 19.1171 29.9811 18.9968ZM17.0193 25.9858C16.9243 26.0409 17.0343 25.9958 17.0193 25.9858C17.0043 25.9808 17.0943 25.0425 17.0193 24.9874V25.9858C16.7143 26.3166 16.1122 25.9808 16.0222 25.9858C15.8822 26.0008 16.1922 26.2414 16.0222 25.9858C15.9322 25.8555 16.0222 24.9874 16.0222 24.9874C16.0222 24.9874 16.0972 24.9924 16.0222 24.9874L15.0252 25.9858C14.9352 25.9557 15.1101 25.0275 15.0252 24.9874H16.0222H18.0163C18.0213 25.1478 17.2392 25.8605 17.0193 25.9858ZM20.0105 24.9874C19.9355 25.2731 20.0105 24.9773 20.0105 24.9874C19.9555 24.9924 20.0655 24.9924 20.0105 24.9874H19.0134V25.9858C18.8934 26.2715 19.0284 25.9457 19.0134 25.9858V24.9874C18.9284 25.0074 18.2813 24.9623 18.0163 24.9874C16.9216 25.0976 15.1179 25.1428 14.0281 24.9874C13.8531 24.9623 14.0331 24.9824 14.0281 24.9874C14.0231 24.9924 14.0181 24.5914 14.0281 24.9874V25.9858C13.9831 26.056 14.0281 25.9808 14.0281 25.9858C14.0131 26.0008 14.1431 26.2164 14.0281 25.9858C13.9031 25.7452 14.0931 25.253 14.0281 24.9874H13.031C13.011 24.8871 13.041 25.0726 13.031 24.9874V23.9889C12.956 23.9238 13.046 23.999 13.031 23.9889C13.006 23.9689 13.031 24.019 13.031 23.9889H14.0281C14.1481 23.994 14.6852 23.9789 15.0252 23.9889H16.0222V22.9905C15.1374 22.5996 14.2231 21.535 14.0281 20.9937C13.9881 20.8834 14.0381 21.4949 14.0281 20.9937C14.0231 20.4975 13.9931 20.1055 14.0281 19.9953C14.0981 19.7446 14.7752 19.062 15.0252 18.9968C15.1101 18.9718 14.8425 18.9968 16.0222 18.9968H18.0163C18.2013 19.0871 17.9114 19.8549 18.0163 19.9953C18.1363 20.1557 18.0163 19.6895 18.0163 19.9953C18.0163 20.4313 18.0613 20.8433 18.0163 20.9937C17.9514 21.1992 18.1413 21.8167 18.0163 21.9921C17.7664 22.3129 17.4342 22.8452 17.0193 22.9905V23.9889H18.0163C18.3863 23.9889 18.9834 23.9839 19.0134 23.9889C19.0634 23.999 18.9634 24.0742 19.0134 23.9889H20.0105C20.4554 23.9889 20.0105 23.9739 20.0105 23.9889C19.9955 23.9839 20.0854 24.7067 20.0105 24.9874Z" fill="white"/>
<path d="M29.9748 18.3253C29.9648 18.1116 29.9446 17.8123 29.9295 17.665C29.713 15.5082 29.1289 13.7456 28.0212 11.8786C27.9759 11.8073 27.9356 11.7361 27.9104 11.6791C27.9004 11.6648 27.8953 11.6506 27.8903 11.6411C28.0464 11.1992 28.6858 9.35121 29.1944 7.23714C29.8842 4.3677 30.3222 1.01368 28.9829 0.00652866C28.9829 0.00652866 26.6668 -0.154996 23.5652 2.71444C22.7243 3.50782 21.954 4.3677 21.2692 5.28459L21.0527 5.21808C19.804 4.83327 18.51 4.59573 17.2059 4.51497C16.8132 4.48647 15.348 4.48647 14.8696 4.51497C13.4246 4.60523 12.3169 4.80951 11.0581 5.22283C11.0077 5.24183 10.9624 5.25608 10.9171 5.27034C10.2072 4.3582 9.41665 3.50307 8.54559 2.7192C5.31811 -0.164497 2.91638 0.00177764 2.91638 0.00177764C1.49649 1.04219 1.97986 4.54823 2.71498 7.51268C3.19835 9.47473 3.79248 11.1992 4.01403 11.8216C3.99892 11.8548 3.97878 11.8929 3.95864 11.9261C2.78547 14.1685 2.15105 16.33 2 18.6294C3.31415 18.4489 6.93437 18.2446 9.64827 21C9.64827 21 11.4407 16.5343 16.2744 16.5343C21.1081 16.5343 22.1403 21 22.1403 21C25.3426 18.5059 28.7916 18.5866 30 18.7054C29.995 18.6104 29.9849 18.4679 29.9748 18.3253ZM4.96566 10.0306C4.96566 10.0306 3.08254 5.58864 3.5659 3.05175C3.64647 2.62418 3.79752 2.24887 4.03417 1.96383C4.03417 1.96383 6.16903 2.16336 9.61302 5.77391C9.61302 5.77391 8.95846 6.07321 8.08236 6.70981C8.08236 6.70981 8.07732 6.71456 8.07229 6.71456C7.12066 7.40341 5.90218 8.49608 4.96566 10.0306ZM12.9563 16.6293C12.9261 16.6863 12.775 16.7481 12.6038 16.7719C12.4327 16.7956 11.909 16.7814 11.6119 16.7481C10.5445 16.6151 9.41162 16.3063 8.58587 15.9262C8.12264 15.7124 7.79032 15.4987 7.54361 15.2659L7.40263 15.1281L7.38752 14.9476C7.36235 14.634 7.36738 14.1399 7.40766 13.9642C7.43284 13.8169 7.48822 13.6744 7.56375 13.5461C7.60403 13.4986 7.60403 13.4986 7.78529 13.4986C8.00683 13.4986 8.19313 13.5319 8.49523 13.6221C9.11455 13.8026 10.036 14.2397 11.1588 14.8763C12.0852 15.3989 12.4327 15.6554 12.6995 16.007C12.8808 16.2255 13.0016 16.5343 12.9563 16.6293ZM24.8189 15.0568C24.8038 15.1329 24.5672 15.3609 24.3305 15.5272C23.6357 16.007 22.392 16.4536 21.1282 16.6673C20.4082 16.7909 19.6882 16.8099 19.4717 16.7101C19.3307 16.6436 19.3106 16.5913 19.3609 16.4203C19.4666 16.064 19.809 15.6744 20.3427 15.3086C20.6146 15.1233 21.7173 14.4915 22.2309 14.2255C23.0768 13.7884 23.7616 13.5271 24.2248 13.4653C24.3708 13.4463 24.547 13.4416 24.6024 13.4653C24.693 13.4986 24.7937 13.7504 24.834 14.0544C24.8542 14.216 24.8441 14.9286 24.8189 15.0568ZM23.9831 6.70981L23.973 6.70506C23.1271 6.06846 22.4927 5.76916 22.4927 5.76916C25.8209 2.15861 27.8802 1.95908 27.8802 1.95908C28.1068 2.24887 28.2528 2.61943 28.3334 3.04699C28.8017 5.58388 26.984 10.0306 26.984 10.0306C26.2237 8.75262 25.2016 7.62195 23.9831 6.70981Z" fill="#FFA409"/>
<path d="M28 3.145C27.5969 3.095 25.6899 3.085 23.5297 7L23.5194 6.995C22.6512 6.325 22 6.01 22 6.01C25.416 2.21 27.5297 2 27.5297 2C27.7674 2.305 27.9173 2.695 28 3.145Z" fill="#FF9300"/>
<path d="M26.7127 10C26.022 8.71602 25.1042 7.58897 24 6.67592C25.8993 2.95238 27.5715 2.96189 27.9304 3.00945C28.353 5.55363 26.7127 10 26.7127 10Z" fill="#FF8300"/>
<path d="M28.0767 3.01474C28.0512 3.00983 28.0256 3.00491 28 3L28.0767 3.01474Z" fill="#FF8300"/>
<path d="M9 6.01C9 6.01 8.35109 6.325 7.48253 6.995C7.48253 6.995 7.47754 7 7.47255 7C5.31115 3.08 3.40932 3.095 3 3.145C3.07987 2.695 3.22962 2.3 3.46423 2C3.46922 2 5.58569 2.21 9 6.01Z" fill="#FF9300"/>
<path d="M7 6.67592C6.16645 7.37022 5.10476 8.45922 4.28876 10C4.28876 10 2.64797 5.55363 3.06913 3.00945C3.42449 2.96189 5.10037 2.95238 7 6.67592Z" fill="#FF8300"/>
<path d="M3.07976 3C3.05483 3.00476 3.02492 3.00952 3 3.01428L3.07976 3Z" fill="#FF8300"/>
<path d="M21.2704 11.9824C21.2704 11.9824 19.8362 12.0615 20.0155 11.0735C20.1948 10.0854 21.3152 9.96688 21.6289 10.0064C21.9426 10.0459 23.1975 10.4411 22.9734 11.2711C22.7493 12.101 22.4356 11.9429 22.2563 11.9824C22.077 12.022 21.2704 11.9824 21.2704 11.9824Z" fill="white"/>
<path d="M10.2704 11.9824C10.2704 11.9824 8.83624 12.0615 9.01551 11.0735C9.19477 10.0854 10.3152 9.96688 10.6289 10.0064C10.9426 10.0459 12.1975 10.4411 11.9734 11.2711C11.7493 12.101 11.4356 11.9429 11.2563 11.9824C11.077 12.022 10.2704 11.9824 10.2704 11.9824Z" fill="white"/>
</svg>
