<svg width="40" height="40" viewBox="0 0 40 40" fill="none" xmlns="http://www.w3.org/2000/svg">
<path d="M23.1 10.1996C23.7 7.89961 24.4 4.89961 25.1 2.59961C30.6 3.89961 35.5 4.79961 39.5 2.29961C38.6 1.59961 37.8 0.799609 36.9 0.0996094C33.8 3.19961 27.3 2.09961 18.8 0.399609C10.7 -1.00039 1.99996 5.19961 1.19996 13.5996C0.899955 16.2996 1.69996 18.4996 3.39996 20.0996C-7.40004 37.2996 14.7 46.9996 26.3 33.9996C26 33.4996 25.7 32.8996 25.4 32.2996C17.6 45.9996 -1.70004 37.7996 5.69996 21.7996C9.09996 23.6996 13.1 24.2996 17.6 23.0996L16.9 25.5996C16.4 26.3996 15.6 26.8996 14.8 27.4996C16.1 27.4996 17.5 27.2996 18.8 27.4996C39.1 30.6996 43.1 9.89961 23.1 10.1996ZM4.79996 17.9996C1.69996 10.2996 9.79996 0.599609 18.8 0.999609C21.7 1.39961 22.4 2.19961 22.4 3.89961C21.9 5.89961 21.3 8.19961 20.8 10.1996C15.2 10.1996 8.89996 12.0996 4.79996 17.9996ZM17.7 22.2996C13 23.5996 9.69995 22.9996 6.59996 20.1996C9.99996 13.9996 14.1 10.9996 20.6 10.7996C19.7 14.4996 18.7 18.5996 17.7 22.2996ZM23.5 27.1996C20.4 26.9996 19.4 26.3996 19.1 25.2996C19.4 24.2996 19.6 23.1996 19.9 22.2996C22.5 21.4996 24.1 19.8996 25.6 16.4996C25.2 16.1996 24.8 16.0996 24.4 15.7996C23.5 19.0996 22.5 20.8996 20.1 21.5996C21 18.0996 22 14.2996 22.9 10.6996C35.6 10.7996 36.9 25.7996 23.5 27.1996Z" fill="#083C9C"/>
</svg>
