<svg width="40" height="40" viewBox="0 0 40 40" fill="none" xmlns="http://www.w3.org/2000/svg">
<path d="M29.6 7.1C28.7 3.3 25.1 1 20.7 1H9.1C4.1 1 0 4.8 0 9.4V19.9C0 24.5 4.1 28.3 9.1 28.3H20.6C24.8 28.3 28.4 26.2 29.5 22.6H6.6V7.1H29.6Z" fill="#D71920"/>
<path d="M30.8999 11.7998H19.2999C15.0999 11.7998 11.4999 13.8998 10.3999 17.4998H33.3999V32.8998H10.3999C11.2999 36.6998 14.9999 38.9998 19.3999 38.9998H30.8999C35.8999 38.9998 39.9999 35.1998 39.9999 30.5998V20.0998C40.0999 15.5998 35.8999 11.7998 30.8999 11.7998Z" fill="#007A5F"/>
</svg>
