<svg width="50" height="50" preserveAspectRatio="xMidYMid meet" viewBox="0 0 190 130" fill="none" xmlns="http://www.w3.org/2000/svg">
<path d="M211.463 1.35181C199.822 8.65756 188.005 15.5982 176.071 22.2523C131.24 44.8521 89.6735 70.9938 49.8203 101.554C89.2937 76.7771 130.545 55.7138 173.031 38.4423C180.017 56.5087 173.531 77.5074 156.576 88.1276C138.066 99.7168 113.837 94.703 101.208 77.1198C99.7401 77.9007 98.2888 78.7068 96.8262 79.4961C112.583 98.686 140.434 103.705 161.932 90.2426C184.183 76.3109 191.521 47.6356 179.393 24.6903C190.219 17.202 200.907 9.44684 211.463 1.35181V1.35181Z" fill="#FECC07"/>
<path d="M108.285 52.2533C112.414 49.6664 116.605 47.1385 120.807 44.6161L94.6915 53.7083C90.8831 37.0885 97.6308 19.2075 112.845 9.68281C128.607 -0.190205 148.484 2.02595 161.839 13.7528C155.567 18.775 139.667 31.9736 134.261 36.7318C143.596 31.3725 153.061 26.1903 162.629 21.1934C164.354 20.2721 165.836 19.494 166.851 18.9772C166.854 18.9772 166.857 18.9828 166.857 18.9856C168.303 18.2413 169.74 17.4857 171.191 16.7498C155.226 -1.10869 128.371 -5.51574 107.486 7.56214C87.446 20.1148 79.5029 44.6246 86.9763 66.1373C87.0832 66.0671 87.1901 65.9997 87.2997 65.9267C94.264 61.2472 101.256 56.6548 108.285 52.2533V52.2533Z" fill="#525F7B"/>
</svg>
