<?xml version="1.0" standalone="no"?>
<!DOCTYPE svg PUBLIC "-//W3C//DTD SVG 20010904//EN"
 "http://www.w3.org/TR/2001/REC-SVG-20010904/DTD/svg10.dtd">
<svg version="1.0" xmlns="http://www.w3.org/2000/svg"
 width="225.000000pt" height="225.000000pt" viewBox="0 0 225.000000 225.000000"
 preserveAspectRatio="xMidYMid meet">

<g transform="translate(0.000000,225.000000) scale(0.100000,-0.100000)"
fill="#000000" stroke="none">
<path d="M1047 1789 c-20 -5 -56 -19 -80 -31 l-42 -23 65 -2 c318 -12 344 -8
242 35 -58 25 -135 34 -185 21z"/>
<path d="M900 1700 c-11 -7 4 -10 50 -10 46 0 61 3 50 10 -8 5 -31 10 -50 10
-19 0 -42 -5 -50 -10z"/>
<path d="M856 1654 c-16 -41 -10 -44 98 -44 l105 0 -10 30 -11 30 -88 0 c-71
0 -89 -3 -94 -16z"/>
<path d="M892 1523 c17 -20 128 -15 128 6 0 3 -31 6 -69 6 -54 0 -67 -3 -59
-12z"/>
<path d="M810 1471 c0 -37 33 -120 62 -155 l29 -36 209 0 209 0 25 33 c30 39
51 88 60 140 l7 37 -301 0 c-287 0 -300 -1 -300 -19z"/>
<path d="M935 1251 c3 -5 30 -19 61 -30 90 -34 208 -24 277 24 20 14 6 15
-161 15 -111 0 -181 -4 -177 -9z"/>
<path d="M85 1027 c-50 -42 -41 -134 16 -166 34 -19 99 -8 99 17 0 14 -7 17
-38 14 -47 -5 -72 16 -72 59 0 28 29 69 49 69 5 0 21 -4 35 -10 22 -8 26 -7
26 9 0 37 -75 43 -115 8z"/>
<path d="M263 1026 c-24 -21 -28 -32 -28 -76 0 -44 4 -55 28 -76 32 -28 56
-30 96 -9 31 15 41 39 41 98 0 77 -79 113 -137 63z m81 -22 c19 -18 21 -85 4
-102 -7 -7 -22 -12 -35 -12 -40 0 -57 65 -27 108 18 26 37 28 58 6z"/>
<path d="M440 950 l0 -100 75 0 c73 0 75 -1 75 -25 0 -18 5 -25 20 -25 17 0
20 7 20 45 0 33 -4 45 -15 45 -12 0 -15 16 -15 80 0 73 -2 80 -20 80 -18 0
-20 -7 -20 -80 l0 -80 -40 0 -40 0 0 80 c0 73 -2 80 -20 80 -19 0 -20 -7 -20
-100z"/>
<path d="M660 950 c0 -91 2 -100 19 -100 12 0 33 21 57 60 22 33 42 60 45 60
3 0 3 -27 1 -60 -4 -56 -3 -60 17 -60 20 0 21 5 21 100 0 89 -2 100 -17 100
-11 0 -34 -26 -60 -68 l-42 -67 -1 68 c0 60 -2 67 -20 67 -19 0 -20 -7 -20
-100z"/>
<path d="M885 980 c19 -38 35 -74 35 -80 0 -5 -11 -10 -25 -10 -18 0 -25 -5
-25 -20 0 -15 7 -20 24 -20 39 0 73 39 100 118 31 87 31 82 7 82 -14 0 -24
-13 -37 -52 l-17 -53 -24 53 c-20 42 -29 52 -49 52 l-24 0 35 -70z"/>
<path d="M1056 993 c-4 -32 -9 -77 -13 -100 -5 -39 -3 -43 16 -43 18 0 21 7
23 43 1 23 2 55 1 70 -2 40 9 26 33 -46 28 -85 46 -85 70 -2 10 36 22 65 26
65 5 0 8 -29 8 -65 0 -59 2 -65 21 -65 20 0 21 3 14 83 -8 104 -12 117 -35
117 -13 0 -24 -17 -41 -64 -13 -36 -26 -63 -29 -61 -4 2 -15 31 -25 65 -15 50
-22 60 -40 60 -20 0 -23 -7 -29 -57z"/>
<path d="M1460 950 l0 -100 39 0 c56 0 89 15 97 44 9 38 -11 65 -56 72 -34 6
-40 10 -40 31 0 24 2 25 45 19 41 -7 45 -5 45 13 0 19 -6 21 -65 21 l-65 0 0
-100z m95 -40 c0 -10 -12 -16 -32 -18 -28 -3 -33 0 -33 18 0 18 5 21 33 18 20
-2 32 -8 32 -18z"/>
<path d="M1656 957 c-20 -51 -36 -96 -36 -100 0 -17 38 -5 43 13 4 15 14 20
40 20 27 0 37 -5 42 -20 6 -19 45 -29 45 -12 0 24 -74 192 -85 192 -7 0 -29
-41 -49 -93z m63 -14 c1 -7 -8 -13 -18 -13 -18 0 -19 3 -9 32 10 28 12 30 19
12 4 -10 8 -25 8 -31z"/>
<path d="M1820 950 c0 -93 1 -100 20 -100 17 0 20 7 20 40 l0 40 40 0 40 0 0
-40 c0 -33 3 -40 20 -40 19 0 20 7 20 100 0 93 -1 100 -20 100 -17 0 -20 -7
-20 -40 l0 -40 -40 0 -40 0 0 40 c0 33 -3 40 -20 40 -19 0 -20 -7 -20 -100z"/>
<path d="M2030 950 c0 -92 1 -100 19 -100 17 0 20 8 23 48 l3 47 30 -47 c21
-34 37 -48 53 -48 29 0 28 5 -14 56 -38 47 -38 47 9 107 l29 37 -25 0 c-17 0
-32 -12 -53 -42 l-29 -43 -3 43 c-3 34 -7 42 -23 42 -18 0 -19 -8 -19 -100z"/>
<path d="M1310 940 c0 -17 7 -20 50 -20 43 0 50 3 50 20 0 17 -7 20 -50 20
-43 0 -50 -3 -50 -20z"/>
</g>
</svg>
