<svg width="40" height="41" viewBox="0 0 40 41" fill="none" xmlns="http://www.w3.org/2000/svg">
<path d="M21.3 14.6C21.7 14.6 22.1 14.4 22.5 14.3L35.9 9.3C34.1 6.4 29.1 0.6 21.4 0.1C20.9 0 20.3 0 19.7 0C12.3 0 6.6 3.3 3 9.2C0.5 13 0 16.9 0 19.8C0 21.8 0.2 23.3 0.4 24C0.6 25.7 1.5 27.5 2 27.8C2.3 28 2.8 28.2 3.3 28.2C3.6 28.2 4 28.1 4.3 28L17.6 23C17.2 22.3 16.4 20.9 14.9 17.7C12.5 12.6 11.6 9.5 11.4 7.2C11.5 6.9 11.5 6.7 11.5 6.6C11.5 5.9 11.9 5.2 12.6 5.2C13.5 5.3 14.3 6 15.2 6.9C16.9 8.6 19.3 12.6 20.1 13.7C20.4 14.4 20.8 14.6 21.3 14.6Z" fill="#DB0334"/>
<path d="M18.6 25.3998C18.2 25.3998 17.8 25.4998 17.4 25.6998L4 30.7998C5.8 33.6998 10.8 39.3998 18.5 39.9998C19.1 40.0998 19.6 40.0998 20.2 40.0998C27.6 40.0998 33.3 36.7998 37 30.8998C39.4 27.0998 40 23.1998 40 20.0998C40 18.0998 39.8 16.6998 39.6 15.9998C39.4 14.2998 38.5 12.4998 37.9 12.1998C37.6 11.9998 37.1 11.7998 36.5 11.7998C36.2 11.7998 35.8 11.8998 35.5 11.9998L22.2 16.9998C22.6 17.6998 23.4 19.0998 24.9 22.2998C27.3 27.3998 28.2 30.3998 28.4 32.7998V33.2998C28.4 33.9998 28 34.6998 27.4 34.6998C26.5 34.5998 25.7 33.8998 24.8 32.9998C23.1 31.2998 20.7 27.2998 19.9 26.1998C19.6 25.5998 19.1 25.3998 18.6 25.3998Z" fill="#DB0334"/>
</svg>
