<svg width="40" height="40" viewBox="0 0 40 40" fill="none" xmlns="http://www.w3.org/2000/svg">
<path d="M23.9855 0.425781V10.7965H19.9653C14.8857 10.7965 10.7942 14.8879 10.7942 19.9672C10.7942 25.0448 14.8857 29.1362 19.9636 29.1362H23.9855V39.5069C33.1549 37.7431 40 29.7017 40 19.9655C40 10.3017 33.1582 2.26025 23.9855 0.425781Z" fill="#003791"/>
<path d="M19.9651 32.3794C13.1217 32.3794 7.54645 26.8069 7.54645 19.9655C7.54645 13.124 13.12 7.54993 19.9619 7.54993H20.7394V0H19.9635C8.96049 0 0 8.9603 0 19.9638C0 31.0397 8.9605 40 19.9651 40H20.741V32.3827H19.9651V32.3794Z" fill="#FF4B5F"/>
</svg>
