<svg version="1.1" id="Layer_1" xmlns="http://www.w3.org/2000/svg" xmlns:xlink="http://www.w3.org/1999/xlink" x="0px" y="0px"
	 width="100%" viewBox="0 0 512 512" enable-background="new 0 0 512 512" xml:space="preserve">
<path fill="#FFFFFF" opacity="1.000000" stroke="none" 
	d="
M285.000000,513.000000 
	C190.023056,513.000000 95.546112,513.000000 1.034582,513.000000 
	C1.034582,342.398041 1.034582,171.796051 1.034582,1.097036 
	C171.560287,1.097036 342.120667,1.097036 512.840515,1.097036 
	C512.840515,171.666550 512.840515,342.333252 512.840515,513.000000 
	C437.129364,513.000000 361.314667,513.000000 285.000000,513.000000 
M375.082703,220.933899 
	C370.057434,220.997757 365.032166,221.061600 359.079926,220.999939 
	C354.060577,221.084824 349.041199,221.169708 343.130890,221.089722 
	C337.141174,221.881317 332.466370,220.549957 329.788147,214.320221 
	C327.937958,210.016556 325.160309,206.111603 322.655243,201.363968 
	C318.460541,194.235443 314.265839,187.106918 309.945068,179.290482 
	C306.024567,172.832214 302.104095,166.373932 297.989288,159.217361 
	C297.352020,158.039719 296.714752,156.862076 295.669373,154.930298 
	C300.747650,154.930298 304.875580,154.930298 309.933014,155.057007 
	C316.957184,154.995804 323.981384,154.934601 331.932953,155.011658 
	C338.624664,154.965683 345.316406,154.919708 352.861176,155.011246 
	C359.550232,154.048264 364.052551,157.162415 366.663300,162.979660 
	C369.588989,169.498703 374.519836,171.130508 381.943542,169.903076 
	C388.623108,169.837219 395.302673,169.771378 402.451355,169.731003 
	C402.536469,169.598038 402.723969,169.417740 402.688293,169.340637 
	C402.561676,169.066986 402.358917,168.828537 402.038757,167.913528 
	C395.571167,156.866714 389.043579,145.854340 382.667542,134.754944 
	C380.347382,130.716003 377.104828,128.851929 372.469574,128.977524 
	C366.319946,129.144119 360.164825,129.110001 353.085815,128.995499 
	C342.727814,129.051086 332.369843,129.106689 321.085663,128.998703 
	C294.907471,128.998703 268.729309,128.998703 241.544830,128.998703 
	C245.591599,135.648010 249.105377,141.421509 252.858414,147.860077 
	C254.547516,150.622070 256.236603,153.384064 258.034302,156.819580 
	C259.714325,159.544205 261.394348,162.268845 263.230133,165.666504 
	C265.524597,169.440170 267.819061,173.213852 270.265472,177.659561 
	C274.106995,184.235947 277.902008,190.840027 281.799683,197.382965 
	C290.093750,211.306091 298.441162,225.197418 306.960693,239.784180 
	C308.574402,243.444061 310.792999,246.639755 315.185974,246.736160 
	C321.464874,246.873932 327.752869,246.599243 334.948303,246.707703 
	C340.968201,246.633591 346.988068,246.559464 353.918640,246.706314 
	C358.951080,246.631882 363.983551,246.557449 369.921936,246.697113 
	C374.295624,246.620056 378.669281,246.543015 383.948151,246.683365 
	C395.259186,246.628281 406.570190,246.573196 418.815582,246.699738 
	C428.703278,246.699738 438.590973,246.699738 449.042633,246.699738 
	C448.467163,245.434189 448.214752,244.679626 447.809998,244.018265 
	C438.909668,229.475281 429.884399,215.006958 421.165833,200.356033 
	C419.327789,197.267288 417.350342,196.057526 413.087616,196.756195 
	C409.724854,196.833389 406.362061,196.910583 402.077148,196.807404 
	C396.732758,196.807404 391.388336,196.807404 385.055176,196.807404 
	C389.839233,205.223465 394.017151,212.573227 398.536621,220.523804 
	C394.478577,220.724625 391.241058,220.884842 387.094757,220.874405 
	C383.398438,220.946808 379.702118,221.019211 375.082703,220.933899 
M294.711517,282.861603 
	C298.285553,278.267029 299.201904,273.657715 294.640411,268.362305 
	C292.427979,264.907806 290.215546,261.453308 287.832458,257.325592 
	C285.630371,253.851654 283.428253,250.377701 281.052094,246.214478 
	C271.719269,230.805786 262.386475,215.397079 252.928391,199.296387 
	C250.334259,195.080475 247.740112,190.864548 245.007263,185.978317 
	C242.734940,182.219330 240.462616,178.460342 238.021652,174.040329 
	C235.774124,170.323349 233.526596,166.606384 231.085968,162.204300 
	C228.811386,158.441147 226.536789,154.677994 224.053101,150.194916 
	C222.942078,148.438843 221.831055,146.682770 220.505508,144.587616 
	C219.552979,145.615372 218.884995,146.123444 218.490494,146.792740 
	C207.555145,165.344803 196.647568,183.913254 185.214554,202.956512 
	C181.046661,210.119980 176.878754,217.283432 172.190338,224.928909 
	C169.115784,230.279938 166.041245,235.630981 162.421677,241.382309 
	C161.066635,243.672913 159.807602,246.027191 158.338486,248.242111 
	C154.010193,254.767700 154.270264,260.620209 158.538986,267.589355 
	C182.961700,307.461975 206.918442,347.620026 231.039948,387.677185 
	C232.100906,389.439087 233.225586,391.162567 234.691544,393.493866 
	C240.587662,383.248413 246.240250,373.851013 251.360077,364.171844 
	C252.386566,362.231232 252.274506,358.709137 251.172531,356.782837 
	C244.651382,345.383453 237.683456,334.239624 230.748581,322.336548 
	C225.594467,313.853058 220.440369,305.369598 215.107330,296.191101 
	C208.423660,284.715210 202.042603,273.047211 194.930786,261.843079 
	C191.284271,256.098297 189.649658,250.993286 194.673477,244.804077 
	C197.512283,239.890625 200.351089,234.977188 203.724121,229.659988 
	C207.331497,223.516571 210.938873,217.373154 214.986160,210.773346 
	C216.078232,209.187347 217.170303,207.601334 218.472839,205.709656 
	C220.456909,208.801590 222.144760,211.431915 224.048660,214.721558 
	C233.214264,229.854431 242.379868,244.987305 251.833984,260.790863 
	C255.541260,266.885193 259.248505,272.979553 263.081757,279.758118 
	C268.473450,288.804382 273.865143,297.850647 279.730377,307.691437 
	C284.807190,299.090210 289.471985,291.187103 294.711517,282.861603 
M322.203979,285.308746 
	C318.355835,292.160248 314.507690,299.011719 310.161194,306.299957 
	C304.385620,316.509186 298.610016,326.718445 292.310669,337.349609 
	C281.156525,356.760376 270.002380,376.171143 258.720184,395.804749 
	C259.854370,396.066864 260.322998,396.269775 260.791779,396.270020 
	C301.587952,396.290680 342.384674,396.376892 383.179108,396.113403 
	C385.807526,396.096436 389.418671,394.030151 390.881409,391.805298 
	C404.226776,371.505890 417.235291,350.984161 430.246185,330.466492 
	C433.077850,326.001068 431.420898,323.287720 425.946014,323.260498 
	C411.626007,323.189270 397.305298,323.199127 382.985077,323.245209 
	C369.004913,323.290192 355.024994,323.420013 340.289490,323.268646 
	C337.563751,323.267731 337.805939,322.086304 338.939392,320.237854 
	C342.377472,314.631195 345.838654,309.031982 349.047974,303.294037 
	C351.228363,299.395630 354.241821,297.671265 358.716187,297.733398 
	C366.151459,297.836700 373.591461,297.601501 381.945221,297.696838 
	C398.225616,297.718933 414.505981,297.734253 430.786377,297.767609 
	C435.109406,297.776489 438.987305,297.098389 441.482056,292.881439 
	C445.200043,286.596863 449.183167,280.469543 452.948242,274.212006 
	C453.538605,273.230865 453.573151,271.915283 453.940521,270.452179 
	C434.512726,270.452179 415.771484,270.452179 396.115356,270.228363 
	C385.422516,270.310425 374.729645,270.392456 363.118439,270.251434 
	C356.431061,270.319611 349.743652,270.387787 342.172028,270.226929 
	C333.703827,268.619781 328.165771,272.102234 325.083557,279.977844 
	C324.425171,281.660217 323.504395,283.239899 322.203979,285.308746 
M220.511002,404.386292 
	C218.696411,401.548462 216.881836,398.710632 214.850189,395.255707 
	C213.939651,393.821838 213.029114,392.388000 211.911240,390.315399 
	C210.916992,388.877838 209.922729,387.440247 208.860931,385.307587 
	C206.177612,380.877228 203.494293,376.446869 200.683609,371.346710 
	C198.495926,367.882446 196.308258,364.418152 193.996002,360.260590 
	C191.889893,356.849579 189.783783,353.438538 187.495163,349.392944 
	C185.310028,345.936218 183.124893,342.479462 180.816925,338.338318 
	C178.551956,334.891693 176.286987,331.445038 174.052643,327.278137 
	C169.377365,319.406281 164.588577,311.599182 160.051682,303.648346 
	C151.964554,289.475830 144.029678,275.216400 136.069733,260.138062 
	C136.053452,258.426910 136.037170,256.715729 136.478516,254.452942 
	C137.611252,251.550919 138.367508,248.425385 139.936600,245.782410 
	C151.971680,225.510391 164.164764,205.332199 176.821945,184.704681 
	C178.867767,181.131271 180.913589,177.557877 183.487686,173.562820 
	C185.547638,170.032318 187.607605,166.501831 190.114639,162.424667 
	C191.904541,159.338242 193.694443,156.251831 195.927155,152.642136 
	C197.775101,149.463501 199.623047,146.284851 201.983398,142.547958 
	C204.450226,138.263779 206.917053,133.979584 209.906769,129.204376 
	C210.968948,127.137527 212.031143,125.070679 213.446609,122.447411 
	C214.635590,120.633011 215.824585,118.818611 217.589584,116.635216 
	C220.128860,113.162025 223.591248,111.860634 227.831482,111.910942 
	C233.890137,111.982826 239.951736,111.806778 246.934784,111.899666 
	C256.955994,111.847656 266.977203,111.795639 277.916626,111.917625 
	C282.616791,111.857933 287.316986,111.798248 292.938904,111.902351 
	C299.630463,111.844757 306.322021,111.787163 313.934967,111.899872 
	C322.294586,111.845757 330.654236,111.791641 339.935608,111.906189 
	C349.948822,111.875488 359.962067,111.844788 370.653809,111.883278 
	C370.488892,111.170837 370.323975,110.458397 369.987396,109.077675 
	C355.675537,84.912590 341.337402,60.762997 327.075775,36.568314 
	C324.458435,32.128033 321.170197,28.996841 315.678650,28.998127 
	C276.571106,29.007278 237.462311,28.872746 198.358047,29.232676 
	C194.693649,29.266403 189.535675,31.411835 187.671875,34.271713 
	C179.542877,46.745201 172.375000,59.845055 164.274933,73.103004 
	C160.111801,80.381248 155.948685,87.659492 151.225555,95.311653 
	C148.462784,100.202698 145.700012,105.093742 142.369278,110.352905 
	C140.854156,113.128578 139.339020,115.904243 137.259979,119.090591 
	C134.119293,124.621201 130.978622,130.151794 127.263451,136.078796 
	C122.112000,145.029938 116.960548,153.981079 111.260307,163.320038 
	C103.468582,176.766464 95.676857,190.212875 87.315231,204.076843 
	C79.487556,217.376877 71.586113,230.634232 63.859924,243.992950 
	C59.240101,251.980759 59.157707,260.247375 63.807850,268.214386 
	C70.647682,279.932922 77.781845,291.479675 84.914726,303.804962 
	C85.833115,305.347809 86.743935,306.895264 87.671089,308.432831 
	C97.046143,323.980194 106.423866,339.525970 115.940826,355.775299 
	C120.100510,362.564148 124.260193,369.352997 128.699127,376.820160 
	C132.012100,382.252563 135.325058,387.684937 138.843826,393.812897 
	C141.828918,398.667328 144.814011,403.521729 147.900742,409.057739 
	C150.770767,413.748596 153.640778,418.439453 156.765350,423.810547 
	C160.130127,429.294281 163.494888,434.777985 166.917221,440.962463 
	C174.849976,453.593323 182.738068,466.252563 190.739700,478.839630 
	C193.533234,483.234039 197.540070,485.351959 202.946793,485.062683 
	C208.255447,484.778656 213.591187,485.000824 218.915039,485.000824 
	C254.019180,485.000793 289.123383,484.969421 324.227417,485.037720 
	C328.961304,485.046936 333.209442,484.336945 336.034790,480.087585 
	C349.740265,459.474426 363.427734,438.849274 377.698364,417.887268 
	C377.453857,417.345734 377.209351,416.804169 376.039612,416.139282 
	C356.032440,416.205627 336.025238,416.271973 315.096344,416.144989 
	C306.403168,416.209564 297.710022,416.274170 288.094727,416.147858 
	C276.402985,416.209839 264.711243,416.271820 252.097321,416.141632 
	C245.347305,416.132568 238.589020,415.924683 231.850983,416.204315 
	C228.806229,416.330658 226.876923,415.318085 225.205780,412.180939 
	C223.700439,409.794250 222.195099,407.407593 220.511002,404.386292 
z"/>
<path fill="#890723" opacity="1.000000" stroke="none" 
	d="
M377.121582,418.228394 
	C363.427734,438.849274 349.740265,459.474426 336.034790,480.087585 
	C333.209442,484.336945 328.961304,485.046936 324.227417,485.037720 
	C289.123383,484.969421 254.019180,485.000793 218.915039,485.000824 
	C213.591187,485.000824 208.255447,484.778656 202.946793,485.062683 
	C197.540070,485.351959 193.533234,483.234039 190.739700,478.839630 
	C182.738068,466.252563 174.849976,453.593323 167.130692,440.294128 
	C169.088699,439.657837 170.910843,439.369843 172.565796,439.771240 
	C189.660004,443.917084 206.971451,446.332947 224.572784,445.918274 
	C230.813095,445.771240 237.036743,444.732727 243.258621,444.019531 
	C267.907043,441.194092 290.938049,433.401123 312.448242,421.134583 
	C314.034149,420.230194 314.846222,417.968842 316.018066,416.338318 
	C336.025238,416.271973 356.032440,416.205627 376.509888,416.529785 
	C377.027313,417.356293 377.074432,417.792358 377.121582,418.228394 
z"/>
<path fill="#890723" opacity="1.000000" stroke="none" 
	d="
M164.858124,72.717468 
	C172.375000,59.845055 179.542877,46.745201 187.671875,34.271713 
	C189.535675,31.411835 194.693649,29.266403 198.358047,29.232676 
	C237.462311,28.872746 276.571106,29.007278 315.678650,28.998127 
	C321.170197,28.996841 324.458435,32.128033 327.075775,36.568314 
	C341.337402,60.762997 355.675537,84.912590 370.017761,109.753998 
	C370.023834,110.891579 369.999573,111.352837 369.975281,111.814087 
	C359.962067,111.844788 349.948822,111.875488 339.468689,111.470406 
	C337.733734,109.389664 336.752960,107.363945 335.154022,106.157593 
	C315.179932,91.087830 293.268524,79.582840 268.940369,73.732864 
	C254.712906,70.311722 240.001297,68.340431 225.392120,67.216438 
	C208.138885,65.889015 191.026367,68.381165 174.202805,72.677574 
	C171.275436,73.425171 167.982315,72.740570 164.858124,72.717468 
z"/>
<path fill="#57707A" opacity="1.000000" stroke="none" 
	d="
M341.044983,323.512573 
	C355.024994,323.420013 369.004913,323.290192 382.985077,323.245209 
	C397.305298,323.199127 411.626007,323.189270 425.946014,323.260498 
	C431.420898,323.287720 433.077850,326.001068 430.246185,330.466492 
	C417.235291,350.984161 404.226776,371.505890 390.881409,391.805298 
	C389.418671,394.030151 385.807526,396.096436 383.179108,396.113403 
	C342.384674,396.376892 301.587952,396.290680 260.791779,396.270020 
	C260.322998,396.269775 259.854370,396.066864 258.720184,395.804749 
	C270.002380,376.171143 281.156525,356.760376 293.045959,337.158783 
	C307.237427,337.469482 319.887817,333.774872 332.286530,329.194305 
	C335.471039,328.017792 338.139465,325.444336 341.044983,323.512573 
M365.056519,372.650787 
	C367.484863,371.576202 370.738770,371.153687 372.194550,369.310852 
	C377.656403,362.396606 382.547791,355.030273 387.605896,347.800446 
	C388.279236,346.837952 388.681976,345.686188 389.447601,344.143311 
	C372.333221,344.143311 356.015167,344.044678 339.698853,344.170319 
	C322.473633,344.302948 326.884277,341.862762 317.515869,356.587463 
	C314.277130,361.677917 311.197144,366.869385 307.654999,372.650635 
	C327.205414,372.650635 345.675385,372.650635 365.056519,372.650787 
z"/>
<path fill="#C23447" opacity="1.000000" stroke="none" 
	d="
M200.810989,372.016510 
	C203.494293,376.446869 206.177612,380.877228 208.463654,385.653870 
	C205.778381,385.681732 203.486282,385.390137 201.203018,385.040894 
	C163.000946,379.197479 132.808578,360.369019 111.642204,328.108154 
	C93.504967,300.464142 86.541145,270.073669 91.891396,237.024628 
	C97.286903,203.695953 113.342323,176.669998 139.286011,155.516022 
	C156.330994,141.617874 176.164352,133.256073 197.752029,129.474930 
	C201.326706,128.848801 205.636612,125.815735 209.383896,129.695404 
	C206.917053,133.979584 204.450226,138.263779 201.549393,142.409424 
	C199.942032,142.065750 198.708908,141.515701 197.604248,141.707092 
	C180.284912,144.707626 164.705124,151.791122 150.485565,162.010315 
	C131.616623,175.570877 118.221466,193.426300 109.953865,214.990234 
	C102.279312,235.007339 99.891975,255.602905 103.852829,276.967346 
	C107.918991,298.899780 116.832123,318.335602 131.567474,335.005188 
	C145.506409,350.773804 162.625778,362.002411 182.584198,368.588562 
	C188.403183,370.508820 194.721527,370.915863 200.810989,372.016510 
z"/>
<path fill="#57707A" opacity="1.000000" stroke="none" 
	d="
M230.865814,323.009827 
	C237.683456,334.239624 244.651382,345.383453 251.172531,356.782837 
	C252.274506,358.709137 252.386566,362.231232 251.360077,364.171844 
	C246.240250,373.851013 240.587662,383.248413 234.691544,393.493866 
	C233.225586,391.162567 232.100906,389.439087 231.039948,387.677185 
	C206.918442,347.620026 182.961700,307.461975 158.538986,267.589355 
	C154.270264,260.620209 154.010193,254.767700 158.338486,248.242111 
	C159.807602,246.027191 161.066635,243.672913 162.981857,241.394302 
	C164.392014,243.557922 165.204514,245.725250 166.098679,247.858353 
	C169.427338,255.799057 172.289902,263.983368 176.232254,271.608429 
	C184.109146,286.843414 195.115906,299.751740 208.784317,310.032684 
	C215.563248,315.131592 223.469559,318.731659 230.865814,323.009827 
z"/>
<path fill="#CE3C4F" opacity="1.000000" stroke="none" 
	d="
M200.747299,371.681610 
	C194.721527,370.915863 188.403183,370.508820 182.584198,368.588562 
	C162.625778,362.002411 145.506409,350.773804 131.567474,335.005188 
	C116.832123,318.335602 107.918991,298.899780 103.852829,276.967346 
	C99.891975,255.602905 102.279312,235.007339 109.953865,214.990234 
	C118.221466,193.426300 131.616623,175.570877 150.485565,162.010315 
	C164.705124,151.791122 180.284912,144.707626 197.604248,141.707092 
	C198.708908,141.515701 199.942032,142.065750 201.293198,142.688538 
	C199.623047,146.284851 197.775101,149.463501 195.244659,152.858887 
	C191.959045,153.449921 189.206680,153.402328 186.775482,154.262512 
	C155.988220,165.155472 133.155182,184.778229 120.342812,215.274979 
	C108.256981,244.042404 108.874214,272.836639 121.215004,301.202454 
	C130.862381,323.377319 146.913635,340.306702 168.095337,351.762360 
	C176.089233,356.085693 185.406540,357.962067 194.120575,360.953888 
	C196.308258,364.418152 198.495926,367.882446 200.747299,371.681610 
z"/>
<path fill="#921129" opacity="1.000000" stroke="none" 
	d="
M164.566528,72.910233 
	C167.982315,72.740570 171.275436,73.425171 174.202805,72.677574 
	C191.026367,68.381165 208.138885,65.889015 225.392120,67.216438 
	C240.001297,68.340431 254.712906,70.311722 268.940369,73.732864 
	C293.268524,79.582840 315.179932,91.087830 335.154022,106.157593 
	C336.752960,107.363945 337.733734,109.389664 339.007812,111.386078 
	C330.654236,111.791641 322.294586,111.845757 313.466888,111.459686 
	C311.993591,109.842903 311.212097,108.283775 309.950317,107.545746 
	C279.645905,89.819855 247.267258,80.916878 211.827301,82.773895 
	C194.072067,83.704254 177.082840,86.984421 160.399734,92.711189 
	C157.603104,93.671173 154.660629,94.206291 151.785553,94.937729 
	C155.948685,87.659492 160.111801,80.381248 164.566528,72.910233 
z"/>
<path fill="#B52C3F" opacity="1.000000" stroke="none" 
	d="
M87.885132,203.659302 
	C95.676857,190.212875 103.468582,176.766464 111.892601,163.118515 
	C113.838348,161.956268 115.197800,161.052017 116.457855,160.025757 
	C125.180489,152.921555 133.473953,145.205154 142.679276,138.797333 
	C159.837616,126.853394 179.298538,120.253510 199.871674,117.169312 
	C205.468124,116.330338 211.293335,117.017487 217.013565,117.004211 
	C215.824585,118.818611 214.635590,120.633011 212.800659,122.724442 
	C207.370697,123.335373 202.536575,123.341408 197.811966,124.063759 
	C182.760803,126.364960 168.515732,131.341492 155.175735,138.570480 
	C139.090591,147.287094 125.592674,159.210388 114.061699,173.410645 
	C102.804199,187.274094 94.964706,202.936661 90.081383,219.991379 
	C85.159462,237.180908 83.649765,254.707596 85.892555,272.601196 
	C87.681953,286.877411 91.143761,300.594788 97.308067,313.558472 
	C109.705086,339.629669 128.213867,360.112518 153.511566,374.293121 
	C171.730148,384.505463 190.984512,391.022614 212.118576,390.954132 
	C213.029114,392.388000 213.939651,393.821838 214.677521,395.881042 
	C207.148071,396.003265 199.642532,396.261597 192.461563,394.858643 
	C167.961502,390.071960 146.007172,379.838531 127.314278,362.949249 
	C123.895248,359.860077 119.659561,357.674713 115.800842,355.072174 
	C106.423866,339.525970 97.046143,323.980194 87.671089,308.432831 
	C86.743935,306.895264 85.833115,305.347809 85.161987,303.220703 
	C85.360939,301.216980 85.466949,299.772369 85.240211,298.382019 
	C83.194862,285.839630 80.101807,273.371765 79.271988,260.753448 
	C78.371506,247.060547 80.597313,233.388840 84.399399,220.061630 
	C85.929237,214.699158 86.744598,209.132843 87.885132,203.659302 
z"/>
<path fill="#D44155" opacity="1.000000" stroke="none" 
	d="
M194.058289,360.607239 
	C185.406540,357.962067 176.089233,356.085693 168.095337,351.762360 
	C146.913635,340.306702 130.862381,323.377319 121.215004,301.202454 
	C108.874214,272.836639 108.256981,244.042404 120.342812,215.274979 
	C133.155182,184.778229 155.988220,165.155472 186.775482,154.262512 
	C189.206680,153.402328 191.959045,153.449921 195.023254,153.120529 
	C193.694443,156.251831 191.904541,159.338242 189.524231,162.712463 
	C179.491516,167.735535 169.379791,171.497574 160.758957,177.427155 
	C146.754364,187.059769 136.262527,200.112106 129.474014,215.949417 
	C122.715935,231.715683 119.168213,247.852539 120.848419,265.213196 
	C122.266106,279.861389 126.484566,293.366028 133.490646,306.185150 
	C140.230499,318.517120 149.642853,328.542694 160.667145,336.938660 
	C168.690094,343.048798 177.302689,348.505615 187.677673,350.027527 
	C189.783783,353.438538 191.889893,356.849579 194.058289,360.607239 
z"/>
<path fill="#667C86" opacity="1.000000" stroke="none" 
	d="
M340.667236,323.390625 
	C338.139465,325.444336 335.471039,328.017792 332.286530,329.194305 
	C319.887817,333.774872 307.237427,337.469482 293.307861,336.947815 
	C298.610016,326.718445 304.385620,316.509186 310.860199,306.121582 
	C318.412292,303.728943 325.846893,302.538879 331.979889,299.056458 
	C340.818451,294.037781 348.993774,287.696777 356.869843,281.212769 
	C360.050171,278.594574 361.693817,274.109802 364.036804,270.474487 
	C374.729645,270.392456 385.422516,270.310425 396.569458,270.699829 
	C394.521393,275.772614 392.182770,280.473083 389.470245,284.946869 
	C386.857635,289.256042 383.858673,293.331024 381.029419,297.508911 
	C373.591461,297.601501 366.151459,297.836700 358.716187,297.733398 
	C354.241821,297.671265 351.228363,299.395630 349.047974,303.294037 
	C345.838654,309.031982 342.377472,314.631195 338.939392,320.237854 
	C337.805939,322.086304 337.563751,323.267731 340.667236,323.390625 
z"/>
<path fill="#BC3043" opacity="1.000000" stroke="none" 
	d="
M212.014908,390.634766 
	C190.984512,391.022614 171.730148,384.505463 153.511566,374.293121 
	C128.213867,360.112518 109.705086,339.629669 97.308067,313.558472 
	C91.143761,300.594788 87.681953,286.877411 85.892555,272.601196 
	C83.649765,254.707596 85.159462,237.180908 90.081383,219.991379 
	C94.964706,202.936661 102.804199,187.274094 114.061699,173.410645 
	C125.592674,159.210388 139.090591,147.287094 155.175735,138.570480 
	C168.515732,131.341492 182.760803,126.364960 197.811966,124.063759 
	C202.536575,123.341408 207.370697,123.335373 212.624023,123.002655 
	C212.031143,125.070679 210.968948,127.137527 209.645325,129.449890 
	C205.636612,125.815735 201.326706,128.848801 197.752029,129.474930 
	C176.164352,133.256073 156.330994,141.617874 139.286011,155.516022 
	C113.342323,176.669998 97.286903,203.695953 91.891396,237.024628 
	C86.541145,270.073669 93.504967,300.464142 111.642204,328.108154 
	C132.808578,360.369019 163.000946,379.197479 201.203018,385.040894 
	C203.486282,385.390137 205.778381,385.681732 208.497406,386.001404 
	C209.922729,387.440247 210.916992,388.877838 212.014908,390.634766 
z"/>
<path fill="#921129" opacity="1.000000" stroke="none" 
	d="
M315.557190,416.241638 
	C314.846222,417.968842 314.034149,420.230194 312.448242,421.134583 
	C290.938049,433.401123 267.907043,441.194092 243.258621,444.019531 
	C237.036743,444.732727 230.813095,445.771240 224.572784,445.918274 
	C206.971451,446.332947 189.660004,443.917084 172.565796,439.771240 
	C170.910843,439.369843 169.088699,439.657837 167.101913,439.943787 
	C163.494888,434.777985 160.130127,429.294281 157.088226,423.437256 
	C159.196884,423.309479 161.070038,423.288452 162.755341,423.840668 
	C187.122635,431.825134 211.951660,434.724457 237.574295,432.150421 
	C254.374756,430.462646 270.399933,426.345184 285.939087,420.037933 
	C287.249603,419.506042 288.004059,417.604156 289.016846,416.338745 
	C297.710022,416.274170 306.403168,416.209564 315.557190,416.241638 
z"/>
<path fill="#96A1AA" opacity="1.000000" stroke="none" 
	d="
M306.766724,239.101791 
	C298.441162,225.197418 290.093750,211.306091 281.799683,197.382965 
	C277.902008,190.840027 274.106995,184.235947 270.582947,177.325684 
	C272.477264,176.565231 274.072357,176.196228 275.627808,175.702332 
	C283.437988,173.222397 291.207062,173.135468 298.954010,175.974396 
	C302.652191,177.329620 306.364990,178.644974 310.071167,179.978378 
	C314.265839,187.106918 318.460541,194.235443 322.368774,201.784760 
	C321.761230,203.393448 321.018555,204.643433 321.183044,205.759766 
	C323.264160,219.882889 317.287384,230.460968 306.766724,239.101791 
z"/>
<path fill="#D94C5D" opacity="1.000000" stroke="none" 
	d="
M187.586426,349.710236 
	C177.302689,348.505615 168.690094,343.048798 160.667145,336.938660 
	C149.642853,328.542694 140.230499,318.517120 133.490646,306.185150 
	C126.484566,293.366028 122.266106,279.861389 120.848419,265.213196 
	C119.168213,247.852539 122.715935,231.715683 129.474014,215.949417 
	C136.262527,200.112106 146.754364,187.059769 160.758957,177.427155 
	C169.379791,171.497574 179.491516,167.735535 189.300690,162.985809 
	C187.607605,166.501831 185.547638,170.032318 182.834259,173.776947 
	C179.730179,174.907791 177.072250,175.478500 174.864670,176.800964 
	C165.155060,182.617676 156.341705,189.398621 149.030899,198.302078 
	C132.392471,218.565155 125.506897,241.892502 128.331131,267.482666 
	C131.118134,292.735687 142.883270,313.908600 163.279373,329.527985 
	C168.517792,333.539581 175.018784,335.902435 180.939743,339.022736 
	C183.124893,342.479462 185.310028,345.936218 187.586426,349.710236 
z"/>
<path fill="#9A192E" opacity="1.000000" stroke="none" 
	d="
M151.505554,95.124687 
	C154.660629,94.206291 157.603104,93.671173 160.399734,92.711189 
	C177.082840,86.984421 194.072067,83.704254 211.827301,82.773895 
	C247.267258,80.916878 279.645905,89.819855 309.950317,107.545746 
	C311.212097,108.283775 311.993591,109.842903 313.006195,111.374527 
	C306.322021,111.787163 299.630463,111.844757 292.469391,111.459900 
	C290.836395,109.780052 289.905792,108.006805 288.474792,107.384850 
	C263.076355,96.345665 236.790192,90.736610 208.839371,92.834381 
	C188.388428,94.369278 169.070221,99.307045 150.487991,107.712639 
	C148.114197,108.786415 145.460999,109.242523 142.937241,109.984787 
	C145.700012,105.093742 148.462784,100.202698 151.505554,95.124687 
z"/>
<path fill="#57707A" opacity="1.000000" stroke="none" 
	d="
M381.487305,297.602875 
	C383.858673,293.331024 386.857635,289.256042 389.470245,284.946869 
	C392.182770,280.473083 394.521393,275.772614 397.026886,270.811737 
	C415.771484,270.452179 434.512726,270.452179 453.940521,270.452179 
	C453.573151,271.915283 453.538605,273.230865 452.948242,274.212006 
	C449.183167,280.469543 445.200043,286.596863 441.482056,292.881439 
	C438.987305,297.098389 435.109406,297.776489 430.786377,297.767609 
	C414.505981,297.734253 398.225616,297.718933 381.487305,297.602875 
z"/>
<path fill="#9A192E" opacity="1.000000" stroke="none" 
	d="
M288.555786,416.243286 
	C288.004059,417.604156 287.249603,419.506042 285.939087,420.037933 
	C270.399933,426.345184 254.374756,430.462646 237.574295,432.150421 
	C211.951660,434.724457 187.122635,431.825134 162.755341,423.840668 
	C161.070038,423.288452 159.196884,423.309479 156.960938,423.097107 
	C153.640778,418.439453 150.770767,413.748596 148.067657,408.394501 
	C149.629395,407.731415 151.209961,407.294922 152.391098,407.797363 
	C169.419998,415.041290 186.990494,419.695801 205.545349,421.268646 
	C220.377563,422.525970 234.942383,422.035431 249.444977,418.985840 
	C250.764038,418.708466 251.833908,417.245941 253.019501,416.333771 
	C264.711243,416.271820 276.402985,416.209839 288.555786,416.243286 
z"/>
<path fill="#788B95" opacity="1.000000" stroke="none" 
	d="
M352.008118,154.873734 
	C345.316406,154.919708 338.624664,154.965683 331.424072,154.603149 
	C330.138367,153.392471 329.479126,152.410538 328.567596,151.814377 
	C304.138733,135.837265 278.800995,134.503052 252.619141,147.195007 
	C249.105377,141.421509 245.591599,135.648010 241.544830,128.998703 
	C268.729309,128.998703 294.907471,128.998703 321.554718,129.434433 
	C323.464661,131.297287 324.726898,132.991165 326.381409,134.099335 
	C330.601257,136.925720 335.337677,139.074310 339.232422,142.268356 
	C343.838806,146.046036 347.779083,150.635910 352.008118,154.873734 
z"/>
<path fill="#87979F" opacity="1.000000" stroke="none" 
	d="
M288.003113,257.998810 
	C290.215546,261.453308 292.427979,264.907806 294.305847,268.688568 
	C283.606384,271.036407 273.804352,268.765869 264.196411,265.082367 
	C259.966949,263.460815 255.761719,261.776154 251.545471,260.120178 
	C242.379868,244.987305 233.214264,229.854431 224.331573,214.309479 
	C225.075348,213.105560 225.811310,212.358917 225.950058,211.514191 
	C226.591263,207.609863 227.015945,203.670563 227.611115,199.757950 
	C229.016815,190.517059 233.469330,182.549591 238.190292,174.701355 
	C240.462616,178.460342 242.734940,182.219330 245.008743,186.705109 
	C243.006943,194.010361 239.909607,200.475830 239.216080,207.189621 
	C237.490463,223.894653 244.110748,237.809250 256.960419,248.223465 
	C265.788483,255.378281 275.937561,260.217865 288.003113,257.998810 
z"/>
<path fill="#A72236" opacity="1.000000" stroke="none" 
	d="
M127.837936,135.682404 
	C130.978622,130.151794 134.119293,124.621201 137.739655,119.189438 
	C139.129364,119.328835 140.247513,119.737137 140.919403,119.356903 
	C167.417938,104.360748 195.786819,97.775108 226.269897,98.823860 
	C242.380142,99.378120 257.690247,102.919815 272.874756,107.610611 
	C274.518066,108.118271 275.636505,110.325005 276.998413,111.743622 
	C266.977203,111.795639 256.955994,111.847656 246.388489,111.470947 
	C244.574249,110.367073 243.374527,109.320442 242.028030,109.073296 
	C225.566269,106.051750 209.123978,106.486877 192.717773,109.607178 
	C170.384598,113.854752 149.995697,122.602753 131.495956,135.830856 
	C130.712540,136.391022 129.076675,135.759033 127.837936,135.682404 
z"/>
<path fill="#5F7781" opacity="1.000000" stroke="none" 
	d="
M230.807190,322.673187 
	C223.469559,318.731659 215.563248,315.131592 208.784317,310.032684 
	C195.115906,299.751740 184.109146,286.843414 176.232254,271.608429 
	C172.289902,263.983368 169.427338,255.799057 166.098679,247.858353 
	C165.204514,245.725250 164.392014,243.557922 163.254364,241.194153 
	C166.041245,235.630981 169.115784,230.279938 172.624664,225.083771 
	C173.713348,227.784882 174.487564,230.307098 175.003311,232.881119 
	C179.692902,256.286346 190.864731,276.200562 207.657700,292.980133 
	C209.581131,294.902039 212.714096,295.613434 215.286255,296.886108 
	C220.440369,305.369598 225.594467,313.853058 230.807190,322.673187 
z"/>
<path fill="#DB5965" opacity="1.000000" stroke="none" 
	d="
M180.878326,338.680542 
	C175.018784,335.902435 168.517792,333.539581 163.279373,329.527985 
	C142.883270,313.908600 131.118134,292.735687 128.331131,267.482666 
	C125.506897,241.892502 132.392471,218.565155 149.030899,198.302078 
	C156.341705,189.398621 165.155060,182.617676 174.864670,176.800964 
	C177.072250,175.478500 179.730179,174.907791 182.570129,173.987762 
	C180.913589,177.557877 178.867767,181.131271 176.169708,184.882141 
	C173.854538,185.699432 171.828217,185.934906 170.590134,187.047516 
	C164.478119,192.540131 157.979904,197.763947 152.719284,204.010147 
	C141.080902,217.828934 135.596024,234.325714 134.123032,252.194839 
	C134.050613,253.073288 135.356689,254.065399 136.020874,255.004578 
	C136.037170,256.715729 136.053452,258.426910 135.681671,260.632599 
	C135.243362,264.717072 134.535553,268.444427 135.252411,271.874023 
	C139.133789,290.442993 147.144745,306.939728 161.448135,319.777069 
	C165.131790,323.083130 169.803970,325.287781 174.022018,327.998413 
	C176.286987,331.445038 178.551956,334.891693 180.878326,338.680542 
z"/>
<path fill="#AF2A3E" opacity="1.000000" stroke="none" 
	d="
M127.550690,135.880600 
	C129.076675,135.759033 130.712540,136.391022 131.495956,135.830856 
	C149.995697,122.602753 170.384598,113.854752 192.717773,109.607178 
	C209.123978,106.486877 225.566269,106.051750 242.028030,109.073296 
	C243.374527,109.320442 244.574249,110.367073 245.927124,111.389420 
	C239.951736,111.806778 233.890137,111.982826 227.831482,111.910942 
	C223.591248,111.860634 220.128860,113.162025 217.301575,116.819717 
	C211.293335,117.017487 205.468124,116.330338 199.871674,117.169312 
	C179.298538,120.253510 159.837616,126.853394 142.679276,138.797333 
	C133.473953,145.205154 125.180489,152.921555 116.457855,160.025757 
	C115.197800,161.052017 113.838348,161.956268 112.167000,162.924606 
	C116.960548,153.981079 122.112000,145.029938 127.550690,135.880600 
z"/>
<path fill="#AF2A3E" opacity="1.000000" stroke="none" 
	d="
M87.600182,203.868073 
	C86.744598,209.132843 85.929237,214.699158 84.399399,220.061630 
	C80.597313,233.388840 78.371506,247.060547 79.271988,260.753448 
	C80.101807,273.371765 83.194862,285.839630 85.240211,298.382019 
	C85.466949,299.772369 85.360939,301.216980 85.099945,302.868042 
	C77.781845,291.479675 70.647682,279.932922 63.807850,268.214386 
	C59.157707,260.247375 59.240101,251.980759 63.859924,243.992950 
	C71.586113,230.634232 79.487556,217.376877 87.600182,203.868073 
z"/>
<path fill="#57707A" opacity="1.000000" stroke="none" 
	d="
M413.991486,196.915100 
	C417.350342,196.057526 419.327789,197.267288 421.165833,200.356033 
	C429.884399,215.006958 438.909668,229.475281 447.809998,244.018265 
	C448.214752,244.679626 448.467163,245.434189 449.042633,246.699738 
	C438.590973,246.699738 428.703278,246.699738 418.029999,246.419998 
	C415.182800,246.052292 413.121216,245.964310 411.037903,245.466095 
	C412.164124,237.407852 413.858307,229.792099 414.312408,222.103104 
	C414.806213,213.742584 414.147644,205.314011 413.991486,196.915100 
z"/>
<path fill="#788B95" opacity="1.000000" stroke="none" 
	d="
M224.262207,150.914856 
	C226.536789,154.677994 228.811386,158.441147 230.851151,162.690384 
	C219.278000,175.531113 213.682816,190.217529 213.076370,206.857132 
	C213.023972,208.294891 214.031219,209.771286 214.546249,211.229736 
	C210.938873,217.373154 207.331497,223.516571 203.070740,229.784424 
	C201.928604,229.130417 201.181992,228.410278 200.990768,227.564560 
	C198.934799,218.471680 198.584045,209.396515 199.873199,200.060318 
	C202.124115,183.758865 207.813202,169.074997 218.248428,156.334412 
	C219.938843,154.270569 222.242172,152.708725 224.262207,150.914856 
z"/>
<path fill="#667C86" opacity="1.000000" stroke="none" 
	d="
M215.196777,296.538635 
	C212.714096,295.613434 209.581131,294.902039 207.657700,292.980133 
	C190.864731,276.200562 179.692902,256.286346 175.003311,232.881119 
	C174.487564,230.307098 173.713348,227.784882 172.884933,224.842773 
	C176.878754,217.283432 181.046661,210.119980 185.661133,203.142822 
	C186.738037,209.874863 186.866821,216.519211 188.129456,222.940613 
	C189.608322,230.461670 192.074326,237.788605 194.112137,245.199753 
	C189.649658,250.993286 191.284271,256.098297 194.930786,261.843079 
	C202.042603,273.047211 208.423660,284.715210 215.196777,296.538635 
z"/>
<path fill="#A22337" opacity="1.000000" stroke="none" 
	d="
M277.457520,111.830620 
	C275.636505,110.325005 274.518066,108.118271 272.874756,107.610611 
	C257.690247,102.919815 242.380142,99.378120 226.269897,98.823860 
	C195.786819,97.775108 167.417938,104.360748 140.919403,119.356903 
	C140.247513,119.737137 139.129364,119.328835 138.021606,118.984100 
	C139.339020,115.904243 140.854156,113.128578 142.653259,110.168839 
	C145.460999,109.242523 148.114197,108.786415 150.487991,107.712639 
	C169.070221,99.307045 188.388428,94.369278 208.839371,92.834381 
	C236.790192,90.736610 263.076355,96.345665 288.474792,107.384850 
	C289.905792,108.006805 290.836395,109.780052 292.008514,111.378006 
	C287.316986,111.798248 282.616791,111.857933 277.457520,111.830620 
z"/>
<path fill="#8D9BA4" opacity="1.000000" stroke="none" 
	d="
M287.917786,257.662201 
	C275.937561,260.217865 265.788483,255.378281 256.960419,248.223465 
	C244.110748,237.809250 237.490463,223.894653 239.216080,207.189621 
	C239.909607,200.475830 243.006943,194.010361 245.078094,187.040253 
	C247.740112,190.864548 250.334259,195.080475 252.613251,199.711578 
	C251.537537,201.859436 250.267731,203.545258 250.103348,205.332733 
	C249.336548,213.671021 249.752823,222.076645 254.364716,229.274719 
	C260.593353,238.996109 268.547272,246.715729 281.226166,246.903763 
	C283.428253,250.377701 285.630371,253.851654 287.917786,257.662201 
z"/>
<path fill="#667C86" opacity="1.000000" stroke="none" 
	d="
M401.982239,169.705536 
	C395.302673,169.771378 388.623108,169.837219 381.476105,169.463898 
	C380.485016,167.312027 380.225220,165.457901 379.395325,163.909302 
	C373.591339,153.078903 366.478638,143.237076 357.436371,134.812698 
	C355.885925,133.368210 355.133270,131.067383 354.012085,129.162140 
	C360.164825,129.110001 366.319946,129.144119 372.469574,128.977524 
	C377.104828,128.851929 380.347382,130.716003 382.667542,134.754944 
	C389.043579,145.854340 395.571167,156.866714 402.046387,168.525574 
	C402.030090,169.326920 402.006165,169.516220 401.982239,169.705536 
z"/>
<path fill="#A22337" opacity="1.000000" stroke="none" 
	d="
M252.558411,416.237701 
	C251.833908,417.245941 250.764038,418.708466 249.444977,418.985840 
	C234.942383,422.035431 220.377563,422.525970 205.545349,421.268646 
	C186.990494,419.695801 169.419998,415.041290 152.391098,407.797363 
	C151.209961,407.294922 149.629395,407.731415 148.016846,408.053711 
	C144.814011,403.521729 141.828918,398.667328 139.156799,393.434204 
	C142.472595,394.267944 145.543030,395.337097 148.467133,396.716461 
	C165.009415,404.519897 182.133926,410.584412 200.389847,412.496338 
	C208.663742,413.362823 217.089676,412.777649 225.446640,412.850983 
	C226.876923,415.318085 228.806229,416.330658 231.850983,416.204315 
	C238.589020,415.924683 245.347305,416.132568 252.558411,416.237701 
z"/>
<path fill="#6F848D" opacity="1.000000" stroke="none" 
	d="
M353.548950,129.078827 
	C355.133270,131.067383 355.885925,133.368210 357.436371,134.812698 
	C366.478638,143.237076 373.591339,153.078903 379.395325,163.909302 
	C380.225220,165.457901 380.485016,167.312027 381.012604,169.402222 
	C374.519836,171.130508 369.588989,169.498703 366.663300,162.979660 
	C364.052551,157.162415 359.550232,154.048264 352.434631,154.942490 
	C347.779083,150.635910 343.838806,146.046036 339.232422,142.268356 
	C335.337677,139.074310 330.601257,136.925720 326.381409,134.099335 
	C324.726898,132.991165 323.464661,131.297287 322.017822,129.516220 
	C332.369843,129.106689 342.727814,129.051086 353.548950,129.078827 
z"/>
<path fill="#6F848D" opacity="1.000000" stroke="none" 
	d="
M194.392807,245.001923 
	C192.074326,237.788605 189.608322,230.461670 188.129456,222.940613 
	C186.866821,216.519211 186.738037,209.874863 185.921555,202.904053 
	C196.647568,183.913254 207.555145,165.344803 218.490494,146.792740 
	C218.884995,146.123444 219.552979,145.615372 220.505508,144.587616 
	C221.831055,146.682770 222.942078,148.438843 224.157654,150.554886 
	C222.242172,152.708725 219.938843,154.270569 218.248428,156.334412 
	C207.813202,169.074997 202.124115,183.758865 199.873199,200.060318 
	C198.584045,209.396515 198.934799,218.471680 200.990768,227.564560 
	C201.181992,228.410278 201.928604,229.130417 202.803619,229.986298 
	C200.351089,234.977188 197.512283,239.890625 194.392807,245.001923 
z"/>
<path fill="#A72236" opacity="1.000000" stroke="none" 
	d="
M225.326202,412.515961 
	C217.089676,412.777649 208.663742,413.362823 200.389847,412.496338 
	C182.133926,410.584412 165.009415,404.519897 148.467133,396.716461 
	C145.543030,395.337097 142.472595,394.267944 139.053894,393.086426 
	C135.325058,387.684937 132.012100,382.252563 128.971664,376.450958 
	C131.046417,376.780792 132.984070,377.250214 134.627060,378.219208 
	C141.168701,382.077118 147.321335,386.724854 154.157639,389.928619 
	C175.181229,399.781250 197.197556,405.794312 220.689758,405.020905 
	C222.195099,407.407593 223.700439,409.794250 225.326202,412.515961 
z"/>
<path fill="#AF2A3E" opacity="1.000000" stroke="none" 
	d="
M220.600372,404.703613 
	C197.197556,405.794312 175.181229,399.781250 154.157639,389.928619 
	C147.321335,386.724854 141.168701,382.077118 134.627060,378.219208 
	C132.984070,377.250214 131.046417,376.780792 128.832031,376.111816 
	C124.260193,369.352997 120.100510,362.564148 115.870834,355.423737 
	C119.659561,357.674713 123.895248,359.860077 127.314278,362.949249 
	C146.007172,379.838531 167.961502,390.071960 192.461563,394.858643 
	C199.642532,396.261597 207.148071,396.003265 214.786041,396.189575 
	C216.881836,398.710632 218.696411,401.548462 220.600372,404.703613 
z"/>
<path fill="#8D9BA4" opacity="1.000000" stroke="none" 
	d="
M306.863708,239.442993 
	C317.287384,230.460968 323.264160,219.882889 321.183044,205.759766 
	C321.018555,204.643433 321.761230,203.393448 322.439697,202.117020 
	C325.160309,206.111603 327.937958,210.016556 329.788147,214.320221 
	C332.466370,220.549957 337.141174,221.881317 343.512451,221.539703 
	C343.102875,224.657318 342.544586,227.422821 341.472900,229.972534 
	C339.132690,235.540115 336.531494,240.997986 334.036957,246.500702 
	C327.752869,246.599243 321.464874,246.873932 315.185974,246.736160 
	C310.792999,246.639755 308.574402,243.444061 306.863708,239.442993 
z"/>
<path fill="#6F848D" opacity="1.000000" stroke="none" 
	d="
M363.577637,270.362976 
	C361.693817,274.109802 360.050171,278.594574 356.869843,281.212769 
	C348.993774,287.696777 340.818451,294.037781 331.979889,299.056458 
	C325.846893,302.538879 318.412292,303.728943 311.109375,305.903198 
	C314.507690,299.011719 318.355835,292.160248 322.843018,285.098450 
	C328.055786,282.354889 332.829926,280.114197 337.124481,277.173279 
	C339.514343,275.536652 341.105286,272.733398 343.056274,270.455933 
	C349.743652,270.387787 356.431061,270.319611 363.577637,270.362976 
z"/>
<path fill="#7F9099" opacity="1.000000" stroke="none" 
	d="
M252.738770,147.527542 
	C278.800995,134.503052 304.138733,135.837265 328.567596,151.814377 
	C329.479126,152.410538 330.138367,153.392471 330.960358,154.534012 
	C323.981384,154.934601 316.957184,154.995804 309.403198,154.642593 
	C307.986633,153.549484 307.199921,152.569168 306.198273,152.237061 
	C289.569153,146.723602 273.476044,148.166092 257.925720,156.146057 
	C256.236603,153.384064 254.547516,150.622070 252.738770,147.527542 
z"/>
<path fill="#667C86" opacity="1.000000" stroke="none" 
	d="
M411.059601,245.876343 
	C413.121216,245.964310 415.182800,246.052292 417.562805,246.329193 
	C406.570190,246.573196 395.259186,246.628281 383.486816,246.209518 
	C384.684845,237.505463 386.344208,229.275269 388.003571,221.045059 
	C391.241058,220.884842 394.478577,220.724625 398.536621,220.523804 
	C394.017151,212.573227 389.839233,205.223465 385.055176,196.807404 
	C391.388336,196.807404 396.732758,196.807404 402.538208,197.333069 
	C405.786316,213.996567 402.652954,229.730942 398.739960,245.876343 
	C403.515045,245.876343 407.287323,245.876343 411.059601,245.876343 
z"/>
<path fill="#DD636C" opacity="1.000000" stroke="none" 
	d="
M136.249695,254.728760 
	C135.356689,254.065399 134.050613,253.073288 134.123032,252.194839 
	C135.596024,234.325714 141.080902,217.828934 152.719284,204.010147 
	C157.979904,197.763947 164.478119,192.540131 170.590134,187.047516 
	C171.828217,185.934906 173.854538,185.699432 175.913132,185.092224 
	C164.164764,205.332199 151.971680,225.510391 139.936600,245.782410 
	C138.367508,248.425385 137.611252,251.550919 136.249695,254.728760 
z"/>
<path fill="#7F9099" opacity="1.000000" stroke="none" 
	d="
M214.766205,211.001541 
	C214.031219,209.771286 213.023972,208.294891 213.076370,206.857132 
	C213.682816,190.217529 219.278000,175.531113 230.947693,163.032928 
	C233.526596,166.606384 235.774124,170.323349 238.105972,174.370850 
	C233.469330,182.549591 229.016815,190.517059 227.611115,199.757950 
	C227.015945,203.670563 226.591263,207.609863 225.950058,211.514191 
	C225.811310,212.358917 225.075348,213.105560 224.223541,213.979813 
	C222.144760,211.431915 220.456909,208.801590 218.472839,205.709656 
	C217.170303,207.601334 216.078232,209.187347 214.766205,211.001541 
z"/>
<path fill="#DD636C" opacity="1.000000" stroke="none" 
	d="
M174.037323,327.638275 
	C169.803970,325.287781 165.131790,323.083130 161.448135,319.777069 
	C147.144745,306.939728 139.133789,290.442993 135.252411,271.874023 
	C134.535553,268.444427 135.243362,264.717072 135.662384,261.060242 
	C144.029678,275.216400 151.964554,289.475830 160.051682,303.648346 
	C164.588577,311.599182 169.377365,319.406281 174.037323,327.638275 
z"/>
<path fill="#96A1AA" opacity="1.000000" stroke="none" 
	d="
M281.139130,246.559113 
	C268.547272,246.715729 260.593353,238.996109 254.364716,229.274719 
	C249.752823,222.076645 249.336548,213.671021 250.103348,205.332733 
	C250.267731,203.545258 251.537537,201.859436 252.675903,200.057587 
	C262.386475,215.397079 271.719269,230.805786 281.139130,246.559113 
z"/>
<path fill="#5F7781" opacity="1.000000" stroke="none" 
	d="
M411.037903,245.466095 
	C407.287323,245.876343 403.515045,245.876343 398.739960,245.876343 
	C402.652954,229.730942 405.786316,213.996567 402.999268,197.423248 
	C406.362061,196.910583 409.724854,196.833389 413.539551,196.835648 
	C414.147644,205.314011 414.806213,213.742584 414.312408,222.103104 
	C413.858307,229.792099 412.164124,237.407852 411.037903,245.466095 
z"/>
<path fill="#8D9BA4" opacity="1.000000" stroke="none" 
	d="
M310.008118,179.634430 
	C306.364990,178.644974 302.652191,177.329620 298.954010,175.974396 
	C291.207062,173.135468 283.437988,173.222397 275.627808,175.702332 
	C274.072357,176.196228 272.477264,176.565231 270.506989,176.989670 
	C267.819061,173.213852 265.524597,169.440170 263.529114,165.325317 
	C274.276581,160.578201 285.070343,158.793381 296.364471,160.603882 
	C296.919800,160.692902 297.574921,160.159332 298.183594,159.915665 
	C302.104095,166.373932 306.024567,172.832214 310.008118,179.634430 
z"/>
<path fill="#7F9099" opacity="1.000000" stroke="none" 
	d="
M251.689728,260.455505 
	C255.761719,261.776154 259.966949,263.460815 264.196411,265.082367 
	C273.804352,268.765869 283.606384,271.036407 294.379730,269.016846 
	C299.201904,273.657715 298.285553,278.267029 294.315613,282.654572 
	C292.137360,281.965454 290.381622,281.252838 288.567810,281.043335 
	C282.517548,280.344635 276.450775,279.774658 270.381226,279.263916 
	C267.918182,279.056671 265.431641,279.128876 262.955780,279.073914 
	C259.248505,272.979553 255.541260,266.885193 251.689728,260.455505 
z"/>
<path fill="#87979F" opacity="1.000000" stroke="none" 
	d="
M298.086426,159.566513 
	C297.574921,160.159332 296.919800,160.692902 296.364471,160.603882 
	C285.070343,158.793381 274.276581,160.578201 263.451233,164.988800 
	C261.394348,162.268845 259.714325,159.544205 257.980011,156.482819 
	C273.476044,148.166092 289.569153,146.723602 306.198273,152.237061 
	C307.199921,152.569168 307.986633,153.549484 308.938416,154.579239 
	C304.875580,154.930298 300.747650,154.930298 295.669373,154.930298 
	C296.714752,156.862076 297.352020,158.039719 298.086426,159.566513 
z"/>
<path fill="#788B95" opacity="1.000000" stroke="none" 
	d="
M263.018768,279.416016 
	C265.431641,279.128876 267.918182,279.056671 270.381226,279.263916 
	C276.450775,279.774658 282.517548,280.344635 288.567810,281.043335 
	C290.381622,281.252838 292.137360,281.965454 294.028229,282.865784 
	C289.471985,291.187103 284.807190,299.090210 279.730377,307.691437 
	C273.865143,297.850647 268.473450,288.804382 263.018768,279.416016 
z"/>
<path fill="#7F9099" opacity="1.000000" stroke="none" 
	d="
M334.492615,246.604202 
	C336.531494,240.997986 339.132690,235.540115 341.472900,229.972534 
	C342.544586,227.422821 343.102875,224.657318 343.957947,221.622131 
	C349.041199,221.169708 354.060577,221.084824 359.531342,221.457855 
	C358.643555,226.822998 357.334778,231.738785 355.954498,236.634430 
	C355.024536,239.932800 353.993683,243.202713 353.007965,246.485352 
	C346.988068,246.559464 340.968201,246.633591 334.492615,246.604202 
z"/>
<path fill="#788B95" opacity="1.000000" stroke="none" 
	d="
M353.463318,246.595825 
	C353.993683,243.202713 355.024536,239.932800 355.954498,236.634430 
	C357.334778,231.738785 358.643555,226.822998 359.994812,221.520630 
	C365.032166,221.061600 370.057434,220.997757 375.491943,221.394135 
	C373.606110,230.063919 371.311035,238.273468 369.015991,246.483032 
	C363.983551,246.557449 358.951080,246.631882 353.463318,246.595825 
z"/>
<path fill="#6F848D" opacity="1.000000" stroke="none" 
	d="
M369.468933,246.590057 
	C371.311035,238.273468 373.606110,230.063919 375.953491,221.472992 
	C379.702118,221.019211 383.398438,220.946808 387.549164,220.959732 
	C386.344208,229.275269 384.684845,237.505463 383.034210,246.100815 
	C378.669281,246.543015 374.295624,246.620056 369.468933,246.590057 
z"/>
<path fill="#7F9099" opacity="1.000000" stroke="none" 
	d="
M342.614136,270.341431 
	C341.105286,272.733398 339.514343,275.536652 337.124481,277.173279 
	C332.829926,280.114197 328.055786,282.354889 323.093262,284.877502 
	C323.504395,283.239899 324.425171,281.660217 325.083557,279.977844 
	C328.165771,272.102234 333.703827,268.619781 342.614136,270.341431 
z"/>
<path fill="#AF2A3E" opacity="1.000000" stroke="none" 
	d="
M370.314545,111.848679 
	C369.999573,111.352837 370.023834,110.891579 370.103577,110.088135 
	C370.323975,110.458397 370.488892,111.170837 370.314545,111.848679 
z"/>
<path fill="#A22337" opacity="1.000000" stroke="none" 
	d="
M377.409973,418.057831 
	C377.074432,417.792358 377.027313,417.356293 376.972534,416.591431 
	C377.209351,416.804169 377.453857,417.345734 377.409973,418.057831 
z"/>
<path fill="#6F848D" opacity="1.000000" stroke="none" 
	d="
M402.216797,169.718262 
	C402.006165,169.516220 402.030090,169.326920 402.119507,168.857178 
	C402.358917,168.828537 402.561676,169.066986 402.688293,169.340637 
	C402.723969,169.417740 402.536469,169.598038 402.216797,169.718262 
z"/>
<path fill="#FAFBFB" opacity="1.000000" stroke="none" 
	d="
M364.600922,372.650696 
	C345.675385,372.650635 327.205414,372.650635 307.654999,372.650635 
	C311.197144,366.869385 314.277130,361.677917 317.515869,356.587463 
	C326.884277,341.862762 322.473633,344.302948 339.698853,344.170319 
	C356.015167,344.044678 372.333221,344.143311 389.447601,344.143311 
	C388.681976,345.686188 388.279236,346.837952 387.605896,347.800446 
	C382.547791,355.030273 377.656403,362.396606 372.194550,369.310852 
	C370.738770,371.153687 367.484863,371.576202 364.600922,372.650696 
z"/>
</svg>