<svg width="40" height="40" viewBox="0 0 40 40" fill="none" xmlns="http://www.w3.org/2000/svg">
<path d="M15.7454 40C14.7219 40 13.7385 39.4264 13.2631 38.4464C12.6183 37.092 13.1986 35.4827 14.5687 34.8373C20.3308 32.1525 24.0473 26.3205 24.0473 20.0026C24.0473 13.6846 20.3308 7.85266 14.5769 5.15981C13.2067 4.52245 12.6264 2.90513 13.2711 1.55071C13.9159 0.196305 15.552 -0.377333 16.9221 0.260046C20.6378 1.99688 23.789 4.7296 26.0215 8.16337C28.3107 11.6929 29.5271 15.788 29.5271 20.0026C29.5271 24.2171 28.3107 28.3122 26.0133 31.8338C23.7809 35.2676 20.6297 38.0003 16.9142 39.7371C16.5433 39.9204 16.1404 40 15.7454 40Z" fill="#9638E3"/>
</svg>
