<svg width="16" height="16" viewBox="0 0 16 16" fill="none" xmlns="http://www.w3.org/2000/svg">
<g clip-path="url(#clip0_10463_5158)">
<path d="M15.7888 7.4824L16 6.8184L15.3128 6.8404C14.9905 6.82848 14.6792 6.71976 14.4196 6.5284H14.5128C14.7183 6.5273 14.9195 6.46912 15.0939 6.36035C15.2683 6.25158 15.409 6.0965 15.5004 5.9124L15.8024 5.266C15.5653 5.26811 15.3284 5.25435 15.0932 5.2248C14.8686 5.17143 14.6662 5.0492 14.5144 4.8752C14.4132 4.76682 14.2909 4.68024 14.1551 4.62075C14.0192 4.56125 13.8727 4.5301 13.7244 4.5292C13.608 4.5292 13.4912 4.5492 13.3788 4.5848C13.3948 4.5312 13.4084 4.478 13.4184 4.4228C13.4654 4.03715 13.3575 3.64859 13.1184 3.3424L12.596 2.7L12.276 3.4504C12.2252 3.55775 12.147 3.64979 12.0492 3.7172C11.9948 3.44934 11.8627 3.20341 11.6696 3.01C11.5094 2.84573 11.3177 2.71554 11.1059 2.62728C10.8941 2.53902 10.6666 2.4945 10.4372 2.4964C10.356 2.4964 10.2752 2.5024 10.196 2.514L9.572 2.6368C9.62519 2.42735 9.71046 2.22738 9.8248 2.044L10.1688 1.5088L9.3032 1.5896L9.0268 0.997203L8.4936 1.2876L8 0.800003L7.506 1.288L6.9728 1.0112L6.6964 1.59L5.8312 1.4912L6.1748 2.0288C6.2896 2.2124 6.3744 2.412 6.4276 2.6212L5.8352 2.5048H5.8152C5.7328 2.49292 5.64966 2.4869 5.5664 2.4868C5.33696 2.4849 5.10951 2.52942 4.89772 2.61768C4.68593 2.70594 4.49418 2.83613 4.334 3.0004C4.13777 3.19603 4.00435 3.44574 3.9508 3.7176C3.8554 3.65194 3.77853 3.56281 3.7276 3.4588L3.4056 2.7024L2.88 3.3464C2.64547 3.65304 2.53985 4.03908 2.5856 4.4224C2.5956 4.4784 2.6096 4.5312 2.6252 4.5848C2.51351 4.54874 2.39696 4.52999 2.2796 4.5292C2.13124 4.53005 1.98462 4.56117 1.84871 4.62067C1.7128 4.68016 1.59046 4.76678 1.4892 4.8752C1.3392 5.0472 1.1396 5.1696 0.9164 5.2248C0.678542 5.26028 0.437953 5.27407 0.1976 5.266L0.492 5.922C0.583384 6.1061 0.724121 6.26118 0.898508 6.36995C1.0729 6.47872 1.27407 6.5369 1.4796 6.538H1.5724C1.3156 6.726 1.0092 6.8344 0.6912 6.8484L0 6.8188L0.2112 7.4828C0.288667 7.73756 0.437998 7.96455 0.641274 8.13653C0.84455 8.30852 1.09314 8.4182 1.3572 8.4524C1.32986 8.62481 1.26183 8.78821 1.15874 8.92908C1.05564 9.06994 0.920464 9.18421 0.7644 9.2624L0.2352 9.4776L0.5192 9.9736C0.634523 10.1529 0.793423 10.2999 0.98104 10.4011C1.16866 10.5022 1.37886 10.5542 1.592 10.552C1.7048 10.552 1.8172 10.54 1.928 10.5164C1.9556 10.6372 1.9912 10.7576 2.0308 10.874C2.1292 11.1348 2.1352 11.4192 2.0504 11.684L1.7936 12.2232L2.3684 12.3752C2.4968 12.4088 2.6312 12.4248 2.7636 12.4248C2.8584 12.4248 2.9512 12.4148 3.0436 12.3928C3.1112 12.3772 3.1784 12.3576 3.2416 12.332C3.3144 12.464 3.4076 12.5868 3.512 12.6952C3.8796 13.0728 4.4012 13.264 5.0628 13.264H5.5348L4.5612 13.6692L5.2996 14.0344C5.598 14.1808 5.9024 14.3132 6.2124 14.4296L6.1236 14.6864L6.3784 14.8028C6.8012 14.9688 7.2496 15.0616 7.7036 15.0776H8.31C8.76255 15.0611 9.20896 14.9675 9.63 14.8008L9.8764 14.6864L9.7896 14.4296C10.1039 14.3092 10.4117 14.1727 10.712 14.0208L11.4372 13.6688L10.4652 13.274H10.9392C11.6012 13.274 12.1244 13.0764 12.49 12.7052C12.5964 12.5964 12.6872 12.474 12.7604 12.3416C12.8236 12.3676 12.8908 12.3872 12.958 12.4028C13.0508 12.4248 13.1436 12.4348 13.2384 12.4348C13.3708 12.4348 13.5052 12.4168 13.6336 12.3852L14.2104 12.2332L13.9596 11.7036C13.8649 11.4346 13.8683 11.1408 13.9692 10.874C14.0108 10.7536 14.0444 10.6312 14.072 10.5088C14.1828 10.5324 14.2972 10.544 14.41 10.544C14.6248 10.5456 14.8365 10.492 15.0246 10.3882C15.2128 10.2845 15.3711 10.1341 15.4844 9.9516L15.7648 9.4616L15.2436 9.2484C15.0875 9.17023 14.9523 9.05598 14.8492 8.91511C14.7461 8.77424 14.6781 8.61082 14.6508 8.4384C14.915 8.4037 15.1636 8.29355 15.3668 8.12115C15.57 7.94875 15.7191 7.72142 15.7964 7.4664L15.7888 7.4824Z" fill="white"/>
<path d="M10.3744 9.58039H5.63359V11.358C5.63359 12.0892 6.16119 12.5432 6.94159 12.5432C7.59319 12.5432 7.76479 12.5692 8.00559 12.81C8.15799 12.646 8.37359 12.5532 8.59839 12.5572V12.5292L8.74879 12.0672L8.49399 11.7888C8.39119 11.8204 8.28439 11.8324 8.17799 11.8264C8.01866 11.8248 7.85982 11.8082 7.70359 11.7768H7.65439C7.63239 11.7768 7.63239 11.7768 7.62639 11.7888L7.59719 11.838L7.54359 11.9272L7.44079 11.9032L6.98479 11.7968L6.92159 11.8992V11.9112L6.97679 11.9724L6.95279 12.0516C6.91132 12.1483 6.85171 12.2361 6.77719 12.3104L6.66279 12.4328L6.55799 12.3024L6.48119 12.2056C6.44059 12.1523 6.41419 12.0895 6.40446 12.0232C6.39474 11.9568 6.40201 11.8891 6.42559 11.8264L6.29759 11.8796L6.23999 11.7532L6.20839 11.6644C6.16926 11.5738 6.1622 11.4725 6.18838 11.3773C6.21456 11.2821 6.27242 11.1987 6.35239 11.1408L6.72039 10.9432L7.06959 11.0124C7.06959 10.9788 7.09159 10.8584 7.10159 10.8284H7.08159L6.88399 10.904L6.68639 10.7696C6.67674 10.76 6.66908 10.7486 6.66386 10.736C6.65863 10.7235 6.65594 10.71 6.65594 10.6964C6.65594 10.6828 6.65863 10.6693 6.66386 10.6568C6.66908 10.6442 6.67674 10.6328 6.68639 10.6232L6.87439 10.3392L6.39839 9.74639L7.11119 10.0268L7.16039 9.96759L7.25919 9.84919L7.37199 9.95559C7.40141 9.98489 7.42193 10.0219 7.43119 10.0624C7.62879 10.1412 7.99399 10.3724 8.02359 10.7476L7.91119 10.7932C7.9245 10.8129 7.94288 10.8287 7.96439 10.8388L8.48599 10.89L8.53319 10.876C8.62244 10.8426 8.71672 10.8246 8.81199 10.8228C8.90679 10.8228 8.99959 10.8448 9.08439 10.886C9.12199 10.8724 9.16359 10.8644 9.20319 10.862H9.22879C9.50719 10.862 9.64759 11.0716 9.75799 11.238L9.81519 11.3208C9.91199 11.4588 10.0404 11.6604 10.0464 11.6684L10.1036 11.7572L10.0324 11.84C10.0001 11.8826 9.95841 11.9171 9.9105 11.9408C9.8626 11.9645 9.80983 11.9767 9.75639 11.9764C9.72469 11.9784 9.6929 11.9784 9.66119 11.9764C9.63283 11.9706 9.6051 11.962 9.57839 11.9508C9.57839 11.9784 9.57839 12.012 9.56239 12.0396L9.48159 12.506C9.74194 12.4534 9.97502 12.3098 10.139 12.1008C10.303 11.8919 10.3872 11.6314 10.3764 11.366L10.3744 9.58039ZM5.62759 9.43639H9.31959C9.24588 9.35885 9.19448 9.26283 9.17082 9.15849C9.14717 9.05414 9.15213 8.94535 9.18519 8.84359C9.13534 8.81942 9.08882 8.7889 9.04679 8.75279C8.90279 8.85919 8.45439 9.17919 8.34759 9.26039L8.32359 9.27639L6.87399 9.01959H6.84439C6.79708 9.02159 6.74971 9.02159 6.70239 9.01959C6.69578 9.05086 6.67862 9.07889 6.65378 9.09899C6.62894 9.1191 6.59795 9.13004 6.56599 9.12999H6.54199C6.50485 9.12333 6.47175 9.1025 6.44967 9.07191C6.42758 9.04132 6.41823 9.00334 6.42359 8.96599V8.93439C6.33192 8.86871 6.26153 8.77757 6.22115 8.67227C6.18076 8.56697 6.17216 8.45214 6.19639 8.34199V8.31639L6.21839 8.30039C6.21839 8.30039 6.24599 8.28039 6.28359 8.25879L6.17879 8.24279C6.16006 8.23946 6.14338 8.22893 6.13232 8.21346C6.12125 8.19799 6.11669 8.17879 6.11959 8.15999C6.12091 8.15075 6.12405 8.14187 6.12885 8.13386C6.13365 8.12586 6.14 8.11889 6.14753 8.11338C6.15505 8.10786 6.16361 8.10391 6.17269 8.10175C6.18177 8.09958 6.19119 8.09926 6.20039 8.10079H6.20239L6.45319 8.14039L6.47719 7.25759L6.85039 6.86239L7.08359 7.35239L6.83839 8.20159L7.05959 8.23719C7.09959 8.24519 7.12479 8.28079 7.11919 8.31999C7.11649 8.3368 7.10779 8.35206 7.0947 8.36295C7.0816 8.37383 7.06501 8.3796 7.04799 8.37919H7.03599L6.85599 8.34999V8.36359C6.87571 8.39922 6.90625 8.42766 6.94319 8.44479L8.04719 8.46239L8.32999 8.18399C8.2244 8.14765 8.13125 8.08215 8.06131 7.99509C7.99138 7.90802 7.94751 7.80294 7.93479 7.69199C7.79711 7.63953 7.68475 7.53633 7.62079 7.40359C7.56705 7.27873 7.55801 7.13915 7.59519 7.00839C7.42156 6.93988 7.26468 6.83484 7.13519 6.70039H5.49519C5.57439 6.89399 5.61959 7.09919 5.62759 7.30679V9.43639Z" fill="#FCE527"/>
<path d="M7.14281 10.3568C7.11881 10.3568 7.09761 10.3744 7.09561 10.398V10.4C7.0946 10.4125 7.09857 10.425 7.10665 10.4346C7.11473 10.4443 7.12628 10.4504 7.13881 10.4516H7.14081C7.16881 10.4516 7.18841 10.4296 7.18841 10.404C7.18841 10.376 7.16841 10.3568 7.14281 10.3568ZM7.14081 10.3544C7.14281 10.3544 7.14281 10.3568 7.14281 10.3568C7.14481 10.3568 7.14481 10.3544 7.14681 10.3544H7.14081ZM10.3684 13.594L10.0956 13.4892L10.1708 13.2068L10.2536 12.8988C9.88041 13.0904 9.48961 13.2444 9.08641 13.3588C8.88881 13.4144 8.74641 13.44 8.74641 13.44V13.6396C8.50361 13.6788 8.25841 13.7008 8.01161 13.7028H7.99001C7.74321 13.7008 7.49801 13.6788 7.25521 13.6396V13.442C7.25521 13.442 7.11121 13.414 6.91361 13.3588C6.51022 13.2442 6.11913 13.0902 5.74601 12.8988L5.82721 13.2068L5.90401 13.4892L5.62961 13.594L5.33321 13.7068C5.74001 13.918 6.16481 14.0936 6.60321 14.232L6.49881 14.5164C6.97576 14.6986 7.48355 14.7865 7.99401 14.7752H8.00601C8.51646 14.7865 9.02426 14.6986 9.50121 14.5164L9.39841 14.2324C9.8354 14.0938 10.2596 13.9178 10.6664 13.7064L10.3684 13.594ZM5.66321 13.7244L6.10561 13.5764L5.97321 13.1416C6.26361 13.2856 6.56401 13.4064 6.87401 13.5012L6.65681 14.0936C6.31461 14.0024 5.9819 13.8788 5.66321 13.7244ZM8.01161 14.6348L8.00201 14.6268C7.5675 14.6248 7.13513 14.5658 6.71601 14.4512L6.98241 13.7284C7.31441 13.8112 7.65601 13.8564 8.00001 13.8588H8.02161C8.36561 13.8548 8.70681 13.8112 9.03881 13.7284L9.30561 14.4512C8.88481 14.5696 8.44841 14.6308 8.01161 14.6348ZM9.35881 14.1056V14.0996L9.14161 13.5072C9.45123 13.4122 9.75251 13.292 10.0424 13.1476L9.91001 13.582L10.358 13.7324C10.038 13.8884 9.70241 14.0148 9.35881 14.1056ZM8.00001 2.31879C8.44633 2.30723 8.88432 2.44102 9.24801 2.69999C9.30561 2.40799 9.41401 2.12719 9.57041 1.87239L9.12201 1.92399L8.88881 1.42399L8.43641 1.65719L8.00001 1.22479L7.56321 1.65719L7.11121 1.42399L6.87801 1.92399L6.42961 1.87239C6.58561 2.12719 6.69401 2.40799 6.75161 2.70039C7.11524 2.44127 7.55364 2.30735 8.00001 2.31879ZM6.85801 2.09759L6.98241 2.11159L7.03601 1.99879L7.19201 1.66279L7.48241 1.81319L7.59481 1.87039L7.68601 1.78759L8.00001 1.46959L8.31401 1.78759L8.40481 1.87639L8.51761 1.81919L8.80561 1.66919L8.96401 2.00519L9.01721 2.11719L9.14161 2.10359L9.26001 2.08959C9.2122 2.19891 9.17132 2.31114 9.13761 2.42559C8.78574 2.24544 8.39611 2.15149 8.00081 2.15149C7.60551 2.15149 7.21587 2.24544 6.86401 2.42559C6.8303 2.31114 6.78942 2.19891 6.74161 2.08959L6.85801 2.09759ZM13.8588 6.39599L13.8052 6.33079C13.438 5.86279 13.0884 5.41839 12.464 5.21479C12.4896 5.19279 12.5156 5.17319 12.5432 5.15559C12.6897 5.07258 12.8167 4.95905 12.9156 4.82268C13.0144 4.68631 13.0827 4.53029 13.116 4.36519C13.1494 4.06337 13.0644 3.76036 12.8788 3.51999L12.6812 3.27279L12.5572 3.56719C12.5572 3.58519 12.3376 4.05719 11.8952 4.05719H11.7648C11.7765 3.90366 11.755 3.74941 11.7019 3.6049C11.6487 3.46039 11.5652 3.32898 11.4568 3.21959C11.3245 3.08474 11.1665 2.97783 10.9921 2.9052C10.8177 2.83257 10.6305 2.79571 10.4416 2.79679C10.3708 2.79712 10.3001 2.80247 10.23 2.81279L9.92801 2.87199L10.1156 3.11879C10.2616 3.31639 10.394 3.65799 10.238 3.84199C10.1628 3.90719 10.078 3.95839 9.98521 3.99399C9.78761 4.08679 9.50321 4.21919 9.50321 4.55119C9.50321 4.76639 9.67121 4.99119 9.97321 5.18319C10.864 5.74799 11.4152 6.33079 11.6544 6.98639C12.0236 7.98639 11.5416 8.55479 11.0736 8.85519L10.864 8.98959L11.048 9.15759C11.212 9.29759 11.4132 9.38479 11.6284 9.40639H11.8084C11.992 9.40639 12.1736 9.38079 12.3496 9.32719C12.3053 9.40434 12.2538 9.47707 12.1956 9.54439C12.0641 9.69762 11.8991 9.81862 11.7135 9.89809C11.5279 9.97756 11.3265 10.0134 11.1248 10.0028H10.9488L10.9352 10.1788C10.9345 10.3005 10.9605 10.4209 11.0113 10.5315C11.0622 10.6421 11.1367 10.7401 11.2296 10.8188C11.2788 10.862 11.3344 10.8976 11.3936 10.9252C11.1015 11.2103 10.9346 11.5998 10.9296 12.008C10.9296 12.2312 10.8776 12.452 10.7812 12.6536L10.5836 12.95H10.9352C11.516 12.95 11.9604 12.79 12.2684 12.472C12.4284 12.304 12.5472 12.1008 12.6164 11.8796C12.7858 12.0231 13.0008 12.1015 13.2228 12.1008C13.3292 12.1008 13.436 12.0868 13.5388 12.0632L13.764 12.004L13.6652 11.7944C13.5408 11.46 13.5408 11.092 13.6652 10.7576C13.7386 10.5394 13.7896 10.3142 13.8172 10.0856C13.9948 10.1768 14.1924 10.222 14.392 10.22C14.72 10.224 15.026 10.062 15.204 9.78759L15.3124 9.58999L15.1148 9.50719C14.4532 9.23239 14.3068 8.49359 14.2776 8.09479C14.3428 8.10839 14.4076 8.11639 14.4748 8.11879L14.5304 8.15599C15.2492 8.15599 15.4904 7.42319 15.5 7.39159L15.5812 7.13279H15.3104C15.0293 7.12328 14.7537 7.0524 14.5028 6.92512C14.252 6.79784 14.0325 6.61725 13.8588 6.39599ZM14.5324 7.95639H14.5044C14.3603 7.95824 14.2185 7.91928 14.0956 7.84399C14.0956 7.84399 13.9912 9.27199 15.0556 9.71439V9.72039C14.9864 9.82533 14.8918 9.91113 14.7806 9.96986C14.6695 10.0286 14.5453 10.0583 14.4196 10.0564C14.2778 10.0651 14.1359 10.0399 14.0058 9.98285C13.8756 9.92581 13.7609 9.83858 13.6712 9.72839C13.6769 10.0646 13.6221 10.3992 13.5092 10.716C13.3652 11.0972 13.3652 11.52 13.5092 11.9012C13.4213 11.9232 13.331 11.9345 13.2404 11.9348C13.1852 11.9348 13.1276 11.9288 13.0744 11.9148C12.9458 11.8839 12.8271 11.8207 12.7297 11.7311C12.6323 11.6416 12.5593 11.5288 12.5176 11.4032C12.5176 11.4032 12.5588 12.7744 10.9608 12.7744H10.9488C11.0696 12.5452 11.1328 12.2904 11.1308 12.0316C11.2 11.018 11.8872 10.874 11.8872 10.874C11.6984 10.8506 11.5177 10.7829 11.36 10.6764C11.289 10.6166 11.2316 10.5423 11.1917 10.4584C11.1519 10.3746 11.1304 10.2832 11.1288 10.1904C11.3571 10.2004 11.5846 10.1586 11.7943 10.0679C12.0041 9.97732 12.1905 9.8403 12.3396 9.66719C12.5212 9.45959 12.642 9.20719 12.6932 8.93599C12.4383 9.12747 12.1249 9.22459 11.8064 9.21079H11.6444C11.472 9.19373 11.3089 9.12483 11.1764 9.01319C11.7844 8.61799 12.2112 7.94279 11.834 6.91719C11.53 6.09559 10.8008 5.48119 10.068 5.01919C9.82521 4.86919 9.67881 4.69919 9.67881 4.55319C9.67881 4.20919 10.1668 4.19959 10.3684 3.96039C10.5996 3.69159 10.4552 3.25719 10.2536 2.99639C10.3108 2.98639 10.3704 2.98279 10.4276 2.98279C10.7576 2.97879 11.0756 3.11079 11.3048 3.34799C11.5376 3.56919 11.6264 3.90319 11.5376 4.21119L11.6444 4.23279C11.7096 4.24479 11.7748 4.25079 11.842 4.25279H11.8852C12.464 4.25279 12.7252 3.64639 12.7252 3.64639C12.7252 3.64639 13.3412 4.40479 12.4344 4.99759C12.2784 5.09839 12.2092 5.19519 12.2368 5.29359L12.2508 5.35879L12.316 5.37079C12.9736 5.54839 13.3036 6.00279 13.7124 6.51879C13.9039 6.76181 14.1461 6.96015 14.422 7.09997C14.698 7.2398 15.0012 7.31775 15.3104 7.32839H15.3224C15.3224 7.32839 15.1248 7.95639 14.5324 7.95639Z" fill="#222220"/>
<path d="M13.264 5.30401C13.485 5.43027 13.6769 5.60174 13.8272 5.80721C13.9396 5.98121 14.0996 6.11921 14.2892 6.20241C14.3604 6.22641 14.4372 6.23801 14.5124 6.23801C14.8148 6.23801 15.0912 6.06601 15.2296 5.79761L15.344 5.54081L15.0656 5.52481C14.766 5.47025 14.4942 5.31485 14.2952 5.08441C14.1472 4.92441 13.9396 4.83161 13.7204 4.82961C13.5514 4.83212 13.3865 4.88201 13.2444 4.97361L12.9876 5.15361L13.264 5.30361V5.30401ZM13.7264 5.02121L13.7204 5.02321C13.8884 5.02321 14.0464 5.09641 14.1588 5.22081C14.3902 5.48558 14.7066 5.66152 15.0536 5.71841C14.9472 5.91801 14.7396 6.04241 14.5124 6.04441C14.4566 6.04394 14.4012 6.03448 14.3484 6.01641C14.0284 5.90841 13.916 5.42441 13.3608 5.13161C13.4697 5.06084 13.5965 5.02255 13.7264 5.02121ZM13.3944 7.85001L13.3904 7.84601C13.2288 6.54201 12.2824 5.60001 11.2296 5.02921C11.1395 4.98036 11.048 4.93421 10.9552 4.89081C11.17 4.93453 11.3917 4.93121 11.605 4.88108C11.8184 4.83095 12.0184 4.73519 12.1912 4.60041C12.1912 4.60041 11.5812 5.04881 10.3328 4.64201C10.6784 4.86721 11.35 5.18321 11.9644 5.69681C13.4972 7.04401 12.4008 8.35961 12.4008 8.35961C12.625 8.14644 12.7832 7.87328 12.8564 7.57271C12.9297 7.27214 12.915 6.95684 12.814 6.66441C13.1383 7.20381 13.2937 7.82791 13.2604 8.45641C13.2164 9.49121 12.642 10.396 12.0492 11.1168C11.8705 11.3438 11.7498 11.611 11.6976 11.8952C11.7979 11.6131 11.9507 11.3525 12.148 11.1272C12.79 10.3744 13.3332 9.59401 13.4104 8.47001C13.4776 8.66761 13.7504 9.24241 14.1848 9.45801C14.1848 9.45801 13.6396 9.13001 13.3944 7.85001ZM5.21679 12.6676C5.12158 12.4654 5.0711 12.2451 5.06879 12.0216C5.06287 11.6133 4.89513 11.224 4.60239 10.9392C4.66159 10.9112 4.71719 10.876 4.76639 10.8324C4.95439 10.6724 5.06239 10.4396 5.06079 10.1924L5.04879 10.0164H4.87119C4.66994 10.0264 4.46905 9.99034 4.28384 9.91098C4.09863 9.83161 3.93396 9.71102 3.80239 9.55841C3.74488 9.49059 3.69336 9.41792 3.64839 9.34121C3.82439 9.39441 4.00599 9.42001 4.18959 9.42001H4.36959C4.58454 9.39836 4.78775 9.31155 4.95199 9.17121L5.13599 9.00321L4.92639 8.86921C4.45639 8.56921 3.97639 8.00001 4.34559 7.00041C4.58479 6.35041 5.13559 5.76401 6.03439 5.19881C6.33679 5.00161 6.50239 4.78201 6.50239 4.56681C6.50239 4.23481 6.22399 4.10281 6.02079 4.01001C5.92828 3.97452 5.84272 3.92307 5.76799 3.85801C5.60999 3.67401 5.74199 3.32441 5.89039 3.13481L6.08799 2.88801L5.78399 2.82841C5.71439 2.81641 5.64359 2.81241 5.57199 2.81241C5.38184 2.8068 5.19253 2.84001 5.01565 2.91003C4.83876 2.98004 4.678 3.08538 4.54319 3.21961C4.43279 3.32836 4.34722 3.45969 4.29233 3.60461C4.23744 3.74953 4.21454 3.90461 4.22519 4.05921H4.10679C3.66239 4.05921 3.45279 3.58921 3.44479 3.56921L3.32079 3.27481L3.12279 3.52201C2.93875 3.76306 2.85466 4.06576 2.88799 4.36721C2.92088 4.53218 2.98888 4.68815 3.08737 4.82453C3.18586 4.96091 3.31253 5.0745 3.45879 5.15761C3.48639 5.17521 3.51399 5.19521 3.53759 5.21681C2.91359 5.41441 2.56399 5.86481 2.19639 6.33281L2.14319 6.40001C1.96915 6.62133 1.74884 6.80195 1.49768 6.92922C1.24653 7.05649 0.970594 7.12734 0.689193 7.13681H0.418793L0.501593 7.39561C0.501593 7.42721 0.750793 8.15961 1.47159 8.15961H1.50719C1.57439 8.15801 1.63919 8.15001 1.70479 8.13641C1.67519 8.53121 1.52879 9.27401 0.864793 9.54841L0.667593 9.63161L0.776393 9.82921C0.864098 9.9641 0.9846 10.0745 1.12662 10.1501C1.26863 10.2258 1.42752 10.2641 1.58839 10.2616C1.78759 10.2636 1.98319 10.2184 2.16079 10.1272C2.18879 10.3564 2.23999 10.5816 2.31279 10.7992C2.43716 11.1336 2.43716 11.5016 2.31279 11.836L2.21439 12.0452L2.43959 12.1048C2.54239 12.1284 2.64879 12.142 2.75559 12.142C2.9776 12.1427 3.19259 12.0643 3.36199 11.9208C3.43119 12.142 3.54959 12.3456 3.70959 12.5136C4.01959 12.8316 4.46399 12.9896 5.04279 12.9916H5.39479L5.21679 12.6676ZM5.04679 12.778C3.44879 12.778 3.48839 11.4072 3.48839 11.4072C3.44673 11.5329 3.3737 11.6459 3.2762 11.7355C3.17869 11.8251 3.05995 11.8883 2.93119 11.9192C2.87799 11.9328 2.82079 11.9388 2.76559 11.9388C2.67439 11.9388 2.58559 11.9268 2.49879 11.9052C2.64279 11.524 2.64279 11.1012 2.49879 10.72C2.38655 10.403 2.33235 10.0683 2.33879 9.73201C2.24903 9.84226 2.13428 9.92952 2.00406 9.98656C1.87384 10.0436 1.73189 10.0688 1.58999 10.06H1.58039C1.45425 10.0619 1.32967 10.0319 1.21816 9.97291C1.10665 9.9139 1.01181 9.82775 0.942393 9.72241C2.00679 9.28001 1.90239 7.85161 1.90239 7.85161C1.77939 7.9271 1.63751 7.96621 1.49319 7.96441H1.47199C0.879193 7.96441 0.681993 7.33641 0.681993 7.33641H0.693993C1.00347 7.32654 1.30705 7.2491 1.58344 7.10953C1.85983 6.96995 2.10235 6.77161 2.29399 6.52841C2.70079 6.01281 3.03239 5.55841 3.68999 5.38041L3.75559 5.36881L3.76919 5.30361C3.78719 5.20281 3.71799 5.10601 3.57159 5.00761C2.66519 4.41481 3.28119 3.65641 3.28119 3.65641C3.28119 3.65641 3.53799 4.26281 4.12119 4.26281H4.14839C4.21559 4.26081 4.28079 4.25481 4.34599 4.24281L4.45279 4.22121C4.36199 3.91321 4.45279 3.57921 4.68559 3.35801C4.79925 3.24061 4.93567 3.14763 5.0865 3.08477C5.23733 3.0219 5.3994 2.99048 5.56279 2.99241C5.61999 2.99241 5.67919 2.99641 5.73679 3.00641C5.53919 3.26921 5.39279 3.70361 5.62399 3.97041C5.82159 4.20161 6.31159 4.21121 6.31159 4.56281C6.31159 4.70921 6.17519 4.87881 5.93239 5.03081C5.19719 5.49321 4.46839 6.10761 4.16639 6.92921C3.78919 7.95441 4.21559 8.63601 4.82399 9.02521C4.69199 9.13561 4.52799 9.20521 4.35599 9.22281H4.19199C3.8735 9.2366 3.56008 9.13948 3.30519 8.94801C3.35639 9.21881 3.47719 9.47161 3.65679 9.67881C3.80653 9.85171 3.99335 9.98859 4.20334 10.0792C4.41333 10.1699 4.64107 10.212 4.86959 10.2024C4.86559 10.3904 4.78279 10.568 4.63839 10.6884C4.48056 10.7949 4.29978 10.8626 4.11079 10.886C4.11079 10.886 4.80039 11.026 4.87559 12.0432C4.87398 12.302 4.93637 12.5572 5.05719 12.786L5.04719 12.778H5.04679Z" fill="#222220"/>
<path d="M1.4856 6.236H1.4876C1.5624 6.236 1.6396 6.224 1.7108 6.2004C1.90012 6.11685 2.06076 5.97958 2.1728 5.8056C2.3208 5.6 2.5128 5.428 2.734 5.3016L3.0104 5.1536L2.7536 4.9736C2.61215 4.88228 2.44795 4.8324 2.2796 4.8296C2.17128 4.83055 2.06432 4.85385 1.96542 4.89804C1.86651 4.94222 1.77779 5.00635 1.7048 5.0864C1.50603 5.3161 1.23507 5.47139 0.936405 5.5268L0.658005 5.5408L0.770405 5.7976C0.838067 5.92914 0.94054 6.03958 1.06665 6.11689C1.19277 6.19419 1.33768 6.23539 1.4856 6.236ZM1.8412 5.2208C1.8958 5.15893 1.96288 5.10934 2.03803 5.07528C2.11318 5.04122 2.1947 5.02347 2.2772 5.0232C2.406 5.0252 2.5324 5.0648 2.6412 5.134C2.082 5.432 1.9652 5.91 1.6532 6.0188C1.602 6.0364 1.5468 6.0468 1.4912 6.0468C1.37916 6.04681 1.26923 6.01627 1.17324 5.95848C1.07725 5.90069 0.998828 5.81782 0.946405 5.7188C1.29347 5.6618 1.60986 5.48572 1.8412 5.2208ZM2.7436 8.464C2.70937 7.83555 2.8649 7.21132 3.19 6.6724C3.08904 6.96483 3.0743 7.28013 3.14757 7.5807C3.22083 7.88127 3.379 8.15443 3.6032 8.3676C3.6032 8.3676 2.5048 7.0516 4.0392 5.7048C4.654 5.1912 5.3232 4.8752 5.6692 4.65C4.4208 5.0568 3.8104 4.6084 3.8104 4.6084C4.16 4.8808 4.6104 4.9876 5.04521 4.8988C4.95262 4.94296 4.861 4.9891 4.7704 5.0372C3.7176 5.61 2.7656 6.552 2.6096 7.856V7.846C2.3644 9.126 1.8192 9.454 1.8192 9.454C2.252 9.2404 2.5264 8.6636 2.5916 8.466C2.6648 9.592 3.214 10.3724 3.8556 11.1228C4.05234 11.3487 4.20522 11.6093 4.3064 11.8912C4.25254 11.6081 4.13033 11.3424 3.95041 11.1172C3.35841 10.396 2.7852 9.4912 2.7436 8.464ZM7.6384 6.086C7.67295 6.05283 7.71449 6.02782 7.75996 6.0128C7.80544 5.99778 7.8537 5.99313 7.9012 5.9992V6.3724C7.89962 6.46455 7.87515 6.55485 7.83001 6.6352H8.20361C8.15849 6.55484 8.13402 6.46454 8.1324 6.3724V5.9992C8.2272 5.9872 8.324 6.0188 8.3932 6.086V5.8272H7.6384V6.086ZM7.4824 4.294H7.4784C7.536 4.3436 7.6028 4.3832 7.676 4.4068L7.7236 4.4288V4.1836L7.2848 4C7.3068 4.1224 7.378 4.2292 7.4824 4.2944V4.294ZM8.5236 4.2924L8.52161 4.2944C8.62641 4.2292 8.69761 4.1224 8.7192 4L8.2804 4.184V4.4268L8.326 4.4048C8.3992 4.3812 8.466 4.3416 8.5236 4.2924Z" fill="#222220"/>
<path d="M9.3096 3.3024C9.3096 2.9332 8.6876 2.6012 8.002 2.6012C7.3168 2.6012 6.6944 2.9332 6.6944 3.3024L6.7084 3.3932L6.9828 4.9732L6.7084 5.1332L5.9912 5.5404C5.9912 5.5404 5.8312 5.6232 5.756 5.6728C5.4856 5.8704 5.428 6.1348 5.584 6.2496C5.60325 6.11936 5.66966 6.00073 5.7706 5.91623C5.87155 5.83173 6.00001 5.78723 6.1316 5.7912C6.24369 5.7941 6.3535 5.82353 6.45202 5.87707C6.55055 5.9306 6.63498 6.00673 6.6984 6.0992C6.738 6.1472 6.7736 6.1984 6.8052 6.2496C6.84422 6.31246 6.88558 6.37383 6.9292 6.4336H5.1004C5.2544 6.6976 5.3432 6.9964 5.3632 7.3024V11.3656C5.3632 12.3536 6.1196 12.8176 6.9432 12.8176C7.5752 12.8176 7.6604 12.788 8.008 13.1356C8.356 12.7876 8.4408 12.8176 9.0728 12.8176C9.8904 12.8176 10.6528 12.3496 10.6528 11.3656V7.3064C10.6728 7.0004 10.7616 6.702 10.9156 6.4372H9.0668C9.1084 6.38 9.1496 6.3208 9.1912 6.2532C9.22455 6.20176 9.26018 6.15184 9.298 6.1036C9.4284 5.9156 9.6396 5.8012 9.8668 5.7956C10.1392 5.7876 10.3748 5.9848 10.414 6.2536C10.572 6.1408 10.5148 5.8584 10.242 5.6768C10.1692 5.6252 10.0092 5.5444 10.0092 5.5444L9.298 5.1256L9.0232 4.9656L9.298 3.3856L9.3096 3.3024ZM6.9592 3.484L7.9232 3.81V5.3232L7.214 4.948L6.9592 3.484ZM5.4952 6.7H7.1568C7.2848 6.8344 7.4432 6.9408 7.6168 7.008C7.5792 7.1384 7.5892 7.2788 7.6428 7.4032C7.706 7.5352 7.8188 7.6384 7.9568 7.6912C7.9824 7.9188 8.1368 8.1084 8.3516 8.1832C8.2332 8.304 8.1168 8.4164 8.0692 8.462L6.9652 8.444C6.92832 8.42697 6.89779 8.39868 6.878 8.3632V8.3492L7.058 8.3788H7.07C7.1052 8.3788 7.1348 8.3552 7.1408 8.3196C7.14371 8.3008 7.13914 8.28161 7.12808 8.26613C7.11701 8.25066 7.10033 8.24013 7.0816 8.2368L6.8604 8.2012L7.1052 7.352L6.8724 6.862L6.4988 7.2568L6.4752 8.14L6.2244 8.1004C6.2152 8.09855 6.20571 8.09858 6.19652 8.10048C6.18732 8.10238 6.1786 8.1061 6.17088 8.11144C6.16315 8.11678 6.15658 8.12361 6.15155 8.13154C6.14652 8.13947 6.14314 8.14833 6.1416 8.1576V8.1596C6.13858 8.17846 6.1431 8.19775 6.15417 8.21332C6.16524 8.22888 6.18199 8.23947 6.2008 8.2428L6.3052 8.2588C6.28223 8.27047 6.2604 8.28426 6.24 8.3L6.2184 8.316V8.3416C6.19464 8.45174 6.20347 8.56641 6.24382 8.67162C6.28417 8.77682 6.35428 8.86799 6.4456 8.934V8.966C6.44035 9.00328 6.44975 9.04116 6.47183 9.07166C6.49391 9.10216 6.52694 9.12293 6.564 9.1296H6.588C6.61994 9.12953 6.65089 9.11849 6.67565 9.09831C6.70042 9.07814 6.71749 9.05007 6.724 9.0188C6.7716 9.0208 6.8168 9.0208 6.864 9.0188H6.894L8.342 9.2816L8.3656 9.2656C8.60104 9.09983 8.83414 8.93075 9.0648 8.7584C9.1064 8.7936 9.1536 8.8256 9.2032 8.8492C9.17022 8.95089 9.16529 9.05961 9.18895 9.16388C9.2126 9.26814 9.26396 9.36409 9.3376 9.4416H5.6276V7.3064C5.61934 7.09811 5.57466 6.89288 5.4956 6.7H5.4952ZM8.9404 8.6536C8.7904 8.764 8.4208 9.0328 8.2864 9.1276L6.9728 8.8984V8.8628C6.9948 8.774 7.0064 8.6828 7.0088 8.5924L8.1148 8.61L8.1364 8.5884C8.1544 8.5704 8.504 8.2328 8.6816 8.0372C8.7292 8.0964 8.7844 8.146 8.8476 8.1852C8.8162 8.34733 8.84951 8.51531 8.9404 8.6532V8.6536ZM6.746 8.4164V8.4224C6.77516 8.47783 6.81886 8.52429 6.8724 8.5568C6.87036 8.63688 6.86234 8.71671 6.8484 8.7956C6.8484 8.8136 6.8484 8.8316 6.8348 8.8492V8.8768C6.744 8.8768 6.6548 8.8628 6.568 8.8352C6.4908 8.79395 6.42816 8.72995 6.38858 8.65188C6.34901 8.57381 6.33442 8.48545 6.3468 8.3988C6.418 8.3492 6.4988 8.3176 6.584 8.306C6.61928 8.30456 6.65408 8.31453 6.68326 8.33441C6.71243 8.35429 6.73443 8.38304 6.746 8.4164ZM6.6096 8.1536L6.6312 7.3184L6.8288 7.1208L6.9492 7.3716L6.7144 8.1856L6.6096 8.1536ZM8.9304 12.5548H8.7408L8.8888 12.0708C8.9128 12.0036 8.7904 11.9168 8.7388 11.8396C8.8592 11.9128 8.984 11.978 9.1124 12.0372C9.1124 12.0532 8.9304 12.5548 8.9304 12.5548ZM9.4384 12.0136L9.4224 11.9996L9.3196 12.5332C9.2544 12.5332 9.1852 12.5468 9.122 12.5508L9.2308 12.0372C9.2624 11.8852 8.8536 11.8396 8.652 11.5372C8.52 11.648 8.35 11.6996 8.18 11.6816C8.03072 11.6798 7.88194 11.664 7.7356 11.6344C7.70991 11.6324 7.6841 11.6324 7.6584 11.6344C7.62809 11.6326 7.59789 11.6392 7.57108 11.6535C7.54427 11.6677 7.5219 11.6891 7.5064 11.7152L7.4768 11.7648L6.9136 11.6284L6.7796 11.8616C6.76906 11.8771 6.76425 11.8958 6.76601 11.9145C6.76776 11.9332 6.77596 11.9507 6.7892 11.964L6.8268 12.0056C6.7892 12.0788 6.742 12.1456 6.6848 12.2032L6.6016 12.1004C6.57081 12.0499 6.5557 11.9914 6.5582 11.9323C6.56069 11.8732 6.58067 11.8161 6.6156 11.7684L6.8368 11.3952L7.3088 11.4664L7.2356 11.2984C7.1368 11.0772 7.2872 10.7944 7.3028 10.6328C7.3028 10.682 7.2516 10.692 7.2 10.692H7.064C7.05343 10.69 7.04257 10.69 7.032 10.692L6.904 10.7692L6.8032 10.6764C6.79547 10.6624 6.79261 10.6463 6.79508 10.6305C6.79754 10.6147 6.80518 10.6002 6.8168 10.5892L7.05 10.3268L6.7736 10.0048L7.1684 10.202L7.2872 10.06C7.3188 10.0916 7.3048 10.1744 7.3048 10.1744C7.5912 10.2456 7.7908 10.5064 7.7828 10.8024V10.86C7.8225 10.9224 7.88488 10.967 7.9568 10.9844L8.492 11.0376C8.5988 11.004 8.7072 10.9824 8.818 10.9688C8.9128 10.9688 9.0076 10.9984 9.0864 11.0496C9.12437 11.0235 9.1688 11.0084 9.2148 11.006H9.2328C9.4716 11.006 9.5728 11.2232 9.7008 11.4012C9.7976 11.5372 9.928 11.7428 9.928 11.7428C9.90979 11.7702 9.88512 11.7926 9.85617 11.8082C9.82721 11.8237 9.79487 11.8319 9.762 11.832C9.7384 11.8336 9.7168 11.8336 9.6932 11.832C9.436 11.7844 9.3988 11.2552 9.2524 11.2136H9.2288C9.2008 11.2136 9.1756 11.2296 9.1616 11.2552C9.2288 11.4348 9.1896 11.508 9.2624 11.65C9.3156 11.7348 9.3828 11.812 9.46 11.8772C9.46 11.8772 9.45 11.9564 9.438 12.0132L9.4384 12.0136ZM6.56 11.496H6.556L6.58 11.5572C6.564 11.6104 6.3824 11.6876 6.3824 11.6876L6.3428 11.6008C6.31735 11.5406 6.31286 11.4735 6.33005 11.4104C6.34724 11.3473 6.38511 11.2918 6.4376 11.2528L6.736 11.0712L7.054 11.1384C7.05218 11.2016 7.07162 11.2636 7.1092 11.3144L6.7756 11.2512L6.578 11.3892C6.56302 11.4021 6.55302 11.4198 6.54973 11.4393C6.54644 11.4589 6.55008 11.4789 6.56 11.496ZM10.3804 11.3676C10.3909 11.6333 10.3061 11.894 10.1413 12.1027C9.97651 12.3114 9.74252 12.4543 9.4816 12.5056L9.5724 12.0272C9.5724 11.9996 9.5824 11.966 9.5864 11.9384C9.614 11.9504 9.6416 11.9584 9.6692 11.964C9.7012 11.966 9.7324 11.966 9.764 11.964C9.81754 11.9644 9.87044 11.9524 9.9185 11.9288C9.96655 11.9051 10.0084 11.8706 10.0408 11.828L10.1116 11.7448L10.0524 11.664C10.0524 11.664 9.9204 11.4544 9.8212 11.316L9.766 11.2332C9.6556 11.0672 9.5152 10.858 9.2368 10.858H9.2112C9.17063 10.86 9.13059 10.8681 9.0924 10.882C9.00763 10.8403 8.91446 10.8186 8.82 10.8184C8.7252 10.8204 8.6304 10.8384 8.5412 10.872L8.494 10.8856L7.9724 10.8344C7.95089 10.8243 7.9325 10.8085 7.9192 10.7888L8.0316 10.7432C8 10.366 7.6368 10.1352 7.4392 10.058C7.42994 10.0175 7.40942 9.9805 7.38 9.9512L7.2672 9.8448L7.1684 9.9632L7.1192 10.0224L6.3884 9.7224L6.8644 10.3144L6.6764 10.5992C6.66681 10.6088 6.6592 10.6202 6.65401 10.6327C6.64882 10.6452 6.64615 10.6586 6.64615 10.6722C6.64615 10.6858 6.64882 10.6992 6.65401 10.7117C6.6592 10.7242 6.66681 10.7356 6.6764 10.7452L6.8744 10.8796L7.0716 10.8048H7.0916C7.0916 10.8344 7.0696 10.9548 7.0596 10.9884L6.7164 10.9292L6.3488 11.1268C6.1788 11.2492 6.1196 11.4744 6.2088 11.664L6.25 11.7528L6.3072 11.8792L6.4356 11.826C6.41202 11.8887 6.40475 11.9564 6.41447 12.0228C6.4242 12.0891 6.4506 12.1519 6.4912 12.2052L6.568 12.304L6.6708 12.4344L6.7852 12.312C6.8604 12.2368 6.9196 12.15 6.9612 12.0532L6.9852 11.974L6.9292 11.9128V11.9008L6.9928 11.7984L7.4488 11.9048L7.5516 11.9288L7.6072 11.8376L7.6368 11.7884C7.6368 11.7784 7.6368 11.7764 7.6644 11.7764H7.7136C7.8696 11.8084 8.028 11.824 8.1856 11.826C8.2924 11.8316 8.3992 11.82 8.5016 11.7884L8.7548 12.0764L8.6048 12.5388V12.5668C8.49378 12.5649 8.38361 12.5865 8.28147 12.63C8.17933 12.6736 8.08751 12.7382 8.012 12.8196C7.7692 12.5784 7.5972 12.5528 6.9472 12.5528C6.1672 12.5528 5.6396 12.0968 5.6396 11.3676V9.59H10.3804V11.3676ZM10.5088 6.6996C10.4284 6.89219 10.3837 7.0978 10.3768 7.3064V8.6376C10.2929 8.61957 10.2171 8.57481 10.1608 8.51005C10.1044 8.44528 10.0706 8.364 10.0644 8.2784V8.2168H10.0052C9.90302 8.20824 9.80746 8.16273 9.7364 8.0888C9.65003 7.98859 9.60185 7.86108 9.6004 7.7288C9.55866 7.79681 9.53839 7.87582 9.54224 7.95553C9.5461 8.03524 9.57389 8.11193 9.622 8.1756C9.6988 8.2724 9.8116 8.3376 9.934 8.3532C9.9514 8.46466 10.0045 8.56748 10.0852 8.64623C10.166 8.72498 10.2701 8.77543 10.382 8.79V9.442H9.5528C9.44846 9.38894 9.36839 9.29795 9.32903 9.1877C9.28968 9.07746 9.29404 8.95633 9.3412 8.8492L9.3732 8.778L9.3 8.75C9.18574 8.71038 9.09135 8.62788 9.03679 8.51995C8.98222 8.41202 8.97176 8.2871 9.0076 8.1716L9.0236 8.1124L8.968 8.0868C8.86658 8.02773 8.78503 7.93982 8.73374 7.83425C8.68245 7.72868 8.66374 7.61023 8.68 7.494C8.62681 7.54782 8.59171 7.61689 8.57959 7.69159C8.56748 7.76629 8.57894 7.84292 8.6124 7.9108C8.5732 7.9564 8.5216 8.0096 8.4644 8.0688C8.36371 8.0476 8.27301 7.99332 8.20675 7.91459C8.14049 7.83587 8.10249 7.73723 8.0988 7.6344V7.5848L8.0536 7.5672C7.99436 7.54971 7.93927 7.52038 7.89169 7.48099C7.84412 7.44159 7.80503 7.39294 7.7768 7.338C7.73885 7.24661 7.73196 7.14528 7.7572 7.0496C7.7968 7.0576 7.836 7.0636 7.8756 7.0672C7.9152 7.0692 7.9568 7.0692 7.9964 7.0672C8.3164 7.0672 8.6204 6.9292 8.8336 6.692L10.5088 6.6996ZM9.2288 5.3528L9.5528 5.5504L9.6336 5.5976C9.4656 5.6432 9.3136 5.734 9.1936 5.8604L9.1792 5.8724C9.1516 5.902 9.126 5.9316 9.1004 5.9632L9.0844 5.9832C9.05859 6.01505 9.03494 6.04859 9.0136 6.0836L9.0016 6.1016C8.9736 6.1408 8.9484 6.1844 8.9228 6.228C8.83453 6.40351 8.7033 6.55385 8.54134 6.66505C8.37937 6.77625 8.19191 6.84468 7.9964 6.864C7.80082 6.84475 7.61328 6.77634 7.45124 6.66514C7.2892 6.55394 7.15791 6.40356 7.0696 6.228C7.04444 6.1856 7.01884 6.14346 6.9928 6.1016L6.9768 6.0796L6.9136 5.9772L6.896 5.9552C6.87125 5.92476 6.8455 5.89515 6.8188 5.8664L6.8052 5.8524C6.68506 5.72623 6.53259 5.63546 6.3644 5.59L6.4476 5.5424L6.7736 5.3448L7.1072 5.1472L7.998 5.6312L8.8892 5.1632L9.2288 5.3528ZM8.7904 4.9576L8.0812 5.3312V3.812L9.0432 3.486L8.7904 4.958V4.9576ZM8 3.652L6.9452 3.2292C7.0344 3.016 7.4492 2.8344 8 2.8344C8.5512 2.8344 8.966 3.016 9.0548 3.2292L8 3.652Z" fill="#222220"/>
</g>
<defs>
<clipPath id="clip0_10463_5158">
<rect width="16" height="16" fill="white"/>
</clipPath>
</defs>
</svg>
