<svg
  width="20"
  height="20"
  viewBox="0 0 20 20"
  fill="none"
  xmlns="http://www.w3.org/2000/svg"
>
<g clipPath="url(#clip0_9_2)">
<path
      d="M10 20C15.5228 20 20 15.5228 20 10C20 4.47715 15.5228 0 10 0C4.47715 0 0 4.47715 0 10C0 15.5228 4.47715 20 10 20Z"
      fill="#0088CC"
    />
<path
      fill-rule="evenodd"
      clip-rule="evenodd"
      d="M7.21743 6.60874L12.8261 6.6087C13.0246 6.6087 13.2229 6.63785 13.4301 6.73445C13.6785 6.85024 13.8102 7.03274 13.9025 7.1677C13.9096 7.1782 13.9164 7.18903 13.9226 7.2001C14.0311 7.39324 14.087 7.60178 14.087 7.8261C14.087 8.03924 14.0363 8.27145 13.9226 8.47385C13.9215 8.47581 13.9204 8.4777 13.9193 8.47963L10.3758 14.5666C10.2976 14.7008 10.1538 14.7832 9.9985 14.7826C9.84318 14.7821 9.69993 14.6987 9.62276 14.5639L6.14433 8.48995C6.14333 8.48831 6.14233 8.48667 6.14133 8.48499C6.06172 8.35381 5.93861 8.15095 5.91708 7.88917C5.89729 7.64842 5.9514 7.4072 6.07236 7.19806C6.19333 6.98888 6.37543 6.82167 6.59447 6.71931C6.82933 6.60956 7.06733 6.60874 7.21743 6.60874ZM9.56525 7.47828H7.21743C7.06318 7.47828 7.00397 7.48778 6.96258 7.50713C6.90533 7.53385 6.85725 7.57781 6.82511 7.63338C6.79297 7.68899 6.77843 7.75342 6.78372 7.81792C6.78675 7.85488 6.80183 7.89717 6.89072 8.04378C6.89258 8.04685 6.8944 8.04995 6.89618 8.05306L9.56525 12.7137V7.47828ZM10.4348 7.47828V12.7368L13.1657 8.04567C13.1965 7.98967 13.2174 7.90874 13.2174 7.8261C13.2174 7.75906 13.2035 7.70085 13.1725 7.64085C13.1399 7.59395 13.12 7.56913 13.1034 7.55213C13.0891 7.5376 13.0782 7.52981 13.0627 7.5226C12.9981 7.49249 12.932 7.47828 12.8261 7.47828H10.4348Z"
      fill="white"
    />
</g>
<defs>
<clipPath id="clip0_9_2">
<rect width="20" height="20" fill="white" />
</clipPath>
</defs>
</svg>
