<svg
  width="40"
  height="40"
  viewBox="0 0 40 40"
  fill="none"
  xmlns="http://www.w3.org/2000/svg"
>
<path
    d="M20 39.9999C31.0457 39.9999 40 31.0456 40 19.9999C40 8.95418 31.0457 -0.00012207 20 -0.00012207C8.9543 -0.00012207 0 8.95418 0 19.9999C0 31.0456 8.9543 39.9999 20 39.9999Z"
    fill="#0088CC"
  />
<path
    fill-rule="evenodd"
    clip-rule="evenodd"
    d="M14.4369 13.212H25.6542C26.0511 13.212 26.4477 13.2703 26.8621 13.4635C27.3589 13.695 27.6224 14.0602 27.8069 14.33C27.8212 14.351 27.8347 14.3727 27.8471 14.3948C28.0641 14.7812 28.176 15.1982 28.176 15.6468C28.176 16.0732 28.0745 16.5375 27.8471 16.9423C27.845 16.9462 27.8427 16.95 27.8405 16.9539L20.7535 29.1278C20.5972 29.3963 20.3096 29.561 19.999 29.5599C19.6884 29.5588 19.4019 29.392 19.2475 29.1225L12.2906 16.9745C12.2886 16.9713 12.2866 16.9679 12.2846 16.9647C12.1254 16.7023 11.8792 16.2965 11.8361 15.7729C11.7965 15.2915 11.9047 14.809 12.1467 14.3908C12.3886 13.9724 12.7529 13.638 13.1909 13.4333C13.6606 13.2138 14.1366 13.212 14.4369 13.212ZM19.1325 14.9512H14.4369C14.1284 14.9512 14.0099 14.9702 13.9271 15.0089C13.8126 15.0623 13.7165 15.1502 13.6522 15.2614C13.5879 15.3727 13.5589 15.5015 13.5694 15.6304C13.5755 15.7044 13.6056 15.789 13.7834 16.0822C13.7871 16.0883 13.7907 16.0945 13.7944 16.1008L19.1325 25.4222V14.9512ZM20.8716 14.9512V25.4682L26.3334 16.086C26.395 15.974 26.4369 15.8122 26.4369 15.6468C26.4369 15.5128 26.409 15.3963 26.3469 15.2763C26.2817 15.1825 26.242 15.1329 26.2087 15.0989C26.1802 15.0698 26.1584 15.0543 26.1274 15.0398C25.9982 14.9797 25.866 14.9512 25.6542 14.9512H20.8716Z"
    fill="white"
  />
</svg>
