<svg width="40" height="40" viewBox="0 0 40 40" fill="none" xmlns="http://www.w3.org/2000/svg">
<path fill-rule="evenodd" clip-rule="evenodd" d="M11.344 7.04714L19.893 0L11.8061 7.85583L20.8172 1.03974L11.8061 9.24215L21.9724 1.96396L13.6545 10.3974L24.1675 2.65712L14.4632 11.3216L24.9761 3.46581L15.3874 12.4769L25.9004 4.27449L16.3116 13.2856L26.8246 5.19871L17.1203 14.2098L27.7488 6.23845L18.0445 15.0185L28.5575 7.04714L18.8532 16.0582C18.8532 16.0582 29.0196 8.43346 29.0196 8.54899L19.6619 17.098C19.6619 17.098 28.673 10.1664 28.673 10.2819L20.7016 17.6756L27.8643 12.2458L21.7414 18.5998L32.6009 10.0508L22.6656 19.4085L33.5251 10.8595L23.4743 20.2172L34.4493 11.7837L24.514 21.1414L35.3736 12.708L25.4382 22.0656L36.2978 13.6322L26.3625 22.7588L37.1065 14.4409L27.1712 23.683L37.9151 15.4806L28.0954 24.6072L38.8394 16.4048L28.7885 25.647C28.7885 25.647 39.5325 17.329 39.5325 17.4446L29.5972 26.8022C29.5972 26.8022 39.9946 18.9464 39.9946 19.0619L29.7127 28.073L39.8791 20.5638V20.7948L29.8283 29.5749C29.8283 29.5749 39.5325 22.6433 39.5325 22.7588L27.8643 32.5786C28.673 30.7301 28.9041 26.5712 27.1712 25.3004L12.2682 12.0148C9.72659 9.35767 11.344 7.04714 11.344 7.04714ZM23.9364 28.3041L8.80238 14.5564C8.4558 14.0988 7.77541 12.8373 8.43515 10.195C8.51786 9.86376 8.6059 9.51114 8.68685 9.12662C7.81457 10.0552 6.59961 10.9152 5.35413 11.7968C1.48605 14.5349 -2.67642 17.4814 2.21735 23.3364L19.7774 39.3947C20.2236 38.9485 20.7694 38.4917 21.3436 38.0111C24.0408 35.7537 27.3653 32.9712 23.9364 28.3041Z" fill="#09A543"/>
</svg>
