<svg width="20" height="20" viewBox="0 0 20 20" fill="none" xmlns="http://www.w3.org/2000/svg">
<path d="M5.31702 8.01568C4.9633 7.41405 4.65047 6.85944 4.3131 6.32067C4.17918 6.1065 4.1756 5.94702 4.30901 5.72415C5.20099 4.23412 6.07865 2.73488 6.95376 1.23463C7.05088 1.06799 7.15362 0.999492 7.35349 1C9.15891 1.00869 10.9643 1.00716 12.7703 1C12.9497 0.999492 13.0427 1.06288 13.1301 1.21316C14.0272 2.74971 14.9294 4.28319 15.8382 5.81309C15.9303 5.96848 15.9236 6.08554 15.8347 6.23224C15.5305 6.73471 15.2356 7.24281 14.9376 7.74886C14.8962 7.81991 14.8599 7.89403 14.7955 8.01466C14.9258 8.01466 15.0148 8.01466 15.1032 8.01466C15.6992 8.01466 16.2957 8.01977 16.8917 8.01159C17.04 8.00955 17.1192 8.06169 17.1928 8.18743C18.1037 9.74545 19.0182 11.3014 19.9372 12.8548C20.0165 12.9883 20.0236 13.089 19.9418 13.227C19.0264 14.7722 18.116 16.3205 17.2102 17.8714C17.1259 18.0155 17.0272 18.0651 16.8626 18.0646C15.0485 18.0595 13.2344 18.059 11.4203 18.0661C11.2404 18.0666 11.1448 18.0027 11.0594 17.853C10.7225 17.2636 10.3739 16.6814 10.0044 16.0532C9.87913 16.2597 9.77434 16.4289 9.67313 16.6006C9.42266 17.0259 9.1814 17.4573 8.91815 17.8744C8.86243 17.9629 8.72646 18.0528 8.6273 18.0533C6.78763 18.0636 4.94796 18.0595 3.1083 18.0631C2.96415 18.0631 2.87981 18.0191 2.80467 17.8903C1.89429 16.3318 0.978801 14.7768 0.0602452 13.2234C-0.0123396 13.1007 -0.0246075 13.0056 0.0525778 12.8748C0.980846 11.307 1.90042 9.73472 2.83278 8.16903C2.87981 8.09031 3.01629 8.02386 3.1129 8.02182C3.73447 8.00853 4.35604 8.01466 4.97812 8.01415C5.07064 8.01415 5.16265 8.01415 5.31753 8.01415L5.31702 8.01568ZM12.7897 1.97734C12.7375 2.04328 12.7135 2.06731 12.6966 2.09542C11.9534 3.35748 11.2087 4.61851 10.4746 5.88568C10.4327 5.95826 10.4409 6.10088 10.4849 6.17704C11.0292 7.12166 11.5833 8.05964 12.1364 8.99916C12.3424 9.34879 12.5515 9.69587 12.7728 10.0675C12.8173 10.0061 12.8439 9.97547 12.8638 9.94123C13.6024 8.68633 14.338 7.42989 15.0817 6.17806C15.163 6.04158 15.1303 5.94651 15.0613 5.82996C14.6273 5.09747 14.1974 4.36191 13.765 3.62839C13.4465 3.08758 13.1265 2.54729 12.7892 1.97734H12.7897ZM16.8805 8.99916C16.836 9.05641 16.813 9.07992 16.7967 9.10701C16.0534 10.368 15.3082 11.6281 14.5747 12.8947C14.5292 12.9734 14.5399 13.1278 14.5879 13.2106C15.3082 14.4558 16.0386 15.6943 16.7686 16.9339C16.7951 16.9794 16.8376 17.0157 16.8769 17.0612C16.9081 17.0244 16.9275 17.007 16.9403 16.9855C17.6876 15.7173 18.437 14.4497 19.1756 13.1764C19.217 13.1043 19.2027 12.9632 19.1593 12.885C18.8945 12.4091 18.6144 11.9419 18.3378 11.4727C17.8594 10.6594 17.3794 9.84615 16.8805 8.99865V8.99916ZM9.2504 13.4008C9.28312 13.4739 9.29692 13.5137 9.31839 13.55C10.0427 14.7819 10.765 16.0148 11.4985 17.2411C11.546 17.3209 11.6825 17.3904 11.7781 17.3914C13.1991 17.4006 14.6201 17.398 16.0412 17.3965C16.0943 17.3965 16.1475 17.3786 16.2165 17.3663C16.1853 17.2989 16.1685 17.2513 16.1434 17.2089C15.4288 15.9913 14.7111 14.7753 14.0016 13.5546C13.9199 13.4135 13.8212 13.3818 13.6714 13.3818C12.276 13.3859 10.8805 13.3834 9.48451 13.3839C9.41857 13.3839 9.35263 13.3931 9.2504 13.4008ZM12.1558 1.66656C11.9964 1.66656 11.9038 1.66656 11.8108 1.66656C10.4649 1.66656 9.11903 1.67167 7.77315 1.66042C7.55386 1.65838 7.43936 1.73607 7.33355 1.91907C6.72425 2.97308 6.10267 4.02045 5.48673 5.07038C5.37274 5.26513 5.26437 5.46346 5.13096 5.6991C5.25773 5.6991 5.33184 5.6991 5.40596 5.6991C6.77741 5.6991 8.14885 5.69399 9.5203 5.70524C9.73089 5.70677 9.8413 5.63214 9.94149 5.45937C10.5825 4.35475 11.2322 3.25524 11.8783 2.15369C11.9626 2.00955 12.0439 1.86335 12.1558 1.66656ZM0.970622 13.4043C1.00436 13.4744 1.02225 13.5199 1.04679 13.5618C1.75321 14.7656 2.46423 15.9668 3.16401 17.1747C3.26267 17.3444 3.37308 17.4042 3.56783 17.4031C4.95563 17.395 6.34343 17.3991 7.73123 17.398C7.79462 17.398 7.858 17.3853 7.93621 17.3771C7.91883 17.3239 7.91372 17.2902 7.89787 17.2626C7.16896 16.0225 6.4426 14.7814 5.70295 13.548C5.65234 13.4636 5.50462 13.3926 5.40136 13.3921C4.00487 13.3818 2.60889 13.3849 1.2124 13.3854C1.13931 13.3854 1.06621 13.3967 0.970622 13.4043ZM7.9725 8.6945C7.83347 8.6945 7.75884 8.6945 7.6837 8.6945C6.31327 8.6945 4.94285 8.69859 3.57243 8.68735C3.36183 8.68581 3.25091 8.76044 3.15072 8.93322C2.55318 9.96372 1.94643 10.9886 1.34377 12.016C1.217 12.2317 1.09432 12.4495 0.961933 12.679C1.02736 12.6923 1.05241 12.7015 1.07694 12.7015C2.53222 12.7025 3.988 12.7071 5.44328 12.6954C5.53989 12.6943 5.67023 12.5931 5.72544 12.5027C6.1589 11.7906 6.57754 11.0699 7.00027 10.3512C7.31413 9.81804 7.62645 9.28387 7.97199 8.6945H7.9725ZM8.59203 17.1062C8.91304 16.5618 9.20031 16.0603 9.50394 15.5691C9.59544 15.4214 9.57755 15.3151 9.49371 15.1755C9.10779 14.534 8.73617 13.8838 8.34923 13.2423C8.26437 13.1012 8.25415 12.9975 8.34463 12.8502C8.6825 12.2992 8.97847 11.7206 9.34088 11.1864C9.5755 10.8409 9.58368 10.5725 9.34241 10.2326C9.07047 9.84922 8.85323 9.427 8.60021 9.0012C8.55573 9.05743 8.53222 9.08094 8.51586 9.10855C7.77315 10.3696 7.02788 11.6291 6.29487 12.8957C6.24938 12.9745 6.25909 13.1278 6.30612 13.2106C6.68744 13.8843 7.08359 14.5499 7.47616 15.2169C7.83807 15.8313 8.20099 16.4447 8.59152 17.1057L8.59203 17.1062ZM5.12585 6.35441C5.43459 6.87886 5.72084 7.34811 5.98766 7.82809C6.07201 7.97939 6.17168 8.01977 6.33321 8.01824C7.0565 8.01108 7.77979 8.02744 8.50257 8.00853C8.74435 8.00188 8.86754 8.09236 8.97795 8.29018C9.28925 8.84683 9.6348 9.38406 9.9328 9.94736C10.103 10.2689 10.2988 10.4197 10.6832 10.3844C11.1524 10.342 11.6278 10.3742 12.1517 10.3742C12.0843 10.2495 12.0444 10.1692 11.9989 10.0925C11.3048 8.91277 10.6055 7.73557 9.91951 6.5507C9.82699 6.39121 9.72323 6.35032 9.55454 6.35134C8.65286 6.35748 7.75066 6.35441 6.84897 6.35441C6.29641 6.35441 5.74435 6.35441 5.12483 6.35441H5.12585ZM9.23609 12.6816C9.32605 12.6923 9.3741 12.7025 9.42164 12.7025C10.8524 12.7035 12.2831 12.7076 13.7139 12.6959C13.812 12.6948 13.9469 12.6008 14.0006 12.5113C14.7173 11.3132 15.4222 10.1084 16.1291 8.90459C16.1613 8.8499 16.1823 8.78856 16.2252 8.69399C15.6639 8.69399 15.1385 8.70268 14.6135 8.68939C14.432 8.68479 14.3385 8.75482 14.2531 8.90408C13.8846 9.54661 13.5002 10.1799 13.1337 10.8235C13.0427 10.9835 12.941 11.0484 12.7529 11.0453C12.1057 11.0336 11.4561 11.075 10.812 11.0295C10.3504 10.9968 10.0734 11.1297 9.88271 11.5601C9.713 11.9429 9.46509 12.2915 9.23558 12.6821L9.23609 12.6816Z" fill="url(#paint0_linear_39_8)"/>
<defs>
<linearGradient id="paint0_linear_39_8" x1="10" y1="1" x2="10" y2="18.0661" gradientUnits="userSpaceOnUse">
<stop stop-color="#2E93F0"/>
<stop offset="1" stop-color="#177AD5"/>
</linearGradient>
</defs>
</svg>
