<svg width="32" height="32" viewBox="0 0 32 32" fill="none" xmlns="http://www.w3.org/2000/svg">
<g clip-path="url(#clip0_3231_2614)">
<path d="M16 32C24.8366 32 32 24.8366 32 16C32 7.16344 24.8366 0 16 0C7.16344 0 0 7.16344 0 16C0 24.8366 7.16344 32 16 32Z" fill="#FF3F00"/>
<path d="M14.0825 9.69343C14.0576 9.69343 14.041 9.14197 14.041 8.18003V6.66663H11.6705V10.5932L11.475 10.6595C11.2713 10.7259 10.2441 11.0949 9.67433 11.3063L9.36242 11.4224L9.34163 12.6166C9.32915 13.2717 9.33331 13.8149 9.34995 13.8231C9.37074 13.8397 11.1881 13.1971 11.5374 13.0519C11.5915 13.0271 11.6414 13.0105 11.6539 13.0105C11.6622 13.0105 11.6663 13.338 11.6622 13.7444L11.6497 14.4741L10.8304 14.7768C10.6085 14.8567 10.3693 14.9437 10.1615 15.0193C9.9488 15.0966 9.76899 15.162 9.67433 15.1956L9.33331 15.3158L9.34163 16.5141C9.34163 17.1734 9.34995 17.7165 9.35411 17.7207C9.35827 17.7248 9.64522 17.6253 9.98623 17.5009C10.689 17.2438 11.6331 16.908 11.658 16.908C11.6622 16.908 11.6705 18.8029 11.6705 21.1206V25.3333L12.8682 25.3126C13.7956 25.296 14.1616 25.2711 14.5192 25.2089C15.4508 25.0431 16.2867 24.786 17.1309 24.4128C19.7051 23.2601 21.7553 21.0045 22.6703 18.3177C22.8616 17.7497 22.8699 17.7041 22.7867 17.6792C22.2918 17.5299 20.6741 17.1153 20.6242 17.1236C20.5867 17.1319 20.5036 17.3185 20.4038 17.6087C19.8548 19.2216 18.7486 20.6521 17.3055 21.6141C16.4114 22.207 15.1555 22.717 14.2156 22.8579L14.041 22.887L14.0493 19.458L14.0618 16.029L14.436 15.8922C14.8035 15.7561 15.7541 15.4115 16.9186 14.9894C17.1378 14.9099 17.3647 14.8277 17.5966 14.7436C18.1705 14.5363 18.653 14.3539 18.6737 14.3373C18.707 14.3041 18.7236 11.9863 18.6862 11.949C18.6696 11.9324 18.3369 12.0485 17.3055 12.43C16.7108 12.6497 14.1782 13.5661 14.1158 13.5827C14.0451 13.5992 14.041 13.5453 14.041 12.8736V12.148L14.1574 12.1066C14.2198 12.0817 14.7937 11.8702 15.4341 11.6422C16.0746 11.41 16.9437 11.0949 17.3679 10.9373L17.3983 10.9263C17.8143 10.7759 18.2657 10.6126 18.4159 10.56L18.6945 10.4646L18.707 9.28294C18.7153 8.63197 18.7153 8.08466 18.707 8.06808C18.6945 8.03905 18.3868 8.14271 17.1184 8.6071C15.4133 9.22904 14.12 9.69343 14.0825 9.69343Z" fill="#FEFEFE"/>
</g>
<defs>
<clipPath id="clip0_3231_2614">
<rect width="32" height="32" fill="white"/>
</clipPath>
</defs>
</svg>
