<svg width="40" height="40" viewBox="0 0 40 40" fill="none" xmlns="http://www.w3.org/2000/svg">
<path fill-rule="evenodd" clip-rule="evenodd" d="M35.6622 26.6453L19.9791 11.0445L4.20343 26.6504H3.16921L19.9688 10L36.7118 26.6453H35.6622ZM19.9181 12.3667L20.1651 12.6034L34.4588 26.6502H33.4864L19.9284 13.334L6.42694 26.6502H5.46476L19.6763 12.6085L19.9181 12.3667ZM40 29.9796L38.2146 28.1684H1.83175L0 29.995L40 29.9796ZM14.582 26.5989V26.5886C14.3865 26.1719 14.3299 25.9455 14.3299 25.3897V22.3128L14.8239 22.3386C15.0759 22.3556 15.4415 22.8765 15.741 23.3031L15.741 23.3032C15.8022 23.3903 15.8606 23.4735 15.9147 23.5477L16.0073 23.5168L15.7603 22.1327H12.0042L11.7624 23.5168L11.8499 23.5477C11.8889 23.4932 11.9307 23.4339 11.9746 23.3717L11.9746 23.3717C12.2825 22.9346 12.6897 22.3566 12.9509 22.3386L13.4449 22.3128V25.3897C13.4449 25.9455 13.3831 26.1719 13.1876 26.5886V26.5989H14.582ZM23.1798 24.0313L22.9637 25.8424C22.6807 26.0585 21.5178 26.6039 20.1955 26.6039C17.8543 26.6039 16.4188 24.8957 16.4188 22.7192C16.4188 20.5427 18.0138 18.855 20.4167 18.855C21.4458 18.855 22.4028 19.138 22.9174 19.3541L23.1437 21.0109L23.0203 21.0418C22.2073 19.7092 21.5127 19.1689 20.3241 19.1689C18.2917 19.1689 17.3861 20.6867 17.3861 22.7192C17.3861 24.7516 18.2711 26.2901 20.2057 26.2901C21.6825 26.2901 22.4543 25.405 23.0666 24.0004L23.1798 24.0313ZM25.0321 26.6041C26.326 26.6041 26.9333 25.9995 26.9359 25.2148C26.9359 25.2165 26.9359 25.2182 26.9359 25.22V25.2096C26.9359 25.2113 26.9359 25.2131 26.9359 25.2148C26.9337 24.5534 26.5104 24.021 25.1351 24.021H24.6205V22.3025L25.5261 22.3488C25.7268 22.36 26.0214 22.7013 26.2898 23.0121C26.393 23.1317 26.4923 23.2467 26.5809 23.3368L26.6735 23.3059L26.4368 22.1327H23.4886V22.143C23.6841 22.5598 23.7458 22.7913 23.7458 23.347V25.3897C23.7458 25.9506 23.6841 26.177 23.4886 26.5937V26.6041H25.0321ZM24.6205 24.2114H24.9498C25.6084 24.2114 26.0252 24.4996 26.0252 25.22C26.0252 25.8168 25.7371 26.4034 24.9447 26.4034C24.8572 26.4034 24.7492 26.4034 24.6205 26.3931V24.2114Z" fill="#A38959"/>
</svg>
