<svg version="1.1" id="Layer_1" xmlns="http://www.w3.org/2000/svg" xmlns:xlink="http://www.w3.org/1999/xlink" x="0px" y="0px"
	 width="100%" viewBox="0 0 225 225" enable-background="new 0 0 225 225" xml:space="preserve">
<path fill="#FEFEFE" opacity="1.000000" stroke="none" 
	d="
M105.000000,226.000000 
	C70.000000,226.000000 35.500004,226.000000 1.000005,226.000000 
	C1.000003,151.000000 1.000003,76.000015 1.000002,1.000015 
	C75.999992,1.000010 150.999985,1.000010 225.999969,1.000005 
	C225.999985,75.999985 225.999985,150.999969 226.000000,225.999969 
	C185.833328,226.000000 145.666672,226.000000 105.000000,226.000000 
M194.862106,146.178726 
	C192.537170,143.307846 190.154480,140.481552 187.897690,137.558075 
	C179.871262,127.160515 171.948853,116.682182 163.871902,106.324219 
	C154.468613,94.265297 145.019928,82.239777 135.424988,70.333496 
	C132.651367,66.891724 129.733398,61.927208 126.130455,61.152008 
	C119.677200,59.763550 112.654076,61.023743 105.169861,61.082039 
	C103.787178,61.502117 101.881050,61.485096 101.106339,62.412857 
	C95.878677,68.673256 90.892731,75.135406 85.824753,81.529243 
	C67.721016,104.369194 49.592636,127.189758 31.579641,150.101044 
	C30.682871,151.241653 29.952909,153.720276 30.560841,154.631729 
	C33.461002,158.979965 36.850613,163.001755 39.790695,166.785187 
	C41.014332,165.876511 41.812180,165.284012 42.996220,165.478592 
	C44.432293,165.990402 45.867443,166.946487 47.304577,166.949478 
	C91.579765,167.041748 135.855164,167.054321 180.130432,166.996582 
	C181.661209,166.994583 183.714905,166.620575 184.630783,165.609818 
	C188.699905,161.119156 192.442856,156.332977 196.951355,150.868774 
	C157.330383,150.868774 118.585732,150.868774 79.841080,150.868774 
	C79.646065,150.433380 79.451050,149.997971 79.256035,149.562576 
	C81.211174,148.084335 83.166313,146.606110 84.976128,145.647232 
	C84.951836,146.002930 84.927544,146.358643 84.225952,147.083557 
	C82.462204,151.663208 86.424629,149.169403 87.280205,149.172821 
	C122.659988,149.314529 158.040436,149.294296 193.420792,149.294403 
	C194.514450,149.294403 195.608109,149.294403 197.982208,149.294403 
	C196.405334,147.971542 195.734070,147.408417 194.862106,146.178726 
z"/>
<path fill="#D1D6DA" opacity="1.000000" stroke="none" 
	d="
M85.121452,145.127869 
	C83.166313,146.606110 81.211174,148.084335 79.256035,149.562576 
	C79.451050,149.997971 79.646065,150.433380 79.841080,150.868774 
	C118.585732,150.868774 157.330383,150.868774 196.951355,150.868774 
	C192.442856,156.332977 188.699905,161.119156 184.630783,165.609818 
	C183.714905,166.620575 181.661209,166.994583 180.130432,166.996582 
	C135.855164,167.054321 91.579765,167.041748 47.304577,166.949478 
	C45.867443,166.946487 44.432293,165.990402 42.849609,165.103455 
	C42.702995,164.728333 42.741806,164.819977 43.136963,164.871765 
	C44.334484,163.498764 45.136848,162.073959 45.969208,160.412628 
	C46.455231,159.760330 46.911251,159.344574 47.751205,158.942169 
	C48.782139,158.309174 49.429134,157.662827 50.454277,156.931488 
	C51.197792,155.693375 51.563171,154.540222 51.954456,153.108551 
	C52.613964,152.170212 53.247566,151.510406 54.091198,151.129608 
	C54.846836,150.409988 55.392441,149.411362 55.921795,148.264679 
	C55.905540,148.116608 56.167583,147.974869 56.489830,147.927124 
	C57.199760,147.204300 57.587444,146.529251 58.019012,145.609375 
	C58.219101,145.039246 58.474804,144.844681 59.037968,145.070709 
	C59.801083,144.364746 60.356232,143.368927 60.915001,142.130875 
	C61.264915,141.575043 61.611214,141.261459 62.081459,141.134064 
	C62.349064,141.358536 62.492718,141.396805 62.636375,141.435074 
	C62.592728,141.159195 62.549080,140.883316 62.541916,140.615112 
	C62.578400,140.622787 62.643963,140.587280 63.052483,140.686798 
	C63.950741,139.653839 64.440475,138.521347 64.965881,137.108948 
	C65.879776,135.860779 66.758011,134.892532 68.000549,133.942657 
	C69.186142,132.893402 70.007423,131.825775 70.861603,130.801300 
	C70.894501,130.844482 70.788277,130.866882 71.070724,130.817520 
	C71.529556,130.446671 71.705933,130.125168 71.754593,129.805161 
	C71.626862,129.806641 71.593353,129.553360 72.004982,129.668015 
	C72.921196,128.651489 73.425774,127.520302 73.983078,126.082291 
	C75.688179,123.856415 77.340553,121.937355 79.162415,120.182205 
	C79.546112,119.848175 79.760315,119.350227 80.022865,118.610474 
	C80.248375,118.062614 80.511276,117.879974 81.014908,118.082184 
	C81.661949,118.271484 82.154007,118.199333 82.646057,118.127182 
	C82.331833,117.675713 82.017616,117.224236 81.792435,116.475494 
	C82.573784,115.435104 83.266090,114.691978 84.082222,114.134964 
	C84.349686,114.359123 84.493317,114.397156 84.636940,114.435196 
	C84.593102,114.159477 84.549263,113.883759 84.541992,113.615837 
	C84.578568,113.623634 84.642952,113.585594 85.051071,113.686096 
	C85.950874,112.655602 86.442558,111.524597 86.981819,110.114502 
	C87.913971,108.867485 88.798546,107.899559 90.060181,106.944946 
	C90.880928,106.218643 91.324623,105.479034 91.816467,104.772758 
	C91.864624,104.806091 91.768074,104.872421 92.056870,104.819550 
	C92.516670,104.435310 92.687668,104.103951 92.874222,103.826996 
	C92.889786,103.881409 92.778206,103.862366 93.062286,103.815033 
	C93.525322,103.446030 93.704285,103.124374 93.750977,102.794281 
	C93.618706,102.785843 93.599342,102.521484 93.976929,102.659653 
	C94.827721,101.787560 95.300926,100.777298 95.817429,99.796677 
	C95.860718,99.826324 95.770554,99.880020 96.059776,99.825699 
	C96.519966,99.437996 96.690941,99.104614 96.765808,98.808945 
	C96.669708,98.846657 96.596230,98.653709 96.818054,98.725197 
	C97.180191,98.744926 97.320488,98.693176 97.460785,98.641426 
	C97.299286,98.417686 97.137787,98.193939 97.075851,97.660782 
	C98.188507,96.222206 99.201599,95.093048 100.528831,93.914284 
	C101.222908,93.206757 101.602844,92.548828 102.038910,91.638794 
	C102.378502,91.232567 102.661964,91.078453 103.129623,91.209335 
	C103.735199,91.647682 104.156586,91.801033 104.815369,92.109077 
	C105.691925,93.178452 106.331078,94.093132 106.821060,95.071808 
	C106.777367,95.101921 106.882851,95.068031 107.261467,95.193344 
	C108.381844,96.550667 109.229073,97.748802 109.878502,99.060944 
	C109.930527,99.313377 110.180344,99.451805 110.424393,99.618629 
	C110.418617,99.647034 110.367821,99.674927 110.266060,100.040237 
	C110.868568,100.868828 111.572845,101.332092 112.253502,101.839188 
	C112.229889,101.883018 112.185799,101.793739 112.100723,102.173050 
	C111.528259,104.738518 111.510269,107.193855 110.446220,109.049324 
	C108.744972,112.015938 106.184135,114.475006 104.284157,117.345528 
	C101.077583,122.190071 98.103699,127.188629 95.014427,132.338257 
	C94.922531,132.882416 94.717522,133.059464 93.987770,133.064880 
	C92.795219,134.450516 91.996758,135.856476 91.198532,137.200119 
	C91.198776,137.137787 91.304855,137.203293 90.916504,137.139557 
	C89.752724,138.473053 88.977295,139.870300 88.199203,141.204712 
	C88.196541,141.141891 88.305748,141.204285 87.920654,141.138031 
	C86.719315,142.433670 85.903076,143.795563 85.074173,145.125275 
	C85.061501,145.093079 85.121452,145.127869 85.121452,145.127869 
z"/>
<path fill="#04A153" opacity="1.000000" stroke="none" 
	d="
M83.958389,113.948853 
	C83.266090,114.691978 82.573784,115.435104 81.586472,116.588440 
	C81.064438,117.229027 80.920593,117.503052 80.859909,117.820732 
	C80.511276,117.879974 80.248375,118.062614 79.806213,118.757843 
	C79.358452,119.437462 79.175682,119.727875 78.992920,120.018295 
	C77.340553,121.937355 75.688179,123.856415 73.687538,126.273254 
	C72.757294,127.698471 72.175323,128.625916 71.593353,129.553360 
	C71.593353,129.553360 71.626862,129.806641 71.409302,129.719986 
	C71.057251,130.044510 70.922760,130.455704 70.788277,130.866882 
	C70.788277,130.866882 70.894501,130.844482 70.526566,130.795624 
	C69.317841,131.805939 68.477043,132.865112 67.636246,133.924271 
	C66.758011,134.892532 65.879776,135.860779 64.672699,137.297760 
	C63.777233,138.706757 63.210598,139.647018 62.643967,140.587280 
	C62.643963,140.587280 62.578400,140.622787 62.358826,140.614899 
	C62.139252,140.607025 61.957508,140.947861 61.957512,140.947861 
	C61.611214,141.261459 61.264915,141.575043 60.627136,142.283600 
	C59.833771,143.379333 59.331890,144.080109 58.830002,144.780884 
	C58.474804,144.844681 58.219101,145.039246 57.784523,145.768951 
	C57.059967,146.773849 56.613777,147.374359 56.167587,147.974869 
	C56.167583,147.974869 55.905540,148.116608 55.654228,148.450348 
	C54.895660,149.472916 54.388409,150.161758 53.881161,150.850601 
	C53.247566,151.510406 52.613964,152.170212 51.665901,153.291153 
	C50.569996,154.835571 49.788551,155.918854 48.717751,157.152863 
	C48.074688,157.845322 47.720982,158.387070 47.367275,158.928802 
	C46.911251,159.344574 46.455231,159.760330 45.694260,160.609344 
	C44.506813,162.301712 43.624310,163.560837 42.741806,164.819977 
	C42.741806,164.819977 42.702995,164.728333 42.656513,164.709930 
	C41.812180,165.284012 41.014332,165.876511 39.790695,166.785187 
	C36.850613,163.001755 33.461002,158.979965 30.560841,154.631729 
	C29.952909,153.720276 30.682871,151.241653 31.579641,150.101044 
	C49.592636,127.189758 67.721016,104.369194 85.824753,81.529243 
	C90.892731,75.135406 95.878677,68.673256 101.106339,62.412857 
	C101.881050,61.485096 103.787178,61.502117 105.638733,61.441422 
	C122.688965,82.906174 139.270325,104.011551 155.833176,125.509766 
	C156.116364,126.799942 156.418060,127.697289 156.832581,128.930222 
	C150.466690,128.930222 144.356720,128.751114 138.264923,129.006195 
	C135.243347,129.132721 133.466934,127.998634 131.663696,125.713600 
	C125.294655,117.642784 118.696861,109.752480 112.185799,101.793739 
	C112.185799,101.793739 112.229889,101.883018 112.156860,101.550117 
	C111.511833,100.703117 110.939827,100.189026 110.367821,99.674927 
	C110.367821,99.674927 110.418617,99.647034 110.413162,99.419220 
	C110.407715,99.191399 110.076302,98.946945 110.076302,98.946945 
	C109.229073,97.748802 108.381844,96.550667 107.269348,95.177719 
	C107.004082,95.002914 106.970238,95.007812 106.970238,95.007812 
	C106.331078,94.093132 105.691925,93.178452 104.615997,91.802177 
	C103.767967,91.201836 103.356705,91.063087 102.945435,90.924332 
	C102.661964,91.078453 102.378502,91.232567 101.802803,91.784546 
	C101.078613,92.776230 100.646645,93.370049 100.214691,93.963882 
	C99.201599,95.093048 98.188507,96.222206 96.910553,97.792725 
	C96.645691,98.234070 96.596230,98.653709 96.596230,98.653709 
	C96.596230,98.653709 96.669708,98.846657 96.453705,98.809952 
	C96.081985,99.142174 95.926270,99.511101 95.770554,99.880020 
	C95.770554,99.880020 95.860718,99.826324 95.523590,99.911880 
	C94.657425,100.838783 94.128387,101.680138 93.599342,102.521484 
	C93.599342,102.521484 93.618706,102.785843 93.410118,102.707260 
	C93.060417,103.039909 92.919312,103.451141 92.778206,103.862366 
	C92.778206,103.862366 92.889786,103.881409 92.555420,103.812790 
	C92.070061,104.120247 91.919067,104.496330 91.768066,104.872421 
	C91.768074,104.872421 91.864624,104.806091 91.518608,104.863472 
	C90.676102,105.591118 90.179619,106.261383 89.683128,106.931641 
	C88.798546,107.899559 87.913971,108.867485 86.691109,110.306946 
	C85.782867,111.714195 85.212914,112.649895 84.642960,113.585594 
	C84.642952,113.585594 84.578568,113.623634 84.359055,113.615837 
	C84.139542,113.608040 83.958397,113.948853 83.958389,113.948853 
z"/>
<path fill="#1D2027" opacity="1.000000" stroke="none" 
	d="
M155.851685,125.116928 
	C139.270325,104.011551 122.688965,82.906174 105.988373,61.488838 
	C112.654076,61.023743 119.677200,59.763550 126.130455,61.152008 
	C129.733398,61.927208 132.651367,66.891724 135.424988,70.333496 
	C145.019928,82.239777 154.468613,94.265297 163.871902,106.324219 
	C171.948853,116.682182 179.871262,127.160515 187.897690,137.558075 
	C190.154480,140.481552 192.537170,143.307846 194.688263,146.839844 
	C193.714096,147.664764 192.913864,147.971252 192.113419,147.971848 
	C157.714188,147.997116 123.314919,148.009598 88.915810,147.942429 
	C87.577492,147.939819 86.240738,147.141754 84.903252,146.714340 
	C84.927544,146.358643 84.951836,146.002930 85.048790,145.387543 
	C85.121452,145.127869 85.061501,145.093079 85.369179,144.984299 
	C86.553154,143.651779 87.429451,142.428040 88.305756,141.204285 
	C88.305748,141.204285 88.196541,141.141891 88.475594,141.034698 
	C89.604713,139.686081 90.454781,138.444687 91.304855,137.203293 
	C91.304855,137.203293 91.198776,137.137787 91.476547,137.020477 
	C92.630157,135.630508 93.506004,134.357864 94.381851,133.085220 
	C94.717522,133.059464 94.922531,132.882416 95.188744,132.254913 
	C95.380600,131.955734 95.766167,131.930267 96.249176,131.954803 
	C116.142319,131.987015 135.552582,132.025055 154.962387,131.948273 
	C156.623718,131.941696 158.282043,131.171860 159.879272,130.429291 
	C158.495087,128.440292 157.173386,126.778610 155.851685,125.116928 
z"/>
<path fill="#010212" opacity="1.000000" stroke="none" 
	d="
M84.564606,146.898956 
	C86.240738,147.141754 87.577492,147.939819 88.915810,147.942429 
	C123.314919,148.009598 157.714188,147.997116 192.113419,147.971848 
	C192.913864,147.971252 193.714096,147.664764 194.788605,147.173126 
	C195.734070,147.408417 196.405334,147.971542 197.982208,149.294403 
	C195.608109,149.294403 194.514450,149.294403 193.420792,149.294403 
	C158.040436,149.294296 122.659988,149.314529 87.280205,149.172821 
	C86.424629,149.169403 82.462204,151.663208 84.564606,146.898956 
z"/>
<path fill="#F3F4F4" opacity="1.000000" stroke="none" 
	d="
M155.833176,125.509766 
	C157.173386,126.778610 158.495087,128.440292 159.414429,130.429718 
	C139.584229,130.756134 120.156250,130.726318 100.728714,130.804565 
	C99.073044,130.811249 97.420280,131.538025 95.766167,131.930267 
	C95.766167,131.930267 95.380600,131.955734 95.206284,132.039078 
	C98.103699,127.188629 101.077583,122.190071 104.284157,117.345528 
	C106.184135,114.475006 108.744972,112.015938 110.446220,109.049324 
	C111.510269,107.193855 111.528259,104.738518 112.100723,102.173050 
	C118.696861,109.752480 125.294655,117.642784 131.663696,125.713600 
	C133.466934,127.998634 135.243347,129.132721 138.264923,129.006195 
	C144.356720,128.751114 150.466690,128.930222 156.832581,128.930222 
	C156.418060,127.697289 156.116364,126.799942 155.833176,125.509766 
z"/>
<path fill="#FEFEFE" opacity="1.000000" stroke="none" 
	d="
M43.136963,164.871765 
	C43.624310,163.560837 44.506813,162.301712 45.664265,160.845871 
	C45.136848,162.073959 44.334484,163.498764 43.136963,164.871765 
z"/>
<path fill="#FEFEFE" opacity="1.000000" stroke="none" 
	d="
M87.920654,141.138031 
	C87.429451,142.428040 86.553154,143.651779 85.381851,145.016479 
	C85.903076,143.795563 86.719315,142.433670 87.920654,141.138031 
z"/>
<path fill="#FEFEFE" opacity="1.000000" stroke="none" 
	d="
M90.916504,137.139557 
	C90.454781,138.444687 89.604713,139.686081 88.478256,141.097519 
	C88.977295,139.870300 89.752724,138.473053 90.916504,137.139557 
z"/>
<path fill="#FEFEFE" opacity="1.000000" stroke="none" 
	d="
M93.987762,133.064880 
	C93.506004,134.357864 92.630157,135.630508 91.476303,137.082794 
	C91.996758,135.856476 92.795219,134.450516 93.987762,133.064880 
z"/>
<path fill="#F3F4F4" opacity="1.000000" stroke="none" 
	d="
M49.007103,157.002136 
	C49.788551,155.918854 50.569996,154.835571 51.639996,153.569687 
	C51.563171,154.540222 51.197792,155.693375 50.186554,156.928726 
	C49.362827,157.008011 49.184963,157.005081 49.007103,157.002136 
z"/>
<path fill="#F3F4F4" opacity="1.000000" stroke="none" 
	d="
M72.004982,129.668015 
	C72.175323,128.625916 72.757294,127.698471 73.634811,126.580078 
	C73.425774,127.520302 72.921196,128.651489 72.004982,129.668015 
z"/>
<path fill="#F3F4F4" opacity="1.000000" stroke="none" 
	d="
M54.091194,151.129608 
	C54.388409,150.161758 54.895660,149.472916 55.670479,148.598419 
	C55.392441,149.411362 54.846836,150.409988 54.091194,151.129608 
z"/>
<path fill="#F3F4F4" opacity="1.000000" stroke="none" 
	d="
M59.037971,145.070709 
	C59.331890,144.080109 59.833771,143.379333 60.623520,142.525848 
	C60.356232,143.368927 59.801083,144.364746 59.037971,145.070709 
z"/>
<path fill="#F3F4F4" opacity="1.000000" stroke="none" 
	d="
M63.052483,140.686798 
	C63.210598,139.647018 63.777233,138.706757 64.637039,137.577667 
	C64.440475,138.521347 63.950741,139.653839 63.052483,140.686798 
z"/>
<path fill="#F3F4F4" opacity="1.000000" stroke="none" 
	d="
M68.000549,133.942657 
	C68.477043,132.865112 69.317841,131.805939 70.493675,130.752457 
	C70.007423,131.825775 69.186142,132.893402 68.000549,133.942657 
z"/>
<path fill="#F3F4F4" opacity="1.000000" stroke="none" 
	d="
M85.051071,113.686096 
	C85.212914,112.649895 85.782867,111.714195 86.643532,110.586044 
	C86.442558,111.524597 85.950874,112.655602 85.051071,113.686096 
z"/>
<path fill="#F3F4F4" opacity="1.000000" stroke="none" 
	d="
M93.976929,102.659653 
	C94.128387,101.680138 94.657425,100.838783 95.480301,99.882233 
	C95.300926,100.777298 94.827721,101.787560 93.976929,102.659653 
z"/>
<path fill="#F3F4F4" opacity="1.000000" stroke="none" 
	d="
M81.014908,118.082184 
	C80.920593,117.503052 81.064438,117.229027 81.497421,116.885712 
	C82.017616,117.224236 82.331833,117.675713 82.646057,118.127182 
	C82.154007,118.199333 81.661949,118.271484 81.014908,118.082184 
z"/>
<path fill="#FEFEFE" opacity="1.000000" stroke="none" 
	d="
M48.717751,157.152863 
	C49.184963,157.005081 49.362827,157.008011 49.808411,157.013702 
	C49.429134,157.662827 48.782139,158.309174 47.751205,158.942169 
	C47.720982,158.387070 48.074688,157.845322 48.717751,157.152863 
z"/>
<path fill="#F3F4F4" opacity="1.000000" stroke="none" 
	d="
M110.266060,100.040237 
	C110.939827,100.189026 111.511833,100.703117 112.180481,101.506287 
	C111.572845,101.332092 110.868568,100.868828 110.266060,100.040237 
z"/>
<path fill="#F3F4F4" opacity="1.000000" stroke="none" 
	d="
M100.528824,93.914276 
	C100.646645,93.370049 101.078613,92.776230 101.746674,92.036652 
	C101.602844,92.548828 101.222908,93.206757 100.528824,93.914276 
z"/>
<path fill="#F3F4F4" opacity="1.000000" stroke="none" 
	d="
M90.060188,106.944946 
	C90.179619,106.261383 90.676102,105.591118 91.470459,104.830139 
	C91.324623,105.479034 90.880928,106.218643 90.060188,106.944946 
z"/>
<path fill="#F3F4F4" opacity="1.000000" stroke="none" 
	d="
M56.489830,147.927124 
	C56.613777,147.374359 57.059967,146.773849 57.740646,146.013763 
	C57.587444,146.529251 57.199760,147.204300 56.489830,147.927124 
z"/>
<path fill="#F3F4F4" opacity="1.000000" stroke="none" 
	d="
M79.162407,120.182205 
	C79.175682,119.727875 79.358452,119.437462 79.757866,118.999664 
	C79.760315,119.350227 79.546112,119.848175 79.162407,120.182205 
z"/>
<path fill="#F3F4F4" opacity="1.000000" stroke="none" 
	d="
M106.996201,95.018532 
	C106.882851,95.068031 106.777367,95.101921 106.821060,95.071808 
	C106.970238,95.007812 107.004082,95.002914 106.996201,95.018532 
z"/>
<path fill="#F3F4F4" opacity="1.000000" stroke="none" 
	d="
M103.129623,91.209335 
	C103.356705,91.063087 103.767967,91.201836 104.378601,91.647484 
	C104.156586,91.801033 103.735199,91.647682 103.129623,91.209335 
z"/>
<path fill="#F3F4F4" opacity="1.000000" stroke="none" 
	d="
M96.818054,98.725197 
	C96.596230,98.653709 96.645691,98.234070 96.810989,98.102127 
	C97.137787,98.193939 97.299286,98.417686 97.460785,98.641426 
	C97.320488,98.693176 97.180191,98.744926 96.818054,98.725197 
z"/>
<path fill="#F3F4F4" opacity="1.000000" stroke="none" 
	d="
M96.059776,99.825699 
	C95.926270,99.511101 96.081985,99.142174 96.549805,98.772247 
	C96.690941,99.104614 96.519966,99.437996 96.059776,99.825699 
z"/>
<path fill="#F3F4F4" opacity="1.000000" stroke="none" 
	d="
M109.878502,99.060944 
	C110.076302,98.946945 110.407715,99.191399 110.418938,99.390808 
	C110.180344,99.451805 109.930527,99.313377 109.878502,99.060944 
z"/>
<path fill="#F3F4F4" opacity="1.000000" stroke="none" 
	d="
M62.081459,141.134064 
	C61.957508,140.947861 62.139252,140.607025 62.322342,140.607239 
	C62.549080,140.883316 62.592728,141.159195 62.636375,141.435074 
	C62.492718,141.396805 62.349064,141.358536 62.081459,141.134064 
z"/>
<path fill="#F3F4F4" opacity="1.000000" stroke="none" 
	d="
M93.062286,103.815033 
	C92.919312,103.451141 93.060417,103.039909 93.542389,102.715698 
	C93.704285,103.124374 93.525322,103.446030 93.062286,103.815033 
z"/>
<path fill="#F3F4F4" opacity="1.000000" stroke="none" 
	d="
M92.056870,104.819550 
	C91.919067,104.496330 92.070061,104.120247 92.539856,103.758377 
	C92.687668,104.103951 92.516670,104.435310 92.056870,104.819550 
z"/>
<path fill="#F3F4F4" opacity="1.000000" stroke="none" 
	d="
M84.082230,114.134972 
	C83.958397,113.948853 84.139542,113.608040 84.322479,113.608040 
	C84.549263,113.883759 84.593102,114.159477 84.636940,114.435196 
	C84.493317,114.397156 84.349686,114.359123 84.082230,114.134972 
z"/>
<path fill="#F3F4F4" opacity="1.000000" stroke="none" 
	d="
M71.070724,130.817520 
	C70.922760,130.455704 71.057251,130.044510 71.537025,129.718506 
	C71.705933,130.125168 71.529556,130.446671 71.070724,130.817520 
z"/>
<path fill="#000212" opacity="1.000000" stroke="none" 
	d="
M96.249176,131.954803 
	C97.420280,131.538025 99.073044,130.811249 100.728714,130.804565 
	C120.156250,130.726318 139.584229,130.756134 159.476929,130.757019 
	C158.282043,131.171860 156.623718,131.941696 154.962387,131.948273 
	C135.552582,132.025055 116.142319,131.987015 96.249176,131.954803 
z"/>
</svg>