<svg width="40" height="39" viewBox="0 0 40 40" fill="none" xmlns="http://www.w3.org/2000/svg">
<path fill-rule="evenodd" clip-rule="evenodd" d="M40 14.7153L37.4445 16.0295L40 16.8321L37.4445 18.1455L40 19.0219L37.6634 20.1894L40 20.992L29.9996 26.0291V25.1527L37.7372 21.2822L36.423 20.8444L29.9996 24.0574V22.962L37.4445 19.2391L36.2041 18.8014L29.9996 21.8676V20.8461L37.4445 17.0494L36.2041 16.6124L29.9996 19.7507V18.5833L37.4445 14.8612L20 9.02151L2.55462 14.8612L9.99958 18.5858V19.7524L3.86883 16.6141L2.55462 17.0519L9.99958 20.8469V21.8692L3.86883 18.8039L2.55462 19.2417L9.99958 22.9637V24.059L3.57697 20.8469L2.33572 21.2847L9.99958 25.1527V26.0283L0 20.992C0 20.992 2.04386 20.3361 2.33572 20.1894L0 19.0219L2.55462 18.1463L0 16.8321L2.55462 16.0295L0 14.7153L20 8L40 14.7153ZM19.9992 10.1168L5.1822 15.0801L10.1463 17.561C11.0211 14.6423 15.1088 12.4526 19.9992 12.4526C24.8903 12.4526 28.9772 14.6423 29.8536 17.5618L34.8178 15.081L19.9992 10.1168ZM26.7153 15.2252C28.1025 16.1738 28.9781 17.3421 28.9781 18.6563C28.9781 19.9705 28.1016 21.2109 26.7153 22.0873V20.8461C27.445 20.1894 27.8828 19.4589 27.8828 18.6571C27.8828 17.9275 27.445 17.124 26.7153 16.5403V15.2252Z" fill="#01A489"/>
<path d="M29.9994 25.1527V26.3195C29.9994 29.7504 25.5466 32.524 19.9995 32.524C14.5248 32.524 9.99957 29.7504 9.99957 26.3195V25.152C9.99957 28.5829 14.5248 31.4289 19.9995 31.4289C25.5466 31.4289 29.9994 28.5821 29.9994 25.1527ZM29.7805 20.1158C28.8032 22.9052 24.7443 24.9331 19.9995 24.9331C14.5248 24.9331 9.99957 22.1595 9.99957 18.6554V19.752C9.99957 23.1829 14.5248 25.955 19.9995 25.955C25.5466 25.955 29.9994 23.1814 29.9994 19.7505V18.7286C29.9994 19.1664 29.933 19.6796 29.7805 20.1158ZM19.9995 29.2395C14.5248 29.2395 9.99957 26.4667 9.99957 22.9633V24.0584C9.99957 27.4893 14.5248 30.3353 19.9995 30.3353C25.5466 30.3353 29.9994 27.4878 29.9994 24.0576V22.9626C29.9994 26.4652 25.5466 29.2395 19.9995 29.2395ZM19.9995 27.0501C14.5248 27.0501 9.99957 24.2773 9.99957 20.8463V21.9407C9.99957 25.3716 14.5248 28.1452 19.9995 28.1452C25.5466 28.1452 29.9994 25.3716 29.9994 21.8667V20.8448C29.9994 24.275 25.5466 27.0501 19.9995 27.0501Z" fill="#CCAC70"/>
</svg>
