<svg width="20" height="20" viewBox="0 0 43 43" fill="none" xmlns="http://www.w3.org/2000/svg">
<path d="M0 0H43V43H0V0Z" fill="url(#paint0_linear_127_56)"/>
<path d="M1.246 1H41.938V41H1.246V1Z" fill="url(#paint1_linear_127_56)"/>
<path d="M21.204 5.138H38.051V19.378H21.204V5.138Z" fill="url(#paint2_linear_127_56)"/>
<path d="M4.565 24.972H14.36V36.773H4.565V24.972Z" fill="url(#paint3_linear_127_56)"/>
<path d="M7.401 13.594H24.088V23.753H7.401V13.594Z" fill="url(#paint4_linear_127_56)"/>
<path d="M16.6 31.591H25.751V37.654H16.6V31.591Z" fill="url(#paint5_linear_127_56)"/>
<path d="M33.493 11.575C30.88 13.111 30.08 13.24 27.238 14.941C28.893 13.146 29.468 12.382 30.492 10.879C27.873 11.018 24.066 11.333 21.348 11.935C23.714 10.672 28.404 9.267 30.88 8.932C30.306 8.14 25.659 5.623 24.503 5.138C28.182 5.424 32.679 6.799 34.859 8.132C35.717 7.864 36.608 7.851 38.204 7.709C37.798 8.407 37.78 8.811 36.214 9.849C36.648 11.01 35.612 17.39 34.756 19.08C34.725 16.411 34.491 13.04 33.493 11.575V11.575ZM14.36 34.466C12.859 33.909 11.777 33.262 10.587 32.149C10.943 31.165 11.35 30.397 12.013 29.411C10.793 29.594 9.89299 29.731 8.84099 29.931C7.98499 28.433 7.59699 26.987 7.16099 24.974C6.92699 27.107 6.83899 28.63 7.13999 30.328C6.17399 30.597 5.49099 30.831 4.69699 31.189C5.80999 31.87 6.70899 32.394 7.95099 32.974C8.61899 34.406 9.30999 35.373 10.43 36.478C10.167 35.537 10.098 34.79 10.206 33.803C11.595 34.205 12.784 34.418 14.36 34.466V34.466ZM18.27 13.244C17.802 13.851 17.26 14.983 17.113 15.509C20.983 16.034 24.088 18.021 24.088 18.021C20.704 17.421 18.921 17.496 17.658 17.609C16.404 17.728 16.146 17.875 16.146 17.875C15.233 19.875 14.685 23.31 14.685 23.31C14.07 21.825 13.18 18.852 13.18 18.852C11.473 19.766 7.54499 23.459 7.54499 23.459C9.70399 19.135 11.896 17.168 11.896 17.168C11.142 16.404 9.16499 16.023 7.71899 15.959C8.46899 15.653 10.395 15.294 11.875 15.226C13.356 15.184 14.252 15.268 14.252 15.268C15.573 14.225 17.579 13.346 18.27 13.244V13.244ZM22.375 31.785C21.7413 32.6524 21.0645 33.4875 20.347 34.287C19.1744 34.6299 17.9577 34.7988 16.736 34.788C17.4766 35.167 18.2666 35.4406 19.083 35.601C18.3731 36.2547 17.6068 36.8443 16.793 37.363C18.117 37.05 19.856 36.488 21.152 35.722C21.828 35.748 22.461 35.704 22.925 35.613C22.8024 35.2211 22.7043 34.822 22.631 34.418C23.851 33.474 24.736 32.618 25.751 31.591C24.7233 32.3235 23.6315 32.9618 22.489 33.498C22.4361 32.9281 22.3981 32.3569 22.375 31.785" fill="white"/>
<defs>
<linearGradient id="paint0_linear_127_56" x1="21.5458" y1="-1.063" x2="21.5458" y2="44.3278" gradientUnits="userSpaceOnUse">
<stop stop-color="#008053"/>
<stop offset="0.6" stop-color="#7FC4A7"/>
<stop offset="1" stop-color="#00A06D"/>
</linearGradient>
<linearGradient id="paint1_linear_127_56" x1="21.594" y1="-10.188" x2="21.594" y2="39.76" gradientUnits="userSpaceOnUse">
<stop stop-color="#00A06D"/>
<stop offset="0.3" stop-color="#7FC4A7"/>
<stop offset="0.55" stop-color="#00A06D"/>
<stop offset="0.835" stop-color="#008053"/>
<stop offset="0.888" stop-color="#00885C"/>
<stop offset="0.973" stop-color="#009E74"/>
<stop offset="1" stop-color="#00A67D"/>
</linearGradient>
<linearGradient id="paint2_linear_127_56" x1="29.6273" y1="37.375" x2="29.6273" y2="4.8741" gradientUnits="userSpaceOnUse">
<stop stop-color="#00AC80"/>
<stop offset="1" stop-color="#00A06D"/>
</linearGradient>
<linearGradient id="paint3_linear_127_56" x1="9.4683" y1="37.375" x2="9.4683" y2="4.8641" gradientUnits="userSpaceOnUse">
<stop stop-color="#00AC80"/>
<stop offset="1" stop-color="#00A06D"/>
</linearGradient>
<linearGradient id="paint4_linear_127_56" x1="15.7168" y1="37.234" x2="15.7168" y2="5.04999" gradientUnits="userSpaceOnUse">
<stop stop-color="#00AC80"/>
<stop offset="1" stop-color="#00A06D"/>
</linearGradient>
<linearGradient id="paint5_linear_127_56" x1="21.1885" y1="37.375" x2="21.1885" y2="4.8745" gradientUnits="userSpaceOnUse">
<stop stop-color="#00AC80"/>
<stop offset="1" stop-color="#00A06D"/>
</linearGradient>
</defs>
</svg>
