<svg width="32" height="32" viewBox="0 0 32 32" fill="none" xmlns="http://www.w3.org/2000/svg">
<path d="M16 32C24.8366 32 32 24.8366 32 16C32 7.16344 24.8366 0 16 0C7.16344 0 0 7.16344 0 16C0 24.8366 7.16344 32 16 32Z" fill="#26A17B"/>
<path d="M15.5 27C9.14809 27 4 21.8519 4 15.5C4 9.14809 9.14809 4 15.5 4C21.8519 4 27 9.14809 27 15.5C27 18.55 25.7884 21.4751 23.6317 23.6317C21.4751 25.7884 18.55 27 15.5 27ZM14.8149 11.2328C14.1857 11.264 13.5909 11.5293 13.1472 11.9765C12.7035 12.4238 12.4431 13.0208 12.417 13.6502C12.417 14.8345 13.1413 15.6077 14.6779 15.9306L15.7545 16.1851C16.8017 16.4298 17.2323 16.7821 17.2323 17.3791C17.2323 17.9762 16.4787 18.5634 15.5 18.5634C15.1524 18.5953 14.8028 18.5287 14.4912 18.3711C14.1797 18.2136 13.9187 17.9716 13.7383 17.6728C13.6848 17.5594 13.6004 17.4634 13.4948 17.3959C13.3892 17.3283 13.2666 17.292 13.1413 17.2911H12.5638C12.5194 17.2993 12.4771 17.3162 12.4392 17.3409C12.4014 17.3655 12.3688 17.3974 12.3433 17.4347C12.3179 17.472 12.3 17.514 12.2908 17.5582C12.2816 17.6024 12.2813 17.648 12.2898 17.6923C12.4304 18.2664 12.7575 18.7776 13.2197 19.146C13.6819 19.5144 14.2533 19.7191 14.8443 19.7281V20.5502C14.8443 20.7332 14.917 20.9087 15.0464 21.0381C15.1758 21.1675 15.3513 21.2402 15.5343 21.2402C15.7173 21.2402 15.8928 21.1675 16.0222 21.0381C16.1516 20.9087 16.2243 20.7332 16.2243 20.5502V19.7183C16.8925 19.7107 17.5314 19.4426 18.0049 18.9709C18.4784 18.4993 18.749 17.8614 18.7591 17.1932C18.7591 15.9502 18.0447 15.2357 16.3515 14.8736L15.3728 14.6583C14.394 14.4136 13.934 14.0906 13.934 13.5426C13.934 12.9945 14.5213 12.3877 15.5 12.3877C15.8082 12.3555 16.1192 12.4132 16.3953 12.5539C16.6715 12.6945 16.901 12.9122 17.0562 13.1804C17.1191 13.3144 17.2187 13.4278 17.3434 13.5075C17.4681 13.5872 17.6128 13.6299 17.7609 13.6306H18.2209C18.3254 13.6051 18.4158 13.5395 18.4725 13.448C18.5293 13.3564 18.5478 13.2463 18.5243 13.1413C18.3917 12.6112 18.0951 12.1366 17.6768 11.7851C17.2585 11.4336 16.7399 11.2232 16.1949 11.1838V10.5085C16.1949 10.3255 16.1222 10.15 15.9928 10.0206C15.8634 9.89121 15.6879 9.81851 15.5049 9.81851C15.3219 9.81851 15.1464 9.89121 15.017 10.0206C14.8876 10.15 14.8149 10.3255 14.8149 10.5085V11.2328ZM6.87745 15.5C6.87857 17.3029 7.44606 19.0598 8.49976 20.5227C9.55347 21.9856 11.0401 23.0805 12.7498 23.6528H12.8868C13.0036 23.6528 13.1156 23.6064 13.1982 23.5238C13.2808 23.4412 13.3272 23.3291 13.3272 23.2123V23.0068C13.3276 22.8246 13.2738 22.6464 13.1727 22.4949C13.0717 22.3433 12.9279 22.2251 12.7596 22.1553C11.4281 21.6179 10.2877 20.6948 9.48456 19.5046C8.68145 18.3144 8.25237 16.9114 8.25237 15.4755C8.25237 14.0397 8.68145 12.6367 9.48456 11.4464C10.2877 10.2562 11.4281 9.33316 12.7596 8.79574C12.9271 8.7277 13.0706 8.6113 13.1717 8.46139C13.2728 8.31148 13.3269 8.13486 13.3272 7.95404V7.72894C13.3279 7.66284 13.3126 7.59757 13.2826 7.53865C13.2526 7.47974 13.2089 7.42892 13.1551 7.3905C13.1013 7.35208 13.0391 7.3272 12.9736 7.31796C12.9082 7.30873 12.8415 7.31541 12.7791 7.33745C11.0624 7.9052 9.56825 8.99942 8.50881 10.4647C7.44938 11.93 6.87857 13.6918 6.87745 15.5ZM24.1226 15.5C24.1194 13.6988 23.5509 11.944 22.4974 10.4831C21.4438 9.02214 19.9583 7.92873 18.2502 7.35702H18.1034C17.9814 7.35702 17.8644 7.40549 17.7781 7.49175C17.6919 7.57802 17.6434 7.69502 17.6434 7.81702V7.96383C17.6474 8.1526 17.7058 8.33619 17.8117 8.49248C17.9177 8.64877 18.0666 8.77109 18.2404 8.84468C19.5688 9.38368 20.7062 10.3068 21.507 11.4959C22.3078 12.685 22.7355 14.086 22.7355 15.5196C22.7355 16.9532 22.3078 18.3542 21.507 19.5433C20.7062 20.7324 19.5688 21.6555 18.2404 22.1945C18.0699 22.2688 17.924 22.3903 17.82 22.5445C17.716 22.6988 17.6582 22.8795 17.6532 23.0655V23.2319C17.654 23.3045 17.672 23.3758 17.7057 23.4401C17.7394 23.5044 17.7878 23.5598 17.8469 23.6018C17.9061 23.6437 17.9744 23.6711 18.0462 23.6817C18.118 23.6923 18.1912 23.6857 18.26 23.6626C19.9694 23.0881 21.4551 21.991 22.5071 20.5263C23.5591 19.0616 24.1242 17.3033 24.1226 15.5Z" fill="white"/>
</svg>