<svg width="24" height="24" viewBox="0 0 24 24" fill="none" xmlns="http://www.w3.org/2000/svg">
<path d="M12 24C18.6274 24 24 18.6274 24 12C24 5.37258 18.6274 0 12 0C5.37258 0 0 5.37258 0 12C0 18.6274 5.37258 24 12 24Z" fill="#26A17B"/>
<path fill-rule="evenodd" clip-rule="evenodd" d="M13.4415 13.0373V13.0358C13.359 13.0418 12.9337 13.0673 11.985 13.0673C11.2275 13.0673 10.6942 13.0448 10.5067 13.0358V13.0381C7.59075 12.9098 5.41425 12.4021 5.41425 11.7946C5.41425 11.1878 7.59075 10.6801 10.5067 10.5496V12.5326C10.6972 12.5461 11.2432 12.5783 11.9977 12.5783C12.903 12.5783 13.3567 12.5408 13.4415 12.5333V10.5511C16.3515 10.6808 18.5227 11.1886 18.5227 11.7946C18.5227 12.4021 16.3515 12.9083 13.4415 13.0373ZM13.4415 10.3448V8.57033H17.502V5.86433H6.44625V8.57033H10.5067V10.3441C7.20675 10.4956 4.725 11.1496 4.725 11.9326C4.725 12.7156 7.20675 13.3688 10.5067 13.5211V19.2076H13.4415V13.5196C16.7362 13.3681 19.212 12.7148 19.212 11.9326C19.212 11.1503 16.7362 10.4971 13.4415 10.3448Z" fill="white"/>
</svg>
