<svg width="16" height="16" viewBox="0 0 16 16" fill="none" xmlns="http://www.w3.org/2000/svg">
<path d="M9.9901 7.42197H14.1546C14.1557 7.43695 14.157 7.45053 14.157 7.46377C14.157 7.87444 14.1595 8.28545 14.1557 8.69612C14.1515 9.1249 14.1215 9.55264 14.0665 9.97794C13.9965 10.5171 13.884 11.0462 13.7063 11.5607C13.5168 12.109 13.2587 12.6206 12.9024 13.0808C12.4963 13.6053 11.9818 13.993 11.3914 14.2863C10.8675 14.5465 10.3154 14.721 9.74349 14.837C9.10223 14.9669 8.45436 15.0167 7.80126 14.9951C6.86672 14.9641 5.95865 14.7983 5.09238 14.435C4.56607 14.2142 4.08121 13.9258 3.66497 13.5311C3.24211 13.1302 2.92514 12.6541 2.68062 12.1281C2.45456 11.6415 2.30164 11.1312 2.19541 10.6063C2.12574 10.2625 2.07768 9.91559 2.04667 9.56622C2.01463 9.20815 2.00104 8.84938 2.00104 8.48992C2.00174 6.10288 2.00209 3.7162 2 1.32951C2 1.15257 2.11913 1.02752 2.25532 1.00662C2.28109 1.00244 2.30791 1.00244 2.33439 1.00244C3.49847 1.00209 4.66255 1.00453 5.82629 1C6.0203 0.999306 6.17043 1.13445 6.17008 1.34275C6.16729 3.21845 6.16834 5.09415 6.16834 6.96985C6.16834 7.5909 6.1659 8.21196 6.17008 8.83301C6.17287 9.27155 6.22407 9.70451 6.36166 10.1235C6.45117 10.397 6.57518 10.6526 6.76292 10.8731C7.03426 11.1915 7.38188 11.3757 7.7929 11.4398C8.24398 11.5102 8.66474 11.4263 9.04999 11.1786C9.33665 10.9943 9.53206 10.7331 9.67522 10.4287C9.81559 10.1302 9.89396 9.81423 9.93994 9.48925C9.98244 9.18795 9.99184 8.88491 9.99045 8.58118C9.98871 8.21231 9.9901 7.84309 9.9901 7.47422C9.9901 7.45785 9.9901 7.44148 9.9901 7.42127V7.42197Z" fill="#1F3E79"/>
<path d="M14.1551 4.27177V6.60237H9.99023C9.99023 6.5867 9.99023 6.57207 9.99023 6.55744C9.99023 4.81689 9.99023 3.07634 9.99023 1.33578C9.99023 1.13968 10.1278 1.00279 10.3243 1.00244C10.497 1.00244 10.6695 1.00244 10.8422 1.00244C10.8562 1.00244 10.8697 1.00244 10.8875 1.00244C10.9056 1.89832 11.2142 2.67403 11.8475 3.30832C12.4811 3.9433 13.2561 4.25331 14.1554 4.27212L14.1551 4.27177Z" fill="#1F3E79"/>
<path d="M14.1545 2.35426C14.1545 2.70084 14.1538 3.04742 14.1555 3.394C14.1555 3.43719 14.143 3.44799 14.1012 3.44659C13.5386 3.42883 13.0371 3.24491 12.603 2.88649C12.1795 2.53678 11.9043 2.09198 11.7768 1.55731C11.7371 1.39081 11.7173 1.22153 11.7127 1.05015C11.7117 1.01741 11.7187 1.00348 11.7559 1.00348C12.4505 1.00452 13.145 1.00383 13.8396 1.00452C14.0137 1.00452 14.1541 1.14768 14.1545 1.32219C14.1545 1.66598 14.1545 2.00977 14.1545 2.35357V2.35426Z" fill="#EF7F1A"/>
</svg>
