<svg width="32" height="32" viewBox="0 0 32 32" fill="none" xmlns="http://www.w3.org/2000/svg">
<g clip-path="url(#clip0_3231_2887)">
<path d="M16 32C24.8366 32 32 24.8366 32 16C32 7.16344 24.8366 0 16 0C7.16344 0 0 7.16344 0 16C0 24.8366 7.16344 32 16 32Z" fill="#1CA6D9"/>
<path d="M15.3291 5.38576C13.0679 5.70366 11.0671 7.19861 10.4245 9.07161C10.2131 9.67303 10.148 10.9016 10.2863 11.5546C10.5709 12.9207 11.5551 14.3211 13.0354 15.481L13.5397 15.8762L10.091 19.5363C8.18779 21.5382 6.65055 23.2136 6.66681 23.2479C6.69122 23.2823 6.95149 23.2909 7.25243 23.2737L7.80551 23.2307L11.0671 19.8027L14.3205 16.366L15.0281 16.8041C15.4185 17.0447 15.7357 17.2681 15.7357 17.3025C15.7357 17.3368 14.475 18.6943 12.9297 20.3267C11.3843 21.9592 10.1236 23.3167 10.1236 23.351C10.1236 23.4541 11.3029 24.5625 11.8723 24.9835C13.2631 26.023 14.6296 26.5471 16.2726 26.6502C19.2657 26.8564 22.145 25.0951 22.9828 22.5434C23.2349 21.7787 23.2349 20.5931 22.9828 19.8112C22.5191 18.3936 21.4292 17.0533 19.8188 15.945L18.9078 15.3092L22.1206 11.9069C23.8856 10.0425 25.3334 8.48737 25.3334 8.44441C25.3334 8.41004 25.0812 8.38427 24.7721 8.38427H24.2109L21.1527 11.6233L18.0945 14.871L17.4275 14.493C17.0534 14.2868 16.7199 14.0806 16.6711 14.0376C16.6223 13.9947 17.6146 12.8863 19.2332 11.1766L21.8685 8.39286L21.5675 7.98905C20.2173 6.15902 17.6146 5.07646 15.3291 5.38576ZM17.4845 6.45113C18.4605 6.70889 20.1685 7.77426 20.4857 8.31553C20.5508 8.43582 20.1848 8.86541 18.2083 10.9532C16.907 12.3279 15.8008 13.4534 15.7439 13.4534C15.5568 13.4534 14.4018 12.5598 13.7674 11.9241C12.8971 11.0477 12.6043 10.4291 12.6043 9.45823C12.6043 8.88259 12.6369 8.69357 12.8321 8.28117C13.2062 7.47355 14.1253 6.73466 15.0932 6.45973C15.6707 6.29648 16.8826 6.28789 17.4845 6.45113ZM17.273 18.153C18.7126 19.0895 19.526 19.8714 19.8676 20.6446C20.0628 21.0914 20.0872 21.2461 20.0872 22.0451C20.0872 22.8441 20.0628 23.0074 19.8676 23.4369C19.4609 24.3648 18.6232 25.0866 17.6553 25.3615C17.0371 25.5333 15.8008 25.5161 15.0525 25.3099C13.9382 25.0092 12.6613 24.3133 11.8723 23.5572L11.4656 23.1706L14.0277 20.4642C15.4348 18.9693 16.606 17.7492 16.6223 17.7492C16.6386 17.7492 16.9314 17.9297 17.273 18.153Z" fill="white"/>
</g>
<defs>
<clipPath id="clip0_3231_2887">
<rect width="32" height="32" fill="white"/>
</clipPath>
</defs>
</svg>
