<svg width="40" height="40" viewBox="0 0 40 40" fill="none" xmlns="http://www.w3.org/2000/svg">
<path d="M11.6999 23.0998L12.2999 23.3998C13.8999 24.0998 15.0999 25.0998 15.7999 26.6998C17.1999 29.5998 15.6999 32.3998 13.0999 33.4998C11.7999 33.9998 10.4999 34.1998 9.0999 34.1998H1.3999C1.0999 34.1998 0.799902 34.2998 0.599902 34.2998C0.399902 34.2998 0.199902 34.1998 -0.100098 34.1998C-9.76548e-05 33.9998 -9.76548e-05 33.6998 0.0999023 33.5998C1.1999 32.5998 1.5999 31.3998 1.5999 29.9998V17.7998C1.5999 16.5998 0.899902 15.5998 0.199902 14.5998C-9.76473e-05 14.3998 -9.76548e-05 14.0998 -9.76548e-05 13.8998C0.199902 13.8998 0.499902 13.7998 0.699902 13.7998C1.7999 13.7998 2.7999 13.8998 3.8999 13.8998H6.2999C6.6999 13.8998 6.9999 13.7998 7.1999 13.3998C8.3999 11.3998 10.1999 10.2998 12.3999 9.7998C14.2999 9.2998 16.1999 9.4998 18.0999 9.4998C18.6999 9.4998 18.7999 9.3998 18.6999 8.7998C18.4999 7.8998 18.0999 7.0998 17.3999 6.4998C17.2999 6.3998 17.1999 6.0998 17.1999 5.8998C17.3999 5.8998 17.5999 5.7998 17.8999 5.7998C18.2999 5.7998 18.7999 5.8998 19.1999 5.8998H21.1999C21.3999 5.8998 21.6999 5.7998 21.8999 5.7998H22.4999C22.4999 5.9998 22.4999 6.2998 22.2999 6.4998C21.9999 7.0998 21.4999 7.5998 21.1999 8.0998V8.1998C20.6999 9.2998 20.7999 9.4998 21.9999 9.4998C23.7999 9.5998 25.4999 9.3998 27.2999 9.7998C29.4999 10.2998 31.2999 11.3998 32.4999 13.2998C32.7999 13.6998 32.9999 13.8998 33.4999 13.8998H36.6999C36.8999 13.8998 37.1999 13.7998 37.2999 13.5998C37.5999 13.2998 37.8999 13.0998 38.1999 13.2998C38.3999 13.3998 38.4999 13.6998 38.4999 13.8998C38.3999 14.2998 38.0999 14.4998 37.6999 14.4998C36.3999 14.5998 34.9999 14.6998 33.6999 14.6998C33.2999 14.6998 33.0999 14.7998 33.1999 15.2998C33.4999 17.2998 33.0999 19.1998 31.6999 20.7998C31.5999 20.8998 31.5999 20.9998 31.3999 21.1998H31.8999C35.3999 20.6998 38.2999 22.0998 39.3999 25.4998C40.4999 28.9998 39.2999 32.2998 35.4999 33.6998C34.5999 34.0998 33.4999 34.1998 32.3999 34.1998C29.8999 34.2998 27.2999 34.1998 24.7999 34.1998C24.5999 34.1998 24.3999 34.3998 24.0999 34.3998C23.8999 34.3998 23.5999 34.3998 23.4999 34.1998C23.3999 34.0998 23.4999 33.7998 23.5999 33.6998C24.9999 32.4998 25.1999 30.8998 25.1999 29.1998C25.0999 27.2998 25.1999 25.4998 25.1999 23.5998C25.1999 23.1998 25.0999 23.0998 24.6999 22.9998C22.8999 22.6998 21.2999 21.1998 21.2999 19.0998C21.2999 17.7998 21.3999 16.6998 22.3999 15.7998C22.6999 15.4998 23.0999 15.2998 23.3999 15.1998C23.7999 14.9998 23.9999 14.8998 23.5999 14.5998C23.4999 14.4998 23.4999 14.1998 23.4999 14.0998C23.5999 13.9998 23.7999 13.8998 23.9999 13.8998C24.6999 13.8998 25.2999 14.0998 25.9999 14.0998H29.2999C29.4999 14.0998 29.6999 13.9998 29.6999 13.8998C29.7999 13.7998 29.6999 13.5998 29.5999 13.3998C28.3999 11.5998 26.6999 10.5998 24.4999 10.5998H21.2999C20.8999 10.5998 20.6999 10.7998 20.6999 11.1998V21.8998C20.5999 23.2998 21.0999 24.4998 21.9999 25.4998C22.0999 25.5998 22.2999 25.6998 22.2999 25.8998C22.2999 26.0998 22.3999 26.3998 22.2999 26.4998C22.2999 26.5998 21.8999 26.4998 21.6999 26.4998C21.3999 26.4998 21.1999 26.2998 20.8999 26.2998H18.3999C18.0999 26.2998 17.6999 26.3998 17.3999 26.4998C17.1999 26.4998 16.8999 26.4998 16.8999 26.3998C16.7999 26.2998 16.8999 25.9998 16.8999 25.7998C16.9999 25.5998 17.2999 25.3998 17.3999 25.1998C18.0999 24.2998 18.4999 23.2998 18.3999 21.9998V11.1998C18.3999 10.7998 18.2999 10.5998 17.8999 10.5998H14.8999C12.3999 10.4998 10.5999 11.6998 9.2999 13.6998C9.4999 13.9998 9.7999 13.9998 10.0999 14.0998C10.8999 14.2998 11.5999 14.5998 12.3999 14.7998C12.5999 14.8998 12.7999 15.0998 13.0999 15.0998C13.2999 15.1998 13.6999 15.1998 13.8999 15.0998C16.4999 13.8998 18.4999 15.9998 18.4999 17.9998C18.4999 19.4998 18.2999 20.8998 16.9999 21.8998C15.6999 22.8998 14.0999 22.9998 12.4999 22.7998C12.2999 22.7998 11.9999 22.7998 11.7999 22.6998C11.7999 22.9998 11.6999 22.9998 11.6999 23.0998ZM9.9999 22.3998V22.1998C9.4999 21.8998 8.9999 21.5998 8.5999 21.1998C6.8999 19.4998 6.2999 17.4998 6.6999 15.1998C6.7999 14.7998 6.5999 14.6998 6.1999 14.6998H4.9999C3.8999 14.6998 3.7999 14.6998 3.7999 15.7998V30.1998C3.7999 32.1998 5.2999 33.0998 6.7999 33.1998C7.7999 33.2998 8.7999 33.2998 9.8999 33.1998C12.9999 33.0998 14.8999 30.3998 13.9999 27.3998C13.1999 24.6998 10.5999 23.0998 7.5999 23.3998C6.3999 23.4998 5.6999 24.2998 5.9999 25.6998L6.2999 26.2998C6.4999 26.1998 6.5999 26.0998 6.7999 25.8998C7.0999 25.5998 7.5999 25.5998 7.9999 25.8998C8.3999 26.2998 8.3999 26.5998 8.0999 26.9998C7.5999 27.5998 6.9999 27.2998 6.3999 27.0998C5.3999 26.7998 5.0999 25.9998 4.9999 24.9998C4.8999 24.0998 5.4999 23.4998 6.1999 22.9998C7.0999 22.3998 8.0999 22.3998 9.1999 22.3998C9.4999 22.4998 9.6999 22.4998 9.9999 22.3998ZM29.1999 22.4998C28.5999 22.5998 28.1999 22.6998 27.7999 22.8998C27.6999 22.8998 27.4999 23.1998 27.4999 23.2998V30.0998C27.4999 31.9998 28.6999 33.1998 30.5999 33.2998C31.6999 33.2998 32.6999 33.2998 33.7999 33.1998C35.3999 33.0998 36.5999 32.1998 37.3999 30.7998C38.2999 29.1998 38.1999 27.4998 37.5999 25.7998C36.5999 23.0998 34.3999 21.3998 31.5999 22.1998C30.0999 22.5998 29.4999 23.5998 29.7999 25.0998C29.7999 25.2998 29.9999 25.4998 30.0999 25.5998C30.1999 25.4998 30.3999 25.3998 30.4999 25.1998C30.7999 24.8998 31.0999 24.6998 31.4999 24.7998C31.9999 24.9998 32.1999 25.3998 32.1999 25.8998C32.1999 26.2998 31.9999 26.6998 31.5999 26.7998C30.8999 26.8998 30.1999 26.7998 29.6999 26.2998C28.7999 25.3998 28.5999 24.0998 29.0999 22.8998C29.1999 22.7998 29.1999 22.6998 29.1999 22.4998ZM27.5999 18.4998C27.4999 18.4998 27.4999 18.4998 27.5999 18.4998V21.2998C27.5999 21.6998 27.7999 21.7998 28.0999 21.5998C28.4999 21.3998 28.7999 21.1998 29.1999 20.8998C30.3999 19.8998 30.6999 18.3998 30.7999 16.9998C30.8999 16.3998 30.7999 15.8998 30.6999 15.2998C30.6999 14.9998 30.4999 14.6998 30.0999 14.6998L27.9999 14.9998C27.6999 15.0998 27.5999 15.2998 27.5999 15.5998V18.4998ZM9.1999 16.2998H9.0999C9.2999 17.1998 9.3999 18.1998 9.5999 19.0998C9.7999 19.8998 10.2999 20.5998 10.9999 21.0998C11.7999 21.6998 11.7999 21.5998 12.3999 20.8998C13.1999 19.9998 13.1999 19.0998 12.6999 18.0998C12.5999 17.9998 12.4999 17.7998 12.5999 17.5998C12.7999 16.8998 12.3999 16.3998 11.8999 15.9998C11.4999 15.6998 11.0999 15.3998 10.5999 15.2998C9.2999 14.7998 9.1999 14.7998 9.2999 16.0998C9.1999 16.1998 9.1999 16.1998 9.1999 16.2998ZM25.3999 19.8998C25.3999 19.3998 25.2999 18.7998 25.2999 18.1998C25.2999 17.7998 25.2999 17.3998 25.1999 16.9998C25.0999 16.4998 24.8999 15.8998 24.4999 15.5998C24.3999 15.3998 23.6999 15.5998 23.3999 15.7998C23.0999 15.9998 22.6999 16.3998 22.5999 16.6998C22.3999 17.2998 22.2999 17.9998 22.2999 18.6998C22.2999 20.2998 23.2999 21.3998 24.7999 21.7998C25.1999 21.8998 25.3999 21.6998 25.3999 21.2998V19.8998ZM14.0999 15.7998C14.0999 15.8998 14.0999 15.9998 14.1999 15.9998C15.6999 17.8998 15.6999 19.6998 13.9999 21.5998C13.8999 21.6998 13.8999 21.7998 13.7999 21.9998C13.7999 22.0998 13.8999 22.0998 13.8999 22.1998C14.4999 21.9998 15.1999 21.9998 15.7999 21.6998C17.7999 20.6998 17.9999 18.3998 17.1999 16.7998C16.6999 15.4998 15.1999 15.1998 14.0999 15.7998Z" fill="#BD0D31"/>
</svg>
