<svg width="54" height="17" viewBox="0 0 54 17" fill="none" xmlns="http://www.w3.org/2000/svg">
<path fill-rule="evenodd" clip-rule="evenodd" d="M13.3172 16.8676H8.70732L5.25047 3.67942C5.08638 3.07283 4.73801 2.53647 4.22554 2.28372C2.94664 1.64855 1.53738 1.14295 0 0.888031V0.380258H7.42617C8.45109 0.380258 9.21979 1.14295 9.3479 2.02881L11.1415 11.5418L15.7492 0.380258H20.2309L13.3172 16.8676ZM22.7932 16.8676H18.4396L22.0245 0.380258H26.3782L22.7932 16.8676ZM32.0107 4.94771C32.1389 4.05978 32.9076 3.55201 33.8044 3.55201C35.2137 3.4245 36.7487 3.67953 38.03 4.31253L38.7986 0.76269C37.5174 0.254918 36.1082 0 34.8293 0C30.6037 0 27.5289 2.28372 27.5289 5.4533C27.5289 7.86454 29.7069 9.13055 31.2443 9.89324C32.9076 10.6538 33.5482 11.1615 33.42 11.922C33.42 13.0628 32.1389 13.5706 30.8599 13.5706C29.3226 13.5706 27.7852 13.1903 26.3782 12.555L25.6095 16.1071C27.1468 16.7401 28.8102 16.9951 30.3475 16.9951C35.0855 17.1203 38.03 14.8388 38.03 11.4143C38.03 7.10174 32.0107 6.849 32.0107 4.94771ZM53.2666 16.8676L49.8097 0.380258H46.0967C45.3279 0.380258 44.5592 0.888031 44.303 1.64855L37.9018 16.8676H42.3836L43.2781 14.4585H48.7848L49.2973 16.8676H53.2666ZM46.7372 4.8203L48.0161 11.034H44.4312L46.7372 4.8203Z" fill="#172B85"/>
</svg>
