<svg width="40" height="40" viewBox="0 0 40 40" fill="none" xmlns="http://www.w3.org/2000/svg">
<path d="M5.99998 11C5.99998 11.1 5.99998 11.2 6.09998 11.3C6.09998 11.4 6.09998 11.4 6.19998 11.5L6.29998 11.6C6.39998 11.8 6.39998 11.9 6.49998 12H6.29998C6.49998 12.4 6.69998 12.7 6.89998 13.1H6.99998L7.19998 13.3V13.4L7.39998 13.6L7.59998 13.8L11.9 9.5V0L7.89998 3.9L7.59998 4.3C6.49998 5.4 5.89998 7.7 5.79998 9.3V10C5.79998 10.2 5.79998 10.3 5.89998 10.4V10.8C5.89998 10.8 5.89998 10.9 5.99998 11C5.99998 11 5.99998 10.9 5.99998 11ZM34.2 10.3V10.5C34.2 10.6 34.2 10.6 34.1 10.7V11.4C34.1 11.5 34.1 11.5 34 11.6C34 11.7 34 11.7 33.9 11.8V12C33.9 12.1 33.8 12.1 33.8 12.2C33.8 12.3 33.7 12.3 33.7 12.4L33.6 12.5C33.4 12.9 33.1 13.4 32.8 13.7L32.7 13.8C32.6 14 32.4 14.1 32.3 14.2C31.1 13.2 29.5 12.6 27.9 12.6C26.1 12.6 24.3 13.3 23 14.6L16.7 20.9L16.8 11.5L23.2 5C24.4 3.8 26 3.1 27.7 3H28C29.7 3 31.2 3.7 32.3 4.8C33.7 6.2 34.2 8.6 34.1 10.4C34.2 10.2 34.2 10.3 34.2 10.3ZM6.99998 14.4C6.09998 13.5 5.39998 12.3 5.19998 11.1L5.09998 18.9C4.99998 20.8 5.69998 22.7 7.09998 24L16.1 33V30.2L16.2 30.1L19.5 26.8L13.1 20.4C9.99998 17.4 6.99998 14.4 6.99998 14.4ZM34.9 11.3C34.6 12.5 34 13.6 33.1 14.4L33 14.5L16.9 30.6V40L32.9 24C34.3 22.6 35 20.6 34.9 18.6V11.3Z" fill="#9D235A"/>
</svg>
