<svg width="40" height="40" viewBox="0 0 40 40" fill="none" xmlns="http://www.w3.org/2000/svg">
<path d="M6.53532 0C12.0377 0.00877578 17.5402 0.00438789 23.0426 0C25.4164 0.039491 27.9175 0.223782 30.0149 1.44362C31.7086 2.41334 32.81 4.24309 33.0338 6.16498C33.2971 8.16147 33.1742 10.3949 31.8929 12.0448C31.1865 13.0715 30.0676 13.7209 28.9223 14.1422C29.9798 14.5108 31.0724 14.8706 31.95 15.5902C33.7095 16.9241 34.4774 19.2102 34.4774 21.3559C34.5959 23.5059 34.3458 25.7701 33.2532 27.6613C32.2089 29.4296 30.2387 30.43 28.2905 30.8556C26.7591 31.2374 25.1663 31.2988 23.5911 31.29C17.9263 31.3032 12.2615 31.2813 6.59675 31.3032C6.57481 30.8907 6.54849 30.4827 6.53971 30.0746C6.53532 20.0483 6.56165 10.0219 6.53532 0ZM16.373 5.74814C16.373 7.92453 16.3642 10.1009 16.3774 12.2773C17.8649 12.2554 19.3567 12.3168 20.8398 12.251C22.3493 12.1983 23.5516 10.781 23.6349 9.32426C23.6832 8.35893 23.5516 7.27073 22.8407 6.55112C22.2176 5.93243 21.305 5.73497 20.4537 5.73936C19.0979 5.74375 17.7376 5.74375 16.373 5.74814ZM16.3774 18.0123C16.3686 20.5397 16.3642 23.0715 16.3817 25.5989C17.8034 25.5902 19.2251 25.6033 20.6468 25.5946C21.362 25.5682 22.0992 25.5814 22.7705 25.305C25.0347 24.559 25.6665 21.3515 24.3194 19.5437C23.6086 18.4599 22.2615 17.9903 21.011 17.9947C19.4664 18.0211 17.9219 17.9947 16.3774 18.0123ZM6 36.6038C13.4594 36.6038 31.6209 36.6082 34.4774 36.6082V40H6V36.6038Z" fill="#067941"/>
</svg>
