<svg width="20" height="20" viewBox="0 0 12 12" fill="none" xmlns="http://www.w3.org/2000/svg">
<path d="M10.6892 7.32303C10.265 7.07819 9.78716 7.00724 9.31392 6.99049C8.91681 6.97678 8.3245 6.7225 8.3245 6.00015C8.3245 5.46174 8.7609 5.0287 9.31423 5.00952C9.78747 4.99307 10.265 4.92181 10.6892 4.67697C11.0702 4.45704 11.3867 4.14067 11.6067 3.75966C11.8267 3.37866 11.9426 2.94645 11.9426 2.50648C11.9427 2.0665 11.8269 1.63427 11.6069 1.25324C11.3869 0.872201 11.0705 0.555783 10.6895 0.335793C10.3085 0.115802 9.87626 -9.13918e-06 9.43629 5.40931e-10C8.99632 9.14026e-06 8.5641 0.115839 8.18309 0.335845C7.80207 0.555851 7.48568 0.872282 7.26573 1.25333C7.04578 1.63437 6.93001 2.06661 6.93006 2.50658C6.93006 2.99231 7.10273 3.43905 7.3229 3.85352C7.50867 4.2022 7.60216 4.84903 6.9666 5.21599C6.49367 5.48885 5.90379 5.31618 5.6087 4.84446C5.3599 4.44583 5.05933 4.07278 4.63847 3.82976C4.25747 3.60969 3.82525 3.49379 3.38526 3.49372C2.94527 3.49364 2.51301 3.6094 2.13195 3.82936C1.75088 4.04931 1.43443 4.36571 1.21442 4.74674C0.994401 5.12777 0.878571 5.56001 0.878571 6C0.878571 6.43999 0.994401 6.87223 1.21442 7.25326C1.43443 7.63429 1.75088 7.95069 2.13195 8.17064C2.51301 8.3906 2.94527 8.50636 3.38526 8.50629C3.82525 8.50621 4.25747 8.39031 4.63847 8.17024C5.05933 7.92753 5.3599 7.55448 5.6087 7.15615C5.81274 6.82908 6.32313 6.41249 6.9666 6.78401C7.43862 7.05687 7.5848 7.65436 7.3229 8.14679C7.10242 8.56095 6.93006 9.008 6.93006 9.49342C6.93001 9.93339 7.04578 10.3656 7.26573 10.7467C7.48568 11.1277 7.80207 11.4441 8.18309 11.6642C8.5641 11.8842 8.99632 12 9.43629 12C9.87626 12 10.3085 11.8842 10.6895 11.6642C11.0705 11.4442 11.3869 11.1278 11.6069 10.7468C11.8269 10.3657 11.9427 9.9335 11.9426 9.49353C11.9426 9.05355 11.8267 8.62134 11.6067 8.24034C11.3867 7.85933 11.0702 7.54297 10.6892 7.32303Z" fill="url(#paint0_linear_6_2762)"/>
<defs>
<linearGradient id="paint0_linear_6_2762" x1="3.99875" y1="1.84164" x2="12.9309" y2="9.43462" gradientUnits="userSpaceOnUse">
<stop stop-color="#00AAE4"/>
<stop offset="1" stop-color="#006097"/>
</linearGradient>
</defs>
</svg>
