<svg width="32" height="32" viewBox="0 0 32 32" fill="none" xmlns="http://www.w3.org/2000/svg">
<path d="M16 32C24.8366 32 32 24.8366 32 16C32 7.16344 24.8366 0 16 0C7.16344 0 0 7.16344 0 16C0 24.8366 7.16344 32 16 32Z" fill="#A6E000"/>
<path fill-rule="evenodd" clip-rule="evenodd" d="M17.69 26C16.23 26 15.166 25.656 14.498 24.97C13.831 24.282 13.497 23.541 13.497 22.747C13.497 22.457 13.555 22.212 13.672 22.014C13.7861 21.8175 13.9508 21.6552 14.149 21.544C14.351 21.43 14.599 21.372 14.894 21.372C15.189 21.372 15.438 21.43 15.64 21.544C15.842 21.659 16 21.815 16.117 22.014C16.234 22.212 16.292 22.457 16.292 22.747C16.292 23.098 16.207 23.384 16.036 23.606C15.8861 23.8125 15.6736 23.9651 15.43 24.041C15.632 24.316 15.95 24.511 16.385 24.625C16.82 24.748 17.255 24.809 17.689 24.809C18.2723 24.8158 18.8444 24.6483 19.332 24.328C19.821 24.007 20.182 23.533 20.414 22.908C20.647 22.281 20.764 21.571 20.764 20.777C20.764 19.914 20.636 19.177 20.38 18.566C20.131 17.947 19.762 17.489 19.273 17.191C18.7971 16.8971 18.2483 16.7426 17.689 16.745C17.317 16.745 16.851 16.897 16.292 17.203L15.267 17.707V17.203L19.879 11.155H13.497V17.432C13.497 17.952 13.613 18.379 13.847 18.715C14.079 19.051 14.437 19.219 14.917 19.219C15.29 19.219 15.647 19.097 15.989 18.852C16.332 18.6061 16.6312 18.3042 16.874 17.959C16.898 17.8989 16.9386 17.8469 16.991 17.809C17.0332 17.7732 17.0867 17.7534 17.142 17.753C17.228 17.753 17.328 17.795 17.445 17.878C17.5511 17.9936 17.6094 18.1451 17.608 18.302C17.5947 18.41 17.5753 18.5172 17.55 18.623C17.286 19.203 16.92 19.646 16.455 19.952C15.9996 20.2541 15.4645 20.4136 14.918 20.41C13.536 20.41 12.581 20.143 12.053 19.608C11.525 19.074 11.261 18.348 11.261 17.432V11.155H8V9.986H11.26V7.33L10.516 6.596V6H12.682L13.497 6.412V9.986L21.928 9.963L22.768 10.788L17.596 15.874C17.9093 15.7508 18.2387 15.6734 18.574 15.644C19.134 15.644 19.762 15.82 20.461 16.172C21.168 16.515 21.711 16.989 22.091 17.592C22.472 18.188 22.717 18.761 22.825 19.311C22.9337 19.7923 22.9923 20.2836 23 20.777C23.0073 21.7225 22.7918 22.6563 22.371 23.503C21.9666 24.3281 21.2928 24.9906 20.461 25.381C19.5966 25.7958 18.6488 26.0075 17.69 26Z" fill="white"/>
</svg>
