<svg width="20" height="20" viewBox="0 0 20 19" fill="none" xmlns="http://www.w3.org/2000/svg">
<path d="M19.6001 7.78279C19.5011 7.18893 18.9567 6.79303 18.2144 6.79303C17.967 6.79303 17.769 6.79303 17.5216 6.79303C17.0762 6.74355 16.9772 6.89201 16.9772 7.23843C16.9772 8.97049 16.9772 10.6531 16.9772 12.3851C16.9772 13.2759 16.0864 14.2162 15.0472 14.4141C11.781 15.1564 8.51483 15.8493 5.24865 16.5916C4.90224 16.6906 4.50634 16.6906 4.11044 16.6906C3.96198 16.6906 3.71454 16.5916 3.66506 16.4431C3.61557 16.3441 3.76403 16.1462 3.863 16.0472C4.01147 15.9482 4.20942 15.8493 4.40737 15.7503C5.00122 15.5523 5.64455 15.3544 6.2384 15.1564C8.6633 14.3646 11.0882 13.5728 13.5131 12.7315C14.6018 12.3851 15.1957 11.6428 15.1957 10.7026C15.2451 7.7333 15.1957 4.71456 15.1957 1.7453C15.1957 1.25042 14.9482 0.854523 14.4039 0.656573C13.7605 0.409135 13.1667 0.607082 12.6223 0.85452C9.15817 2.48761 5.74353 4.12071 2.27939 5.7538C1.28964 6.24867 0.695801 6.9415 0.695801 7.93125C0.695801 10.752 0.695801 13.5728 0.695801 16.3936C0.695801 16.5421 0.695789 16.6906 0.745276 16.7895C1.09169 17.7298 1.98248 18.3237 3.17018 18.3237C5.59507 18.3237 8.01996 18.3237 10.4448 18.3237C12.8697 18.3237 15.2451 18.3237 17.67 18.3237C18.2144 18.3237 18.6598 18.2247 19.0557 17.8783C19.5506 17.4824 19.5506 16.938 19.5506 16.4431C19.5506 14.0084 19.6001 7.78279 19.6001 7.78279ZM9.50459 6.89201C9.75203 6.24868 10.2964 5.85277 11.0882 5.7538C11.6326 5.70431 12.0779 6.00124 12.1769 6.49611C12.2759 7.23843 11.3851 8.12921 10.4448 8.12921C9.70254 8.12921 9.25715 7.58484 9.50459 6.89201Z" fill="#FD6727"/>
</svg>
