<svg width="20" height="20" viewBox="0 0 20 20" fill="none" xmlns="http://www.w3.org/2000/svg">
<path d="M12.7474 3C8.8386 3 5.72982 6.15333 5.72982 10.0175C5.72982 13.9263 8.88316 17.0351 12.7474 17.0351C16.6112 17.0351 19.7649 13.8818 19.7649 10.0175C19.7649 6.15333 16.6112 3 12.7474 3ZM12.7474 12.5937C11.326 12.5937 10.1263 11.3944 10.1263 9.97298C10.1263 8.55193 11.326 7.35263 12.7474 7.35263C14.1684 7.35263 15.3677 8.55193 15.3677 9.97298C15.3232 11.4389 14.1684 12.5937 12.747 12.5937H12.7474ZM5.68526 4.9986V15.214H3.19754L0 4.9986H5.68526Z" fill="#7A2FBB"/>
</svg>
