<?xml version="1.0" encoding="UTF-8"?>
<svg version="1.1" xmlns="http://www.w3.org/2000/svg" width="225" height="225">
<path d="M0 0 C74.25 0 148.5 0 225 0 C225 74.25 225 148.5 225 225 C150.75 225 76.5 225 0 225 C0 150.75 0 76.5 0 0 Z " fill="#193749" transform="translate(0,0)"/>
<path d="M0 0 C74.25 0 148.5 0 225 0 C225 15.84 225 31.68 225 48 C150.75 48 76.5 48 0 48 C0 32.16 0 16.32 0 0 Z " fill="#113850" transform="translate(0,177)"/>
<path d="M0 0 C74.25 0 148.5 0 225 0 C225 11.22 225 22.44 225 34 C210.75025424 34.21005943 196.50033143 34.39673882 182.25 34.5625 C180.60981588 34.5815999 180.60981588 34.5815999 178.93649673 34.60108566 C137.84721804 35.07087365 96.77594995 34.94053172 55.6875 34.5625 C54.64066009 34.55290308 54.64066009 34.55290308 53.57267189 34.54311228 C35.71493062 34.37906551 17.85741317 34.19658801 0 34 C0 22.78 0 11.56 0 0 Z " fill="#10374F" transform="translate(0,0)"/>
<path d="M0 0 C74.25 0 148.5 0 225 0 C225 4.95 225 9.9 225 15 C150.75 15 76.5 15 0 15 C0 10.05 0 5.1 0 0 Z " fill="#193E53" transform="translate(0,162)"/>
<path d="M0 0 C74.25 0 148.5 0 225 0 C225 4.95 225 9.9 225 15 C209.62501001 15.03165764 194.25001846 15.05133194 178.875 15.0625 C177.12021646 15.06378403 177.12021646 15.06378403 175.32998276 15.06509399 C134.32151686 15.09149115 93.318963 14.87181158 52.3125 14.5 C50.99307152 14.48804218 49.67364304 14.47608437 48.31423187 14.46376419 C32.2094091 14.31709175 16.10466946 14.16261731 0 14 C0 9.38 0 4.76 0 0 Z " fill="#1D3848" transform="translate(0,34)"/>
<path d="M0 0 C74.25 0 148.5 0 225 0 C225 3.63 225 7.26 225 11 C150.75 11 76.5 11 0 11 C0 7.37 0 3.74 0 0 Z " fill="#183444" transform="translate(0,112)"/>
<path d="M0 0 C74.25 0 148.5 0 225 0 C225 3.63 225 7.26 225 11 C150.75 11 76.5 11 0 11 C0 7.37 0 3.74 0 0 Z " fill="#1E4156" transform="translate(0,80)"/>
<path d="M0 0 C74.25 0 148.5 0 225 0 C225 2.97 225 5.94 225 9 C150.75 9 76.5 9 0 9 C0 6.03 0 3.06 0 0 Z " fill="#132A38" transform="translate(0,58)"/>
<path d="M0 0 C74.25 0 148.5 0 225 0 C225 2.31 225 4.62 225 7 C150.75 7 76.5 7 0 7 C0 4.69 0 2.38 0 0 Z " fill="#183C53" transform="translate(0,146)"/>
<path d="M0 0 C74.25 0 148.5 0 225 0 C225 2.31 225 4.62 225 7 C150.75 7 76.5 7 0 7 C0 4.69 0 2.38 0 0 Z " fill="#264559" transform="translate(0,34)"/>
<path d="M0 0 C74.25 0 148.5 0 225 0 C225 2.31 225 4.62 225 7 C150.75 7 76.5 7 0 7 C0 4.69 0 2.38 0 0 Z " fill="#1F4156" transform="translate(0,162)"/>
<path d="M0 0 C74.25 0 148.5 0 225 0 C225 1.65 225 3.3 225 5 C210.75030078 5.21229156 196.50031571 5.39673901 182.25 5.5625 C180.60981588 5.5815999 180.60981588 5.5815999 178.93649673 5.60108566 C137.84721804 6.07087365 96.77594995 5.94053172 55.6875 5.5625 C54.64066009 5.55290308 54.64066009 5.55290308 53.57267189 5.54311228 C35.71493675 5.37906557 17.85738411 5.19871904 0 5 C0 3.35 0 1.7 0 0 Z " fill="#1D3747" transform="translate(0,29)"/>
<path d="M0 0 C74.25 0 148.5 0 225 0 C225 1.65 225 3.3 225 5 C202.12511734 5.20267927 179.25012435 5.38930961 156.375 5.5625 C155.11416068 5.57207426 155.11416068 5.57207426 153.82784986 5.58184195 C70.63657821 6.21180036 70.63657821 6.21180036 29.8125 5.5625 C29.00562492 5.54968616 28.19874985 5.53687233 27.36742401 5.5236702 C18.24435594 5.37649238 9.12193437 5.20673759 0 5 C0 3.35 0 1.7 0 0 Z " fill="#143143" transform="translate(0,141)"/>
<path d="M0 0 C74.25 0 148.5 0 225 0 C225 1.65 225 3.3 225 5 C150.75 5 76.5 5 0 5 C0 3.35 0 1.7 0 0 Z " fill="#183344" transform="translate(0,123)"/>
<path d="M0 0 C74.25 0 148.5 0 225 0 C225 1.65 225 3.3 225 5 C150.75 5 76.5 5 0 5 C0 3.35 0 1.7 0 0 Z " fill="#183344" transform="translate(0,107)"/>
<path d="M0 0 C74.25 0 148.5 0 225 0 C225 1.65 225 3.3 225 5 C150.75 5 76.5 5 0 5 C0 3.35 0 1.7 0 0 Z " fill="#183444" transform="translate(0,75)"/>
<path d="M0 0 C74.25 0 148.5 0 225 0 C225 1.32 225 2.64 225 4 C150.75 4 76.5 4 0 4 C0 2.68 0 1.36 0 0 Z " fill="#1E4155" transform="translate(0,80)"/>
<path d="M0 0 C74.25 0 148.5 0 225 0 C225 1.32 225 2.64 225 4 C150.75 4 76.5 4 0 4 C0 2.68 0 1.36 0 0 Z " fill="#234458" transform="translate(0,25)"/>
<path d="M0 0 C74.25 0 148.5 0 225 0 C225 0.99 225 1.98 225 3 C201.93761609 3.20254596 178.87512197 3.3892021 155.8125 3.5625 C154.96555761 3.56888284 154.11861523 3.57526568 153.24600792 3.58184195 C69.42477785 4.21180036 69.42477785 4.21180036 29.25 3.5625 C28.05890814 3.54327925 28.05890814 3.54327925 26.84375381 3.5236702 C17.89524194 3.3769413 8.94733111 3.20748276 0 3 C0 2.01 0 1.02 0 0 Z " fill="#182F3D" transform="translate(0,159)"/>
<path d="M0 0 C74.25 0 148.5 0 225 0 C225 0.99 225 1.98 225 3 C208.87523288 3.2090779 192.75024705 3.39447451 176.625 3.5625 C175.40421124 3.57523327 174.18342247 3.58796654 172.92564011 3.60108566 C131.96307743 4.02137206 91.02460099 3.97678608 50.0625 3.5625 C48.79432686 3.54968616 47.52615372 3.53687233 46.21955109 3.5236702 C30.81282343 3.36643736 15.40632913 3.19228288 0 3 C0 2.01 0 1.02 0 0 Z " fill="#112A38" transform="translate(0,55)"/>
<path d="M0 0 C74.25 0 148.5 0 225 0 C225 0.99 225 1.98 225 3 C150.75 3 76.5 3 0 3 C0 2.01 0 1.02 0 0 Z " fill="#235370" transform="translate(0,138)"/>
<path d="M0 0 C74.25 0 148.5 0 225 0 C225 0.99 225 1.98 225 3 C150.75 3 76.5 3 0 3 C0 2.01 0 1.02 0 0 Z " fill="#275571" transform="translate(0,128)"/>
<path d="M0 0 C74.25 0 148.5 0 225 0 C225 0.99 225 1.98 225 3 C150.75 3 76.5 3 0 3 C0 2.01 0 1.02 0 0 Z " fill="#285672" transform="translate(0,112)"/>
<path d="M0 0 C74.25 0 148.5 0 225 0 C225 0.99 225 1.98 225 3 C150.75 3 76.5 3 0 3 C0 2.01 0 1.02 0 0 Z " fill="#285672" transform="translate(0,72)"/>
<path d="M0 0 C74.25 0 148.5 0 225 0 C225 0.99 225 1.98 225 3 C150.75 3 76.5 3 0 3 C0 2.01 0 1.02 0 0 Z " fill="#275672" transform="translate(0,64)"/>
<path d="M0 0 C74.25 0 148.5 0 225 0 C225 0.99 225 1.98 225 3 C150.75 3 76.5 3 0 3 C0 2.01 0 1.02 0 0 Z " fill="#154A6A" transform="translate(0,0)"/>
<path d="M0 0 C74.25 0 148.5 0 225 0 C225 0.99 225 1.98 225 3 C150.75 3 76.5 3 0 3 C0 2.01 0 1.02 0 0 Z " fill="#295772" transform="translate(0,120)"/>
<path d="M0 0 C74.25 0 148.5 0 225 0 C225 0.99 225 1.98 225 3 C150.75 3 76.5 3 0 3 C0 2.01 0 1.02 0 0 Z " fill="#285672" transform="translate(0,104)"/>
<path d="M0 0 C74.25 0 148.5 0 225 0 C225 0.99 225 1.98 225 3 C150.75 3 76.5 3 0 3 C0 2.01 0 1.02 0 0 Z " fill="#255470" transform="translate(0,58)"/>
<path d="M0 0 C74.25 0 148.5 0 225 0 C225 0.99 225 1.98 225 3 C150.75 3 76.5 3 0 3 C0 2.01 0 1.02 0 0 Z " fill="#235370" transform="translate(0,52)"/>
<path d="M0 0 C74.25 0 148.5 0 225 0 C225 0.99 225 1.98 225 3 C150.75 3 76.5 3 0 3 C0 2.01 0 1.02 0 0 Z " fill="#21516E" transform="translate(0,146)"/>
<path d="M0 0 C74.25 0 148.5 0 225 0 C225 0.99 225 1.98 225 3 C150.75 3 76.5 3 0 3 C0 2.01 0 1.02 0 0 Z " fill="#295672" transform="translate(0,96)"/>
<path d="M0 0 C74.25 0 148.5 0 225 0 C225 0.99 225 1.98 225 3 C150.75 3 76.5 3 0 3 C0 2.01 0 1.02 0 0 Z " fill="#295672" transform="translate(0,88)"/>
<path d="M0 0 C74.25 0 148.5 0 225 0 C225 0.99 225 1.98 225 3 C150.75 3 76.5 3 0 3 C0 2.01 0 1.02 0 0 Z " fill="#386078" transform="translate(0,38)"/>
<path d="M0 0 C74.25 0 148.5 0 225 0 C225 0.99 225 1.98 225 3 C150.75 3 76.5 3 0 3 C0 2.01 0 1.02 0 0 Z " fill="#2A5772" transform="translate(0,162)"/>
<path d="M0 0 C74.25 0 148.5 0 225 0 C225 0.99 225 1.98 225 3 C209.62501001 3.03165764 194.25001846 3.05133194 178.875 3.0625 C177.12021646 3.06378403 177.12021646 3.06378403 175.32998276 3.06509399 C134.32151686 3.09149115 93.318963 2.87181158 52.3125 2.5 C50.99307152 2.48804218 49.67364304 2.47608437 48.31423187 2.46376419 C32.2094091 2.31709175 16.10466946 2.16261731 0 2 C0 1.34 0 0.68 0 0 Z " fill="#1E4861" transform="translate(0,46)"/>
</svg>
