<svg width="40" height="40" viewBox="0 0 40 40" fill="none" xmlns="http://www.w3.org/2000/svg">
<path d="M0 0V40H40V0H0ZM11.7621 10.2518H17.4829V8.97029H18.6868L20.0459 7.61118L21.405 8.97029H22.6088V10.2518H28.3294V12.7232H11.7618V10.2518H11.7621ZM10.1603 13.5471H29.9315V14.3709H10.1603V13.5471ZM13.4097 32.4944H10.9382V28.9244C10.9382 28.1662 10.385 27.5515 9.70265 27.5515C9.02029 27.5515 8.46706 28.1662 8.46706 28.9244V32.4941H5.99559V25.08H13.4097V32.4944ZM13.4097 24.2562H5.99529V23.4324H13.4094V24.2562H13.4097ZM25.8582 32.4944H25.0344V24.2106C25.0344 21.4556 22.8009 19.2221 20.0459 19.2221C17.2909 19.2221 15.0574 21.4556 15.0574 24.2106V32.4944H14.2335V24.2106C14.2335 21.0006 16.8359 18.3982 20.0459 18.3982C23.2559 18.3982 25.8582 21.0006 25.8582 24.2106V32.4944ZM34.0962 32.4944H31.6247V28.9244C31.6247 28.1662 31.0715 27.5515 30.3891 27.5515C29.7068 27.5515 29.1535 28.1662 29.1535 28.9244V32.4941H26.6821V25.08H34.0962V32.4944ZM34.0962 24.2562H26.6821V23.4324H34.0962V24.2562ZM34.0962 22.6088H26.4035C26.0109 19.8094 23.3244 17.6432 20.0685 17.6432C16.8126 17.6432 14.1265 19.8094 13.7338 22.6088H5.99559V21.785H11.8079V15.1944H28.2838V21.7847H34.0962V22.6088Z" fill="#FF0000"/>
</svg>
