<svg width="40" height="40" viewBox="0 0 40 40" fill="none" xmlns="http://www.w3.org/2000/svg">
<path d="M13.7 27.3998L15.2 22.7998H2.4C1.7 22.7998 1.1 23.0998 0.7 23.5998C0.3 24.0998 0 24.6998 0 25.2998C0 25.9998 0.3 26.5998 0.7 27.0998C1.2 27.5998 1.8 27.8998 2.4 27.8998H13.4C13.5 27.6998 13.6 27.4998 13.7 27.3998ZM17.3 16.0998H4.8C4.1 16.0998 3.5 16.3998 3.1 16.8998C2.6 17.3998 2.4 17.9998 2.4 18.6998C2.4 19.3998 2.7 19.9998 3.1 20.4998C3.6 20.9998 4.2 21.2998 4.8 21.2998H15.7C15.7 21.0998 17.3 16.0998 17.3 16.0998ZM19.5 9.2998H7.2C6.5 9.2998 5.9 9.5998 5.5 10.0998C5 10.5998 4.8 11.1998 4.8 11.8998C4.8 12.5998 5.1 13.1998 5.5 13.6998C6 14.1998 6.6 14.4998 7.2 14.4998H17.9L19.5 9.2998C19.5 9.3998 19.5 9.2998 19.5 9.2998ZM25.3 16.9998H37.6C38.3 16.9998 38.9 16.6998 39.3 16.1998C39.8 15.6998 40 15.0998 40 14.3998C40 13.6998 39.7 13.0998 39.3 12.5998C38.8 12.0998 38.2 11.7998 37.6 11.7998H26.9L25.3 16.9998C25.3 16.9998 25.3 16.8998 25.3 16.9998ZM36.3 23.6998H22.9V23.5998L24.5 18.5998H30.5C31.3 18.5998 32.1 18.7998 32.9 19.0998C33.7 19.3998 34.3 19.8998 34.9 20.4998C35.8 21.2998 36.3 22.4998 36.3 23.6998ZM33.4 29.5998C32.5 30.0998 31.5 30.3998 30.5 30.3998H19.2V30.2998L20.8 25.2998H35.8C35.7 26.1998 35.5 26.9998 35.1 27.6998C34.7 28.4998 34.1 29.0998 33.4 29.5998Z" fill="#40406B"/>
<path d="M16 12.2996L10.1 30.6996H16L21.3 12.2996H16ZM23.5 9.59961L17.7 27.9996H23.6L28.9 9.59961H23.5Z" fill="#328455"/>
</svg>
