<svg width="24" height="25" viewBox="0 0 24 25" fill="none" xmlns="http://www.w3.org/2000/svg">
<g clip-path="url(#clip0_3320_4391)">
<path fill-rule="evenodd" clip-rule="evenodd" d="M8 6.5C8 5.96957 8.21071 5.46086 8.58579 5.08579C8.96086 4.71071 9.46957 4.5 10 4.5H18C18.5304 4.5 19.0391 4.71071 19.4142 5.08579C19.7893 5.46086 20 5.96957 20 6.5V14.5C20 15.0304 19.7893 15.5391 19.4142 15.9142C19.0391 16.2893 18.5304 16.5 18 16.5H10C9.46957 16.5 8.96086 16.2893 8.58579 15.9142C8.21071 15.5391 8 15.0304 8 14.5V6.5ZM10 5.5C9.73478 5.5 9.48043 5.60536 9.29289 5.79289C9.10536 5.98043 9 6.23478 9 6.5V14.5C9 14.7652 9.10536 15.0196 9.29289 15.2071C9.48043 15.3946 9.73478 15.5 10 15.5H18C18.2652 15.5 18.5196 15.3946 18.7071 15.2071C18.8946 15.0196 19 14.7652 19 14.5V6.5C19 6.23478 18.8946 5.98043 18.7071 5.79289C18.5196 5.60536 18.2652 5.5 18 5.5H10ZM6 9.5C5.73478 9.5 5.48043 9.60536 5.29289 9.79289C5.10536 9.98043 5 10.2348 5 10.5V18.5C5 18.7652 5.10536 19.0196 5.29289 19.2071C5.48043 19.3946 5.73478 19.5 6 19.5H14C14.2652 19.5 14.5196 19.3946 14.7071 19.2071C14.8946 19.0196 15 18.7652 15 18.5V17.5H16V18.5C16 19.0304 15.7893 19.5391 15.4142 19.9142C15.0391 20.2893 14.5304 20.5 14 20.5H6C5.46957 20.5 4.96086 20.2893 4.58579 19.9142C4.21071 19.5391 4 19.0304 4 18.5V10.5C4 9.96957 4.21071 9.46086 4.58579 9.08579C4.96086 8.71071 5.46957 8.5 6 8.5H7V9.5H6Z" fill="#536373"/>
</g>
<defs>
<clipPath id="clip0_3320_4391">
<rect width="16" height="16" fill="white" transform="translate(4 4.5)"/>
</clipPath>
</defs>
</svg>
