<svg width="16" height="16" viewBox="0 0 20 21" fill="none" xmlns="http://www.w3.org/2000/svg">
    <path d="M16.104 8.39014C16.104 8.39014 15.6515 14.0026 15.389 16.3668C15.264 17.496 14.5665 18.1576 13.424 18.1785C11.2499 18.2176 9.0732 18.2201 6.89986 18.1743C5.8007 18.1518 5.11486 17.4818 4.99236 16.3726C4.7282 13.9876 4.2782 8.39014 4.2782 8.39014" stroke="currentColor" stroke-width="1.5" stroke-linecap="round" stroke-linejoin="round"/>
    <path d="M17.2568 5.69975H3.12512" stroke="currentColor" stroke-width="1.5" stroke-linecap="round" stroke-linejoin="round"/>
    <path d="M14.5337 5.69974C13.8796 5.69974 13.3162 5.23724 13.1879 4.5964L12.9854 3.58307C12.8604 3.11557 12.4371 2.79224 11.9546 2.79224H8.42707C7.94457 2.79224 7.52123 3.11557 7.39623 3.58307L7.19373 4.5964C7.0654 5.23724 6.50207 5.69974 5.8479 5.69974" stroke="currentColor" stroke-width="1.5" stroke-linecap="round" stroke-linejoin="round"/>
</svg>
