<svg xmlns="http://www.w3.org/2000/svg" width="16" height="16" viewBox="0 0 16 16" fill="none">
    <path
        fill-rule="evenodd"
        clip-rule="evenodd"
        d="M6.23817 1.33334L8.00004 1.33334C8.36823 1.33334 8.66671 1.63182 8.66671 2.00001C8.66671 2.3682 8.36823 2.66668 8.00004 2.66668H6.26671C5.50897 2.66668 4.98076 2.6672 4.56953 2.70079C4.16609 2.73376 3.9343 2.79521 3.75873 2.88466C3.3824 3.07641 3.07644 3.38237 2.88469 3.7587C2.79524 3.93427 2.73379 4.16606 2.70082 4.5695C2.66723 4.98073 2.66671 5.50894 2.66671 6.26668V9.73334C2.66671 10.4911 2.66723 11.0193 2.70082 11.4305C2.73379 11.834 2.79524 12.0658 2.88469 12.2413C3.07644 12.6176 3.3824 12.9236 3.75873 13.1154C3.9343 13.2048 4.16609 13.2663 4.56953 13.2992C4.98076 13.3328 5.50897 13.3333 6.26671 13.3333H9.73337C10.4911 13.3333 11.0193 13.3328 11.4305 13.2992C11.834 13.2663 12.0658 13.2048 12.2414 13.1154C12.6177 12.9236 12.9236 12.6176 13.1154 12.2413C13.2048 12.0658 13.2663 11.834 13.2993 11.4305C13.3329 11.0193 13.3334 10.4911 13.3334 9.73334V8.00001C13.3334 7.63182 13.6319 7.33334 14 7.33334C14.3682 7.33334 14.6667 7.63182 14.6667 8.00001V9.7619C14.6667 10.4844 14.6667 11.0672 14.6282 11.5391C14.5885 12.025 14.5046 12.4518 14.3034 12.8466C13.9838 13.4739 13.4739 13.9838 12.8467 14.3034C12.4518 14.5046 12.025 14.5884 11.5391 14.6281C11.0672 14.6667 10.4844 14.6667 9.76193 14.6667H6.23815C5.51564 14.6667 4.93287 14.6667 4.46096 14.6281C3.97506 14.5884 3.54827 14.5046 3.15341 14.3034C2.5262 13.9838 2.01626 13.4739 1.69669 12.8466C1.49549 12.4518 1.41162 12.025 1.37192 11.5391C1.33336 11.0672 1.33337 10.4844 1.33337 9.76188V6.23814C1.33337 5.51562 1.33336 4.93285 1.37192 4.46093C1.41162 3.97503 1.49549 3.54824 1.69669 3.15338C2.01626 2.52617 2.5262 2.01623 3.15341 1.69666C3.54827 1.49546 3.97506 1.41159 4.46096 1.37189C4.93288 1.33333 5.51565 1.33334 6.23817 1.33334ZM12.6291 2.6807C12.6237 2.68456 12.609 2.69558 12.5821 2.71967C12.5281 2.76782 12.4593 2.8363 12.3417 2.95389L9.26714 6.02845C9.22368 6.07191 9.20041 6.09526 9.18333 6.11331C9.17227 6.125 9.16903 6.12903 9.16925 6.12878C9.16932 6.1287 9.16973 6.12821 9.17033 6.1274C9.16449 6.13515 9.15937 6.14343 9.15505 6.15213C9.15552 6.15118 9.15579 6.15059 9.1558 6.15054C9.15586 6.15039 9.15368 6.15518 9.14826 6.17005C9.13975 6.19341 9.12927 6.22467 9.10984 6.28297L8.80622 7.19383L9.71708 6.89021C9.77539 6.87078 9.80664 6.8603 9.83 6.85179C9.84491 6.84636 9.84969 6.84419 9.84951 6.84425C9.84945 6.84427 9.84886 6.84453 9.84792 6.845C9.85635 6.84081 9.86439 6.83588 9.87193 6.83026C9.8735 6.82893 9.87795 6.82504 9.88674 6.81673C9.90479 6.79964 9.92814 6.77637 9.9716 6.73291L13.0462 3.65835C13.1638 3.54075 13.2322 3.47193 13.2804 3.41799C13.3045 3.39102 13.3155 3.37637 13.3194 3.37097C13.338 3.32976 13.338 3.28247 13.3194 3.24127C13.3155 3.23586 13.3045 3.22122 13.2804 3.19424C13.2322 3.14031 13.1638 3.07148 13.0462 2.95389C12.9286 2.83629 12.8597 2.76782 12.8058 2.71966C12.7788 2.69558 12.7642 2.68456 12.7588 2.6807C12.7176 2.662 12.6703 2.662 12.6291 2.6807ZM12.0322 1.48831C12.4492 1.28169 12.9387 1.28169 13.3556 1.48831C13.5791 1.59905 13.7683 1.78925 13.9419 1.96379C13.9577 1.97971 13.9734 1.9955 13.989 2.01108C14.0046 2.02666 14.0203 2.04236 14.0363 2.05819C14.2108 2.23177 14.401 2.42092 14.5117 2.6444C14.7184 3.06135 14.7184 3.55088 14.5117 3.96784C14.401 4.19131 14.2108 4.38046 14.0363 4.55405C14.0203 4.56987 14.0046 4.58557 13.989 4.60116L10.9144 7.67572C10.909 7.6811 10.9036 7.68655 10.8981 7.69205C10.8328 7.75752 10.7599 7.83056 10.6756 7.89414C10.602 7.94966 10.5234 7.99824 10.4409 8.03924C10.3463 8.08618 10.2484 8.1187 10.1606 8.14784C10.1532 8.15029 10.1459 8.15271 10.1387 8.15512L9.18909 8.47167C9.00886 8.53177 8.83286 8.59047 8.68541 8.62511C8.54131 8.65898 8.29757 8.7041 8.04103 8.61261C7.73611 8.50388 7.49617 8.26394 7.38744 7.95902C7.29596 7.70248 7.34107 7.45875 7.37494 7.31464C7.40959 7.16718 7.46828 6.99117 7.5284 6.81093C7.53106 6.80293 7.53373 6.79493 7.5364 6.78692L7.84493 5.86133C7.84734 5.85411 7.84976 5.8468 7.85221 5.83943C7.88135 5.75167 7.91387 5.65374 7.96081 5.55919C8.00182 5.47661 8.05039 5.39802 8.10591 5.32441C8.16949 5.24014 8.24253 5.16726 8.308 5.10195C8.3135 5.09646 8.31895 5.09102 8.32433 5.08564L11.3989 2.01108C11.4145 1.9955 11.4302 1.97971 11.446 1.96379C11.6196 1.78925 11.8087 1.59905 12.0322 1.48831Z"
        fill='currentColor'
    />
</svg>