<svg width="14" height="14" viewBox="0 0 14 14" fill="none" xmlns="http://www.w3.org/2000/svg">
<path d="M13.2737 11.1925L7.93133 1.71338C7.72595 1.3488 7.36529 1.1665 7.00463 1.1665C6.64396 1.1665 6.2833 1.3488 6.05538 1.71338L0.715554 11.1925C0.32759 11.9191 0.839557 12.8332 1.6633 12.8332H12.348C13.1685 12.8332 13.6819 11.9217 13.2737 11.1925ZM1.90975 11.5832L6.98208 2.5415L12.099 11.5832H1.90975ZM7.00463 9.11182C6.56983 9.11182 6.21718 9.47848 6.21718 9.93057C6.21718 10.3827 6.57058 10.7493 7.00563 10.7493C7.44068 10.7493 7.79208 10.3827 7.79208 9.93057C7.79107 9.479 7.44043 9.11182 7.00463 9.11182ZM6.41683 5.12484V7.62484C6.41683 7.97119 6.67402 8.24984 7.00463 8.24984C7.33523 8.24984 7.5835 7.96989 7.5835 7.62484V5.12484C7.5835 4.78109 7.33774 4.49984 7.00463 4.49984C6.67151 4.49984 6.41683 4.78109 6.41683 5.12484Z" fill="#FF5C5C"/>
</svg>
