<svg width="155" height="22" viewBox="0 0 155 22" fill="none" xmlns="http://www.w3.org/2000/svg">
<path d="M0.4 21V0.839999H4.712V21H0.4ZM2.416 21V17.696H15.408V21H2.416ZM2.416 12.32V9.072H14.428V12.32H2.416ZM2.416 4.144V0.839999H15.072V4.144H2.416ZM30.8386 21L25.2666 12.18L17.4826 0.839999H22.5226L27.7586 9.156L35.8786 21H30.8386ZM25.8826 9.128L31.3146 0.839999H35.8786L27.3106 12.74L25.8826 9.128ZM26.8626 12.852L21.5146 21H16.9506L25.4346 9.24L26.8626 12.852Z" fill="#0055FF"/>
<path d="M37.8336 21V0.839999H47.4096C48.9029 0.839999 50.1816 1.10133 51.2456 1.624C52.3283 2.14667 53.1589 2.87467 53.7376 3.808C54.3349 4.74133 54.6336 5.83333 54.6336 7.084C54.6336 8.33467 54.3349 9.436 53.7376 10.388C53.1403 11.34 52.3003 12.0867 51.2176 12.628C50.1536 13.1507 48.8843 13.412 47.4096 13.412H41.2496V10.108H47.1856C48.1749 10.108 48.9403 9.83733 49.4816 9.296C50.0416 8.736 50.3216 8.008 50.3216 7.112C50.3216 6.216 50.0416 5.49733 49.4816 4.956C48.9403 4.41467 48.1749 4.144 47.1856 4.144H42.1456V21H37.8336ZM66.3087 21.28C64.8154 21.28 63.4341 21.028 62.1647 20.524C60.9141 20.02 59.8221 19.3107 58.8887 18.396C57.9741 17.4627 57.2554 16.3613 56.7327 15.092C56.2287 13.804 55.9767 12.3853 55.9767 10.836C55.9767 8.78267 56.4154 6.99067 57.2927 5.46C58.1701 3.91067 59.3834 2.70667 60.9327 1.848C62.5007 0.989333 64.2834 0.559999 66.2807 0.559999C68.3154 0.559999 70.1074 0.989333 71.6567 1.848C73.2061 2.70667 74.4194 3.91067 75.2967 5.46C76.1927 7.00933 76.6407 8.81067 76.6407 10.864C76.6407 12.3947 76.3794 13.804 75.8567 15.092C75.3527 16.3613 74.6341 17.4627 73.7007 18.396C72.7861 19.3107 71.6941 20.02 70.4247 20.524C69.1741 21.028 67.8021 21.28 66.3087 21.28ZM66.2807 17.864C67.4567 17.864 68.4927 17.5653 69.3887 16.968C70.2847 16.3707 70.9847 15.5493 71.4887 14.504C72.0114 13.44 72.2727 12.208 72.2727 10.808C72.2727 9.42667 72.0207 8.22267 71.5167 7.196C71.0127 6.16933 70.3127 5.376 69.4167 4.816C68.5207 4.256 67.4754 3.976 66.2807 3.976C65.1047 3.976 64.0687 4.256 63.1727 4.816C62.2767 5.376 61.5767 6.16933 61.0727 7.196C60.5874 8.204 60.3447 9.408 60.3447 10.808C60.3447 12.2267 60.5967 13.468 61.1007 14.532C61.6047 15.5773 62.3047 16.3987 63.2007 16.996C64.0967 17.5747 65.1234 17.864 66.2807 17.864ZM88.5613 21.28C87.1053 21.28 85.7613 21.028 84.5293 20.524C83.2973 20.0013 82.2239 19.2733 81.3093 18.34C80.4133 17.4067 79.7133 16.3053 79.2093 15.036C78.7053 13.748 78.4533 12.348 78.4533 10.836C78.4533 9.324 78.6959 7.94267 79.1813 6.692C79.6853 5.44133 80.3853 4.35867 81.2813 3.444C82.1959 2.51067 83.2693 1.80133 84.5013 1.316C85.7333 0.812 87.0866 0.559999 88.5613 0.559999C90.2226 0.559999 91.7159 0.886666 93.0413 1.54C94.3853 2.17467 95.4773 3.08 96.3173 4.256C97.1759 5.41333 97.6986 6.776 97.8853 8.344H93.6853C93.4426 6.90667 92.8546 5.824 91.9213 5.096C90.9879 4.34933 89.8773 3.976 88.5893 3.976C87.4506 3.976 86.4426 4.24667 85.5653 4.788C84.7066 5.32933 84.0346 6.11333 83.5493 7.14C83.0639 8.148 82.8213 9.37067 82.8213 10.808C82.8213 12.264 83.0639 13.524 83.5493 14.588C84.0533 15.6333 84.7439 16.4453 85.6213 17.024C86.4986 17.584 87.5066 17.864 88.6453 17.864C89.8586 17.864 90.9319 17.5 91.8653 16.772C92.7986 16.044 93.4053 14.9613 93.6853 13.524H97.9413C97.6986 15.092 97.1479 16.464 96.2893 17.64C95.4306 18.7973 94.3386 19.6933 93.0133 20.328C91.6879 20.9627 90.2039 21.28 88.5613 21.28ZM100.013 21V0.839999H104.325V21H100.013ZM102.953 10.528L112.025 0.839999H117.765L108.189 10.528H102.953ZM112.473 21L102.897 10.528H108.189L118.325 21H112.473ZM120.22 21V0.839999H124.532V21H120.22ZM122.236 21V17.696H135.228V21H122.236ZM122.236 12.32V9.072H134.248V12.32H122.236ZM122.236 4.144V0.839999H134.892V4.144H122.236ZM143.518 21V4.144H136.938V0.839999H154.41V4.144H147.83V21H143.518Z" fill="var(--text-primary)"/>
</svg>
