<svg width="119" height="16" viewBox="0 0 119 16" fill="none" xmlns="http://www.w3.org/2000/svg">
<path d="M110.516 15.7838V2.76754H105.434V0.216187H118.926V2.76754H113.845V15.7838H110.516Z" fill="var(--text-primary)"/>
<path d="M92.5254 15.7838V0.216187H95.8551V15.7838H92.5254ZM94.0822 15.7838V13.2324H104.115V15.7838H94.0822ZM94.0822 9.08105V6.57294H103.358V9.08105H94.0822ZM94.0822 2.76754V0.216187H103.855V2.76754H94.0822Z" fill="var(--text-primary)"/>
<path d="M76.9215 15.7838V0.216187H80.2512V15.7838H76.9215ZM79.1918 7.69727L86.1972 0.216187H90.6296L83.235 7.69727H79.1918ZM86.5431 15.7838L79.1485 7.69727H83.235L91.062 15.7838H86.5431Z" fill="var(--text-primary)"/>
<path d="M68.0782 16C66.9539 16 65.9161 15.8054 64.9647 15.4162C64.0134 15.0126 63.1845 14.4504 62.4782 13.7297C61.7863 13.009 61.2458 12.1586 60.8566 11.1784C60.4674 10.1838 60.2728 9.1027 60.2728 7.93513C60.2728 6.76757 60.4602 5.7009 60.835 4.73513C61.2242 3.76937 61.7647 2.93333 62.4566 2.22703C63.1629 1.50631 63.9917 0.958558 64.9431 0.583784C65.8944 0.194595 66.9395 0 68.0782 0C69.3611 0 70.5143 0.252252 71.5377 0.756756C72.5755 1.24685 73.4188 1.94595 74.0674 2.85405C74.7305 3.74775 75.1341 4.8 75.2782 6.01081H72.035C71.8476 4.9009 71.3936 4.06486 70.6728 3.5027C69.9521 2.92613 69.0944 2.63784 68.0999 2.63784C67.2206 2.63784 66.4422 2.84685 65.7647 3.26486C65.1017 3.68288 64.5827 4.28829 64.208 5.08108C63.8332 5.85946 63.6458 6.8036 63.6458 7.91351C63.6458 9.03784 63.8332 10.0108 64.208 10.8324C64.5972 11.6396 65.1305 12.2667 65.808 12.7135C66.4854 13.1459 67.2638 13.3622 68.1431 13.3622C69.08 13.3622 69.9089 13.0811 70.6296 12.5189C71.3503 11.9568 71.8188 11.1207 72.035 10.0108H75.3215C75.1341 11.2216 74.7089 12.2811 74.0458 13.1892C73.3827 14.0829 72.5395 14.7748 71.5161 15.2649C70.4926 15.755 69.3467 16 68.0782 16Z" fill="var(--text-primary)"/>
<path d="M50.8948 16C49.7416 16 48.6749 15.8054 47.6948 15.4162C46.729 15.027 45.8858 14.4793 45.165 13.773C44.4587 13.0523 43.9038 12.2018 43.5002 11.2216C43.111 10.227 42.9164 9.13153 42.9164 7.93513C42.9164 6.34955 43.2551 4.96577 43.9326 3.78378C44.6101 2.58739 45.547 1.65766 46.7434 0.994595C47.9542 0.331532 49.3308 0 50.8731 0C52.4443 0 53.8281 0.331532 55.0245 0.994595C56.2209 1.65766 57.1578 2.58739 57.8353 3.78378C58.5272 4.98018 58.8731 6.37117 58.8731 7.95676C58.8731 9.13874 58.6713 10.227 58.2677 11.2216C57.8785 12.2018 57.3236 13.0523 56.6029 13.773C55.8966 14.4793 55.0533 15.027 54.0731 15.4162C53.1074 15.8054 52.0479 16 50.8948 16ZM50.8731 13.3622C51.7812 13.3622 52.5812 13.1315 53.2731 12.6703C53.965 12.209 54.5056 11.5748 54.8948 10.7676C55.2984 9.94594 55.5002 8.99459 55.5002 7.91351C55.5002 6.84685 55.3056 5.91712 54.9164 5.12432C54.5272 4.33153 53.9866 3.71892 53.2948 3.28649C52.6029 2.85405 51.7957 2.63784 50.8731 2.63784C49.965 2.63784 49.165 2.85405 48.4731 3.28649C47.7812 3.71892 47.2407 4.33153 46.8515 5.12432C46.4767 5.9027 46.2894 6.83243 46.2894 7.91351C46.2894 9.00901 46.4839 9.96757 46.8731 10.7892C47.2623 11.5964 47.8029 12.2306 48.4948 12.6919C49.1866 13.1387 49.9794 13.3622 50.8731 13.3622Z" fill="var(--text-primary)"/>
<path d="M28.9062 15.7838V0.216187H36.3008C37.454 0.216187 38.4414 0.417988 39.263 0.821592C40.099 1.2252 40.7405 1.78736 41.1873 2.50808C41.6486 3.2288 41.8792 4.07204 41.8792 5.03781C41.8792 6.00357 41.6486 6.85402 41.1873 7.58916C40.7261 8.3243 40.0774 8.90087 39.2414 9.31889C38.4198 9.72249 37.4396 9.92429 36.3008 9.92429H31.5441V7.37294H36.1279C36.8918 7.37294 37.4828 7.16393 37.9008 6.74592C38.3333 6.31348 38.5495 5.75132 38.5495 5.05943C38.5495 4.36754 38.3333 3.81258 37.9008 3.39457C37.4828 2.97655 36.8918 2.76754 36.1279 2.76754H32.236V15.7838H28.9062Z" fill="var(--text-primary)"/>
<path d="M23.5048 15.7838L19.2021 8.97294L13.1913 0.216187H17.0832L21.1265 6.63781L27.3967 15.7838H23.5048ZM19.6778 6.61619L23.8724 0.216187H27.3967L20.7805 9.40538L19.6778 6.61619ZM20.4346 9.49186L16.3048 15.7838H12.7805L19.3319 6.70267L20.4346 9.49186Z" fill="#3377FF"/>
<path d="M0 15.7838V0.216187H3.32973V15.7838H0ZM1.55676 15.7838V13.2324H11.5892V15.7838H1.55676ZM1.55676 9.08105V6.57294H10.8324V9.08105H1.55676ZM1.55676 2.76754V0.216187H11.3297V2.76754H1.55676Z" fill="#3377FF"/>
</svg>