<svg width="315" height="43" viewBox="0 0 315 43" fill="none" xmlns="http://www.w3.org/2000/svg">
<path d="M292.558 42V7.64381H279.147V0.909546H314.758V7.64381H301.347V42H292.558Z" fill="var(--text-primary)"/>
<path d="M245.073 42V0.909546H253.862V42H245.073ZM249.182 42V35.2657H275.663V42H249.182ZM249.182 24.3083V17.6881H273.665V24.3083H249.182ZM249.182 7.64381V0.909546H274.978V7.64381H249.182Z" fill="var(--text-primary)"/>
<path d="M203.887 42V0.909546H212.676V42H203.887ZM209.879 20.6558L228.37 0.909546H240.069L220.551 20.6558H209.879ZM229.283 42L209.765 20.6558H220.551L241.211 42H229.283Z" fill="var(--text-primary)"/>
<path d="M180.545 42.5707C177.578 42.5707 174.838 42.0571 172.327 41.0298C169.816 39.9645 167.628 38.4807 165.764 36.5784C163.938 34.676 162.511 32.4313 161.484 29.8441C160.457 27.2189 159.943 24.3654 159.943 21.2836C159.943 18.2018 160.438 15.3863 161.427 12.8372C162.454 10.2881 163.881 8.08137 165.707 6.21708C167.571 4.31475 169.759 2.86897 172.27 1.87976C174.781 0.852498 177.54 0.338867 180.545 0.338867C183.931 0.338867 186.975 1.00468 189.676 2.33632C192.416 3.62991 194.642 5.47517 196.354 7.87211C198.104 10.231 199.169 13.0084 199.55 16.2043H190.989C190.495 13.2747 189.296 11.068 187.394 9.58422C185.491 8.06235 183.228 7.30141 180.602 7.30141C178.282 7.30141 176.227 7.85309 174.439 8.95644C172.689 10.0598 171.319 11.6578 170.33 13.7503C169.341 15.8049 168.846 18.2969 168.846 21.2265C168.846 24.1942 169.341 26.7623 170.33 28.931C171.357 31.0616 172.765 32.7166 174.553 33.8961C176.341 35.0375 178.396 35.6082 180.717 35.6082C183.19 35.6082 185.377 34.8663 187.28 33.3824C189.182 31.8986 190.418 29.6919 190.989 26.7623H199.664C199.169 29.9582 198.047 32.7547 196.297 35.1516C194.546 37.5105 192.321 39.3367 189.619 40.6303C186.918 41.9239 183.893 42.5707 180.545 42.5707Z" fill="var(--text-primary)"/>
<path d="M135.19 42.5707C132.146 42.5707 129.331 42.0571 126.743 41.0298C124.194 40.0026 121.968 38.5568 120.066 36.6925C118.202 34.7902 116.737 32.5454 115.672 29.9582C114.644 27.333 114.131 24.4415 114.131 21.2836C114.131 17.0984 115.025 13.446 116.813 10.3261C118.601 7.16825 121.074 4.71424 124.232 2.96409C127.428 1.21394 131.062 0.338867 135.133 0.338867C139.28 0.338867 142.932 1.21394 146.09 2.96409C149.248 4.71424 151.721 7.16825 153.509 10.3261C155.335 13.484 156.249 17.1555 156.249 21.3407C156.249 24.4605 155.716 27.333 154.651 29.9582C153.623 32.5454 152.159 34.7902 150.256 36.6925C148.392 38.5568 146.166 40.0026 143.579 41.0298C141.03 42.0571 138.233 42.5707 135.19 42.5707ZM135.133 35.6082C137.53 35.6082 139.641 34.9994 141.467 33.7819C143.294 32.5644 144.72 30.8904 145.748 28.7598C146.813 26.5911 147.346 24.08 147.346 21.2265C147.346 18.4111 146.832 15.957 145.805 13.8645C144.777 11.7719 143.351 10.1549 141.524 9.01352C139.698 7.87212 137.568 7.30141 135.133 7.30141C132.736 7.30141 130.624 7.87212 128.798 9.01352C126.972 10.1549 125.545 11.7719 124.518 13.8645C123.528 15.919 123.034 18.373 123.034 21.2265C123.034 24.1181 123.547 26.6482 124.575 28.8168C125.602 30.9474 127.029 32.6215 128.855 33.839C130.681 35.0184 132.774 35.6082 135.133 35.6082Z" fill="var(--text-primary)"/>
<path d="M77.1512 42V0.909546H96.6692C99.7129 0.909546 102.319 1.4422 104.488 2.50751C106.695 3.57281 108.388 5.05664 109.567 6.95897C110.785 8.86131 111.393 11.087 111.393 13.6362C111.393 16.1853 110.785 18.4301 109.567 20.3704C108.35 22.3108 106.637 23.8327 104.431 24.936C102.262 26.0014 99.6749 26.534 96.6692 26.534H84.1138V19.7997H96.2126C98.2291 19.7997 99.789 19.2481 100.892 18.1447C102.034 17.0033 102.604 15.5195 102.604 13.6932C102.604 11.867 102.034 10.4022 100.892 9.29885C99.789 8.19549 98.2291 7.64381 96.2126 7.64381H85.94V42H77.1512Z" fill="var(--text-primary)"/>
<path d="M62.894 42L51.5371 24.0229L35.6716 0.909546H45.9442L56.6163 17.8594L73.1666 42H62.894ZM52.7926 17.8023L63.8642 0.909546H73.1666L55.7032 25.1643L52.7926 17.8023ZM54.7901 25.3926L43.8897 42H34.5873L51.8795 18.0306L54.7901 25.3926Z" fill="#3377FF"/>
<path d="M0.853516 42V0.909546H9.64231V42H0.853516ZM4.96256 42V35.2657H31.4431V42H4.96256ZM4.96256 24.3083V17.6881H29.4456V24.3083H4.96256ZM4.96256 7.64381V0.909546H30.7582V7.64381H4.96256Z" fill="#3377FF"/>
</svg>
