<svg width="16" height="16" viewBox="0 0 16 16" fill="none" xmlns="http://www.w3.org/2000/svg">
<path d="M7.49987 4.79987V5.29987H8.49987V4.79987H7.49987ZM8.49987 4.7892V4.2892H7.49987V4.7892H8.49987ZM8.49987 11.7332V7.46654H7.49987V11.7332H8.49987ZM8.49987 4.79987V4.7892H7.49987V4.79987H8.49987ZM6.39987 8.49987H7.99987V7.49987H6.39987V8.49987ZM6.39987 11.6999H9.59987V10.6999H6.39987V11.6999ZM7.99987 1.0332C11.8475 1.0332 14.9665 4.15229 14.9665 7.99987H15.9665C15.9665 3.6 12.3997 0.0332035 7.99987 0.0332031V1.0332ZM1.0332 7.99987C1.0332 4.15229 4.15229 1.0332 7.99987 1.0332V0.0332031C3.6 0.0332028 0.0332035 3.6 0.0332031 7.99987H1.0332ZM7.99987 14.9665C4.15229 14.9665 1.0332 11.8475 1.0332 7.99987H0.0332031C0.0332028 12.3997 3.6 15.9665 7.99987 15.9665V14.9665ZM7.99987 15.9665C12.3997 15.9665 15.9665 12.3997 15.9665 7.99987H14.9665C14.9665 11.8475 11.8475 14.9665 7.99987 14.9665V15.9665Z" fill="#536373"/>
</svg>
