<svg width="15" height="16" viewBox="0 0 15 16" fill="none" xmlns="http://www.w3.org/2000/svg">
<path d="M8.25 1.5V0.75H6.75V1.5H8.25ZM6.75 5V5.75H8.25V5H6.75ZM8.25 11V10.25H6.75V11H8.25ZM6.75 14.5V15.25H8.25V14.5H6.75ZM4.5 8.74548H5.25V7.24548H4.5V8.74548ZM1 7.24548H0.25V8.74548H1V7.24548ZM13.999 8.75L14.749 8.75097L14.751 7.25097L14.001 7.25L13.999 8.75ZM10.501 7.24548L9.75097 7.24452L9.74903 8.74451L10.499 8.74548L10.501 7.24548ZM6.75 1.5V5H8.25V1.5H6.75ZM6.75 11V14.5H8.25V11H6.75ZM4.5 7.24548H1V8.74548H4.5V7.24548ZM14.001 7.25L10.501 7.24548L10.499 8.74548L13.999 8.75L14.001 7.25ZM1.96967 3.53033L4.96967 6.53033L6.03033 5.46967L3.03033 2.46967L1.96967 3.53033ZM11.9697 2.46967L8.96967 5.46967L10.0303 6.53033L13.0303 3.53033L11.9697 2.46967ZM3.03033 13.5303L6.03033 10.5303L4.96967 9.46967L1.96967 12.4697L3.03033 13.5303ZM8.96967 10.5303L11.9697 13.5303L13.0303 12.4697L10.0303 9.46967L8.96967 10.5303Z" fill="#0A7AFF"/>
</svg>
