<svg width="78" height="16" viewBox="0 0 78 16" fill="none" xmlns="http://www.w3.org/2000/svg">
<path d="M2.35795 0.454545L6.67614 12.6989H6.84659L11.1648 0.454545H13.0114L7.67045 15H5.85227L0.511364 0.454545H2.35795ZM15.277 15V0.454545H24.0554V2.01705H17.0384V6.93182H23.6009V8.49432H17.0384V13.4375H24.169V15H15.277ZM38.9347 5H37.1733C37.0691 4.49337 36.8868 4.0483 36.6264 3.66477C36.3707 3.28125 36.0582 2.95928 35.6889 2.69886C35.3243 2.43371 34.9195 2.23485 34.4744 2.10227C34.0294 1.9697 33.5653 1.90341 33.0824 1.90341C32.2017 1.90341 31.4039 2.12595 30.6889 2.57102C29.9787 3.0161 29.4129 3.67188 28.9915 4.53835C28.5748 5.40483 28.3665 6.4678 28.3665 7.72727C28.3665 8.98674 28.5748 10.0497 28.9915 10.9162C29.4129 11.7827 29.9787 12.4384 30.6889 12.8835C31.4039 13.3286 32.2017 13.5511 33.0824 13.5511C33.5653 13.5511 34.0294 13.4848 34.4744 13.3523C34.9195 13.2197 35.3243 13.0232 35.6889 12.7628C36.0582 12.4976 36.3707 12.1733 36.6264 11.7898C36.8868 11.4015 37.0691 10.9564 37.1733 10.4545H38.9347C38.8021 11.1979 38.5606 11.8632 38.2102 12.4503C37.8598 13.0374 37.4242 13.5369 36.9034 13.9489C36.3826 14.3561 35.7978 14.6662 35.1491 14.8793C34.5052 15.0923 33.8163 15.1989 33.0824 15.1989C31.8419 15.1989 30.7386 14.8958 29.7727 14.2898C28.8068 13.6837 28.0469 12.822 27.4929 11.7045C26.9389 10.5871 26.6619 9.26136 26.6619 7.72727C26.6619 6.19318 26.9389 4.86742 27.4929 3.75C28.0469 2.63258 28.8068 1.77083 29.7727 1.16477C30.7386 0.558712 31.8419 0.255681 33.0824 0.255681C33.8163 0.255681 34.5052 0.362215 35.1491 0.575284C35.7978 0.788352 36.3826 1.10085 36.9034 1.51278C37.4242 1.91998 37.8598 2.41714 38.2102 3.00426C38.5606 3.58665 38.8021 4.25189 38.9347 5Z" fill="#3377FF"/>
<path d="M42.3775 15H40.5309L45.8718 0.454545H47.69L53.0309 15H51.1843L46.8377 2.75568H46.7241L42.3775 15ZM43.0593 9.31818H50.5025V10.8807H43.0593V9.31818ZM55.2965 15V0.454545H57.0579V13.4375H63.8192V15H55.2965ZM75.9233 5C75.767 4.52178 75.5611 4.09328 75.3054 3.71449C75.0545 3.33097 74.7538 3.00426 74.4034 2.73438C74.0578 2.46449 73.6648 2.25852 73.2244 2.11648C72.7841 1.97443 72.3011 1.90341 71.7756 1.90341C70.9138 1.90341 70.1302 2.12595 69.4247 2.57102C68.7192 3.0161 68.1581 3.67188 67.7415 4.53835C67.3248 5.40483 67.1165 6.4678 67.1165 7.72727C67.1165 8.98674 67.3272 10.0497 67.7486 10.9162C68.17 11.7827 68.7405 12.4384 69.4602 12.8835C70.1799 13.3286 70.9896 13.5511 71.8892 13.5511C72.7225 13.5511 73.4564 13.3736 74.0909 13.0185C74.7301 12.6586 75.2273 12.152 75.5824 11.4986C75.9422 10.8404 76.1222 10.0663 76.1222 9.17614L76.6619 9.28977H72.2869V7.72727H77.8267V9.28977C77.8267 10.4877 77.571 11.5294 77.0597 12.4148C76.553 13.3002 75.8523 13.9867 74.9574 14.4744C74.0672 14.9574 73.0445 15.1989 71.8892 15.1989C70.6013 15.1989 69.4697 14.8958 68.4943 14.2898C67.5237 13.6837 66.7661 12.822 66.2216 11.7045C65.6818 10.5871 65.4119 9.26136 65.4119 7.72727C65.4119 6.5767 65.5658 5.54214 65.8736 4.62358C66.1861 3.70028 66.6264 2.9143 67.1946 2.26562C67.7628 1.61695 68.4351 1.11979 69.2116 0.774148C69.9882 0.428503 70.8428 0.255681 71.7756 0.255681C72.5426 0.255681 73.2576 0.371685 73.9205 0.603693C74.5881 0.830965 75.1823 1.1553 75.7031 1.5767C76.2287 1.99337 76.6667 2.4929 77.017 3.07528C77.3674 3.65294 77.6089 4.29451 77.7415 5H75.9233Z" fill="white"/>
</svg>
