<svg width="99" height="19" viewBox="0 0 99 19" fill="none" xmlns="http://www.w3.org/2000/svg">
<path d="M4.67045 0.545454L8.8892 13.8068H9.05114L13.2784 0.545454H17.3693L11.3523 18H6.59659L0.571023 0.545454H4.67045ZM19.4702 18V0.545454H31.2315V3.58807H23.1605V7.74716H30.6264V10.7898H23.1605V14.9574H31.2656V18H19.4702ZM49.5661 6.65625H45.8331C45.7649 6.1733 45.6257 5.74432 45.4155 5.36932C45.2053 4.98864 44.9354 4.66477 44.6058 4.39773C44.2763 4.13068 43.8956 3.92614 43.4638 3.78409C43.0376 3.64205 42.5746 3.57102 42.0746 3.57102C41.1712 3.57102 40.3842 3.79545 39.7138 4.24432C39.0433 4.6875 38.5234 5.33523 38.1541 6.1875C37.7848 7.03409 37.6001 8.0625 37.6001 9.27273C37.6001 10.517 37.7848 11.5625 38.1541 12.4091C38.5291 13.2557 39.0518 13.8949 39.7223 14.3267C40.3928 14.7585 41.1683 14.9744 42.049 14.9744C42.5433 14.9744 43.0007 14.9091 43.4212 14.7784C43.8473 14.6477 44.2251 14.4574 44.5547 14.2074C44.8842 13.9517 45.157 13.642 45.3729 13.2784C45.5945 12.9148 45.7479 12.5 45.8331 12.0341L49.5661 12.0511C49.4695 12.8523 49.228 13.625 48.8416 14.3693C48.4609 15.108 47.9467 15.7699 47.299 16.3551C46.657 16.9347 45.8899 17.3949 44.9979 17.7358C44.1115 18.071 43.1087 18.2386 41.9893 18.2386C40.4325 18.2386 39.0405 17.8864 37.8132 17.1818C36.5916 16.4773 35.6257 15.4574 34.9155 14.1222C34.2109 12.7869 33.8587 11.1705 33.8587 9.27273C33.8587 7.36932 34.2166 5.75 34.9325 4.41477C35.6484 3.07955 36.62 2.0625 37.8473 1.36364C39.0746 0.659091 40.4553 0.306818 41.9893 0.306818C43.0007 0.306818 43.9382 0.448863 44.8018 0.732954C45.6712 1.01705 46.4411 1.43182 47.1115 1.97727C47.782 2.51704 48.3274 3.17898 48.7479 3.96307C49.174 4.74716 49.4467 5.64489 49.5661 6.65625Z" fill="#3377FF"/>
<path d="M54.8928 18H50.9382L56.9638 0.545454H61.7195L67.7365 18H63.782L59.4098 4.53409H59.2734L54.8928 18ZM54.6456 11.1392H63.9865V14.0199H54.6456V11.1392ZM69.8374 18V0.545454H73.5277V14.9574H81.0107V18H69.8374ZM94.3487 6.1875C94.2294 5.77273 94.0618 5.40625 93.8459 5.08807C93.63 4.7642 93.3658 4.49148 93.0533 4.26989C92.7464 4.04261 92.3942 3.86932 91.9964 3.75C91.6044 3.63068 91.1697 3.57102 90.6925 3.57102C89.8004 3.57102 89.0163 3.79261 88.3402 4.23579C87.6697 4.67898 87.147 5.32386 86.772 6.17045C86.397 7.01136 86.2095 8.03977 86.2095 9.25568C86.2095 10.4716 86.3942 11.5057 86.7635 12.358C87.1328 13.2102 87.6555 13.8608 88.3317 14.3097C89.0078 14.7528 89.8061 14.9744 90.7266 14.9744C91.5618 14.9744 92.2749 14.8267 92.8658 14.5312C93.4624 14.2301 93.9169 13.8068 94.2294 13.2614C94.5476 12.7159 94.7067 12.071 94.7067 11.3267L95.4567 11.4375H90.9567V8.65909H98.2607V10.858C98.2607 12.392 97.9368 13.7102 97.2891 14.8125C96.6413 15.9091 95.7493 16.7557 94.6129 17.3523C93.4766 17.9432 92.1754 18.2386 90.7095 18.2386C89.0732 18.2386 87.6357 17.8778 86.397 17.1562C85.1584 16.429 84.1925 15.3977 83.4993 14.0625C82.8118 12.7216 82.468 11.1307 82.468 9.28977C82.468 7.875 82.6726 6.61364 83.0817 5.50568C83.4964 4.39205 84.076 3.44886 84.8203 2.67614C85.5646 1.90341 86.4311 1.31534 87.4197 0.911931C88.4084 0.508522 89.4794 0.306818 90.6328 0.306818C91.6214 0.306818 92.5419 0.451704 93.3942 0.741477C94.2464 1.02557 95.0021 1.42898 95.6612 1.9517C96.326 2.47443 96.8686 3.09659 97.2891 3.81818C97.7095 4.53409 97.9794 5.32386 98.0987 6.1875H94.3487Z" fill="white"/>
</svg>
