<svg width="24" height="24" viewBox="0 0 24 24" fill="none" xmlns="http://www.w3.org/2000/svg">
<path fill-rule="evenodd" clip-rule="evenodd" d="M9.77781 8.67473C10.4356 8.23521 11.209 8.00061 12.0001 8.00061C13.061 8.00061 14.0784 8.42204 14.8285 9.17218C15.5787 9.92233 16.0001 10.9397 16.0001 12.0006C16.0001 12.7917 15.7655 13.5651 15.326 14.2229C14.8864 14.8807 14.2617 15.3934 13.5308 15.6961C12.7999 15.9989 11.9957 16.0781 11.2197 15.9238C10.4438 15.7694 9.73108 15.3884 9.17167 14.829C8.61226 14.2696 8.23129 13.5569 8.07695 12.781C7.92261 12.005 8.00182 11.2008 8.30457 10.4699C8.60733 9.73897 9.12002 9.11426 9.77781 8.67473ZM10.889 13.6635C11.2179 13.8833 11.6045 14.0006 12.0001 14.0006C12.5305 14.0006 13.0392 13.7899 13.4143 13.4148C13.7894 13.0398 14.0001 12.531 14.0001 12.0006C14.0001 11.605 13.8828 11.2184 13.663 10.8895C13.4433 10.5606 13.1309 10.3042 12.7655 10.1529C12.4 10.0015 11.9979 9.96187 11.6099 10.039C11.222 10.1162 10.8656 10.3067 10.5859 10.5864C10.3062 10.8661 10.1157 11.2225 10.0385 11.6104C9.96135 11.9984 10.001 12.4005 10.1523 12.766C10.3037 13.1314 10.5601 13.4438 10.889 13.6635Z" fill="none"/>
<path fill-rule="evenodd" clip-rule="evenodd" d="M20.85 13.644L21.294 13.9L21.295 13.899C21.9846 14.2968 22.4879 14.9523 22.6942 15.7212C22.9005 16.4901 22.7929 17.3094 22.395 17.999C21.9972 18.6886 21.3418 19.1918 20.5729 19.3981C19.804 19.6044 18.9846 19.4968 18.295 19.099L17.848 18.841C17.0082 19.5604 16.0427 20.1184 15 20.487V21C15 21.7956 14.684 22.5587 14.1214 23.1213C13.5588 23.6839 12.7957 24 12 24C11.2044 24 10.4413 23.6839 9.87872 23.1213C9.31611 22.5587 9.00004 21.7956 9.00004 21V20.487C7.95702 20.1199 6.99081 19.5632 6.15004 18.845L5.70504 19.102C5.01548 19.4998 4.19612 19.6074 3.42723 19.4011C2.65833 19.1948 2.00287 18.6916 1.60504 18.002C1.20722 17.3124 1.09962 16.4931 1.30591 15.7242C1.5122 14.9553 2.01548 14.2998 2.70504 13.902L3.14904 13.646C2.94915 12.5584 2.94915 11.4436 3.14904 10.356L2.70504 10.1C2.01548 9.70218 1.5122 9.04672 1.30591 8.27782C1.09962 7.50892 1.20722 6.68956 1.60504 6C2.00287 5.31044 2.65833 4.80715 3.42723 4.60086C4.19612 4.39457 5.01548 4.50218 5.70504 4.9L6.15204 5.159C6.99189 4.4396 7.95743 3.88157 9.00004 3.513V3C9.00004 2.20435 9.31611 1.44129 9.87872 0.87868C10.4413 0.31607 11.2044 0 12 0C12.7957 0 13.5588 0.31607 14.1214 0.87868C14.684 1.44129 15 2.20435 15 3V3.513C16.0427 3.88025 17.0086 4.43692 17.849 5.155L18.294 4.898C18.6355 4.70102 19.0124 4.57321 19.4032 4.52189C19.794 4.47056 20.1911 4.49672 20.5719 4.59886C20.9526 4.70101 21.3095 4.87714 21.6221 5.1172C21.9348 5.35727 22.1971 5.65656 22.394 5.998C22.591 6.33944 22.7188 6.71633 22.7702 7.10716C22.8215 7.49799 22.7953 7.8951 22.6932 8.27582C22.591 8.65654 22.4149 9.01341 22.1748 9.32606C21.9348 9.63871 21.6355 9.90102 21.294 10.098L20.85 10.354C21.0499 11.4416 21.0499 12.5564 20.85 13.644ZM18.746 13.874C19.0847 12.6469 19.0847 11.3511 18.746 10.124V10.125C18.6878 9.9121 18.7016 9.68591 18.7854 9.48169C18.8691 9.27748 19.0181 9.10671 19.209 8.996L20.293 8.37C20.4077 8.30482 20.5083 8.2176 20.5891 8.11337C20.6699 8.00915 20.7293 7.88997 20.7639 7.76269C20.7984 7.63542 20.8074 7.50257 20.7904 7.37179C20.7734 7.24101 20.7307 7.11488 20.6648 7.00067C20.5989 6.88646 20.511 6.78642 20.4062 6.70631C20.3015 6.6262 20.1819 6.56761 20.0544 6.5339C19.9269 6.50019 19.794 6.49204 19.6633 6.5099C19.5327 6.52777 19.4068 6.5713 19.293 6.638L18.209 7.265C18.0169 7.37626 17.7933 7.42044 17.5733 7.39057C17.3533 7.36069 17.1495 7.25847 16.994 7.1C16.1044 6.18988 14.9831 5.54015 13.751 5.221C13.5361 5.16573 13.3456 5.04052 13.2096 4.86508C13.0737 4.68964 12.9999 4.47396 13 4.252V3C13 2.73478 12.8947 2.48043 12.7071 2.29289C12.5196 2.10536 12.2653 2 12 2C11.7348 2 11.4805 2.10536 11.2929 2.29289C11.1054 2.48043 11 2.73478 11 3V4.252C11.001 4.47464 10.9277 4.69125 10.7917 4.8675C10.6556 5.04375 10.4647 5.16956 10.249 5.225C9.01747 5.54302 7.89613 6.19134 7.00604 7.1C6.85015 7.25759 6.64632 7.35893 6.42657 7.38807C6.20682 7.41721 5.98362 7.37251 5.79204 7.261L4.70604 6.633C4.47623 6.50039 4.20316 6.46451 3.94689 6.53324C3.69062 6.60197 3.47215 6.76969 3.33954 6.9995C3.20693 7.22931 3.17105 7.50239 3.23978 7.75865C3.30851 8.01492 3.47623 8.23339 3.70604 8.366L4.79004 8.992C4.98136 9.10241 5.13074 9.27305 5.21486 9.47729C5.29898 9.68153 5.31311 9.90788 5.25504 10.121C4.9164 11.3481 4.9164 12.6439 5.25504 13.871C5.31417 14.0846 5.30069 14.3117 5.2167 14.5168C5.13272 14.7219 4.98299 14.8933 4.79104 15.004L3.70704 15.63C3.5924 15.6952 3.49178 15.7824 3.41098 15.8866C3.33017 15.9909 3.27079 16.11 3.23623 16.2373C3.20168 16.3646 3.19264 16.4974 3.20964 16.6282C3.22664 16.759 3.26934 16.8851 3.33528 16.9993C3.40122 17.1135 3.4891 17.2136 3.59386 17.2937C3.69863 17.3738 3.8182 17.4324 3.9457 17.4661C4.0732 17.4998 4.2061 17.508 4.33677 17.4901C4.46743 17.4722 4.59327 17.4287 4.70704 17.362L5.79104 16.735C5.98315 16.6237 6.20682 16.5796 6.4268 16.6094C6.64678 16.6393 6.85057 16.7415 7.00604 16.9C7.89537 17.81 9.01639 18.4597 10.248 18.779C10.463 18.8343 10.6535 18.9595 10.7894 19.1349C10.9254 19.3104 10.9992 19.526 10.999 19.748V21C10.999 21.2652 11.1044 21.5196 11.2919 21.7071C11.4795 21.8946 11.7338 22 11.999 22C12.2643 22 12.5186 21.8946 12.7062 21.7071C12.8937 21.5196 12.999 21.2652 12.999 21V19.747C12.9989 19.525 13.0727 19.3094 13.2086 19.1339C13.3446 18.9585 13.5351 18.8333 13.75 18.778C14.9816 18.46 16.103 17.8117 16.993 16.903C17.1485 16.7445 17.3523 16.6423 17.5723 16.6124C17.7923 16.5826 18.0159 16.6267 18.208 16.738L19.294 17.366C19.5239 17.4986 19.7969 17.5345 20.0532 17.4658C20.3095 17.397 20.5279 17.2293 20.6605 16.9995C20.7932 16.7697 20.829 16.4966 20.7603 16.2403C20.6916 15.9841 20.5239 15.7656 20.294 15.633L19.21 15.007C19.0181 14.8963 18.8684 14.7249 18.7844 14.5198C18.7004 14.3147 18.6869 14.0876 18.746 13.874Z" fill="none"/>
</svg>
