<svg width="96" height="96" viewBox="0 0 96 96" fill="none" xmlns="http://www.w3.org/2000/svg">
<path d="M85.9999 48C85.9999 68.9868 68.9867 86 47.9999 86C27.0131 86 9.99988 68.9868 9.99988 48C9.99988 27.0132 27.0131 10 47.9999 10C68.9867 10 85.9999 27.0132 85.9999 48Z" fill="#0055FF"/>
<path fill-rule="evenodd" clip-rule="evenodd" d="M67.9752 33.7084C68.9384 34.6715 68.9384 36.2331 67.9752 37.1962L44.4174 60.754C43.9549 61.2165 43.3276 61.4764 42.6735 61.4764C42.0194 61.4764 41.3921 61.2165 40.9296 60.754L30.2215 50.0459C29.2584 49.0828 29.2584 47.5212 30.2215 46.5581C31.1846 45.5949 32.7462 45.5949 33.7094 46.5581L42.6735 55.5223L64.4874 33.7084C65.4505 32.7452 67.0121 32.7452 67.9752 33.7084Z" fill="#FCFCFD"/>
<path fill-rule="evenodd" clip-rule="evenodd" d="M88.7106 67.9439C91.5564 62.1349 93.1238 55.7888 93.3137 49.3332C93.3354 48.5971 93.9303 48 94.6666 48C95.403 48 96.0019 48.5971 95.9815 49.3332C95.7908 56.1956 94.1301 62.9428 91.1053 69.1171C87.8849 75.6908 83.2036 81.4409 77.4195 85.9274C71.6355 90.414 64.9018 93.5183 57.7338 95.0027C51.0013 96.3969 44.053 96.3275 37.3588 94.8056C36.6407 94.6424 36.2113 93.9138 36.3945 93.2006C36.5776 92.4873 37.3039 92.0596 38.0222 92.2217C44.3222 93.6432 50.8587 93.7032 57.193 92.3914C63.9629 90.9895 70.3224 88.0577 75.7851 83.8204C81.2478 79.583 85.6691 74.1524 88.7106 67.9439Z" fill="#0055FF"/>
<path fill-rule="evenodd" clip-rule="evenodd" d="M14.9036 15.1C15.4259 15.6192 15.4268 16.4621 14.9233 16.9993C10.5067 21.7116 7.14439 27.3173 5.06729 33.4434C2.84737 39.9908 2.15435 46.9592 3.04125 53.8156C3.92815 60.6719 6.37146 67.2346 10.1843 73.0017C13.7518 78.3976 18.4299 82.9633 23.9001 86.3967C24.5238 86.7881 24.7373 87.6035 24.3644 88.2385C23.9914 88.8734 23.1732 89.0874 22.5489 88.6969C16.7283 85.0569 11.7517 80.2076 7.95985 74.4724C3.92272 68.3661 1.33568 61.4174 0.396615 54.1577C-0.542454 46.898 0.191331 39.5197 2.54184 32.5872C4.74952 26.0759 8.32849 20.1199 13.0313 15.1186C13.5357 14.5821 14.3814 14.5809 14.9036 15.1Z" fill="#0055FF"/>
<path fill-rule="evenodd" clip-rule="evenodd" d="M66.026 6.40468C59.6826 3.65564 52.7944 2.39387 45.8885 2.71587C39.4268 3.01716 33.1097 4.69751 27.3595 7.63806C26.7039 7.97334 25.8942 7.73924 25.5398 7.09376C25.1854 6.44828 25.4205 5.63594 26.0756 5.29959C32.1827 2.16393 38.8963 0.372327 45.7642 0.0520972C53.0765 -0.288849 60.3698 1.04715 67.0864 3.9579C73.8029 6.86865 79.7648 11.277 84.5159 16.8459C88.9783 22.0763 92.2616 28.2003 94.1494 34.8006C94.3519 35.5086 93.9199 36.2357 93.2066 36.4184C92.4933 36.6012 91.7688 36.1704 91.5651 35.4627C89.779 29.2562 86.6857 23.4977 82.4873 18.5766C78.0001 13.3172 72.3694 9.15373 66.026 6.40468Z" fill="#0055FF"/>
</svg>
