<svg width="47" height="10" viewBox="0 0 47 10" fill="none" xmlns="http://www.w3.org/2000/svg">
<path d="M1.41477 0.272727L4.00568 7.61932H4.10795L6.69886 0.272727H7.80682L4.60227 9H3.51136L0.306818 0.272727H1.41477ZM9.16619 9V0.272727H14.4332V1.21023H10.223V4.15909H14.1605V5.09659H10.223V8.0625H14.5014V9H9.16619ZM23.3608 3H22.304C22.2415 2.69602 22.1321 2.42898 21.9759 2.19886C21.8224 1.96875 21.6349 1.77557 21.4134 1.61932C21.1946 1.46023 20.9517 1.34091 20.6847 1.26136C20.4176 1.18182 20.1392 1.14205 19.8494 1.14205C19.321 1.14205 18.8423 1.27557 18.4134 1.54261C17.9872 1.80966 17.6477 2.20312 17.3949 2.72301C17.1449 3.2429 17.0199 3.88068 17.0199 4.63636C17.0199 5.39205 17.1449 6.02983 17.3949 6.54972C17.6477 7.0696 17.9872 7.46307 18.4134 7.73011C18.8423 7.99716 19.321 8.13068 19.8494 8.13068C20.1392 8.13068 20.4176 8.09091 20.6847 8.01136C20.9517 7.93182 21.1946 7.81392 21.4134 7.65767C21.6349 7.49858 21.8224 7.30398 21.9759 7.07386C22.1321 6.84091 22.2415 6.57386 22.304 6.27273H23.3608C23.2813 6.71875 23.1364 7.1179 22.9261 7.47017C22.7159 7.82244 22.4545 8.12216 22.142 8.36932C21.8295 8.61364 21.4787 8.79972 21.0895 8.92756C20.7031 9.0554 20.2898 9.11932 19.8494 9.11932C19.1051 9.11932 18.4432 8.9375 17.8636 8.57386C17.2841 8.21023 16.8281 7.69318 16.4957 7.02273C16.1634 6.35227 15.9972 5.55682 15.9972 4.63636C15.9972 3.71591 16.1634 2.92045 16.4957 2.25C16.8281 1.57955 17.2841 1.0625 17.8636 0.698864C18.4432 0.335227 19.1051 0.153409 19.8494 0.153409C20.2898 0.153409 20.7031 0.217329 21.0895 0.34517C21.4787 0.473011 21.8295 0.660511 22.142 0.90767C22.4545 1.15199 22.7159 1.45028 22.9261 1.80256C23.1364 2.15199 23.2813 2.55114 23.3608 3Z" fill="#3377FF"/>
<path d="M25.4265 9H24.3185L27.5231 0.272727H28.614L31.8185 9H30.7106L28.1026 1.65341H28.0344L25.4265 9ZM25.8356 5.59091H30.3015V6.52841H25.8356V5.59091ZM33.1779 9V0.272727H34.2347V8.0625H38.2915V9H33.1779ZM45.554 3C45.4602 2.71307 45.3366 2.45597 45.1832 2.22869C45.0327 1.99858 44.8523 1.80256 44.642 1.64062C44.4347 1.47869 44.1989 1.35511 43.9347 1.26989C43.6705 1.18466 43.3807 1.14205 43.0653 1.14205C42.5483 1.14205 42.0781 1.27557 41.6548 1.54261C41.2315 1.80966 40.8949 2.20312 40.6449 2.72301C40.3949 3.2429 40.2699 3.88068 40.2699 4.63636C40.2699 5.39205 40.3963 6.02983 40.6491 6.54972C40.902 7.0696 41.2443 7.46307 41.6761 7.73011C42.108 7.99716 42.5938 8.13068 43.1335 8.13068C43.6335 8.13068 44.0739 8.02415 44.4545 7.81108C44.8381 7.59517 45.1364 7.29119 45.3494 6.89915C45.5653 6.50426 45.6733 6.03977 45.6733 5.50568L45.9972 5.57386H43.3722V4.63636H46.696V5.57386C46.696 6.29261 46.5426 6.91761 46.2358 7.44886C45.9318 7.98011 45.5114 8.39205 44.9744 8.68466C44.4403 8.97443 43.8267 9.11932 43.1335 9.11932C42.3608 9.11932 41.6818 8.9375 41.0966 8.57386C40.5142 8.21023 40.0597 7.69318 39.733 7.02273C39.4091 6.35227 39.2472 5.55682 39.2472 4.63636C39.2472 3.94602 39.3395 3.32528 39.5241 2.77415C39.7116 2.22017 39.9759 1.74858 40.3168 1.35938C40.6577 0.97017 41.0611 0.671875 41.527 0.464489C41.9929 0.257102 42.5057 0.153409 43.0653 0.153409C43.5256 0.153409 43.9545 0.223011 44.3523 0.362216C44.7528 0.498579 45.1094 0.693181 45.4219 0.946022C45.7372 1.19602 46 1.49574 46.2102 1.84517C46.4205 2.19176 46.5653 2.5767 46.6449 3H45.554Z" fill="currentColor"/>
</svg>
