<svg width="35" height="32" viewBox="0 0 35 32" fill="none" xmlns="http://www.w3.org/2000/svg">
<path d="M14.3023 3.97739C12.3181 4.8535 10.7983 7.46411 7.75873 12.6853C4.71913 17.9065 3.19932 20.5172 3.42635 22.6594C3.62438 24.5279 4.61257 26.2253 6.14523 27.3296C7.90238 28.5957 10.942 28.5957 17.0212 28.5957C23.1004 28.5957 26.14 28.5957 27.8971 27.3296C29.4298 26.2253 30.418 24.5279 30.616 22.6594C30.843 20.5172 29.3232 17.9065 26.2836 12.6853C23.244 7.46411 21.7242 4.8535 19.7401 3.97739C18.0094 3.21321 16.033 3.21321 14.3023 3.97739Z" fill="#F0A72F"/>
<path fill-rule="evenodd" clip-rule="evenodd" d="M5.61561 11.6302C4.15796 14.1339 2.98053 16.1583 2.20678 17.8222C1.42387 19.5057 0.873306 21.1805 1.05665 22.9105C1.32656 25.4572 2.67284 27.7648 4.75216 29.263C6.16111 30.2782 7.88769 30.6415 9.74652 30.8107C11.5844 30.9779 13.9393 30.9788 16.8567 30.9787H17.1857C20.103 30.9788 22.458 30.9779 24.2959 30.8107C26.1547 30.6415 27.8813 30.2782 29.2902 29.263C31.3695 27.7648 32.7158 25.4573 32.9857 22.9105C33.1691 21.1805 32.6185 19.5057 31.8356 17.8222C31.0618 16.1583 29.8844 14.1339 28.4267 11.6301L28.2596 11.3431C26.8019 8.83897 25.6228 6.81555 24.5569 5.31929C23.477 3.80347 22.2936 2.49996 20.7026 1.79746C18.3588 0.762549 15.6836 0.762549 13.3398 1.79746C11.7488 2.49996 10.5653 3.80347 9.48547 5.31929C8.41951 6.81556 7.24047 8.83898 5.78274 11.3431L5.61561 11.6302ZM4.73302 11.1163C3.28443 13.6045 2.07883 15.6753 1.28074 17.3915C0.475238 19.1237 -0.172131 21.0065 0.0410588 23.0181C0.34178 25.8556 1.84158 28.4246 4.15514 30.0916C5.79077 31.2702 7.74262 31.6538 9.65398 31.8277C11.5486 32.0001 13.9571 32.0001 16.8567 32H17.1857C20.0852 32.0001 22.4938 32.0001 24.3884 31.8277C26.2997 31.6538 28.2516 31.2702 29.8872 30.0916C32.2008 28.4246 33.7006 25.8556 34.0013 23.0181C34.2145 21.0065 33.5671 19.1237 32.7616 17.3915C31.9635 15.6753 30.7579 13.6045 29.3093 11.1163L29.1422 10.8292C27.6936 8.34075 26.4881 6.2699 25.3887 4.72672C24.2772 3.16656 22.9621 1.67875 21.1151 0.863204C18.5085 -0.287735 15.5338 -0.287735 12.9272 0.863204C11.0802 1.67875 9.76514 3.16656 8.65368 4.72672C7.55427 6.26995 6.34882 8.34069 4.90013 10.8293L4.73302 11.1163Z" fill="#F0A72F"/>
<path fill-rule="evenodd" clip-rule="evenodd" d="M18.0425 10.2175C18.0425 9.65086 17.5852 9.19149 17.0212 9.19149C16.4571 9.19149 15.9999 9.65086 15.9999 10.2175V18.4257C15.9999 18.9924 16.4571 19.4518 17.0212 19.4518C17.5852 19.4518 18.0425 18.9924 18.0425 18.4257V10.2175ZM18.3829 22.5298C18.3829 23.2854 17.7732 23.8979 17.0212 23.8979C16.2691 23.8979 15.6595 23.2854 15.6595 22.5298C15.6595 21.7743 16.2691 21.1618 17.0212 21.1618C17.7732 21.1618 18.3829 21.7743 18.3829 22.5298Z" fill="#EBEBED"/>
</svg>
