<svg width="16" height="17" viewBox="0 0 16 17" fill="none" xmlns="http://www.w3.org/2000/svg">
<path d="M7.50011 5.29999V5.79999H8.50011V5.29999H7.50011ZM8.50011 5.28933V4.78933H7.50011V5.28933H8.50011ZM8.50011 12.2333V7.96666H7.50011V12.2333H8.50011ZM8.50011 5.29999V5.28933H7.50011V5.29999H8.50011ZM6.40011 8.99999H8.00011V7.99999H6.40011V8.99999ZM6.40011 12.2H9.60011V11.2H6.40011V12.2ZM8.00011 1.53333C11.8477 1.53333 14.9668 4.65241 14.9668 8.49999H15.9668C15.9668 4.10012 12.4 0.533326 8.00011 0.533325V1.53333ZM1.03345 8.49999C1.03345 4.65241 4.15253 1.53332 8.00011 1.53333V0.533325C3.60025 0.533325 0.0334477 4.10012 0.0334473 8.49999H1.03345ZM8.00011 15.4667C4.15253 15.4667 1.03345 12.3476 1.03345 8.49999H0.0334473C0.0334469 12.8999 3.60024 16.4667 8.00011 16.4667V15.4667ZM8.00011 16.4667C12.4 16.4667 15.9668 12.8999 15.9668 8.49999H14.9668C14.9668 12.3476 11.8477 15.4667 8.00011 15.4667V16.4667Z" fill="#536373"/>
</svg>
